<svg xmlns="http://www.w3.org/2000/svg" viewBox="0 0 1024 1024">
  <path d="M372 98l-20 12-10 5-6-2c-5-2-6-2-13 0l-9 2-7 9-5 9-18 2-16 2-10-3-10-3-9-12c-7-8-10-11-12-11l-20 3-18 2-2 10c-3 8-3 10-3 17l1 7-11 12-12 12v21l4 1 4 1v7c1 7 1 10 6 19 4 8 6 14 7 21l2 12c0 1-3 4-8 7l-9 5v12l-10 3c-7 2-12 5-19 9l-10 6-7-3-17-4-11-1-1 9-2 19c-1 12 0 11-12 12l-5 1-7 11-6 10h-5l-5-1-1 8-1 8 6 12c4 8 8 14 13 19l6 8h7c13 2 13 1 15 10l3 9-14 12a83 83 0 01-27 18l-15 7-12 29a1138 1138 0 01-21 49l3 3c3 1 3 1 12-6l10-8h8c7 0 9-1 25-7l19-6 30 18-1 7c-1 7-1 7 3 19l6 14 5 3 6 1 25 53-11 10-22 19c-11 9-11 9-12 14l-1 6-17 9-15 7H63l-30 1-10 1-5 9c-6 8-7 9-11 10l-6 3c-1 1 0 3 2 11 1 1 3 0 8-2l8-2 3 6 1 5h9l18-2h10l15 14 14 15-3 7-4 7 3 14 3 13 5 4 8 7 2 3-7 8-8 9 3 11 9 21 5 11-7-3-7-3c-2-1 3 6 12 15l9 9 19 3c18 3 21 3 46 12l26 9h43l23 7 22 6 16-6 17-5 28-2 34-2h5v-5l2-18v-13l9-3c5-1 9-3 9-4l-1-17c-1-16-1-16 2-24l4-8 17-4 9 12c8 10 10 11 15 14 8 3 8 4 12-7 4-8 7-13 14-22l9-13 14-7 14-8 9 5 9 4 17-1c20-2 23-2 37 0l12 1 6-5 7-5 7 2 5 3 9-5 9-5 5 5 5 4 9-2 8-3 3-7c3-6 4-7 8-10 6-3 6-2 0-14l-3-7 2-4 6-21c4-24 5-27 6-28l38-5 36-4 16 12 15 11 4-3a919 919 0 0046-42c9-7 11-10 12-13l1-20v-17l-4-6-5-6 6-2 5-2 7-14c6-13 7-14 9-26v-19l-2-8 4-9 3-9-1-14-2-13 7-12c6-12 7-13 16-22 18-17 17-16 31-20l14-4 11 1 12 1 11-6c13-7 38-26 38-29l-10-29-23 3-23 4-17-6c-13-4-22-7-33-13-14-8-16-8-26-10l-17-2c-6 0-8 0-12-3s-5-4-4-5l3-18 2-15 6-8c4-5 6-9 6-11s1-4 5-6l10-11 6-7-3-6-3-11-2-6-6 4-6 6c-1 1-4 1-17-1l-22-2c-6 0-10-1-18-4-10-3-11-4-20-11-12-11-17-13-38-16l-15-2-10 6-11 6h-10l-15 1c-7 1-14-1-20-4-5-3-5-3-6-9l-2-6c-2-1-37-9-47-10l-8-2-10 5-10 5-8-1h-11c-5 1-16 0-25-2-8-3-12-3-18 2-4 3-5 3-10 3h-6l-7-13-7-14-5-1-38-9c-2 0-2-1-2-10v-10l-4-1c-3-1-5-3-5-4l-1-11-1-9h-14l-7-9-6-10-9 3-8 2-11-8-12-9-11 6z"/>
</svg>
