<svg xmlns="http://www.w3.org/2000/svg" viewBox="0 0 1024 1024">
  <path d="M970 123a313 313 0 01-22 43c1 2 1 3-3 6l-5 5c-5 2-5 1-2-2l4-8v-5l-10 10c-11 10-13 12-16 12l-20 15-21 18c-2 2-2 2-1 4 3 3 2 6-7 9l-9 3 2-3c1-3 1-3-1-4l-2-1-4 4c-2 3-5 6-9 8-7 4-8 6-5 8 2 1 2 1-1 5l-4 7-1 2-2-2-2-2-3 3c-2 2-3 5-3 9-2 6-7 11-8 6l-2-2-14 19c0 2-1 2-5 1h-6l-4 5-12 11c-8 6-31 30-32 33l-11 5c-9 2-10 3-16 9l-18 13c-10 7-12 9-8 11 1 0 2 5 0 7l-3 2c-3 1-3 1-4 5 0 3 0 4-2 4l-2-1v-3c0-3 0-4-3-5s-4-1-9 2c-8 3-11 5-11 7l4 1c4 0 4 1 1 4l-3 4-2 3c-2 2-3 5 0 7 1 2 1 3-3 3-2 0-2 1-2 3 0 3-1 3-4 5-3 1-3 1-3 4 1 2 0 4-2 7l-3 6c0 3 0 3-4 3-5 0-5 1-1 5l2 4-4 6-5 6-1 2-3 1-5 1c-2 1-7-1-13-6s-7-8-6-20c1-3 0-3-1-3-3 0-9 9-9 13 0 1-1 2-3 2-4 0-6 2-6 5 0 2 0 2 5 2 5-1 5-1 10 4l12 9c6 3 8 4 8 6l2 4c2 2 0 6-4 6-2 0-3 1-5 4l-3 4h-11c-9 0-10 1-14 3-4 3-11 4-17 2-5-2-14-11-14-14l-2-4c-1-2-1-2-6 0-5 3-6 6-1 6 2 0 3 1 3 3s1 3 2 3l2 2c3 4 1 7-4 7l-7 3-6 3-7 3c-3 2-6 3-11 3-8 1-16 3-18 5h-18l-9 1c-6 0-7 0-9-2l-2-3-20 2-20 1-5-3-5-4-1-3-9 2-8 2-4-2c-3-2-4-2-5-1h-10c-14-2-18-3-22-9-6-9-14-13-15-7 0 3-1 3-7 6-8 3-10 2-10-1 0-4-2-5-8-6-4-1-6 0-8 1h-8l-7-1c-2 0-3-1-4-3l-3-3c-5 3-9 3-13 3-4-1-5-1-6-4-1-4-6-4-10 0-4 3-6 3-6 0l-5-5-8-7c-3-3-4-3-7-3-2 1-3 2-5 8l-2 6-9 3c-7 3-8 4-10 8s-2 4-6 4c-3 0-5 1-12 7l-10 8c0 1-1 2-3 2l-9 3c-6 3-7 3-14 2h-27c-3 1-4 1-6-3-2-3-2-3-9-3l-10-2-6-1c-4 1-10-1-19-8l-8-6-2-14-2-15 2-2c2-2 2-2 1-5v-4c2 0 2-3 2-8 0-7 0-7-4-11l-5-4-2 9c0 7 0 8-2 8l-2-2-3-10c-3-7-4-7-4 2l-1 6-4 1-4 1 1-7c1-10 0-24-2-28l-2-3-1 3v9l-2 7c0 4 0 4-5 6l-5 3-4 14-4 13 88 155 89 154 243 62 242 61 27-17c24-15 28-18 29-20l2-22v-18l8-31 7-30 13-14c13-14 14-15 26-36l12-22 7-2c9-3 9-4 8-19v-12l4-4 3-5 1-14a62 62 0 015-24l-8-7c-8-6-9-6-7-14 0-3 1-3 29-12l28-10 12 5 11 6 6-2 13-1 6 1 5-6 5-7-3-6-7-7c-4-1-5-4-3-7l2-5c1-3 1-3-17-1-9 1-10 1-12-1l-12-9 10-11 9-11 1-8c1-8 1-8-2-13s-3-6-3-20l-1-15 6-15 6-14-5-22-6-21 7-7 7-6 17-4 18-5 9 22-8 2-3-3c-2-3-2-3-4-2l-3 1 8 16 8 16-5 5-6 6 2 6c2 5 2 6 6 6 8 2 10 1 15-3l4-4 4 3 5 3 5-5c5-4 6-5 7-10l2-7 9-7c8-6 9-7 12-13 4-6 4-7 3-12s-1-6 2-10c2-4 3-4 7-4h5l-2-6-3-5 4-15c3-13 3-18 3-30l1-14 4-7c5-8 5-11 1-12l-3-1 7-8 2-3-2-4-2-4 2-11c2-10 3-19 1-24 0-2-9-5-14-4-3 0-4 0-6-3l-3-4-5 2c-4 2-4 2-5 5 0 2-1 4-4 6l-4 3-5-2-4-3v-8l-1-9 5-11c7-13 9-20 10-44v-17l-7-8-8-8-2 5z"/>
  <path d="M224 449c-2 4-2 7 0 14 3 8 4 9 5 6 0-1 1-2 3-2s4-1 5-3c3-4 3-5-1-12-2-4-3-5-7-5-3 0-4 0-5 2z"/>
  <path d="M473 488l-4 2-5 2-9 1c-5 0-7 1-15 4-11 6-11 6-10 8l8 1c7 0 7 0 9 3s2 4 11 5c7 0 11-1 11-6 0-2 0-4 2-5s3-1 5 1 2 2 0 3c-2 2-1 4 2 4l5 2c2 2 3 1 3-1s0-2 3 0c3 1 4 1 7-1 4-2 4-3 4-6 0-4 0-4-6-6-11-2-20-8-12-8 3 0 3-1 0-4s-6-3-9 0z"/>
</svg>
