<svg xmlns="http://www.w3.org/2000/svg" viewBox="0 0 1024 1024">
  <path d="M735 128l-7 4-5 7-4 11c0 2-2 4-5 6-4 3-5 5-6 8s-3 5-7 8c-6 3-6 5-3 14l2 11c0 5 0 6-3 7s-4 3-4 5l-2 3-6-4-6-4-9 1-16 1h-6l-5 8-6 8 1 7 2 6-4 4-3 3-9-5c-4-4-9-6-9-6l-12 2c-8 1-11 2-14 5-5 4-7 5-19 9l-15 7-7 4-9-5c-7-4-10-7-11-10-2-3-4-4-11-8l-8-4-11 2-10 2-7-6-6-7-11-1c-10-1-11-1-26 1s-16 2-21 1c-4-2-6-3-9-7-4-4-4-4-9-4l-13-3-7-3-6 12-7 11-18 1h-15l-11 6-11 6v7c-1 6-2 9-6 17-5 9-5 10-5 17 0 8 0 9-5 17-4 7-5 9-13 15l-9 6-5-1h-6l-3 6-3 6-4-1h-13c-7 0-10 0-16 3l-20 6-13 3 3 7 2 6-3 3c-2 2-3 4-4 9l-1 8-20 10c-19 9-19 9-22 8-2-2-3-2-8 2l-6 3v-4c1-4 1-4-8-15l-9-10-7 2c-6 3-6 3-18 1l-12-1-5-9c-5-8-6-9-9-9-6 0-7 1-10 12l-6 16-2 10-2 11c-2 5-3 7-2 16v9l-5 7c-5 6-6 7-12 9l-7 4c0 2 4 7 8 10 4 4 5 4 4 7-1 2-1 3-10 3l-9 1-5 5c-4 5-5 6-3 20 1 7 1 10-1 14-1 6-1 6 1 11l2 6 9 2c9 3 13 5 13 8l-6 6c-4 3-6 5-7 8s-4 7-7 9c-4 5-5 6-5 10l9 39c9 38 9 37 5 52l-1 7 3 5 3 6-3 3c-3 2-3 3-3 13v11l27 8c29 9 35 12 37 18l3 8 3 5-2 11c-1 10-1 11-5 15l-23 25-19 22-2 8c-2 8-3 8-9 15l-7 7 54 22 54 22 29-1 38-2c8-1 10-1 27 1 16 3 18 4 21 6 3 3 7 5 9 5l1-3c0-3 1-5 4-8 5-5 10-7 23-10l6-2 19 6 19 5 45-14 45-14 3-5 2-4-4-5-5-6 4-13 4-14-2-5-3-4 5-17 5-15 6-1c5-2 6-2 7-5l3-5 5-7c5-7 17-14 23-14h5l1 5c1 4 1 4 4 4l15-2c12-2 31-7 34-9l1-3c1-2 0-3-7-4s-9-2-9-5c0-2 13-8 23-11 5-1 15-11 16-16 1-3 1-3 6-3 4 0 5 0 7 3l8 5 8 2 1-3c0-3 0-3 3-5l4-1 4 4 8 9 4 4 7-1h7l9-18 10-17v-40l8-7 8-8-2-4-3-4 4-4 3-4-2-8-2-7 5-2c3-2 7-3 12-3l22-5 14-3 4-9 4-9-6-6c-7-8-8-11-4-17 3-4 3-4-1-4l-10-3-6-2-3-8c-3-8-3-9 0-13 2-2 4-3 8-3s6 1 15 6l11 6 13-2c11-1 30-5 33-7l6-7c4-6 5-9 6-14l1-7-4-6c-3-4-4-6-4-10s1-6 3-9 5-7 6-12l2-8 14-6 13-8-1-5c-1-3 0-4 2-7l3-2-3-3c-2-3-2-3-1-8s1-6-2-15l-4-18v-9l-6-4-11-9-5-6 12-17 14-18c1-2 2-2 11 1l10 3 2-9 3-9 9-1c9-1 11-2 23-14l9-9 28-1 32-1c3 1 5 0 11-2l8-3 14 5 15 5 4-3c3-2 6-4 13-5 8-2 15-5 15-8l-3-9c-2-6-3-9-2-12 0-4 1-4 5-3 2 1 2 1 5-2l4-3 3 2 4 2 1-2c1-3 1-3-1-5-3-4-10-6-13-4-2 1-3 1-6-1-3-3-5-3-10-3-6 0-8 0-10 2-1 2-6 4-11 5l-16 5c-10 4-11 4-8 1 2-2 2-3 1-6s-2-3-5-3l-8-2c-4-1-4-1-15 2l-13 3-3 4-2 5h-6c-6 1-7 1-10 6l-9 12-6 6-8 1-10 2c-2 0-9 7-18 14-18 15-18 14-25 16l-6 1-5-4c-5-5-12-17-16-27-2-7-2-7-1-15 1-5 2-12 4-15l2-7-2-4c-3-6-2-17 2-23l3-9c0-4 0-4-2-3l-5 2-8 1c-5 0-5 0-6-3l1-11 1-14v-6l-7-4a138 138 0 01-23-15l-8 3z"/>
</svg>
