<svg xmlns="http://www.w3.org/2000/svg" viewBox="0 0 1024 1024">
  <path d="M748 106c-10 4-14 7-9 10v10c1 0 2-1 2-3l1-2 1 2c2 4 2 4 3 2h2l3 1v-7l2-6c0-4 1-4 3-5 3 0 3 0 3 3l-2 6-2 8v5l-5 1c-3 2-5 2-7 1-3-2-9-1-10 1l-7 1c-7 0-8 0-8 2v3c1 2 1 3-1 5-3 3-3 3-1 10 0 5 2 8 5 13l4 7-3 6-3 5 3 3c3 4 3 4 7 3 5-1 5-1 11 3l6 7 3 4 5 6c2 3 2 3 3 1v-24c1-2 7 5 13 13 3 4 7 10 10 12 6 5 6 5 9 4s3-1 4 4c2 5 2 12 1 12h-1c0-2-1-2-3-1v7c2 5 2 6-1 13-2 7-3 8-6 10l-4 3-4-6c-4-4-7-7-7-4l5 10 7 14c1 3 2 5 4 5 2 1 2 2 2 5s1 4 2 5l3 3c1 2 1 3 3 2l1 2c-1 2 0 4 2 6 3 4 3 6 0 9l-5 8c-3 5-4 7-6 7-1 0-2 1-2 4l-3 6c-2 3-2 3 1 4 4 2 5 4 5 20 1 12 1 15-1 17l-1 4c0 2-1 3-3 5-3 3-4 3-8 2l-5-1-5 4-4 5-7-1-7-1-3-4-3-5 1-9 4-14c3-4 3-7 4-14 0-7 0-11-5-33-6-27-7-33-3-38 2-3 2-3 0-4-3-1-8-7-13-15-3-5-3-6-3-13l1-7h-3c-2 0-3 0-6-5s-3-6-1-6c2-2 2-2 0-4-2-3-6-3-6 0l-5-8c-5-8-6-9-5-13 0-4 0-4-3-4h-4c-2 1-3 1-6-1-2-2-2-4-3-13l-1-12 2-1 3-3 3-3c3-1 4-6 1-7-1 0-2-1-2-3 0-3 3-3 7 1 1 3 3 4 5 4l3 3 1 3-6 1c-6 1-8 1-8 4l7 1c6 0 6 0 7 2v5c-1 2-1 2-6-1-5-2-7-2-3 1l1 5c-1 2 0 3 2 6 2 2 3 3 3 7l2 10c2 6 3 6 9 9 4 1 6 2 8 1s2-1-6-8l-8-7v-9c0-6 0-9 2-10l4-10 4-9-3-3-3-4-1-2h-4c-3 2-4 2-4-2 0-1 1-2 4-2l5-1v-6l1-6-6-4-6-4-6 6-10 15-4 10-10 6c-6 4-8 6-10 9l-2 5 11 7c14 8 17 11 25 25 8 12 11 19 12 31 1 11 3 14 11 20 10 9 14 15 17 32 2 10 3 15 2 22 0 8 0 9 3 14 2 5 2 5 2 18-1 11-2 16-8 39l-7 31c0 3-1 7-5 13-4 9-4 9-3 16 0 6 1 8 4 13l3 5 4-1 5-1 3-6c4-8 8-11 26-19 14-8 15-8 22-8 5 0 8 1 13 3l12 3c5 0 6 0 8 2 1 2 7 6 14 9 14 8 23 15 30 23 2 4 6 7 10 10l7 4 8-1c8-1 8-1 14 2l14 9c9 6 11 10 20 26 6 10 7 15 5 26l-2 9c2 1 9-8 12-15s3-7 9-10c5-3 7-3 11-3 10 1 19 4 29 9 9 4 10 4 14 10 3 5 4 6 6 6 3 0 4-2 1-4-7-6-8-7-8-15l1-9c1-2 1-3-1-5-4-4-5-8-4-14 0-5 1-6 3-7 5-2 5-6 0-19-4-10-4-10-3-16 1-4 2-6 5-7 3-2 4-5 4-12 0-2 1-5 3-7l2-3v-20c0-17 0-19-2-22-1-2-2-5-2-14-1-11-1-13-3-16-3-5-7-18-7-24l-2-8c-2-2-3-5-3-7l-2-5-2-5c-2-9-3-11-6-12l-3-3-2-4c-2-2-3-3-2-5 0-2-5-7-17-16l-4-4-7-9c-5-7-8-9-17-14-12-7-13-8-13-13 0-2-1-3-5-6-8-4-18-19-18-25 0-4-1-4-8-8-4-2-6-4-6-6l-4-5c-3-2-4-3-4-5 0-5-6-11-11-11l-5 1h-6c-3 0-7 1-7 4 0 2-2 3-4 3l-1-2-5-5-6-6-1-3h-8l-6 1c-5-1-6-1-6 1l1 2 1 3c0 2 1 3 3 4 3 1 3 2 3 5 0 6-1 8-5 9s-11 8-11 10l3 1c2 0 3-1 4-3l4-2 9-5c6-4 7-5 7-3 1 2 7-2 7-4l1-3 2 3 2 3c0 2-6 8-8 8l-5 2-5 3-2 4c-1 6-4 6-5 2-1-5-1-5-3-5s-2 0-2 3c1 3-2 4-14 4-8 0-10 0-16-3l-11-6c-4-4-9-14-10-22l-2-10c0-3 0-3 2-2l7-1c6-3 10-8 11-16l1-6 3 5c2 4 2 6 2 11l2 9 2 3-3 2c-4 1-4 1-3 5v5c0 2 0 2 5 2l10-4 8-4 4-1-2-3c-2-1-4-5-5-8l-6-8c-2-2-7-7-10-13l-9-12c-2-1-3-3-3-5l-11-13c-9-9-10-10-13-10l-10 2z"/>
  <path d="M173 498l-3 1-3 2c-1 2-11 7-14 7l-2 2-4 1-5 2v6l2 5-4 5-9 9-4 4h2c3-2 4-1 4 7 1 10 0 17-2 17l-5 2-8 3h-5l3-2c1-2 3-3 5-3s4-2 2-3l-1-1c0-2 5-6 7-6 1 0 2 0 2-3 0-2-1-3-3-5l-3-4c-1-2-4-4-5-2l1 3c3 3 2 8-5 19-6 8-6 8-6 14l-1 9c0 1 0 2 2 3l2 3c0 2-4 1-6-1l-2-2-2 2-3 3c-1 1-2 2-1 3 0 4 2 4 5 1 3-2 5-2 7-1l7 2c5 0 6 0 6-2l-4-2-4-3c1-2 6-2 9 0l4 2c1 0 3 1 3 3 2 4 1 6-2 5l-3 2c-1 2-2 2-7 2-4 0-5 0-5 2 0 3 8 5 12 3h3l5 5 5 5 4 4c5 3 5 3 2 6l-8 1c-10-1-13-3-16-9l-2-5-3 2c-1 2-3 3-8 3-13 0-15 0-19-6-3-5-9-7-15-5l-4 1-3-5c-2-5-3-6-5-4-1 2-4 2-7-2l-5-2c-4 0-14 3-13 4l7 1 6 1v7h-4l-7 2c-1 2-4 4-7 5-6 4-5 5 2 3 2-2 3-2 3-1 0 2-3 5-7 6-2 0-3 0-5-3l-3-2-1 8-1 8-3 4-6 7c-3 5-4 6-1 9 3 2 3 4 0 5l-4 4c0 1-1 2-2 1-2 0-2 0-1 3l3 3 1 2 2 1 5-1c1 0 3-1 4-4 4-5 7-7 12-4 3 1 3 1 5-1l6-2 7-1c3-1 6-2 8-1 2 0 4 0 6-2l4-2c3 0 6 2 6 4l2 3v5l-1 6-5 6-2 3-2 5-3 6c0 2-4 6-7 6l-6-1-9-2c-3 0-5 1-9 5-5 4-7 5-11 2h-5l-4 1c-3 1-11 9-11 12 0 2 1 3 2 3 2 1 1 1 3-2 1-1 2-2 7-2 6-1 6-1 10 2l4 2h10c3 3 3 10 0 12l-4 1h-4c-4 4-2 7 2 5 6-3 10 3 12 19 0 4 0 5-2 7l-3 8c0 5-1 6-3 7h-2c-2-2-5-1-6 2l-4 4c-3 1-4 3-2 4l4 4v5c-1 2-1 2 1 3 2 0 6 18 4 19-1 1 0 2 3 7 5 7 7 13 6 16-1 2 0 3 3 7 4 4 5 4 8 3 3 0 4 0 5 2l4 1c9-3 29 0 38 4 4 2 4 2 5 1 1-2 6-2 9-1 2 1 3 2 4 6 0 3 1 4 3 4h14l10 2c7 0 11 3 6 6-3 2 0 3 3 2 4-1 6-1 8 1s2 2 5 0c2-1 4-2 4-4 1-3 3-4 6 0 2 2 2 2 1 5l-1 8-1 9c-1 2-1 3 2 4 3 0 3 0 3-2s1-2 3-2l5-1c1-2 3-2 8-2 6 0 7 0 8-2 1-3 1-3 9-1 3 0 4 0 4-2 1-2 6-3 7-1l4 1c2-1 2-1 2-5l-1-6c0-1 1-2 3-2 2-1 3-1 5 1h4l7-1c4-1 5-1 5 1 2 3 4 5 11 6 7 0 8 1 12 4 5 5 9 8 11 8s1-2-2-5l-3-6c0-3 2-7 4-7l1-1c0-3 0-4 2-4l1-3c0-3 1-4 5-5l2-3c0-3 5-5 10-4l6 1c5 0 11 1 12 3 1 1 0 3-1 7-2 5-2 6-1 9 2 3 2 3 0 4l-10 2c-6 1-7 1-7 4 0 1-1 2-3 2-4 2-1 8 4 8s6 1 6 6c-1 4-1 3 7 5 3 1 3 1 3-2 0-2 1-3 5-5l8-3c2 0 3-1 1-3v-3l-2-2c-2-1-3-2-3-4 0-5 2-5 6 0 4 4 4 4 2 4-3 0-2 2 2 5 4 2 5 3 5 6s0 3-3 3l-3 1c0 2 2 4 5 4s9 3 9 5l3 1 2-1 2-1 2-1 3-1h3c1-1 1-1 2 1s6 1 11-4c2-3 5-5 6-5l4-2c1-2 1-2-2-3h-3c-1 2-3-1-3-4v-3l2 2 3 1 2-1c4 0 8 6 7 10 0 3 0 3 3 2l4-1 1-6c0-6 0-6-6-12-4-6-5-8-5-11 0-4 1-5 8-5 3 0 3 0 2 3v4c0 4 0 4 2 2 2-1 3-3 3-5l2-4 2-5c0-3-1-5-5-9l-6-5-1-1-4-2c-6 0-6-1-6-8s0-8-3-10l-3-6c0-3-2-6-3-8l-3-5 2-4c1-3 2-4 7-1 4 2 4 2 6 0l4-2c3-1 8 1 10 4l6 4c2 0 5 2 6 4l8 4 8 5 12 6 9 4 21-1c20-1 20-1 23 1 2 2 2 2 4 1v-3l-1-2c0-2 0-2 2-1s3 1 4-1h5c3 0 7-1 7-3 0-1-1-2-4-1l-4 1-4-7c0-2 3-5 5-5l2 2c0 2 1 1 5-2 3-3 3-4 2-8 0-3 0-4 2-5h7c3-1 3-1 2 1-1 4 2 4 8 0 5-5 6-7 2-6-3 0-7-4-5-6l6-10-3-1c-2 0-3-1-3-4l-3-7v-3c3 0 2-5-1-9-2-3-3-5-1-5l3-1c3-1 3-1 2-2s-2-2-4-1l-3-1 2-2c3-1 3-7 0-9-2-1-4 1-4 4l-2 2-2 1-4 1c-4 1-5 1-5 4s-1 4-2 2-5-2-7-1h-8l2-4 3-3h-5c-5 1-6 1-6 3l-2 2-1-1v-2c0-2 0-3-2-4-2 0-3-1-3-2l1-3-3-3c-4-2-4-2-6-1l-3 2c-2 0-3 1-3 3-1 2-3 4-8 6l-7 2-3-3-4-2 3-1h5c1 1 2 0 6-3l7-6c3-3 5-7 2-9-2-2 0-4 8-5h6c1 1 2 1 5-2l5-3 3-1c2-2 1-5-1-5-5 2-5 2-2-1 2-2 3-3 3-6l1-3 4 6c0 1 1 3 3 3l2 2-2 1-2 3c0 2 3 2 5 1 2-2 3-2 7 0 5 2 6 1 4-3-3-4-2-11 2-13l3-3c0-6-2-8-4-4l-1 1-2-2c-2 0-3-1-3-2 0-2 1-2 5-2 6 0 8-1 8-6 0-2 0-3 2-2l1-2 2-3c3-3 3-3 0-5-3-1-5 0-5 3l-1 3-3 2-5 2-4 1c-3 2-4 0-2-2 1-2 3-3 5-3 3-1 6-5 5-7-1-1-13 4-15 6-1 2-7 3-7 1s-3-2-5 0c-2 1-4 1-4-2 0-2-8-7-12-7h-5c-1-1-2-1-2 1l-3 4-3 2 6 2h2c0 1-3 3-7 3h-3l2 3v3c-3 2-6 1-6-1-2-4-4-2-5 4s-1 6-3 5c-1-2-1-2 1-6 2-6 2-6 0-6l-4 4-5 4-5 2c-1 1-2 1-4-1-3-2-3-5 1-6l3-2 3-3c1 0 2-1 2-3s0-2-1-1c-1 2-2 2-3 2-1-1-3 0-4 1l-11 4c-13 2-13 2-15 8l-5 8-3 3 1-4 1-11c0-7 0-8 2-9l3-5c0-5 1-7 6-7 3-1 4-1 4-3 0-3-6-8-8-8s-2-1-2-2c0-2 1-2 4-2 2 0 2 0 1-2h-6c-3 1-4 1-6-1-2-1-2-1-4 1l-9 1c-5 0-9-1-9-2l-3-1-3-3c-2-5-4-7-7-6l-4 1-3-11c0-4 0-4-2-4s-3-1-4-3c-2-3-2-3 0-4l2-3 2-2c3-1 10-7 10-9l3-1c3 0 3 0 2-4 0-5-1-5-3-5l-2-1c-1-1 0-1 1-1l1-2-1-4-2-2-2 2-3 1c-5-1-5 0-2 3l2 4-10 9a325 325 0 00-22 19c1 1 2 2 3 1 2-1 3-1 4 1 2 2 2 4 2 10l-1 10c-1 4-5 4-5 1-1-2-1-2-3-1l-3 2-3 2-5 1c-4 0-4 0-3-2l5-4c4-1 5-3 1-4l-3-2-4 4c-4 3-5 4-8 4l-5 2c-2 1-2 1-3-5-1-2-1-4 3-7l3-5-3-3c-2-3-3-4-3-7s0-4-2-4c-3 0-13 6-16 9-1 2-2 2-2 1l1-2c2-2 1-3-1-3-2 1-3 0-4-5l-2-5 4-3c3-3 5-4 8-4 4 0 6-2 4-4-1-2 1-4 4-4l2-1-2-2c-3 0-4-3-1-5 1-1 2-1 3 1 6 3 7 3 10 1 4-3 4-4 4-8 0-5 0-5-5-8l-8-3-3-1-3-1c-2 0-4-1-5-3l-5-4c-5-2-6-5-4-9 2-3 1-4-2-3-3 0-3 0-4-4v-6l1-5c0-3 0-3-5-3l-6 1-5-6c-6-7-8-11-8-16l-2-4c-2-2-2-2-13 0a113 113 0 00-18 3l-7 2c-5 1-5 1-12-2-5-1-7-3-8-5l-4-2-7-3c-4-2-4-2-6 0zm152 395v1c-2-1-3-3-1-3l1 2z"/>
  <path d="M346 527c0 2-1 4-3 5-2 2-2 3-1 6 1 2 1 3-1 4l-2 4c-1 2-1 3 2 5 3 3 4 3 7-1 4-3 6-3 8 2l1 4 1-3c1-4 1-5 6-6l6-3 5-2 4-1-2-5c-2-3-3-4-7-4s-6-1-7-2l-2-2-2 2c-2 3-5 2-9-3l-3-4-1 4z"/>
  <path d="M332 560c0 8 1 11 4 11 2 0 2 0 2-3l2-5c1-2 1-2-1-2l-3-1-2-3-2-3v5z"/>
  <path d="M426 594l-4 5c-2 1-3 3-3 6-1 4-1 4-4 4-2 0-3 1-3 2 0 2-3 3-4 1-1-1-3 0-6 4l-4 5h-7c-5 0-7 0-8 2-2 2-4 1-4-1l-2-1c-2 0-2 1-3 5v9l3 2c2 1 3 1 11-3 7-4 11-5 16-6l8-2c1-1 2-1 4 1 3 2 4 0 1-3v-2l3 1c1 2 2 1 2-2 1-3 2-4 4-5l5-2 4-2c5 0 8-5 5-9-1-2-2-3-5-2-4 0-6-1-6-6 0-4-2-4-3-1z"/>
</svg>
