<svg xmlns="http://www.w3.org/2000/svg" viewBox="0 0 1024 1024">
  <path d="M1004 212l-2 5c0 2-1 3-2 3-2 0-4 1-5 3-2 2-3 3-4 10v7h-4c-3 0-4 0-5 2l-3 3-3 1-3 2c-4 0-13 6-19 12-4 3-6 8-3 10 2 0 2 1 1 3-2 3-7 4-16 2h-31l-10 8c-8 6-10 7-13 7l-5 1-8 4c-3 1-8 3-9 5l-9 5c-6 2-7 2-11 1-6-2-10-6-9-11l2-6c2-4 0-6-4-4-2 2-4 2-7 1-4 0-16 3-19 5-2 2-8 5-14 6l-12 4c0 2-13 9-21 12l-10 5-8 3c-4 0-9-4-9-6l-4-7-4-6c0-4-1-4-2-2l-10 9a74 74 0 01-35 18l-18 6-20 5-10 1-9 8c-8 7-9 8-13 8-6 0-20 6-27 11-5 3-7 5-7 8l-3 3c-2 0-10 3-12 6l-7 4c-5 2-6 3-6 6s0 3-7 4c-4 0-9 2-10 3-2 1-2 2-2 6 0 6-2 7-5 5-3-3-6-1-8 6s-7 11-14 11l-4 1-3 4-2 3 4 2 12 11 8 7v8l1 10c2 3 2 5 0 5-2 1-1 3 2 7 3 3 3 4 3 10 0 7 0 7-5 14l-20 15-15 11c0 2-4 4-10 5l-9 3c-2 2-5 3-7 3l-9 3c-8 3-15 5-21 5-7 0-16 6-31 20l-13 12h12l11-1 1 4c2 9-1 29-5 33-10 8-15 9-31 6-13-3-22-2-31 1l-15 4c-6 1-10 2-18 6-12 6-12 6-39 4l-16-2-3 3-3 3h-29l-7 3-13 8c-6 4-6 4-6 9 0 4-1 7-4 13-4 6-6 9-16 19l-13 11h-8c-5-1-8 0-10 1l-5 1c-2 0-2 1-3 4-1 4-2 6-12 13l-12 9c-3 0-10 5-17 12-5 5-6 6-10 6l-6-2c-2-2-3-3-7-2l-9 4c-6 3-6 3-6 8-1 7-2 9-9 12-4 2-5 4-5 5 0 3-2 6-5 8-2 0-4 3-6 5-2 3-3 4-5 4l-9 3-4 7-4 6h7l11-1 8-2c3 0 8-3 13-8 5-4 12-5 15-2 2 3 4 3 5-1 3-5 9-9 16-10 5-1 6 0 12 3 5 2 7 4 9 7 1 3 2 4 7 4 3 0 5 1 5 2 0 2 5 1 9-2 2-1 3-3 3-5s2-4 6-8c8-7 12-8 20-6l4 1v8c0 8 0 9 2 10 3 1 3 1 4-4 4-12 6-16 18-28l14-12h11l9 1 3 5 4 4 7-3c5-1 6-2 7-5 0-3 0-3 4-3 3 0 4 0 5-2 1-3 12-10 22-15l10-9c4-5 5-6 11-8 5-2 10-2 19-3h13l11 6 12 6v5l2 8c3 4 4 8 1 12-2 3-3 7 0 9 1 2 2 2 11-3 9-4 9-4 20-4l10-1 5-4c4-4 4-5 11-5 8 0 8 0 12 3l5 4c2 0 5-3 5-6l1-2 2-3c1-2 1-3 8-3 9-1 14-3 14-6l3-3 4-2 7-2c9 0 12-2 11-4 0-2 1-3 5-5 5-3 8-9 10-17 0-6 5-14 8-15 4-2 11-7 12-11l3-11v-9h5c3 0 7 2 6 3l-1 11c2 2 14-7 16-12 1-5 4-5 7-2 2 2 4 3 9 3l7 1 2-6 3-6 11 1h11l4-3c3-3 7-4 11-5 6-1 6-1 7-5l2-8c1-3 2-4 4-4 3 0 6-3 6-9 1-5 1-5 5-6 4-2 5-2 12 1s8 3 9 1l8-1c5 0 7-1 13-4l8-3c5 1 9-13 4-15-2 0-3-3 0-7 2-4 7-6 10-4 5 2 17 0 18-2l4-2c2 0 6-2 13-7 8-5 9-6 16-7 6 0 7-1 12-5 6-5 6-5 12-5 5 0 7-1 12-3 4-2 6-3 8-2s4 0 6-1c3-1 4-2 2-3s-2-2 0-5c2-5 2-8-3-10-4-1-4-2-1-5 2-3 2-3 0-4s-3-2-1-5c1-1 2-2 5-1 3 0 3 0 5-3 1-3 2-4 6-4 5-1 5-1 5-4l3-6c2-2 2-3 2-7v-8c1-3 1-3 6-3s5 0 8 4l4 4 6 4c5 4 7 5 21 3 10-1 14-4 15-10l2-5c3-2 10-1 14 1 4 3 8 3 9 0 0-2 5-5 7-5 3 0 3-5 0-10l-3-6 2-3c2-2 3-3 8-3 6-1 6-1 8 1 2 3 5 4 7 1 2-2 2-22 0-24v-6l2-12v-8l5-2c2 0 5-1 7-3 3-1 4-2 5-1 3 2 3 1 3-4 0-4 0-5 2-6l4-5c1-3 1-3-2-9l-4-6-5 3-4 3-6-5-9-6c-2-2-2-3-3-9 0-5 0-8 2-11 2-6 5-7 11-8l5-1v-5l3-6 3-4c0-2 5-7 7-7l5-2 9-3 7-2 4-2c2 0 3-1 3-3 0-4 2-7 4-7 3-1 3-2 2-3 0-4 2-8 6-11s7-8 8-13v-4h9l8-1c0-1 1-2 3-2 2-1 3-4 0-4l-4-2c-2-1-2-2-1-6l-1-4-1-6c1-6 1-7 4-10l5-6 3-6 2-4-7-2-9-1c-2 0-3 0-4 3z"/>
</svg>
