<svg xmlns="http://www.w3.org/2000/svg" viewBox="0 0 1024 1024">
  <path d="M389 6c-5 4-9 8-13 14-6 7-6 8-7 15-1 8-2 8-4 9-4 0-6 4-10 16-2 9-3 9-8 13l-9 10-8 9c-6 4-8 8-8 17 0 5 0 6-3 8-2 1-5 6-8 13-4 8-8 13-14 20l-8 11c-1 2-1 2 23 24l4 4-3 5c-3 5-3 7-3 15l1 11v9c-1 5-1 6-4 6-2 0-2 1-3 4l1 7c1 4 0 5-2 8l-2 3 4 3 5 3-1 6c-1 7 0 7 5 5h12c7 1 9 2 22 8l16 8c2 0 2 0 2 6-1 3-2 7-4 9-2 4-2 4-1 11s1 8-1 11-3 5-3 10 1 7 4 13l3 6-2 5c-2 5-3 5-10 8l-8 3-9-3-9-2 4 11 6 1c3 1 4 1 5 6 3 6 3 6-1 16-3 7-4 8-9 11s-5 4-5 7c0 4-1 5-4 8l-4 4v10c0 8 1 11 2 14l2 5h6c5 0 6 0 10 4 3 4 4 6 5 11l1 6-6 11c-3 7-6 13-6 16-1 4-1 4-5 6l-4 2 3 4 2 3-1 14-2 18c-1 5-1 6 1 7l4 4c2 5 2 5 1 12l-2 8 5-4 7-6 4 18c0 1-20 12-21 11l1-4c1-4 1-4-2-8l-3-4-3 2-4 2-4 1c-2 0-2 1 0 3 3 4 6 14 6 22v8l-4 3c-6 4-6 4-7 21v12l-8 10-8 10 13 23c8 13 8 13 10 5v-4l3 2 8 4 5 3v9c0 8-1 9-3 9s-4-1-9-5l-6-5 19 25 5 4v30l-4 5c-3 3-4 4-7 4-4 0-5-1-5-5a55 55 0 00-21-28l-4-3-4 3c-4 3-4 3-2 5l5 7c5 5 12 19 15 27 2 8 7 15 22 30 8 9 9 10 25 17a436 436 0 0142 23c8 3 9 3 11 8 3 5 4 6 9 8l11 5c5 2 6 4 13 18l9 18c1 4 1 4-2 8l-3 5 3 1 11 6 10 5c7 0 8 13 1 19l-3 3 2 3c2 3 1 7-2 9l-3 4c-1 3-1 3 2 3l3-1-1 5-2 10-1 5 7-1c7-1 14 1 24 6 11 7 23 10 30 8 2 0 2-1 2-3-1-2 0-3 1-5 2-1 2-1 9 2 2 0 2 0 2-4 0-3 1-4 7-11l7-7-2-4c-2-4-3-6-3-13l-1-9h4c2 0 6 1 11 4l7 4 3-4c4-3 4-4 4-10 0-5 0-6-7-17-3-7-7-13-9-14s-2-2-1-5l-2-12-1-9 5 1c4 1 5 1 9-3 3-2 4-4 6-9l2-7c0-1 2-4 5-6l5-5 3 2 4 3 4-3 5-2 6 3c5 4 6 4 8 3l14-6 11-5 3-9c3-9 3-10 1-16l-1-7 5-6 5-6v-10c1-13 2-17 7-20 2-1 3-3 3-5l3-7c3-4 4-5 5-17l2-12 4-3c3-1 5-4 7-8l4-5 9 2 11 2h4l3-8c3-12 9-21 17-24 3-1 3-1 4-15 2-12 2-15 1-22l-1-8-9-9c-9-8-10-10-10-14-1-2 0-5 1-6l1-21v-19l-4-5-4-4h-7c-7 1-8 1-14-2l-8-3-4 6-4 6-10-3-10-2-8-29-9-29h-15l-3-5c-3-4-3-4-2-8l2-4-8-12-8-12-5-23-5-23 3-1c4 0 4 0 8-11l5-11-7-5c-8-6-9-8-9-16 0-2-1-4-4-6-3-1-5-4-6-7l-2-4 3-5c2-5 3-6 13-11l11-6-5-13-5-11 1-6c2-6 2-7 0-12l-2-6 2-7 6-10 4-5v-11c0-12 0-13 3-17l3-10c0-5 1-6 4-10s5-6 4-7c-3-18-7-31-10-37-4-7-4-7-4-14 1-7 1-7-4-18-4-7-6-12-6-15s-1-5-8-13c-7-10-8-11-16-14-12-6-18-9-19-12l-2-3-7 2c-4 0-7 0-12-2l-7-3-1-7c0-6 0-7-3-9s-3-3-2-6c1-4 1-5-2-11l-8-16c-5-10-5-10-11-12-3-1-8-3-11-6-11-10-10-9-15-7-4 1-5 3-8 7l-3 6h-8c-8 0-8 0-13 4l-13 8-9 2-6-4c-5-4-6-5-9-12l-3-13c-1-4-1-4 2-7l3-2-2-7c-1-10-2-12-6-15l-4-3-9 6z"/>
</svg>
