<svg xmlns="http://www.w3.org/2000/svg" viewBox="0 0 1024 1024">
  <path d="M438 3c-3 3-3 4-1 6 1 2 1 3-1 5s-2 2 2 8c5 7 5 7 16 11 9 3 9 3 9 6l-1 3c-6-3-25-8-29-8-4-1-13 1-23 5l-1-3c-1-3-1-3-7-2-5 0-6 0-7-2-1-3-2-3-8-3h-10c-2-1-2-1-3 7l-2 8h-4l-1-3c-2-2-2-2-6 1-6 5-8 4-8-4l-1-5-6 7-6 7-7 1-14-2c-7-2-8-3-16-11-7-6-10-8-12-8-3 0-4 2-4 7 0 4-1 4-7 2-4-2-6-2-12-2l-8 1v-3c0-3-1-4-3-6s-2-2-6-1c-4 2-6 2-9 0-1-2-1-2-3 0-2 1-2 3-2 7 0 5 0 6-4 10-3 4-4 5-6 4h-11c-13-1-33 4-40 10-5 3-6 3-9 2l-19-1-16-1-12 8-17 12-5 5-11-6-11-6-4 2-9 3c-4 1-5 1-11-4s-6-5-13-5c-6 0-8 0-13 3l-10 3c-3-1-4 0-8 7-5 7-5 7-4 11 1 2 2 5 4 6l3 3-2 7v7l5 2 14 8c8 4 11 5 14 5 4 0 5 0 20 13l15 12-1 4c-1 3-1 4 1 6l2 2-2 6c-2 5-3 6-2 9l1 8c0 4 0 5 5 10s7 7 13 21l6 15-2 7-3 6 2 3c3 1 3 2 2 6l-4 11-9 20c-7 16-13 23-17 22-2 0-3 0-3 4l-1 7c0 4-2 5-3 2-1-2-1-2-4 3-2 5-3 5-8 7-5 1-7 2-10 6l-3 8-1 4 5 1c6 2 11 6 14 13 3 5 4 13 2 15-2 1-5 8-5 15-1 6-1 6 5 18l5 13 1 3c2 2 3 3 6 3l7 2c3 2 3 3 3 9v8l-4-1c-4-1-4-1-4 3l6 6c6 4 11 11 11 15 0 2-3 4-9 5-7 0-10 4-11 12v7l7 2 13 7c7 4 8 4 12 4 5-1 6-1 14 4 5 2 12 6 15 9l13 7 7 4h28l7-4 7-4 9 1a290 290 0 0133 6c2 2 2 2 7-2l4-5h13c11-1 13-1 16 1l7 2c4 0 5 1 12 6l8 7h16l8 6c7 5 10 8 15 15 5 8 6 10 10 11 6 2 10 8 11 14 0 3 1 6 4 8 4 5 4 6 6 13 1 4 2 5 3 5l4-2c2 0 2 0 3 3 0 4 17 15 21 14 2 0 2 0 2 2l1 6c0 3 1 3 4 3s3 0 3 3c0 2 1 3 3 5 3 2 4 3 5 6 1 6 1 7 3 7a1877 1877 0 0042-8c4-1 4-1 7 2l3 4 9-1 8-1 7-6 15-12 7-6 7 1c7 0 7 0 10 5l14 18 10 14-1 9v22l3 12 4 1 4 1 4-7 7-7 8 3 7 3 5 8 6 9 28 10c2 0 4 2 7 7l5 6h6l7-2 8-8 7-9 10-3 18-6c7-2 8-3 14-9l6-6 5 4c4 2 7 4 13 5l9 1 6 9 6 8v10c1 7 1 11 3 15l2 6-5 9-8 16-2 7 3 5 5 5 10 3c7 1 10 3 29 14l21 14v3l-2 23v19l3 2 3 1-2 5-3 4 4 3 4 3v9l1 11 8 5c7 3 7 3 8 8l1 6 3 7c3 4 4 5 4 10 0 4 2 11 7 27l7 21-2 10-1 11 8 1c9 0 13-1 17-5l6-3 10-7c7-5 9-6 12-6s6-1 11-4l6-4 12 5c10 6 11 6 14 5h6c3 2 4 2 12 2l10-1v2l2 3c2 0 4-4 5-8 0-4 0-6-4-12l-6-12c-1-5-1-5 2-7 2-2 3-5 1-8-1-2 0-5 3-15l5-13-3-1c-2-1-4-2-4-4-2-2-2-3 0-5l2-3-4-4c-3-4-4-5-4-8s-1-4-3-6c-3-3-3-4-2-7 0-3 0-3-3-2l-4-1-5-2c-4 0-4 0-6-11l1-6c3-1 5-1 10 2l4 3 5-6 8-6h3l1 9v10l9-10 10-10 6-3 5-3h-4c-8 0-9-1-11-5-3-4-4-5-7-6-4 0-4-1-8-8l-4-8 3-4 2-3-6-7-7-7-4 2c-4 3-3 4-15-6l-8-7-5-11c-4-12-4-12-3-15l3-8c1-3 1-4 3-4l11 1 8 1 2-5c2-5 3-6 5-6l4 1c1 2 13 6 14 5l-6-8c-6-6-7-8-7-11 0-2 1-3 3-4l7-5c2-2 5-3 8-3l4-1-2-4c-1-3-3-5-10-9-8-4-11-5-15-5l-7 2c-1 1-2 2-4 1l-5 1c-2 1-2 1-2-3l-1-7-2-7-3-2-3 2c-3 2-3 2-6 1l-5-5c-2-4-3-4-7-3-2 0-12 4-21 9-15 8-19 9-23 9l-7 2-3 1-1-7c-2-16-1-14-12-23-10-8-11-8-15-7-4 0-5 0-7-3s-2-4-1-6v-3l-5-4c-4-3-12-14-16-23l-3-5-18-7-26-10c-8-2-7-1-9-13 0-4-1-9-4-13-3-7-3-7-2-9 1-1 2-3 2-7v-5l-8-5c-7-5-8-5-16-5l-19-3-16-4c-3 0-4-1-7-4l-4-4 2-5 2-5 11-2c22-4 49-3 53 2l6 6 4 5 2-4c2-4 3-4 9-7l7-2 1-7c0-6 1-7 4-11 4-5 4-5 1-9l-2-5c0-1 8-5 15-7l5-2-1-6c-2-5-2-5 1-7 2-3 3-4 4-13 2-16 2-15-6-21-9-6-11-11-3-7 3 1 3 1 3-2 2-7 1-8-3-10-3-1-4-2-5-4l-2-4-2 1-6 3c-3 0-4 0-9-4l-8-5-39-16c-15-8-16-8-23-8h-8l-12-12a65 65 0 01-15-21c-5-12-5-12-11-12l-12-4c-6-2-8-3-11-7l-4-5 1-5 1-9c-1-3 0-5 2-8l2-5-6-6c-5-6-6-6-10-6-5 1-9-3-9-9l-3-8c-4-6-4-10 5-19 6-6 7-7 8-12 1-6 2-6 6-8l26-18 22-16 4-10 4-10-2-5c-1-4-2-4-4-4l-3-1c0-1-1-2-4-2l-7-2c-2 0-3-1-5-4-1-2-2-3-5-3s-3 0-3-3l-3-6c-3-2-4-4-5-7-1-6-5-9-9-5-2 3-3 3-5-1l-2-4 3-6 3-5-6-2c-6-4-7-4-7-1s-2 4-5 4l-4 2c-2 2-4 2-9 1h-7l-4-6-4-7-5 2-6 4c0 4-2 4-7 3-4-1-5-2-7-4l-5-7c-3-4-4-4-8-4h-5l-1-6-1-9v-4h-6c-5 0-7 1-7 2l1 4c2 2 2 5 0 8-1 2-4 2-9 3l-8 1v-9c1-12 3-14 11-16 4-2 7-2 11-1 6 1 7 1 15-2l8-3V54h-3c-2 1-4 0-6-1l-6-2c-2 0-3-1-3-4s-1-4-7-9l-4-2-6 4-6 5-10-1h-11v-4c-1-3-1-3 5-7 5-3 6-5 6-8 1-3 1-4-4-8-5-5-5-6-5-11V2l-4-1c-3 0-5 1-11 5l-8 8c-1 3-1 3-3 3-9-3-13-3-14-1-1 1-2 0-5-2-3-3-5-4-10-5s-6-1-8-5l-3-4-2 3z"/>
  <path d="M656 264c-3 2-3 2-3 8s0 7 2 8 2 2 2 6c-1 4-1 5 2 6 2 1 2 1 8-3l7-6 1-6c0-5 0-7-3-10-2-3-7-6-11-6l-5 3z"/>
</svg>
