<svg xmlns="http://www.w3.org/2000/svg" viewBox="0 0 1024 1024">
  <path d="M110 8c-4 8-4 8-9 10l-8 3c-2 0-3 2-5 6-2 6-3 6-5 6l-5-2c-1 0-2 1-2 6-1 5-1 6-8 12-5 6-6 7-5 9l7 14 7 12-2 6c-3 5-3 6-1 12l1 7h6l11-2 7-1 1-23 1-22-3-2-2-2 5-1c7-2 11-7 19-20 5-7 5-7 18-10h4l-3-4-8-11c-4-6-6-7-10-9l-6-2-5 8z"/>
  <path d="M347 114h-90a1402 1402 0 00-109 2l-10-1-10 5a97 97 0 01-45 13l4 8c3 4 6 11 7 15 4 10 14 25 24 35l8 9 3 12c3 12 4 15 23 54l21 43-6 12c-5 12-5 13-14 22l-10 9v14l5 5c3 3 7 8 9 13 4 7 4 8 4 15-1 6-1 7 1 11l9 16a684 684 0 0025 45l9 8-2 5-2 5 5 4 4 3v10l-2 19c-1 8-2 12-1 27l1 18-6 12-14 25-8 12-6 1-7 2-10 8-8 9v15l-10 8c-8 8-10 10-11 13-1 4-2 5-6 7l-5 3 1 9 1 16v8l-6 9-6 9-1 16v16l-8 27-13 47-6 20-5 2-5 3 4 33 5 31-2 19-1 23c1 2 1 2 10-4l10-6 8 5 7 4 4-2c5-1 5-1 9 1l3 2 9-5c5-2 13-6 16-9 6-4 8-5 17-7 10-2 12-2 18-1s7 1 11 6l16 11 16 12 6 6 6-1 10-3 6-3 146-1h146l14 16 12 14 7 1c7 1 7 1 14-2l8-3 13 4 17 3c4 0 5 0 6 3l2 3 5-4 6-4 7 3 7 3 8-1 7-2 19 6 18 6 9-4 10-4 10 4 13 3 143-23c2 0 0-2-9-7-12-6-12-6-17-14-4-7-13-16-35-39l-30-30-3-9-3-9 1-121V650h3a18246 18246 0 01142 4c3 0 3 0-2-6l-6-7v-15l5-6c9-10 8-9 7-17-2-8-3-20-3-38 0-13 0-13 4-23l4-11-2-4c-2-4-3-7-3-19l-1-14-3 7-4 6-17-5-16-4-5 4c-7 5-9 6-20 6-6 1-10 1-13-1-5-1-5-1-8 1l-3 2-9-3-9-2-1 3c-1 2-2 3-9 6l-9 3-1-6-2-15-2-8 5-2 4-2-1-10 1-15c1-5 1-6-4-23l-6-17-9-8-10-9-4-12-5-13 3-7c4-7 4-7 3-11s-1-7 3-26l5-21-4-16c-3-16-3-17-7-20l-3-4v-8c1-8 1-10 5-17l4-8-2-10-2-9h-94v-8c-1-7-1-8 1-13 5-11 6-10-6-9-10 0-11 0-12 3l-2 2h-29l-28 1 2 3 2 3-3 4-3 5 1 10 1 11-3 4c-2 3-4 4-6 4-5 2-5 2-2 7l3 5-3 7c-3 5-4 7-3 10v3h-21c-23-1-22-1-26-6-1-3-15-2-18 2-2 2-3 2-11 2s-9 0-15 4l-5 4h-40l-9-16a290 290 0 00-33-46l-5-7v-20l-10-19-10-19 2-8 2-8-4-4c-5-4-5-4-5-10v-7h-7l-55-1z"/>
</svg>
