<svg xmlns="http://www.w3.org/2000/svg" viewBox="0 0 1024 1024">
  <path d="M480 61l-4 4c-1 3-2 4-4 1l-4-1c-3 1-3 2-3 5 0 4 0 4-2 3-2 0-3 1-5 4l-4 8c-1 6-3 6-9 2-4-2-4-2-7-1-3 2-4 2-3 5 0 3 0 5-4 9l-4 5 3 2c3 1 5 4 5 5l-3 3c-4 2-5 3-2 5 2 2 6 12 6 14l-4-3c-4-3-5-4-9-4-6 0-7 0-7 4 0 2 1 3 3 4l2 2-7 4c-5 0-7 2-7 6s0 4-4 6l-9 1c-5 0-7 1-9 3-3 3-5 3-10 3s-7 0-11 3l-6 4-1-3-1-6v-3h-5l-7 2-3-3-2-5-2-3-4 4-5 8c-1 4-1 4-5 4s-5-1-8-4c-4-3-5-3-5 3v3h-7c-5 0-7 0-9 2-3 2-4 2-8 1l-9-1c-4 0-10 4-10 8-1 2-1 3-8 5l-7 2v4c0 4 1 4 5 5l5 1 1 7 1 7 34 7c2 4-1 9-12 20-11 10-14 11-19 8-2-1-3-2-5-11-1-7-2-11-4-13l-2-2-11 3-12 4 1 3c0 4-3 8-8 9-4 0-4 0-4 4l2 9 2 9c-1 3 0 5 1 9 5 10 5 10-1 13-5 2-5 2-6 8v19l4 2c2 0 2 0 1-3 0-2 1-3 3 0 3 2 2 4-1 8-4 4-7 12-5 16 1 1 2 2 5 2l12 3c9 3 9 4 6 4l-6 1-8 2c-4 1-4 1-3 5 0 4 1 5 6 10l6 6h-3l-9 1c-4 0-5 0-7 3l-4 8c0 4-1 5-3 6-3 1-3 2-3 5s1 3 6 5l6 3c0 4-5 6-11 5l-7-1c-4 0-4 0-4 3l-1 25-1 16-2 14 3 6c2 6 4 7 10 11 6 3 10 5 18 7l10 2 3 8c2 7 3 9 5 9s2 0-1 2c-3 3-3 2-2 18 1 7 6 15 9 15s4 2 4 6l5 16 6 17c0 7 1 10 4 12 2 0 3 1 3 2l-10-2c-12-2-21-7-25-14l-8-12c-8-9-9-12-7-16l2-5c0-3-1-3-4-4-5-1-6-3-3-5s3-3-1-19c-4-15-4-15-20-31-9-8-11-10-17-10l-5-1-8 8c-7 9-8 10-6 12 2 0 2 1 0 2-2 2-2 2-5 1l-2-1-2 4-4 4c-5 0-7 1-9 5l-3 4-1 3c0 3 0 3-2 2-3-1-3-1-4 1s-2 3-6 4-5 1-6 7l-2 5 3 4c4 4 3 4-3-1-8-5-11-4-11 4 0 2 0 2-5 2l-6-1-3 3-1 4 5 8 5 9-8-7-8-7h-4c-3 1-6 2-7 4l-7 4c-5 3-6 6-3 10 2 4 1 5-3 2-3-2-8-1-11 1-3 3-1 8 5 12 4 2 4 2 3 5s-6 5-16 5c-7 0-7 0-10 3l-5 4-1 1c0 2 4 5 15 11l14 8-9-2-17-8c-12-7-15-8-19-5l-6 2c-2 0-2 0-2 8 1 7 1 8 4 11 4 3 5 4 2 4l-6 6 3 3c6 3 6 8 2 13-2 2-3 5-3 7v3h9c8 1 9 1 13 4 3 2 4 4 4 6s0 2-5 2c-3 0-5-1-10-5l-8-4H4v9c1 8 1 10-1 12-1 3-1 3 1 12l2 10-3 3c-3 3-3 4-3 8l4 7 6 6c3 4 3 5 12 6l10 3-7 2-7 1 1 9c0 9 0 9-3 15-3 4-3 6-3 8 3 13 4 19 3 27-1 9-1 10 2 17 4 7 4 7 8 8l8 5 3 4 5-3 13-8c10-5 9-4-3 7-6 6-7 8-8 12v4h7c8 0 7 0 8 9 1 5 1 5 5 5l5-1c3-2 3-2 6 2l4 4h-3c-5 0-6 1-5 4 1 8 1 8 6 8 10 2 10 2 13 10 3 6 4 7 6 7 14-4 21-3 28 1 3 2 5 3 6 2l3-3 6-9 4-5h17l4-5 4-7-3-4-6-6-2-4 3-14 3-14 3 4c6 6 6 7 5 13 0 5 0 7 2 11s2 7 2 12c0 6 0 7 2 9l4 2a325 325 0 0170 8l1-3c0-3 1-5 6-11 4-5 5-8 3-12-1-2-3-3-12-5-4-1-4-1-4-4 0-4 0-4 3-3l7 4c3 4 3 4 9 4l6-1 4-8c3-7 4-9 8-12 6-5 7-6 7-11 0-2 1-3 3-5 3-2 4-3 4-5l2-6c4-3 4-5 0-4l-9-3c-6-3-7-4-8-6l-1-5c0-2 1-1 8 2 6 4 10 5 13 5s4 0 4-3c1-3 2-4 4-4 4 0 7-6 6-11 0-3 0-3 2-3s5-1 7-3l-4-6-3-5 2-12a77 77 0 000-47l5 6c5 7 6 11 6 18 0 4 1 7 3 10l3 5h19l19-1 5-4c7-5 15-17 18-26l4-6c3-2 23-2 25-1 3 1 3 1-15 3l-10 1-1 8-2 14c-3 6-3 6-6 7-3 0-4 1-4 4 0 4 3 7 8 8 4 0 4 1 6 4l3 3c2 0 2 0 2 3-2 6-2 9 0 17 2 11 4 13 12 13h5l-2 3c-3 4-7 7-9 7l-5 1c-5 1-5 4 1 9l5 4-5 5-7 5 1 6v9c-2 10-2 11 2 12 2 1 4 1 9-1l11-3 10-2c4-2 4-2 7 0 4 3 4 3 0 4-2 1-3 2-5 11l-3 16c0 7 2 14 5 13l18 1 5 1-11 1c-15 1-16 2-15 10v6h7l13-1c5-1 5-1 8 2 2 1 3 3 3 5 0 4 3 6 21 16 11 7 13 8 15 7 3-2 4-1 4 1-1 2 1 3 11 8l12 6v4c0 4 0 4 3 4s4-1 5-2l7-6 1 5c0 8 1 10 9 11 7 1 12 1 14-1l-1-4c-1-4-1-4 3-7l4-4 1 4c1 4 1 5 5 6 5 0 8-1 12-8 4-5 4-6 8-5l8-2 4-3 1 3c1 3 1 3 6 3 4 0 6-1 8-3l9-4c5 0 5 0 9 3l5 4 6-1 6-1c1 0 3-9 3-15v-6l3 1 7 1c4 0 4 0 4 3l1 3 14-4c2-2 4-2 10-1l7 1 4-3c3-2 5-3 8-3 4 0 5-1 6-4 1-1 2-1 3 3l3 4 6-2c4-1 6-2 12-1s7 1 11-2l8-3c5-2 8-5 8-8 0-2 0-2 3 0 4 1 3 2 10-9 4-6 4-6 8-6s16-5 17-7l2-7c1-8 1-9 3-6 2 2 3 2 6 2 4-1 6-2 13-9l9-9 6 1c6 0 7 0 10-2s3-2 8 0c7 2 16 0 18-4 1-2 2-2 6-2s15-3 17-5l-2-5c-3-6-4-7-1-13 2-3 2-7 2-10l1-6 7-3c5-1 7-3 9-5 3-3 3-4 2-12v-9l6-1c5 0 6-1 10-6s5-5 5-11v-6l7-2c7-1 7-2 7-5v-3l4 3c4 2 4 2 7 1 4-3 12-12 12-14l-2-5c-2-2-2-2-1-8 2-5 2-6 6-7l5-1 2-9c1-7 1-7-1-10l-3-3 3-4c2-3 4-4 7-5 4-1 5-1 6-6l2-7c0-2 1-3 3-5 2-1 2-2 2-5l-1-7c-1-3-1-3 1-3s2-1 2-9 0-9-2-9-2-1-2-3l1-4 1-13v-12h-3l-5 2-3 1v-7c1-8 0-13-3-12l-5 2h-5l4-3 3-7c1-3 1-4-4-8l-9-6-4-1 1-6v-6h-7c-3 0-6 0-5-1 2 0 3-7 0-11l-1-5c0-2-1-4-3-5l-2-2 2-4c3-5 2-5 0-7h-7c-3 2-8 3-8 2l3-5c1-4 2-6 1-8 0-3 0-3 4-5 2-1 5-3 5-5 2-3 0-8-4-9-3-1-3-2-3-6 0-6-2-10-4-10l-7 1-6 2 1-6v-8l-3-1c-3 0-3 0-4-7-1-5-2-10-5-14-4-6-4-7-8-8l-4-1-2-8-2-15c0-10-2-14-9-17l-8-5-9-5-8-4c-3-3-4-3-9-3s-6 0-9-4c-2-3-4-4-9-6l-15-7c-7-3-9-5-11-7 0-2-3-5-5-8-3-3-4-4-4-11-1-6 0-9 1-12 1-5 0-8-5-8-2 0-3 1-7 5l-3 5-2-4c0-3-3-7-5-9-4-4-5-5-8-5h-4l1-4c0-3 0-4-3-6-2-2-4-4-4-6l-4-4c-2 0-3-1-3-3l-2-6c-2-3-4-4-6-4-3 0-3 0-4-5-1-9-1-9-7-8-7 1-8 1-10-3s-2-4-4-3l-2 4c0 3-2 6-3 6l-1-2c0-5-2-5-9-1-4 3-7 5-10 5h-4l6-5c6-3 6-6 4-12l-2-8c-1-5-2-6-5-8l-5-4h-12c-11 2-12 2-16 1-3-1-5-3-6-5l-9-21-7-19-3-4c-1-3-6-5-8-3l-4 8c-3 6-8 12-10 12l-2-6c0-4-1-6-3-8-3-3-4-3-8-3l-7 2c-2 0-2 0-1-3a80 80 0 00-4-37v-14c-1-11-1-12-4-13l-3 1c-2 2-7 0-13-6-4-4-5-5-8-5s-3 1-4 6l-1 5-3-6c-4-8-6-10-11-9-3 0-4 0-5-3l-6-8-6-7c-2-2-3-2-6-2-4 0-4 1-6 6-2 3-2 10-3 17-1 13-2 17-7 20l-7 3 2-3c5-5 7-9 7-15 0-2-2-7-6-13-10-15-12-16-17-17-8-1-9-1-9-4-1-2-3-4-7-6l-7-4-4 1z"/>
</svg>
