<svg xmlns="http://www.w3.org/2000/svg" viewBox="0 0 1024 1024">
  <path d="M439 8c-2 7-3 8-6 11-3 2-7 7-10 12l-6 8 3 3 2 4-5 15-5 15-14 8c-13 7-14 8-17 12l-2 5 3 3c3 4 3 4 2 5-2 0-2 1-1 3 0 3 0 4-3 5l-2 3 4 10 4 10-3 3c-5 5-5 9-1 15 5 6 5 9 2 11l-3 3h-4c-3-2-6 1-8 11-2 7-4 10-8 16l-8 11c-3 2-3 3-3 7 1 4 0 6-3 13l-4 8 1 8v16c1 3-2 10-5 10-2 1-3 1-3 9l-3 11-2 2-1-1c-2-1-2-1-3 6-1 4 3 19 6 20l3 1h-3l-2 1 2 5c4 8 7 20 7 26s1 10 2 8h3c3 2 4 4 2 6s-2 14 0 17c2 4 1 5-2 7-8 5-10 7-12 17l-3 10-3 2c-1 1-1 1 1 3 2 1 2 3 3 10 0 8 0 15-2 15l-6 4-6 6-4 4c-1 2-2 4-2 13l1 13c1 3 0 4-1 6-2 2-2 2 0 8l3 12 3 7c2 3 0 5-6 8l-7 3v6c0 8-3 16-6 15l-1 6c1 6 1 7-1 8-2 2-4 7-2 7s1 5-1 9-3 5-2 8l1 13c-1 10-1 11 1 14s2 5 2 9 0 4-5 5c-3 1-4 2-4 4l1 4c1 1 1 2-1 3-1 1-2 2-2 5 0 6 2 10 7 13s5 3 2 6l-2 5c0 3 0 4 5 6l5 2-4 1c-3 2-3 3-3 5 1 2 0 6-1 8l-1 6c1 1 3 2 8 2l9 2v5c0 2-1 3-3 3l-3-1h-9c-6 1-7 2-7 4s0 2 6 2h6l3 5c3 5 3 5 2 8-1 2-2 3-5 4l-4 2 2 7 2 6-5 2-4 2 3 2c2 1 3 2 4 8l2 6-5 2-4 2v5l1 7c1 1 0 2-4 5-7 4-9 7-10 13-1 5-1 6 1 12l3 5-6 9-8 11-10 4-8 1-1 4v24l-2 8 6 7 7 6h5l10-2c5 0 6 0 7 2 1 3 0 8-2 9-2 2-2 2 0 4v8l-2 6 5 5 5 5 27 1c25 1 28 1 35 3l11 3 9 2c6 2 15 3 15 2l-6-8c-10-14-14-24-14-35 0-5 0-6 3-11 3-3 5-5 12-8l12-5 7-4c3-4 5-12 5-16-1-3-1-5 2-8 1-3 3-6 5-7l5-7c2-3 4-4 5-4 4 0 16-6 22-11l6-3 2-3 2-3v-10c3-8 2-12-1-14l-12-3h-9l-9-8c-6-4-11-10-13-12-3-5-3-5-2-10l5-9 5-9c3-4 3-5 7-6 10-3 12-3 12-5 1-2 6-3 16-4l8-1-2-4c-1-2-1-2 1-4l5-4c5-2 6-7 3-26 0-4 0-5 3-6l3-4c0-2 2-3 10-7l10-5-4-2c-7-2-13-5-13-6 0-2 9-6 13-6s6 1 6 5c0 3 4 4 11 3l6-2c1-1 2-8 0-12-2-8-2-8-11-6-6 2-7 3-4 3 2 0 3 0 3 2s-4 3-10 2c-3 0-4-1-3-2 0-1-1-2-5-3s-5-2-7-5l-1-11-1-11-1-9c-1-5-1-6 2-7 2-1 3-1 13 2l15 6 4 3h11c10-1 12-2 19-5l11-5c2-2 2-2 0-6l-2-6v-7l1-4c0-5 2-7 4-7 3 1 3 1 4-5 1-5 1-6-2-9-4-5-5-7-5-13 0-7 1-8 5-4l7 4c12 3 49-2 83-12 15-4 30-12 32-18l6-9 10-13c5-7 6-9 7-14 1-7-1-14-4-14l-7-3c-4-2-5-3-6-6-1-5-1-10 2-15 3-4 2-5-2-11-3-4-6-6-16-11-15-8-17-10-15-19 2-5 2-6 0-9-2-4-2-5-1-13 1-6 2-7 6-11l5-4v-19c1-1 1-3-1-6-1-4-1-5 1-11l3-9 2-5c1-2 3-19 2-22-1-4-1-5 8-14 3-3 7-8 7-10l4-4c5-3 11-9 13-15 1-4 3-6 4-6l4-4c0-2 4-6 8-10l11-12c4-7 5-8 10-9l9-5 14-9 11-5 4-8c4-6 4-8 4-11v-7c1-2 1-4-1-12s-3-9-7-12l-5-4-5 1-6 2c-2 0-2 2-3 11 0 8-1 12-3 16-2 5-3 6-10 11l-10 7c-2 0-3 2-3 4-2 4-2 4-8 2l-6-1-4 4-3 5-3-2c-2-2-3-2-5 0-2 1-3 1-8-1l-11-4c-4-3-5-3-16-3l-14-1 4-7c4-4 5-7 6-12 2-7 7-17 11-23l5-6 2-4-4-6c-6-7-16-14-28-17-9-3-9-2-22-13l-10-9h-6c-6 0-6 0-16-7l-12-10-12-9c-9-7-9-7-10-13-2-7-3-7-8-11-3-1-7-5-9-8-5-6-8-7-21-7h-12c-1 0-2 1-4 6l-3 10-2 8v4l-6-10c-8-12-8-13-22-13h-11l-3-3-6-9-4-5-3 8z"/>
  <path d="M378 986v33l9-1c11 0 24 1 38 4l10 2 7-2 15-1h8l2-4 3-4-7-1-17-2c-10-2-12-3-17-7l-15-9c-10-4-11-5-17-13-6-7-8-8-11-9-3 0-4-1-4-3l1-5c2-2 2-2 0-5-5-7-5-8-5 27z"/>
</svg>
