<svg xmlns="http://www.w3.org/2000/svg" viewBox="0 0 1024 1024">
  <path d="M625 260c-2 0-8 6-14 11-12 11-15 12-18 8l-3-2c-1 0-4 6-4 9s-1 3-9 3c-7 0-8 0-11 2-5 4-5 6-2 10 2 1 3 4 3 7l1 5h-4c-2 0-5-1-9-4-6-5-8-5-9-1-1 3-7 5-15 6s-9 2-9 6c0 3-1 4-3 6l-3 6c0 2-2 6-9 16l-5-4-4-4-7 1c-6 1-7 2-9 4v5c2 3 1 5-1 6l-3 3-3 3c-3 0-5 2-5 4 0 1-1 2-3 2l-2 3c1 3-1 6-5 9-3 2-4 2-8 2-6 0-7 2-7 18l-1 13-3 3c-1 3-1 3 1 5l3 2 3 3c3 2 3 3 2 7 0 5-6 12-9 12-2 0-3-2-3-6l-2-6-8-4-9-7-3-3-4 3-3 4-4 3c-8 4-16 8-18 11-3 3-4 7-1 7v7c0 2-6 4-9 2h-4l-5 1-5 2c-2 1-2 1-5-1-1-2-4-3-5-3-2 0-3 1-4 4l-4 5c-3 1-4 2-5 5-2 5-2 5-4 4-2 0-4-4-5-10v-5l-6-1c-5-2-5-2-8-1-4 2-8 2-9-2-1-2-1-3 1-5 2-1 2-2 1-4s-2-2-5-2c-4 0-5 0-7 4-2 3-2 3-7 3-4-1-6 0-11 2l-8 4-2 1-5 2c-5 3-6 2-7-1s-3-3-5 0l-4 2c-2 0-3 2-5 5-1 3-3 5-5 5h-3l-2-10c-1-7-2-10-4-12l-2-4c0-3-4 0-10 6l-8 7c-2 0-5-2-5-4l-4-1c-3 1-3 1-2 3 2 1 2 2-1 4-4 3-4 3-8 2l-6-3-4-2c-2-1-3-2-3-4-1-4-4-3-9 4-6 6-8 8-11 6l-4-1c-5 1-16 6-16 8s-4 3-7 2c-3-2-3 1 1 5l2 4c0 1-3 3-6 3l-6 3c-2 3-3 4-5 4-4 0-6 4-5 8l-1 4c-2 1-3 1-8-5l-7-6-5 4c-2 3-3 5-5 5l-4 4c-3 6-10 13-16 16l-10 7-5 4c-1 0-3 3-3 10l-3 8-2 6c0 3 0 4-4 6l-8 2-7 3-9 2c-3 0-5 0-7 2l-5 4-2 1 3 2c5 1 7 1 7-1 0-3 3-3 8 0 2 2 5 3 7 3s4 1 5 3c3 2 3 2 13 1h11l4 3c4 3 4 3 4 10l1 7 7-2 8-2 8 4c5 4 6 4 9 4 3-1 5-1 8 1l4 2 5-4 8-10 8-8 5-3 4 2c3 2 4 2 4 8 1 9 2 11 6 13 2 2 4 2 8 1 7 0 10 1 13 5l2 3 4-3 5-4 4-1c2 1 2 1 2 3-1 1 0 4 1 5 1 4 1 4 5 3h11v5l-1 3h7l8 1-2 1c-4 0-4 1 0 6 3 4 3 4 1 6-2 1-4 9-4 15l2 10c1 6 2 8 5 9 3 2 3 3 3 10l-2 11c-1 3-1 3 1 6 4 3 15 11 21 13l9 5c3 2 5 3 8 3l6 1 5 3c3 1 5 2 6 4l2 3 2-2 8-6c4-4 5-4 12-4 6 0 8 0 11 2s3 2 2 6c0 4-2 6-6 9-4 1-4 4-1 8 2 2 3 6 3 9 2 9 2 9 6 7 2-2 3-3 3-6 0-2 1-3 3-4l7-5c3-3 4-5 6-11v-10c-3-4-2-6 1-8s3-3 3-6c0-4 1-5 3-3l5 1c6 0 8 2 11 7 0 2 1 3 2 3l1 3c1 3 8 8 14 9 5 1 8-1 13-11s7-13 14-17c5-2 6-3 7-6l7-11 9-14 4-6h5c5 0 6 0 7-2l7-7 5-4-2-4c-2-3-2-3 0-8l3-6 4-3 6-2c1 0 4-1 7-4 2-3 5-4 7-4 3 0 7-3 8-6 2-3 10-6 11-4 1 1 2 0 4-1 3-1 3-1 2-3l-1-1 13-8c13-8 15-9 13-11v-3l-1-5-1-2-4 2c-2 2-5 2-15 3-19 0-24-2-26-12-1-5-2-6-4-7-6-4-10-8-9-10v-3l6 1c2 1 5 2 6 1 2 0 2 0 0-2s-3-4-3-7l-1-5 5 6c5 5 6 6 8 4s2-2 1-5c-3-5-3-6 2-6 6 0 11-3 12-6v-3l4 2 6 4c2 0 4 1 4 3 2 4 3 9 1 11l-2 8-1 6-5 2-5 2 2 2c1 2 2 2 6 2 5-1 5-1 6-5 1-2 2-5 4-6l2-4 5-13c3-9 5-11 9-14l4-5 3-7c2-5 3-6 5-6 3 0 12-4 14-7l1-5c0-2 1-3 3-5l7-1c4 0 6-1 6-4s4-7 8-7c2-1 3 0 6 2l2 3 3-3 7-7 4-5-2-3-5-6-4-3-14-6 6-8 7-2c7-1 16-9 15-14-1-2-10-7-14-8-6 0-9-5-10-13 0-6 0-6 3-9l3-3h-3c-12-2-16-2-23 1l-6 3-5-5c-4-3-6-4-9-4l-10-3c-3-2-7-3-8-2l-4-3-3-3h3l4-4c0-2 2-3 2-3l9 2 10 3c1 2 2 2 7 1l12-1c5 0 6 0 7-2 1-3 6-8 10-9l6-2c2-2 4-2 9-1l13 5 16 4c8 1 11 2 15 4 5 3 5 3 5 7l-2 8c-2 5-2 5 0 8 1 2 2 4 2 14-1 10 0 12 2 18l2 6-2 2-2 4c0 2 1 3 3 4 3 1 4 0 8-2l5-3 6 2c7 2 10 2 17-2 4-2 5-2 7-1s4 1 9-1l8-4c2-1 12-3 19-3 4 0 6-1 8-3 3-3 3-4 2-11 0-7 1-10 5-9l18 5 6 2 5-4c4-4 5-7 7-13s3-7 5-8c6-2 7-4 8-7 1-4 2-5 6-6l12-3c8 0 8 0 9-3 0-3 4-6 11-8 4-1 5-1 7 5l2 3 5-2c4-1 4-1 6 1s2 2 1 3c-3 2-3 2 5 6 4 2 5 4 7 9l3 6-7 7-7 7 3 2 5 5 6 5 5 3 3-3c4-4 8-6 10-6 3 0 8-3 8-4l4-1c11-2 14-3 17-8 1-2 2-3 5-3 5 0 7-2 7-5-1-3 1-6 3-6l4-2c1-2 2-2 6-2l7 2 6 3c5 1 8 0 15-8l5-5h9c8 1 9 1 13-2l8-2c3 0 3 0 3-5l1-5c2-1 2-3 4-16 0-3 1-6 4-9 2-3 3-5 3-8 0-4 0-5-5-9l-4-4v-7l1-9v-7c-2-5-2-5 0-5l4-3 4-4c2-2 2-3-5-3-5-1-5-1-7 2-1 2-3 3-5 3l-4 2-2 2-5 1c-5 2-23-3-23-6l-4-1c-3 0-4 0-4 3l-5 6-7 7-3 4-4-3-2-3-5 8c-3 7-4 9-4 14 0 4 0 6 2 7 3 3 3 8-1 12-2 3-3 3-8 3l-8-2c-2-1-3-2-3-5 0-5-1-8-3-8l-8-2-10-5c-2-2-2-2-4-1-2 3-5 2-9 0-1-2-4-3-5-3l-4-3-1-2-2 2-1 9c0 10-1 11-5 7-3-3-4-5-4-7l-2-4-4-2h-9c-5-1-7-4-5-9v-4l-9 6c-2 3-4 4-8 4-4 1-6 2-10 6-5 4-7 5-13 6-8 2-10 2-17 1-5 0-5-1-6-4l-1-7c0-4 1-5 8-5 4 0 4 0 6-4 2-5 1-7-4-10s-7-2-7 2l-1 4c-2 0-8-4-8-6l-5-5-3-3-2 3c-1 2-2 3-4 2l-2 1c-1 3-6 1-9-3l-4-3-1 8c0 7 0 8-3 10s-4 2-6 0c-2-1-2-1 0-3l2-3-3-3-7-3c-3 0-3 0-3 3l2 8c2 7 2 9-2 12-4 4-8 4-8 1-1-2-2-2-4-2-3 0-3 0-3 3 0 8-4 12-9 9-2-1-2-2-2-13l2-13 1-5c0-4-3-5-5-2-3 4-6 5-10 5s-4 0-4 3c0 2 0 3-2 3l-3-1-4-21c0-4-1-5-3-2-1 3-10 6-11 5l-5-2c-4-1-4-1-5 1 0 2-2 4-5 6l-7 7c-2 2-3 3-5 3l-7-2h-4v-5c0-5 0-6 7-14 7-9 8-12 8-21 0-6-1-6-7-4z"/>
</svg>
