<svg xmlns="http://www.w3.org/2000/svg" viewBox="0 0 1980 1013">
  <path d="M874 402l-2-12-21-23-3-18 4-2 11-9 10-6 5-14 12-1 11-5 13-15 29-8 7-7 28-1 21-13 14-16 10-26v-13l2-14-2-17 17-10 14 5 13 3 5 5 7 8 12 3 7-14 7-2 6-5 2-11 6-6-3-27 4-4-8-8 10-16 17 5 12 8 11 6 3 6 6 10-4 15 14 12 40 1 32 15 12-13h8l8-22 13 6 11 5 13-5 5 5 8 1 5 10 7-1 2-39 3-9 18-8 8-20 31 4V67l10-25-6-25 8-16 35 3 2 12 5 11 15-5h9l6-16 3 5h13l17 11 16-1 7 10 17 8 15 2 10 13 25 2 6-9 12 2 63 47h57l12-2 16-4 5-21h15l7-2 23 11 9-2 8 8 1 8h12l12 4 15-1 13 2 6 11 8 32 4 17v7l-13 17-8 15-3 10 1 10-1 10 3 8 11 13 4 13 10 8 2 11 5 15 2 11 9 4 15 14 8 10v11l1 15 15 1 3 9-10 11-1 7-4 14 1 11-9 7-7 4 6 11 3 9-1 7 2 3 1 10v8l5 10-10 3-27 8-11 1-7-4-13 10-18-1-5-16-11-4-8-2-7-4-9 2-9 1-5 7-5 5-10 11-10 2-2 8 12 9 13-3 17 7 9-1 10 6 1 16 11 11v5l-5 6-6 4 1 12-8 9-8 9-5 7h-15l-5 4-10-7-2 15-5 11 9 5 4 11 1 8 1 10-10 6v9l-4 4 2 10 5 7 2 13 14-9 3 10-4 7-8 3v6l4 8h9v8l-14 5v6l7 5-6 4h-42l-14 12-15 21-16 16-11 10-13 10-10 1v36l3 7 6 3 3 6 1 13-12-10-7-3-11-5-14-5-16 3-10 4-9 5h-11l-7-2-11 7-15 4-7 5v10l-13 2-6 3-8-7-7-3-19 3-16-1-11 4-14-3-15-1-18 2-9 1-10 13-9-6-9 5-17 6-6 16-6 18-22 9-11 12-11 7-10 4-1 8-7 9-6-3-10-10h-7l-15-2-4-6-27 6-41-3-18-16-15-1-10 1-22-13-15 4h-16l-14-7h-21l-14-8-14 1-7-4-13-1h-15l-9-5-19 6-11 1-13-3-19-8-13-6-30-1-43-2-6-10-12-6-8 6-13-11-31 2-11-7-18-4-13-8-5-9-6-13-10-4-8-5-2-6v-8l4-6-12-21-11 5-6-8-13-6 4-10-6-8-2-25 20-2 6-17-5-5-23 2-17 8-16 5-16 3-10 9-16 6-16 2-3 9-6-2-14-8-16-2-7-2-19 6-11-11-16 18-21-10-44 9-11 11-12 11v11l-6 12-4 9-11 18-9-1h-30l-15-4-12-7-9 1 9-16-13 1-9-13-12 1-17 6-22-4-7-14 9-16-11-9-10-9-4-4-8-4-16 22-8 5h-8l-3 10-6 8-24 10-13-4-9-8-8-9-10-5-9-1-11-6-3-9 5-12v-5l-5-8-9-1-13-9-10-1-19-9-16 3 7-32-14-13-3-17-6-7 9-7-13-8 20-20 3-18 12 2 8-7-7-17-1-9-15-7-3-9 11-4 11 1 12-4 8-12 13-12h7l3 10 4 3 8 4 13-2 9 8 6 6 2 10 11 1 6 10 11 4-1 10-7 4 3 7v11l17-3 18-3v6l-6 14v10l-7 7-1 8h17l39-31 4-9 11-10 12-14-1-11-11-19 4-11-6-9 17-4v13l20 7 14-13 10 3 11-1 4 6 11 3 1 8 9-1 25-7 2 8-9 12 15 2 14 19-5 15 39 1 19-13 15 1-5 11h17l17-20h17l-5-7 11-14 35-2 2-16 17-13 9 4 26-1 16 5 6-10 34-5 53 4-3-9-2-26 21-11-2 15 20-4 19 4 11-2v10l15 16 16-6 13-13 34 1 7 9 11 13-5 10v10l3 6 12 1 25 29 11-3 5 4 13-10-8-11 7-11-3-9 6-6 1-8 7-8 1-16-22-16-7 3-21 2-2-11 11-14v-8l18-20-2-10-9-10-9-19-8-7-8-2-2-7zm0 0" fill-rule="evenodd"/>
</svg>
