<svg xmlns="http://www.w3.org/2000/svg" viewBox="0 0 1024 1024">
  <path d="M738 36l-4 3c-4 2-4 2-4 4v10c-1 6-2 9-4 11-3 4-8 12-8 15l2 2c2 0 5 3 4 3l-4 5c-3 4-3 4-2 8 2 4 1 5 0 7-3 4-4 12-2 17l1 11 1 11c1 3 1 4-2 11l-2 14c0 9-3 17-9 23-3 3-4 6-5 9-1 6-5 12-10 15-6 3-12 2-19-2l-9-5c-2-1-3-2-4-5-3-6-12-11-19-11-5 0-8-2-15-9-9-9-18-15-25-16-3 0-4-1-5-3l-4-2-5-4c-1-3-3-5-11-8l-10-7c-2-3 0-7 8-19 7-11 9-16 5-15-3 1-4-2-3-6 2-4 5-6 9-7 3-1 3-1 3 1 0 4 3 4 4 0v-5l3-6 5-8c2-4 2-4 0-5l-3-1c-1 0-4-1-5-3l-4-2-3 2c-3 2-3 2-1 4 1 2 1 5-1 5s-4-3-5-5-1-2-3-1c-4 1-5 1-4-1l1-3c0-1-9 1-10 3-2 3-5 2-8 0-1-2-4-3-10-3-5 0-10-2-16-4l-14-3-7-1-4-5c-3-4-7-4-11 0-2 2-2 2-1 5l2 6c0 3-6 7-14 8-11 2-14 1-16-1-3-3-5-4-9-2l-2 4c0 1 0 2-2 1h-6c-3 1-3 1-3 6 0 4 0 4-3 5l-3 1-2 3c-2 2-2 2-1 6l2 3-8 4c-1 0-2 1-4 6l-6 10c-4 5-4 8 0 13 3 4 4 6 1 6-1 0-1 2 1 7h-3l-5-5-3-2v2c0 3 0 3-1 2-3-2-12-4-16-4-3 0-7 4-7 6s-2 4-3 4l1-5 2-6-11-10c-7-7-13-11-15-12l-6-3c-3-3-6-2-5 2 0 2 0 3-2 4-4 2-4 2-4 0 0-3-5-3-6 1-1 2-1 2-2 1l-1-3h-2c-2 1-2 2-1 2 1 1 1 2-1 3v3l-1 4c-2 2-2 2-5-1l-3-4-1 3c-1 3-2 4-5 5s-5 2-5 4c-2 2-2 3 0 5l2 4c1 2 1 2-2 1-5-2-10 0-10 4l-1 2-6 2-5 2v20c-2 5-2 4-5 2s-5-3-6 0c0 1-1 1-3-1-1-2-3-2-5-2-3 1-4 2-2 4v4c0 3 0 4 3 7 4 4 5 7 3 7l-4 2c-2 2-2 4-2 6l1 3-13-21c-2-4-3-6-4-5l-4 5-8 7c-6 4-8 13-6 24 0 3 1 4 2 4l2 1c1 2 0 3-9 9-9 7-9 8-12 15-5 10-9 14-22 21-11 7-17 8-30 8-10 0-17 2-16 5 1 2-1 3-6 3-6 0-11 2-17 6-6 5-13 6-18 3-3-2-3-2-5-1-3 2-4 2-4 0s0-2-4 1c-2 3-4 4-7 5-3 0-6 2-9 5a76 76 0 01-26 18c-9 4-12 6-15 15-2 6-3 7-5 7-1 0-2-1-2-4v-9c0-5 0-5-2-5s-3 1-6 8c-5 11-6 12-3 19 2 4 2 6 1 13 0 8-1 9-5 16-4 5-5 8-5 10 0 9 12 35 21 47 3 3 3 3 1 7l-2 6-2 3-2-5-4-5c-2 1-2 0-2-2 0-3-3-8-5-10-3-3-4-2-4 1 0 5 2 10 6 13s4 4 4 8c-1 6-3 5-7-2s-7-11-7-7l-1 2v2l1 3 5 8 10 14c5 8 5 9 7 18 1 10 1 10 5 15 5 5 8 12 5 12-2 0-1 1 5 8l5 7v12c-1 11-1 11 3 24l10 24c7 12 8 17 6 31-1 7-1 8-2 6s-1 1-1 12c0 16-1 22-4 22l-6-2-5-1 2 21c0 2 1 3 5 3 5 1 12 6 17 12l5 5 8 3c7 3 8 3 15 3h24l4-1 4-2 3-1c3 0 3 0 2-2-2-3-1-4 2-5l6-4c2-2 5-3 8-3 6 0 12-3 12-5-1-2 0-3 1-4l4-5c2-2 2-2 7-1 7 1 11 1 14-1l8-2 7-1h8l11 1h4c0 2 1 2 2 1l12-1 12 1c0 2 1 2 3 1l5-1c4 0 11-6 13-14 4-10 6-12 12-14l8-4 20-10 4-4c4-5 8-6 19-3l9 2 17-5c12-3 19-6 27-10l10-5h10l15-2h15l11-1 7-2c4 0 5 1 11 6 12 9 12 9 19 7l6-1 7 4 7 5 5-2 5-1 3 3c3 2 3 3 3 6v4l4-2c2-2 3-2 3-1l2 5c1 3 1 3-1 3-2-1-2-1-2 2l1 5 9 8c7 6 9 8 9 10-1 1 1 3 5 8 5 5 6 6 5 8l1 5 2 6c0 3 0 3-2 3-3-1-2 0 4 7 5 5 5 5 8 4 2-1 2-1 2-5 0-6 3-9 6-7 1 1 1 1 2-1 4-11 8-15 18-20 7-3 9-4 9-6l4-6 3-6 1-3 4-4c2-3 3-5 2-8l1-3c1 0 3 4 2 6l2 5c1 5 1 5-1 5-2 1-2 2-1 9l1 4-6 6-5 5-1 14c-1 11-2 14-3 14h-5c-3 1-4 2-5 5-3 5-3 6 1 5h18v-3l3-6 3-9 1-6 1-4 2-3c2 0 7 12 9 20l2 8-3 5c-5 6-7 11-6 11l4 3c3 3 3 3 4 1l2-3c0-3 3-4 8-2 7 2 12 8 18 18 4 6 4 9 5 14l-1 10c-1 3-1 3 3 11 4 7 14 22 16 23l8 3c8 2 15 6 15 9s5 3 6-1c1-2 1-2 4-1l6 2c2 2 5 2 8 2s4 0 6 3c2 2 4 3 8 3 3 1 5 2 6 4l4 2 4 2c3 1 4 1 5-2 1-2 20-15 23-16s5-5 1-5l-2-1c-1-1 6-5 9-5 2 0 3 1 4 4l1 4-5 3c-5 4-5 4 4 6 5 2 7 2 5-1-1-3 0-6 3-6s4 2 2 5c-1 2 1 6 6 9l4 3 2 3c1 1 2 2 3 1 2-1 4-1 4 1l2 4c2 2 2 2 4 1l1-6c0-4 2-6 9-10l18-14c12-11 12-11 18-11h23c5 1 14-3 18-9 3-5 4-10 2-18-1-4-1-5 1-6s2-4 4-14c1-14 5-25 10-33 4-5 6-10 6-15 0-6 3-12 7-16 3-5 6-11 6-17l6-12c4-8 7-12 11-15 6-5 18-21 18-25l3-4 2-6 1-5c2-1 4-17 3-18-1-2-1-9 1-11l1-5 3-11 3-15c0-6 1-11 5-18l2-6-1-3a109 109 0 00-10-32l-2-3c-2-2-2-2-1-3 1-2 2-39 0-38-1 1-3-5-3-8l-1-4-3-4-5-2c-2-2-3-3-4-8 0-5-1-6-2-6-2 0-10-8-11-12-1-5-6-8-8-8-3 1-12-6-17-12-3-3-3-4-4-16 0-11-1-13-2-15-3-3-4-3-4 0l-1 3c-2 0-7-5-9-8-1-3-2-4-4-3-2 0-2 1-2 5v4l-5-5c-6-5-6-6-6-11 0-6-2-13-5-17l-3-5-7-8c-6-5-7-8-3-7h3l-5-9-4-3c-2-2-3-2-3-1 0 3-3 2-5-1-1-2-3-3-5-3-3-1-4-2-5-4l-2-1c-1 1-2 0-4-4s-2-4-5-4-5-1-7-3l-3-3v5l-5-3-7-4c-3-1-5-6-5-11 0-3 0-5-3-8-4-4-5-6-3-17 1-5 1-6-1-12l-3-8c0-2-1-3-3-3s-3-1-3-3l-3-4-2-6-4-20-1-8-1-4v-3c2-2 2-3 1-3l-6-4-7-5-4-3c-2-8-3-8-5-7-1 1-2 2-4 1-1 0-2 0-3 2-2 2-3 3-5 3-3 0-5-2-7-10l-2-7c-2-2-2-3-1-6v-5l-1-8-2-6-1-3-3-6c-5-5-6-8-3-10 2-3 0-6-3-5-2 0-3-2-5-12-4-13-4-14-6-15-2 0-2-1-1-1 1-2 0-3-3-3l-2 2z"/>
  <path d="M797 904v12l6 8 10 18 3 6-3-1-3-2 3 12c4 11 5 13 10 17l7 10 3 5h6l10 1c2 1 3 0 4-1l5-2c3-1 5-2 5-4s0-2-3-1h-3l3-2 5-3v-3c0-2 0-4 2-5l2-3c0-2 0-2 4 0 2 1 2 1 0 4-1 3-1 3 1 5l3 3 1-2c2-2 2-3 2-7-1-5 1-20 3-26 1-3 2-4 4-4h2l-1-19v-19l-4-3-5-4-7 3c-5 2-8 3-13 3l-9 2-8 3-5 1-12-6c-11-5-22-8-27-8-1 0-2 1-1 12z"/>
</svg>
