<svg xmlns="http://www.w3.org/2000/svg" viewBox="0 0 1024 1024">
  <path d="M86 2c-4 2-5 3-8 7l-6 10-5 9-2 4 14 14 14 14 3 14a1280 1280 0 0031 113c4 2 7 15 7 28 0 9 0 11-2 14-2 2-3 4-3 7 0 5-4 18-8 28-2 5-5 7-7 9-8 6-16 14-20 21-2 6-3 7-5 7-3 0-3 0-3 8l-1 16 1 10-7 15c-6 12-8 15-13 21-4 3-8 8-10 12l-5 8-6 4-5 2c-1 1 5 16 8 18l6 3 12 4 6 3 3 10 5 11 7 3c5 2 7 3 13 11l8 14c2 4 2 4 8 6 7 2 11 5 12 9 1 3 2 3 6 3 6 1 8 2 5 3-2 2-2 2 2 2 4 1 6 3 2 3l-2 1c-1 0 16 13 17 12l-2-3c-2-2-2-3-1-3 3-2 4-1 10 4l6 5 4 5 5 4 8 4 7 5 5 11c5 11 6 12 5 15-2 6-1 11 1 13l3 6c1 4 1 4 11 7 17 5 22 8 25 11 1 3 2 3 6 2 4 0 5 0 11 3 10 6 11 7 15 15l3 8 8 3c5 3 9 5 10 7 3 3 3 4 1 10l-1 8c4 2 18 12 19 14l4 3 5 2c2 2 3 2 7 1l7-1h3l-1 5c0 5 0 6 4 10l5 4 1 2c-1 2 0 3 6 6l7 4 3-6 2-6 5 2c4 2 7 2 11 2 6-1 6 0 6 2 0 1 1 3 4 5l9 6c3 3 6 4 9 4 5 1 9 3 23 13 11 8 12 9 12 12s1 4 3 6l3 3-1-8c-1-10 0-17 5-20 2-2 3-4 6-13 3-8 4-12 3-13-2-3-1-4 1-4s3 1 4 5 1 4-1 6l-4 10-4 11-4 8-2 8v9c1 4 2 6 8 11 5 5 9 7 14 9 6 2 6 2 6 6l3 6c2 3 3 3 5 3 3-1 4 0 5 1l6 3c3 0 5 2 12 9 6 5 9 8 11 8s8 7 10 12c2 3 2 4 4 4 1-1 3 0 3 1 1 1 3 3 5 3 5 2 6 3 7 8l1 6c2 2 8 6 17 10 10 4 11 5 18 12 5 6 8 8 14 10l11 3c4 0 5 0 6 3 1 2 2 3 9 5l15 5c6 3 16 5 26 7l8-1c2-2 3-1 11 3l9 6c2 1-1 9-3 10-1 1-2 0-4-2-1-2-3-3-8-3l-11-3-13-5-19-5c-15-4-19-6-23-9l-3-2c0 3 6 7 15 10l11 3 10 4c6 4 10 5 21 7l14 3 2 4c2 5 4 6 9 8 4 1 7 4 10 6 8 9 17 11 32 7 10-3 30-3 37 0 4 1 5 2 6 7 2 4 2 5 9 7 6 2 8 4 9 6l4 3c1 0 7 4 13 10l11 10h10c7 0 10 0 11-2 2-1 2-1 4 1h6c4-1 3-1 12 5 14 11 22 21 22 28l-2 5-3 2 4 4 7 5 3 2v-4c2-6 2-6 7-6 4 0 5 0 6 2s1 3-2 5l-3 2h31v-2c0-5 18-11 29-9h6v-7c1-5 2-7 4-9l2-3-4-3-10-12-6-8-2-18c-3-17-3-18-6-21l-3-2 3-3 2-3-1-7c-4-14-4-14-8-16l-6-4c-2-2-2-2-1-9l2-8 2-1c2-1 1-3-6-21l-12-35c-3-13-4-16-10-27l-11-17c-3-5-3-5-2-11s1-7-4-26c-7-26-12-40-20-52l-6-10h-7c-8 0-17-2-25-6-5-3-7-4-12-13-4-6-9-11-11-12l-4-6c0-3-1-5-5-8-3-3-4-4-4-7s-1-4-3-6l-5-5-5-5-11-10-12-11c-6-5-7-6-9-5s-3 0-7-4c-7-6-13-10-18-10h-4v-6l1-7-5-3-12-11c-5-7-7-8-10-8-4-1-4-1-4-5v-4l-6-2c-6-1-6-1-5-4 1-4-1-9-5-9l-4-6c-2-5-3-7-2-15l-1-11-4-3-9-4-7-4-2 2c-3 4-7 0-6-7 1-2 1-3-3-5l-7-4c-3-2-4-2-7-2h-4l1-4c0-4 0-5-7-13-8-8-16-13-18-12l-3-4-3-6-4-7-2-4-3 3-3 4-4 2c-3 0-4 1-4 2 0 2 0 2-2 1l-10 1c-8 1-12 1-17-2h-3c-2 2-3 1-3-1l-1-6c-1-2-1-3 1-5l3-3-3-3-2-6c1-3-2-5-6-5-3 0-5-1-8-3l-12-8-9-8c-1-3-2-3-5-3s-5-1-10-4c-7-5-10-6-11-4-2 2-3 1-3-3-1-5-4-7-10-6s-6 1-6-3c0-2-2-4-10-9-5-4-10-6-11-6l-2 1c-2 0-2 0-2-2 0-4-5-7-11-5-7 2-12 0-20-6-6-4-7-5-8-9-1-3-2-5-5-7s-5-5-7-10c-2-6-3-7-5-9l-7-6-14-12-16-13c-5-4-7-6-10-6s-3-1-6-8l-2-8-21-19-23-23a370 370 0 01-36-66l-8-13c-4-6-4-6-11-7-6-2-7-3-11-7l-5-5-6 2-5 1-4-4-11-13c-7-7-9-8-13-9-5-1-19-11-33-23-10-8-15-16-14-20 0-3 0-3-12-8l-15-8-9-6-6 2z"/>
</svg>
