<svg xmlns="http://www.w3.org/2000/svg" viewBox="0 0 1024 1024">
  <path d="M67 160l-17 2c-3 0-26 19-29 24l-8 6c-5 1-5 2-7 8l-3 7-3 3 4 6c4 5 4 6 4 12v6l11 5 11 5 2 9 3 10 25-10v-7c-1-6-1-7 2-9 2-3 3-3 8-3h5l4-10 5-10 9-3 8-1 6-8c7-10 7-9 6-16v-6l-6-2c-6-2-8-3-16-11l-9-9-15 2z"/>
  <path d="M228 248l-11 3-8 8-8 8 4 5 5 5-6 1a578 578 0 01-37 23l-6 3-8-6-9-6-4 2-6 4-4 2-4-2-4-2-6 3-6 3 2 4 5 11 3 7 4-3 6-4 9 6c6 4 7 6 8 9 0 4 0 4 4 5 8 1 8 1 8 5l-2 5-11 2-10 1 12 17 9-3c8-3 11-4 26-16l18-14 24-1h27l-6 8-5 8h-18l-32 16-32 16-3 10-5 12-6 1c-5 0-6 0-19-5l-14-6v-11l-1-11h4c5-1 5-1 7-8 0-3 0-4-7-10l-7-7-1-13c-3-16-6-24-13-32l-5-5 2-8c2-10 2-10-5-7l-5 1-3-5-3-6-21 10-21 9-1 8c-2 6-4 10-14 26L6 344l1 5c1 5 1 6 4 6 2 0 4 1 6 4l2 3-1 16-2 18 9 5c7 4 8 5 7 7-1 4 0 4 5 20 4 14 4 16 3 21l-1 6 14 13 13 15-6 14-7 13 4 11 4 11-2 14-2 16 25 1h24l22 22 22 22 4-4c3-4 4-4 11-5l7-1 7-9 8-9h16l1 5 4 17c3 8 4 13 4 18v6l-6 2-5 3-9 17-9 17 5 11c4 11 6 13 15 24l10 12 11-3 10-3v12l-5 2-6 2 9 10 19 25 11 16 19-4 20-3 5 15 5 14 4 1c3 0 4 2 7 6l5 6 8-6 6-5v-16c0-12 0-17-2-22l-1-8 9-5c8-4 8-5 12-12l7-13 2-5-1-4-2-4 2-4 3-4-2-20c-3-19-4-21-8-32l-11-22-6-9 4-10 4-10-3-3-3-4 7-15 8-16-1 9c-1 7-1 9 4 29l5 28v6l11 6c10 6 10 6 17 15l7 11-4 8c-5 6-5 7-5 13l1 6 5-3c5-2 6-3 9-7 2-5 14-14 16-14 3 0 20 11 26 16l6 6 5-2 5-1 5-12 4-12 8-3 7-3 5 2 6 2 3-5 3-5h9l12-2h4v12l-9 2-10 2 5 17 5 16 2-4 3-4 3 22 1 21 5 9 7 11 5 7 7 10a327 327 0 0062 40l4-6 5-5 26 5c3 1 4 0 10-4 6-6 4-6 21 5l13 10 5 16 4 13 6 5 6 5 6-4 6-4-4-8-4-8 8-6 11-5 7 4c4 3 9 8 21 25l16 21a338 338 0 0020-44l14 5c12 4 13 4 19 10l6 6 6-3 6-3 1-10c1-9 1-10 5-13l4-3 1 12v12h32l5-4c10-8 8-8 15-2 10 9 9 8 17 6l15-3c10-1 15-2 14-4l-6-9c-6-6-7-9-7-12v-3h7l18-3 13-3a213 213 0 006 9c4 0 10-4 15-10l6-7 3-22 3-23-2-9c0-6-2-10-2-11l-8-3-7-2-4-8-4-9 5-13c4-12 4-12 3-19v-7l-10-3-21-7c-9-3-13-4-14-3l-8 12-7 11 3 7 4 7-13 2-6 1-4 11-6 10-10-4c-8-5-16-11-16-14l-1-3c0-2 1-2 6-3h6l-9-10-9-9h-16l-4 6-5 6-3-2c-3-3-4-5-4-10l-1-4 14-14 13-15v-10l7-2 7-1 3-7 3-6-3-6-4-7 5-3 4-2-17-14c-9-9-23-20-30-25-11-8-15-10-24-13-10-4-12-5-22-13l-21-18c-8-9-9-9-16-11-8-2-8-2-12 0l-4 2-16-13-37-28-21-16h-10l-15 2h-5l-3-5c-3-5-4-6-17-12-11-6-17-9-25-16-13-11-31-21-43-25l-24-4-14-1-6-6-6-6-15 3c-13 3-15 3-22 2l-9-1-5 6-5 7-7-6-8-5 3-10 3-10-6-12c-5-13-9-19-20-30-13-12-14-13-30-17l-15-4-8 5-8 5-9-2c-10-2-10-2-20-11l-8-7-15 4-19 5-5 1v-11h21l3-7c3-5 3-7 3-13v-6l-11-3-10-3-6 2-6 2-11-3c-9-3-25-5-32-5l-13 3z"/>
</svg>
