<svg xmlns="http://www.w3.org/2000/svg" viewBox="0 0 1024 1024">
  <path d="M664 104l-11 5c-4 3-5 4-5 8-1 7-2 7-7 12-5 3-5 4-9 17l-6 15-4 1-12 5c-8 3-9 5-12 9-4 6-8 8-24 13-8 3-8 3-8 7 0 2-1 3-3 4s-3 3-3 5l-4 11-2 8h-4l-4 1-3 8-3 9 3 4 4 3-4 3-7 4c-4 0-5 2-5 7 0 2 0 2-16 4l-9 1-3-3c-2-3-2-3-9-3s-7 0-8 3l-2 3-3-1c-3 0-4-1-6-4s-2-4-5-3l-11 1c-9 1-9 1-25-11-6-4-7-6-8-10l-4-7c-4-3-10-14-10-18 0-3-1-6-6-14-7-11-7-11-11-12-3-1-3-1-3 1s-1 4-4 5l-5 3c-2 0-6-6-7-12s-2-7-8-13l-6-8c0-2-1-2-8-2h-9l-3-7-4-11c-2-6-2-7-6-7-3-1-4-1-5 2-2 3-3 3-9 3-5 0-7 0-10 3-4 3-6 2-7-4 0-5 0-5-4-8s-6-3-11-3l-12-2c-9-2-10-2-10-1 3 7 2 8-4 18l-8 10-7 3-5 1-3-4-4-3-3 8-3 7 3 11 6 15c2 4 3 4 6 4 9 0 11 0 12 5 0 4 0 4-2 4s-2 0-2 3c1 5 3 7 9 12l15 9 14 7c4 4 4 4 13 5 9 0 10 1 13 3l5 3c3 0 4 3 4 9l4 6 3 4-4 5-5 4v6l2 10v3l-8 1-7 1-5 7-5 8-4-2-15-6c-11-4-12-4-16-10l-5-5h-6c-9 0-24 4-31 7-5 3-6 4-14 3-8 0-9 0-16-5-7-4-8-4-16-4h-9l-7-6c-6-5-7-7-7-10s0-3 4-5l4-2-2-3c-2-2-3-3-8-3l-10-3-8-2c-4 0-5 0-6-3-1-2-3-4-10-7l-9-4-1 2c-1 2-2 2-5 2l-7-4c-3-2-3-2-10-1h-8l-3 5c-2 4-3 6-8 8s-6 3-13 13-9 12-17 18l-9 6 5 3 7 7 2 4-2 2-2 3 3 2c3 2 4 2 9 1l7-1c2 0 7 9 7 12 0 5-1 6-7 6-4 0-6 1-10 3-5 3-6 4-3 8 1 3 1 3 5 2l6-3 3-2 3 3c1 1 4 4 6 4 5 3 5 6 1 9-5 2-5 3-2 6l2 3 2-3c1-3 13-12 15-12l3 4 3 4 9-3 9-3c1 0 1 5-1 11 0 2 0 2 4 1h5l2 4c1 3 2 4 4 4l7 4 8 4c3 0 4 0 4 3 1 3-3 15-4 15l-16 10c-13 9-14 10-19 17l-4 7 2 5c2 4 3 5 10 8 7 4 7 4 7 7l-1 5c-3 3-2 4 2 9 2 4 5 6 10 9 11 5 21 13 24 18 1 3 3 5 4 5l9 2 20 8c10 4 14 6 19 6l8 2-1 3-3 4 5 4 5 5-2 10c-1 8-1 8-5 10-3 1-3 2-3 5s-1 6-6 14l-7 10-9-5c-8-4-8-4-16-3l-15 1h-7l3 7c2 8 2 8 5 7 2-1 4-1 11 2s9 3 15 2c5 0 6 0 6 2v4c-1 2-1 4 1 10 3 7 3 7 12 12 9 6 9 6 15 4 1 0 3 1 6 5l10 10c6 3 7 4 8 7l3 5 2 5c1 4 2 4 8 7 10 5 13 5 20 4l14-5 7-4 5 3c3 1 8 4 10 7l5 4h12c15 1 16 1 7 8l-6 4 4 4c3 4 3 4 1 5h-5c-3 0-4 0-5 2s-2 2-8 2-7 0-8 3c-2 2-2 2 0 10 3 10 7 13 15 13 5 0 6 0 10 4l5 3-2 4-1 4 5 5 5 5h6c6 0 7 0 8 2s1 2-7 4l-5 2-1 4c0 4-1 5-2 6-2 1-2 0-5-5-1-3-3-5-4-5l-7 2c-4 1-6 2-6 4 0 3 2 7 8 12 11 9 11 8 11 34v22l4-4 14-15c11-12 11-12 12-19l1-7 10-8 10-8 7 1h8l8-6c11-7 21-19 22-26 0-5 0-5 8-9 7-3 8-5 9-8 2-4 3-5 11-9l10-4 4-9c6-10 7-11 21-16l11-6 11-8 12-10c2-4 3-5 10-6 6-2 7-3 10-7l3-5 10-1h10l5-6c4-4 5-6 5-9v-3h17l31 31c25 25 31 32 33 37l2 5-4 5c-3 5-5 6-10 7-8 3-15 8-19 14-2 4-2 6-2 13v7l6 3c5 2 6 3 8 6 2 4 3 5 11 9l13 8 4 3-2 7c-4 9-8 13-17 19l-9 5h-9l-8-1-2 6-3 7h-13v6l1 8c0 3 23 18 30 19 7 2 23 13 23 16-2 6-2 6 3 12 5 4 6 5 12 6l13-1 7-1 3 5 4 6 5 5 6 8 4 7 1 4 13 5c13 6 13 6 18 4 6-1 7-1 11-7l6-3 9-4 4-3v-12c-1-18-3-27-6-34-2-7-2-8-1-14l1-8-7-15-7-17 2-6 1-10c0-8 3-13 6-13 7 2 7 3 8-3 1-5 1-6-2-9-2-2-3-3-2-5l1-7 1-11c0-5 1-5 7-11 7-5 14-9 15-8l-1 5c-1 4 0 5 1 7l4 3 1 2 3 6 3 3 1-3 1-4h6c6 0 8 1 5 2-1 1-1 2 1 4l3 7 2 5 3-13c2-14 2-16 1-26-1-13-1-31 1-32l8-2c6 0 6 0 8 2l4 5c3 3 4 3 4 1l-3-7c-3-5-4-6-2-6l4 6c5 7 7 9 7 6l-2-6c-2-3-2-4 0-8l1-5-6-5c-9-5-16-11-19-16l-3-6 2-5c2-3 4-8 4-12l6-15 4-10 4-4 3-2-4-7c-2-6-3-7-2-11l1-8c0-3 1-5 3-8l2-4-3-8-3-6 2-6c1-3 3-7 5-8l3-3-1-3-6-7-5-7c-1-3 1-8 4-8 5-2 6-4 5-12v-8l13-8c16-11 25-18 28-22 2-3 3-3 10-3 6 0 8 0 11-3 3-2 3-3 3-6 0-4 2-10 4-10l8 2 15 3c8 0 8 0 14-5 6-4 7-4 10-3l12 2a205 205 0 0120 3l5 8c9 13 11 14 9 4l-1-11c0-4-1-5-4-10-4-7-5-11-2-12 2 0 2 0 0-6l-3-10c-1-4-1-4-4-3l-3 1 1 7 1 7-5-2-4-3 1-5v-5h-3l-13-2h-9l-7-6-8-10-2-5-4 2-8 2-14 6-12 5-10-1-15-2c-4 0-7-1-11-3l-12-5-7-2-8-12-7-10 2-7 1-6-6-6-13-10c-14-6-18-9-22-17-3-5-6-7-12-12-9-6-10-9-17-25l-7-24c-1-11-2-12-8-24-7-13-19-27-57-71-18-21-21-24-21-28-2-6-10-16-16-18-3-2-4-2-10 0z"/>
  <path d="M43 640c-4 3-9 6-15 8l-9 3-1-2-1-3-17 6 2 4 2 8 2 8c1 4 2 4 12 6h6l1 5 1 8 3 7 5 9c2 9 4 11 11 15 6 3 6 4 12 14l11 18c6 7 7 8 16 12 14 5 18 8 28 21l14 13c5 2 7 5 4 8v3c1 2 2 3 7 5l8 3 7 2 9 2 11 2c12 0 38 8 47 15h5l12-2 12-1h6l8 2h5l-3-7-5-13c-3-10-5-14-12-23-8-12-12-22-15-33s-3-12 0-13c3 0 4-4 3-7l-19-8-21-9-3-1 2-9 4-13c1-5 1-5-2-14l-3-8-10-5-9-4-9 5c-9 6-9 6-15 6h-7l-5 5-7 9-3 3-5-2-8-7c-4-3-5-4-11-5h-6v-6c0-5 0-6-3-8l-3-3-7 6c-5 4-6 5-8 4s-2-2-2-10l1-9-4-5-8-13-4-7h-5c-5 0-6 1-12 5z"/>
</svg>
