<svg xmlns="http://www.w3.org/2000/svg" viewBox="0 0 1024 1024">
  <path d="M308 3l-5 2-1 9-1 9-24 1c-26 0-27 0-34-6-1-2-5-3-8-4-6-1-6-1-12 2l-10 6c-4 3-5 4-6 10-1 5-2 6-4 8-16 9-16 9-21 21l-7 17c0 3-1 8-3 11l-2 6-7 1-16 2-9 1-1-4-8-12c-6-8-8-9-19-16l-14-9v-7l1-7-6-6c-9-7-16-16-17-21L69 2H59L42 4h-9l-8 7-9 9 3 9c1 8 1 8-1 10-1 1-2 2-1 10 1 6 0 9-1 12v5c2 2 2 14 0 18l-1 3 5 5 4 5-3 11-3 10H9c-10 1-10 0-4 14l4 9H5l-5 1 3 8 3 10c-1 2 0 4 1 7 2 3 2 4 1 6l-2 8c-1 4 0 5 5 16 5 9 7 12 10 13l4 2 5-2c5-2 5-2 17-1 19 2 17 1 22 11 7 13 15 24 22 30 6 5 6 6 8 14s3 9 6 11c5 3 5 3 1 11l-1 5 3 3c3 3 3 3-2 14l-1 5 8 8 8 10-2 5c-4 6-3 10 2 10h4l1 11v29l2 15 17 23 17 23h6l8-1c1-1 2-2 3-1l5 1c4 0 4 0 5 7l4 13c4 6 5 7 14 7 7 0 10 1 10 4l4 13 4 11h5c4 1 5 1 6 5l1 4 7 1c8 1 9 1 13 6l5 4v13l2 17v5l21 14 20 14 7 15 7 15 28 26 28 26h6l6-1 4-2c4-2 6-2 10-1 5 1 6 2 10 7l4 5-4 5c-4 5-4 5-3 8l6 2c3 0 3 0 3 2l-5 9c-5 6-5 6-4 9l5 2h4l3 19a2362 2362 0 008 28l2 3 2-4 3-5h6c5 1 6 1 9 5 2 3 3 5 4 14l2 14v3l9 1h9l23 20c22 18 23 19 25 24l1 7-11 4c-9 3-10 3-15 2l-6-1 11 7 11 7 7-1c5-2 11-1 10 1l-14 6c-13 4-14 4-19 3l-6-1 11 7 11 7 7-1c6-2 6-2 15 2l10 3 9-2 9-3c2 0 8 12 10 18 1 4 3 8 7 12 9 10 10 12 19 20 9 7 9 7 15 7h6l24 18c23 18 24 19 29 27l6 9 12-3 11-2 12 8 13 8 14-6c14-6 15-6 14-9l-1-5c0-4 0-4 6-5l5-2-3-10c-2-9-2-11 2-11l-3-18-5-16-10-11c-5-6-10-12-10-14-1-2 0-3 4-6l4-4-1-9-3-8 3-3 11-14 9-11 6-2 11-3 4-1v-17c0-14 0-17 2-20v-7c-1-4 0-4 6-13l7-9v-23l15-15 19-16c4-1 4-1 11 3l7 4 1 8 1 7 8 4c7 3 10 4 16 4 14 1 14 1 15-6 1-6 1-6-2-11l-1-5 3-6 1-6-5-10c-3-7-5-11-5-16-1-5-5-19-7-21l-11-5-11-3v-8l9-1 9-2 1 7 1 6 7-1 12-2c4 0 5 0 7-3l2-2 9 1 15-1 7-1v-4c-3-11-3-10 4-17 7-6 8-7 8-4 0 2 0 2 10-1l6-3-1 9-1 9 3 2c4 3 6 3 7 0l4-6c4-4 5-5 12-6 8-2 14-5 14-7l-1-7c-2-6-2-9 0-12l1-10v-19c0-6 0-8-2-14l-3-7-7-1-6-1v-6l-2-12-1-6-12-4c-13-5-12-4-22-26-7-15-7-18-2-14l7 4 20 4c17 4 17 4 26 3s9 0 7-13v-8l11-1 11-2-1-10v-9h-11c-14 1-13 0 1-1l11-2-1-10v-9h-12l-13 1-9-9c-5-4-10-9-9-10v-7l1-5h-15l-10-9-10-9-1-10c-2-10-2-11-5-13-6-3-20-7-27-7h-7l-7-6c-10-9-12-13-5-18 3-2 4-3 5-9v-24c1-4 2-5 4-6l6-6 2-4-3-4-3-4 6-1h5l2-7c2-6 3-8 6-10l3-2v-23l4-4c3-4 3-4 4-13v-11c-1-3 1-16 3-18l4-8c1-5 1-7-1-10v-11c2-7 2-7-1-14l-2-7-11-5-14-5c-4-3-11-2-27 3l-19 6c-5 1-9 3-16 8l-11 7-8 2-6 1-7-7c-8-7-10-8-16-8l-5-1c-4-4-7-11-3-11l2-4c1-4 1-5-1-9-3-5-3-6-3-9l1-7-1-3h-9l-9 1 1-3c1-3 1-4-1-5-3-2-7-11-6-14 1-5-1-13-3-16l-3-3-2 7-5 11-1 3-2-3c-2-2-2-3-8-3-6-1-7-1-13 2-7 3-8 3-13 2s-7-2-10-5c-10-9-11-9-21-9-9 0-10 0-14-3l-12-8-8-4-4 4-4 4 2 5v9c-1 4-1 4-9 5l-17 1c-8 0-9 0-11-3-1-1-2-3-1-4l1-6c0-3 0-4-3-6s-4-2-7 0h-10c-6 0-6 0-10 3-6 5-8 11-9 20-1 6-1 6-5 7-5 1-5 1-14-1-5-2-9-4-17-10l-12-10c-1-3-7-7-10-7l-13 3-11 3-3-2-7-3-5-1-4 4-4 4-4-5-4-4-3 5c-3 5-5 4-6-2s-1-6-5-3c-4 2-4 2-11 1-6-1-6-1-14-9-9-10-10-10-16-4l-4 5-11-1h-11l-10-9-26-21-8 1-5 1-4-5c-2-5-3-5-7-6-4 0-7 1-10 3z"/>
</svg>
