<svg xmlns="http://www.w3.org/2000/svg" viewBox="0 0 1024 1024">
  <path d="M204 1c-7 1-8 2-14 6-6 5-10 7-18 10l-11 3-6 11-6 10h-24l-10 21-21 40-10 20 3 16 4 16-2 7-3 6 2 8c2 6 2 10 1 15v7l9 23 9 23 6 4c6 4 7 4 8 17 0 7 0 8-3 18l-4 10 2 11c4 18 4 29 1 52l-2 21 2 24 3 25 6 14 5 12-3 14-4 15 4 13 4 14 11 8 10 9-2 7-5 19-3 12 5 9 5 9 1 17 2 23v5l-6 7-6 7v25l7 24 7 23-1 9-2 10 13 9 13 7 4 9c5 12 13 38 13 41l-4 15-4 13 4 8 3 7 25 1h25l4 10 6 19 2 9-3 8-3 8 14 10 13 9 14 3 15 3 12-5 14-5c4 0 34 14 49 23l16 9 15 2c15 1 16 1 49-7l8-1 12 7 37 25 24 16 18 21 17 20h22l7-8c6-8 6-8 14-10l7-2 11-13 10-13 6 3 5 2c2 0 8-11 11-18l7-18 5-10 9-5 9-5 9 3 10 2 2-5c1-5 4-8 13-18l6-6 11-2c6 0 11-1 11-2l8-13 6-12 9-4c9-3 19-11 28-21 6-7 6-7 18-11l11-4 4-8 3-13c0-5 0-6 4-10l8-6c6-1 7-2 7-6 0-3 1-6 5-12 4-9 5-9 17-18l12-9 5-20c5-20 5-20 3-26-2-10-2-10 3-10l4-1 1-6c0-6 0-6 6-11 5-5 6-5 9-17l4-12-2-17-2-17-8-9-11-12c-1-2-3-5-3-8-1-4-2-6-8-11-3-4-7-7-8-7l-4 6-3 7h-6c-6 1-7 1-16-3-17-9-26-15-28-18l-20-20c-17-16-19-17-25-19l-7-2-6 4-5 5h-16l-15-12c-14-11-15-12-23-14l-13-4-6-2-7-10-7-11-5-2-5-1-6 5-6 5c-1 1-6-1-16-7l-14-7-5-8-5-8-12-2-42-15-30-12-1-7-2-7-22-13-20-12-21-29c-18-26-20-29-25-31l-5-3v-8l-1-15-1-7-12-11c-12-10-13-12-28-32l-14-21 1-14 2-14-7-4c-7-2-7-3-11-9a633 633 0 01-22-61l-4-20-4-13-4 1c-4 2-5 2-20-2l-15-5-11-16c-11-16-12-17-18-21l-12-7a2230 2230 0 00-55-42l-10 1z"/>
</svg>
