<svg xmlns="http://www.w3.org/2000/svg" viewBox="0 0 1024 1024">
  <path d="M202 7c-2 4-4 7-3 8l-3 6c-4 6-4 12-1 12 2 0 3-2 3-4l2-3 9 4 9 3 1 6 3 7c0 2-1 2-4 2-5 0-7 1-18 10-4 3-4 3-4 9l1 5-6 3-9 3c-3-1-4-1-9 6-10 10-10 10-7 13 2 1 3 4 3 5 1 3 1 3-2 3-2 0-4 1-5 3-2 2-2 3-2 7 0 5 0 5-3 6-2 1-2 1-2 7 1 7 4 18 7 21l2 2 4-3 8-4c4-1 4-1 6 2l21 18 5 3v16h4l5 4 2 4 5 3c2 4 3 4 7 4l7 2c3 2 9 3 11 0l5-1c3 0 4 0 4-2s3-1 7 2 4 4 4 7l-2 7 3 8c3 5 4 5 7 6l5 2 4 1c4 0 9 3 9 5 0 1-2 4-5 6-4 3-4 4-3 6s1 3-1 4v4c1 3-3 3-9-2l-5-3-3 3c-3 4-9 4-13 1-2-2-3-3-10-4-7 0-8 0-12 2-5 4-5 4-11 1-4-2-5-2-9-1l-4 1v6c0 4-1 9-6 21-8 24-8 25-12 26-3 0-5 0-13-6l-8-6-6 1-6 2 3 5 3 5-2 4-6 5-4 1 1 4 1 3-4-1h-4v5l-2 7-2 3 6 9c4 6 5 9 5 12 0 9 1 11 7 14 3 3 8 5 13 6 7 2 10 3 18 8l16 12c7 6 7 6 13 6l11 2 5 2 3-2 2-2 4 3c5 5 7 10 6 15-1 3-2 4-4 5-3 1-3 1-3 9 0 6 0 7 2 8 1 1 2 2 2 5s0 3 3 3 3 0 1 2l-2 5c0 13 0 13-3 13-1 0-3 1-5 4-3 3-4 4-6 3l-5 1c-3 1-3 2-5 8l-2 9v12c-1 10-1 11 1 14 1 3 2 4 5 5s5 3 7 6l7 7 5 5c0 2 1 3 4 3h3l-2 4-1 8c0 5 0 6-3 8-2 2-3 3-3 7-1 6 1 12 3 13l13 2 15 1 7 1c6 0 5 3-6 14-10 11-12 14-12 25 0 3 0 4 3 6s4 3 4 7c1 6 4 11 7 11s4 3 2 5l-1 5-2 6v3a143 143 0 010 32c-1 4-1 5 3 6l5 4c2 4 2 4 1 20v16l5 9c5 7 6 10 6 14 0 3 0 4 2 4 2 1 2 1-1 5-5 4-6 9-4 15l2 11c0 6 0 6-3 7s-3 1-2 4v16l-1 5 6 4 7 6c2 3 6 4 6 1 0-4-1-6-5-7-4-2-5-2-7-8s-2-7-1-10l2-3 5 13c1 4 8 5 12 2l2-2v4l2 7v6l-1 9v5h6c7 0 7 0 9-3 1-3 1-3-1-5-2-1-2-2 0-7l1-11c-1-4 0-5 1-5l2-3 3-6c2-3 3-5 3-9v-5l3 4c2 3 2 5 1 18 0 16 0 19 5 19 3 0 4-1 6-4 3-5 4-11 2-14-2-1-2-2-1-5s2-5 6-6c4-2 4-2 4-8 0-5 1-8 3-10l2-4 2 5c2 4 2 7 1 13 0 9 0 9-4 10-4 3-5 6-2 10l3 5c0 4 2 8 4 8 3 1 6-2 6-4-1-2 0-2 6-3 9 0 11-2 9-6 0-1-2-3-4-3-3-2-7-10-7-16 0-3 0-4 2-4 4 0 4 1 3 5-2 3-2 3 1 6 4 4 10 7 11 5h2l6 1c3 0 4 0 5-3l7-6c3-2 4-3 4-5l-2-6c-3-3-3-3-2-10v-6l-3-3-3-3h4c5 0 5 1 1-18-3-16-2-23 2-30 2-2 3-5 3-7 0-4 0-4 2-3s2 0 6-4l7-8c4-3 4-3 4-1l-4 6c-3 2-6 6-7 10l-7 13-5 7 2 4c4 7 6 18 6 27 0 10 3 19 7 19 3 1 4 0 4-6 0-4 1-6 3-9s3-5 3-8c0-5 4-9 9-9h4l-5 2c-4 2-5 4-5 10 0 3-1 4-3 6s-3 4-3 7c-1 3 0 3 3 4 4 1 5 1 7-1l6-10 6-8 8-6 7-5v10h-4l-6 3-6 5c-5 3-9 8-9 14-1 3-2 4-5 5-3 2-3 2-3 7 0 13 3 16 9 9l4-5 1-2c3-2 0 7-3 9-2 2-1 5 4 8 3 2 5 2 9 1 4 0 6-1 11-5 6-5 7-8 12-26 1-5 2-9 4-10l5-10 3-7 1 2v5c0 3 0 3 5 3 4 0 4 0 7-5l4-9c0-3 1-3 5-5s5-3 8-8c4-5 4-6 5-16 1-8 0-11-1-15l-1-13v-8l-6-5c-5-4-6-5-8-11s-2-7-1-8l4-3c3-3 3-3 3-11l-1-9 4 2c7 3 18-1 19-7 1-3 0-3-4-6-3-2-6-3-12-3-8-1-12-3-12-8 0-2 0-2 7-3 6-1 7-1 12 2l5 2-1-9-2-9 4 2c4 3 4 5 6 10 1 4 2 9 4 11l5 13c1 8 2 10 6 15l5 7 3 1c3 1 4 1 5 5 1 2 2 5 5 6l5 6c2 3 3 3 4 3l6-2c5 0 6-3 3-9-2-4-3-8-1-8s5 5 6 10 2 5 6 6h13c7 0 9-1 11-3 2-1 3-4 4-6 0-4 0-4-4-5l-7-1c-3-1-4-3-1-3l1-3c-1-3-1-3 3-3 3 0 3 0 3 2 0 3 0 3 4 3l11-3-1-2c-2-2-2-2 2-1h5l1-4c0-3 1-4 3-4s3-2 4-3c0-2 2-5 4-6l4-6c0-3 0-3 1-1 1 1 0 4-1 8l-3 6 5 6c2 4 6 8 9 10 4 3 9 10 19 26l15 22 2 10c1 11 3 17 6 19 2 2 2 2 3 0l1-3 1 13c1 10 2 12 3 11 1-2 1-2 3 14 1 8 2 11 6 20 5 10 5 11 4 16l-1 12c0 7-1 10-3 10l-1-3v-3l-2 2-4 7c-1 5-1 5 1 11 2 5 2 7 2 14l-1 8 3 1c4 2 4 2 4 0s0-2 2-1l4 1c1 0 2-1 4-7 2-8 2-12 0-20-2-5-2-8 0-8v2c0 2 0 3 3 4h6l3-2v4l-4 9c-2 4-3 6-2 11 0 5-1 7-2 7l-3 4c-3 8-3 8 6 19l8 10-1 7-1 12c0 6 0 6 5 12l7 11c2 3 3 4 7 6 5 3 6 3 7 7 1 6 10 25 14 31l6 8 4 3v-3l-3-10c-5-9-9-19-9-28-1-8-5-21-9-29l-3-9 2-8c1-5 1-7-1-10-2-7-2-8 3-11 4-1 5-3 6-6 1-4 2-4 5-4s4 0 7-5l4-5 5 3c4 4 4 4 5 9l1 6h9l11 1 1 6c0 5 1 6 3 9l4 4 5-4 5-5-2-6-4-19-4-24c-2-11-3-26-1-38l2-17c1-8 1-8-4-23l-5-17h3c4 0 4 0 3-3l-1-12-3-19-4-18-4-20-3-17c0-10-2-16-6-19s-5-6-5-14v-6l-6-5-6-6v-10l-1-14c-3-4-4-15-4-20 1-3 2-8 4-10 2-5 2-5 1-9l-2-8-3-9c-4-6-7-16-7-24 0-4-1-6-3-9s-2-5-2-12l-1-10-2-3-1 4-4 7-3 2v-2c0-3-6-10-9-10-1 0-5 3-8 7-6 6-7 7-10 7-4 0-4 0-9-7l-6-8-3 5-3 5 4 8c2 6 3 9 3 17s0 9-2 14c-2 4-4 5-5 5-4 0-10 4-16 10s-6 6-6 13c-1 7-1 8 3 18l4 15c0 4 0 4-2 4-3 0-3 0-3 4 0 2 0 3-1 2-1 0-3 1-4 5-3 5-3 5-12 7-3 0-5 1-7 3l-3 3-1-3-4-4c-2 0-3-2-4-5l-3-6-3-12c-1-7-2-9-5-12l-5-10-3-5-4 2c-3 1-5 2-6 5l-2 4 4 10 5 12c0 3 0 3-3 3s-7-4-11-13c-3-6-4-8-5-19v-17c1-3 1-3-1-5l-4-9c-1-4-4-9-7-12-6-10-10-18-10-22 0-3 0-4 1-3l4-2c3-3 2-6-3-7-4 0-4-1-4-4s0-3 4-3c8 0 11-7 11-24 0-9 0-12 2-15l2-5h6l8-1c2 0 2-1 2-9l-1-8 3-1 7 1c9 2 30 0 32-3l1-9c0-5 0-7 2-8 2-2 2-2 3 2 3 6 5 8 9 8 3 0 3 0 3-4 0-6 2-8 8-8l5-1v4c0 4 0 4 4 6 4 1 4 1 7-3 2-5 3-14 2-20l-1-5c1-2 1-2 4-1 2 2 3 2 5 0 2-1 2-1 1-4-2-3-1-3 9-2 14 1 16-2 17-17 1-9 1-10 4-12 4-3 6-7 7-13l4-14a46 46 0 000-34c0-1 5-3 10-3 4 0 4 0 6 4l1 3h9c7 0 8 0 11-2l2-3-2-5-2-6-3-6-4-6c-1-2-2-3-6-4l-7-4c-1-2-2-3-4-3l-10-2c-6-2-7-2-8-5-3-6-6-8-14-9h-13l-24 2c-21 0-26 0-27 3-1 2-5 4-10 4-3 0-4 0-5-3-1-4-3-4-7-1-3 3-13 4-18 2l-8-2c-3 0-6-1-11-4-7-5-10-6-14-3l-15 1c-13 0-14 0-18 3-8 5-27 7-36 3l-10-1c-4 0-8 0-10-2h-6c-2 2-5 2-10 2l-11 1c-7 4-15 3-23-3l-8-4a201 201 0 01-40-10l-10-4c-6-4-11-4-16-1-3 1-3 1-6-1-3-4-3-9-1-21l2-12 2-11 2-16c0-8 0-8-3-12-3-3-4-5-4-8l-1-6c-3-3-1-12 4-19l5-7v-3c-5 2-7 2-7 0l2-3c2-3 1-5-2-5-2 1-3 0-6-4s-4-7-4-9l-2-9c-3-4-3-5-6-5s-5-2-5-5c0-4-3-7-6-7s-3 0-3 4 0 5-3 6c-2 0-3 1-3 2 0 2 2 5 5 6l3 1-5 2-3 2 4 1 3 3-3 2c-3 1-5 4-5 10-1 4-4 6-7 3l-7-3c-9-1-10-1-12-4l-2-3-2 3c-3 6-7 5-10-1l-5-5-4-5c-2-3-4-4-11-6-7-3-8-3-8-6-3-15-3-17-5-19l-3-6c0-2 0-3 3-4l3-1-4-3-5-6c-1-2-2-3-6-5-2 0-5-2-5-3l-4-2c-3 0-4 1-6 4-3 5-3 6 0 10l6 2c4 0 4 0 5 4 0 3 1 4 2 4l2 3 3 4 2 2c-1 1-8 2-13 1-4-1-5-2-7-5s-4-4-8-2l-2 4v3l-4-1c-2-1-3-2-3-4l-3-5c-3-1-3-1-10 1l-9 3c-2 1-2 1-2-1s2-4 6-7l5-4-3-3c-5-3-6-5-5-8 0-2 0-3-4-4-3-1-6-3-7-5l-7-4c-4-2-11-7-13-10l-4-2c-4 0-5-2-6-11l-1-6-5 6z"/>
  <path d="M547 675l-3 1-4 11-4 11 3 3c2 4 8 8 13 10 3 1 3 2 5 10 4 17 4 21 4 32l-1 11-4 7c-4 5-4 6-5 15 0 5-2 10-3 13l-2 6c0 1 5-1 7-4 3-3 3-2-1 4l-2 4 3 1c3 2 3 2 7-3l5-7 4-3 8-5c4-3 4-4 8-17 3-14 5-24 6-39v-8l-6-9c-5-6-7-10-7-12s0-3-2-3l-2-2c-1-2-2-3-4-3-4 0-6-4-6-10l-3-9c-4-6-6-7-14-5z"/>
  <path d="M679 701l-2 9c-3 7-2 12 1 17l4 8c2 7 8 12 13 11 6-1 8-8 6-16-3-6-11-20-17-26-4-5-5-5-5-3z"/>
  <path d="M623 724a1454 1454 0 01-5 57l-2 9c2 1 6-1 8-5 2-3 4-5 7-6 10-4 13-10 9-21l-4-14-6-13c-4-4-5-7-5-10l-1-3-1 6z"/>
  <path d="M639 731l1 6c0 4 1 4 3 0 3-4 1-9-3-9-2 0-2 0-1 3z"/>
  <path d="M543 783c-3 1-6 3-7 5l-5 4c-3 1-4 3-4 4l1 2 4 1c4-1 4 0 0 4-3 3-2 6 2 6s6-4 7-13l2-9 2-3 1 4 2 3 1-4v-6l-6 2z"/>
  <path d="M509 802c-1 1-2 2-3 7l-3 11c-2 4-3 5-2 10 1 6 1 6 3 4l2-3 3-9c3-6 4-8 4-13l-1-7h-3z"/>
  <path d="M519 802l-4 1 2 5 2 4-2 3c-3 4-4 9-1 10 1 1 3 1 5-1 7-6 9-12 4-19l-2-4-4 1z"/>
</svg>
