<svg xmlns="http://www.w3.org/2000/svg" viewBox="0 0 1024 1024">
  <path d="M590 94l-6 1c-4 1-5 2-8 8l-9 9c-5 3-9 9-9 12 1 3-1 4-8 3l-9-3c-5-3-9-2-11 1l-1 3-3-3c-3-4-3-8 1-13 2-3 3-5 1-8-1-4-12-2-21 3l-11 5c-5 1-6 2-6 3 2 6 2 7 0 10l-2 4 4 5c4 4 7 12 7 16l-3 3c-3 2-15 0-19-3l-7-4c-4-2-4-2-11 0-8 2-14 5-14 10 0 1-1 5-3 7-2 4-5 7-16 15l-17 14c-4 3-6 4-13 6-8 2-9 3-15 9-7 7-8 7-13 7l-8 2c-2 3-2 3-6-1-4-2-4-2-9-1-6 1-6 1-10-2l-4-3v-15l-7-2-11-3-10-5-12-5-9-3-3-3-10 5-10 5-1 7v7c-1 2-11 2-20 0-8-1-9-1-12-5-5-6-6-8-6-13l-2-8v-10c2-6 1-17 0-17l-9 5c-5 3-11 5-18 6l-16 5c-3 2-11 4-17 5l-12 2c-2 0-11 7-22 15a1543 1543 0 01-111 68l-13 7v6l3 20 2 14 5 1c4 0 4 1 8 8l5 8-5 6-5 5v12c1 11 1 13-1 17l-2 4 3 3 4 8 2 6 8-3 7-2 4 3 5 10 6 8c3 1 3 1 2 5v4l4 1c4 0 4 0 4 4s0 4 5 5l10 3c4 1 7 3 11 6l6 5c3-3 8-15 8-18l1-5 10-1 17-5c4-2 7-3 9-2l10-3 6-4 4 3 9 16 5 12 6 1c7 2 7 3 6 24 0 17 0 17 2 21 4 6 6 13 6 21v8l11 10 12 11h5c6 0 13-3 22-10 7-6 10-6 11-1l-1 8v5h10c11 0 21 3 28 9 4 3 5 5 6 10v27c-3 9-2 15 1 19l5 8c0 3 1 5 2 5 3 0 9-6 12-12l3-6h27l4 4 5 3h10c8-1 12-1 16-3l9-2c4 0 5 0 6 3l6 6c7 5 12 10 14 17 1 4 2 6 5 8 7 4 7 4 7-1l1-5h5c2 1 5 2 7 5l4 5-9 8-10 7v10c-1 9-1 11-5 18l-4 8c5 3 8 4 13 4h5l1 6c1 4 2 7 5 9l4 8v4h-6c-5 1-5 1-6 4s-2 4-7 6c-5 3-5 3-5 7 0 3 1 5 3 8 3 3 3 3 2 4-4 3-4 3-2 6 1 3 2 3 8 3 6 1 8 1 10 4 3 2 3 2 9 1 10-2 18-1 22 2 7 4 17 7 27 8h10l6-4 22-10 12-6 8-4c4 0 4-1 5-4l2-8 3-7c2-3 2-4 1-10-1-8 0-10 8-15 5-3 6-4 8-9 1-4 2-5 7-7 4-2 5-4 7-7l3-5 4 3c4 4 5 4 11 4h6l-3 6-4 7 2 4 2 5c0 1-2 2-5 2l-4 1v6l-2 12-2 13v8l-5 6c-4 4-4 6-4 9s1 4 7 6c10 2 13 6 13 15 0 11-1 13-6 15-5 3-5 5 1 11 4 4 4 5 5 10 0 5 0 6-2 7l-2 6v3h9c7 1 10 1 15-1l7-2 5 4 10 5 10 4 8 3c3 1 4 2 6 7l4 8c1 3 2 3 4 3 3 0 4 0 5 5l3 6 7 1c7 1 8 1 13-1l7-2 12 15-3 3c-2 2-2 4 0 10 0 3 8 3 13 1l4-2 6 4 10 5c4 2 4 3 4 7 0 5 3 18 5 20l1 6c-1 4-1 5 1 7 4 2 10 1 19-3l10-4c1 0 3 2 4 5 2 3 4 4 5 4 3 0 3-1 4-7l5-14c1-1 14 6 16 8 2 3 3 3 7 3h5l1-4 1-6 5-1c3 0 4 0 5 4 1 3 2 3 5 3 4 0 5-1 8-5 4-4 4-5 5-16 2-14 6-23 10-24 2 0 1-1-5-6-7-6-6-5-4-14 2-8-1-12-8-12-1 0-2-1-3-6-1-4-3-8-5-9-2-2-4-6-4-9l-3-7-5 2-5 2v-23c1-6 2-8 4-9l2-3-5-4-6-4 1-4c1-7 6-17 10-21l9-5 7-5c1-4 1-4-1-9-3-6-2-9 3-12l4-2v-7c0-7 0-8 3-11l5-8c1-4 4-7 11-13 11-9 12-10 12-16 1-4 2-5 5-8 6-5 9-4 11 3 2 6 3 8 8 6 3 0 4-1 5-5 0-4 1-4 3-5 3 0 3 0 4 7 1 6 2 9 4 11l2 3 4-6 3-5-2-4-2-4 3-1c5-1 5-1 7-5 4-5 4-6 0-9l-3-6c0-3 1-4 5-6s6-4 7-7l2-4h13l4-12 3-11h6l11 1c6 0 6 0 9-3 2-3 2-3 1-9-1-5-2-5-8-9l-7-4 1-4c0-3 2-10 5-16l5-12-6-3c-5-2-5-2-7-10l-2-7-6-2c-10-1-14-1-18 1l-3 2-6-6-6-6 1-5 1-5-3-1-3-1c0-4 3-7 11-12 6-5 9-7 11-12l4-5c-1-1-12-4-17-4-3-1-5-1-6 1l-3 2v-7c-1-6-2-8-8-18s-7-11-13-14c-6-2-7-3-12-2h-5l-2-5c-1-3-3-5-4-5-14-3-24-5-25-4-2 0-3-1-4-3l-2-3-4 3-4 3-6-2c-5-2-6-2-7 0-2 2-2 2-7-1l-6-3-4 4c-3 4-6 5-9 6-5 1-5 1-7-2-1-2-1-3 1-7l1-5-3-5-9-10c-5-5-5-5-5-11l2-10c1-5 1-5 6-5 6-1 6-1 7-9l1-4h8l1-5c0-4 1-5 4-7l4-2-2-5c-1-4-2-4-5-4-2 1-3 1-4-1l1-3c10-6 11-7 12-14 1-6 1-6-1-10l-3-3 2-3 6-5c3-2 3-2 4-8v-6l5-1c5-1 5-3 1-6-3-3-3-9 0-13l2-7v-3h-7l-7-1-4-6c-4-6-4-6-15-3-8 3-10 2-16-3l-7-4c-6-1-15-6-15-8 0-3-7-23-10-26-4-5-8-6-15-2-10 5-16 6-25 6h-9l-3 4-4 4-6-2c-5-3-5-3-9-1-4 1-8 1-10-1l2-8 3-8-3-1-13-2c-12-1-13-2-13-11 0-5 0-5-7-12-6-6-6-7-6-12l3-11 2-7-2-4c-2-4-4-6-10-11l-8-5-1 3-2 8c-1 6-4 10-15 19-7 7-7 7-11 6-3-1-5-2-6-5l-2-3-11 3c-9 4-10 4-13 2s-6-5-6-8l3-3 3-2 4 3 5 2 2-20c0-6-2-10-7-10l-5-1h-3z"/>
</svg>
