<svg xmlns="http://www.w3.org/2000/svg" viewBox="0 0 1024 1024">
  <path d="M614 162l-21 19-14 2-14 3-25 17-25 16-13-2c-15-4-15-4-21-1l-5 2-1 15c-1 23 0 21-11 24l-10 3-19-8-22-10-4-1-10 9-9 10-13 5-14 6-2 4-2 4 3 1 3 1-4 6c-5 5-5 5-6 14l1 16c2 5 2 6 1 7-10 3-10 3-14 1l-3-2-3 3c-3 3-3 3-5-2-2-4-2-4-12-6l-11-3c-2 0-2 0-2 11l2 28v17h-2l-14 2c-12 1-11 1-12 8l-3 5c-4 2-11-1-25-13-12-10-13-11-18-12-18-3-17-3-17-6 0-2 1-3 3-3l3-1-10-12-1 5c-1 4-1 4-6 6l-7 1-4 6c-2 5-3 6-10 10-8 5-8 5-9 9v4l-6 2-7 2 3 7 3 11c0 4 0 4 5 8l5 4-2 15-2 13-6 1-8-1c-3-2-5-2-10-2h-6l-1 6-1 5 7 7 7 7-5 9-5 9 3 6c3 5 3 8 1 8l-2-4c-2-3-3-3-6-2-2 1-3 2-3 5-1 4-2 5-5 3-2-1-6 5-7 12v5l-4 1c-6 1-7 2-7 6l-1 3-6 4c-5 5-5 5-11 5l-25 2-18 2-7 7-7 6-10 2c-8 1-9 2-10 4 0 1 1 2 8 5l8 4v9l-1 9 4 2 4 2v8c0 8 0 8-3 11-4 3-4 4-4 15l-2 12-4 3c-2 0-4 2-6 5l-8 8-9 9-3 4 3 12 3 12-2 2-2 6-3 9c-2 6-2 7-2 14 1 8 1 9-2 11-3 3-3 4 5 20l8 14h12c7 0 10 1 17 3s8 2 8 5l-2 3-2 1 7 8c4 5 7 8 9 8 1 0 6 6 6 8l-2 5c-2 4-2 4 0 5l2 5c0 2 1 3 2 3l10 3 9 3v6l-1 6h4l6 4c1 3 2 3 4 2l9-1c5 0 6 0 7-3l1-2 6 3-2 4-1 4 12 5 11 5 3-2c4-3 5-4 6-13l2-8h5l5-1 3-5c3-4 3-4 8-3l5 1 10-5 10-4 8 1 7 1 4-3c2-3 4-4 10-5 7-2 7-2 10 0 4 2 5 2 13 1 8 0 9 0 19 3l10 3 3-3c4-3 6-2 9 3 2 5 3 5 6 5s4 0 4 3l1 7c0 2 0 3 3 3s4 1 11 14 19 29 22 29l5-4c4-3 5-4 5-7 0-2-1-3-4-6l-4-2 1-6c0-5 0-5-2-8-3-3-3-3-2-8l4-8c3-3 3-3 2-7l-1-10v-6c-1-1-3-5-3-10-2-8-2-8 0-13 2-6 2-7-3-13-2-2-2-4-1-8 0-4 1-5 4-7 4-3 3-4-4-5l-6-1-3-14-2-14 6-24 6-25h19l20 2c2 2 10 2 61 1 60-1 59-1 60-4l7-2c7 0 7 0 11 3l4 2h31c29-1 31-1 32 1l3 3c1 2 1 2 5-1s4-3 10-2c5 0 9 2 15 5l8 4 3-4 11-8c8-4 8-4 8-9l2-5c2-2 2-2 7 1l4 3 6-6 7-6 46 10 47 11 1 5 2 6 10-5 10-6h17l17 1 6-6 7-6 5 2 7 3 1-3c-2-10-2-10 2-12l5-3c2 0 2-1 2-3 0-3 0-4-3-5l-2-1 2-3c2-2 3-2 8-1 8 2 8 1 9-4l2-4 2 3 3 4 2-8c-1-3-1-4 5-10 5-7 6-7 12-8l7-1 8 7 7 6 6-1 17-3c10-1 12-1 13 1l8 1h6l19-16c21-17 21-17 21-26 0-2 1-3 4-4 4-1 4-1 4-5l2-8 1-4-19-29c-19-27-20-31-18-35l11-2 10-2-2-4c-3-4-3-5-3-12v-8h-4l-5-1-3-7-3-6-8-3c-9-2-6-3-20 9l-8 8-15-1-16-1-30-25-28-25-5 1c-4 1-4 1-7-2-6-7-6-6-4-24l1-18c1-2 2-1 9 3l9 5 5-3c4-3 4-3 8-1 4 1 5 1 7-4l2-3-17-6-18-5-2-8-1-7-15-6c-14-7-14-7-22-7s-8 0-8-3c0-2-9-16-20-29-4-6-6-9-9-19l-4-12 3-4c2-5 2-5 1-9s-2-4-10-9l-9-5-6-10-5-10 5-14 5-13-2-8-2-8 2-4 2-4-30-10-29-11-7 4c-7 3-7 3-12 2a1898 1898 0 01-39-5c-3-1-5 0-25 17z"/>
</svg>
