<svg xmlns="http://www.w3.org/2000/svg" viewBox="0 0 1024 1024">
  <path d="M69 178c0 6 0 6-6 14-5 6-8 9-14 13-7 5-8 5-14 5h-6l-5 15-8 25-3 12 5 12 4 13 6 4 6 4 2 18 1 17 5 6c4 5 5 6 10 7 5 0 5 1 15 12 9 10 11 12 11 16 1 4 3 7 10 16 8 11 9 12 11 11 3-1 13 3 14 5 2 4 1 9-1 13-1 2-3 3-10 6l-9 2-2 6-2 6-6 1c-8 2-15 8-17 14-1 3-3 7-6 10l-4 6H31c-2-1-3 0-6 7-4 8-4 8-3 14 1 4 1 7-3 28l-4 23 7 7 7 7-1 10v10l-8 5c-7 4-7 4-9 10l-1 6-3-1c-6-2-7-1-7 4 0 4 0 5 8 13s10 11 13 19l5 11a419 419 0 0053 22l2 14c0 14 0 14 5 24l8 12c2 2 4 4 6 11l3 10-8 7-8 8 1 10c0 10 0 11-2 16-2 6-2 6-1 11 3 6 2 7 0 17l-3 10 15 4 16 3c2 0 3-1 5-6 3-6 4-7 7-8 5-1 6-1 9 3l5 4 14-4 14-4h25l27-1 10-5a51 51 0 0013-8l3 6 2 7 6 1c5 1 6 1 12-2 6-2 7-3 6-4l-2-7-1-4 4-3 5-3 4 2c4 2 4 2 11-1l7-2 4 4 5 5 4-1c4-1 5-1 10 1l6 3 6-4c5-4 7-4 11-4l5 1 2 12 3 14c0 2 1 2 8 3 8 1 9 2 15 9 3 4 7 3 11-3 3-4 5-5 10-6l6-2 5 5c5 4 8 6 17 10l12 4 3 6 8 11 5 5h17c19 0 25-1 38-8l9-5h9c6 1 13 1 24-1 20-3 19-3 19 2v4l20-5 20-6 1-6 5-11 2-4-3-7c-3-7-3-8-3-20 1-16 0-17-5-19-4-2-4-3-4-6l1-5 13-5 12-4 10 5 11 4 1-2 3-7 2-6 12-3 10-2 4-8c2-7 3-9 3-15v-8l6-4 6-4 7 3 7 2 6-4 5-4 9 3 11 2 16-12 16-13 17-1c19-2 20-2 23 6l8 14c6 8 6 9 13 11l14 7 8 4 1-3c0-3 1-3 12-7l11-5 7 3 7 2 4-4 4-4 6 2c4 2 5 2 10 0l6-3-4-7c-9-10-12-15-12-19 0-3-1-4-6-9l-6-8-6-5c-4-2-7-5-7-6l-5-3c-4-1-4-1-2-3 0-2 2-3 3-3l1-2 3-5 3-3-2-3-1-4-4 2c-4 1-3 2-5-7-2-10-2-10-5-10-5 0-10-2-11-5l-6-2-5-1c-1-1-2 0-4 1l-2 2-4-2c-4-2-5-2-10 0-6 2-6 2-6 0s3-5 6-6l2-1-7-4-7-4h4l8 1c8 4 8 4 11-3l4-7 4 1c4 1 4 1 7-1l2-4c0-2 1-3 3-3 3 0 4-2 4-6 0-6 2-9 5-9 6 0 8-1 10-5l1-4h9l13 2h6v-12l-2-17c-2-4-2-5 0-9l1-19c-1-14-1-16 1-22l2-8 2-4 8-17c1-3 1-3-4-5-4-2-7-3-13-3l-12-1-6-1 10-1h13c7 2 14 1 18-1 3-2 4-4 7-12l4-13c1-3 2-4 6-7l7-6c1-2 2-2 7-2l11-2c8-2 10-2 14 0l8 3 10 3 4 3 1-4 7-10 8-13c4-6 4-8 4-16l-1-12-2-15-1-12-42-8-41-7-10-7c-10-8-10-8-15-23-5-12-5-12-23-12h-13l-6-7-6-8h-41l-5-7c-10-12-24-17-47-17-8 0-10 0-19 4a240 240 0 01-82 18l-7-1-9 3-18 6-10 3-3 6-2 5-10 3c-9 2-11 3-14 6-4 3-4 4-4 9 0 8-3 12-10 15-5 3-6 4-11 11-4 8-5 9-10 10-7 3-24 5-33 5-6 0-7 0-14 4l-7 4-6-1c-4-1-10-2-15-5-13-7-18-9-31-9-10-1-14-2-19-4-8-3-12-4-22-1-10 2-18 1-24-4l-12-8c-8-5-8-5-16-5h-8l-3 5c-3 4-5 5-11 8s-9 4-18 5l-11 1-8-4c-9-6-26-12-36-13-5-1-9-3-16-7l-15-8c-7-1-7-1-11 2l-4 2-14-7-13-8-13-1-35 1c-23 1-23 1-32-2-8-2-11-4-16-7l-5-4 3-7c2-5 3-8 3-13 0-6 0-6 3-6l11-4c7-2 10-3 13-6l3-4-2-5-1-5h-8c-7 0-7 0-11-3-3-3-8-5-14-7-9-3-11-4-17-9l-7-6-1 6z"/>
</svg>
