<svg xmlns="http://www.w3.org/2000/svg" viewBox="0 0 1024 1024">
  <path d="M632 1l-2 2 3 3 2 5-5 4-8 4c-3 0-4 1-7 4-4 5-4 5-11 5-6 0-6 1-7 3l-1 2-18-11-5-8-4-6-3 4c-2 3-3 4-2 6 1 3 6 6 8 6 3 0 11 7 17 14l5 6-3 7-3 7 3 4c3 5 3 5 2 10v6c6 2 9 5 10 9 3 8 6 11 12 11 5 0 5 0 9-6s11-14 13-14c1 0 5 4 6 7 1 2 1 4-1 6-1 4 0 10 2 9l3-1c2 0 4 4 4 8 0 3 4 8 6 8l1-3c-1-3 0-3 2-5 4-2 6-5 3-6-2-2-3-2-4-1-2 2-4 2-5 0s0-2 7-4l9-2 2 2 5 5c4 2 4 2 2 2-2 1-4 5-4 8l3 1c3 0 7 4 7 8 0 2 0 2 7 0 3 0 3 0 4 2v9l-3-1c-2-2-5-2-5 0l3 3c3 3 4 3 8 2l4-1v-7l-1-13-1-10c1-4 1-6-2-15l-5-12 2-6c3-4 3-4 2-9l-3-10c0-4-1-6-3-7l-2-4c0-2 2-2 4 0 2 1 3 2 4 1 2-2 1-4-1-7s-3-3-9-3-9-1-15-3c-5-2-10-4-11-3-1 0-2 0-2-3l-1-6c-1-2-1-2 2-3s4-3 4-6-2-3-5-1l-7 4c-3 1-5 1-9-1-5-2-6-3-7-6-1-4-2-5-5-3z"/>
  <path d="M568 96l-15 9-16 8-9 4c-8 3-21 3-32 1-6-1-6-1-6-4s-1-4-3-4-4-4-4-8c1-2 0-2-4-4l-9-2c-3 0-4 0-8 5-3 2-6 6-9 7s-4 3-4 5c-1 4-2 4-8 3-7-3-21-4-27-4l-12 3h-16a284 284 0 00-44 6c-5 2-12 9-12 11l-2 5-3 3-3 4c-2 2-3 3-7 3-7 0-9 1-10 7-1 4-2 7-1 11 0 5 1 6 3 8l5 5 4 4 3 1v12c2 23 1 27-2 32l-5 8c-3 3-3 4-3 11 1 6 1 8-1 11-3 4-2 7 5 29l5 20c0 3-1 3-6 6s-6 3-6 5l1 4c0 2 0 2 3 0 5-3 10-3 13 1 2 2 3 4 3 9l5 12 4 9c0 3 1 5 3 5 1-1 1 0 1 1l-1 2c-2 2-1 4 3 5l4 2v5l-1 6h4c4 1 4 1 4 5s2 6 6 6c3 0 3 0 3 4l2 7c2 3 3 4 2 9l2 9 1 8v12l-1 16c-1 9 0 14 3 21 2 3 2 4 2 11-1 7-1 9 2 15l2 10c0 5-4 14-7 18-5 5-10 13-11 18-4 9-7 17-9 17s-2 2 1 4c2 1 3 2 3 4-3 19-2 17-18 38-10 14-11 16-11 21-1 6-3 9-6 7h-2c-1 1 0 2 1 2 2 1 2 2 2 6l2 13c1 11 1 11-1 11s-2 0 0 2 3 3 3 6l4 12 7 15c1 5 3 8 10 16 11 12 18 17 24 19 4 0 5 1 11 9l11 12c5 5 19 23 30 39 10 16 9 15 10 13v-3l-4-10c-4-9-4-11 1-9 4 1 6 8 11 26 3 11 4 12 20 39l22 41 6 13 1 20 1 20 6 17c6 15 8 20 10 31 1 3 14 26 14 24l-2-9c-3-13-3-14 6-26l22-26 32-35 18-20-2-5c-3-6-4-17-3-31v-14c-1-5 0-7 1-12 3-7 3-7 0-12l-3-4 6-19c6-18 6-19 7-32 0-13 0-14 5-28l5-16-2-9c-1-5-2-7 0-23a644 644 0 003-53c0-3 1-4 3-4l2-1 2-12 1-18c0-8 8-40 11-41 2 0 2-2 2-14l1-16c1-2 1-3-1-5l-3-2 9-9 8-9-11-8-10-8v-8c1-7 1-8-2-12-2-3-2-6-2-11v-8l5-5c5-4 6-5 5-9 0-3-1-5-7-9l-6-6v-6c0-5 0-6 2-7 5-3 5-3 2-14l-3-11 5-10 5-9 6 3 7 3-4-5c-5-6-5-11-2-17l3-3-3-4c-15-18-15-18-15-24l-4-10c-3-4-3-4 0-6 2-1 3 1 13 20 11 21 12 22 11 25v13c-3 2 0 2 8 2 8 1 9 0 9-1l-2-3c-2-1-1-3 1-4l2-1-2-1-3-3-1-2c-1-1-1-1 1-2 1 0 2-1 2-3s0-2-2-2c-5 2-7 2-7 1l-1-2c0-2 0-2 3-2h2l-2-2c-2-1-2-3-3-9l1-7c2 0 1-3-2-4-2-1-2-2-2-5 0-5 3-9 9-12l5-2 3 2 2 3 8-3c8-3 8-3 8-6l-4-7-1-6 9-4 12-4 13-1c7-1 9-2 11-4 3-3 2-4-3-1l-9 2c-4-1-5-1-5-3-1-2 0-3 4-7l7-3v-4c-1-2-2-3-3-2v2l-7 6-62 34-3-6-2-12c0-5 0-6 2-5l1 3 2 1 2-1c2 0 1-2-2-6-2-4-2-4-1-5s2-3 2-8c0-9-1-12-3-12l-1-2-2-3c-3-1-4-5-1-6v-1l-2-3-4-1h-4l5-4 4-4-1-5c0-4-1-5-4-5l-5-1c-2-1-10 0-16 3-5 2-12 9-17 16l-4 6 1 6c2 12 3 14 6 15s3 1 3 4c0 4-2 7-5 7l1 3 2 6h8l5 2c3 0 11 8 14 13l1 6c-2 1-8-1-9-3-1-3-8-6-15-6l-6-1-7-3h-5l-1 5-1 5-4-5c-3-6-4-8-1-11 4-5 3-6-12-19l-13-13c1-1-5-7-14-14-5-4-8-8-13-21-2-6-2-9 2-12l1-9-4 1c-3 2-4 2-2-4l1-4h6c6 1 7 1 12-1l6-3 10 5a637 637 0 0021 10c3 2 13 2 16 1l5-5c2-4 8-7 12-6h9l-1-3-3-5c0-3 0-3 3-2l5 2c2 2 7-2 11-8 1-3 1-4-1-7l-2-5c0-3-1-2-4 0-2 2-2 2-5 0l-4-2 2-4c2-5 2-6-1-6-2 0-3 1-3 2-1 3-5 3-8-1-2-3-3-3-6 0-3 2-4 2-4 1l-3-4-3-3 2-9c3-10 3-10-1-28 0-4-5-8-12-11s-7-3-10 0z"/>
</svg>
