<svg xmlns="http://www.w3.org/2000/svg" viewBox="0 0 1024 1024">
  <path d="M728 8l-4 10-8 8c-8 8-10 8-29 8-11-1-12-1-19-4l-8-4-4 2c-4 2-5 3-7 7-3 5-4 6-7 8-4 1-4 1-4 6 0 8 0 9-8 11l-12 3c-5 1-6 1-11-2l-11-7c-2-3-7-7-11-9-5-3-7-6-11-12-5-9-7-10-27-18l-10-5h-11v6c0 5 0 7-3 9l-2 3 4 8c5 11 8 27 8 38-1 8-1 9-5 11l-7 4c-3 1-4 2-6 8l-3 13-3 9c-2 2-2 3 0 6 2 4 2 6 2 30v26l-3 8c-3 7-4 8-9 11s-6 4-7 10l-3 7-7 2-9 3-5 2c-2 0-3 0-3 2s-1 2-4 2-4 0-5-3l-3-4c-3-2-12 0-15 3l-6 4c-4 1-4 1-4 5 0 5-2 7-8 8-8 3-11 3-16 0l-11-4-7-2-8 2c-6 2-10 3-16 3-13 0-20 2-24 5-7 7-13 9-20 4l-12-6c-9-4-14-4-28-1l-15 3-6 1-1 5c-1 4-2 5-4 5-3 0-6-6-6-14 0-5-1-9-3-13-2-6-3-13-1-18 3-6 2-6-2-9l-3-1 3-3 3-3-4-1c-6-3-8-8-8-18v-6l-3-1c-4 0-4-1-7-5l-8-9-4-3-8 2c-11 3-15 3-20 0-3-3-19-8-22-8l-5-3c-4-4-10-4-12-1s-8 3-11-1c-1-2-3-3-5-3-3-1-6 0-25 12l-3 5c-1 5-2 4 7 7l2 1-4 3-4 3v10l2 13c0 3-6 15-9 16l-1 5c1 4 1 5-1 6l-7 4-5 4v6c0 10 6 16 18 16 6 0 6 0 6 3l2 5 4 7c2 4 4 5 7 5s5 7 4 14l-1 9v4l9 2c8 1 8 2 9 5s1 3 5 3l8 2c4 2 4 3 4 7v9l-1 5h4c4-1 4-1 9 5 6 8 9 10 14 9 4 0 4 0 5 4l5 6c3 1 4 2 4 6l3 8v7l1 6c2 2 2 2-2 10l-9 14c-2 3-3 5-3 8l-2 9-1 5 3 3 3 3-2 5-3 5 3 9 2 9-2 2-3 6c-1 3-2 3-5 3-5 0-4-1-3 15 2 16 1 16 5 16l14 3 10 2 4-4 4-4h19l4 6c4 6 5 7 3 10v7c2 9 1 24-1 27s-2 6-2 21c1 16 1 18 3 25l3 8-2 8-3 15-3 15-5 9-4 9c-2 7-2 9-1 16 0 7 1 8 4 13l4 9 7 14c4 9 5 12 5 16s0 5 5 10c6 4 6 5 7 12 1 6 2 7 5 10 4 4 5 7 6 22v11l7 1 6 3-1 5c-1 3-1 4 2 11 2 4 5 10 8 12 3 4 4 7 5 12 1 7 2 7 6 11l9 7c6 6 7 13 7 27l-1 10 7 4 7 4 1 5c0 8 1 14 5 24l6 19 4 18 3 9 16 8 15 7 2 8 2 15c0 8 0 8 13 8 7 0 11 0 15 2 7 2 15 3 17 1l1-6c1-6 2-7 4-7l8-3 7-2 3-9 7-13 3-3 2 2 3 5c0 3 2 4 8 5s6 1 9-3l3-6c0-4 5-8 12-9 7 0 14-4 17-7l5-3 7-6c3-4 4-4 9-4l5-1 1-4c1-4 2-5 5-5s12-5 16-8l5-11c6-22 22-43 34-48 5-2 6-3 9-8s5-7 9-8c3-1 4-3 4-4l3-5c3-2 4-3 4-6l3-10c3-5 5-6 8-7s4-2 4-4l4-4c4-2 4-3 4-7l-1-4c-1 0-5-4-5-6l2-2c3-1 3-1 2-4l4-10 10-18 6-12 11-10c9-8 9-8 9-13 0-4 1-7 3-10l4-10 1-6 8-3 13-2c5 0 6 0 10 3 4 4 4 4 7 2l2-1v-11c-1-10-2-13-6-17-3-4-3-10 0-12 2-1 3-2 3-6l4-9 2-8c0-1 1-3 4-5 5-2 6-4 6-9l4-6 4-4v-8l-1-9 6-6 7-8c1-2 2-2 7 0 9 1 9 1 10-3l6-9c4-4 5-5 14-7s9-2 12-7l3-5h12l7-8c11-12 14-18 17-25l2-8-13-6c-1 0-3-3-3-6 0-2 1-3 4-5s4-3 5-8l3-9c2-3 2-3 11-4 8-1 10-2 13-5s4-4 5-9c0-4 1-5 3-7l4-1 3 5c3 6 3 6 7 6s5-1 9-4 6-4 12-5l9-3c2-1 2-2 0-8-2-8-1-13 3-14s5-3 5-16c0-7 0-8-3-13s-4-6-4-13c0-13 0-13-4-17-5-5-10-12-10-15 0-2 2-5 6-9l7-8 4-6c5-6 10-15 8-14l-11 2c-6 0-10 1-13 3-10 4-33 3-42-4-3-2-4-2-8-1-4 0-4 1-6 4-1 3-2 3-5 2-2 0-8-5-8-7l-4-10c-3-8-4-8-8-10-9-5-15-9-18-14s-3-5-7-4l-7 3c-2 3-3 4-3 7v5l-6 1-10 7c-7 6-10 6-14-1-5-9-12-16-14-16s-3-1-4-3l-5-8c-4-3-5-4-8-4h-3l-2-7-3-6 5-3c3-3 4-4 4-7s1-5 5-8c7-7 8-11 5-21l-2-8 4-4 5-5c2-1 2-2 1-4v-4h6c8-1 11-3 14-8 2-4 3-4 8-4s5 0 6-3l-1-9-2-5-7 1-7 3c-1 3-4 5-6 5l-6 3c-4 2-4 2-5 1-1-2-2-2-6-2h-5l-2-6c-3-7-3-9 2-15l6-12 6-12c5-7 5-7 4-16l-2-6 5-3c6-4 15-20 16-29 1-6 1-7 4-10 6-4 8-9 8-16 0-6-1-8-8-13l-13-11c-9-8-9-9-10-14 0-8-1-11-4-12-2 0-3 0-4 2-4 3-9 3-19-3l-8-5-4 8z"/>
</svg>
