<svg xmlns="http://www.w3.org/2000/svg" viewBox="0 0 1024 1024">
  <path d="M591 1l-7 4c-2 2-3 2-4 1-2-1-2 0-6 4-3 4-4 5-6 4l-4 1h-5c-3-1-4-1-6 1s-2 2-6 1-5-1-7 1l-10 3c-9 2-8 0-3 21 3 14 4 16 7 16l3 4c1 5 1 6-2 10-2 2-3 3-6 3h-4l1 5c0 5 0 6-2 7-1 1-2 2-2 6-1 3-2 5-6 9s-5 4-5 10l-1 8-6 4c-7 3-15 10-30 24-12 11-12 11-17 11l-9-1h-14l-17 2-11 2-9 3c-3 0-4-1-6-5-4-5-6-6-16-6-7 0-9 0-12 2-3 3-4 4-4 6 0 3-1 4-3 5-4 3-6 6-5 10 2 3 1 4-2 3h-6c-3 0-3 0-3 4 1 3 1 4-1 4-2 1-5 0-7-1-4-1-14-2-14 0l1 1 2 8v7l-2-1c-2-2-2-2-5 1l-5 3-2 1 2 8 4 7c0 2-11-1-16-4l-6-3-1 2v10c2 3 1 3-3 1l-4-1-2 6-2 9-1 12-2 9-7 8-8 8 1 13-1 16c-2 1-2 4-2 14v12l48 32 49 31v32l1 32-3 5-2 5 2 6 4 5c1 0 2 2 4 12l3 14c13 16 17 19 20 21l8 6c4 3 4 4 4 8l2 18 1 43v32l3 6 3 5-2 3c-2 2-3 5-3 7l-1 5c-2 2-2 3 0 6 2 2 2 7 3 58a4245 4245 0 012 141l1 29-8-1-8 1 3 7c1 4 3 7 5 9 3 2 3 3 2 11 0 10-1 16-5 21-2 3-2 4 0 5l1 5c0 3 4 7 10 10s7 6 6 12v6h4c4 0 5 0 8 4 4 4 5 6 6 19v8l-3 1-13 3c-9 1-10 1-10 4s2 3 7 2c6-2 25-5 35-5l36-6a247 247 0 0161-7l12-1 17-3 13-2v-8l4-17c2-9 2-9 1-12-3-4-1-9 3-12s4-4 4-8-1-5-3-5c-1 0-3-1-4-4-2-4-2-5 0-10l1-9c0-4-1-5-3-8l-3-3 2-4c1-3 2-5 7-7l5-4-3-1-4-6c-2-3-2-4 1-7l2-3-2-10c-2-12-2-13-2-27v-11l3 1h4l1-6c0-6 0-6-2-8-11-7-12-11-12-34v-17l-4-3-5-6-2-3 4-4 3-7c0-7 3-29 5-33 3-5 2-9-1-16l-4-10c-2-5-2-6 0-9l2-6 2-4c3-3 4-9 4-14l-2-21-2-20c-1-2-1-3 1-5l3-4 2-9c1-5 1-5-1-7-1-1-2-2-1-3l4-19 1-3h7c6 1 6 1 8-1 4-3 13-3 15 0l2 2 9-4 9-3 4-12c2-6 4-14 6-16l2-5-2-12c-3-14-2-18 3-21 4-1 12-14 13-19 0-5 3-8 6-6 2 1 3 1 7-3l5-5-4-6-3-6 1-5 2-5 12-3 11-4 4 2c4 2 5 2 8-4l6-7c3-2 3-3 4-12 1-12 2-14 6-15 2 0 3-1 3-4 2-8 1-10-3-15-3-2-6-7-8-10l-3-7 3-7 4-12c0-3 0-3 5-5l6-2 8 4 7 4 4-12 2-10 3-17v-12h-8l-4-9c-4-8-4-9-3-11 4-6 2-23-3-27-2-3-2-3-1-10l1-8c1-1-1-2-4-3s-6-3-20-22l-19-26-2-4 2-9 2-9c-1-1 1-1 3-2 3-1 4-2 5-6l4-11 2-6-2-3c-2-1-3-4-3-6 0-3-1-4-3-4s-2-1-2-3c0-1-1-3-5-6l-8-5-6-4c-4-3-4-3-9-3h-9c-2-1-3-2-7-11l-5-13c0-3-10-11-14-11-2 0-3-1-4-3s-3-4-6-5c-4-3-5-4-9-11-4-8-4-8-9-9-3 0-5-1-7-4-4-6-13-14-16-14l-6 1z"/>
</svg>
