<svg xmlns="http://www.w3.org/2000/svg" viewBox="0 0 1024 1024">
  <path d="M116 221c-3 1-9 3-14 3-8 2-9 2-13 5l-9 6c-6 3-6 3-5 7 0 2 1 2 12 2 13 0 17 1 21 4 1 2 4 3 5 3 1 1 2 2 3 7 1 9 1 12-1 15l-3 9c-1 5-2 6-5 9-4 3-4 3-18 3-10 0-15 1-18 2l-12 3c-7 0-8 0-9 3l3 6c2 2 3 3 4 2h11c7 0 9 1 14 3 4 2 5 3 7 8l3 13 4 16 4 9 5 1 12 3c9 2 9 2 10 6 2 3 2 4 1 7-2 3-2 3 1 7 3 3 4 4 7 4s3 1 6 5l4 6c0 1 2 3 5 4 10 5 16 9 18 14l7 12 5 7h9c11 1 21-1 25-5 4-2 4-2 12-1 9 1 9 1 13 6 4 4 4 4 5 11v9l11 6c22 10 22 10 25 17 4 7 4 13 1 13l-2 4c-1 3-4 4-4 1 0-1-1-2-3-2s-3 1-3 3c-1 2 0 3 2 4s3 3 5 8c3 6 4 7 9 10 3 2 10 7 14 12 9 8 9 9 10 15s2 6 5 9l8 8 3 6-2 4c-1 4-2 5-7 7l-5 2-4-5-7-10c-4-5-4-6-3-9 1-5 0-7-6-12-4-3-5-3-11-3-5 0-7 0-10 3-7 4-9 14-7 25a106 106 0 0030 36l5 6h14c15 0 17 1 22 7 3 3 3 4 2 8l-2 6c-2 3-1 4 3 11l4 8c1 3 7 9 11 11 3 0 4 2 7 9 4 11 11 18 18 21 4 1 7 3 14 9 9 8 9 8 12 18 3 8 4 10 7 12l10 8 8 8 3 10 2 16c0 8 2 13 6 15l5 2 9 4c3 0 6 2 10 5s5 4 11 4l7 1 1-4 1-8c0-4 3-11 6-18 1-3 3-5 5-6 4-1 4-1 6-10 1-6 3-12 7-20 2-5 2-5 3-3 2 1 2 1 2-1 1-2 1-10-1-16 0-2 0-3 3-4l14-8 11-7 4 3c3 2 4 3 5 6 0 3 1 3 6 5l5 2 5 11c6 15 9 19 14 20 3 0 4 1 4 2l1 13 1 11h4l6 1c4 0 4 0 8-9l4-9v-14c-1-19-1-19 6-19l5 1 5 6 5 6h14l-2-4c-4-7-3-24 0-40 4-15 4-16 14-21l15-8 8-5h9c16 1 24 5 26 12 1 6 8 18 9 18l6-2c4-1 6-3 6-4 1-3 4-4 8-4 3 0 5 9 6 22l2 14 4-1c3-1 3 0 13 9l12 15 3 5 5-5c3-4 5-5 7-5s4-1 7-4c4-3 4-3 9-3l5 1 1-5v-7c-1-2 0-6 2-6 1 0 2-1 3-5s1-5-2-10l-3-10-2-8a90 90 0 01-3-32l2-9 1-11 1-9 12-10c19-15 30-20 47-20h10l6-5 12-6 5-1 4-9 5-13c1-3 10-10 16-13l7-2c4 0 5 0 7-4l9-5c9-2 10-1 13 4 2 3 4 4 8 5 5 2 13 10 13 16 1 6 5 9 17 15l8 4 3-5c3-7 5-13 5-18 0-6-14-46-18-54-4-7-4-15-1-16 2 0 4-1 5-3l4-3c3 0 8-8 9-14l3-9c1-5 1-5-1-11l-7-9c-4-3-5-5-6-8l-1-5 4-5c5-4 5-5 5-10s-1-7-4-12l-5-11c-1-6-1-6-5-6-3 0-3 0-3 5s0 5-5 9l-9 10c-3 5-4 6-10 9a76 76 0 01-15 6l2 3 2 11 1 8-9-1-15-2-7-1-3-7c-2-6-2-8-1-14s1-7-1-12c-2-4-3-9-3-13-1-5-2-7-6-14-5-8-6-8-11-9h-7c-7 2-8 2-13-6l-8-12-7-11c-4-8-4-15 0-27l3-8 15-1c14 0 15 0 16-2 2-3 0-7-9-15l-9-8-5 2-11 8c-8 6-8 7-8 32 1 19 1 19 4 25l8 12 10 13c6 7 6 7 6 14 0 5-1 8-3 13-2 6-3 6-9 9-8 3-10 2-22-3l-9-3-2-6c-2-5-3-8-3-15l1-10 6-3c6-3 6-3 4-10 0-2-4-2-11-1-3 0-4 1-4 2 0 3-4 4-11 4-5 0-6 0-12 4-9 7-13 12-13 17-2 12-2 11-6 11l-21-4c-1-1-3-7-3-11 0-2 1-3 3-5s3-3 3-6 0-4 3-4l9-7 6-7-4-4-8-7-4-2-1-8v-10c-1-2-1-2-5-2h-5v5l-1 6-4 2c-3 0-7 2-10 4l-4 3-8-3-11-4-10-3c-4-1-5-2-7-5l-1-9c0-4 0-5-3-7l-4-3-4-2c-2 0-3 1-6 4-3 5-12 12-18 14l-3 1v6l3 12 4 11 2 6-4 7-6 8c-4 3-11 14-12 19 0 2-2 3-5 5l-5 5-3 12c-1 10-2 11-5 15-3 3-6 4-11 6l-11 5c-5 2-6 2-13 2l-19-2c-9 0-11-1-15-3-6-4-7-7-2-11 2-2 2-3 1-6l-2-6h-8l-11 2c-6 0-6 0-10 6-4 5-8 7-11 5h-4l-4 9-3 9-7 3-10 3c-2 1-3 2-4 5-2 4-2 5 0 10 2 4 4 6 7 8l5 3-3 4-10 9c-5 5-6 5-10 5l-6 1c-2 0-2 0-2-2 0-4-5-5-11-2l-5 2-11-5-19-7c-7-2-8-3-10-7l-7-11c-4-7-5-8-4-12 0-3 0-4 6-5 4-2 5-3 7-6v-6l-2-10-2-11c-1-4-1-4-5-4l-10 3c-4 4-5 4-10 3-4-1-6-2-9-5l-5-5c0-2-2-5-5-8-5-6-12-18-12-21l1-5c2-3 2-3 7-3 4 0 5 0 6-3v-7l-1-10-1-4-6-2-7-2-4 2-12 2c-8 0-9 0-15-3-4-1-7-4-8-5-2-2-6-19-6-27 0-7 0-7-5-10l-5-4a421 421 0 00-43 8l-3 6c-1 5-2 5-9 8-13 6-14 6-32 6l-21-2c-3 0-4-1-5-10 0-6 0-6-5-9l-6-3c-4 0-7 3-7 6 0 5-2 9-4 9l-9 4-7 3-3-3-8-13c-6-10-6-10-6-17v-8l-11-4-12-5c-2-2-1-3 3-3s4 0 7-7l3-9c0-6-12-23-16-23l-6 3z"/>
  <path d="M18 304c-2 2-2 2-1 5 2 5 11 9 15 9l3-1v-6c0-4-1-6-2-7-3-3-12-3-15 0z"/>
  <path d="M0 312c0 4 0 4 3 4 3-1 4-1 4-5v-4H4c-4 0-4 0-4 5z"/>
</svg>
