<svg xmlns="http://www.w3.org/2000/svg" viewBox="0 0 1024 1024">
  <path d="M898 146l-9 1c-2 0-4 1-5 3l-7 5c-5 3-14 12-18 21-4 7-9 11-21 16l-11 8c-3 4-8 8-12 10l-14 9-12 9c-5 2-9 6-14 11-7 8-9 9-18 13l-10 4-4 8-11 14-8 14c-4 12-5 13-2 19l3 4-4 1c-3 1-4 2-9 7-10 14-13 19-13 21s-2 4-7 9c-11 9-19 13-29 16-5 1-13 3-16 5-8 3-9 4-9 14 0 4-1 6-4 12l-7 14-7 13c-3 3-4 6-5 10v5l4 1 7 1 3 1-8 11c-7 10-7 10-8 17v8l4-2 7-3 11-6 9-4 5-8c5-9 9-21 11-37 1-5 1-7 6-12l7-6 18-2 18-2 5-6 6-6 14-1h14l7 3 7 3 2 7c5 16 5 15 1 22l-4 6h8c7 0 11-1 20-4 1 0 4 9 4 16v6l-10 3c-9 3-9 3-16 11-6 7-8 8-14 12l-16 5-8 2-3 6-4 7 2 6 2 7-6 3c-5 2-7 2-12 1-7-1-10-3-16-10l-6-6h-11c-9 0-13 0-18 2l-6 2-9-1-16-5-13-3c-7 0-8 1-5 3 2 2 2 2 0 7-1 4-3 7-10 13l-13 10-12 6-12 8c-9 8-30 17-40 17-4 0-6 1-8 3-3 3-5 3-9 3l-8 2c-4 3-14 5-27 5l-19 2-16 2-13 3c-10 4-19 4-36 1l-17-2c-6 0-7 0-13-4l-9-7c-1-3-2-3-8-3l-10 2-14 4-9 2 1 3c0 3 0 3-3 3-2 1-3 1-3 8 0 6 0 7 2 8 2 2 2 2 5 1 5-1 5-1 6 3 1 3 1 4-1 9-1 5-1 5 1 7l2 2 4-3c3-1 6-4 7-7 3-5 3-5 8-5 11 0 15 0 20 3 5 2 5 2 3 3s-5 1-10-1l-6-2-6 2-6 2 4 2 6 2 2 4c0 3 2 6 3 8l3 3-3 1c-5 3-6 14-1 21 2 4 3 4 9 4h7l5-6 5-6 6 5c8 8 10 9 14 8 5-2 5-1 5 3 1 5 3 6 21 4 14-1 14-1 17-4 4-3 4-3 14-3 9 0 11 0 14-2l9-3 8-2c3 0 3 0 3 4v5h-4c-3 1-6 2-11 6l-12 9c-5 3-5 3-5 7 0 3-1 5-3 7-3 3-4 3-9 3l-12 2-7 2-2-2c-2-4-11-7-16-6h-4v5a21 21 0 003 11l-5 3-11 7-9 6c-4 1-5 2-5 5-1 4-1 4-8 7l-9 6-14 7-13 7-11 4c-10 3-27 12-31 17l-3 4h-10c-8 0-10 0-17 3l-12 4c-5 2-6 3-6 16v9l4 4 4 3-5 3-10 7c-3 4-4 4-10 4l-6 1 1 4c1 3 1 4-3 8s-5 4-11 4l-18 4c-13 2-25 3-33 0h-11l-7 2-2-4-2-4 3-1 4-1-2-6c-1-4-2-5-5-6s-3-1-7 3l-4 4-3-1-5-4c0-2-2-3-4-3-2-1-3-1 0-9l1-12a640 640 0 01-5-35 150 150 0 0137 4c14 5 15 5 24 1l12-4 5-1-1-5c-1-8 0-8-11-8l-17-1c-6-2-7-2-10 1l-11 3c-8 0-9 0-20-4-9-4-12-5-17-5l-12-2-10-3c-4-2-7-3-13-8l-7-7h5c2 0 7-1 12-4l11-5c2-1 2-2 3-7v-5l-6-2c-6-3-6-3-5-5 4-5 9-22 10-27v-7l9-2 9-2 3-5 2-8 1-3c1-2 11-4 16-4s6-2 4-7c-1-3-2-4-6-5-5-1-5-1-6-5l1-7c2-4 2-5-1-12-5-10-5-10-17-7l-9 2v-4l-3-9-3-4 3-2c3-1 4-2 4-5s0-3-5-3l-7 2-8 3-4 2 1 5 2 7-4 6-4 4h-9l-15-2H19c-5 1-5 1-5 4l5 8c7 7 8 9 8 15 0 4 0 5 4 9l7 5c2 2 2 3 3 14 0 9 0 12-2 16l-1 4 3 3c3 3 3 4 3 10s0 7-4 12c-3 5-4 8-4 12-1 6-1 6 3 8s4 3-1 4l-6 1c-3 0-3 0-3-3 1-2 0-4-3-6-2-3-3-3-5-2-3 2-4 0-5-5 0-4 0-5 3-7s4-6 2-6l-8 2c-6 1-7 2-10 6l-3 5 2 6 3 10 5 12 5 12 5 11c2 5 3 8 3 16 1 9 2 11 3 13 1 1 3 4 3 7 3 10 8 23 12 28 3 5 9 11 27 27 30 25 30 25 56 30l18 3 12-7 11-6 7 3c5 2 9 3 20 4l19 2c7 2 17 1 19-1l1-5c0-2 1-1 2 3 3 5 3 5 7 5 3 0 4-1 6-5 3-6 9-8 23-10l12-2 3-5c2-4 3-4 8-4 6 0 6 0 10-5l11-8 8-7c1-3 5-5 19-13 15-8 33-20 43-29l13-5 16-7 13-5c10-3 22-9 29-15l13-7 9-6c2-3 11-14 17-18 4-3 6-7 13-18l11-17c4-5 17-14 23-18 4-3 5-4 6-7l2-4 3-4c3-6 6-8 10-8 3 0 7-3 15-13 2-4 4-5 6-5l7-3c2-2 7-5 11-6 6-4 7-4 8-8s1-4 5-5l6-3c2-2 2-2 0-5l-4-4c-2-2-1-3 3-4 5-2 6-2 5 0 0 1 4 6 6 6l5-3c3-3 4-4 4-7 0-4 1-5 6-10s7-6 11-7l10-5c4-3 7-4 11-5 6-1 15-6 19-9l5-6c7-10 11-13 16-13 10-2 14-4 22-11 6-6 7-7 8-12 2-9 3-11 9-15 3-3 8-5 10-6 4-1 5-2 6-5 3-5 10-10 19-13 4-1 8-4 11-6l33-20 7-4 5 3c2 1 4 2 5 1 4-2 11-8 12-10l4-7c4-3 6-4 13-6l11-4c3 0 5-2 9-5 4-5 5-5 10-6 6 0 15-4 15-6l-4-3c-4-2-5-2-13-1-13 2-17 3-24 9-5 4-6 5-9 4l-3 1-8 1c-7 0-7 0-10 4l-4 3-5-1-6-1-1-6c-1-5-2-6-6-8-4-3-5-3-8-2l-8 1c-5 0-5 0-11-6l-12-9-5-3-6 2-7 3-2-5c-1-5-2-6-4-7l-3-4c-1-3-1-3 1-5s2-4 1-9c-1-3-3-5-6-7-3-3-4-4-4-7l-3-10c-4-7-4-8-8-9l-7-1c-4 0-7-2-9-7-1-3 0-5 6-10 3-4 4-5 4-8v-4l-6-1-7-1 2-3c1-3 1-3 6-2l4 2 4-5 8-9c3-3 5-5 7-5l7-4c3-3 5-4 11-5 7-1 11-2 21-8l20-9c5-1 7-3 8-4 1-4 5-4 11-1 7 2 7 2 11-5l1-4-3-4-3-3 4-4 6-4 4-4c2-2 4-3 11-5 6-2 9-4 11-6l8-5c6-2 6-2 6 0l3 3c3 0 4 0 7-3l3-6c0-3 5-3 12 1l10 3 7 4 3 3 9-1 9-2-2-5c-1-2-3-6-7-9-4-4-6-6-6-8 0-1-1-3-6-6-19-14-23-18-24-22 0-4-1-4-4-6h-9z"/>
  <path d="M952 207l-2 8c0 6 1 8 8 10l10 4c6 3 6 3 9 1 2-1 3-2 3-5 1-4 1-5-2-7-3-4-10-7-15-7-3 0-3 0-3-2 1-2 0-3-2-4-4-1-4-1-6 2z"/>
  <path d="M912 215l1 2c2 4 5 5 9 4 5-2 5-4 0-5l-4-1h-6z"/>
  <path d="M921 227l1 2 3 6c2 8 6 9 23 10l20 2h7l1-3c1-3 1-3-1-6-3-4-11-6-22-7-8 0-10-1-13-3s-3-2-5-1c-2 2-4 2-6 0-2-1-8-2-8 0z"/>
  <path d="M990 235c-4 0-7 4-7 7l-2 6c-2 1-3 3-3 5s0 2 6 2c6-1 6 0 6 2 0 4-8 5-19 2l-4 4c-2 4-4 5-5 5l-7-2c-6-1-7-1-4-3 1-1 2-2 2-5 0-5-3-7-11-9s-10-3-19-1c-5 0-6 0-6-2-2-4-13-4-18 0-4 2-4 2-8 1l-9-2-9-3-9-2c-8 0-9 1-6 5l2 4-7 3-7 4-3-3c-3-2-3-2-10-1l-18 5-17 6c-8 3-9 3-10 7l-9 8c-6 3-7 5-7 8v4l1 9 1 7 6 3 11 2 5 1 6-8c9-12 12-14 28-19l20-6h6l2 4c3 4 3 4 3 16 0 8-1 12-2 15-2 2-2 5-1 14 0 12 1 12 3 15s4 4 8 4l6 2c3 0 5-5 5-11l1-10v-29c1-6 2-6 5-8 3-1 4-1 14 1 9 3 13 4 18 8l13 6c7 2 8 2 17 10 7 6 14 17 15 24 1 5 2 7 4 9 3 3 5 3 7-1l2-3 1 6 1 5 4-4 4-3 3 5 4 5 3-2c3-1 3-2 2-5 0-3-2-7-6-11l-5-9 1-6 2-5-7-4c-7-4-7-4-7-9-1-4-1-6 1-10l2-5h8c8 0 8 0 10 3 1 2 2 3 5 3 9 0 14-9 15-26v-10l4-2 3-2c0-2-3-8-6-10s-5-7-5-12c0-3 0-3-2-1l-1 2-6-2c-6-2-9-2-14-1z"/>
  <path d="M207 477c-6 1-6 1-7 4 0 3-2 4-7 7-6 3-6 4-7 8l-1 9v4h-9l-11 14c-6 8-13 18-15 23l-5 9 3 2c7 4 11 5 15 4 1-1 4-2 4-4 2-2 3-2 7-2h5v-6l1-12c1-6 1-7 11-16a88 88 0 0017-23c3-4 5-7 6-12v-10l-7 1z"/>
  <path d="M128 566c-12 16-13 18-13 24 0 5 0 5 4 5 3 0 3-1 5-3 2-4 3-4 6-4 7 0 9-2 11-7s2-15 1-20c0-2-1-3-4-3s-4 0-10 8z"/>
  <path d="M296 664l-4 2c-2 1-12 3-19 3-5 0-6 0-8 3l-3 3 3 2 7 2 8 1h9l6-1 6-5c3-4 4-5 3-8 0-3-1-3-8-2z"/>
  <path d="M235 665l-2 2 2 2c2 2 3 4 4 10l1 7 4-1 8-5c3-2 4-4 4-6 0-4-4-7-16-9h-5z"/>
  <path d="M320 672v5l-5-1h-9c-2 1-2 2-2 6s0 4 2 4 3 1 3 4c1 4 2 5 4 6 4 2 4 2 7-1l2-3 3 2 6 3c3 0 3 0 4-4l1-5-9-8-2-1 2-2c4-3 0-10-5-10-2 0-2 1-2 5z"/>
  <path d="M260 680c-3 1-3 2-3 6 0 5 1 8 4 8s6-4 6-7l-3-9-4 2z"/>
  <path d="M354 683c-1 2-2 2-4 1h-6l-3 3 15 15c3 1 10-2 12-6 2-6 1-8-5-11-7-5-7-5-9-2z"/>
  <path d="M272 689c-4 3-4 4-3 6 3 3 8 4 14 3h5v-5l-2-6-5-2c-4-1-4-1-9 3z"/>
  <path d="M217 734c-4 5 0 14 5 13 2 0 3-1 3-5 2-6 1-8-4-10-3-1-3-1-4 1z"/>
</svg>
