<svg xmlns="http://www.w3.org/2000/svg" viewBox="0 0 1024 1024">
  <path d="M753 106l-60 24a862 862 0 00-69 28c-13 3-25 11-43 28-14 14-16 15-58 45-45 30-47 32-85 65l-4 4h4c3-1 4-1 4 1s-1 4-5 4c-3 1-4 2-6 6-3 4-5 6-11 6l-5 1-26 21c-20 17-28 23-49 37l-26 17-23 9-46 18c-19 8-28 11-44 15l-44 14-23 9-17 2-67 2-48 1 11 5c11 4 12 4 24 4 13 0 14 0 27 4l13 5 10 11c9 10 10 12 13 11l26 14 26 16 11 18 16 33 10 17v33c-2 7-2 7 0 10l9 9 7 6-3 8c-3 8-3 10-4 26 0 16 0 18 2 25l2 7 9-1 27-3c11-2 19-4 20-3l4 7c3 6 4 7 8 8l4 1 3-3 7-12 4-9 6-2 7-2 4 13 5 14-1 10-1 10 7 16c3 9 10 22 14 29 7 12 7 13 11 14 7 1 17 7 25 14 11 10 13 14 17 28l3 11 9 10c11 11 17 15 30 19 6 2 12 4 14 6l3 2-7 10c-8 11-8 12-4 14 2 2 38-9 50-15l17-7c6-2 8-4 14-11l15-19c6-10 8-12 17-20 10-8 11-10 13-15 1-5 2-6 7-9 6-2 6-3 13-14l7-12-5-3-6-4 5-6 14-18 17-21c7-9 8-9 11-20 4-12 4-12 1-21 0-2-1-1-7 5-6 5-9 7-14 9-7 3-7 3-9 1l-2-3 16-20c9-12 18-24 24-35a100 100 0 0017-55c0-14 0-14-3-19-2-4-4-5-5-5l-11 2-9 1-9-4-9-4-4-16-5-15 2-15 2-34 1-19-5-17-10-33-6-15 3-14 3-14-7-4c-5-3-7-5-9-8l-2-4 3-6 2-6-5-6-4-5 3-3c3-2 8-5 21-9l17-6 10-20 10-19 15-5c12-4 16-5 22-5l17-1 25-2h15l6-4 6-4v-8l1-19v-13l10-6 11-7 1-10v-9l-6 5-20 17c-13 9-16 13-18 17l-3 5-4-3-11-5-7-2 3-4c6-9 5-8 13-6l9 1 6-9 6-9 16-9 17-10 4-8c3-7 5-10 12-17l8-8-2-6c-3-6-4-12-2-16 1-3 2-3 5-3l13-1c9-1 10-1 11 2l19 5 18 3 5-4 4-5-8-4c-7-5-8-5-16-5-7 0-9 0-14-3l-10-3c-8 0-6-1 10-8l16-6h-32l-5-3-6-4-26 9z"/>
  <path d="M823 213l-7 5 1 7c2 5 2 6 5 7 4 2 5 4 5 12 0 6-2 11-5 11-2 0-3 2-4 5l-4 2c-3 0-4 0-5-3 0-2-1-2-5-2s-5 0-13 8l-8 7v7l2 15 1 8h-4c-3 0-3 0-4-8l-2-9-4 5c-3 4-7 10-11 21-5 14-6 17-5 22 1 12 1 12 7 15l5 3-3 10-4 9 4 12 3 17c-1 4 0 8 1 13l2 7-2 11-2 10 6 11 7 11 8 8 7 6 1 13 3 27c2 13 3 15 7 23l4 8-1 18c-1 18-1 19 1 28l3 10-3 10c-3 11-3 10 3 17l3 4h9c8 0 11-1 18-3l10-2 7 4c5 4 6 4 22 7l22 3 14-3 9-3 2 19v9h3c6 2 8 1 13-3s7-5 13-3c4 0 4 0 5 7l3 7 13 8c11 7 12 8 17 8s6 0 12-5l11-10 5-6-3-9c-6-17-9-23-17-30l-13-11c-9-7-27-26-31-34-4-6-4-7-3-14v-14l-2-16-1-12-5-15-3-12 5-9 10-17 4-9 2-18 1-18-9-9c-4-5-9-9-11-10l-2-2 2-8 2-9-3-6c-2-5-4-7-6-8l-5-5c-2-3-1-4 2-11l3-8-4-5-10-16-6-12 2-12 2-12-6-6-24-24-9-15-6-13-10-3-10-4-1-11v-11h-21c-7-1-7-1-15 3z"/>
</svg>
