<svg xmlns="http://www.w3.org/2000/svg" viewBox="0 0 1024 1024">
  <path d="M385 2l-9 5c-7 3-7 3-10 1l-9-2c-5-1-7-1-12 1s-6 2-9 1c-5-1-12 0-21 5l-6 3-2-2-3-2-8 4a2590 2590 0 00-31 20c-9 9-13 10-21 10-7-1-7-1-7 1l-2 4c-7 4-18 12-19 14l-3 3-4 4-3 4-4-2c-4-2-12-3-18-1-4 1-4 2-9 12-6 11-6 11-12 14a199 199 0 01-19 8l-8 2c-4 0-5 0-6-2l1-5 1-3h-5l-9 1h-9c-9-3-27-6-35-6l-7 1 29 54 34 60c4 7 4 9 0 14-2 1-2 2-1 4 2 3 1 4-2 6-4 2-4 2-4 6l-1 4-2 1c-2 1-2 2-1 10v22c-1 12-1 12-5 18l-7 9-2 4 4 4c3 4 3 5 3 12s0 7 5 13l5 8-5 1c-5 0-5 0-5 3l-2 5-4 5c-1 8-4 13-9 16-4 2-4 3-5 7 0 6-1 6-7 8-3 1-5 3-6 5-2 4-2 4 0 9s3 6 5 6c1 0 3 1 5 5l7 9c4 5 4 5 2 5-3 0-9 7-9 11 0 3 0 3-2 3-2-1-2 0-3 3-2 6 3 14 11 16l5 2c1 0 3 2 4 5 4 8 6 11 14 12l9 2c2 0 2 1-3 3l-7 4 2 6 2 6h9c8 0 9 1 10 2 1 4-1 6-5 6s-4 0-4 4l-1 5-8 1c-7 0-8 1-9 2 0 2 1 2 4 2 5 0 5 1 4 5-1 3-1 3-7 1l-5-1v3c0 3-1 4-7 8-5 3-8 5-9 8-4 8-15 23-17 23l-8 4c-5 3-6 4-7 7l-2 5 6 2c6 3 6 3 6 8l1 10c0 4 0 5 4 8 6 3 8 9 8 16v5l7 5 9 5-1 5c-1 3-1 4 1 9 4 6 6 17 4 24-1 4-1 5 2 7 1 2 2 3 1 5l2 6c2 2 2 4 2 10v8l4 3c7 4 16 12 17 15 1 2 2 3 4 3s4 2 8 5l5 4-6 10c-5 7-7 9-10 11-6 2-5 5 2 10l6 4-2 6c-2 7-4 9-12 10-5 0-6 2-3 5l3 7 2 7c1 2 1 2-2 4-4 2-4 3-3 7 2 3 4 4 11 8l10 6-3 3c-4 2-4 3-5 10s-1 8 2 10l5 2c3 0 4 1 12 11l9 12v28l4 5 3 4v19l4 3 4 4-1 3c-2 4-2 4 1 6 2 2 2 3 1 8-2 5-2 5 0 8 3 4 3 9 3 22 0 11 0 12 2 12l3 3c1 4 11 4 27 1 19-5 19-5 21-8l5-6c4-2 4-3 4-7s0-4 2-4c1 1 2 0 4-1l7-4c4-1 5-2 5-4l2-7 2-6 15-5 16-7 1-6 2-8 2-7 1-2 6 3c6 3 6 4 6 7v3h5l6-1 5 8c4 6 5 7 9 8l5-1 22-1c19 0 21 1 23 3l7 2 7 1 7 3 7 3 4 3-1 4-2 4 5 7c6 7 6 8 6 13s0 6 3 8l2 6 2 4c2 1 2 2 8-16 3-10 4-12 6-13l4-5 7-16 6-13h7c5 0 7 0 9 2 3 2 3 2 4 0 1-1 4-1 29 1 37 3 34 2 34 8 0 4 0 5 5 9 3 3 5 3 5 3l17-46 17-45v-39l14-15 13-16 9-19 8-20 43-4c42-5 44-5 65-10l22-6 33 5 34 4 30 18c26 16 31 20 32 23 2 3 2 3 0 4l1 11 2 11 7-3c4-3 9-4 10-4 3 0 4 0 4-3 1-3 0-4-8-13l-9-9 16-26 17-27c3 0 4-10 1-12-2-1-1-3 7-25 9-23 10-24 12-25 4-1 5-2 1-7l-6-11-4-10c-2-5-2-5 0-5l-2-8c-4-8-4-9-2-10l1-2-6-6-5-4-3 3-3 3-2-3-10-7c-9-7-16-16-19-25l-1-7-2-7c-2-5-2-5-1-8l4-11c1-8 1-8 7-12 2-1 2-3 3-7 0-5 1-6 2-6 2-1 2-1 1-5l-1-4c-1-2-4-1-7 2l-3 3-64-7-66-7-2-52v-8l-13-15-12-17 13 1h13v-11l1-14c0-3 0-4-3-7-3-4-3-4-2-9 0-5 0-6-2-8l-3-4-3-9c-4-8-4-12 0-19l2-5-2-8c-1-7-2-8-5-9l-5-2-4-2-6-4-6-4-4-2c-1 0-3-1-3-3l-5-3c-1 0-2-1-2-3 0-3-1-4-3-4l-4 2c-2 2-2 2-7 1h-12c-9 1-14 1-17-1h-23l-1-5c0-2-1-3-3-4-2 0-3-2-4-4l-6-5c-3-1-5-3-6-5-1-5-10-9-18-9-4 0-5 0-6-2 0-2-1-2-7-4-3 0-4-1-5-2 0-2-6-4-11-4-2 0-7-5-8-9 0-3-1-3-4-3s-4-1-6-3l-5-4c-3-2-4-3-5-6-2-5-3-5-10-2-4 1-4 1-10-2l-6-5c0-2-4-4-14-7s-9-3-30-1c-9 1-10 1-11-1-2-2-2-2-3-1l-1 2-3-1-3-3-8-3c-6-3-6-3-6-6 1-5-2-8-9-9l-5-1v-4c0-4-1-5-3-3-1 2-2 1-2-1 0-1-1-2-4-1-4 0-4 0-2-2s2-2-1-3l-7-2c-5 0-6-1-5-5l-1-6-2-5c0-4-1-6-4-6l-5 1c-1 1-2 0-3-1-2-2-2-3-1-7 3-6 3-7 0-9-5-2-7-9-7-19l-1-9c-1-3-1-3 2-5 3-1 3-1 3-8l-2-8-1-10c0-6 0-7-3-9s-3-2-2-7l1-9 3-10c4-7 5-13 2-19V16l2-4-9-12-2 2z"/>
</svg>
