<svg xmlns="http://www.w3.org/2000/svg" viewBox="0 0 1024 1024">
  <path d="M224 7c-4 5-6 8-12 11s-7 4-9 8-2 5-10 8l-8 2v5c0 4 0 4-3 4-2 0-3 1-5 3-1 2-4 3-8 5-6 2-7 2-7 5 0 2-1 3-4 5s-4 3-6 11l-6 15c-3 4-3 5-3 16l-1 14c-2 2-2 2 0 5 1 3 1 3-2 6l-4 3 2 5c3 4 11 32 10 32l-11 4c-9 3-11 4-13 7s-2 4-1 9l1 15 2 12 11 14 11 13v8l1 17c1 9 1 10-1 18l-2 8 5 8 5 8 9 3 20 6 16 6c6 1 7 1 12-1h14l26 1 40 1c22 1 23 1 33-1 19-4 19-4 27 1l22 10 23 8c7 3 20 7 25 7l13 5c9 3 12 4 17 4s6 0 13 6l15 10 20 16 8 7 11 2 10 3 3 8c3 8 4 9 9 13 5 5 6 6 9 15l6 18c3 11 9 24 14 30 6 9 11 18 12 26 0 6 0 6 5 10 3 2 8 6 11 11l7 7 7 21 7 21-3 17-2 16-12 12a60 60 0 00-15 21l-9 14c-4 3-5 6-5 9-1 5-2 6-12 15-3 2-5 5-6 8s-1 5 1 11c4 10 8 16 16 24l7 7 12 38c13 40 15 49 15 65 0 7-1 12-3 18-2 9-2 11-2 26v17l6 7 15 10c17 9 32 28 42 55l4 10 8 6c15 11 21 17 26 23 5 8 6 9 12 9 3 1 6 0 14-2l16-4h7l4-6 12-12c12-9 16-16 25-39l7-19 1-19c0-16 0-22-2-32-2-11-2-12-8-23-5-9-8-13-10-22-3-12-3-12-2-29l1-22c1-5 1-6-7-6l-8-2h-7c-2 1-5 2-11 2h-8l-1-5-1-4 4-1c3 0 4-1 2-5l-2-11c-1-8-1-9 2-13 5-8 6-13 4-27-2-15-2-18 0-30 2-9 3-11 6-15s3-4 8-4c3 1 6 0 11-1 5-2 6-2 13-1s8 2 15 7c8 6 9 7 10 13 2 6 2 6 6 8s5 2 6 7c1 4 2 6 5 8 2 1 3 3 3 7l1 4-6 7-6 6-4-3-4-2-2 3c-1 2-1 2 2 6l4 3 7-2c8-2 8-3 12-8 2-4 4-5 15-10l12-6 10-15 20-32c12-20 13-24 9-31-2-5-2-4 0-22 0-5 0-7-5-20l-7-20-7-19c-4-10-6-17-6-21l-7-23c-6-13-7-17-7-24-1-7-2-10-5-17l-4-8-7 1-12 2-4 3 1-3 1-5c0-2 5-4 13-7 7-2 8-3 8-6l6-12c8-12 9-18 8-30l-1-8 3-5c2-3 5-7 5-10l1-5 6-2c6-1 6-2 9-6l5-13c3-8 3-9 3-22v-15l-6-3-19-8-13-5h-12c-9 1-13 0-15-1-3-1-4-1-12 2l-8 2-14-2c-12-1-15-2-21-5s-8-3-14-3a261 261 0 01-74-15c-10-5-11-5-20-6l-26 1c-16 1-16 1-23-2-6-2-7-3-9-7l-11-15-10-12-21-10-22-10-17-8a336 336 0 00-37-18c-3-2-7-4-10-4l-8-4-8-7c-4-3-6-5-8-9s-4-6-8-9c-6-4-23-11-33-15-3-1-5-3-8-7l-8-9c-3-2-5-4-5-6-1-2-2-4-8-7l-11-4c-4 0-7-4-7-10 0-5 0-6-7-13l-9-12-7-11c-3-4-8-13-11-21l-6-15-6-2-13-6-6-5-5 2-4 2-4-4-9-5c-19-5-23-6-28-10-10-7-12-8-19-8h-7l-6 7z"/>
  <path d="M482 515c-7 3-10 5-14 5l-6 1-7 10c-11 18-20 36-21 42l-1 5h5l19-2c14-2 14-2 24 0 7 2 11 3 17 7l8 4h10c10 0 12 0 20-3 9-4 10-5 15-10 7-8 11-19 11-29v-7l-15-12-17-12c-2-2-19-4-30-4h-10l-8 5z"/>
</svg>
