<svg xmlns="http://www.w3.org/2000/svg" viewBox="0 0 1024 1024">
  <path d="M326 30l-17 7c-7 4-10 5-13 5l-9 2c-3 2-4 3-5 7v4l-6-4c-5-3-7-3-14-3h-10c-1 1-2 0-3-2l-2-3h-18l8 6 9 6-1 8c0 7 0 8 3 12 2 3 2 4 2 8-1 4-2 4 11 5l6 1c2 1-7 9-12 10-2 1-4 2-4 4l-3 7-3 3-3-2-2-3-3 4-9 7-10 8c-4 6-5 6-5 2 0-3 0-3-8 1-8 3-7 4-16-5-6-4-7-5-11-5h-4v-6c0-5 0-6-5-11-5-7-4-7-13 0l-5 3-4-2-4-2-1 2c0 3-8 3-25 2h-13l-2 4-3 10v5h4l9 2c4 1 5 2 5 5l1 5-4-2-3-2-8 3-7 4v19l6 5c5 5 6 7 9 15l3 9-2 6c-2 5-2 10-3 25l-1 19-5 13-6 12-7-1-6 1c-2 2-11 7-14 7-8 0-26 6-30 10l-10 6c-7 5-8 7-8 16 0 2 0 5-2 8l-3 4 2 6 1 5-2 2-7 6c-4 4-5 6-5 8l2 4c3 0 3 1-1 3-6 3-10 10-5 10 2 0 3 1 3 4 1 4 14 24 19 29l3 3-2 4-3 5 7 1 12 1c5 1 5 2 5 4l2 4 2 4c1 2 5 3 14 3 4 0 5 0 15-8l12-8 2 2c1 1 1 2-1 6-2 5-2 6-1 13l1 13c0 3 0 4 3 6 4 2 6 1 10-1 4-3 5-3 18-3l17 1c4 1 11-1 14-5l6-5 11-6c3-3 7-5 9-5l4-3a44 44 0 0133-12c11 0 12 0 9 9-1 7-1 14 1 17l1 7v8l2 6c0 2 1 3 5 5 3 1 6 2 8 5 1 2 3 3 5 3s2 1 3 4c0 3 1 3 5 4h11c5-1 7 0 8 1 2 2 7 4 9 3 1-1 2 0 5 2l4 3 5 3 8 2c5 0 5 0 6 3l3 4c3 2 5 3 15 3 15 1 16 2 21 5l4 9c0 4 2 7 5 12 3 4 4 7 4 9 0 4 0 4-4 3-5 0-5 0-6 3 0 2 0 3 3 6 2 3 3 5 3 9l3 10 1 4h38c7 0 8 1 6 7l-2 10v8l7 4 10 6c4 2 5 7 5 21v11l-4 5c-4 4-8 16-8 21 0 3 4 18 6 21 3 4 3 10 0 19v13c-2 3-1 4 6 5h12c4-2 5-2 6 0 2 1 2 1 5-1 2-2 4-2 4 1l6 1c4 0 6 1 9 3l5 5c2 4 5 16 6 25 0 8 1 8 3 10 3 1 4 1 11-1l8-2 2 3c5 6 5 16-1 31-3 8-3 8-1 9l5 1 7 2c7 3 8 7 8 24 0 12 0 13-3 15l-8 4c-4 1-9 5-13 8l-12 10a103 103 0 00-30 35l-7 9-3 4-6 3c-3 2-4 3-3 6 0 2 1 3 3 4 3 0 4 0 6-3 3-3 8-3 11 1l8 9 6 8 2 3c2 2 2 2 3 1l3-3c2-1 3 0 9 5 5 6 6 7 9 7s4 1 11 8l8 8 10 10c8 8 17 14 20 14l3-4 12-13 12-14 10-14c12-14 13-16 15-22 2-7 8-16 18-26 9-8 21-22 21-24l4-9c3-7 3-7 2-10l-2-7-2-8c-1-5-1-6 2-17 6-18 9-23 18-29l15-13c10-10 15-13 26-17l8-2 6 2 7 3 3-3c1-2 2-4 1-6l-1-3 8-2c7-3 7-3 5-4-3-3-2-4 4-4l6 2c1 1 1 1 6-3l5-5v7h16l23 1 7 1 1-7c1-7 3-10 11-13 9-3 13-8 13-14 0-4 1-5 3-8 3-2 4-4 4-7 1-3 2-5 9-10 7-6 8-7 10-12 1-5 2-6 5-8 2-1 4-3 7-11 3-7 4-11 4-16 1-12 4-19 9-24l5-5 1-13 5-24c3-9 3-12 4-29a140 140 0 019-52l3-5 5-1h6l6-9c7-9 15-22 19-31l8-9c3-3 8-7 9-10 4-4 5-5 9-6 5-1 6-2 13-10 20-24 23-27 29-39 12-23 14-31 10-41-2-3-3-8-3-11 0-7-2-19-4-23l-3-10c0-6 0-6-6-12l-6-6h-11c-24 0-43-9-56-28-3-5-5-7-11-10-5-2-10-6-14-10-7-6-8-7-18-10-10-4-11-4-32-5a200 200 0 01-39-4c-4 0-7-1-12-4l-14-5-8-1c-1-1-2 0-4 2-2 3-3 3-6 3-4 0-5 0-8 5l-4 4-2-2c-1-2 0-3 3-6l4-6-4-5c-4-3-5-4-6-8 0-4-1-5-4-6-2-1-5-2-7-1-3 0-5-1-10-4l-11-6-15-7-12-5-14-1h-13l-3 3-8 9c-5 8-10 11-15 11h-3l8-10c9-13 10-16 7-21-3-4-6-5-15-6-8 0-17-5-17-8 0-2-1-3-6-3s-6 0-7-3c-3-5-2-7 0-7 5 0 5-1 4-7v-11c1-5 1-6-2-8l-6-2c-2 0-3 0-3-4l-2-5c-2-2-2-2-4-1l-4 2-1-7-4-11c-2-4-3-6-3-10 0-14-6-26-13-26-2 0-4 1-8 5-6 6-17 26-18 35-1 4-2 6-5 9l-4 4-11-1h-17l-11 1c-5 0-7 0-11-3l-5-4-7 1-12 1c-5-1-7-1-8 1-2 2-2 6 0 10 2 5 0 5-13 5-9 0-11-1-14-3l-4-2-6 5c-4 4-8 6-19 10-17 6-20 6-27 2l-9-5c-3-2-4-4-4-11l-1-10-2-11c0-3 0-5-2-8l-2-3 5-4c5-4 5-4 5-9s0-6-4-9c-3-2-5-3-8-3s-5-1-8-3c-4-4-9-4-19-1z"/>
</svg>
