<svg xmlns="http://www.w3.org/2000/svg" viewBox="0 0 1024 1024">
  <path d="M203 2c-4 2-8 5-10 9-1 3-3 5-6 6l-5 3c-1 3-5 5-8 5l-6 3-4 3h-16l-17 1c-3 0-2 3 1 7l5 6c2 2 3 3 8 4 8 1 15 6 20 13 3 5 3 6 3 16l-1 13 1 6 2 3 8-4c7-4 14-6 22-8 3 0 4-1 4-3l-8-4c-10-4-10-3-10-1 0 3-1 5-4 5-2 1-3 1-3-1v-6c1-2 2-5 1-9 0-6 1-8 6-8s6 1 4 6l-1 4 6 1c5 1 5 1 6 4 0 3 4 7 6 7 3 0 7 6 7 9 0 2 1 3 3 5 1 0 3 2 3 4l7 7c5 6 6 6 10 6 4-1 5 0 7 1 2 2 5 3 7 3 5 1 15 7 16 10 0 1 4 5 9 8 4 3 10 7 12 10l7 5c2 0 6 4 9 11l4 5c3 2 10 11 11 16l7 13 5 8v17l-2 19c-2 1-2 3-1 9l-1 9-2 7c-1 5-2 7-7 10-1 1-2 2-2 5l1 7 2 2 3-2 10-5c6-3 7-3 17-3 16 1 25 3 28 5l3 2-14 1c-33 2-45 3-48 6l-1 3c-1 2-1 2 8 1l15-2a318 318 0 0144-1c6 1 6 1 16 11l10 10 3 9c3 6 4 7 10 10 7 4 10 9 11 17 0 3 1 7 3 9l4 12 1 9 7 5c5 3 7 5 8 8l7 10c8 9 12 16 13 23 1 8 6 20 11 28l4 10c1 7 2 10 9 19l5 12 3 8 1 4c0 3 1 5 5 9 4 5 5 6 5 9s1 4 2 5c2 1 6 7 6 11 1 3 11 21 15 25 1 2 4 4 6 4 3 2 5 4 8 10 6 10 20 28 24 31 3 2 6 6 10 13 3 7 6 11 8 12 3 2 5 6 4 9-2 3-5 3-5-1l-3-3c-2 0-3 1-3 4-1 4 0 5 4 8l6 7c2 3 2 4 0 7-2 4-2 8-1 10l3 5c1 6 1 6 8 7h6v7l-1 6 6 2 12 2 8 1c1 1 2 0 4-3l3-5h7c7 0 7 0 18 5l18 11c5 4 6 6 13 20s8 16 9 24 3 13 12 26l5 14c3 12 3 16 0 21-2 2-5 7-8 15l-5 6-4 5c0 2-5 10-10 14-3 3-4 5-3 7 1 4 2 3 9-4l6-4 7-9 4-5v6c-2 4-9 11-12 12l-2 3c0 4-3 6-7 6s-6 1-7 4-1 3-7 3c-7-1-8-1-7-4l1-2a802 802 0 00-40 9v4c1 3 0 3-2 4l-5-2-3-3-4 5-6 4-10 3c-9 3-10 4-15 10-5 4-9 7-16 10-9 5-14 8-20 14l-11 6c-10 3-18 8-20 11-3 4-10 5-17 2l-5-2 2 14c1 4 2 5 4 5s3 1 3 2c0 2 2 5 7 9l10 12c3 5 5 7 10 9l9 3c2 0 2 1 4 4 1 4 1 4 15 0 8-2 10-2 22 1a1175 1175 0 0015 7l3 6 3 3 4-4 8-4c3-1 4-2 5-4l2-4 4-4c3-8 8-15 11-16l5-4c1-3 3-4 4-5l7-4c3-4 10-5 21-5l12 2 5 1c3-4-1-6-10-6a34 34 0 01-14-2c-6-2-3-5 3-5l7-2c6-4 12-4 16-1 2 2 5 3 7 3 5 1 5 1 5 5 1 4 1 5-2 7-1 1-2 3-1 4l-3 4c-5 2-5 4-1 4l8-4c1-2 2-2 5-1 3 2 3 2 7-1l3-4 7-5c4-2 5-3 6-2l5-1 9-1c3 0 4 0 6-3 1-4 1-4 5-1 3 2 4 1 11-4 5-4 12-6 26-6 17-1 17 0 20 4 2 3 4 4 5 4 2 0 4 2 8 6 4 5 6 6 10 7s5 1 7-2c2-2 3-2 9-3 7 0 7 0 8 2v6c0 2 0 3 3 6s4 4 7 4c4 0 4 0 5-4s1-5-3-6c-3 0-3 0-1-5 1-3 1-3-1-5-2-3-3-9 0-9l1-3-2-2c-2 0-3-1-4-8-2-6-3-9-7-14l-4-6-5-16-7-20a159 159 0 00-29-52l-15-29-7-2c-4-2-5-4-10-11-5-9-12-28-12-36 0-7-1-9-5-11s-6-5-6-8l-4-5c-12-11-15-14-15-17 0-5-3-15-6-21-5-8-17-19-24-22-4-1-7-4-14-11l-11-9c-11-3-10-3-15-11-3-6-4-8-9-10l-7-6c-1-2-5-4-11-6-11-5-16-8-24-16a99 99 0 00-37-22c-5-1-7-3-11-12l-8-11c-6-6-12-15-14-21l-5-8-11-15c-4-7-10-14-14-18-8-8-10-11-15-26l-7-12c-11-13-15-20-15-25l-4-12c-2-6-4-8-8-12-5-5-6-7-10-17a293 293 0 01-12-30l-3-8-9-21c-7-14-9-19-9-24-2-10-8-18-22-24-6-4-11-10-13-17-1-5-5-8-11-11-3-1-4-3-6-6-3-6-9-14-15-21l-9-10c-4-5-5-6-5-13v-9c1-3 1-3-3-5-3-1-4-2-6-8s-3-9-3-16l-2-14v-12l1-10 2-7 3-13v-10l-3-1-5-6c-2-3-4-5-8-6-5-2-6-4-9-8-4-7-11-14-21-20-6-4-9-7-13-12-3-5-7-9-12-13-8-6-11-9-11-13-1-3-2-4-9-7l-11-7-2-3-3 2-3 2-19-6-21-6-4 2z"/>
</svg>
