<svg xmlns="http://www.w3.org/2000/svg" viewBox="0 0 1024 1024">
  <path d="M316 253l-4 3c-1 0-2 1-1 4 0 4 0 5-3 7-2 2-3 2-5 1s-4-1-4 1l-1 3c-2 2-2 2-5 1-4-3-9-2-12 0-3 3-4 3-11 2-8 0-13 1-13 4l-3 7c-2 4-4 6-6 6l-5 5c-2 4-3 4-6 4h-4c-1-1-2-1-3 2l-3 6-5 6-4 4c-1 1-2 4 0 4l1 2c1 2 0 3-2 4-3 2-3 2-2 4 1 4-1 10-3 10l-2 3c0 3-1 4-5 6-2 1-2 2-2 4s0 3-2 3c-2 1-4 5-4 8l-2 4c-2 0-3 1-4 3l-4 4-5 2-8 2c-5 0-6 0-8 3l-4 5-3 4-6 6-4 4-2 1c-2 0-3 5-2 9l2 5c0 2-3 5-7 7-3 1-7 9-9 15 0 2-2 4-4 6l-8 8-4 6-5-1c-4-1-5-1-10 2-7 2-10 5-13 10-2 3-3 4-5 4l-4 3-1 4s-1 3-4 5c-4 5-6 10-3 12s2 3-1 7l-3 5c1 1 0 4-1 5-2 3-2 4-1 7s0 4-1 5c-2 2-2 2 2 6 4 5 6 10 5 13-1 2 1 4 5 5 2 1 2 2 2 5s0 4-2 5c-2 0-4 1-5 3l-3 3-2-3-5-6-2-2-4 3-5 5-1 6c-1 4-2 5-5 7l-8 2-8 1c-4 1-10 6-9 7l-2 11-1 9h-4l-6 2c-2 2-3 3-3 6l-1 5c-2 1 7 4 12 4 3 0 5 1 8 3 2 3 6 4 9 5l5 2 2 6c2 6 2 9 1 17v30l7-7 6-7 5 4 4 3v7l-1 6 5 2 6 3 5-3c7-4 8-4 8-1l4 3c3 0 3 0 2 5v4l3-1c4-2 4-2 7-1 4 2 4 2 4 6l1 5 2 5 1 6c2 3 9 10 11 10l5-2h9l8-1h10l7-1 8-6c6-4 8-5 10-4 1 1 3 1 7-1 9-3 11-3 11 0s2 4 10 4c7 1 10 3 10 8 0 4 3 6 8 5l5-2 10-1c8 0 9 0 10 3 2 2 9 6 12 6l3 1 6 2c6 0 7 1 6 4 0 3-4 6-7 6-1 0-3 6-2 8s2 2 4 1l4 1c1 2 5 0 6-4 2-3 2-3 4-2l4 1h3l2 1 3 2c1 2 1 2 2 1 0-2 7-4 8-3l1 2c-1 1 0 3 2 5l3 3 6-2 6-2 8 2c7 2 9 2 7 0-1-2 0-10 2-9 9 3 13 3 23 3l15-1c2-1 6-2 11-1 9 0 11 0 47-13l4-2-1-6c-2-7 0-12 6-19 4-4 5-4 9-4l12 2 6 1 7-4 7-7c0-5 2-6 12-6l10-1 19 14 23 16c21 5 22 6 25 9s3 3 6 2c4-1 4-1 8 2 5 3 7 4 13 2a438 438 0 0174-6c6-2 6-2 15 0l10 2 7-7 7-8 5 2c4 2 7 2 22 2 18 0 23 1 29 5 5 4 16 5 23 2 4-2 6-4 10-10l5-7 7 6c5 4 10 6 14 7 6 2 6 2 21 0 12-2 16-4 19-5 4-3 4-3 13-1 11 3 17 2 37-9l17-9 4-8c5-9 5-9 10-10l5-1 11 6 15 11c4 4 5 5 12 5h15l7-3c4-1 4-1 4-4l3-6c2-3 2-4 2-15 0-12 0-13-2-14-1-1-2-2-2-5 0-4-2-7-6-9-2-1-2-2-1-4 0-4-4-8-9-8-4-1-4-1-5-7l-3-9v-8c3 0 3-6 2-12l-2-4 3-4 4-5 2-4c3-4 3-7 1-11l-5-4c-3 0-3 0-2-2l1-3c3-2 8-2 10-1 3 2 12 1 13 0 1-4-6-11-11-11-1 0-8-9-8-11 0-1-1-4-3-5l-3-3 3-6 2-6-3-3-2-5c0-3-1-4-3-6l-4-7-1-6c-2-3-5-2-8 1-2 2-4 3-9 4-6 0-6 0-8-2s-3-2-7-2h-10c-2 1-2 1-3-1l-3-2h-2c-1-1-2-1-4 1-1 3-3 3-5 3l-11 1c-2 2-5 1-6 0 0-2-3-3-4-2-5 4-14 3-12-1 1-3 1-4-1-5l-3-2c-2-2-2-2-4-1l-3 2-4 3c-4 2-6 2-6-3l-3-4c-3-1-4-3-6-6l-3-5c-2 0-6-4-6-6l-3-5c-3-4-3-5 0-8s2-4-1-7c-2-3-2-3-2-7 1-4 2-6 4-7l4-3 2-3 4-4c4 0 7-7 7-17l1-6c2-2 2-2 0-5l-1-5c0-5-3-9-6-11s-4-2-5-1l-6 2h-4l-2-5c-3-8-3-8 1-7 2 0 2 0 3-2 0-2 2-3 4-1h8c3-1 2-5-3-11-4-5-5-6-12-3-1 0-2 0-4-3l-3-4-8-3-7-3c-2 0-3-3-2-5 2-2 0-7-2-8l-3-3-1-1-2-3c0-2-2-3-6-4-3-2-7-3-8-2l-3-1c-1-1-4-3-7-3-2-1-6-3-7-5l-3-2-6-2c-4-2-6-2-11-1-5 0-6 0-8-2-1-2-2-3-3-2l-3 2c-3 1-3 2-3 6 0 3-1 5-3 7-2 3-3 5-3 8-1 5-4 6-9 4-6-4-7-4-10-2-2 2-3 2-8 2l-10-2h-7c-2 3-5 2-5-1 0-1-1-2-3-2l-4-3c-1-1-2-2-5-1l-8 3c0 2-4 3-4 2l-3-2c-2 0-3-1-3-3 0-3-3-6-5-6l-3-1c0-2-2 0-1 2 0 1-1 2-3 2l-5 1c-2 0-2 0-1-1 2-1 1-2-4-5-6-3-9-4-9-2s-19 3-25 1c-16-5-15-4-20-2h-14l-18 1c-14 1-16 0-21-2-4-2-6-2-7-1l-10 5c-4 0-4 0-7-3-3-4-13-6-15-3l-4 1c-3 0-4 0-6-6l-4-7-1-1c0-2-5-7-8-8-4 0-7-3-7-5 0-4-1-5-5-5-3 0-4 1-6 3-3 2-5 3-12 0-6-1-11-5-10-6 0-3-5-6-14-9-6-2-8-1-7 3l-1 5c-1 1-1 2 1 4l2 4c0 2-4 3-6 2l-4-3-7-2c-4-1-5-1-5 1 0 5-7 4-9-1 0-2-2-4-4-5l-4-3c-4-5-11-5-13 0-1 3-3 3-3-1 0-3 0-3-3-3l-6 2c-3 1-3 1-6-3l-6-8c-3-4-5-5-8-3-1 1-2 1-4-1l-5-3-4-2-3-2-1 4z"/>
</svg>
