<svg xmlns="http://www.w3.org/2000/svg" viewBox="0 0 1024 1024">
  <path d="M360 196l-7 5-13-3c-13-3-25-4-32-2l-11 2c-9 0-25 3-37 7-7 2-11 2-24 3-16 0-17 1-23 4l-14 4-15 4-16 2c-6 0-8 0-14 4l-12 3c-6 0-9 2-25 14-6 5-8 6-10 4-1-1-2 0-7 4-6 6-6 6-12 7-5 0-6 1-7 3l-4 4c-2 0-4 2-5 4-4 5-11 8-16 7l-8-1h-4l1 4c0 6-2 12-6 14-3 2-4 5-4 15 0 5-1 8-3 12l-4 11c-3 8-5 8-13 2-4-3-7-4-10-4s-3 0-3 4 3 8 8 11c7 4 8 5 9 12v12l-3 11c0 4-1 6-4 9l-8 9c-3 5-4 6-4 15l2 26 2 27c1 10 1 11 4 15 5 6 7 14 8 27 1 12 2 18 5 22 2 5 5 14 5 22 1 4 2 10 4 13 3 7 11 19 16 23l4 5 4 7 6 10c3 6 14 21 19 26l10 8c4 3 7 6 9 10 8 10 17 17 28 19 11 3 13 3 15 8l6 7c5 4 5 4 12 4l6-1 4 6c3 5 5 6 8 7 11 3 16 5 23 11 2 2 7 6 12 8 17 9 25 15 32 21l20 14 15 10c2 3 3 3 9 3 4 0 6 0 7-2 0-2 4-1 4 1l1 4c0 2 1 3 6 5l8 3 3-4 4-5c2-2 2-2 4 0 4 4 8 3 12-4 2-3 3-3 6-3l6 1c1 2 9 5 19 7l10 2 2-4c0-4 0-4 6-5 4 0 6 0 11 2 8 3 15 3 17 0 3-3 3-3 9 0l4 2 7-2c6-2 9-2 14-1h6l1 5 2 12 1 7-9 9c-10 10-12 14-10 19 1 2 3 3 5 3 4 1 12 5 17 9 4 3 8 3 11 0l5-4c2 0 5-1 6-3l6-2c3 0 4-2 3-6l-2-9c-1-6-2-7-7-12-6-6-6-8-2-14 2-3 3-4 4-3l8 1c5 0 5 0 3 2-1 2-1 2 1 3l7 1c3 0 4-1 9-6l7-6 2-1h3l10 4 12 4 10 3c7 0 10-1 17-6s9-6 17-5c7 0 7 0 8 4l2 4c0 1 5-1 9-4l9-4 15 1 15 1 4 4 10 6c5 2 7 3 9 6 4 7 8 9 20 10 11 0 11 1 17 6 3 3 4 3 5 2h3c1 2 4 2 14 3l15 1 6-2c4-2 6-3 9-2 4 0 6 0 13-4l12-5 6-2h7l7 2c2 0 4 1 5 3l6 3 6 3c1 2 3 3 5 3 4 0 10-2 10-4l5-4 7-4 3-3 4 3 7 5 8 5c2 1 6 3 7 5 4 3 5 3 19-1l12-1c6 1 8 0 5-2-2-2-4-7-5-12-1-4-1-5 2-8 2-3 3-3 7-3s6-2 2-4c-4-1-5-13-1-15 2-1 2-2 0-4-3-4-3-7 0-7s3-1 1-4c-3-5-3-7 0-10s4-9 2-9v-10l1-13-1-4a258 258 0 0116-12l5-5c3-4 4-4 7-4 4 0 5-1 7-3 4-4 7-5 16-5h8l2-5c3-6 2-9-3-12-4-2-5-8-2-14l2-4h8l7-1 3-4 4-4c2-1 15-18 18-24 3-7 3-8 0-9l-4-1v-7c0-5 0-8 2-10 1-3 1-4-1-9l-5-6-3-4-5-6c-2-2-3-3-4-7v-5h-9c-8-1-8-1-13-5s-6-6-8-12l-6-16c-4-9-4-10-4-19s0-10 3-17l7-10 3-3v3c0 4 0 4 13 1 7-2 11-3 11-5l5-5c3-3 5-4 10-5 2-1 2-2 2-4-1-2-2-3-14-8l-22-14c-10-7-10-7-10-12l-5-14-6-15-1-6 2-6c2-4 3-6 3-11 0-10-1-12-7-12-7-1-8-2-10-6-1-2-4-5-14-11s-14-8-18-13a309 309 0 00-45-39l-14-9c-7-3-11-6-12-8-3-3-4-4-12-6-9-3-11-3-18-2-8 0-9 1-14 4-6 4-17 8-27 9-5 0-6 0-10-2l-3-3-1 2-4 3c-3 1-3 1-4-2l-1-3-3-6-3-5h-15l-2 4c-3 5-7 8-8 8l-2-5c0-2-2-7-5-11l-4-8-3 9-3 10-1-4c-2-3-2-3-6-2-3 0-5 0-9-2-6-4-19-9-33-13l-19-6-14-4c-7 0-14-4-19-10l-4-4-6 3-7 4c-1 2-7 4-13 4h-7l4-1 3-2-5-6c-4-5-5-5-5-3v3l-4-3-3-2-1 3-2 2-2-1-3-5c-1-5-1-6-5-6h-4l1 4c1 4 1 5-1 7s-3 2-6 1c-4 0-4-1-7-6s-4-6-8-4c-2 1-4 1-7-1l-9-3h-5l-2 5-2 12-1 7-3-2c-4-1-4-1-7 1-2 2-4 2-8 2l-9 1-7 2c-3 0-4 0-4-2l-3-6c-2-2-3-5-3-7 0-4 0-5-6-7-7-4-10-4-13 0s-5 4-10 3l-7-2c-3 0-4-1-9-6-5-6-5-7-15-10l-15-4c-4 0-5 0-10 5z"/>
</svg>
