<svg xmlns="http://www.w3.org/2000/svg" viewBox="0 0 1024 1024">
  <path d="M585 1a519 519 0 01-41 7c-6 2-8 2-27 3h-20l-19 12-19 13-4 10-5 11-8 5-14 10c-5 6-6 6-9 6-5-2-6-3-6-13v-9l-8-14-8-17c0-6-1-10-3-10L290 36 188 57l-26-1-28-1-9 207-10 205H63l-52-1v6L5 629 1 780l2 5 2 10v4l6 3c4 2 11 6 15 10l8 6 5 12 7 19c3 8 4 9 9 11l6 3-1 5c-1 4-1 4 3 10s4 7 4 13v6l6 6 6 7 2 6c2 5 2 3-1 29 0 4-8 16-19 29l-4 5 1 12 3 21c2 9 3 10 5 11 3 1 3 1 7-2 3-4 3-4 10-4 5 0 7 1 12 3 6 3 10 4 18 1h19c16 1 28 1 35-1 4-1 5-1 7-6l2-7 3-2a475 475 0 0122-7l7-8c6-7 7-9 18-15a229 229 0 0129-16c9-5 22-26 24-37 0-3 2-7 5-12 3-6 4-9 5-16s1-8 6-11l8-12c5-8 5-9 9-9l7-1 17-4 20-6h7l1 9 1 8 13 4c16 5 21 8 26 16l4 6h7l13-2h7l8 7c6 7 7 7 13 8l17 4c13 4 24 5 33 3 6-2 8-2 27-1l21 1 14-5 15-5 9-20c4-12 13-29 18-39l10-18v-16h6l21-2 16-3 7-7 15-19c11-15 20-22 30-25l9-2 2-8 10-30 8-23 10-11c9-9 10-10 15-10 5-1 5-1 9-7l3-6h8a112 112 0 0020-4l4-1v-6c1-5 1-7 4-10l4-3 4 2 5 2 8-7c7-4 9-7 12-12s6-8 17-17a251 251 0 0030-29l12 1 10 2 24-13 24-12 6-9 5-8 8-3 12-7c4-4 5-4 11-3l10-1 4-1-3-4-10-5-8-1-3-8c-3-4-5-12-7-16-2-9-3-11-9-16-4-2-35-9-42-9l-15-2c-6-2-27-5-32-5l-4-5c-3-4-4-6-4-11l-1-7-13-15c-17-19-16-17-14-24l1-12 2-13c2-7 3-27 1-34l-1-5-13-1-22-1h-8l-1-16v-15l-6-11-6-12c-1-1-7-3-21-5-25-4-28-6-32-15l-2-6-7-2c-6-2-8-3-10-7-2-3-4-4-5-4l-6-1c-3 0-3 0-3-5 0-4 0-4-3-4s-5-1-9-5l-5-5-4-17c-4-16-4-17-9-23l-5-7 1-5v-11c-2-6-3-7-10-13-8-9-9-12-6-19 3-5 3-4-11-12l-9-5-6-17-7-22c-1-6-2-6-8-10l-9-10c-4-5-4-5-4-15V15l-5-6c-3-4-5-6-8-7-5-2-12-2-17-1z"/>
</svg>
