<svg xmlns="http://www.w3.org/2000/svg" viewBox="0 0 1024 1024">
  <path d="M533 79c-4 3-5 4-9 4s-4 0-6 9c-1 5 0 4-9 6-2 1-3 2-5 7s-3 7-6 9-4 3-5 8l-1 14v8h-8l-15-2-7-2-3 2-3 2-6-3c-6-5-13-5-22-1-5 2-6 2-8 9l-3 8-6 2-12 2c-7 0-7 0-9 4l-2 10v7l-4 2-5 4 2 5 2 4-4 5-5 7c0 2-1 5-3 7l-3 6 4 4 3 3 7-1h12l7 1c3 0 4 1 4 4 2 4 2 4-2 7l-9 6c-4 3-5 4-6 8l-2 7-11-2c-13-4-17-4-21 1-3 3-4 5-6 12l-1 9-10 4-15 5-13 6-9 4v8c0 7 0 8-3 11-2 1-4 5-4 7-2 5-2 6 0 17l2 11-3 5-6 8c-2 3-2 4-2 7l1 4-7 6c-7 4-8 6-7 7l1 7c1 4 1 5 4 5l8-2 3-3 5 7 5 9-1 9-2 8-3 2c-5 0-22-3-22-5v-4c0-3 1-4 3-5l2-1-3-4-6-7-2-2-6 4c-7 3-7 3-13 2l-6-1-1 4c-1 7-7 15-12 17l-5 2-3-2c-1-2-5-3-7-4-5-1-5-1-10 2l-5 3v19l1 5-4 2-4 3-5-3-6-3-7 3-15 10c-8 6-9 7-13 7h-4v-5l-1-6c0-1-2-3-5-4l-4-3-4 4-5 4-8-2H97c-7 2-25 1-33-2l-6-2v12l3 18 3 23c1 15 2 18 7 36l10 29 5 16 2 9-2 5-3 4 3 6c3 8 3 11 2 37l-1 25-3 5c-3 4-5 5-12 8l-17 4h-9l-9 8c-9 7-10 9-22 26L2 750c-2 2-2 2 1 7 3 4 4 5 7 5l12 6c7 4 9 6 12 10l5 5 5 4c3 3 4 5 5 10 1 7 1 7-2 13l-3 9-1 9v9l2 3-5 3-6 2-1 8-1 14 2 22 5-1c4-1 4-1 4-4l-2-8v-4l5-1c11-2 23 0 25 4 0 2 5 4 9 4l8-4 15-9c8-4 9-5 10-10l3-12 1-8 8-2c9-4 22-5 37-4 15 2 34-1 41-5l11-4c5 0 6 0 13 3l8 4 18 1 23-1c3-1 4-1 12 2s9 3 17 2h9l5 5 6 5h24l2 5 2 4h22l15 6 19 6 13-2c7 0 9 0 11 2s2 2 1 8c-3 8-2 9 2 9 10 2 9 1 8 8v6h6l10-2c6-3 11-4 12-2l4 1c12 0 16 3 13 10l-2 7c0 4 0 4 5 5 4 1 5 1 6-1 2-2 2-2 1-9-1-6-1-7 1-12l2-5 6 4 8 7 3 4 9-5c6-3 9-5 10-7 3-5 3-6 7-6 4-1 4-1 4 2s1 5 3 7c3 2 4 5 5 8l2 4c1 0 8-4 9-6 2-2 6-2 11-1 3 1 15 15 16 20 1 3 5 6 11 7 2 1 2 1 2-4l2-11c2-5 3-6 7-9l9-2c5 0 5 0 7-4 3-6 7-9 12-9 7 0 9 1 9 3l3 10 4 13c0 4 2 9 4 13l2 6h5c7-1 15-6 18-9l4-4c2 0 3-1 4-3s2-3 5-4c5-1 5-1 8 2l4 4 6 4c6 1 6 1 9-1l8-7 4-4 9-1 13 1c3 1 4 1 5 6 1 4 2 5 7 7 5 3 5 3 5 7l1 9c1 3 2 4 6 5l8 5c6 4 8 4 9 0l4-6c5-5 6-9 2-18l-3-12c0-7-2-12-5-13-2-1-2-2-2-7s1-7 4-13a142 142 0 017-14c0-3 8-22 10-25l5-4 3-4 2-4 7-4 5-4c2 0 5-3 5-4l-2-3c-2-2-3-3-3-6 0-7 0-7 13-7 11 1 12 1 16 4 5 4 7 4 7-1 0-4 0-5 4-6 4-2 6-2 19-2a63 63 0 0030-3l2-3c2-2 2-2-3-9l-5-10c0-4-1-4-5-6-2-1-5-2-6-4-2-3-2-4-1-9v-8l-1-7-2-8c-2-4-2-7 2-11 3-3 3-3-2-6l-4-5-3-8-3-6 3-3c2-3 2-4 2-12 0-10 0-11-12-19-6-4-8-6-13-14-5-7-6-9-6-13 0-5 0-6 5-9 3-2 3-2 3-8-1-5-1-6 2-10l3-5 6 2c5 1 6 1 9-1 4-2 9-2 17-1 6 1 6 2 6 4 0 5 1 7 6 8 4 2 9 2 16 3 9 0 11 0 18-3 12-4 14-5 16-9 1-2 3-3 6-4 7-2 10-6 11-15v-7h4l9-4c3-2 6-2 8-2l3 1v-7l-1-13c-1-4-2-5-5-7l-8-5c-2-2-7-6-12-8-8-4-8-5-10-9l-1-4 4-3 6-4c1-1 1-1-2-5-3-3-4-4-7-3-3 0-4-1-8-4-5-4-14-9-20-11-3-1-4-1-11 2-6 3-8 3-14 3-8 0-17-2-17-3l5-15 5-14-5-12-6-11h-5c-5 0-6 0-12-5l-10-7-13-7c-8-4-8-4-8-9l-7-33-7-2c-5-2-7-3-8-5-2-4-1-6 3-10 3-3 7-13 5-14l-10-3c-10-2-10-2-11-6l-1-5-10-8c-10-7-10-8-10-12 0-3 1-4 3-6s2-3 2-9 0-7 3-8c3-2 3-2 2-5-2-4-1-4 5-4l5 1v-4l-2-9-1-11c-1-5-2-6-6-10-4-3-6-5-7-8 0-2-2-4-3-5-2-2-2-4-2-8v-7l5-2c3-1 5-3 5-4l-2-7v-7l1-13v-11h-9l-9 1-2-4c-1-3-3-4-8-6l-6-2 1-6v-5l-6-4c-5-3-6-4-6-7v-3h-7c-6-1-8-2-12-5l-6-4-5 3c-5 3-5 3-10 0-5-2-5-2-13 0-9 1-9 1-15 8-4 5-6 6-9 6s-4 1-12 9l-9 9-5-6c-8-9-9-13-8-21l3-11 2-4-2-3-11-8c-9-6-15-8-27-8h-6l-9 7-9 7-5-3c-4-4-5-4-5-9-1-6-5-12-10-14-3-1-20 2-24 5-4 2-6 1-11-1-3-3-5-4-8-11l-5-9-5 4z"/>
</svg>
