<svg xmlns="http://www.w3.org/2000/svg" viewBox="0 0 1024 1024">
  <path d="M539 3l-6 3c-2 3-4 2-4 0s-2-3-7-3c-3 0-6 1-12 6l-8 5-2 12c-2 11-3 12-6 16-4 4-4 4-3 6 3 3 2 6-9 18-9 11-11 13-10 15v14c-1 6-1 6-6 11-3 3-5 5-7 5l-4 1-4 2-4 2-6 4-4 2c-1 1 0 2 2 3 3 2 3 3 3 5-1 2-3 6-6 8-3 4-4 7-4 9l-1 4c-1 0-2 1-1 2l-1 6v7l-1 4c0 1-2 3-9 7-8 5-9 5-9 8 0 2-1 5-4 8-2 2-3 5-3 7s-1 4-6 8l-8 6-8 5c-5 4-6 5-5 6v5c0 3-1 4-3 5-3 1-7 0-11-5l-6-3c-2 1-8-4-8-7s-6-10-8-10c-5 2-8 2-9 1l-3-1c-5 0-6-1-6-5s0-4-7-7c-8-4-9-4-13-1h-7c-3-1-3 0-9 4-7 5-7 5-13 3-2 0-2 0-2 3s-1 4-2 5l-2 2-2 3c-2 1-2 2-2 185a2896 2896 0 01-10 312 16736 16736 0 01-20 305l1 4c1 1 4 0 4-2l3-3h4c1 2 4 0 4-2l2-2h3l2 3c2 2 8 3 10 0h2c2 2 7 1 9-1 2-3 6-4 8-1h11l8-2h7v4c0 3 0 3 3 3l5-1h5c14 4 19 5 24 3 5-1 6-4 4-9-3-4-6-15-7-21 0-5 0-5 5-10s6-5 13-8l8-6c5-3 5-4 6-8 0-5 7-12 12-12 3-1 3-1 4-4l3-5 1-4c0-2 0-3 2-3 3 0 17-7 17-9l-2-2c0-1 0-2 2-2l2-3 2-3 2-1-2-3c-2-1-2-3-2-4 1-1 0-3-1-5-2-3-1-7 2-7 2 0 3-1 3-2 0-2 1-3 6-3s6 0 6-2 1-2 3-2l6-2c3-1 4-2 5-1 3 2 3 1 3-5l1-7c2-2 6-1 10 4l7 5 2 1c1 3 3 2 5 0 2-3 2-3 1 1 0 4 2 4 3-1 2-4 3-5 6-5l6-1h3l-1-6 1-6c3 0 8-4 8-7 1-2 3-5 7-8s6-6 6-7l1-4 2-7c0-5 1-7 7-10 3-2 5-3 7-7 1-4 2-5 4-5 3 0 5-3 4-8-1-2 0-3 3-6l5-3 3-4 4-4c2 0 5-4 8-9l2-5-2-8c-2-7-2-8 0-10 1-1 2-3 2-8v-6l6-4c10-7 11-8 11-18l2-13c2-3 2-4 0-6l-3-8c0-6 0-6 3-8 2-1 3-2 3-4 0-3 1-4 2-4 2 0 3-1 4-3s3-3 6-4h4l-2-2-2-5c0-2-1-5-3-7l-5-10-2-7 2-3 3-6c0-5 3-7 10-9 9-2 11-3 11-9 1-4 1-6-2-11-2-4-3-7-3-11l-2-8-2-8-2-6-2-1c-1 1-8-1-10-4-1-1-3-4-3-7s-1-5-3-7c-1-2-2-4-2-13v-12c1-1 2-10 2-22l1-21 5-16a188 188 0 007-27l3-14c1-9 5-19 8-21 2-1 3 0 5 1 1 2 2 2 7 1 4-1 5-2 6-4 2-4 1-7-2-10-3-2-3-2-5-1-2 3-9 0-10-3 0-2-2-3-7-6-12-6-14-9-15-15l1-14v-9l4-2c3-2 4-3 5-7 0-3 1-4 3-5l3-3 3-6c4-6 7-17 7-28l2-17 1-18c0-6 1-8 3-12l2-6 5-8 4-8 5-5 5-5-1-2c-1-2-2-4-1-7 0-3 1-5 5-7 5-4 5-4 6-11l1-9 2-7 3-7c1-2 2-5 2-11l2-12c0-4 0-5-2-5-2-1-2-1-1-3v-5c0-2 0-2 2-2 3 0 4-4 2-8-1-3-1-12 1-22 0-2 0-3-2-3-3-1-3 0-1-17V53c-2-5-2-5-3-3s-2 2-3 2c-3-1-9 1-9 2l-5 3-6 3-6 2c-4 1-7 2-9 4-3 2-4 3-5 2-1-2 1-6 3-6l2-3v-2l-4 2c-5 3-6 2-6 0 0-4-2-5-4-4h-3l-5 2-7 2c-4 0-17 7-22 11l-5 6c0 2-2 3-2 3-3 0 0-6 4-8 2-1 3-2 3-4 0-4 2-7 7-11 4-3 4-3 2-4-1-1-3 0-10 3l-12 4c-4 0-7-4-7-9 0-4 2-6 16-14 9-5 14-10 14-13l4-4c4-2 4-2 3-5l-5-6c-3-4-4-4-10-4h-7c-2-1-3-1-4 1-3 2-7 2-8-1-2-5-6-5-13-2z"/>
  <path d="M751 124l-2 1c-2-1-3 0-6 5l-3 8-2 6-3 4-1 2c-1 0-2 1-2 3l-2 4-3 2 4 1 3 1-2 2c-1 1-3 2-4 1l-4 3c-2 2-2 3-1 5s1 3-2 8c-5 7-11 18-12 24-1 2-2 5-4 6l-2 5-2 5c-2 2-2 2-1 3 2 1 2 1 1 3-1 1-1 1 1 1l3-2 2-3 5-6c2-4 2-5 3-4 3 3-10 20-14 19-3 0-5 2-3 4s1 3-3 4l-12 1c-1 1 2 4 4 3l5 1c4 1 9-1 13-7a212 212 0 0022-34l6-14 3-4c3-2 3-3 3-7l2-7 2-6c0-2 1-4 5-8l8-6c3-2 3-6-1-9-2-3-3-4-2-5s1-3-1-5l-2-4h2c3 0 6 4 5 7-1 1 0 2 1 3l2 1c1 0 2-5 1-6l-2-4c0-3-1-4-4-5h-4z"/>
  <path d="M768 375l-2 4-2 4-2 3v2c1 1 5-2 5-4s2-5 3-5l2 4 3 5c1 2 1 2-1 2l-6 3c-3 2-3 3-2 4 2 3 1 5-3 5-2 1-5 2-6 4l-6 2c-5 0-5-2-2-5s4-4 2-4-10 8-10 10l-2 4-3 4-5 10c-4 6-5 8-5 11 0 4 0 4 1 3 2-3 6-2 6 2 0 2 0 2-3 2-4 0-6 4-3 7 1 3 1 3-2 7-3 3-3 4-4 9l-2 10c-3 7 1 22 7 26l3 4c0 3 2 6 4 6 2-2 1-4-1-7s-2-3-1-4c2-1 0-5-3-5-2 0-5-4-3-6 1-1 0-2-1-3-3-1-3-6 0-6l4 2c1 2 1 2 1-3l-2-6v-3c2-2 2-3 0-4-1-2-1-2 1-2 3 0 3-1 1-3-1-2-1-2 2-6 5-8 6-12 7-22 0-11 1-15 4-15 5 0 7-1 7-4l2-3h3v5c1 3 1 3 5 3 3 0 3 0 2 2-2 3-2 3 1 3 4 1 5 4 4 7-1 1-1 2 1 3 3 1 3 4 0 6l-1 2-1 4c-2 2-2 3 0 6v5c-2 1-2 2-1 4l1 2 2-3c2-3 6-2 4 1 0 2 0 2 2 2 6 0 6-12 1-20-3-4-3-6-2-8l-1-5v-3l-1-2-1-4-2-6-2-2 2-1c2-1 3-2 3-5 0-4 6-14 8-14l2-2 7-5c4-2 4-3 2-3h-9c-3-2-3-3-1-5 2-3 1-4-1-3-3 1-3 1-4-1 0-2-4-5-5-5l-1 3z"/>
  <path d="M756 470l-2 2c-3 1-4 5-1 5v1c-2 2-1 6 1 7l2 1-2 3-4 2-1 2c0 3-1 5-3 5s-2-1-2-2c1-2 0-2-1-2-2 0-3 1-3 4s0 3 3 4 3 1 3 7c-1 4-1 5 1 5 3 0 6-6 5-8v-3c2-2 2-2 1-4-2-3 0-6 4-8 3-1 8-7 8-10 0-1-1-1-8 1l-2-1 3-2c3 0 5-3 5-8l-1-2-4-1c-2 0-2 0-2 2z"/>
  <path d="M767 474c-1 1 0 4 2 4s4-1 4-3-1-2-3-2l-3 1z"/>
  <path d="M730 516c-2 0-2 1-2 5s1 5 7 3c3-2 3-6 0-6l-3-1-2-1z"/>
</svg>
