<svg xmlns="http://www.w3.org/2000/svg" viewBox="0 0 1024 1024">
  <path d="M523 80c-1 2-2 2-6 2s-6 0-8 2c-2 3-3 3-6 2-6-1-8 1-4 5 1 2 1 2-2 2-5 0-9 1-9 4l2 2c0 2 0 2-2 2s-2 1-2 4v4l-5-2c-4-2-4-2-5 0l-1 3c-1 1 0 2 2 4l3 2h-5c-3-1-4-1-5 2-2 1-3 2-4 1l-5 2c-3 3-2 6 1 6 2 0 3 0 2 2l1 3c2 1 2 1 1 3-2 3 0 5 3 3l4-1 5-2c2-1 2-1 1 1-1 1-3 3-5 3-4 2-4 3-1 6h4c2-1 2-1 2 1s1 2 7 1c2 0 3-1 3-2l1-2 2 1c0 2 2 1 6-3l4-4 6-3c1 0 0 3-3 8-2 5-4 6-7 7l-4 2 4 6 5 6c0 2-3 1-8-4-4-5-5-5-10-5h-4v3l1 5c0 2 1 3 3 4 3 1 8 8 8 12 0 3 0 3 3 3l5-1c2-2 2 0 1 3l-2 4-3-2h-8c-4 1-5 2-5 4l-1 2v10l2-2h3c0 2 1 2 3 1l2 1c-1 2 1 8 3 10 2 1 2 1 4-1 3-4 3-3 2 1s-2 4-6 4c-3 0-4 0-6-4-1-3-2-4-5-4-4 0-4 0-4 2l1 5 2 2c2 0 2 0 1 3l-3 3c-2 1-6 9-5 12 0 4 6 5 11 3 3-2 4-2 7 0 6 3 7 3 6 0-2-3-1-3 3-4 2 0 3 0 4 2 2 1 2 1 3-2s2-3 5-3c4 0 4 0 4 4v3l3-3 5-5 1-2 3-3c1-2 0-3-1-5h-3c0 2-4-1-4-3s0-2-2-2l-6 2-5 1v-4c0-3 0-3 2-2 3 3 7 2 11-2l4-4-2-3-2-4h2c3 0 8-4 8-6l-2-2c-1-1-1-1 1-2l2-2-2-2c-2-2-2-2-1-3 2-2 1-5-2-6l-2-2h-3l-2-1 5-1c4 0 5 0 4-3 0-2-1-2-3-2-10 2-9 2-8 0l3-2 6-3c2-3 3-4 2-6s-1-2 1-1c2 0 3-1 5-3 3-5 3-7 0-7-2 0-2 0-1-1l1-4 7-25v-6c-2-3-2-2-6 5l-5 6c-1 0-1-1 1-4l2-4-2-1c-2-1-2-1 1-2l6-7c2-5 3-6 2-11v-6l-6-2c-6-4-6-4-10 3l-2 2v-3l-1-5c-1-1-1-1-2 1z"/>
  <path d="M451 134l2 3v2l-4 1c-2-1-2-1-2 2l2 3c2 0 1 4 0 5l-4 3c-1 3-1 3 2 6l2 3h-2c-3-1-3-1-3 2l2 4 1 4 1 5 2 2 4-2c5-3 5-3 6 1 1 3 1 3-2 3l-5 2-2 2 2 4 5 5c2 0 3 0 2 2-2 2 1 6 5 6 5 1 5 1 5-1l2-3c2-1 2-1 2 1l1 1 1-3c0-2 0-3 2-2 2 0 2 0 2-2 0-6 2-11 6-14s4-3 2-6c-1-3-2-3-6-3-2 0-3-2-3-6l-1-4-2-5-1-4-1 3-2 3-1-3c-1-2-2-3-4-3-3 0-3 0-3-3 0-5-5-13-9-15-4-1-4-1-4 1z"/>
  <path d="M430 159c-2 0-1 4 1 7l3 2v-2c1-4 1-7-1-7l-1-1-2 1z"/>
  <path d="M408 176c-2 1-2 6 2 10 4 3 3 6-1 6-3 0-3 0-2 3s1 3 4 2c4-2 9 1 11 6 1 4 4 6 7 6l1-9c-1-7-1-10-3-12-3-4-7-7-8-7-1 1-1 0-1-1 0-2-3-5-6-5l-4 1z"/>
  <path d="M380 184l-7 2c-3 0-3 3 1 3l3 1 1 1 4 1c3 2 3 2 5 0s2-2 0-6c0-3-1-5-2-5l-5 3z"/>
  <path d="M435 192l2 6c2 3 3 5 1 5v4l2 3 5-3 5-2-1-4-3-7c-2-3-8-7-10-7l-1 5z"/>
  <path d="M370 196l-3 3-1 4v2l2 3c0 2 1 2 5 2 4-1 4-1 6-5l3-5c1 0 2-1 2-3s0-2-6-2l-8 1z"/>
  <path d="M334 203l-8 4c-3 0-4 1-4 3 0 1-1 2-5 2-5 1-5 1-5 4 0 4 0 4 2 4l2 1c1 2 1 2 3 1s2-1 2 2c1 3 4 3 6 0 0-1 1-2 3-2l4-3c2-5 5-8 6-7l-1 3c-2 3-1 7 1 7l4-2 4-3c0-2 1-3 2-3l1-4c-1-2-1-3 1-3 2-1 2-1 2-3l-1-3c0-2 0-2-3-2h-7c-3-1-4 0-9 4z"/>
  <path d="M414 207c0 1 4 5 6 5s3-2 0-4c-1-2-6-3-6-1z"/>
  <path d="M398 213c1 6 2 8 6 8 2 0 2-1-1-9l-3-4c-2 0-2 0-2 5z"/>
  <path d="M448 210c-4 1-7 5-5 5 8 3 12 4 13 3l1-4c1-2 1-3-2-4h-7z"/>
  <path d="M467 216l2 5c4 3 4 2 4-2 0-3-1-4-2-5-3-3-4-2-4 2z"/>
  <path d="M346 225l-1 2-4 2v3c1 2 1 2-1 2-4 0-6 2-4 4 1 2 1 2-2 2-5 0-6 2-2 5l4 5c1 4 1 4 6 4 3 0 4 0 4-2 0-3 2-3 2 0 1 1 2 2 7 2 7 0 7 0 7 3l-7 1h-9c-3 1-3 1-2 4l4 5c4 2 4 2 9 0l7-2 6-2c3-2 4-2 4-1 1 1 3 2 7 2 4 1 6 1 8-1l4-5 2-3c2-2 0-9-2-11s-3-2-5-1c-3 1-3 1-3-1l-2-2v-3c2-1 2-2 1-4l-1-5v-4c-1-1-2-1-6 3l-4 5 2 4c2 2 2 3 0 4v5l1 3h-6c-5-1-5-2-6-4l-1-4v-2c2-1 0-4-4-8l-4-4-1-2-5-1c-3 0-3 0-3 2z"/>
  <path d="M442 228c-2 2-2 2 2 9l4 8 5-1 5-2 3 8c4 8 4 8 3 11-2 3-2 3 0 6l2 6c0 2 1 3 3 4 3 1 11 0 13-2h2l1 2c1 1 7 0 14-1 11-1 13-2 14-4l2-2 4 2c4 2 4 2 5 1l3-2 3-3c0-2 2-4 3-5l2-1-2-2c-3-1-3-1-2-4 2-4 1-5-3-6l-3-1c0-1-1-2-3-2l-3-2c0-3-22 8-23 11 0 2-1 3-3 0l-5-1c-2 1-3 1-4-1-1-1-1-1-2 1l-1 2-1-3c-1-2-1-3-6-4-5 0-5-1-4-2l2-3 2-1c2 0 2-1-2-5-6-6-8-7-11-6-3 2-3 2-4-1l-4-3-5-2c-3-1-4-1-6 1z"/>
  <path d="M329 229c-4 2-5 3-4 4 1 4 2 4 7-1 5-6 5-6-3-3z"/>
  <path d="M402 234c-2 2 1 4 4 4s4-1 2-3-5-3-6-1z"/>
  <path d="M430 236h-3l-4-1-3 1 2 6 2 6-3-4c-5-6-7-6-7-1l1 4c2 1 1 3 0 3-2 0-7 4-7 6h6l8-1c3-3 3 1 0 5-2 2-2 4-2 7l1 4 5-1c7-1 9-3 9-7l1-6 1-3-1-7c1-4 1-5-2-9-2-4-3-4-4-2z"/>
  <path d="M403 243l1 4 7-4c1-1-3-3-6-3s-3 0-3 3z"/>
  <path d="M288 246l-1 2-2 3-1 5c1 3 0 4-3 6l-5 6-3 3c-2 0-14 12-14 14l4 8c4 7 4 7 2 11l-1 5c0 3 6 2 9 0h3l5 1c5 0 5 0 7-5l5-6c3-1 6-2 6-4 1-1 20-10 23-10s6-3 6-5l-2-8c-1-6-5-10-9-10s-9-6-9-10c-1-4-1-4-6-4l-8-1c-4-2-5-2-6-1z"/>
  <path d="M408 248c-2 2-2 2-1 3 3 1 5 0 5-3s-1-3-4 0z"/>
  <path d="M398 258l-1 3c-2 2 0 5 3 5 2 0 2-1 2-4s0-5-2-5c-2-1-2-1-2 1z"/>
  <path d="M447 258c-2 2-6 7-6 10-1 2 0 3 4 6 5 4 6 4 9 3l4-1v-6c0-6 0-7-3-10-4-3-6-4-8-2z"/>
  <path d="M80 339c-55 62-64 73-63 74l3 3c1 0 2 1 1 3 0 3 0 3 2 2 3-1 4-1 6 1 3 2 3 2 0 4-2 2-2 3-1 14v14c-3 3-2 4 1 4l6 1c2 1 3 1 5-1l5-3c0-1 1-1 5 1 5 1 6 3 4 7-1 4-1 12 1 20v10l-1 15c-1 9-2 12-3 13l-1 2v2c-1 2-1 9 1 10l1 2 3 6 3 6 2 3c2 2 1 2-2 6l-4 7c0 2-2 4-4 5l-2 3c1 1 0 2-1 2l-2 1-2 2c-4 0-6 3-6 10-1 6 0 16 2 17l2-1c2-2 8-3 8-1s-4 6-5 6c-2 0-2 1-1 4a32 32 0 010 10l-2 6c-2 1-2 2-1 5s2 3 6 3 5 0 5 2l-1 2-6 2c-7 2-10 5-6 8 1 1 1 1-1 2-4 2-4 5-2 10l3 5 5 3c3 3 3 4 2 6-1 3-1 3 2 6l5 3 3 2 2 3v11c1 3 2 4 4 4 3 0 4 2 2 4s-2 2 0 4c1 2 3 3 4 2l1 3 1 5c1 2 1 2-2 2a685 685 0 0054 25 833 833 0 00315 61l10 1v-4c1-6 4-5 5 0 2 9 3 10 7 10l5 1c1 2 5 3 9 1 4-1 4-1 8 1l5 4h3c2-1 2-1 5 2s7 4 11 1c3-2 15-2 17 1 3 2 8-1 8-6 0-2 3-3 5-3 2 1 4 0 4-3 1-4 3-5 3-1v2l2-2 1-6c0-3-1-2 7 0h9c4-1 10 1 11 4l4 7 3 5h6l7-2c2 0 2 0 2 3l3 6c3 3 3 3 2 6-2 3-2 3 1 4 2 1 3 1 3 4s1 3 4 4l6 2c3 2 4 2 17 1h15c2 2 9 1 12-1l2-2 6 6 7 6 5 5c3 4 3 4 1 6v4c1 2 1 3-1 4-1 1-2 1-4-1-2-1-4-2-6-1-2 0-2 0-3-2 0-3-9-8-11-8-2 1-2 1 2 5 4 5 5 8 2 13v10c2 11 1 13-3 18s-6 11-4 12 0 6-4 8l-4 4c0 3 3 6 5 4h4c2 0 3 0 3-2s6-8 8-8l3-4c3-6 5-6 15-6l7-1c1-1 0-2-1-3-2-1-1-2 6-5l11-4c2 0 2 0 0-4s-2-4-5-2l-6 1-3-1c0-3 3-8 7-11 6-5 20-12 22-11 3 1 9-1 9-3v-3l-1-1 8-6c6-4 9-8 12-13l6-7a652 652 0 0149-18l1-4 1-3 3-1c0-1 1-2 2-1 3 0 5-4 3-7v-4c2-3 2-6 1-9-3-5-2-34 2-34l2 2c1 3 2 3 8-1 4-3 5-3 9-2 3 2 4 2 9 15l5 13 4-1 3 1 3 5c2 2 3 3 6 3 4 0 11-4 11-8l3-2 4-5c1-3 3-6 5-7l3-5c1-6 4-5 3 0v4l9-4 9-3-3 3c-2 0-4 3-5 4-2 3-2 3-2 1 0-4-3 0-11 13-6 10-7 12-6 14l1 3c-1 1 0 3 2 6 3 3 3 4 5 3 2 0 4 0 5 2 3 1 3 1 4-1l2-3 1-2 4-9c2-7 3-9 2-10-2-4 0-6 3-5 3 0 5-2 5-4s1-4 5-6c4-3 20-23 22-26h-3l-3-1c0-2-5-4-7-3h-3c-1-1-2 0-5 3s-4 4-7 4l-5 1c-1 2-11 4-11 2l1-2h-12c-2 1-3 1-5-1l-5-3c-3 0-3 0-3-3s0-3-4-2c-3 0-3 0-2-2l1-5c0-3-3-9-4-9l-5 4c-3 3-3 3-5 2-1-2-3-2-7-1h-5l4-3c2-2 5-3 7-3l4-2c3-3 7-13 7-17s0-4-4-5c-3-2-5-2-10-1h-6l-13 12a81 81 0 00-30 50c-3 10-4 13-9 19-3 5-6 8-7 8l-9 12c-9 11-9 12-9 17 0 4 0 5-4 7-4 4-5 3-1-1 2-3 3-4 3-9 0-6 2-9 17-28 9-10 11-13 11-16l1-5 4-15 7-24c4-10 4-10 8-12l5-2v-10l1-9 4-5c5-4 30-18 33-18l11-5 10-5c1 0 6-2 12-7l10-7 2-8c1-6 2-10 1-13-1-5 0-8 4-10 2-1 3-3 3-5 1-2 2-4 5-5 3-2 4-4 7-9 3-8 4-15 1-16l-1-3c1-3 0-3-3-2-3 0-4 0-6-4-6-10-20-14-20-5l-2 2-1-2c0-1-1-3-4-4-4-2-4-2-8 0-5 3-5 3-3 5 1 1 1 2-1 4-2 1-3 4-3 6l-5 9-4 5v-5c0-5 0-6 4-10l3-7 5-8c4-4 5-6 4-8 0-2-1-2-2-2-1 1-4 0-5-1-3-1-3-1-5 3-1 3-2 3-5 2h-6c-9 0-11 1-13 2-2 3-3 2-3-2-1-6-2-6-9-5-5 1-7 2-8 1l-7-1-5-1 2-3v-8c-2-6-2-7-5-6l-6-1c-2-1-3-2-2-3 0-3-3-7-5-7-1 1-3-1-5-3-3-3-5-3-9-2-2 1-2 1-2-2s-1-4-5-7c-3-3-6-4-8-4-3 0-5-1-11-8l-8-8v10l3 24c0 5 0 5-2 6-1 0-2 1-1 2l-3 8-4 6-8-3-8-4-3 2-4 4c-1 3-3 2-5 0-1-2-1-2 1-2 1 0 2-1 2-4 1-4 0-6-3-6-1 1-2 0-3-3l-3-6c-2-3-3-4-2-5s1-2-1-5l-3-9c0-3-1-4-2-4-2 0-2 0-1 2 0 3-1 4-4 1h-4c-1 1-3 2-7 2h-6l-1-4c0-4-1-4-4-6l-6-1-4-1-6-4-5-2-5 4c-5 4-8 5-20 5-11 0-13 1-15 6-1 2 0 4 3 9 4 6 4 8 4 14l2 7c2 0 4 5 4 8l3 6c1 3 2 4 1 6v9c-1 5-1 7-3 8-2 2-2 2 0 6s3 5 6 5l10 5c5 4 8 7 12 14l5 8v13l-1 14-8 11c-6 10-8 12-12 14l-5 3 9 8 3 6c1 5 2 8 5 12l5 9 2 6c2 1 2 4 2 8 0 5 0 7 2 8 1 1 2 7 0 7l-2-2-2-2-3-1-1 4c-1 6-1 7-5 7-2 1-3 0-9-5l-9-8c-2 0-4-1-4-3l-8-8c-6-5-7-6-7-9l-3-12c-3-12-4-17-3-20v-6c-2-2-2-2-13-3l-14 1-6 1-3 1c-1 1-3-1-6-3l-8-4c-2 1-4 0-7-2l-9-2-4-2c-2-5-14-14-20-14l-8-3c-2-2-6-3-9-4-3 0-5 0-8 2s-5 3-8 3c-4 0-4 0-4-3a552 552 0 01-9-31c-1 1-3 0-4-1h-4c-4 1-6 1-6-1l-1-4a930 930 0 004-36c3-6 5-10 5-13 0-2 1-4 3-5 1-2 2-3 1-4l4-6 5-7 1-1 3-1c1-1 0-2-2-3-5-2-4-3 2-3s8-2 11-7c1-2 1-2-3-5s-6-4-9-4-5-1-8-3l-6-2c-3 0-4-2-1-3 1-1 3-1 6 2l9 3 8 2c2 1 3 1 6-1 2-1 3-3 3-5 1-3 1-3 6-3 3 0 5-1 8-4l4-5 2-5 2-8 1-5h-8c-6-1-8-2-12-5-3-2-5-3-8-3s-4 0-4-2 1-2 5-2c5 0 11 3 13 6s3 3 7 3c5 0 6 0 9-4l6-14-4-2c-6-3-5-4 2-4 5 0 6 0 6 2 0 3 7 3 8 0 0-2 0-2 2-1 2 2 4 3 4 1l-2-3v-3h3c1 2 2 1 5-1 2-1 3-4 4-7l3-5 1-7c0-5 0-5-4-8-3-1-4-3-4-5l-3-4c-4-3-4-5 0-5 2 0 2-1 4-5 2-3 2-5 1-5l-2-1v-3c0-3 0-3-2-3-2 1-4 1-6-1-2-1-3-2-2-4 0-2 0-2-3-2h-15c-4 1-4 1-4 4l1 5 3 5c2 2 3 3 2 4v3c1 2 1 2-1 2s-2 1-2 7l-1 10-3 6-2 6s-2 1-2 3c-1 3-3 3-4-1l-4-7c-3-5-4-9-3-12l1-1c0 2 2 3 2 1 1-3-1-9-6-13l-4-5c0-3-1-3-3 0-1 2-2 5-2 11-1 6-2 8-3 8l-2-5c0-3-1-7-3-9-3-4-3-5-1-7 2-4 1-4-1-4l-4-1h-2c-2 1-2 1-5-1l-2-2 2-2c2-2 2-2 1-3-2-2-1-4 1-4 3 0 4-2 1-2-2-1-8-12-8-17 0-4-6-15-9-14l-2-2c-2-1-4-1-4 1l-2 3c-2 1-2 1-1 2 2 2 1 5-2 5-2 0-3 1-3 6l-1 6 1 2 2 1-2 3c-3 3-2 8 3 14l7 4 3 2c1 2 1 3 4 2l3 1-3 1c-2 0-3 1-4 4-1 4 0 9 2 9l1-3c1-4 3-3 3 2 0 3 0 5-2 6l-3 6c-1 2-2 3-5 3h-3v17l-3-2c-3-1-3-2-4-7l1-6 1-3c0-3 0-4-3-4l-7-4c-4-2-4-2-4 0l-2 2-3 1 6 6 3 3c2 3 2 3 1 4s-2 0-3-1l-5-3h-4c-1 2-4 2-7 0s-4-2-6-1l-9 1c-5 0-6 0-9-4l-6-4c-3 1-7-1-7-2l-2-4-3-6c0-6-3-9-6-8l-9 2-10 3c-2 2-2 2 0 5 1 2 6 3 7 1 0-1 1-2 3-2l6-2c3-1 6-1 6 1s-9 7-12 7-9 4-8 6l2 15c0 3 0 3-2 2s-2-1-1 1l-1 2c-3 0-3-2-2-6s0-10-3-12l-2-3-1-2-2-2c-1-2-5-5-5-3h-10c-7 0-10-1-16-4l-10-3c-2 0-3-2 0-6 1-1 2-2 3-1 6 1 9-4 6-11-2-5-5-7-10-8-5 0-14-7-15-10l-5-5c-4-3-6-5-8-10-4-8-6-9-10-10l-4 1-2 3c-2 2-3 2-6 0-3-1-4-3-1-4l2-4 2-4c2-2 3-5 1-5 0-1-2 0-3 2l-4 3-4 2-3 3c-2 0-2-2-2-14s0-13-2-13-2 1-2 4c0 2 0 3-1 2-2-1-5 1-5 3l-2 2-2-1c0-3-9-4-13-2h-4l-5-1c-4 0-12 3-12 4 0 2-4 1-4-1-1-2 1-4 9-6h10c4 2 16 0 17-2 0-2 0-2-3-2l-3-1c0-2-20-2-22 0h-3c-1-1-3 0-7 1-8 2-15 2-15-1l-4-7c-4-4-6-8-6-15l-7-14c-2-2-9 6-66 70z"/>
  <path d="M543 286l-6 1h-4c0 3 2 7 4 10l3 6 3 3c2 0 4-1 4-3 0-3 2-4 9-3 4 0 6 0 7-2 2-2 2-2-4-7-7-6-10-7-16-5z"/>
  <path d="M328 289c-4 2-5 2-6 1l-9 3c-7 3-8 4-8 6l-1 3-5 4c-5 3-6 6-3 6s4 2 3 4c-2 2 0 3 9 3 7 0 8 0 8 2s-1 2-9 2-11 1-14 2l1 5c2 4 2 5 8 7l12 3c5 0 6 0 7 3l5 4c3 0 7 4 7 6 0 4-8 2-13-2-3-3-12-5-20-5h-7v3c-1 3 0 5 1 10 2 5 3 6 10 9l7 6 3 14 13 2 12 2 4-3c5-3 5-3 9-2s4 1 8-3 7-5 7-2c0 2 5 6 8 6 2 0 2 0 1 2-3 3-2 3 2 3l6 2h8c5-1 5-2 6-5 1-4 1-4-1-6h-3l-2 2c-1 1-1 0-1-1l-1-4c0-1 0-2 2-1l3-2c2-2 5-3 5-1l1 2h2c2-2 2-2 3-1 1 2 2 1 2-3s0-5-3-6-4-2-6-5c-2-4-3-5-4-4-2 0-3-1-5-6-3-6-3-7-4-24v-18l-4-7c-3-5-4-6-7-6-5-1-5-1-6 11l-1 10v4c2 4 2 4 0 5l-3 1-1-10c-1-14-6-23-10-18-1 1-1 2 1 3l2 1c2 1 0 3-3 3l-4 2-3 1c-2 0-2 0-1-2 2-2 2-2 0-7-1-3-3-5-5-6s-2-1-4 3c-2 2-3 3-5 3-4 0-4-1 1-4 3-2 3-2 2-7l-1-5-6 2z"/>
  <path d="M454 288c-4 2-6 4-6 6 1 1 0 2-1 2-2 0-2 1-2 11 0 8 1 12 2 14l1 6c0 3 0 4 3 5h4c2-2 3-9 2-13 0-2 0-2 7 0l5-4 3-7 3-7 2-7c0-2-1-2-5-2l-10-2-4-3-4 1z"/>
  <path d="M518 289l-1 3-4 4c-3 2-4 2-4 7l-1 11c0 4 0 5 2 6l3 1-2 4-2 6c1 3 2 3 5 3h4v5c1 6 0 6-2 6s-2 0-2-2c1-2 0-4-4-8-5-5-5-5-6-12-2-14-2-22 0-22l3-8c1-2 1-2-6-2h-7l-4 6-6 8v5c1 3 1 4-1 9-2 3-3 5-2 6l1 11c0 11 0 11 10 11 4-1 5 0 6 2 2 2 2 2 0 3l-4-1c-2-2-3-2-5-1-1 2-1 2 1 6l3 5 4 4c3 3 8 3 9-1 0-2 1-2 4 2 5 5 5 5 9 2 2-2 2-2 4 0h18c2-2 2-2 5-1l3 2-1-3c0-3 0-3 4-3h5c0 1 2 1 3-1 3-1 3-1-2-7l-2-2h3l6 1c3 0 3 1 5 5l4 4 2 1 3 1 6 2c3 2 4 3 4 5s-1 3-3 4c-2 0-2 1-2 3s1 3 3 3l3-4c2-3 2-4 5-3 1 0 4 1 5 3 2 1 3 2 4 1s2 0 2 1l6 5 10 9c5 7 6 7 4 9l-1 6c0 4-1 6-4 10-4 6-4 8 1 12 3 1 5 4 6 5l1 2-5 3-4 2-1 1c-1 2-7 4-13 4-7 0-8 1-7 4 1 2 1 3-4 6v4c4 9 11 12 18 8 5-3 5-3 4-6-1-2 1-3 6-2l4 1v-2l2-4 2-2 1 2c1 3 2 3 4 2 1-1 3 1 8 4s7 4 11 4h5v5c0 5 2 6 13 7l13 1c3 2 8 2 18 1 4-1 7 0 11 1s5 1 6-1c2-1 2-1 0-5-1-3-3-4-4-4l-5-2c-4-3-13-6-17-6l-6-5-4-5 5 2 10 3c5 2 6 2 11 1s6-1 9 1l3 2v-5c0-4 0-5-2-5l-4-4-2-3 2 1 4 1v-3c-1-2-2-3-5-4l-3-3-4-3c-4-1-4-1-3-3 2-1 2-2 1-3h-4l-4-3c-2-3-3-3-7-3-4 1-4 1-7-3s-6-6-9-3c-3 1-3 1-3-1l-3-3-3-3c0-2 0-2 3-1 3 2 6 2 6 0l-5-5v-7c1-2 4-1 5 1l6 3h7l3-2v4c-1 3 0 4 5 7 4 3 6 4 7 3h5c4 0 5-1 2-4l-2-7c-2-4-2-4 0-4s5-6 5-9c0-1-1-2-3-2s-2 0-2-3c0-2 1-3 2-3 2-1 3-2 1-4l-1-3c1-2 1-3-3-3-3-1-4 0-8 2l-4 2-1-4v-4l-3 3-2 4-3-2-5-4c-2-2-3-3-5-2-2 0-2 0-2-3 0-4-1-4-5 1-2 3-3 4-6 4-2 0-3-1-5-3-2-3-2-3-10-4-9 0-12-1-7-3 3-1 4-2 2-6-2-3-2-3 0-3l5-2c2-1 2-1 1-3h-14l1-3 3-4c1-2 1-2-1-3l-5-3c-2-1-2-1-2 1s0 3-4 3h-4l3-4 3-4-5-2c-5-1-5-1-7 1h-5c-2 2-2 2-2-1s0-4-2-4-2 1-2 3c0 4-2 6-4 5-2 0-3-2-1-6s1-7-3-8c-3 0-5 1-5 4-1 5-3 5-5 0l-3-4-3 3-4 2c-2 0-1-3 1-6 2-1 2-2 1-4s-2-2-4-2h-2c0-2-4-4-11-4-8-1-11 0-12 4l-1 5v2l-2-2-4-2c-2 0-3 1-3 6l-3 5v-6c1-2 1-3-1-4l-1-3c1-3-1-8-4-10-2-1-2-2-2-3 1-2 0-4-1-5-2-2-2-2-5-1l-5-1h-2z"/>
  <path d="M380 293l-1 3 4 7c5 7 4 7 9-1l2-5-2-3c-2-3-3-3-6-3-4 0-5 0-6 2z"/>
  <path d="M418 292c-3 0-3 0-3 4 1 3 1 3-1 2l-3 1c-1 2 0 7 3 7l1 5c0 5 0 5-2 5s-3-2-3-4c-2-5-4-5-6-1-2 2-2 2-1 5l2 6c0 2 1 3 4 4 4 1 10 10 10 15 0 2 1 3 3 4 3 2 6 1 6-3 0-2 0-3 2-2l6-2c4-3 5-5 3-14 0-5-1-5-2-4-2 0-2 0-2-3 1-3 3-4 5-4l1-2c0-2 0-2-3-2-9 3-9 2-6-3l3-4 1-2c2 0 2-2 0-4-1-2-2-2-9 0-3 0-3 0-4-2l-2-3-3 1z"/>
  <path d="M167 298c-1 1-2 2-1 4l2 3c1 0 5 0 9-2 6-2 7-3 6-4-1-3-1-3-2-2h-6c-5-1-5-1-8 1z"/>
  <path d="M426 380l-3 6c0 4-1 5-5 5-3 0-2 4 0 5l4 2 10 5 7 4 5-4 4-5h-3c-2 0-3-1-3-3l-3-6-4-5-6-7-3 3z"/>
  <path d="M591 389l-4 1v6l1 10c0 3 1 3 4 3 8 0 9-1 11-6v-6l-2-6c0-4 0-4-3-4l-7 2z"/>
  <path d="M605 389l-1 3c1 1 2 2 5 2 5 0 6-1 5-4-1-2-8-3-9-1z"/>
  <path d="M539 451l2 3 2 2c8 2 8-1 1-5-6-3-7-3-5 0z"/>
  <path d="M534 455c1 4 1 5 3 4 1-1 1-1-1-4l-3-2 1 2z"/>
  <path d="M527 456l-1 14 1 17c1 2 0 4-3 9l-4 7 7-1 7-1 1 5v4l4-1c4 0 5-1 5-2 0-4 3-9 6-9 2-1 2-1 1-5 0-3 0-4 2-5 3-2 3-2 3 0l3 2c2 0 3 1 3 2 0 2 2 3 7 4 7 2 8 1 12-4l2-3-2-3c-2-2-3-2-7-1-5 1-7 1-6-1 0-3-6-12-9-12l-6-3c-2-2-5-3-7-3s-3-1-3-2c-1-2-6-3-6 0s-2 1-5-4l-3-6-2 2z"/>
  <path d="M611 484c-2 1-2 2 3 4 3 2 5-1 2-3-1-2-2-2-5-1z"/>
  <path d="M602 490c-2 1-2 2 0 4 3 2 6 2 7 0 2-3-4-6-7-4z"/>
  <path d="M567 509h-7c-2 0-2 1-3 4l-1 6c-2 2-2 3 0 6 1 3 1 3 3 2l5-3c2 0 4-1 6-5 3-4 3-6 2-8l-1-4-4 2z"/>
  <path d="M593 517c-4 4-4 8 0 12 3 2 4 3 5 2 2-3 1-17-2-17l-3 3z"/>
  <path d="M6 570c-2 2-3 3-3 5l-1 3-1 5v22c1 7 1 10 3 11 2 2 2 2 3 1v-4l-1-9c0-5 0-6 2-7 2 0 2-1 2-4-1-2-1-3 3-6l4-3 5-5-3-1-3 1h-1l-1-3c1-1 0-2-1-2s-2-1-2-3c-1-3-2-3-5-1z"/>
  <path d="M931 603c-1 1-3 3-4 7-2 6-2 8-1 19a181 181 0 004 29c0 3 1 4 2 5 2 1 2 2 1 3l-1 6c0 3-1 5-3 7l-2 3 2 1h4c3-3 4-3 3 1l-2 7c-1 3-1 3 1 6l4 2c2 0 16-10 19-13l7-2c4-1 5-1 8-8l5-7c1 0 3 3 3 5v2l2-2c2-1 3-3 2-3 0-2 6-7 6-6v4l-3 7-3 6c0 1 0 2 2 3s3 0 6-2c2-3 3-4 3-10l1-16v-3c4 0 8 6 8 11 0 3 1 4 3 5l3 2v-5c0-4 0-5 2-5l2 2c0 2 5 7 5 6l2-4c2-3 2-4 0-11-1-6-2-7-5-10l-3-2-1 3c-1 8-4 6-4-2 0-5 0-6-2-6s-2 1-2 7 0 7-2 7c-1 0-2-1-2-3l-1-2-3-1c-1-1-1-1 1-4l2-8-1-4-2 5c-3 4-6 5-6 3l-2-1c-3-1-5-5-3-9 1-4-2-5-10-1-4 3-6 4-6 6l-2 3c-1 2-2 2-3 0s-1-2-3 1c-3 3-3 3-6 2-4-2-5-2-2-6v-4c-1-1-2 0-5 1-2 2-3 3-4 7 0 5-1 7-3 6l-1-10-3-12-1-2c3 0 3-9 0-10l-1-4c0-3-1-4-5-2z"/>
  <path d="M629 631c-2 2-6 10-6 13h3c2 1 3 0 6-2 3-4 3-4 2-8-2-5-2-5-5-3z"/>
  <path d="M20 662l1 4 3 4c2 2 2 2 0 2l-3 3c-1 2-1 3 2 5l3 5 3 5 3 3-2 3c-2 2-2 3 0 4l3 1 2 7c0 6 0 7 2 7 2-1 4 1 4 4 0 2 13 20 14 20l4-17-4-8c-3-4-4-6-4-9l-1-11c-1-5-2-7-9-15l-9-12c-2-3-5-5-9-6-3-1-3-1-3 1z"/>
  <path d="M857 691l-6 4h5l8 2c3 3 11 2 19 0 10-4 10-4 10-6s-6-3-20-3c-9 0-10 0-16 3z"/>
  <path d="M616 706c-5 2-6 4-3 5 2 2 17 4 18 4l-3-5c-4-5-6-6-12-4z"/>
  <path d="M906 719c-2 6 1 10 5 8v-2l-1-5c1-3 1-4-1-4l-3 3z"/>
  <path d="M929 724l-1 13-1 10 4 2c5 4 8 4 13-2l6-9v-6c-2-1-2-2-6-1l-6 1c-2 0-2 0-2-4 1-4 1-4-3-6l-4-2v4z"/>
  <path d="M915 742l-7 4-7 3-6 3c-3 1-6 1-7-3l-2-2c-2 0-3 9-2 10 2 1 12 3 18 2 12 0 17-2 14-6-2-1-2-2 0-6l2-5h-3z"/>
  <path d="M641 858l-7 1c-6 0-7 0-7 3-1 2 0 2 4 2l6 1 7 1 5 1v-4c0-3 0-4-3-5h-5z"/>
</svg>
