<svg xmlns="http://www.w3.org/2000/svg" viewBox="0 0 1024 1024">
  <path d="M251 1l-7 3-7 1c-5-1-14 1-19 3l-11 3-7 2-2 3-1 8c1 2 2 3 5 4 6 2 12 7 17 16 4 6 6 8 8 8 1 0 2-1 2-3 1-1 2-3 5-4s3-1 9 2c3 2 6 4 6 6 1 2 2 3 4 3 4 0 9 3 12 7 2 3 4 3 13 5 6 1 13 3 16 5l7 2 1-10 1-12c2-2 2-3 0-6l-4-13c-3-11-5-14-14-20-3-1-5-4-6-5l-8-6c-8-3-12-4-20-2z"/>
  <path d="M557 106l-6 4c-4 2-4 2-4 5s-1 4-4 6-8 9-8 12l6-2c6-4 8-4 13-4l13-1c5-1 6-1 14 2s10 4 16 10c7 6 7 7 8 12l1 7 5-2c4-3 4-3 4-8 0-3-1-6-5-13-7-14-16-21-30-26-5-1-9-2-12-1-4 0-5 0-6-2-2-3-2-3-5 1z"/>
  <path d="M619 254c-5 2-5 2-5 5l1 5 6 9c6 6 6 8 8 15 2 8 2 8 5 10l8 3c3 1 4 2 6 6l6 7c3 3 3 3 2 9l1 8c2 2 2 5 2 15 0 13 0 14 2 17 3 3 4 4 8 4 5 1 6 1 10-3 3-3 4-4 8-4l12-2c6-2 8-2 12-1 5 1 5 2 7 6 1 5 8 13 14 16 2 2 4 2 7 2 10-2 12-3 14-7l1-3-5-7-9-13c-3-5-4-6-6-6-3 0-3-1-6-6s-4-6-6-6-7-2-13-6l-18-11c-8-4-11-6-22-17l-22-20c-9-6-10-7-12-6l-6-1c-4-2-5-7-2-10v-6l-3-4-5 2z"/>
  <path d="M755 401c-2 4-1 5 3 5l6-2c3-1 4-1 4 1l-2 2c-2 1-2 2-2 4l1 5h2c2 0 2 0 2 2s1 3 2 3c3 0 5-4 5-11 0-5 0-5-4-8-4-4-5-4-10-4s-6 0-7 3z"/>
  <path d="M774 422c-3 1-3 1-2 3s2 2 6 2c5-1 6-1 4-4-1-2-3-2-8-1z"/>
  <path d="M779 433c0 2 0 2-2 2-3 0-3 1-3 3 0 3 0 3 4 3 3 0 4-1 7-3l3-6c0-2 0-2-4-2-5 0-5 0-5 3z"/>
  <path d="M784 452l-6 3-4 2c-2 2-2 2 1 2s3 0 3 3c-1 3-1 3 2 2l7-1c3 0 4-1 7-3l2-4-2-3c-2-5-6-5-10-1z"/>
  <path d="M798 468c0 2-2 3-3 4l-3 2 4 3 8 4 6 2c3 0 3 1 3 2 0 2 1 4 3 5l4 6c1 3 2 4 4 4 3 1 3 2-2 6-2 2-4 3-7 3s-4 0-4 2c0 3 5 7 8 7l3-1 1-2c-1-3-1-3 1-3l5 2c1 2 3 3 5 3 3 1 3 4 0 8-3 3-2 4 0 7 3 2 4 2 7 1l6-2c3-2 3-3 3-7 0-5 0-6-3-8s-4-3-4-5l-2-4-12-10c-7-7-9-9-9-11 0-3-1-5-6-10-6-6-8-8-13-9-2-1-2-1-3 1z"/>
  <path d="M121 470l3 4c4 6 4 10-1 13-3 2-4 4-6 11l-6 15c-3 7-3 8-7 8l-7 3-4 1v9c0 6 1 9 3 13l2 10c0 3 1 7 3 10l2 8c0 4 7 29 13 47 4 12 4 17 6 29l4 26 4 12-2 17c-2 21-3 22-8 31-3 5-5 8-9 10l-4 4-2 12-2 9 4 11 6 19c2 6 4 11 4 16 1 14 2 15 20 25 19 9 31 18 44 30 8 8 10 11 15 19 5 9 8 13 21 27 14 15 16 18 20 26 3 7 6 10 16 21s12 14 14 19c2 4 3 7 7 10 5 4 5 4 27 13 18 7 23 8 33 4 5-2 7-3 11-9 5-8 14-12 26-14 4 0 10-1 14-3 5-2 7-2 12-2 5 1 6 1 12-2l13-6 11-3 6-2 3-9c3-10 4-16 1-24l-1-9c0-5-3-11-6-14-5-4-32-16-32-14l1 4c2 3 3 4 7 6l5 2-2 2-3 2h4c5 0 6 2 2 3s-2 2 4 3c4 0 6 1 6 2 0 2-1 2-2 2-3 0-3 1-3 3 0 3 0 3-5 0l-5-2 2 4 2 5-5-2-6-3 1 4c3 5 3 5 0 5s-5-3-5-10v-6l-5-1c-5 0-6 1-4 3l1 3c0 1 0 2-2 2-3 0-5 4-3 8 1 3 1 3-2 3-1 0-4 1-5 3-3 2-3 3-3 8 0 9-1 11-4 13-2 0-3 2-3 3l-2 1c-2 0-3-1-3-2-1-3-1-3-6-3h-6v5c0 7-2 10-8 11l-7 3-5 4 1 3c1 3 1 3-9 6h-12l-6-2-6-7c-5-7-9-8-13-4-2 3-3 3-6 2l-4-5-1-7c-2-5-2-5 0-6l4 3c4 5 5 5 5 2s-7-12-14-21c-2-2-3-4-3-7 0-4-1-5-5-9l-12-21c-6-12-8-15-10-16s-3-3-9-18c-6-21-9-25-18-31-6-5-6-5-6-9s-1-6-7-14-8-11-9-15l-4-12-3-8c-1-2-1-1-2 3-1 6-2 8-6 8-2 0-3-1-5-3l-5-5-3-2-2 4-2 8c-1 7-4 12-9 16-3 3-4 3-6 3l-5-1-3-3c-1-4-5-6-9-4-2 0-2 0-2-11v-17c-1-5-1-6 3-17l6-14c2-3 3-5 3-16 1-11 1-14 3-16s2-4 2-8c0-6 1-8 7-19l2-11 2-17c1-9 1-11 3-12l6-5 5-3-3 10-2 11c2 1 8-6 9-10 0-2 1-3 2-3l5-1c3-2 3-2 3 0l-2 4v8l1 8c0 4 0 5 3 3 1-1 3-1 5 1 4 1 4 1 3 5-2 6-1 8 2 8a685 685 0 00-1 15l-2 11-6-1h-5l-2 4c-2 6-4 13-4 19 0 4 0 5 3 6h8l7-2c3 0 3 0 3 3l-1 5c-2 3-1 3 5 2 5-2 6-2 7 3l1 4 2-5c3-6 5-18 4-26 0-4 0-9 2-15l1-10-3-6a276 276 0 00-15-23l-7-14a635 635 0 00-17-45l-7-18c-4-8-10-29-10-36l-2-6-1-10c0-8 0-8-2-9-2 0-3-1-3-6l-6-16c-5-12-9-29-8-36 1-8-5-14-14-14l-3 1z"/>
  <path d="M825 537l-5 1c-3-1-4 0-2 6l1 6c1 4 7 5 10 1 2-2 4-2 12-3h9v3l-2 7v7c1 1 3 3 5 3l5 3c1 2 1 2-4 4-4 2-5 3-9 2-6-2-13-7-14-10 0-4-5-4-5-1 0 2-1 2-3 2h-3l3 4 4 6c0 2 1 2 6 2l14 1c7 2 8 2 13-1 7-3 10-6 11-15l1-7-6-9c-8-10-7-10-20-8-7 1-7 1-12-3-6-4-6-4-9-1z"/>
  <path d="M817 598l7 3c1-1 3 0 4 3l3 3h-3c-3 0-3 0-3 2 1 2 1 3 6 3 3 0 7 1 9 3 5 3 11 3 14 0 4-3 4-9 1-13-2-3-3-3-7-3l-13-1-15-3h-7l4 3z"/>
  <path d="M822 619v4l5 1c4 0 7 0 10-2l4-2-3-3-9-2c-6 0-6 0-7 4z"/>
  <path d="M850 624c0 3 0 3 4 2l5-1c2-1 2-1 0-2l-6-2c-3 0-3 0-3 3z"/>
  <path d="M836 638l-5 3c-2 1-2 1 0 2 2 2 2 2 7 1l10-1c6 1 9 0 9-3l-2-2h-19z"/>
  <path d="M851 650l-8 5c-4 4-4 4-3 6h5c3-1 3-1 3 3 0 3 1 4 3 6l4 3h-4c-2 0-3 0-4 2 0 2-1 2-4 1-4 0-4 0-4 2l-2 3c-2 1 4 6 8 7 3 0 5 1 7 3s2 2 6 1l6-2h2l-2 2-4 7 5 1 5 1-4 7-2 1c-1 1-1 1 1 5l4 11c2 5 3 8 6 10 3 3 4 5 4 8 1 5 0 6-1 4s-4-1-4 1c0 3 11 13 14 13s4 1 5 9l3 3c3 0 8 7 8 10 0 1 1 2 3 2l2 3 3 6c2 3 2 3 1 11-1 7 0 9 1 11 3 5 1 12-3 14-2 2-3 2-6 1l-4-2-1 5v5l-5-3c-5-3-6-3-18 1-7 3-8 4-8 6s0 2 4 2c3 0 4 1 7 3 3 3 5 10 4 12l-3-1h-14c-1 0 0 4 2 7l3 7-3 6-5 9c-4 3-5 11-3 13s1 3-1 5c-2 1-2 2-1 6 0 4 1 5 3 6l2 4c2 6-12 21-26 26-4 2-6 4-7 6l-2 3-2-4c-3-3-4-4-6-4-1 1-4 0-6-2-5-2-5-2-6 0l-6 2-7 1c-3 1-4 1-7-3s-5-5-12-7l-7-2-3-5-2-7-3 2-5 2c-5 0-11 2-12 4l-4 3c-2 0-3 1-2 2l3 12c3 11 3 11 1 14-1 2-2 4-2 9 0 11-3 21-6 21l-3 2-3 2c-2 0-14-9-18-12-3-3-6-12-6-18 0-5-1-5-3-1-2 3-3 4-6 5-5 1-11 7-15 14l-3 5 4 3c3 3 4 4 4 6 0 3 0 3-4 3-3 0-3-1-6-8-2-6-3-10-3-16l-1-10c0-2 0-2-4 1-2 3-3 4-3 7v3l-3-1c-3-2-4-3-2-4l1-4c0-2 0-2-7-4-1-1-1-2 1-4 3-4 2-9-1-13-3-3-5-2-9 5-3 3-4 5-5 4-2 0-2-1-1-3 1-1 1-1-2-3-3-3-4-3-6 2-1 3-2 3-4 3-4-1-7-5-7-8l-2-5c-1-2-1-2 1-4 3-4 4-16 2-19h-4c-4 1-4 2-6 7v8c1 3 1 4-1 7l-1 15v10l4 5c2 3 4 4 6 4l6 3c3 4 7 6 18 8s20 7 23 11l3 7 2 10 1 4 7 1c6 1 7 1 22-3l28-7c10-3 14-4 31-12a1132 1132 0 0031-14 424 424 0 0058-26 582 582 0 0125-23c5-5 7-7 10-17 9-25 15-38 23-51l16-28 7-15 1-13c1-18 0-22-5-30-3-3-5-8-6-10l-7-15a224 224 0 01-15-31 197 197 0 01-23-55c-1-1-4-6-5-11-6-14-7-14-11-14l-8 2z"/>
  <path d="M318 921c-10 6-10 6-6 6l15-2 14-3c5-2 5-2 11 0 5 3 5 3 3 4-4 3 0 4 8 1 5-2 9-2 14-2 6 0 7 0 7-2s0-2-4-2l-9-2-10-1-7-1-14-1-11-1-11 6z"/>
  <path d="M555 938c0 4 0 4 3 5l6 1c3 0 4-1 4-5v-4l-2 2c-2 2-3 2-3 1 0-2-5-4-7-4l-1 4z"/>
  <path d="M457 948l-2 3 5 5c5 6 8 6 9 2l-1-4-5-5-3-4-3 3z"/>
  <path d="M559 963c-2 1-2 2-2 6 1 4 1 4 4 5 5 0 6-1 5-5l-2-6c0-3-2-3-5 0z"/>
</svg>
