<svg xmlns="http://www.w3.org/2000/svg" viewBox="0 0 1024 1024">
  <path d="M709 2l-5 1-1 8c-2 8-2 8-5 8l-6 2-11 4-7 2-10-4-11-4-3 3c-1 2-2 3-7 5l-24 9-21 7-3-2-12-4-10-3-5 4-6 7c0 3-1 4-4 4s-3 0-3 4l-2 9c-1 4-1 5-4 5-4 1-11 0-29-4l-12-3-4 2-4 2-5-3-11-2c-4 0-7-1-12-4l-7-3-7 1c-6 2-7 2-10 0l-4-4-1-4c-1-4-5-8-9-8-5-2-19-11-24-17l-5-5-6 1-21 7-15 6-2 5-5 8c-3 3-4 5-4 9-1 5-1 5-6 7l-6 3v19c1 17 1 18 4 23l3 5-2 9c-3 13-6 21-13 32-8 12-17 32-17 37l2 13 2 10-3 5c-3 4-4 6-5 12l-2 7c-2 1-4 3-6 7-2 5-2 5 0 8 2 2 2 4 2 8-1 5-1 6 1 8 3 2 3 2 1 8-1 6-2 7-4 8s-3 2-7 13l-4 11 2 7 3 6-4 6c-3 6-3 7-7 7-5 1-6 2-7 7v4l-10 5c-15 7-21 13-30 33l-8 15-8 7-9 7-1 10v32l1 23-5 7-8 16-4 9-5 1-11 3c-4 2-5 3-6 6s-1 3-5 4c-5 0-5 0-8 4-1 3-6 8-10 13l-13 16-4 6-7-2c-8-2-12-5-13-13-1-4-1-6 1-9l2-4-2-5-4-4-10 6c-9 6-9 6-13 5-8-3-9-1-11 7l-2 8-8 2-7 2-7-3-8-4-11 5c-6 3-11 7-15 11l-6 6v39H9l-7 1c-2 0-2 1-1 5l1 6c0 2 10-1 12-3l6-2 4-1c0-1 1-2 3-2l7-1c5-2 18-2 92-2h87l2 2 2 3 3-2c2-2 4-2 6-2 3 1 4 2 7 9 4 7 4 8 3 15 0 9 4 25 8 29 3 2 5 9 5 14-1 3-1 4 3 9l6 9c1 4 7 12 12 17 2 2 4 6 5 11 3 9 4 10 12 8h21v-4c0-3 0-4 2-4l6 1 13 1c8-1 9-1 9-3l-1-5-1-3h11l2 5 2 4h12l17-2h5v-8l-1-9c-1-1 0-2 3-3l4-1v-24l2-5h17l19 1c3 0 3 0 4-2 0-3 1-3 8-3h7v5l-1 10v5l24-1 31-1h8l1 5v14l-2 9 2 8 5 18c2 10 2 11 1 20a366 366 0 00-5 35l-1 6 4 9c4 11 4 12 11 16l5 3 3 14 3 22v7l-3 1c-4 2-4 2-3 7l2 12 3 7h5c4-1 6-2 9-6 1-2 1-2 5 0l4 2 3-2c3-3 4-3 11-2 8 0 8 0 12-3l4-4 16 1c16 1 17 1 22-2l5-2 2 3c1 3 2 3 5 3 6 0 11 4 12 11 0 4 0 4-3 8l-4 4h4c9 2 11 2 15-2l18-7c13-4 13-4 16-2 2 1 2 2 2 11l-1 10 3 2 4 5c1 2 1 2 4 1s5-1 14 3c9 3 10 4 11 6 1 5 1 5 4 5 11-2 17-2 27 0l11 3 5-2c5-3 5-4 6-14v-7l4 1c6 1 6 1 7 7 0 5 0 5 4 7 2 1 3 2 4 5l5 11 4 7h7c5 0 7 0 8 2l6 5c6 2 9 2 21 0 3 0 3 0 4 5l1 9c0 4 4 13 6 13l3-1c3-1 3 0 6 3l4 7 5 12c4 9 4 9 7 9 2-1 3-1 5 1l2 2 9-6c9-5 10-6 14-5 3 0 4 1 4 2-2 4-2 6 0 7 1 2 2 2 4 1l3-3 1-33v-31h-4l-9 3c-5 1-5 1-4 4 2 6 2 6-5 4l-11-2c-4 0-5 0-15-11-6-6-13-13-17-15l-6-4-2-9-2-10 3-8 6-20c2-10 3-12 5-13 3-1 3-2 0-19-2-13-2-13 0-23l2-10-7-15-7-15 9-7c7-4 10-7 15-13l6-9-1-7-1-7 50-7 49-7a558 558 0 00-24-62c-5-7-8-10-14-14l-8-5-7-16-7-16 2-6c2-6 2-7 1-11-1-2-3-10-3-17-2-11-3-14-7-23-3-9-4-11-4-18l2-13 2-6-4-17c-5-16-5-17-6-37v-20l-8-8a74 74 0 01-15-24l4-3 9-9 6-7v-14l7-8 12-15 6-7-2-4-1-8a451 451 0 005-48l2-17 4-1c3-2 4-2 7-12 3-8 3-11 3-18v-8h8l2-7c3-6 3-7 8-8 7-3 10-5 20-14 21-18 27-25 31-33 6-10 5-12-3-17-6-2-7-3-14-3h-7v-5c-1-4 0-7 3-14l3-8-3-4-3-4c-1-1 1-5 3-12l5-11-5-6-8-12-3-6h-5c-4 0-5 0-6-3l-8-9c-4-4-9-10-11-15l-7-9-10-1h-8l-3 6-3 6-13-2c-10-2-12-3-14-5-3-4-7-3-9 2l-1 3h-8l-17-3-8-2-2-5c-2-5-3-6-13-11l-27-15-16-8-6 5-6 5-4-2c-4-2-5-2-11-1-6 0-8 0-18-3-9-3-13-4-19-4s-8 0-13-3c-5-4-6-4-13-3z"/>
</svg>
