<svg xmlns="http://www.w3.org/2000/svg" viewBox="0 0 1024 1024">
  <path d="M622 164l-5 2c-2 2-5 3-7 3l-7 3-9 1c-4 0-7 0-9 2l-6 2c-4 0-5 1-9 8l-5 7 2 9c4 11 3 15-4 22-4 4-7 5-9 5-3 0-8 5-12 12-3 4-4 5-8 5-5 1-7 3-12 11l-6 5-3 3-2 5-2 7c-1 2-2 4-4 4l-4 4-9 8-8 6-5 4c-4 1-5 2-7 7l-1 4h-30l-7 5c-7 4-8 4-13 5l-14 2c-8 2-9 2-15 0-15-3-30 0-36 7l-3 4c0 2 4 6 12 11 2 1 2 2 1 7-1 4-2 6-8 12-15 15-25 26-26 30l-2 4-24 2c-21 1-24 1-28 3-5 2-5 2-12 1l-7-2-10 5-17 9-15 8-10 6-10 3-9 3-9-8c-8-6-9-7-9-11-1-6-4-5-7 1-4 6-9 10-25 15-7 2-14 4-16 6-4 2-4 2-23 2H80l-4 6-7 9c-4 3-5 5-5 8l-6 14c-6 10-7 11-10 13-6 2-9 7-9 11s-3 14-7 20l-3 8c0 5 0 5-11 10l-14 9-4 3 4 5c3 5 5 6 8 6 7 2 10 15 7 29-1 4-1 5 1 7l2 3-3 4c-3 6-2 11 3 15 3 1 3 2 3 8l-2 11c-2 3-2 5-1 7l1 13v10l5 5 11 7 12 8 6 5v9c1 12 5 25 9 30 20 29 27 39 34 45 7 8 8 8 13 9 5 0 5 1 7 4 1 2 2 3 5 4 2 0 4 1 6 5s2 4 1 9c-2 4-2 5-1 8 2 2 2 6 2 13s0 10 2 11l3 8c2 9 2 9 3 7l4-2c2-1 4-4 13-24 10-23 10-23 10-30-1-6 0-7 2-12 3-5 3-7 3-14v-8l7-2c6-1 9-3 13-6 5-5 5-5 11-5 5 0 8-1 14-3l9-3 8-2h18c10 2 13 2 14 4 2 2 4 2 8 2l13 2c7 2 8 2 15 1l11-3 4-2 5 3 6 2c1-1 1-6-1-16l-1-20-1-19c-1-6-1-6 2-8 1-2 5-4 8-5 5-3 5-4 8-10 1-4 4-8 6-11 5-6 9-15 9-19v-4h5l11-4a192 192 0 0132-11c3-3 16-1 18 2 4 5 6 7 15 12l13 9c3 2 6 5 8 5 5 2 12 11 15 17 2 4 3 5 8 7 5 3 6 3 9 2 5-2 19-1 21 1l4 1c2 0 4 1 6 4 4 3 4 3 10 3l11 2 13 4c8 0 8 0 10-2 2-3 3-3 7-3l21 6c18 6 26 7 32 5 4-1 8-5 8-7l3-6c2-4 3-6 2-8-1-3 0-5 4-6 3 0 4-1 7-7 3-7 4-8 13-12l5-3 3 2 5 2c4 0 13 4 18 6 4 2 9 2 12 0l6-3 11-4 12-3 8-2c2-1 6-3 10-3l10-5c2-2 5-3 6-2 2 0 9-4 10-8l4-2c4 0 16 5 20 8s10 4 14 2c4-3 13-4 18-4 3 1 4 1 6-2 2-2 3-3 5-2 5 1 6-1 6-10 1-4 1-8 3-9l1-3c-1-2 2-4 10-4l6-2h2l4 2 6 3 4 2 2 1c1 1 8 2 11 1 2-1 3-1 4 1h12l5 1 5 2 5 2 3 1c1 1 2 2 3 1l5 2c2 2 3 2 8 1l8-1c3-1 7 0 9 2l4 2c3 0 4 0 6-4 4-8 13-10 23-7 11 5 17 8 18 11s3 3 3-1-3-9-8-12c-3-2-4-4-5-9l-4-8c-1-1-1-2 1-4 2-3 2-9-1-9l-1-4-1-6c-3-4-14-10-18-10l-4-2-5-2c-2 0-3-1-3-3 0-3-7-6-11-6-3 1-4 0-8-4l-5-5-3 3c-4 3-5 4-5 2s5-8 7-9c3-1 3-2 3-4s-2-3-9-7c-5-3-10-6-11-8l-3-3 4-7 3-7-4-6c-5-6-6-6-15-8-2-1-4-3-7-8l-7-9-12-7c-8-6-8-6-16-6h-7l-3-4-8-5c-3-2-4-3-4-5 0-3-1-3-4-5l-7-5-3-4 4-4c4-3 4-4 4-9s0-6-4-9c-3-3-4-4-7-4s-5-2-16-12l-13-12h-7l-8 1-11 2c-8 0-10 0-14-2l-5-2v-10l-1-9 4-4c3-3 3-4 3-9v-4l-17-2c-15-2-22-2-26-1-1 1-2 0-3-2-1-3-2-4-5-4-4 0-6-3-3-8 2-5 1-7-5-6-3 0-4 0-4-2-1-4-1-5 6-9 5-4 6-4 6-8l2-4 1-24v-23l-11-16a791 791 0 00-36-46c-5-3-6-5-14-17l-4-9h-8l-14-1c-6-2-9-2-12-1z"/>
</svg>
