<svg xmlns="http://www.w3.org/2000/svg" viewBox="0 0 1024 1024">
  <path d="M810 6l-6 7-5-2-5-1-3 3c-3 3-5 3-14 4l-14 4c-4 1-4 1-12-2l-9-2-3 4c-2 4-2 4-8 3-4-1-5-1-13 2l-8 3-2 10-9 21-5 11 3 6 3 6-3 1c-3 0-3 0-3 4l2 12 1 7-15 35-16 37c-1 2-2 2-7 0-11-2-10-3-10 15v16l5 13 5 13-6 4-6 5-1-8v-8h-10c-8 0-10 0-12-2l-11-10-9-7-13-4-13-3-6 5c-6 4-7 5-11 5-5 0-5 0-5-3s-1-4-5-7l-5-3-6 3-8 3-6-5-6-4-4 1-5 2v-6l-1-6-4 4-5 4-2-4-1-5h-14l-5-6-7-6-7 9-6 9-4-4-2-5h-65c-61 0-65 0-65 2l-2 8c-1 6 0 5-14 16l1 6 2 7-3 5c-4 5-4 6-4 14v9l5 7c5 7 5 7 5 13 0 7 0 7-5 13-5 7-5 7 4 9 4 1 6 1 15-2l16-3c5 0 6-1 11-3 4-3 6-4 13-5 15-2 14-2 14-7v-5l7-1 6-2 10 6 10 7 6-3 7-3 6 4 6 6a333 333 0 01-3 21l5 2 7 2 8 10 6 10v15l-6 5c-7 5-7 5-7 10s0 5-8 11c-8 7-8 7-20 5l-7-2v4l2 6c0 3 0 4-6 8-5 4-8 7-13 14l-6 10 5 12 4 11-3 4c-10 13-9 11-8 16l2 6 16 5 16 6 2 8 1 7h17l12 11 13 12-5 8c-4 7-4 7-3 11 1 3 1 4-3 13l-5 9 7 15 5 15a319 319 0 00-8 6l6 5 6 5-4 3c-5 3-6 3-4 11l2 5-5 5-5 4 5 5 4 5h-6v23l-9 3c-11 4-10 2-12 17-1 9-1 9-6 14l-5 4 6 7 6 6h-4c-4 0-5 0-8 9l-3 7-16-1-16-2 3-7 3-8-16-23-18 17-18 18-21-3-29-3h-7l4-5 5-5-8-6-8-7v-4l-3-15-3-10-10-5c-9-5-11-5-17-5l-15 2-7 1v17l5 3 4 4-5 16-4 16-24 3-24 3-4-3-3-3-14 4-15 5-7-6-8-6-1 11v11l5 8 3 9-8 7c-7 5-7 5-7 10l1 5 6-3 7-3 7 14 8 14h-5c-5 0-5 0-1 15l7 7c6 4 7 5 12 5 4 0 5 0 9 4l4 5-5 3c-4 3-16 16-17 19l6 8 6 6-3 5c-3 4-4 4-6 4l-11-2-8-1-5-10c-4-8-5-10-10-13l-5-2-3 8-4 7-6-1-6-2-7 5c-6 5-6 5-13 19l-5 15 11 9c10 7 11 8 12 12s8 15 12 19l22 18 19 17-1 6-1 6 4 4 5 2-2 5-1 5 13 13 13 13 8-6 8-7 2-9 1-9 3 3c3 2 3 2 9 1 7-1 7-2 9-6l3-12 2-7 13-2 16-4 7-9 6-7h13l1 4c1 3 3 7 10 13l8 9 4-2 5-1 9 11 8 11h13l3 7 3 6 3-5 5-8 2-3 4 3 5 3 4-5 8-6 4-2-1-15-1-14 4-5 5-4 5 7 5 6h13l3-5 3-5h10c9 0 10 0 12-3l16-11 4-2-2 5-1 4 6 7 6 6-6 7-6 6 3 7 3 7-1 12-2 13 8-3 8-3 7 6 6 6 6-3 12-6c5-3 6-5 10-14 5-9 6-10 17-19 9-8 11-11 14-16 3-6 4-6 11-9l14-4h7l5-8c4-6 5-10 6-15l2-8c2-3 17-8 27-9 9-1 18-3 21-5l4-10c2-8 3-9 6-11s3-2 5-12 6-19 13-28c4-6 4-6 3-9l-2-31v-27l4-12 3-16-3-15c-4-10-4-11-4-23v-12l7-8c3-5 13-14 21-22 13-12 15-13 24-27l10-14 1-10 2-10 10-11c5-7 15-16 21-21l11-10h9c9 0 11 0 17-3 5-3 8-5 12-11l18-19 17-20 4-8-1-14-2-23c0-8 0-8 5-18l8-22 3-13 7-7c6-7 6-7 8-14 2-12 2-12-5-15l-6-3v-10l1-15c2-4 2-6 0-10l-1-15v-9l6-7 6-6-1-11-2-11 5-5 5-5 2-13v-23l-2-9 3-9c3-9 3-10 3-26v-16l7-7c6-6 7-9 10-15l6-13c5-8 10-21 10-26v-5l8-3 8-3V81l8-8 8-8 2-15 1-16c0-1-2-3-6-5-6-3-7-4-11-11l-6-8-5 3c-4 3-5 3-13 3h-8l-1 6c-2 7-2 8-9 10-2 0-2 0-2-6s0-7-2-7l-10 2-8 1-3-3-3-3-6 2-6 1-1-4c0-5 0-5-3-5l-23 3c-3 0-3-1-8-6l-5-7-7 6z"/>
</svg>
