<svg xmlns="http://www.w3.org/2000/svg" viewBox="0 0 1024 1024">
  <path d="M392 3c-5 2-5 2-8 1-6-3-9-1-9 4l-2 7c0 3 0 3 2 4 2 0 2 0-1 5-2 3-3 3-7 3l-13-5c-8-4-9-5-10-7 0-3-5-7-6-6l-2 6c-3 5-3 9-4 16v10l4 3 5 4-6 7-6 7-4-3-3-4-8 2c-6 2-10 2-16 2l-8-1-4 5-4 6 3 7 3 7-6 4-7 4c-1 1-3-1-5-3-1-3-5-6-9-9-6-3-7-3-15-3h-9v-3c0-2 0-2-2-2l-7 2c-5 0-6 0-4-4v-7c-1-3-2-4-6-6l-5-1v-6c0-4 0-5-3-7l-2-3-9 3c-9 3-12 3-17-2l-2-3-8 6c-9 7-10 9-6 15l2 3h-3c-3 1-4 2-11 12-6 10-7 11-10 11l-7 3-6 2-4-1-6 8c-5 8-6 9-12 13-6 3-6 4-10 12l-4 9 2 1 3 1c2 0 2 0 0 2-1 2-1 2 2 5 4 4 4 4 3 8l-2 14-4 15-2 10c0 5 0 6 6 16l6 10 7 1h11l9-1c3 0 4 0 4-2l3-2c3 0 3 4-1 9l-2 9c0 3-1 6-4 10-3 5-3 6-2 9 0 2 2 4 3 5 2 2 3 2 6 0 5-2 6-2 5 1s0 3 3 6l8 5 5 3-3 2c-3 2-4 2-7 0l-4-2-4 3c-2 3-5 4-8 5-5 1-6 2-4 7 1 2 0 3-1 5l-4 12-2 10 3 4c3 4 4 4 7 3h16c4 0 4 0 6 6l7 19c2 7 4 13 6 15l3 4-3 5-3 4 5 6 5 5h-4l-9-1h-6l-2-6-2-7-8-4-1 5c0 4 0 4-3 4l-5-2c-2 0-3-1-5-5l-2-5-4 1h-25l-16-1-2 5c-2 4-3 6-2 14l-1 15c-1 5 0 9 6 13 3 3 5 3 8 2 4 0 5 0 6 3 3 4 7 5 10 1 2-3 3-3 5-2s2 1 2 7c0 7 0 7 6 12 4 4 5 6 4 7-1 2-1 2-4 0-2-2-4-2-9-2h-6l1 3c1 3 0 5-5 14l-6 13 4 3c2 2 3 3 3 5l-2 7c0 4-1 5-3 6-2 2-3 3-5 10l-6 13-5 5-7-4-6-5-6 1c-6 1-7 1-9-1l-3-2-5 4c-6 5-7 7-2 11 3 1 4 3 5 9l3 14c0 6 0 7 3 10 2 2 3 3 3 7 0 7 3 11 8 12l5 1-3 8-2 7 2 8c3 9 3 10-1 10-3 0-3 2-2 7l-1 8c-2 3-2 4-1 9l1 5-6 7-8 11c0 3-1 4-4 4l-10 5c-6 4-7 5-7 7l-2 5c-6 5-8 7-8 9-1 2-1 2 4 1h5l4 6 4 7 3-2 4-4v-3l5 3c5 5 6 8 3 12-2 2-2 5 0 5l6-2 4-2 5 3 10 6c3 1 7 3 8 5 2 3 10 3 21-1 7-2 8-2 10-1l6 2c4 0 5 1 11 5l8 6 2 2-2 7c-2 7-3 16-1 16l4-2 4-2 1 2 2 9c1 5 2 7 5 10 3 4 10 8 12 8l1-2c0-1 1-1 4 1 1 2 4 4 6 4s3 1 3 3l2 5 2 2 3-2 2-2 4 4 4 3 1-3c2-4 2-4 5-3 4 1 4 2 3 4l-1 11c0 9 0 9 5 16l5 8-3 3-3 3 3 3 3 4-5 3-5 5 1 4c2 3 2 3 0 3s-3 1 0 7c1 4 2 4 6 3 1-1 2 0 2 3 1 4 0 8-4 11-2 2-2 2-2 0s0-2-5 0l-5 1v9c0 11-2 17-5 18l-6 3c-3 2-3 2-2 6v8c-2 3-2 4 1 8l2 4-5 1-5 2v9c0 8 0 9 2 9l3 3v24c-2 6-2 7 0 9v16c-1 4-1 4 1 6s2 3 0 5c-1 2-1 2 2 5 2 3 3 3 9 3 7-1 12-3 22-10 5-4 8-5 12-6 5-1 6-2 6-3s2-3 6-5 7-3 16-4l12-1 6-7c4-5 6-6 9-6 3-1 4-1 4-4l1-4 15-1a82 82 0 0027-7c3 0 5-1 7-4s3-3 12-4c13-2 14-2 14-4 1-1 3-3 9-5l46-18c38-15 39-15 54-18 46-7 52-8 108-12a546 546 0 00107-11l51-5 23-2 15 3c16 4 19 5 80 12 41 5 42 6 50 4l7-1 3 3c5 4 8 4 13 0l4-3 9 1 12 1c2 1 3 0 5-2 2-3 2-4 0-11l-4-12-2-8c0-4 0-4 3-4 5 0 6-3 4-10l-4-20-3-14-7-5-5-4-6 4c-6 4-6 4-9 2-2-1-2-2-2-7v-6h-10v-12l1-13-4-7c-3-5-4-10-6-18l-9-34-3-1c-2 0-3-1-4-4l-10-41-3-17 5-7 5-8-3-7-3-9c0-4 12-22 21-32 8-8 10-11 10-14 2-6 3-9 8-15 4-6 4-6 3-8-3-2-3-5 1-23 3-13 4-18 4-26v-11l8-16 9-17c4-3 5-5 5-13l1-8 3 2 3 3 5-8c6-8 8-9 14-9 3 0 4-1 5-4l2-3-4-6-4-6 3-2c2-3 2-3 6-2 3 1 4 1 8-2l4-3v-9c0-7-2-19-6-41-10-47-8-42-13-42h-3l2-3 3-3-2-4-2-8-3-6-2-8c0-4 0-4-4-6l-9-4h-5v-6l-1-9c0-1 0-2 3-2 2 0 4-1 8-8l6-8-4-5-4-6 3-6c3-7 3-9 2-17l-2-6-5 6-6 7c-1 1-5-2-11-8-8-9-10-11-19-27l-11-19-4 1-4 2-5-10-5-10h-9l-1-5-1-5-5 4c-4 4-5 5-8 5s-3 0-3-2-1-3-10-4l-24-3c-12-1-13-1-16-5l-4-3-2 2-8 2c-6 0-7 0-11 4l-5 4-7-1-7-1-8 4-11 8-4 4-8-1-8-2-3 4-10 6-7 2-4 10-4 10-4 1c-3 0-4 0-5 3l-1 2c-2 0-4-3-5-5-2-4-6-6-12-4l-4 1-1-4c-2-4-2-4 0-8l1-4-4-1c-4 0-4 0-4 2 1 3-3 7-6 5-2-1-3-1-9 1l-8 2-1-2-3-5c-1-3-2-3-7-1-2 0-2-1-2-7l-1-8c-4-3-21-11-24-11-2 0-2 0-2-6l-2-8-3-2 3-2 2-2-5-4c-4-3-5-4-3-8 1-2 1-2-2-1-4 2-4 2-4 0l-2-5c-3-2-5-6-5-10 0-3 0-3-5-3l-7-2c-1-2-1-2 1-6 2-3 2-3 1-6s-2-4-4-2-3 2-7 0c-3-1-4-1-16 1l-13 2-3-2-10-11c-8-11-13-14-20-12-3 1-5 0-7-1s-3-1-8 1l-11 3c-4 0-4 0-12 9-7 8-9 10-9 13l-1 3h-10l-3 6-4 6h-9c-13 0-17 0-18-4l-4-4-3-4-2-3 3-1c5-1 10-8 10-12l-2-7v-8c1-3 1-4-3-6h-7l-3-1 1-4c0-1 1-3 3-3 2-1 3-2 3-5l3-5c1-2 1-2-2-4s-3-3-3-7c1-4 1-4-2-5-5-2-7-2-12 1z"/>
</svg>
