<svg xmlns="http://www.w3.org/2000/svg" viewBox="0 0 1024 1024">
  <path d="M294 138l-28 7-12-1-12-1-15 3c-15 4-16 4-23 3h-35c-15 0-28 1-28 2l-74 79-35 37-14 28-14 27-2 18-2 18 3 26 9 50 5 24v28c1 27 1 28 6 58l7 41 2 12 9 8 8 5v6l3 18c3 11 3 12 16 35 11 19 16 27 25 39l12 15 32 8 53 13c27 6 62 15 93 26 23 8 26 9 43 19l17 10 23 6c44 10 113 20 194 28l27 2 8 6a454 454 0 0069 40l21 9 21 2 20 2 27-5 52-11 26-6 25-13 35-19c9-5 10-5 13-11s4-8 4-13 0-6 5-14l13-18c5-5 9-10 9-12l5-18c4-16 5-16 11-24l12-17c6-9 6-9 6-16l-2-15c-5-17-1-35 9-45 5-4 5-5 5-10 0-4 1-7 4-13 5-9 5-9 13-10 5-1 5-1 10 3l5 4 1-2c2-4 1-21-1-28-2-6-3-7-12-15s-11-10-15-19c-9-15-21-42-28-62-6-19-6-19-5-28 0-7 1-9 3-13 5-8 4-13-6-27l-6-9-4-33-3-33-6-9c-6-9-7-10-16-16-6-5-13-8-20-11l-22-10c-11-6-12-7-24-20l-26-31a95 95 0 00-24-25 545 545 0 00-46-31l-19-14-10-7-41 9-67 15c-21 5-32 8-52 11-34 4-45 4-71-2a242 242 0 00-35-6l-1-10-1-8h-26l-24-17c-16-11-28-18-36-22-11-5-11-5-24-6l-19-1c-4-1-11 1-33 7z"/>
  <path d="M1012 622l-4 7h-13l-4 5c-4 5-6 10-6 16-1 3-1 4 2 6l4 3 8-1 8-1 9-12c8-12 9-13 7-21 0-4-1-5-4-6l-3-2-4 6z"/>
  <path d="M999 668c-1 0-4 1-5 3l-3 3 3 4 3 4-3 4c-2 3-3 5-3 10 0 6 3 15 5 15l9-4c6-4 7-5 8-8 4-14 4-16 3-21 0-4 0-5-5-8l-7-3-5 1z"/>
  <path d="M988 730c-4 6-5 9-5 11 1 8 11 2 14-8 3-8 3-9-1-10-3-1-3-1-8 7z"/>
  <path d="M943 788c-2 0-3 2-4 5-1 5-1 5 2 9l3 5 4-2c5-3 6-8 3-14-1-4-3-5-8-3z"/>
</svg>
