<svg xmlns="http://www.w3.org/2000/svg" viewBox="0 0 1024 1024">
  <path d="M539 2l-4 1c-2 0-2 0-1 4 1 6 0 7-3 10s-4 4-8 3c-5 0-5 0-4 2l1 13 1 12c1 2 4 17 4 23l-1 10v11l1 5c2 3 2 10 1 12-1 0-2 7-2 15-3 23-3 23-6 23s-4 2-4 8 0 6 2 6c2-1 2-1 2 2a199 199 0 00-2 31c2 4 1 14-2 18-2 4-4 9-2 11 1 3-3 31-5 33l-1 8-1 7c-2 0-3 5-4 13l-3 9-2 5-2 5c-2 3-2 7 0 10 2 2 2 4 2 13 0 10 0 11-2 13-1 1-2 2-3 1l-1 1-1 5 1 15a367 367 0 014 36c2 3 1 9-3 16-2 5-3 12-1 14s1 5-1 7c-4 3-6 11-7 20l-1 10-2 5-2 4c-3 1-10 17-11 26l-5 17-3 8c-1 4-4 5-7 3-2-2-2-2-2 1v10c0 3 0 5 2 8s2 5 1 10c0 5 0 7 4 15 3 9 3 10 3 16-1 8-3 12-6 12s-3 0-3 10l-3 11c-2 2-1 7 2 23l2 3c2 0 2 1 1 2v2c2 1 0 3-3 4-3 0-4 1-5 6l-1 13-1 11c-3 5-2 7 3 8 6 2 9 1 8-2 0-2 0-3 2-3s3-1 1-4v-2c1-1 1-2-1-5-3-6-3-9 0-11 3-1 4-5 2-9-2-3-1-5 3-5 3 0 3-1 4-3s2-3 4-3 7 3 5 4l-2 4c0 2 0 3 2 3h3l1 5v5l-1-3-3-2c-3 0-3 0-2 3v20l-2 3-1 3c-2 1-2 8-1 9 2 1 0 6-2 7s-2 2-2 4v3c-1 0-1 2 1 2l1 2 1 1 4 2 4 2v4c-1 4-2 5-6 7l-6 3-1 2 1 4 2 2c1 2 1 2-2 4l-4 2c-3 1-3 4-1 7 2 2 3 5 1 6l-2-2c0-1-1-2-2-1-2 0-3-2-1-6 1-2 1-3-1-4-1-2-2-2-3-1l-1 6c1 3 0 4-2 4s-3 1-3 2c-1 2-1 2-3 1-2-2-6-2-8 0l-1 4c-1 2 0 2 2 2 4-1 4 2 0 3-2 0-4 2-9 7l-2 2-1 5c0 4 1 6 4 6 2-1 3-5 1-5s-1-3 3-5l4-2 1 3c0 3 0 3 3 4h4c0-2 4-1 5 1l3 5 2 4c2 1 1 2-1 2-2-1-3 0-4 2l-2 2v2l-1 2-3 2c-1 2-2 3-5 3s-5 1-5 2c0 2 0 2 2 2l3 1-1 1-2 2c0 3-2 4-3 1 0-2-3-3-4-1l1 5v13l-2 3c0 1 1 1 5-1 2 0 2 0 1 1l-2 2c-3 0-4 3-2 5 1 1 2 2 1 3-1 2 0 3 2 2 2-3 5-3 6-1l-1 4c-1 1-1 1-2-1-2-1-2-1-2 1v3c3 2 2 5 0 5l-3 1c0 2 2 4 3 4h2c0 2 6 2 6 0l1-5 1-5c1-1 1 0 1 6l1 8c3 1 5 0 6-6l2-7 3-8c0-6 2-9 4-6l-1 1-1 3c1 3 0 4-1 4-2 0-1 5 2 6l3 4 1 2-2-2c-4-3-8-3-8 0l1 2v1c-2 2-1 3 2 3l3 3-3-1-3-1c-1 1 1 5 4 7s3 2 1 2l-4-3c-2-3-6-3-6 0 0 2 4 6 5 5l1 2h5l-1 3c-2 2-3 4-1 4l1 1c0 2 3 3 4 2h1l-1 3-3-1c-2 0-3 0-4 2s0 7 1 6v3l1 3c2 1 6-3 4-4s-1-2 2-1l2 2 2 3c2 2 1 3-2 1h-3l1 4 1 4c0 1 1 2 2 1 2 0 2 1 3 4 1 5 6 7 6 2l2-3c1-1 1-1-1-3l-3-3h1l9 4 1-1c0-2-6-7-7-7l-1-1h3c5 3 6 5 6 11v6c1 2 0 9-1 9l-2-6-1-6c-1-2-2-1-2 2l-1 4-1-2c1-1-1-2-3 0s-2 2-3 0c-2-2-4 0-3 3l-1 3-4 4c-1 2-2 3-1 4 2 1 4-1 4-3s2-4 3-3l-1 3v3h3l2-2c1 1 1 0 1-1 1-3 1-3 5-2l6 2h3l8-1c4 1 5 1 4 2s-2 2-5 1c-2 0-3 0-5 2-3 3-6 3-6 0 0-1-3-4-6-5-2 0-2 0-3 3l-3 4v4c1 4 2 4 5 4l3 1 2 1 1 1h-8l6 5c6 4 9 5 6 1-3-3-2-5 1-6 2-1 2-1 1-3-1-1-1-1 2-1 3 1 4 1 6-1 2-3 9-6 10-6 1 1-3 8-5 10-2 0-3 2-3 4l-1 2v-2c0-4-4-4-4-1l-1 3v-1c0-2 0-2-2-2l-2 2c-1 4 2 7 10 11 7 3 8 3 11 2 2-1 2-1 2-7v-9l2-8 2-6 3-1 5-1c5-4 10-5 10-3l-3 5c-3 3-3 3-4 2-2-2-2-2-3-1-2 2-2 3 0 3v3l-2 1c-2-1-2 0-2 4s0 5 2 6c2 2 3 2 4 0l6-1c4 0 5 0 5 2s-4 5-9 7c-3 1-3 1-3 6 1 4 1 4 8 9l8 5-1 2c-2 2-2 2-2 0l-2-3h-2l-2-1-3-1c0 2-1 2-3 1-1-2-12-2-14-1l-8 2c-7 0-8 1-9 5-1 3 1 4 4 2h7l4 1c4 1 8 5 6 5h-4l-6-1c-3 0-3 0-1 1l6 4c4 4 9 5 11 3 1-2 1-2-1-3-3-1 0-4 5-5 3 0 4 0 3 1-2 1-3 13-2 14l4 1 5 2c2 2 3 1 2-3l1-4c2-1 4 2 4 5 0 2 1 2 3 2 4 0 7 2 7 5l2 1c3 0 2-3-1-7l-3-4c3 0 3-2 0-3-4 0-4-1 0-3h5l1 4 1 2c5-2 6-2 7 0l4 2 3-3c0-5-2-9-5-9l-10-1-8-1 1-30-1-31h-4c-4 2-6 2-7-2-4-7-1-9 5-7 6 3 10 4 11 3 0-1-12-6-15-6l-7-3c-5-2-6-2-20-2l-16-1c0-2-2-7-4-7l-2-1c-2-2-2-2-1-6v-9c2-4 0-12-2-13h-5l-5 2-2 2-3-9-2-5c-1-3-2-3-2-13-1-9 0-12 2-12s3 0 4-3c1-5 3-7 5-6s4-5 4-9c-1-4-1-5 2-7s3-7 0-10c-2-2-2-2-1-6l2-6 2-3 3-3 2-3c1 0 2-2 1-6 0-5 0-6 2-6l3-3c0-2-2-10-4-12-1-1 0-2 2-3 2-2 3-6 1-6-1 0-2-4-1-6 0-2 1-3 2-3l1-1 2-2 1-4c0-5-5-9-10-9-2 0-3 0-3-2s1-2 8-2l8-1c3-8 1-10-7-10h-5v-4l3-6v-4c-1-1-2-3-1-4l-1-5c-2-4-2-6 0-6l1-2c0-2-1-3-4-3-2 0-3-1-4-3l1-23h3c3 0 4-2 1-9l-1-10v-8l1-5-1-3v-5l1-4 2-3v-4c-2-1-2-5 0-5l1-7c0-4 0-6 1-5s1 1 2-1l1-4 1-2v-6c0-5 1-8 7-10 5-2 6-5 4-7l-2-8-2-8-2-17v-9l1-6 1-3c-1-2 0-3 1-4h4c2 0 2-1 2-3 0-3 2-6 5-6 1 0 2-1 2-4 1-5-1-17-2-19-1-1-1-2 1-2 2-1 4-9 3-12l1-1 1-1 2-4 2-4 2-2c2 0 3 0 2-8l1-12v-7l-2-1c-1 0-4-2-4-4l1-2c2 0 2-3 0-5l-2-6-2-7c-2-3-3-8-1-8s1-4-2-5c-2 0-3-2-4-6-1-6 0-12 2-13 2 0 3-3 3-5l3-12 1-2 2-2c3 0 7-6 5-7s-2-2-1-6l-1-5v-3l-1-2c-2-2-1-6 1-8 3-3 6-13 6-18 0-2 2-5 5-8l6-7 4-7 2-7 3-6c1-2 2-2 4-2h4l3-1c4-1 4-3 0-10-3-6-4-11-1-13 1-2 2-3 1-7l-2-9c-2-5-1-9 2-13 2-2 2-2 0-6s-2-4 0-8l3-3 2-1 10-6 12-5 5-14 5-14-3-3-3-2-7 1c-6 2-6 2-8 0-1-2-2-3-1-5v-4c0-8-1-13-3-15l-2-5-2-5-1-4c1-3-3-10-6-14-3-3-3-3-1-5 1-2 1-2-2-4-4-4-4-5-3-7v-4c-1-2-1-2 2-2 2 0 2 0 2-4l-2-5c-1-2-1-2 2-6l3-3-4-4-5-4c-1 0-4-4-4-9l-4-15v-4c1-2 1-2-2-2-2 0-3 0-3-2l-2-4-2-4c-1-3-2-3-4-2zm-77 882c-2 0-1 2 1 3l1 1h-2l-1 1-1 1c-2 0-1-4 1-6l2-1-1 1zm33 80l-2 1v-1l2-2v2z"/>
  <path d="M432 876c-1 4 0 6 3 6l7-7-3-1-5-1c-1-1-2-1-2 3z"/>
  <path d="M444 884v4l-3 1c-2 2-2 2-1 4 2 3 2 6-1 10l-2 7c-1 3-1 4 1 3l4-3 4-2 2-1c0-2-1-2-4-1-4 0-5-1-2-3 2-2 5-3 6-2 1 2 2 1 2-3l1-4c1-1 0-8-1-10l-4-2c-3 0-3 0-2 2z"/>
  <path d="M432 886l-1 3c-1 1-1 1 1 2 2 0 3 0 4-2 3-3 2-4-1-4-2-1-3 0-3 1z"/>
  <path d="M441 916c-2 2-2 2 0 6l2 7c0 3 4 5 5 4 1-3 0-10-2-14-3-4-3-4-5-3z"/>
  <path d="M449 946c-2 1 0 5 3 6l8 3c7 2 6 2 4 8 0 2 4 7 6 7l2 5v2c0 3 3 2 3-1 1-3 4-3 4 0l-1 3c-2 1-1 2 5 2l7 1c3 4 3 4 6 2h4l5 1c5 0 1-7-5-8l-4-2c-1-2-4-1-5 2-2 3-3 2-3-2s-4-8-8-9l-7-6-12-9-8-5h-4z"/>
  <path d="M514 967l-1 3-1 3c-2 2-3 8-2 10l6 1h5l-4-3c-3-3-3-3-1-3 2 1 2 1 1-4 0-7-1-8-3-7z"/>
</svg>
