<svg xmlns="http://www.w3.org/2000/svg" viewBox="0 0 1024 1024">
  <path d="M710 4c-2 4-2 4-8 4l-6-2c-1-1-4-2-4 0s3 4 8 6c3 0 5 2 5 2-1 1-7 1-9-1h-6c-5 3-6 4-4 5l2 3c0 3-3 9-6 11-2 2-2 2 0 6s6 6 16 8c6 1 6 2 15 10l8 9v8l-2 12-2 9-2 8c-2 3-2 3 0 4 3 2 4 8 3 13-1 4-1 5-5 5-4 1-13 8-16 13-2 3-4 4-6 4l-6 3-7 3c-3 1-4 1-7-1s-6-3-8-1l-3 4-7 9-4 7-2 2c-3 0-9 8-9 13 0 2-1 4-3 5-2 2-3 4-3 7 0 2-1 3-2 3-3 2-6 8-8 21 0 3-1 6-3 8l-2 7-1 5v5c0 3 0 4-3 6l-4 3-7 5c-4 4-5 6-5 8l-2 5c-2 2-1 8 1 11 2 2 2 2 1 5l-2 9c0 4-1 5-3 7-1 2-4 3-7 4-2 0-7 3-12 7l-10 7c-1 1-1 1 1 3 2 3 3 6 0 12-3 8-6 25-7 33v8h-4l-4 3c0 3-3 6-6 6l-4 3c-3 2-3 2-6 1-2-2-3-2-5 0-3 1-3 2-3 6 0 5 0 5-2 5l-6 3-4 3-5 4c-3 3-3 4-3 12s0 9-3 11c-2 2-2 2-1 6l2 4-7 12c-9 16-11 23-11 29 1 5 0 5-2 6s-3 2-3 4c0 5-8 19-11 20-2 0-2 1-1 4l1 9v5l-3 1-9 4c-5 2-6 3-9 8s-4 7-3 8 0 3-2 6l-3 9c0 4 0 4-4 5-3 0-4 1-4 4l-3 3-4 1c-2 2-3 2-4 0 0-2-1-2-9-1-8 0-9 0-10-2-2-2-4-15-4-20h-14l-6-8c-4-7-7-10-11-13l-8-6-3-2-4 8-5 7-15 1h-15l-1-5-2-4-12 10c-10 8-14 11-16 11l-6 1c-4 0-4 0-5 6 0 4-1 9-3 12-2 6-2 6-6 6s-4 0-6 3c-1 3-4 4-10 4-2 0-3 2-3 7 0 3 0 3-3 3s-3 1-7 7c-4 7-4 8-8 9-4 0-5 2-15 12l-12 11-3 2-4 3-3 3c2 5 2 8 1 9-2 3-1 8 2 12l3 3-2 2-4 8c-3 4-3 6-3 15 0 11 0 11-3 14-2 1-5 6-6 9l-6 9c-2 1-3 2-2 5 0 3 0 4-3 7l-4 3v12l2 13h8l1-6c0-5 1-7 2-3 1 2 6 6 7 5l1-2h1c2 2 2 2 3 0 1-1 0-3-1-6-2-4-2-5-1-6 2-1 2-1 2 2l3 6 3 15c2 10 2 13 4 15 4 5 6 9 6 14 1 4 1 5 3 5l6 3 5 4 6 3c3 2 4 3 5 1 3-2 4-1 6 2l4 4c4 0 8-2 8-4l2-2c4-1 3-4-1-12l2-1 4 4c4 5 6 6 8 4 3-3 3-1 1 5l5 2c5 0 5 0 4 2-2 1-2 2-1 3v4l-1 3-3-3-3-2-1 3c-1 5-1 5-3 4h-3c-1 1 0 2 2 5 4 4 4 5 4 10 0 4 0 5 2 5l3 3 2 4c1 0 7 6 14 15 5 5 6 7 6 11l3 8c2 4 1 8-2 11-2 2-2 3-2 13 0 11 0 12-4 20-3 9-3 10-3 17v9c-2 4 3 14 9 15l5 3h12a267 267 0 0162-1h54l1-4v-5l5-1h16l17-1h19c3-2 18-1 20 1 1 2 3 2 6 1h4c2 2 2 2 5 1 3-2 4-2 5 0 3 1 5 1 10-1 4-1 5-1 6 1l3 1h7c5 2 5 2 7 0 3-2 4-3 6 0h5c1-1 5-2 10-1l10-1h6l6 2 3 3 1 4h102l2 3c3 2 3 2 4 1l1-2c0-1 3-3 7-3 4-1 5-1 9 2 3 3 5 4 7 4l7 1 6 2c2 0 3 0 3 2l2 5 3 2 2-2c1-3 2-3 3-2 1 2 2 2 3 1h4c2 2 3 2 7 0l5-1 4 4c5 5 7 6 13 3l10-1 13 2c6 0 7 1 9 3l4 2c2 0 4 1 6 4 3 3 5 4 7 4 6 0 8 1 9 5 1 5 5 7 7 4l3-2c2-1 2-1 2-6s-1-7-6-12c-3-3-3-5-3-7l1-5 2-5 1-7c0-4 0-4 2-3h6l-2-5-2-8-2-8c-2-3-3-5-2-7l-1-7c-2-4-2-4 0-8v-5c-2-2-3-8-1-11s-5-13-9-13c-2 0-6-3-9-8l-4-3h-2l-16-15-22-24c-14-15-28-36-28-42 0-2 3-4 6-5v-3c1-2 1-2-1-3-4 0-6-5-6-11 0-5 0-5-7-12l-8-7-10-6-8-7-2-11-4-24 1-9c2-2 2-2 0-5l-3-6c-1-3-2-4-4-5-5-1-8-4-8-7s1-3 3-4c3-1 3-2 3-5l2-7v-5c-2-2-2-8 0-12 2-3 2-4 0-7v-8c1-6 0-7-5-7-4 0-7-1-9-5-2-5-1-8 3-12l5-6c1-3 2-3 5-3 4 0 10-3 14-7 1-2 2-3 2-7s1-5 2-7c2-1 3-4 3-5l4-8 4-9c2-5 2-6 5-6 4 0 9-4 9-9 1-5 9-22 11-22 2-1 2-2 1-4-2-5 0-11 2-12 5-2 21-19 21-22l2-3 5-6c3-3 3-4 3-10 0-5 0-6-4-10-5-4-14-21-14-26 0-2-11-24-20-38l-5-10c-1-6-2-7-7-7-5-1-5-1-7-5 0-2-1-5-3-6l-2-3h-15l-6-7-7-9-10-8c-12-10-13-11-13-14 0-2-3-5-14-17-12-11-15-14-17-14-7 0-5-6 4-16 4-5 7-9 9-14l3-7h9c11 0 29 2 37 4 5 2 6 2 10 1l13-1c10 1 10 1 15-2 4-2 4-2 7-1 2 2 4 2 8 1l8 1c3 2 5 2 14 1 13-2 15-3 9-9l-10-6c-5-3-7-4-7-7-2-4-8-11-12-13-3-2-4-3-5-6l-4-8c-3-3-4-6-5-9l-3-13c-3-7-3-8-3-24l-2-19-1-10c0-8 0-9 3-14 3-6 4-7 1-12-2-2-2-5-2-11 0-7 0-9-2-11-2-1-2-2-1-9 0-7 0-8-2-12-1-3-3-5-5-5-5-2-6-5-6-13 0-7-1-11-5-18l-2-8c0-4-6-11-9-11-2 0-3-1-3-3s-1-3-4-3l-4-2c0-1-1-2-3-2-1 0-3-1-4-4l-2-3-2 4z"/>
  <path d="M174 837l-4 11-2 5-1 3c0 1-1 2-4 2l-7 4c-4 4-4 9-1 14 2 4 1 4 18 6h6l2-4a376 376 0 0112-25l4-6c2-3 3-5 3-8 0-5-3-8-8-6h-9c-3-3-5-2-9 4z"/>
</svg>
