<svg xmlns="http://www.w3.org/2000/svg" viewBox="0 0 1024 1024">
  <path d="M587 3c-1 3-2 4-4 4-3 1-4 1-3 2 0 2-11 6-16 6-4 0-4 1-4 8-1 4-1 8-3 11-2 6-5 8-18 12-11 3-30 15-36 22-9 8-9 8-27 9h-17l-5-3c-5-3-11-4-16-2-2 0-5 7-5 11l-2 6c-1 2-2 3-6 4-5 2-5 2-18-2l-12-4-5 4-7 6-7 6c-4 2-6 4-7 6s-3 4-7 6c-5 2-5 3-6 7 0 3-2 7-4 9l-4 9c-1 1-2 4-4 4-2 2-2 2-1 4 1 1 2 0 5-3 4-3 5-3 5-1l-1 3c-2 1-2 5-5 19l-3 6-3 3h4c6 1 6 2 4 10 0 5-3 6-12 6-5 0-7 1-12 3-5 3-6 4-10 11-6 11-11 17-15 17l-2 2-6 6-7 6-7 3c-5 0-7 1-9 3l-3 3 4 2c5 3 8 7 8 12l2 10v14h-4l-5-1c-2 0-3-3 0-3 1 0 2-1 2-3l2-5c0-2 0-2-3-2-3 1-3 1-5-3l-3-4c-1 0-3-2-4-5-2-4-4-5-7-6l-5-4c-2-7-4-8-9-3-4 4-4 6 0 10l3 6 4 8 6 11 2 6-3 1-4 1-3 7c-1 6-4 10-11 14l-4 2-1-2c-2-4-6-8-8-8s-2 0-1 5c0 5 0 6-2 7l-5 9-2 7 3 2 6 5c3 1 3 2 3 6-1 9 0 11 3 11 3 1 6 6 6 9 0 1 1 2 3 2l2-2h3l2 2 2 4c2 2 2 2 1 3l-2 3-2 3v2c2 2 2 2 1 5l-1 3-2-2-2-2v5c0 3 2 7 5 11 3 5 4 8 4 11l2 6c1 2 1 3-2 5-2 2-3 3-6 3s-4 0-6 4c-4 5-4 8 0 8 5 0 5 2 6 18l2 18 1 16c-1 13-1 14-8 18-2 2-3 3-3 6s1 5 5 11l6 7 3-5c2-5 3-5 3-3v3c-2 1-4 8-2 10 1 1 4 1 11-1 2 0 2 0-2 3-3 2-4 4-4 6 0 4-7 14-16 22-4 4-5 5-6 10s-1 6-3 6c-3 0-5 3-5 8l-2 9c-2 4-3 5-7 7l-6 2c-2 0-3 1-3 2l-4 2c-2 0-3-1-4-3l-1-3-3 2-10 4c-6 2-8 3-12 8l-7 11c-2 5-2 6-1 9l1 6 2 4 1 1 2 2v6c-1 2-2 3-3 2l-7-1c-6-1-6-1-10 2-5 3-9 8-9 11l6 3 6 3c0 2 13 15 15 15l3 2 4 2c2 0 4 1 7 4 2 4 4 5 6 5l7 4c3 3 6 4 9 5l8 2c4 2 6 3 9 2 4-1 7 1 7 4 0 2 6 8 10 8 3 1 3 1 3 6 0 6 0 6 5 8l9 2c3 0 4 0 6 3 1 2 2 3 4 3 8 2 36 3 38 2l1-4c0-6 7-11 10-7l5 2 3 1 2 1c2 0 4 2 6 6l8 9c4 3 5 3 10 3 5-1 5-1 10 3s11 7 15 5h10l6 5c5 3 7 4 10 3h5v4c1 4 1 4 4 5 8 2 20 15 20 22 0 2 1 3 3 5 2 1 3 2 2 3-1 0-1 2 1 4 1 4 7 8 12 8 2 0 5 2 12 7l7 3c3 0 12 5 12 7l3 6c2 4 3 5 2 7v5c1 5 8 10 13 10 4-1 8 1 9 4l2 9 2 7-3 2c-4 4-2 11 4 11l6 3c3 3 3 3 10 3 6 0 8-1 9-2l2-2 6 2 9 3 15-4 6-1c3 0 4-1 8-4 4-6 11-10 11-8s2 3 5 3c2 0 5 1 7 3l5 3 2 2c1 2 5 3 12 1 3 0 4-1 4-2 0-2 1-3 4-3l4-2 5-1c4 0 8 3 17 11 2 2 5 3 7 3l5 2 7 2c3 0 4 1 6 4s3 4 5 4l6 2 2 3-21 32-21 31 5 3c5 2 10 3 10 1l6-2c4 0 4 0 9 5 3 2 6 6 6 8 2 5 8 11 11 11a2772 2772 0 0034-170c3-2 3-3 3-7l-2-8-2-5-3-7c-5-7-7-11-7-14v-8c-1-5-1-6-4-6l-8-5-7-4-5-4-5-5 1-21 2-23 7-3 12-5c5-4 13-4 18-1 2 2 5 3 10 3 7 0 7 0 7-2l-2-8-2-10c-2-5-6-7-9-5h-7l-10-1-6-1h-3l-3 1v-40h5l9-2h88l-3-4c-3-3-3-3-2-6l3-3c2-1 6 1 7 4s7 10 9 10c4 0 8-2 11-6 3-5 9-12 14-16l4-3 5 1c4 2 4 3 4 5l5 10c3 4 7 9 8 13 2 5 2 7 2 18-1 12-1 12 1 12l6-1c6-1 6-2 4-7l-4-16-6-18-3-10-3-6c-4-4-5-9-2-11 1-1 0-3-9-11-5-6-10-10-12-11-1 0-3-1-3-3-2-3-3-4-6-5l-8-1-3-1 25-24c2 0 8-6 9-9 0-2 0-3-3-5l-6-9c-3-6-4-8-6-8-3 0-3-1-5-6l-8-15c-5-10-5-10-3-13 2-5 1-8-2-11s-3-3-1-7c2-5 3-28 1-36-2-7-2-8 6-16l5-5v-5c-1-8 0-11 7-18l6-5-3-5c-2-4-3-5-1-6l1-2c0-2-1-3-7-6-9-3-14-4-21-1l-9 1-8 2c-4 2-6 2-12 1-7 0-9 0-11 2-3 1-3 1-13-1-16-3-15-3-20 1-4 3-9 4-11 1l-4-1c-3 1-4 1-20-19a270 270 0 00-22-24c-4-3-4-3-9-2-7 0-18-3-19-6-1-1-2-2-7-2h-15c-2 2-9 5-15 6h-7l-8-2c-23-2-21-2-26 0l-4 3-6-3c-5-2-6-3-9-8l-3-8c0-4-5-7-11-7-3 0-4 0-6-3s-2-4-2-15c0-10 0-14 2-17l3-5v-15c-1-4-2-6-9-14l-9-8-3-13c-5-18-4-17-10-17-5 0-5 0-5-3l-1-6c0-2 0-2-8 2-7 3-9 4-13 4h-4l4-6c3-4 6-8 6-10l5-6c4-3 11-17 11-22l2-9 3-16c0-11 0-11 6-21a249 249 0 0011-19l2-3c0-4 12-13 18-13 2 1 3 0 11-16 7-15 8-16 11-16l18-4c14-4 15-5 19-9l6-4 4-2c4-3 4-7 1-12-2-1-3-4-3-5 0-2-1-3-5-5l-8-3-3-2c-2-2-3-3-9-4l-6-1c-1-1-2 0-3 2z"/>
</svg>
