<svg xmlns="http://www.w3.org/2000/svg" viewBox="0 0 1024 1024">
  <path d="M103 32l-9 1-9 16c-9 16-9 14-3 18 2 1 2 3 2 6 1 4 0 4-2 5-2 0-3-1-1-3s0-5-4-7c-3-2-3-2-6 2l-5 2c-4 1-5 1-4 3v3l-4 4 6 3c3 1 6 2 7 4 2 3 2 4 0 8v6l1 2h-9c-9 0-15 1-17 3l1 4c3 4 1 4-7-2l1-2c2-3 0-5-9-5H20l-2 1 3 1 4 3-13 7-11 7 6-1h5l7 3c4 1 6 2 7 5 2 3 5 4 13 4 2 0 3 1 4 3 2 2 2 2-1 5l-3 4h23c5-1 6-1 10 1l5 2c1 0 4 2 6 5l5 5-2 5v12c2 12 2 12-4 12-4 0-5 0-5 3-1 1-1 3 1 4 3 4 3 5 0 8-2 4-3 6 0 6l2-1 2-3c1-3 2-4 5-5 4 0 6 1 10 4l-2 2-4 5c-1 2-2 3-4 3-3 0-6 2-6 3s-1 2-3 2c-3 0-4 1-2 3 1 2-2 5-6 5l-7 2c-3 2-5 2-7 1-3-2-6-1-7 1 0 2-2 4-3 4l-3 3 2 5 3 5c3 0 6 8 5 10-2 4-3 4-5 3s-2-1-2 1c1 2 1 3-1 3l-6-1h-6c-1 2-1 2 1 4 1 3 1 3-1 8l-6 8-4 3 3 5c2 5 2 5 0 9-1 4-1 4 1 6s2 2 1 5c-3 8-2 15 3 19 2 1 3 3 1 5l-2 4c0 2 1 2 4 2 4 0 4 0 4 3s2 7 7 15c3 3 3 5 3 9 0 7 2 8 8 10 5 2 9 7 9 11 0 5 3 9 8 12 4 2 6 4 10 10s4 6 2 9c-2 1-2 2-1 4 0 3 1 3 6 3l10 1c4 2 19 5 25 5l7 1 6 2 4 1h2c2-2 7-1 10 1 2 2 3 3 6 3l6-1c1-1 3 0 6 2 8 6 18 11 21 11 2 0 4 1 6 4 6 6 6 7 5 9s-1 2 3 4c7 2 12 8 16 19 3 9 4 9 11 15l7 6v7c1 7 1 7 5 9l4 3c0 1 2 1 5-1 5-1 5-2 5-5l2-7 2-5c-1-5 5-14 9-14l2-2 6-4c8-3 18-10 16-11l-6 2c-4 2-4 2-5 1l-3-2-2-1c0-2 4-8 6-8l7 4c2 3 6 3 7-1v-4c-1-2 0-2 2-2 3 0 4-1 4-4l3-4v-3c-1-1-1-1 2-1s4 0 5-2c0-1 1-2 2-1 2 0 3 0 3-2s1-2 3-2c7 1 9 1 9 3 0 1 1 1 3-1 3-1 3-1 2-2l-7-6c-4-4-5-5-8-4-2 0-4 1-4 3-1 2-3 3-6 3-4 1-6 0-5-3l3-3c2-1 2-1 1-4l-4-4c-3-2-3-7 0-7s3-1 2-4c0-2-2-4-5-6l-8-4-8-1c-5 0-5 0-9-5l-3-6-2-2h2l10 1h6v-5l-14-1h-14l-1 3-3 2c-3 0 2 4 6 4 2 1-1 1-6 1-8 0-9 0-10-2 0-2-2-3-3-3-2 0-17-11-19-14-1-2 0-3 1-1 2 1 8 3 9 2 2-2 1-4-3-4-3 0-3 0-4-3l-3-3-2-3c0-1-2-3-5-4l-6-5c-1-4 0-5 5-4 3 1 4 2 6 6 3 6 6 7 15 7s14-1 14-4c0-1 0-2-1-1h-3c-2-1-2-1 0-3l1-2c-2-2-5-3-8-3l-5-2c-2-2-4-3-10-4l-11-1c-5 1-7-1-7-7l1-6c1-1 8 0 13 3l6 2 6 2h4c4-3 16-3 15 0-1 1 0 2 2 3l3 4 1 2 5-2c3 0 4 0 10 6 6 5 9 7 13 8s5 2 5 5c0 4 0 4 23 20l13 9h9l9-1 5-1h6v4l5 10c1 1 2 2 1 4-1 3 0 4 3 9 4 4 5 6 5 9s1 5 7 11c5 6 9 11 11 16 4 7 4 7 2 10 0 2-3 5-6 7l-5 4 1 6c2 14 3 15 9 19l5 3-1 5v5l12 10 13 12c1 1 3 1 11-2l10-2 19 7c13 6 21 8 24 8 4 0 28 3 34 5l2 2c0 2 1 5 3 7 3 4 4 5 7 6 6 0 6 2 0 2-5 1-5 1-5 4s1 3 5 3h10c5-1 5-1 5 2 0 2 1 2 6 3 4 0 7 1 14 5s9 5 13 5 7 1 15 5l15 9 12 8c7 4 8 4 9 10l2 5 10 5c10 5 11 6 27 22 16 17 17 17 18 22 0 4 1 5 3 6l3 3c2 2 4 20 4 27v7h8c2 0 1 6-1 9-3 4-2 7 2 14l2 4h-5l-10 5c-4 3-4 3-2 5v7l-2 13c0 9 0 10-4 9-5-2-17-1-18 0-2 3-1 7 1 8 2 0 3 2 3 4 1 3 0 3-3 5-4 3-4 3-4 9v6l9 7c7 4 11 8 14 12l12 12c5 4 7 6 7 8s2 4 6 6c6 4 6 4 10 3 6-2 12-1 13 1s2 2 9 2c8-1 8-1 23 4l21 10c5 3 7 4 9 3l10-8c12-11 12-16 0-26l-6-5 3-7c2-6 2-6 0-8l-5-2c-3 0-4-1-6-3-3-2-4-3-9-4-7 0-14-4-20-10-3-4-4-6-4-9s-1-5-5-9c-4-5-5-6-3-8s1-2-2-4l-3-2 7 1c5 0 11 2 23 6 14 6 18 8 20 12h9c4 1 5 2 8 5 2 4 2 4 13 2 3 0 3 1 6 6l4 11c2 9 6 18 10 23 9 9 8 8 6 15-1 4-3 10-5 12l-5 9c-1 4-1 4 4 10 4 6 5 7 12 10 5 2 9 4 13 8l14 10c10 6 15 12 23 31l6 17-1 7c-2 5-2 5 0 8l2 3 3-6c4-8 4-12-1-20-2-5-3-8-2-10 0-4-1-9-5-13-4-3-4-4-3-8v-9c-1-4-1-4-4-4l-6-3c-3-3-4-3-6 0-2 2-2 2-4-2l-9-7c-5-2-6-3-6-5s1-3 10-8c7-4 10-7 13-11l8-10c4-4 4-4 7-3h9l7-1 4-7c6-10 7-14 6-22 0-5 0-6 2-9 2-2 2-3 1-5l-2-6c-2-4-2-4 0-5s1-5-4-12l-4-10c-1-4-2-5-5-5-2-1-3-2-3-5-1-4-2-4-5-6-5-3-6-3-3-5l1-4 4-3c3-1 4-2 6-6 2-5 2-6 0-8-1-3-1-3 1-6l10-5 9-3 6-2 4-2 3-1c2 0 5-3 5-5l5-5c4-3 5-4 5-6 0-3-1-4-3-5-2-2-3-3-3-5s-1-4-4-6c-3-4-5-4-9-5-6 0-6-1-8-4l-7-6c-9-4-14-8-16-12-2-3-5-4-12-2l-3 1v-17l-1-61v-44l14-3c16-3 15-2 8-10-4-4-4-5-3-8 1-2 1-2-1-3l-2-1c0-3 3-11 4-11l2-3c1-2 1-3 5-2 2 0 5 1 7 3 4 4 7 5 16 6 6 0 6 0 9 5 3 3 4 4 6 4 2-1 3 0 5 2 2 3 2 4 0 5-1 1-1 2 1 4 2 3 3 3 7 3s6 1 7 2h7c2 1 3 0 5-3 3-4 4-5 3-9v-4l4 1 5 2 3 1c2 0 2-1 2-3l-1-5-5-3c-3-1-5-3-9-8s-5-6-4-9l1-4-5-3-10-8-6-5-7 3c-7 2-9 3-16 2h-9l-3-5-4-10-4-6h-5l-4 1-26-34-25-35 10-1c10 0 10 0 10-3 0-1-1-3-4-4-3-2-5-3-15-3l-14-2c-1 0-2 0-2 2l-4 2c-4 0-5-1-13-11l-33-43a1967 1967 0 01-37-45 594 594 0 01-40-63c-4-10-23-66-26-79-3-11-8-23-13-32-4-7-6-8-10-11-5-3-11-4-11-3l3 5 2 6 2 4v16c1 5 1 7-1 11l-1 4h-6l-12 2-10 2c-5 0-6 0-9 3-2 3-4 4-6 4s-5 1-8 4c-5 5-6 5-11 5l-10 2-5 1-2-2-9-7-11-9c-5-6-7-7-8-3l-4 2-4 2c-2 2-2 2-7 0l-9-2c-3 0-4-1-4-2-1-2-2-2-11-2l-11 1h-2l-4-6-5-5 3-2c3-3 3-3 3-8-1-6-1-6-6-9l-10-2c-4 0-5 0-6-3l-6-5-7-5c-4-3-4-4-4-9s0-6-2-8l-3-2-7 5c-8 6-8 6-13 5-5 0-6-1-13-8-6-5-11-9-17-12l-10-6c-3-2-5-2-10-1-3 2-4 2-14-4l-10-5-36 20c-21 13-37 21-38 21l-45-17c-41-16-45-17-66-29l-22-12-8 1-7 1-17-6c-11-4-17-7-19-9-3-3-4-3-10-3l-14 1z"/>
</svg>
