<svg xmlns="http://www.w3.org/2000/svg" viewBox="0 0 1024 1024">
  <path d="M337 355l-16 6c-1 0-2 1-2 3 0 4-2 2-3-3-1-3-2-4-5-5h-10c-7 1-27 0-31-1h-7l-12 1h-8l-12 7c-12 7-13 7-20 8l-8 2h-2c-1-2-16 0-16 2l-1 2c-3 1-3 1-2-1v-3l-8 2c-5 1-8 2-9 4-2 2-3 3-3 0 0-2 0-2-5-1l-9 6-7 4-5 2c-1 2-3 2-4 2-2-1-3-1-4 1l-4 2-3 1c0 2-2 3-6 3l-4 1-6 2-6 3c0 1-9 6-15 7l-4 3c-1 3-6 7-9 7l-3 3-5 4c-3 1-3 2-3 5 0 2-1 4-3 5-4 3-7 9-7 13l-2 5v3l3 3c0 3 1 5 4 6l4 5 1 3c1 1 1 1-2 1l-7-1h-7l-6 2-8 4-13 6c-8 4-8 4-12 3l-5-2v3c0 4 0 4 5 5 7 3 9 3 17-3 6-5 7-5 14-6 7 0 7 0 8 2 0 2 0 4-2 6-2 3-4 8-2 8 3 0 10-4 13-7 5-5 7-7 18-9 6-2 9-2 11-1 4 1 6 0 8-7 2-4 2-5 1-7-2-3-1-6 3-9 3-3 3-3 15-3 2 0 5 0 9-2 7-4 9-4 11-2 4 4 17 2 17-1 0-2 1-2 3-1 1 1 6-5 6-8 0-2 4-5 6-5h5c2-1 3-4 6-10l4-8 8-2c4-1 8-3 9-5l6-3c3-2 4-3 5-6l2-4h7l8 2h5a133 133 0 0133-1c1 2 2 2 5 1l13-2c12 0 16 1 30 11l-1 3c-2 3-3 5-8 7-5 3-7 3-20 3l-16 2c-1 0-2 1-2 3 0 3 1 3 5 5l9 5 8 4c3 0 4 1 4 3s1 3 4 4 13 2 13 0c0-1 16-1 22 1l5 2c3 5 12 7 12 3 0-2 2-3 4 0 2 1 2 2 1 4-1 4 0 4 2 1 2-2 2-3 2-7l-2-9c-2-3-2-4 0-4 2-1 6 4 6 8 0 7 6 11 17 12 6 1 8 1 14-1 5-2 8-2 17-2 12 1 15 0 14-3l-4-5c-4-4-3-5 1-5 6 0 10 1 10 3 2 6 2 8 0 8s-1 6 3 8l7 7 14 8c8 3 10 4 12 8 3 4 3 4 4 3 1-2 2-2 6-1 4 0 5 1 5 3s0 2 3 2l4-2h4l5 2c4 0 12 3 15 5 1 2 2 2 3 1 2-1 16 2 21 4s9 1 14-1c3-2 8-3 11-3l21-4h7l-1 2c-1 2-1 2 3 3l6 3c4 5 8 13 8 16 0 2 1 3 4 5s3 3 2 3c-2 0-2 1-1 6l2 10c1 8 2 9 5 10l8 5 8 4c2 1 3 2 4 5s1 4 3 3l7 5c6 6 8 7 17 7l7-2c2-2 3-2 8-1 6 2 36 2 41 0 3-1 8 0 10 2l4 2c3 0 4 5 2 6-3 2-2 3 4 5 4 1 7 3 8 5 2 3 1 8-2 12-2 1-3 3-3 5l-4 2c-2 0-3 1-4 3l-7 4-10 7-9 7c-2 0-3 2-4 5l-4 7c-4 3-10 14-10 14l5 2c3 2 4 2 6 0l6-2 12-1c6-1 8-2 10-4s3-3 13-3l7 1c5 1 7 1 10-1l6-1 6-2c2-2 3-3 4-2h5l14-2 30-4c3-1 8-2 19-1 14 0 16 0 19-2 4-2 4-2 6 0 2 1 3 2 8 2l11 2a87 87 0 0040-1c4-2 4-2 4-6 0-5 2-8 5-8 3 1 4 4 1 9s-3 5-1 5l9-1c5-1 6-2 8-4 0-2 2-3 2-3l7-5c3-3 6-5 7-4l28-5c4-2 8-2 14-2l9-1 2-4 4-5c4-2 4-7-1-11-4-4-7-5-10-3-4 3-9 3-11 1l-7-4c-3-1-7-4-10-8l-11-9c-3-1-5-4-6-6-2-3-2-3-6-3-2 1-4 1-6-1-5-3-15-5-21-3h-7l-10-1-6 1-2 2c-2 0-2-1-2-3s0-2-6-2c-4 0-5 0-5 2l-3 3h-4l-1-1h-2c-2 1-2 0-3-2l-1-3c-2 0-8 4-8 6h-3c-3-1-3-2-3-6v-5h9l8-1-3-3c-3-2-4-2-7-1-3 2-6 1-6-3 0-2 3-3 5-1s5 1 6-3l2-5c1-1 1-3-1-5l-3-3-5-3c-4-2-9-3-14-1l-6 1-5 1c-1 2-8 3-11 2h-3c-1 1-2 0-3-3s-2-4-4-4l-11-5-8-5h-7l-6 1v5c0 3 0 4-2 4l-1-2c0-4-3-8-6-8l-2 1c1 3-5 2-7 0-3-2-2-3 0-3l2-2c0-1-1-2-6-3l-9-3c-5-2-9-3-10-2-1 2-5 4-6 3-2 0-2-1 0-2l2-3c0-2-8-12-10-12h-2l-2 3-2 4c0 3-2 4-6 4-2 0-3 0-3-2l2-3c2-2 0-5-3-5-5 0-8-1-9-4l-4-3c-4-2-6-5-5-7s0-2-2-3h-9l-6-1c-7 0-11-2-12-5l-2-3c-2 0-6-5-6-8 0-2-1-2-3-2s-2 0-2 3l-1 4c-1 2-1 2-4-2l-9-10c-5-5-7-7-9-7l-6-2c-1-1-5-3-8-3-4-1-7-2-10-5s-4-4-9-5l-9-2-16-9-1 4-1 3-3-3-6-4c-2-1-12 0-22 1l-19 1-9-6-11-7-6-6-5-7-2-3-2-5c-2-2-3-2-4-1l-6-2c-4-2-5-2-7-1s-3 0-4-2-1-3 3-6l3-3-4 1-6 2c-2 2-2 2-6-1l-6-2-2-2-2-1h-5c-2-2-3-2-6 1-5 3-9 3-14 1-2-1-5-2-6-1-2 0-13-5-15-8l-5-4c-3-2-3-2-14-1l-12 3h-9l1-2c1-2 1-2-3-1-6 0-7 1-8 3l-4 4c-3 1-4 0-8-4l-5-5 4-2c5-2 9-6 7-6l-14 6z"/>
  <path d="M601 403c-3 2-6 2-14 1-4 0-5 0-5 2-1 3 0 4 3 4l7 2 8 1 7 1h7l4-2c3 0 2-2-3-7-3-3-5-4-8-4l-6 2z"/>
  <path d="M623 415l-5 2c-2 1-2 1 2 1 3 0 4 0 3 1 0 3 3 4 5 1 1-1 1-1 1 1l4 6c4 4 4 4 4 2 1-2 1-2 3-1s3 3 3 5l2 3 1 3c-1 2 1 4 4 4 2 0 3 1 3 3 0 5 10 12 10 7 0-2 2-1 3 1 1 3 3 5 6 5 2 0 3 1 4 3 0 2 2 4 3 4v-3c0-2 0-4 2-6 3-1 3-3 3-5 0-3-1-4-5-4l-7-1-5-2-1-2c0-3-3-6-5-6l-1-2-3-2c-3 0-7-3-7-6 0-2-1-2-4-2s-4-1-4-3c-1-5-1-6-4-7h-15z"/>
  <path d="M688 463c-2 1 0 6 3 8 2 2 4 2 6 2l4-1-4-5c-4-5-6-6-9-4z"/>
  <path d="M705 474l2 5c1 3 3 5 5 6l3 4c1 3 1 3 6 3 4 0 6 0 8 2 2 3 4 1 4-4 0-4-1-5-4-5-6-1-11-4-11-6l-6-4c-5-2-7-3-7-1z"/>
  <path d="M184 482c1 1 0 2-1 3-5 4-9 16-6 17l11 14c0 3-5 5-9 5l-6-2c-1-2-6-5-7-5l4 7c5 8 9 10 17 10l9 1c4 1 4 1 16-6 12-6 13-7 13-10l-2-5c-2-3-2-4-1-6 1-3 0-5-5-8-4-1-6-4-5-7 1-2-7-6-16-7l-10-2-2 1z"/>
  <path d="M526 554l6 6 1-2c-1-2-7-6-7-4z"/>
  <path d="M542 563c-2 2-1 2 3 7 5 5 7 6 7 2l-4-5c-4-4-5-5-6-4z"/>
  <path d="M556 575c1 3 2 4 6 4 3 0 3 0 2-2l-3-2-4-2c-2 0-2 0-1 2z"/>
  <path d="M567 582c0 2 2 3 5 3 4 0 2-3-3-4-1-1-2 0-2 1z"/>
  <path d="M580 590h3c2-1 0-2-2-2s-2 0-1 2z"/>
  <path d="M616 604c2 3 8 6 9 4 2-2 1-3-4-5-7-3-7-3-5 1z"/>
</svg>
