<svg xmlns="http://www.w3.org/2000/svg" viewBox="0 0 1024 1024">
  <path d="M87 47l-19 7c-3 3-5 4-7 3-3-1-12 8-13 13-1 3-2 3-8 5l-18 4c-8 3-11 5-16 9l-6 5v16l6 3 6 4 3 10 3 10-2 3c-2 3-3 3-2 8 1 7 2 7 6 9 5 2 7 3 14 0h31l19-19c17-17 18-19 21-18 3 0 10-3 22-11 8-6 10-8 17-17 3-5 4-7 4-11 0-5 0-5-3-6-2 0-6-2-9-5-6-4-6-4-6-10v-5l-5-2-15-6-9-4-14 4z"/>
  <path d="M160 156l-5 3-4-3-3-3-5 5-7 8c0 2-1 3-2 3h-9l-9-1-1 4c-2 4-3 5-7 7s-5 3-5 6c-1 4 0 4 3 6 2 1 3 2 4 5 0 4 1 4 5 3 3-1 3-1 9 4 4 4 7 5 12 6 6 1 6 1 12-1 8-4 11-5 20-5l13-4c5-2 6-2 7-7l-1-7-1-6c1-2 1-3-2-3l-8-1h-4l-2-5v-9c2-2 2-3 0-5-5-4-5-4-11 0z"/>
  <path d="M923 180l-6 2c-3 0-5 1-10 6l-7 6v8c1 7 1 9 3 12 2 4 3 5 1 7l-1 8c0 4 0 5-3 7l-3 3 5 1 10 1c5 1 6 2 7 5 1 4 1 4-2 8l-3 4 5 4 4 4 1 8v10l9-2 8-3-2-5-2-8c-1-2-1-3 1-3s3-1 3-4c0-2 1-4 3-5l2-3-4-12-5-16-2-7 3-2 2-2-2-9c-3-7-3-9-2-13 1-3 1-4-3-7-6-5-6-5-10-3z"/>
  <path d="M215 205c-2 5-2 5 0 7 1 2 4 4 7 5 5 2 7 3 8 5 3 6 3 6 14 5 10 0 10 0 12-3l1-3c0-2-7-3-12-3s-6 0-6-2l-4-6-3-4c0-2-2-3-7-4l-7-2-3 5z"/>
  <path d="M382 248c-2 2-4 2-8 2-6 0-6 0-10 4l-7 4c-3 0-4 7-3 14l2 5 10 7 11 7 6 11 7 16c0 5 1 5 4 7h5c2-2 2-3 1-6s-1-4 1-5l8-14 5-11h4c3 0 5-1 8-3 3-3 4-3 12-3h9l11 7c14 8 17 8 37 7 17 0 19-2 16-9-2-2-3-3-5-3-3 0-5-1-9-5l-11-8c-6-2-7-2-17-1-11 1-11 1-14-1-8-5-10-7-18-8l-9-2-3 2c-3 2-4 2-7 1-2-1-3-1-4 1l-4 2c-1 0-7-6-10-12-3-4-4-4-8-5l-5-2c0-1-2-1-5 1z"/>
  <path d="M255 255c0 4 0 5 3 5 6 2 6 1 2-5l-4-5-1 5z"/>
  <path d="M289 270c-2 2-2 3-1 5 1 4 4 4 7 0l2-4-6-3-2 2z"/>
  <path d="M972 425l-2 5-8 1c-14 2-17 2-26-3l-9-5-2 4c-1 3 0 4 1 5v4c-3 4-3 4 1 12 2 5 2 7 2 12l-1 7-7 4-10 10-3 6 2 10 2 10 17 8c6 1 8 3 11 6l3 3h11c9-1 12-1 16 1l4 1 4-6c3-5 4-6 17-13 23-13 25-14 25-18l2-6c2-2 2-2 1-14l-2-12-6-6c-5-5-6-7-6-10l-2-7c-1-3-1-3-6-3-4 0-7-1-16-5l-11-6-2 5z"/>
  <path d="M607 775c-4 4-5 5-5 9 0 6 3 15 7 19 3 3 3 3 2 7l-4 7-2 7-2 8-1 9c2 7 0 19-3 24-2 2-3 6-3 9l-1 5 4 2c4 2 5 3 7 7s2 5 5 4c3 0 4 1 7 5l4 5-3 3-3 3 7 8 7 9 16 6a136 136 0 0064 10l3-7c0-4 1-6 4-10 4-4 4-5 3-7-1-4-1-5 4-6l5-3c1-1-1-8-4-17-2-6-3-6-5-6-3 0-4-1-9-8-4-6-6-10-6-13-2-8-2-9-7-10-4-2-6-3-8-7-3-4-3-4-8-4h-6l-8-15-8-14h-4c-3 0-5 0-11-4l-10-10-4-5 1-6 1-6-4-5-5-5-3 3-3 3-3-4-3-5-5 5z"/>
  <path d="M821 777l-6 12c-1 5-2 5-5 6s-4 1-4 5l1 5 3 1 1 5c0 4 0 5-2 7-3 2-6 16-5 24 0 6 0 6 4 8l8 5c3 4 4 4 12 4l9 1 12-11 12-10-2-12c0-7-2-16-3-20-2-6-3-7-1-10 1-2 1-3-2-9l-5-6-4 1-5 2-3-6-4-5-2 3-2 2-1-4-2-4-4 6z"/>
  <path d="M368 885l-9 5-10 4c-7 3-9 4-13 9-6 8-10 19-13 33l-2 10 10 10c10 10 11 11 22 16 9 4 13 5 16 5 7 0 18-5 26-12l9-7c2 0 2-1 2-14 0-17-1-28-5-38-2-8-3-9-8-14-6-5-13-9-17-9l-8 2z"/>
  <path d="M249 944l-9 2c-5 0-5 0-6 7l-3 3c-2 1-3 2-4 8l-1 8 5-1 4-1 4 6 4 5 4-2 8-4h4v-8l-1-15c0-7 0-7-3-9-4-1-3-1-7 1z"/>
</svg>
