<svg xmlns="http://www.w3.org/2000/svg" viewBox="0 0 1024 1024">
  <path d="M7 293l-2 6v3c-1 1-2 2-2 5l-1 7c-2 4-2 4 1 6 1 2 4 4 7 5 2 1 6 4 8 8 5 5 5 6 5 9-2 11-3 9 5 17 8 7 10 9 7 14v5l2 4 2 2c1 1 2 2 2 7 0 4 0 6 2 7l3 2 4 4c2 3 3 4 3 8l1 4 1 4c1 6 5 14 8 16l5 6c1 2 2 3 4 3s3 2 0 3l-2 2-4 6-4 6-2 4c-2 4-1 7 2 10l5 6c0 2 2 3 3 4l6 5c4 4 5 5 9 5 6 0 11 3 17 10 4 5 5 6 11 7h9l5-2 2-2 2-6c1-3 1-3-1-6l-4-3v-2l2-4v-3c2-1 2-1 2 1-1 3 0 7 2 7s3-6 1-8v-3c1 0 3 2 3 4l4 1 6 1c1 2 0 3-3 3l-5 2c-4 3-4 3-2 4s2 2-3 6l-2 5c0 2 4 6 6 6l4 3c2 3 6 5 9 4l8 3 8 3 8 3 9 3 2 2c0 2 1 2 3 2 5 0 7 3 7 10l4 8c3 4 2 3 6 1 4-1 10-2 14 0 2 0 3 2 3 3 1 3 2 3 4 3 4 0 6 1 7 6 1 7 0 7 9 7l7-1v7c0 5 0 6 2 7 2 0 2 1 2 4l1 5 1 2c0 2 6 5 11 5 3 0 7 3 10 8 1 3 2 3 6 3l9 1 15 2 10 1 3-3c2-2 4-6 5-12 4-11 4-12 1-13-2 0-4-2-4-3-3-5-11-6-11-1l-4 5c-3 3-4 5-3 5 2 3 1 4-4 4s-5 0-7-5-2-5 0-5c5 0 13-3 13-4l-4-4c-7-4-7-5-2-5 5 1 7 0 5-4-2-3-2-3 1-3 2 0 3 1 4 3l4 4 3 2 4 3c2 2 3 3 3 5s0 2 4 1l6-4c2-2 3-2 15-3h15l8 2 9 3 7 3c4 1 7 4 7 10 0 5 2 9 5 9 2 0 3 1 5 3a67 67 0 0012 13l10 5c9 3 12 5 17 13 1 3 4 6 6 6 4 3 7 6 8 11l6 9c5 5 9 6 22 5l8-1 3 4 4 3h11l14 2c3 3 4 2 4 0 0-3-2-6-4-6-1 0-2-1-2-3l-1-3-1-3-3-6c-5-7 1-13 8-6 1 2 2 3 3 2h3c1 0 1 1-1 2-2 3-4 14-2 16l1 6c0 6 2 9 6 9l7 2c6 2 8 2 6-1v-1l7 1c4 0 5 0 5 2l-1 1-1 1 8 2c7 0 8-1 10-2 1-2 4-3 5-1s5 1 6-1h6c7 1 9 1 11-1 1-1 1-1 3 1 2 3 2 3 4 2l6-3c8-2 40 1 48 5l32 7 9 2 8 2c4 0 16 4 19 6l8 1c5 0 6 0 8-3l2-4 1-5c1-4 2-4 5-4 5 0 9 4 12 11 0 3 2 5 3 5l3 3c2 2 3 2 7 2 7-1 7-2 5-10l-1-10c0-4-3-4-9-2-4 1-6 4-3 6 2 1 1 3-1 3s-2-1-2-4c0-5-2-8-4-6s-4 1-7-1l-4-2c-3 0-3 0-2-1l2-4c0-4 2-7 4-7s5 4 5 6 1 3 3 2l1-4c-1-4 0-4 3 0 4 5 6 7 6 3l-3-5-3-4 3-1c4-2 7-1 8 4 0 3 1 4 4 2l1-2-3-4-2-6c0-2 0-2 4-2 3 0 4-1 4-3s0-2 4 0c4 1 11 10 11 12l-2 2c-3 0-4 5-2 6l2 5c-1 3-1 4-3 2l-4-1-6-1c-3-2-6-2-6-1l2 3c1 1 2 2 1 3v7c0 3 2 9 6 11l11 2c7 0 8 1 12 4l7 5c4 2 16 3 15 1l-3-1c-3 0-5-2-4-3l7 2c7 2 18 1 18-2 0-2 2-1 2 2l3 4 1 1-5-2h-9l-5 1h6c4 0 6 0 7 2s6 2 18 0c8-2 10-2 13-1l9 3c4 1 5 1 8-1 2-2 3-2 12-1 9 0 9 0 12-2 6-5 9-16 4-15-1 0-2 0-2-2s2-3 5 0c2 1 2 1 3-1l3-3 3-2c3-5 8-7 13-7l11-2 15-2 11-2 8-1c4 0 5 0 6-2l3-2c2 0 8-5 8-6l1-2c4-2 2-5-4-7l-6-3-9-4-12-4-8-3-7-2-4-1c0-1-1-2-3-2l-3-2-8-5-11-7c-9-8-20-15-29-18l-10-5c-2-2-6-3-7-3-2 0-4-1-7-4l-6-4-1-1-6-5a317 317 0 01-43-37l-5 7-3 6 2 4 3 4 2 1 4 3 4 3c2 0 0 2-4 3l-5 1h-4c-3 0-4-1-4-3s-1-3-2-3l-1 3c1 2-1 3-3 1h-1l-2 3-1 2-2 3c-3 0-4-1-3-2 2-2-3-4-6-3l-3 2h-2c-2-1 1-7 4-7 6-2 5-6-2-8-3 0-4-1-4-3l1-2c1 0 2-1 1-2 0-3 0-3 3-3l4 2c0 1 1 2 4 2 2 0 3-1 3-2-1-3 3-4 6-1h3l2-1 1-1 3-4c2-2 3-5 3-7 1-3 0-4-5-8l-9-10c-5-7-19-16-24-16l-3-1-3-2-19-3c-3-2-18-6-27-7a81 81 0 01-17-4l-10-3c-4-1-6-2-7-1s-7 3-12 3l-4 1-2 1c0 1-20 7-32 9l-10 2-11 2-13 4c-2 2-3 2-16 4-9 1-29 0-33-2h-10c-7 1-10 2-16 5-16 9-17 10-54 11-28 1-33 1-37-1l-5-3c-5-5-26-14-40-17l-12-3-8-5-8-3-3-1c-1 1-4 0-7-2-8-5-20-9-27-10-5 0-9-3-18-12l-10-8-7-4-2-2-18-15c-3-3-6-6-9-7l-6-6-11-17-4-8c-1-3-2-7-4-8l-2-6-1-4c-2-2-6-16-6-20s-4-7-7-5l-3 3c0 3-1 3-3 1-3-1-2-4 1-4s8-4 8-6l-1-1-1-3c0-5-3-8-12-14-10-7-11-7-14-4-3 4-5 3-4-1 0-2 1-3 2-3 3 0 4-2 3-6l-22-20-10-6c-6-3-9-3-15-3-11 0-25 1-32 3s-7 2-12 0l-14-2-22-3-8-2c-6 0-9-1-14-4l-12-4-6-2c-2-1-4-2-10-2-8 0-9 0-19-5l-6-2-7-1c-2 0-3 1-5 4z"/>
</svg>
