<svg xmlns="http://www.w3.org/2000/svg" viewBox="0 0 1024 1024">
  <path d="M942 58l-27 8-36 10-18 5-13-2c-12-2-13-3-22-8-6-3-10-5-14-5l-4-1-4 5c-3 4-4 6-6 17-3 10-4 14-7 18l-3 5 2 6 2 5-4 3-3 2v10l1 9-4 5-9 6c-4 2-5 2-10 0-4-1-9-4-13-7l-7-5-5 2-5 1-1 6c-1 8-1 12 1 30l1 16-4 8-4 9-17 14a87 87 0 00-25 25c-8 10-8 11-19 18-14 9-34 19-49 25-14 6-28 14-31 20l-2 4-53 18-54 19-21 2-21 1-11 5c-12 5-13 5-16 4l-12-6a170 170 0 00-45-14l-13-1a572 572 0 00-50-5c-11-3-11-3-27-13-13-9-19-12-34-18-17-7-19-8-23-8-5 1-5 1-16-6l-12-8-9-16c-10-16-10-17-10-23v-6l-7-4-14-8-15-7c-9-5-13-5-19 2-5 7-13 25-13 31 0 4-1 10-4 16l-3 11 2 14c3 20 7 29 16 38 5 6 8 8 14 11l12 8c5 5 5 5 12 26 7 20 7 22 7 31v9l-6 3c-5 4-7 6-10 11-9 15-12 27-14 46s-3 23-6 27l-5 6c-1 2-2 3-10 6-10 2-10 2-10 6 0 3 0 3-2 3-3 0-3 1-5 7-2 4-3 7-6 9-3 3-4 3-10 2h-7l-5 5c-10 8-20 20-34 41L0 618l3 11 3 13c2 3 13 7 24 10 12 4 12 4 19 3 9-2 27-9 31-14l13-15c19-25 27-34 39-40l4-3 25 4 24 3 13-1a841 841 0 0141-5c4 0 12 0 29 3l24 3 12 15c16 19 22 23 33 24 10 1 20 1 35-3l13-2 11 4c7 2 10 3 16 3a464 464 0 01122 26 254 254 0 0140 57c3 6 3 6 5 32l1 27 5 13 8 29 4 15-3 12-2 12 2 12a355 355 0 0015 51c2 10 3 13 7 19l8 9 9 9c7 7 16 11 26 13 9 2 39 1 50-2l21-3c16-2 25-5 31-11l5-5v-13c0-11 0-16-2-25-3-13-4-23-2-34a514 514 0 006-56l3-28 5-27c1-6 2-9 7-18l11-18c4-5 5-8 5-12 1-5 2-6 4-8l12-10 8-9v-22l-8-16-7-15v-61l8-13 7-14 9-5 10-5 1-7c1-11 6-20 14-27 5-4 7-5 15-7 5-1 9-3 9-4l1-12 2-12 13-20c10-16 14-21 19-27l9-7 35-3c3 1 4 1 6-2s3-3 7-3c3 0 6-1 13-5l17-7c8-3 8-3 8-6 0-2 1-4 7-9l6-7-21-15c-18-14-21-16-21-19l-2-25-3-23 3-5 8-11 8-9 1-10 2-16c2-9 2-9 0-16-2-5-5-12-9-17-9-15-15-29-15-35l-2-10-1-12c0-6 0-8-4-13-3-5-4-9-5-15-2-9-2-9 0-19 3-9 4-19 3-32v-7l-7-3-7-4-10 2z"/>
</svg>
