<svg xmlns="http://www.w3.org/2000/svg" viewBox="0 0 1024 1024">
  <path d="M1018 202l-5 1-11 5c-6 5-7 6-11 5-4 0-4 0-5 2 0 2-8 7-11 7l-5 1-10 2c-6 1-7 1-12 5-4 4-7 5-11 6l-14 5c-7 4-8 5-10 9-1 4-2 5-10 11l-12 6c-3 0-15 6-19 10-2 2-3 2-13 2l-12-1c-4-2-4-2-6 1l-8 12c-9 12-16 17-28 21-8 2-10 4-15 8-4 4-8 7-13 9l-16 8-11 6-9 3-6 2-4 2-20 7-17 4h-35l-7 5-9 4-7 5c-4 4-8 7-16 11l-11 5-10-1c-9 0-9 0-13 2-6 4-15 7-24 7-6 0-9 1-16 3-8 3-9 3-13 2-6-2-12-1-14 0-1 2-3 2-9 2s-8-1-12-3-6-2-8-1c-3 1-15 1-18-1l-9-1-8-1c-6-2-16-3-21-2s-7 0-14-2c-8-2-8-2-13-1-7 2-9 2-20-2-12-3-14-3-18 0-4 2-5 3-10 3-8 0-16-3-21-6-3-3-5-3-11-3-7 0-9 0-13-3l-10-6-11-5-6-4v8l-1 13c0 6 0 7 3 8 3 2 3 2 3 10a906 906 0 000 41l-3 13c-2 12-5 21-10 28-3 4-7 7-15 12l-14 7c-4 1-5 1-7-2l-6-3-5-2c-1-2-5-3-8-4l-12-5-11-5-6-3-8-1-7-1-8-2c-5-1-6-1-8 1l-6 1c-3-1-4-1-5 2-1 2-1 3-6 3l-8 3-9 1h-6l-2 4c-1 3-5 7-8 10l-5 8c0 3-5 15-11 24-4 6-6 7-13 11l-10 7c-2 3-14 7-20 7l-9-2c-6 0-6-1-11-7l-9-8c-6-3-10-6-10-9 0-2-1-4-4-5l-5-3-4 5c-3 4-3 4-3 15 0 13 1 16 11 29l5 7 1 11c0 10 0 10-2 10s-2 1-2 3c0 3 1 4 3 6l3 3c-1 1 0 3 1 4 3 5 3 10 0 13l-3 3 4 4 5 10c3 6 13 14 17 14l5 5c2 4 2 6 3 14 0 10 0 11 4 15 3 5 3 5 3 11-1 5-1 6 1 6l12 8c1 2 5 4 8 5 2 0 6 3 9 6 8 7 11 9 14 8l8 2 8 3 11 3c7 2 9 3 13 7 4 5 5 6 10 7 4 0 10 3 14 5l10 4 8 2c8 4 13 4 14 1 0-2 1-2 8-2 8 1 9 1 11-1l5-4 6-2c3-2 4-2 7-1l8-1c3-2 4-2 5-1 1 2 2 2 8 0 8-1 10-1 18 6 5 4 15 18 19 27 2 5 2 9 1 18l-1 3 8-1 14-1c4 0 6 0 11 2 8 4 13 5 13 3l1-4-5-8c-7-9-8-10-6-23 1-9 2-11 5-15 5-6 19-17 25-18 4-1 7-3 9-5 2-3 5-4 9-6h25c19 1 32 2 38 0 2 0 5-2 8-5 5-5 5-5 8-4 5 3 17 1 18-3l6-1c4 0 6-1 11-4l8-4c4 0 11-4 13-7 3-5 11-8 27-11l11-2 7-8c5-7 7-8 12-10 6-2 15-3 17-1l4 2c2 0 2-1 5-8 2-8 7-15 12-16 2-1 3-4 4-28 1-22 2-25 15-32 8-5 9-5 16-5l15-1c10-2 20 0 27 5l8 5c2 0 5 3 7 5l7 4c3 0 15-5 18-7l2-6v-4l7-1a303 303 0 0118-4h7l10 2c3 0 7 1 10 3 4 1 6 2 8 1 3 0 4 0 7 3s4 4 6 3h3l3 2c2 0 1-5-1-7l-2-6-2-10-3-6-4-4c-3-2-6-7-8-11s-5-7-7-8c-5-3-22-22-25-28-2-6-7-11-8-11-3 0-11-10-12-14l-4-6c-3-1-4-3-4-7l-2-7v-14l1-16c0-7 2-12 9-18 5-4 5-5 4-7-1-3 0-5 8-12 6-6 7-6 10-6 2 1 4 0 5-1 3-2 3-2 5 0 4 3 8 3 11 1l5-2c2 1 9-1 13-4 2-2 3-3 5-11 1-8 2-9 8-16l18-19c11-10 12-11 21-14l16-8c9-6 21-12 25-12s7-2 15-11c10-12 20-20 26-22 7-2 10-4 12-8l3-2 4-5c3-11 11-22 15-22l5-2c1-2 4-3 7-4l10-5c5-3 7-4 11-4 9-1 15-4 19-10l5-10c0-3 1-7 3-9 3-6 2-8-4-6z"/>
</svg>
