<svg xmlns="http://www.w3.org/2000/svg" viewBox="0 0 1024 1024">
  <path d="M335 228l-2 4c-1 2-2 5-4 6l-3 2 3 3c2 2 3 3 5 2 3 0 4 0 2 3-1 2 0 2 6 5l7 5c0 3-9 8-17 8-5 0-9 1-10 4l-11 7c-9 5-10 5-17 6-6 0-8 0-10 2s-3 3-6 2h-4v5c0 4 0 5-3 6l-11 2-11 3-8 1c-4-1-5-1-8 1-2 2-4 3-8 3h-5l-2 5-3 7-4 7c-4 4-3 4-12-3l-5-4v3c-1 2-2 4-5 5-2 2-3 3-2 4 1 4 1 5-2 6s-3 0-5-3l-2-3-8 13-4 9-4-1-9 1h-6c-3-2-4-1-5 6 0 5-1 7-4 10-3 4-9 7-11 5l-9-6-7-5-5 3-10 7c-4 3-4 3-6 2-3-3-6-2-17 1-9 3-9 3-15 11-3 4-6 7-8 7l-3 4c0 3-1 4-2 4-2 0-6 9-6 15s-3 11-6 10-4-3-4-7c1-4 1-4-2-6-5-2-5-2-3-5 2-2 2-3-4-3-2-1-3-1-4-6-1-4-2-6-3-5-9 0-8 0-8 2l1 5c1 2 1 3-2 4l-4 3c0 1 4 5 8 7l7 9c3 6 4 7 2 8l-1 6c0 4 0 4 5 7 4 2 5 3 5 5s1 2 4 3c2 0 4 1 5 3l8 5c6 3 7 5 7 7l1 2 3-2 3 3 1 6c0 2 0 3 5 4 5 3 5 3 5 7 0 3-4 11-8 15l-3 8c0 4-1 5-4 6l-5 4-2 3 2 3 4 5c0 3 1 4 7 5 5 1 6 1 6 3l-2 6c0 5 0 5 2 6 4 1 7 6 8 13 1 5 2 6 5 7 2 2 3 2 3 5l2 10c2 5 3 7 5 7l7 4c4 3 5 3 7 10l2 8h13c2 1 2 1 2-1l1-2c4 0 11 3 15 7l5 4c1 0 2 1 2 3s1 5 4 8l6 8 6 7c4 3 5 4 5 6 0 3 1 4 4 7 4 3 6 4 9 4 4 0 5 1 12 7l8 8 1 7c2 9 2 9 12 16l4 3v-3l-1-4h6c4 0 6 0 8 2l3 2c2 0 3 1 7 9 2 7 2 7 8 6 4-1 4-1 6 2l3 7c5 5 7 10 6 12-2 3 0 4 6 4 4 0 5 0 11 6l9 7c3 1 10 10 10 12l-3 2-2 1 3 4c4 5 5 5 12 8 5 2 9 2 16 2h9l4 4 4 4 3-2 4-3c1 0 2-1 1-2 0-2 0-2 3-2 3 1 3 0 5-4l2-7c0-3 3-3 5 1 2 2 3 3 8 4 4 1 5 1 8-1h4l1 3 2 1c2-1 3 0 5 2l3 3 2-2c2-2 3-3 3-11 1-12 2-15 6-17 5-3 9-9 9-12 0-4 1-4 11 0 8 2 13 3 14 1l-1-5c-2-4-2-4-1-9 1-3 2-7 1-8l2-6 2-4-2-6c-3-7-3-11 1-13l2-4 2-2c5 0 7 1 8 4 0 2 1 2 6 2h6l2 5c2 3 2 4 4 4l7-1c4 0 4 0 6-4 1-3 2-3 6-3 5 0 7 1 11 3 3 3 7 4 10 5 4 0 5 1 5 3 1 2 3 3 9 6l13 6c4 3 6 4 12 5h7l1-2c1-2 3-1 13 4 7 4 14 9 17 13l11 9 5 4h14c11 0 16 0 20 2 5 1 5 1 7-1h3c2 2 4 1 9-6 6-6 7-7 10-7l6-2c1-1 2-1 5 2 3 4 4 4 7 3 4-1 4-1 7 1 2 2 3 4 3 7 1 3 1 3 4 3l10 2c6 3 7 3 14 2l8-2 2 10 2 10 3-6 4-10c2-1 3-5 4-7l6-9 8-10c4-5 4-6 11-7l7-2 9 5 10 5 9-3 10-4 4 3c5 3 7 3 13-1l11-4h6l4-9 4-9h5c6 0 12-3 18-11l8-8 9-4c7-4 11-10 15-20l4-10c2-1 2-4 3-10 0-5 2-9 3-13l3-4 11-4 17-6c4-2 5-3 7-8 1-4 3-8 6-11 3-2 6-7 7-10 2-5 3-5 8-7l5-3 7 2 7 2 12-4c11-4 11-4 12-8s1-5-2-12l-4-13c-1-5-4-9-7-9-4 0-7-1-7-3-1-2-2-2-5-2-5 0-9-3-9-6l-4-12-4-10 3-5 2-5h-3l-3-1 1-5c1-4 0-4-2-6-2-1-2-1-3 2s-2 3-5 3c-4 0-5-1-8-3-2-2-5-4-9-5-9-1-9-1-10 2l-1 3-3-2-5-5c0-2-2-3-4-4-3-1-4-2-6-6l-2-5-1 3c-2 3-2 4-8 1-3-1-4-2-5-5 0-1-2-5-5-7l-4-5-2 4-2 4 3 2 2 3-3 1c-3-1-4 0-9 3-4 4-7 5-10 5-5 1-6 1-11-4-5-4-7-8-11-15l-4-9h-4c-5 0-7-2-14-11l-3-4 5-1 9-1 4-2 4-4c3-1 3-2 3-5l-2-6c-2-3-2-3-1-7l2-4-5-3-5-4v3l-3 6c-2 3-2 3-10 3l-15 2c-9 3-11 3-12-1s-3-4-6 0c-3 2-3 2-4 0-1-1-2-3-1-7v-4h-4l-10-4c-6-4-7-5-7-7 0-3 0-3-6-3-5 0-6 0-8-3s-3-3-6-3l-6-2-21-6-4 4-2 4 3 3c4 2 6 7 8 15 1 4 1 4 6 5 6 2 6 2 6 5l1 8v5c-3 2-5 1-6-2l-2-2-1 2c-1 1-2 2-5 2s-4 0-6 3c-2 5-2 5-4 2l-2-2-3 2-7 9c-2 5-4 7-5 7l-3 4-1 3h-5l-9-3c-4-3-9-12-9-20-1-6-1-6-10-16-8-9-10-10-13-11-5-1-8-4-7-10v-3h-14l-2-4c-1-4-2-4-4-4-3 0-4-1-5-3-1-3-1-3 1-3s3-1 3-2c0-2 2-4 6-6 5-2 6-4 6-6s0-2 3-1c2 2 3 2 6-1 4-3 7-7 5-9s-1-4 3-4l4-2-7-10c-7-9-7-10-10-10l-13-2c-2-1-2-1-4 4-1 4-2 5-4 6-2 0-3 0-4-2l-7-4c-5-1-9 1-10 6 0 4 0 4-5 4h-4v-4c1-3 0-6-1-9l-2-4h-5l-8 2c-4 0-4 0-6-4l-3-7c0-2-1-4-3-5-2-2-2-2-3-1l-1 2c0 2-8 1-12-1l-9-2a96 96 0 01-31-13l-4 4c-3 4-3 5-5 4-1-1-2-3-2-8-1-8-2-9-8-12-3-2-4-3-5-8-2-5-2-7-1-9 1-3 0-7-3-7l-1-1c0-4-2-4-5-3-4 1-4 1-7-2l-2-3-2 3-2 2-2-3c-2-2-3-3-8-3-7-1-11 0-11 3l-2 4 2 2c2 0 3 1 3 4s0 4-3 6-3 2-2 4l3 7c0 3 0 4-2 4h-10l-12-1c-4 1-4 1-5 6l-2 6-5-2-20-8 2-6 2-6-2-2-3-2-4 2c-3 3-3 3-4 2-1-2-1-3 1-10 2-5 2-5 0-9l-5-5c-3-1-4-2-4-4 0-4 0-4-5 0l-7 4c-3 1-3 1-6-2l-6-3-5-2c-1-2-3-3-3-1z"/>
</svg>
