<svg xmlns="http://www.w3.org/2000/svg" viewBox="0 0 1024 1024">
  <path d="M305 5c-8 12-9 17-9 27-1 8 0 9 1 9s2-1 2-7c0-9 1-10 7-8h8c5-3 14-4 14-2l4 6 4 7 4 6 7 8 2 5c0 3 0 3 3 3l5 2 4 7-6 2c-5 2-6 2-6 4l1 2 4 1c4 0 6-1 8-3l4-3 2 3c1 4 1 4-1 4l-6 3c-5 3-6 3-17 3-10 0-12 0-14 2-1 2-1 2 2 3 4 1 4 1 3 3l-5 1c-2 0-3 0-4 2 0 2 1 3 4 6l4 4 3-2c2-2 5-3 8-3a353 353 0 0016-1c-1 3-3 5-6 5-2 1-3 2-4 6-2 5-2 6 0 8l2 4 6-1 6-1 2 3 1 8c-1 5-2 6-8 4-3-2-7-1-7 0 0 2 5 10 8 13 4 3 5 3 9 4 14 0 22 1 29 5 6 3 6 4 9 10 2 5 4 6 7 8 5 3 6 3 6 8 1 3 2 4 6 7 4 2 17 6 21 6l1 2c0 2 0 2-3 2l-8-2-11-3c-5-3-6-4-8-7l-9-12-9-10c-5-8-16-11-26-8-5 2-18 2-27 1-4-1-6-1-9-4s-3-3-6-2c-5 2-8 5-12 17l-5 12 4 8c5 9 6 10 3 14l-4 8-1 6c0 2 0 2-1 0-2-3-1-10 1-14l2-4-7-4c-3-1-7-3-8-5l-6-2c-3 0-4 0-5 3l-2 7c-1 3-1 3 3 3s5 1 5 6l-3 6c-5 4-8 4-11 0-1-2-3-3-5-3-4 0-6-2-6-5 0-2 1-3 3-4l4-2c2-2 2-2-1-8-2-4-4-6-7-7s-3-1-3-4c1-3 1-3-2-4-2-2-5-2-16-1l-21 3c-7 1-10 2-11 1h-18c-9 2-13 4-20 11-4 3-5 5-3 5l3 1c1 1 1 1-1 4-1 2-2 3-3 2h-3c-2 2-6 14-6 17 0 4 2 5 11 5 15 0 14-1 11 9l-2 8-1 7v5l1 12v10l-5 8c-5 7-6 10-9 21l-3 12h-13c-4-2-11-1-15 1-3 2-4 5-1 8v2l-3 1c-2 2-2 2-1 6 1 3 2 4 5 6s4 2 14 2l10-1 5 5 4 5-3 4c-3 5-3 6-3 11 1 6 1 6-2 9l-12 7c-8 4-10 6-11 9-3 5-2 7 1 12l4 5-28 9c-13 2-14 2-14 5l-1 2-11-5-11-3c-1 3-4 5-8 5l-8 2-4 1 2 6c1 5 2 8 5 11l4 8c0 3 1 4 4 7 10 8 10 8 10 19l1 10-8 12-8 12h5l5-1-2 6c-3 4-4 5-11 9-6 3-8 4-11 4l-3-1v11l6 1c6 2 7 3 9 7l3 5-3 4c-3 4-4 7-2 12 0 1 1 2 5 2h5l2 6c2 5 6 8 11 10 1 1-1 2-3 5l-4 3 2 4c1 4 2 4 5 4s5 1 7 3l3 3-1 5-1 6 3 3 3 4h-3c-2 0-5 1-9 5l-8 5-3 7c-3 11-2 20 2 30 3 6 5 7 12 12 5 3 9 6 13 7l6 2 2 6 2 5-9 8-8 8v16h3c2 0 5 1 10 5 7 5 7 5 7 9s1 5 4 8l6 10 3 6 7 2 8 3v-5l1-5 9 2c8 3 9 4 9 10v3l3-2 2-3 6 1c9 2 10 1 15-1l4-3 6 2c6 1 7 2 8 5 2 4 2 4 11 7s10 3 22 2l12-1 5 3c4 4 6 4 13 5l9 1-7 12c-7 12-8 13-19 23l-14 12-1 9c0 6-1 8-5 20l-10 21-5 19-2 11 3 4 2 4-4 11c-4 10-5 12-5 19l2 13 2 6 4-1 4-2v5l1 4 11-4 5-2 5 3c5 2 7 2 14 1 6 0 7-1 10-4s4-3 9-3 6 0 8 3l3 3 12-2c18-2 16-1 16-7l-2-6-4 2c-7 3-8 3-9 0-2-5-1-9 5-13 4-3 5-4 9-4s5 0 8 3 3 4 1 7c-1 3-1 3 1 3l7 1h4l-1-3 1-4 2-1 4 5 1 6 7-2 6-2 8 3 14 2c5 0 6 0 19 10l13 9h7c7 0 7 0 11-4l5-5 2 3c1 2 2 2 6 2 7 0 11 2 16 7l5 5-1 5c-1 5-1 6 7 7l6 1-2 5-1 4 18-4 5-8c5-6 5-7 4-10-1-4 0-14 1-14l5 1h8c4-1 5-1 9 2l5 3 8-2 8-2a316 316 0 016 18c1 2 15 0 21-3 5-2 5-2 6 3l1 3 8-5c4-4 8-6 8-8 1-3 1-3 8-3l7-1 5-5c3-5 3-5 8-5l27-1c24-2 22-1 21-9-1-3-1-4 2-6l4-2 1 4v3a227 227 0 0016-4c1 0 3 2 4 5 3 4 3 4 8 4l9-2c4-2 6-2 11-1h6l1 6c0 4 1 7 3 10 4 5 6 6 15 6h5v-5c0-4 1-5 3-7 3-4 4-5 2-10-1-5-4-6-12-7l-5-1 4-8 4-8-2-5c-2-5-3-7-7-9-4-3-5-4-6-8 0-4-1-5-3-5-3 0-3-1-3-6s1-6 4-10c4-5 5-5 9-5 3 0 5-1 8-4 4-4 6-4 15-6 11-2 9-1 25-14 3-3 3-4 4-12 0-7 1-9 3-12l3-4 7 4c12 7 12 7 16 4l6-5 3-4-2-6-2-6 2-7 3-7-4-3-4-5-5-3c-3 0-4-1-5-5-1-3-2-4-5-5-5-1-7-1-8 1-2 1-2 1-6-1-4-3-5-4-6-9-1-4-2-6-6-9s-5-4-7-3c-3 1-3 1-5-2l-4-5c-8-7-14-15-14-16l-4-5c-5-3-10-4-12-2-1 2-11-3-12-6l-4-4c-5-3-6-5-6-11 0-3 0-4-3-5-2 0-3-1-3-4-1-5-2-6-4-8-2 0-2-2-2-4-1-3-1-4-5-5-3-1-7-5-7-8 0 0 1-2 3-2 2-2 3-3 3-5 0-3 1-4 2-4 3-1 8-10 7-11l-4-2c-3-1-3-1-3-3 0-3-1-3-4-3l-2-2c0-1-2-3-6-5l-7-3-2-2-3-4c-3-2-4-3-3-5 1-4-2-8-6-10-4-1-5-4-3-5 1-1 2-2 1-3 0-3 4-4 6-1l1 3 2 1c2 0 7 6 7 9l2 2c1 0 2-1 3-5s2-6 7-11c13-13 14-13 24-13 5 0 7-1 9-2l4-2 3-1 5 2c4 2 5 3 8 2 3 0 8-5 8-8 0-2 1-2 8-3 8 0 8-1 9-3l3-5c2-1 3-2 5-1 3 1 4 1 4-2l1-1 3-2c1-1 1-1 3 1 4 3 7 3 10 1l2-4 1-3 1-2c1-3 9-5 13-4l4-1c2-1 4-2 8-1l5-1 3-1 2-2c-1-3 5-6 12-7l8-1 7-3 6-3c1-2 3-3 8-4 6 0 7-1 8-2 1-3 1-4-3-4l-4-3-4-3c-2 0-2 0 0-5l3-3 9 3h7c2-1 3-1 4 1l4 2 3 2v6c-2 4-2 5 1 3 4-2 5-1 4 3l-1 4c0 1 11 6 14 6s6-3 6-6c0-2 1-4 4-6s4-3 4-5l2-6 7-19c4-16 5-18 0-24l-2-6-2-13-12-5c-12-4-12-5-9-12 3-5 2-10-2-13-4-2-7-6-7-9 0-1-1-4-3-5-2-2-2-4-2-5l3-3 1-1 4-4c3-4 3-5 3-11l1-7c3-4 2-7-1-9-3-1-3-2-2-4l1-9v-7l-6-3c-5-2-6-3-6-5l-2-7c-2-6-2-11 0-11l4-3c3-2 4-6 2-8v-4c2-5 0-7-9-12-6-3-9-5-13-9l-8-7-7-4c-2-3-5-4-7-4-4-1-4-1-3-4l1-9v-6l7-5c4-2 9-5 10-7 4-3 5-9 5-14-1-2 0-4 2-9 3-5 3-5 2-8l-2-6c0-4-5-21-7-24-1-1-2-3-2-7l-1-8-2-5c0-3-2-5-4-5-3 0-2-1 0-3 3-1 4-4 1-5-1-1-3-1-5 1-6 3-17 0-27-7l-7-3c-4-2-4-5 1-9l5-4-7-7c-5-4-7-6-5-6l3-2c2-2 4-1 4 1-1 2-1 3 1 3s4-2 4-5l2-2c2 0 6 3 6 4l2 2c2 0 3 1 3 4s-1 3-3 3l-4 1c-2 1-2 1-1-2 0-3 0-3-3-3-4 0-4 1-2 5 2 5 1 8-4 10-4 1-5 3-2 5 2 1 13-1 15-2l10-1h10v-5c0-4-1-4-6-9l-10-9c-3-3-6-4-9-4-4-1-10-6-12-11-2-2-3-3-5-3l-3 2-2 2c-2 0-3-1-2-3 2-2-2-2-7 1-3 3-6 4-10 4-6 1-6 1-5 4 1 2 1 2-1 2s-3-2-3-4l-3-4v-3l-4-1h-4l-1-3-3-3c-2-2-3-3-5-3l-4-2-6-2c-3-1-3-1-3-3l-2-5c-1-1-2-2-1-3 2-1 1-3-1-3-5 0-6-5-2-10l3-5 2-5 2-4 1-2 1-2c0-2 0-2-2-2s-3 1-3 4l-2 6-2 6c-1 4-2 5-22 5-13 0-17 0-22-2-10-3-11-3-16 5l-7 11c-2 4-3 5-10 8-4 3-9 6-11 9-3 4-4 4-9 4l-14 2c-8 1-11 2-17 1-7-1-7-1-11 3-3 2-4 4-6 9l-1 6h-5c-6-1-11 1-13 4-1 3-1 3 1 3l4 1c3 1 3 2 2 4s-2 2-4 1l-6-3h-4c-2 3-7 1-7-3l-2-3c-2 0-3-1-3-2-1-2-7-1-16 1-6 1-7 2-9 4-3 4-4 4-5 0-1-2-3-3-6-4-7-2-9-5-6-10l3-3 3 1c4 1 4 1 8-3l11-8 6-4v-6l-2-9 3-6 3-3h-16c-2-1-3-1-4 1l-3 2-7 3c-7 5-11 5-16 0-3-3-5-4-10-5l-10-3c-7-3-12-4-18-3-5 1-5 2-8 7s-5 6-6 3c-1-1 1-5 2-5l2-1v-7c1-1 1-1-2-3-4-2-8-2-21 1-7 2-8 2-9 1-2-3-1-4 4-5l9-6c4-4 4-5 4-9 0-5 0-6-3-8l-3-3h2c4 0 5-2 2-3l-3-5c-1-3-3-5-5-6s-2-1-3 2-2 3-4 2l-4-2c-1-1-6-4-11-5-7-3-10-4-10-6s-1-2-8 3c-9 5-10 5-10 1 0-2 0-2-3 1l-7 3c-3 1-3 1-6-2s-5-4-14-7c-14-3-21-4-23-3-1 1-3 1-4-1h-20c-1 2-3 2-12 2s-11 0-13-2-3-3-3-7 0-4 3-5l5-3 1-2c2-1 2-1 1-2-4-2-6-1-9 4z"/>
  <path d="M315 40l-5 2c-2 3 2 6 9 7 5 0 6 0 7-2s2-3 1-5c0-2-1-3-5-3l-7 1z"/>
  <path d="M299 48c-3 3-3 5 0 8 3 2 6 3 8 0v-2l-4-5-2-3-2 2z"/>
  <path d="M796 50c-8 1-13 4-13 7l-2 4c-3 3-2 4 2 1 2-1 3-3 2-4 0-1 1-3 4-3 2 0 1 2-1 4l-2 5c0 2 0 2-4 2s-4 0-4 2l1 3 3 1 3 1-3 1c-3 0-4 1-6 3-2 3-2 4 0 4l1 1 3 1c3 0 4 1 4 2 2 3 1 4-4 4-5 1-5 1-5 4 0 2 1 3 4 5l3 4 2 2 9 3c8 3 9 4 11 2v-4c-2-3 0-7 3-7l2-2 2-1 6-1h5c2 2 2 2 4 1 3-2 5 0 3 3-2 1-2 2 2 3 3 2 3 2 3-1l3-5 1-2-4-4-7-3c-4 0-4 0-6-4-2-5-2-7 3-9 6-3 8-6 4-9-2-2-3-2-12-1h-10l-3-3c-3-4-3-5 0-7 3-1 4-4 1-4l-8 1z"/>
  <path d="M333 68l-6 2c-1 0 3 5 5 5 3 0 6-3 6-6v-3l-5 2z"/>
  <path d="M314 68l1 3c1 1 1 1 1-1l-1-3-1 1z"/>
  <path d="M569 71l-3 6c0 4 2 6 4 4s4-1 4 1l2 3h20l-4-6c-3-6-4-6-10-8-11-3-10-3-13 0z"/>
  <path d="M311 78l4 5c2 0 2-1 1-4-1-2-5-3-5-1z"/>
</svg>
