<svg xmlns="http://www.w3.org/2000/svg" viewBox="0 0 1024 1024">
  <path d="M765 19l-45 18-7 6c-5 6-7 7-11 7-4 1-5 2-8 5-3 5-6 5-8 1-1-3-2-4-6-4h-4l-2 6c-2 5-3 5-7 7-5 1-5 1-5 5l-1 7c1 1 0 3-1 4l-1 6c0 3 0 3-2 2-3-1-3-1-4 2-2 2-3 3-5 3-4 0-10 4-11 7l-5 8c-5 5-5 5-6 12 0 7 2 13 6 13 2 0 3 2 5 9 4 14 4 14 2 15l-4 4c0 3-1 3-6 4l-14 1h-8v3c0 3-1 4-3 5-2 0-4 2-5 5l-3 4h-6c-6 0-7 0-11 3l-6 4c-2 1-2 2-1 4l-1 4-8-5c-6-4-12-11-30-32l-23-26-32-15c-29-14-33-16-35-15l-18 16-16 14-18 26-18 25-6 21-6 23-27 25-25 25-11 18c-26 41-25 39-28 51-2 9-3 11-4 11-2 0-5 4-14 18l-21 29c-6 7-16 21-38 56l-30 46-16 6-17 6-1 8c-1 15 1 13-15 19-13 4-18 7-20 11a328 328 0 00-14 51c-3 2-3 2-2 19l1 17-5 8c-4 7-5 10-7 18l-4 14-3 5 9 36 8 36v59l3 2 2 2-4 3-4 4 2 2 5 2c2 0 3 1 5 4 2 4 2 4 6 4 3 0 4 0 5 3l8 9 5 8 1 4c0 1 0 2-3 2l-4 2-1 8c0 7 0 7-5 13-3 3-7 7-10 8l-8 9-4 5v23c0 28 0 31-5 36-3 4-3 4-3 10v5l7 2 8 4c1 1 3 2 12 2 11 1 12 1 17 4 4 2 8 4 18 6l17 3c4 1 4 1 2 6 0 2 9 6 13 6 3 0 4 0 5-4 2-3 2-4 5-2 2 2 6 2 27 1l23-1 1-3c0-8 1-10 5-12l8-2c4 0 4 0 5-4s2-5 6-5l6-2 5-2c2 0 3 1 4 3 0 2 0 2 5 1h17c6 0 6 0 6 3l3 3a490 490 0 0043-10c2-2 4-2 13-4 8 0 11-1 17-5l7-3 3 3c2 2 2 2 5 1 3 0 6 0 16 3l15 3 21-15c24-17 29-20 57-27s26-7 26-10 1-4 6-7c5-2 7-2 10-1 3 0 4 1 5 5 2 4 3 4 7 4 7 0 14 3 15 8l2 3 10-4 14-3 4 1v-4c0-3 0-3 4-3 5 0 7 1 7 5 0 3 1 4 3 6l6 9c3 6 3 8 3 14s0 7 3 12l4 6 11 3c10 2 12 2 18 1 3-1 6-2 7-1v3l3 4h5c3-1 3-1 6 1 4 3 4 2 7-1 2-1 3-2 7-2 3 0 5-1 8-4s5-3 11-4h7l3-6a1928 1928 0 0043-68 5856 5856 0 0094-152l25-41-4-6c-3-4-4-6-4-9 0-5-1-6-6-9l-8-6c-4-4-4-4-8-3-3 1-4 1-7-1-2-2-3-3-2-6 0-4-3-10-7-13-2-2-3-3-3-6 0-2-1-5-5-10-4-6-5-7-4-10l2-4c2-1 2-2 0-4l-2-5c0-3-2-3-2 0l-4 4c-3 1-3 1-2 4 0 3 0 4-2 6l-5 2-7 3-7 3c-3 1-3 1-3-1s-1-4-4-6c-3-4-4-4-8-3l-6 2c-2 2-2 2-6 1l-12-2c-8-1-9 0-9 1-1 2-1 2-5 2a459 459 0 00-34-5c-2 0-15 2-24 5-5 2-7 2-12 0-3 0-6-2-9-4l-3-3v7h-6c-12 0-20 1-23 2l-4 5c-3 6-7 7-14 6h-8l-11 5c-6 2-13 4-15 6-5 2-5 2-7 1-2-3-3-2-5 1-1 3-3 4-6 5-6 2-6 2-3 8 2 4 2 5 4 5 2-1 3 0 6 2 2 3 3 4 3 8l1 5v1l-2 2c0 3-2 3-15 0l-11-3-2 5c-1 3-2 4-4 5h-9c-5-1-6-2-7-4-1-3-9-8-13-8-3 0-6-3-7-7-1-2-2-3-5-4-10-4-18-15-14-18l1-4c-1-2-1-2 1-2h4c1-1 1-2-1-4-2-1-3-3-3-5 1-6 0-6-3-4-4 1-5 1-5-4l2-2c2 0 2-1 3-3 1-4 4-5 12-2 5 2 8 4 12 8 6 6 9 7 15 4 5-2 5-2 9 0l6 4c1 3 2 3 7 3h6l-3-4-4-4h4l6 3c1 2 3 2 5 1l5 1c4 3 4 2 3-2 0-3 0-4 3-7 5-3 6-8 6-13v-11c3-13 10-23 23-29 8-4 8-4 8-7 0-8 1-14 3-14l3-4 6-11 6-8h7c6 0 8-1 13-3l7-6c1-2 3-3 6-3 6-1 12-4 13-6 0-2 1-2 9-1l14 2h9v3c0 2 1 3 2 3l3 1c2 0 2 0 2-2 0-3 0-3 2-2 2 2 2 2 6-2 3-2 5-4 5-6l3-5c3-3 3-3 12-4h11c3 2 12 1 15 0 1-1 3-2 6-1 4 0 5 0 6-2l2-2c2 0 3-1 4-4 1-4 2-5 5-7l5-6c2-4 3-5 5-5 3-1 4-2 5-4 2-5 4-8 6-9l1-2 2-6c2-3 3-4 7-5s4-2 4-3c-1-3 4-10 6-10s12-11 12-13 5-4 8-4c2 1 4 0 7-1 3-2 5-2 8-1h6c0-2 13-4 19-2 4 1 5 1 6-1h2l6 1c5 0 6-2 8-8v-4h5l9 2c4 1 6 1 13-1l10-2 9-18c14-28 19-47 17-64-1-11-2-13-4-13-1 0-2 0-1-2l2-4c1-2 1-3-2-8l-2-7c1-1 2-4 2-10 0-9 0-10-2-13l-3-7c0-4-7-14-11-18-3-2-3-3-3-13a230 230 0 00-8-51l-4-7c-9-10-13-24-13-38v-9l-3-3-4-2 1 3v11l-4 2c-2 0-3 0-4-4l-8-10-17-25c-18-28-24-36-33-45-12-12-27-38-28-49l-4-15-45 19z"/>
</svg>
