<svg xmlns="http://www.w3.org/2000/svg" viewBox="0 0 1024 1024">
  <path d="M546 2l-27 22a101 101 0 01-24 18c-12 8-30 13-42 11-14-2-15-2-20 5l-7 11-10 14-10 12c-12 30-29 60-41 76-6 7-24 22-28 24l-8 2-10 3c-4 2-6 2-17 2-7 1-13 0-15-1l-6-1-7-3h-8c-3 0-5 0-11 5-17 11-30 15-40 11l-6-2-6-2c-7-2-8-2-12 6-8 14-13 20-17 19-1-1-2 1-5 6-5 8-13 20-15 21l-15 27c-9 20-15 48-11 52l2 4c0 2 1 3 2 0l2-11 1-10 3 2c2 2 3 3 3 5 0 4 3 13 5 14l5 10 2 2c6 0 10 2 17 9 4 5 6 7 6 10l2 4 1 1c0 2 5 7 7 7 1 0 1 1-1 5 0 2-2 4-4 5s-3 1-5-2l-9-6c-7-3-11-3-22-2l-2 4-1 4-1-2v-9l2-2c0-2-1-2-4-2-6 0-10-3-8-5s1-4-4-6l-5-2c0-2 1-4 3-4l1-2c-1-2 0-4 1-6 2-2 2-3 1-7l-2-4-2 3c-4 6-7 12-8 17l-4 18-3 12v40l1 53c1 12 1 16-1 31l-4 30c0 10 0 13 2 20l4 13 3 20 3 21c4 20 1 42-10 72l-6 15c-1 2 1 6 3 6 3 0 18 8 20 11l9 7 6 5 2 1c2 0 2-1 2-3 0-4-1-5-6-10-3-2-3-2-2-4 2-1 2-2-1-4-4-3-4-6-2-11 2-4 3-4 6-5 5 0 7 2 4 5-2 2-2 2-1 5a134 134 0 0020 24c3 1 2 4-2 4s-6 1-8 5c-1 1-1 1-1-1 1-4 0-4-2-1-3 3-3 3 1 8 5 4 12 19 13 25 0 5 3 8 7 7 3-1 5-5 4-6l-1-3-2-6v-12c-2-5-5-6-6-3-1 2-3-1-3-5s2-5 6-2h4c2-2 15 0 19 3l6 4c2 0 3 3 7 16 5 18 5 20-1 22l-5 3-5 1c-7 0-11 4-8 9 1 2 6 0 8-4l2-3 5-2 4-3c2 0 2 8 1 10v2c2 1 3 6 2 10v5l4 19-2 1c-3 0-3 2 0 3v7l-4 7-3 11-1 8 2 9c3 10 3 12 1 20l-1 9c0 3 0 3 6 3l6 2c3 2 4 3 8 2l7-2c3-1 7-1 9 1h6c7-3 21 1 28 7 3 2 4 2 12 1 9 0 10 0 13 2 2 2 5 3 7 3 5 1 6 3 5 6 0 4 2 9 5 9l4 1h4c5 0 10-2 12-7 1-3 2-4 4-4l3 1 2 2 3-1 3-2c4-1 8-6 8-8l8-4c1 1 8-2 8-3 1-1 0-1-1-2-3-1-3-3 1-2 2 0 4 1 5 3l3 3c2 0 2 0 1 1-3 2-3 3 0 6l5 2c3 0 4 1 5 2 1 3 7 4 9 1 2-2 2-5 0-7l-2-4c0-2-3-4-5-3l-1-2c0-2 0-2 5-1h6c2-1 3-1 6 1 5 3 7 2 11-1s7-3 12 1l4 2c1 0 5 4 6 7l2 3 2-2 5-2c6 0 7-2 4-8l-2-8c-1-4-2-7-7-15-7-13-11-16-17-16-3 0-4-1-11-7-9-9-15-13-22-12-5 1-13 5-13 7l-2 1-1 3c0 3 0 3 3 3l5-1 3-1-4 3-4 3 4 3c3 2 4 2 12 2s9 0 6 2c-2 2 0 7 4 7 3 0 7 4 5 5v2c2 0 2 0 0 1s-3 1-5-2l-4-3-2-2c-2-2-3-1-3 2 2 6 3 14 2 14l-1-6-2-7-1-4c0-2-1-3-5-4l-7-2-5-3-5-5c-3-5-7-7-8-5l-7 4c-8 4-17 4-19-2-1-4 1-5 8-5 6 1 6 1 10-3s5-8 3-11c-4-4-8-7-10-7l-3-1c-2-1 0-2 4-2 3 1 6 0 4-1-1-1-4-7-3-8l7-5 6-4c4-3 7-3 8 0 2 4 3 4 7 0l5-2c2 0 2-1 1-5 0-4 0-4 2-7 3-2 3-4 3-7s-1-4-5-7c-6-4-11-4-13-1l-2 2-3 3c-1 1-2 3-4 3h-2l2-1 3-4 3-2 2-1 2-3c2-2 3-2 3-1l4 1h2l-3-4-3-4v-1c1-1 2-2 2-5 0-4-1-7-5-8-3-1-3-2-1-4 2-3 1-8-2-11-2-3-2-3-1-6 1-2 1-2 3-2h4l9-9-5-7c-4-3-6-5-8-5l-3 1h-13l5-1c4 0 5 0 5-2l-1-4-1-3c1-1 6 1 6 3 1 2 8 2 10-1 1-1 2-2 5-2 4 0 5 2 1 2s-4 0-4 6c1 6 3 9 5 7v-3l-1-3c1-1 6 2 6 4 1 3 5 5 7 5l2 2c0 2 2 3 4 4 4 2 4 4 0 4l-7-5-6-5c-3 0-2 1 0 4 2 1 2 3 2 5 0 1 1 2 3 2h4l5 2c4 2 4 4 1 4-2-1-5 0-5 1l2 1 4 2c5 2 4 6-2 8l-5 3 12 5c4 1 4 2 6 7 2 6 2 13 0 18-1 2-1 2 1 4 3 2 3 3-1 2s-2 2 3 4l4 4 4 3c7 2 7 2 7 5l1 4h2v-2l-1-1c0-2 3 0 4 3 2 4 11 6 15 2l2-2 2 4 2 5 1 2 5 8-5 2c-6 1-11 5-12 10 0 4 0 4 2 4 9-3 10-3 14-2l4 2 2 2c1 3 4 2 5-2 2-3 2-3 6-3l4 1c0 2 3 6 5 6l2 1c1 3 6 3 8 1s4-2 4 1 5 5 11 5l7 1c3 3 6 2 11 0l12-4-3 3c-2 0-4 2-4 3 0 0-1 2-3 2-6 3-7 4-6 10l2 6 2 5c1 3 1 3 4 2l3-1h7c0-2 4-6 8-7 2 0 3-1 3-2l1-4c1-3-3-3-5 1-2 3-5 4-6 1-1-1 0-2 1-3l1-4 2-4c2-2 1-3-1-5-2-1-1-2 3-1 3 0 4 1 2 1-4 0-1 2 3 2s4-1 4-3-1-3-3-4l-2-2h2l5-1c3-2 4-3 5-6l2-6 3-9 3-13c3-5 3-15 1-24l-2-9-1-4c-2-2-2-2 0-5l4-5c1-3-2-11-5-15l-3-4c0-2-7-11-9-11-1 0-3-1-3-3l-4-4c-4-4 0-10 8-10 4-1 6-3 4-6l-4-6c-2-2-3-5-3-7l-2-6a134 134 0 01-13-21h-3c-3 0-4 1-1 3l2 2 2 3 1 6v4l-3-4-2-4 1 3 1 6c1 3 3 12 2 13l-2-2c-3-3-5-4-7-2-1 2 1 5 4 6 4 1 7 5 5 7l-5 1-5 2-3 1h-1l-6 1h-4v3c1 4 0 6-6 6l-3-1 1-5c0-4 3-7 6-7l2-1 2-3v-2l-2-3-1-3v-2l2-3 1-1c2 0 4 2 7 6 2 3 4 4 4 2s-4-6-9-10l-11-8c-6-6-22-16-24-16-3 0-5 2-3 3l1 6-1 4-2-4v-4h-5l-7 2-3 1-2 1c-1 1-7 4-10 4l-4 2-4 2c-2 0-11 6-19 12-5 4-10 6-16 6-5 0-7-3-7-9 0-3 0-4-3-5-2 0-4 0-6 2l-6 2c-2 0-2 1-1 3l-1 3c-3 0-5-4-5-8 0-3 0-3 4-4 3 0 3-1 5-6l4-5 10-8c0-2-11-2-14-1-4 2-6 0-7-6s-3-9-6-9l-4-3c-2-2-4-2-10-3-5 0-8-1-9-2-2-1-1-2 9-3l10 1 3 1 4 4c2 4 3 4 8 4l6 2c2 1 7 1 8-1 2-3 22-7 29-7l3-1 1-3c1-2 1-2-2-2-5-1-5-3 0-5l5-3 2-1c2 1 4 0 4-2-1-1-2-2-5-2s-4 0-5-2c-2-3-1-5 3-10 3-4 4-5 3-7s-2-3-4-3-2-1-1-5c0-2 1-2 6-2 6 0 9-1 9-3 0-3-10-4-14-1-1 1-3 3-3 5l-3 5-11-2c-12-3-14-5-7-7h8c3 1 2 1 4-2 1-3 1-3 9-4h16l3 1c1-1 2 0 2 3 1 4 5 8 9 8 2 0 2 0 2-2v-13l4-3 5-4c2-1 2-3 2-10l-1-13 1-5 1-3 2-3v-3l-1-5-1-6-3-10-4-11c-2-4-2-5-1-10 1-7 4-11 8-13 1 0 3-2 4-5l5-5c3 0 4-2 5-8 0-4 1-5 3-5 4-2 5-3 4-5 0-1 1-2 4-2 5-1 8 0 8 3 1 2 3 3 5 1l3 1 2 3h-2l-2 2-4 5c-4 4-4 5-1 5 1 0 2 1 2 3 1 5-2 6-6 4v-3c2-3-3-2-6 1l-4 2h-4c-2 1-2 4 0 5l3 4c0 4 2 5 7 4l5-2c1-3 4-3 7-1l5 2c2-2 3 0 2 3 0 2-1 3-4 3l-3 2 6 15c3 0 7-3 8-6 0-3-1-11-3-14s-1-6 3-11l5-7c3-5 15-4 15 1l-3 5c-4 3-3 5 0 10l4 6 5 2c2 0 3-1 4-6l2-12c0-6 0-7 3-10l6-5 5-8 6-9 7-8 5-6v-13c1-13 2-17 5-18 5-1 3-6-6-13-6-5-7-7-8-11s-2-5-8-7l-6-3-6 1-12 2c-3 0-10 1-14 3-11 2-18 3-22 1l-7-2c-4-1-5-2-9-6-6-7-9-11-9-14 0-2-4-6-6-6l-2 2-4 7-4 6-3 3-2 6c-1 3-1 2-1-2l1-6 2-3c1-4 12-16 16-17 3 0 6-6 5-10l1-4-1-7c-2-6-5-8-10-6l-5 1c-2-1-6 0-10 3-3 2-3 2-5 0-5-6-6-7-9-7s-4 1-5 3c-3 4-5 5-9 4-2-1-2-1-4 1l-1 3-2 1c-2 0-8 4-8 6-1 2-2 2-11 2-8 0-10 1-11 2l-2 1c-1-2 2-3 10-4s10-2 12-5l5-3 6-4c3-3 4-3 7-3 3 1 4 1 6-2 2-2 3-3 6-3l7 2c2 2 4 1 7-2 1-2 2-2 4-1l7 1 8 2c3 0 3 0 3-2l-2-6a112 112 0 01-5-76l1-3c0-3 0-3-7-3l-9-1-16-11-7-6-9-10c-2-4-6-4-11 0l-4 3c-1-1 1-4 5-7 5-3 5-3 12 3l8 6 8 6c12 13 18 17 23 15h14l4-10 3-13c0-4 7-27 10-33 3-7 10-15 12-15l4-4c4-4 4-4 4-10l-3-25c-2-14-3-20-2-22l1-5c0-4 1-6 3-11 2-2 1-9-2-10l-3-5-6-10c-8-10-11-20-9-29 1-5 8-16 16-26l8-10 6-6 5-3c3-3 3-3 2-4-3-2-8-2-13 0zm-59 414l-2 1-1-4c2-7 2-8 3-3v6z"/>
  <path d="M644 143c-3 2-5 2-9 1-5-1-6-1-6 1-1 1-2 2-6 2-11 2-14 3-17 7-4 7-5 11-4 13 0 2 5 4 6 3l3-1c2 0 8 6 8 8 0 3 1 2 9-2s12-8 12-14l-1-5c-2-2 0-3 7-5h11c1 1 2 0 3-2 2-5 1-7-5-7-6-1-6-1-11 1z"/>
  <path d="M625 180c-3 1-3 4 0 4 5 0 8-4 4-5-1-1-1-1-4 1z"/>
  <path d="M843 534c-8 3-13 6-36 24-15 13-23 18-31 21-5 2-6 3-4 3l3 4c2 4 5 5 9 5l10-5 9-3c1 0 5 10 7 20l2 7c2 0 1 5 0 6-3 0-2 2 1 12a116 116 0 016 24l1 11-3 8c-1 0-2 3-1 5s0 6-1 6l-2-3c-1-3-4-4-4-1 0 2 0 2-2 2s-3-1-3-3c0-3 0-3 3-3 2 1 3 1 4-1 0-2-2-3-5-3s-3 0-3-2c1-2 1-2-1-2-1 0-2 1-2 3 0 5-1 6-4 6-2 0-3 0-3 2l-2 5c-2 0 0-7 4-12l4-8c0-3 1-5 3-5l1 2c0 3 2 3 4 1l4-2c2 0 2-1 2-2v-12l-2-12-2-7c0-4-1-5-2-6l-3-2c-2-2-1-7 1-11s1-7-3-7l-4-2c-1-2-2-3-9-4h-4v4c-1 3-1 4 1 6l3 6 1 4c3 0 5 4 4 8 0 5-4 8-10 10l-4 3-1 2-2 9c-1 15-6 31-8 28l-1-4-2-2-1-3c0-5-1-6-10-4l-11 1c-5 0-3-2 3-3l7-2 6-1c3 0 3-4 0-4-2-1-2-1-2-3 1-3-2-11-3-11l-7 3c-8 4-12 5-14 2v-2l3-1 2-4c1-5 3-6 6-4 2 3 7 2 8 0 3-5-1-14-7-20-4-3-4-8-1-10 3-3 5-2 5 0 0 1 0 2 2 2 4 2 6 1 6-5 0-5 1-7 5-8 2-1 2-2 2-6 0-3-1-4-2-4-2-1-2-1-10 5-7 5-14 7-19 5-2 0-3-2-4-3 0-2-1-2-6-1h-12l-13-2c-7-1-18-6-22-11l-4-2 2 5c0 3 1 4 5 6l8 4 10 3c8 0 14 2 17 5 2 3 2 4 2 11-1 8-1 9-4 12s-4 4-7 4l-8 2c-4 2-4 2-6 1l-4-2v2c3 2 4 14 2 19-1 4-5 7-9 7l-4 1h-1l-2 3c-2 3-3 3-5 3l-4-3c-2-3-3-3-3 0-1 4-4 4-5 1-2-5-13-5-17-1-2 2-5 2-15 0h-22c-1 1 0 2 1 3 2 1 4 2 9 2 6 0 10 1 10 3s9 11 13 12c4 2 5 3 2 5-2 1-5 1-17-2-9-1-9-1-9 1 0 3 1 3 8 4 9 1 24 9 27 15l4 16c0 5-2 6-7 6-4 0-5 1-5 2l-1 3 3 3c2 1 3 1 4-1v-3l5 4c3 3 5 7 5 9l3 7c2 3 2 5 1 8l1 8 1 6c-1 3-8 7-12 7-8 0-10 6-4 10l4 4c1 3 9 9 14 11 3 1 3 2 3 6v10l1 6c-2 1 1 5 4 6l3 1c2 1 14 3 23 3 8 0 13-1 14-3 1-1 5 0 7 1l6 1c7 1 14 4 16 7 1 2 5 3 5 1s-1-4-3-4l-1-1 4-6h9l-2 1c-2-1-3-1-4 2-1 5-1 5 1 5l3-1 1-1c3 0 2 1 0 3-2 1-3 3-1 5l7 1c7 1 10 2 10 3 0 3-1 4-4 3l-5 2c-3 2-4 3-4 1s-3-2-4 1c-1 2-1 3 2 6l5 7 3 2v-1c-3-4 1-2 5 2 6 5 7 10 2 7-9-5-29-11-32-11-1 1 0 1 3 2l6 3 7 3c10 3 17 8 20 12 1 2 3 5 5 5 2 1 3 2 3 4l1 2c1 1 2 0 1-2 0-2 1-3 3-3 5 0 8 1 9 4 2 3 9 7 15 7 2 0 4-1 7-4l4-3v5l3-3c2-3 5-4 7-1 2 2 2 3 0 3l-5 2c-2 2-2 3-2 5l3 3-1 1c-3 1-3 2-3 4l-2 4c-3 1-1 3 3 3 3 0 4 0 3 1v3c1 3 1 3 6 3l7-2 9-10c4-7 7-9 11-11 5-3 6-3 13-3 4 1 10 2 13 4 6 3 12 3 14 0s1-7-2-13c-2-4-3-6-6-6l-6-3c-1-1-6-2-16-2l-14-1-4-5-4-4-2 2c-3 3-2 4 3 6 2 2 3 2 3 5l-1 4v3c1 3 2 3-5 5-5 2-6 2-8 0-4-2-6-4-6-6 1-1 0-4-2-7l-2-8-1-1c-3 0-4-6-2-9h3c2 1 5-1 5-5l1-3 1-2c0-4-9-8-12-6-2 2-13 0-14-2l-2-2c-1-1-1-4 1-7 1-2 2-2 6-2h5l-2 4c-2 5-1 8 3 7 2-1 2-1 1-7v-5l7-8 10-7 6-2c4-3 5-3 13-2l9-1c0-2 3-5 6-5l4-2c1-1 2-3 4-3 3-1 4-5 3-9l-1-6c1-6 0-9-7-17-5-7-9-9-16-9l-3-1-5-2-9-5c-3-3-4-4-4-8-1-7 3-21 8-28 3-4 14-14 16-14l5-4c5-4 5-4 10-4l7 2 4 2c3 0 3 0 3-3 0-5 2-9 6-9h2l-2 3-3 6c0 5 2 11 5 11l2 3c2 4 9 3 12-1l6-4c3-2 4-2 4-6 1-6 1-8-2-11-2-2-3-3-3-6 0-5-4-13-6-12-4 2-7-9-4-16v-18a556 556 0 00-8-28c-4-8-4-9-3-16 0-9 4-17 10-22 5-4 6-5 6-10 0-2-2-4-6-9-7-5-12-7-28-12-4-1-8-2-10-4l-5-3c-5-2-14-1-22 1z"/>
  <path d="M542 576c-4 4-4 4-4 10l1 7h3l7 3c3 3 4 5 1 13-1 4-2 5-4 6-7 4-9 11-5 25l1 7h13c2 0 5-11 4-16-1-2-1-4 1-7l5-8c4-5 4-7 0-6-3 0-9-2-9-5-1-2 0-4 3-4 3-1 2-3-3-5-6-3-9-8-10-17l-1-6-3 3z"/>
  <path d="M638 600l4 5 4 5 2 2 7 3 7 2c2-1 1-2-1-3l-7-5-8-7c-3-3-8-4-8-2z"/>
  <path d="M499 644c-2 3-3 4-6 4-4 0-7 3-6 5h6l5 1c2 2 4 1 5-3v-9c-2-2-2-2-4 2z"/>
  <path d="M177 824c-3 2-4 5-4 13l-1 12c-1 8-1 9 1 14l5 6 7-3 2-3c2-2 3-6 1-8v-4l-1-6v-4c3-3 6-11 6-14l-6-3c-7-2-7-2-10 0z"/>
  <path d="M609 841l-4 7-2 4-1 6c0 3-1 7-4 13l-6 13c-1 4-2 6-5 7l-5 3-9 10-7 14 3 1 4 2 1 2c2 1-1 4-3 4l-2-1c-2-2-4-1-4 3l-2 7c-1 3-1 3-6 3h-4l6 7c5 4 6 11 5 20v8h4l6-2c2-2 7-18 7-22 0-2 3-11 8-20l4-14c1-10 4-16 9-23 2-3 4-7 4-11l4-13 2-11 2-8c2-3 2-5 1-8-1-6-3-6-6-1z"/>
  <path d="M714 892c-2 2-2 2-1 3l4 5 3 5v-3l4-5 2-2-2-3c-4-2-8-3-10 0z"/>
  <path d="M481 898l7 10 1 2c0 3 8 13 12 15 2 1 4 3 4 5l15 15 3-4c2-2 3-3 8-3 7-1 8-2 8-4 0-3-9-12-12-12h-2l2 3 1 2-2 1c0 3-3 1-4-2l-2-4-2-2-2-3c-2-2-2-2-1 0v4c-1 1-1 1-4-1l-4-2-2-2-5-4-4-4-2-2c-2 0-8-5-8-7l-2-1h-3z"/>
  <path d="M696 900l-1 2h-4c-3-1-3-1-2 2 0 2 6 8 7 8l3-3c1-3 2-4 5-4s4-1 4-2c0-2-4-5-5-5h-4c-2-1-2-1-3 2z"/>
  <path d="M757 899l-2 4-1 2-3 2c-2 2-2 2 2 2h4v7l1 7c1 2 0 3-4 3-3 0-9-4-14-9-1-2-2-2-3-1v3l1 7c1 4 1 5-1 6h-7c-6 0-7 1-4 6l1 2h-7l-8-2-3-2c-2 0-2-1-2-3 1-2 0-3-2-3l-5-2-6-4c-3-1-5-3-6-7 0-3-2-4-4-6l-7-5c-3-4-5-5-16-6-8 0-9 0-11 2l-3 1h-1l-2 2-3 1c-3 0-5 1-9 5-5 4-5 5-5 9 0 5 2 8 5 8 1 0 2 1 1 2 0 1 1 2 3 2 2 1 2 1 2 3-1 3 1 5 3 5 3-1 3 1 0 4h-4c-1-1-1-1-1 2 1 3 1 3-1 3l-3-1c0-2-4-4-7-4-2 0-2 0-1 2v3l-4 1c-1 0-3-8-2-9 2-1 1-3-1-3-3 0-2 6 2 15 5 10 8 11 23 16l17 6 9 4 4 3 4 4c2 0 4 3 5 4l8 7 9 7 5 3 5 3c2 2 4 3 7 3h4l-5-2c-7-2-6-7 3-11l5-3 5-3 9-1h12l10 2 6 2h6l3-3 1-3c1-1 2-3 1-4l1-1c2 0 1-3-2-4-4-2-4-4 1-8l4-3 3 3 3 3-3 4c-2 2-3 6-4 9 0 4 0 5 4 13 3 6 5 10 5 13s0 3 5 6l5 1v-17c-2-21-1-22 5-28l7-10c1-7 7-14 11-16 3-2 4-4 5-6l4-4c4-2 4-5 0-10l-4-6c-1-3-6-5-14-6-10 0-11-1-11-6-1-6-2-7-7-8-3 0-4 0-4 2s-2 4-4 4l-3-4c-1-3-7-9-9-9l-3 4-2 3-4-4c-5-4-5-4-7-3z"/>
  <path d="M809 906l-4 1c-2 0-3 1-3 2l1 3c2 1 12 3 13 2 2-1 2-6 1-8h-8z"/>
</svg>
