<svg xmlns="http://www.w3.org/2000/svg" viewBox="0 0 1024 1024">
  <path d="M317 1l-16 1c-1 2-10 2-17 1-4-1-5-1-8 1-4 3-9 17-13 37l-4 15 2 8c3 7 3 8 1 10s-2 7 1 8l5 6 3 6-2 6-6 11-4 6h-12c-14 1-15 2-15 12 0 7 0 8 2 9 3 2 3 2 8 1l8-3c11-6 19-3 27 9l6 7v9c0 9 0 9-4 16-4 5-5 8-5 12-1 7-4 12-10 21l-6 6h-6l-7-1-3 5-5 5c-1 0-3 2-5 7-4 7-4 8-3 13l2 6 6 4 5 4v7c0 7 0 8 3 10 2 2 3 3 3 8 1 4 2 6 5 9 4 4 4 5 5 14s1 11-1 15l-3 10-1 5 4 9 4 11c0 3 1 6 8 15 7 11 9 13 9 18l6 18c4 12 4 13 11 20 5 5 7 8 9 13l3 7-3 5c-3 4-4 5-2 11s5 9 17 17c13 9 14 10 14 18 1 5 1 6 11 20l10 15v27c-2 5-1 8 3 13l4 7c0 3 4 7 13 13 10 7 14 10 15 15 0 2 1 4 3 5 4 3 10 13 12 20s5 11 14 20c6 5 8 7 11 15 4 7 4 9 3 13 0 4 2 22 4 29 1 2 0 4-3 11-5 10-5 12-2 26 1 7 3 10 4 11l6 8 4 6-2 10c-2 18-2 19 1 25 4 7 7 11 14 13 8 3 14 8 19 17l3 6-1 16c-1 15-1 18-4 22-2 4-2 6-2 12s1 9 5 20c3 9 5 15 5 20 1 6 2 8 4 11 3 6 13 13 20 17l6 3-1 6-5 16-7 15c-1 5-2 5-5 5l-5-2c-3-3-7-4-7-2 0 6 5 10 11 10 2 0 4 1 7 4 4 3 4 3 11 3l10 2c4 2 4 2 7 1l7-2 6-2 8-1c5 1 6 1 8-2 3-2 4-2 7-2l8-1 8-1c5-1 5-3 4-10-1-6-1-6 1-8l8-6c4-4 6-5 12-7l13-5 5-3v-5l2-8 2-6c0-5 4-15 7-17l7-4c4-1 5-1 8 1h14c4-1 11 2 11 5l3 4c2 2 3 1 9-2 6-4 7-4 13-4l11 1c3 1 5 1 12-2l10-3 8-6c5-5 7-7 10-8h5v-9l2-15 1-7 1-11c0-8 0-10 3-14 2-4 2-5 2-13v-8l10-6 11-6-1-3c-2-3-2-4-1-10l1-6-3-3c-3-3-4-5-1-7v-4c-3-2-2-5 0-6 2 0 2-1 2-6l2-10c2-4 2-7 3-16s1-11 3-15c5-7 4-13-2-25l-5-14-4-12c-4-7-4-9-4-13 1-3 0-6-1-10l-2-8-2-19-1-16 2-3c2-2 3-3 9-3l7-2-1-2-3-5c0-3-1-4-3-4l-6-3-5-2v-8l1-9 13-4c3 0 11-6 11-8l-3-5c-2-3-2-5-2-8 1-2 1-3-2-4l-3-2-2 2-1 3-8-2-9-3c-2-2-1-5 0-5s3-1 3-3l6-5c5-3 6-7 3-15-2-6-5-20-4-21l2-1c2 0 3-5 2-7l-3-6c-1-4 0-4-12-4h-4v-6l3-9c2-1 4-6 5-10 2-7 3-8 7-12 5-4 5-5 4-7l-1-2 3-2c2-1 3-2 3-7v-19l5-2 5-3-4-5c-2-1-2-1-2-9 0-7 0-7-2-8-4 0-5-8-4-14 1-4 1-4-1-8-3-3-3-5-3-8 1-5 0-10-2-10l-5-3c-3-4-3-4-3-9v-5l-6-4c-6-4-7-5-6-8l2-7v-22c0-2 0-3-2-5h-5c-1 2-2 2-4 1l-7-2c-4 0-6 0-10 2s-5 2-8 1c-3-2-4-5-4-14l2-8c3-3 4-14 3-22 0-5-3-9-8-10l-5-2c-1-2-2-2-5-1l-8 1c-10-2-10-2-10-5s-1-4-5-6c-5-3-16-18-16-22 0-1-1-5-3-7-2-4-3-7-3-13-1-5-1-7-3-8l-4-3-5-6-4-4 1-8c0-6 1-8 2-9 3-2 2-5-2-10l-3-5h-9c-8 0-10 0-12-2-2-3-7-2-8 1l-2 3c-4 0-17-3-18-5l-4-1-6-3-5-2c-2 0-3-3-1-8l2-3-3-1-5-1h-6c-3 2-3 2-5 0-3-3-4-3-8 1-3 3-4 3-12 4l-13 1c-4 1-4 0-6-3-2-2-3-3-5-3l-5-1c0-1-2-2-4-1-3 0-3 0-3-3 0-6-3-6-8-1-3 3-4 4-6 4-8-1-10 0-11 4l-1 3-3-2-2-2-2 2-3 2v-3c-1-4-2-4-4-1-3 2-6 3-8 0-1-1-2-1-4 2-1 2-2 2-3 1h-5c-3 0-3 0-3-3s-1-4-3-6c-3-2-3-3-3-6 0-2 0-3-2-4l-5-5c-1-3-3-4-5-5-2 0-4-1-6-5l-2-8c0-4-2-7-4-7-5 0-12-13-12-21 0-4-7-12-15-16-4-3-6-4-6-6l-4-5-7-7c-3-2-3-2-5-1-2 2-12 2-19 1-7-2-8-2-24-1z"/>
</svg>
