<svg xmlns="http://www.w3.org/2000/svg" viewBox="0 0 1024 1024">
  <path d="M258 172l-8 2c-6 0-8 1-13 9-3 4-9 7-14 8-4 1-5 0-7-1-7-5-15-4-15 1 0 2-2 3-4 4l-4 2-13-3-18-4-11-3-15-7c-11-5-12-5-36-3-8 0-10 1-10 3-1 3-6 5-6 1 0-3-1-3-4-1l-2 4c0 4-1 6-8 13-5 6-6 6-9 6-2-1-3-1-5 1l-6 6c-4 3-5 5-5 7 0 3 0 3 3 2 4-2 7 0 8 4 2 4 2 5 1 8l-4 5c-2 2-2 2-2 6 1 2 2 5 4 6 2 3 2 3 1 7-1 3-2 5-1 7l1 8c0 3 1 5 3 7l6 7c3 5 3 6 4 14l2 12v9l-1 12c0 7 0 7-3 6l-8 4-9 5c-3 0-3 0 0 9 2 6 3 7 5 8l8 6c10 8 14 10 19 10h4v4c0 3-1 4-2 5l-1 5c1 2 0 4-1 6l-2 7c-1 2-1 3-5 4-6 1-9 4-9 7 0 7-14 23-25 28l-5 3 1 6v5l5 1c4 1 4 1 6 6 1 4 2 5 4 6 3 0 4 2 8 10l4 9-2 13-4 17-10 12-9 9 1 5c2 3 2 3 0 5-2 3-12 3-16 1-2-1-2-1-4 1-1 1-2 2-5 1l-5-2c-2-1-3-1-6 2-4 3-4 4-4 8s1 6 6 15c4 5 7 10 7 12l-2 7c-1 5-1 5 1 8 2 2 4 4 8 5 5 2 6 3 8 7 2 3 5 5 8 6l6 4c2 2 8 6 16 9l13 7c0 3-7 16-13 24l-7 13-2 4c-1 1-2 2-2 5 0 4 0 4 4 4 3 0 4 0 5 3l3 9 3 9c1 3 1 5-2 9l-2 6c-1 3-1 3 6 8l13 12 6 6v5l-2 10v6l4 3c5 3 8 9 8 14 0 4 0 4-3 5s-4 3-5 5c0 2-2 3-3 4l-1 3c0 3 3 3 11 2 16-3 17-2 23 1l11 7 6 4 1 6v6l7 7 8 10c3 5 10 1 15-7l5-8c1-2 3-5 3-10l11-29 5-6c2 0 4-3 5-4l8-9c7-6 19-21 25-32 6-10 13-20 16-22l8-9 5-7-1-11c0-9 0-11-2-17l-6-10c-5-5-6-8-3-13l6-7c3-3 3-3 11-3 7 1 8 1 13 4l6 7c2 5 5 5 16-1l10-5 2-5 5-9 3-3 2 2 1 2 4-3c3-3 3-3 5-1h7l8-1c3 0 4-1 6-3 5-5 6-8 6-12-1-5-1-5 2-7l13-1c13 1 15 2 20 9 4 6 4 7 3 11l1 6v3c-2 1-5 12-5 15 0 2 2 3 5 4l7 4c1 2 4 3 5 3l2 2c0 3-3 3-11 3-6-1-6-1-6 1 0 4 4 5 15 4 12 0 19-2 27-6 4-2 6-2 22-3 12-1 18 0 23 1 6 1 8 1 19-1l15-3c1-1 3-3 3-5l3-4 6-7 7-9c2-2 3-4 3-7 0-4 1-5 9-16 6-6 6-7 11-7 6-1 15-5 24-10 10-6 14-7 23-3l12 2c9 0 25 2 27 4l2 5c1 3 1 4 4 4l4 1 6 1c3-1 3-1 4-7 0-4 0-5 3-6 5-1 10 1 12 4l1 4 4 4 4 2 11-3c9-3 13-3 28-3l17-1 4-3c4-3 7-4 28-6h9l1 3c2 3 6 5 21 8 13 3 37 3 42 0 4-1 4-1 12 1l12 3 7 2c2 2 5 4 8 4 5 3 17 18 19 25 1 2 2 6 4 7l3 7c2 7 3 8 17 7l13-1 1-8c0-5 1-7 5-16l5-10-1-9v-9l3-1 7 1c3 3 17 6 23 6 4 0 6-1 8-3 5-4 6-7 6-14-1-7-1-8 8-18 3-2 4-5 5-8l2-5 1-4 2-4 3-6c0-3 1-4 3-4 3-1 6-6 5-10-3-11-3-11-9-14l-8-3-12-10c-8-8-12-12-18-14l-13-8-9-5c-5-2-6-3-6-6 0-2-1-3-3-4l-4-4-6-7a411 411 0 01-25-21l-20-7c-6-1-7-1-8-4-1-2-2-3-5-3l-14-4-12-3-5-1c-3-2-3-2-5 1-2 2-3 3-6 3-4 0-4 0-3 3v3h-5l-10 2-8 1-13-13c-3-4-5-4-3 1 2 4 1 5-7 7-8 1-10 1-14-2-2-2-5-3-9-3s-6-1-8-3c-4-3-11-5-16-4h-5l-5-2c-3-1-3-1-2-4 1-2 1-3-3-6-7-6-8-6-12-5l-8 1c-6 0-8 3-3 3l5 1c2 0 2 1 0 4l-2 3-3-2c-2-2-4-3-8-3l-9-1h-11c-7 2-8 2-12 1l-8-2c-3 0-3 0-3-4l2-7c2-2 2-4 2-13v-10h17c14 0 18 0 26 2 11 3 21 4 35 2 8-1 9-1 15 1 5 2 7 2 14 1 8 0 9 0 9-2 0-3 5-11 10-16 4-4 10-15 9-16l-8-1c-7 0-8 0-11 2-2 2-2 2-5 1-4-2-4-5 0-10 6-7 6-9 4-10l-2-2c-1 0-4 2-6 5l-11 7c-7 3-10 5-10 9-1 4-4 5-6 3-2-4-18-9-32-11-18-3-24-2-30 4-4 3-4 3-14 4l-14 2c-7 5-12 5-21 3-6-1-8-2-10-5l-6-8c-6-5-11-14-10-17 0-2-1-3-4-6-4-4-5-5-5-8l-3-9c-3-6-3-6-2-8 3-3 2-6-2-9-4-2-4-3-4-6l2-8 2-12 1-8-6-5c-7-7-14-10-19-10l-14 1c-12 1-15 3-17 8-2 4-2 5-8 6-9 2-23 2-32-1l-10-2c-3 1-10-1-22-6l-9-3-5-11c-6-11-7-13-15-17-5-2-6-2-15-2-9 1-10 1-16 5-5 3-6 3-12 3l-8-2-5-1c-4 0-8-2-15-8-8-7-16-11-22-11h-6l-8-8-9-11c-1-3-2-4-7-4-3 0-4 0-6 3l-1 3-4-2c-5-3-10-3-11 0 0 2-3 3-4 0l-7-4c-8-3-8-3-12 0z"/>
  <path d="M903 672c-5 1-5 10 1 12l3 4c1 2 2 3 5 4l10 3 5 2 3-3 2-3h13c12 0 13 0 15 3l3 1 1-6c0-5 0-5-3-7-5-3-9-3-14-1-7 2-11 2-14-1-1-3-2-3-5-2-4 1-5 1-13-3l-12-3z"/>
</svg>
