<svg xmlns="http://www.w3.org/2000/svg" viewBox="0 0 1024 1024">
  <path d="M844 7c2 2 2 2 0 4-1 2-3 2-10 2-14 0-19-1-22-5-3-3-3-3-8-3l-8 5-7 5c-14 7-37 13-46 13h-5v-4c0-4 0-4-7-6l-31-2-28-3-5 4-5 4h-15l-15-1-10 6c-11 8-15 9-20 5-3-3-5-3-13 0l-17 3c-40 4-75 18-89 36l-6 7c-3 0-9-2-11-5-3-3-8-2-9 3-1 3-6 5-14 4-5 0-6 0-14 6-7 4-9 6-9 9l-3 5s-5 3-11 4c-8 3-12 4-18 4h-8l6 7c11 14 11 12 9 16s-2 4 0 9l1 5-2 3-3 3 2 9 2 9-3 4-2 11c0 5 0 7-2 8-2 2-2 2 2 7l3 4-3 7-3 7 5 6c4 6 5 7 3 11-1 3-1 4 1 10 3 5 4 6 12 12l9 7-6 3c-5 3-6 4-7 7-1 5 0 5 2 7l2 3-3 1c-2 2-3 2-21-1a162 162 0 00-49-2 139 139 0 003 15l-17 3-16 4-3 9-4 9 5 5 4 4-2 5-2 7c0 3-3 4-10 4l-15 4c-9 4-12 5-24 6l-13 1-7 5-16 8-21 11c-12 7-12 7-12 11 0 3-1 5-8 12l-8 8-3-3c-2-3-2-4-9-4-10-1-43 1-50 3l-5 1-9-3-8-4-3 4-5 5c-1 2-3 2-11 2-9 0-9 0-9 3l-6 6c-4 2-12 9-19 16-12 11-13 12-17 13l-5 1-10 74a941 941 0 00107 90l52 39a22230 22230 0 01263 202c1 2 4 5 29 22 31 22 28 19 27 33l-1 7 11 4 12 5 1 5c1 5 2 6 8 11l8 6 5-2 5-2 4 5c8 10 7 9 22 12 12 2 13 3 18 6 6 5 6 5 4 19 0 5-1 8-4 11l-4 8-1 4 4 4 7 5c1 1 14-2 66-14 55-13 65-15 67-17l43-40 40-37 115-73 116-74-7-20-6-19h-5c-4 1-4 1-17-8l-12-10h-10l-14-1h-5l-5-11-6-10v-22l-14-24-15-26 4-5c4-5 5-6 12-9 7-2 8-3 10-8 4-6 4-10-1-28l-3-12 4-8c3-4 5-11 7-17l2-9-2-9-2-10 3-12c3-14 4-11-1-41l-2-19-7-13-8-18c0-3 0-4 4-6l4-3-15-98c0-2-4-6-17-16-16-11-17-13-17-16l-2-7-4-11c-3-8-4-8-11-12l-7-4-4-12c-7-19-9-25-7-32s4-10 9-11c4-1 5-2 7-6s5-6 10-9l10-9 4-4-1-5c-1-4-1-6 1-10l6-10 4-5-3-4c-3-3-3-3-2-6 4-7 4-10 2-16s-2-7-1-15c0-5 2-11 4-16l4-10-5-2-5-3 6-4c5-3 6-5 6-7s1-3 5-5c6-3 6-3 5-6-1-2-2-2-7-2l-10-1c-4-1-5-1-11 3l-9 3c-2 0-3-1-4-3-1-3-1-4-5-4-3 0-6-2-8-3l-9-3c-9-1-10-1-7 2z"/>
</svg>
