<svg xmlns="http://www.w3.org/2000/svg" viewBox="0 0 1024 1024">
  <path d="M404 1c-1 0-1 1 1 4 1 3 1 3-3 7-5 4-5 7-1 9 5 3 6 4 1 3l-4 1-3 6c-3 3-3 4-6 3s-4 0-4 8l-3 8-3 3-1-5-2-8-7-7-5 6-8 11-5 6h-12l-32 3-6 4c-9 7-11 8-21 8-7-1-10 0-12 1l-6 1c-3 0-4 0-6 3-3 5-16 14-21 14l-9 3c-7 4-10 5-13 2-2-1-2-1-6 5-4 5-5 6-5 13l-1 10c1 4 1 4 5 3 3-1 3-1 4 2l1 3 2 2c2 3 2 5-1 16-2 6 0 12 4 15 4 2 5 5 2 9-1 3-1 3-2 1l-2-2c-3 0-3 7-3 21 1 10 1 12-1 17l-2 8-3 3-5 5c-1 4-8 11-10 11-1 0-3 2-4 5-3 6-7 11-10 11l-4 2h-5c-3-1-3-1-3 1l-3 5c-4 5-5 7-5 10 0 4-9 13-14 14-4 0-4 1-3 7 0 5 0 5 3 5 2 0 3 1 6 9l8 14 3 6h8l8 1c0 2-2 2-9 2-9 0-10 0-11-2l-2-5c0-11-15 12-19 29-1 7-7 19-10 23l-21 1-7 1h-7c-4-1-4-1-7 3l-3 7c0 3-1 4-4 5l-3 3 2 9c2 7 3 9 10 17l11 15 3 5-1 5-2 9c0 2-1 4-4 7-3 4-3 5-3 9l-1 4-3 5c-3 6-2 7 1 11 1 2 3 5 3 8l4 8c2 2 3 6 4 9l2 6 3 8c1 7 1 7-1 9s-2 2-1 8c1 5 1 5-3 14l-6 8c-2 0-4 1-5 3l-9 6c-6 2-6 2-8 1l-3-2-4-1c-6-3-3 4 4 10 4 3 5 5 6 8 2 6 2 6 4 6 2-1 3 0 5 2 4 4 12 7 19 7l8 1c4 2 24 21 32 30 6 8 8 9 11 10 5 0 5 1 8 5l4 4 6 3c9 6 15 3 11-5l-4-4c-1 0-1-4 1-6h3l3 2a78 78 0 0024-27l3-7 3-9c1-3 2-4 8-6 5-2 7-2 7-1 0 2-5 6-7 6-3 0-3 1-4 4l-2 7c-2 7-1 10 3 6 3-2 7-1 8 1l3 2h1c0 2-2 2-5 0-3-1-3-1-6 1l-5 5-3 5c-2 3 0 7 4 7l3 1c1 1 13-4 15-6l5-12c2-9 2-11 2-24 0-14 0-15-2-18-2-2-2-4-2-9 0-11 1-13 6-15 2-1 4-2 4-4 1-1 2-2 5-2 4-1 5-1 2 2l-2 4-4 3c-4 1-4 2-5 6s-1 6 1 9 3 10 2 26c0 4 0 5 3 8l3 7c0 4 1 6 4 6 4 0 7 5 7 13 0 7-1 10-5 15-3 3-4 5-4 9s0 5-3 7l-4 8-3 7-2 7-1 7-2 7-4 13-5 14c-1 4-3 7-7 11l-5 7-1 2-1-4c0-4-1-8-3-8l-3 4-5 9c-3 5-3 6-7 6l-11 2h-8c-3-2-5-1-5 2 0 4-2 3-2 0v-4l-3 4-3 4 4 2c2 2 5 3 7 3 3 1 4 1 3 3l-1 5c0 4 0 4 2 4 3 0 4 2 2 10-1 4 0 4 1 5 3 0 4 6 2 11v15c-1 3-1 3 1 5 3 3 5 7 5 10l2 5 2 3-3 2-6 4-5 3-5 5c-5 7-7 8-12 4l-3-3c0-2-8-1-12 1-4 1-5 2-5 5l-3 4c-2 2-1 7 1 10l2 8c0 5 3 11 6 11l5-2 8-2h3l-8 12-12 14c-2 2-2 3-1 8l1 5 6 3c5 2 6 2 10 0l9-5 5-4 4-3 4-4 6-6 6-6c3 0 16 6 18 8 1 1 4 4 8 5 6 4 6 4 10 3 3-1 3-1 7 2l5 7c2 1 4 4 6 4 3 2 4 1 9 0l7-2 3-1 4-2c2-1 3 0 8 4 6 6 13 9 16 9 3-1 4 3 1 7l-2 5 5 12c5 11 6 14 5 16 0 4 0 4 5 7s6 5 7 7c0 3 2 4 5 5l4 3 3 5 2 4h14a59 59 0 0125 5l6-4c3-3 4-5 4-7l1-6c1-3 2-3 4-3 5 0 10-2 11-5l-2-4c-3-3-4-7-1-13 4-9 21-22 29-22 5 0 10-6 10-11 0-4 3-10 5-10l1-3c0-2-1-3-3-4s-3-2-4-5c-2-6-1-10 2-15l3-6 3-6 3-9c0-3 1-4 2-5 2-1 3-2 4-13 3-20 3-20 12-30 11-11 14-16 15-21l2-9 1-14 2-16 2-7c0-2 2-3 7-3s6 2 7 9c0 4 1 6 2 6 2 0 13-7 14-10l-3-5c-9-9-8-12 6-20 6-4 6-4 6-8 0-5 0-5 3-4 3 0 3 0 5-4 2-5 4-7 14-17l7-6c10-11 2-7 106-43l96-33 46-35 46-35 38-46 41-47c2-1 4-5 15-49l14-49 5 4c4 4 5 4 7 4 5-1 7-2 12-1 6 1 6 0 3-4l-3-8-2-8-1-5-2-10c-2-6-2-6-1-8 2-1 2-2 1-4-1-3 0-5 4-7l2-6v-6l-4-4-6-5-3-2c-1-2-2-3-5-3s-4-1-7-5c-4-5-7-12-7-16l-3-10c-3-6-4-7-10-11-5-3-8-4-11-4h-4v-12l3 1 7-1c4-1 5-1 8 2l9 6 5 2 2-2c1-2 2-2 6-2 5 0 10-2 12-4 1-2 1-2-2-4-2-2-4-3-11-3-7-1-9-2-13-5a266 266 0 00-21-14l-7-6-10 1c-13 1-19 0-21-6-2-3-5-5-14-8l-6-2c-3-11-4-13-7-15l-3-3-2-5c-3-6-6-7-10-6-3 1-3 1-6-4-2-3-7-5-13-5s-9-2-11-6c-1-3-6-3-8 0l-7 6-5 2v24l-5 1h-13c-6-1-9-1-12 1-4 1-4 1-12-2-11-5-16-6-17-3 0 2-1 2-4 2h-8c-9 3-10 3-15 1l-7-2-4-2h-4c-3 2-10-2-10-5 0-5-2-6-8-9-5-2-7-3-10-2-11 2-25 0-31-5-2-2-3-4-3-8l-3-10c-2-3-2-4-1-6 2-5 1-13-2-16-2-2-3-2-5-1-3 2-7 0-16-6-8-6-11-10-9-13 1-2 0-3-3-7l-5-4-3 1-6 2-6 1c-2 3-8 3-12 0-2-1-3-3-3-5-1-4-2-5-4-3-1 1-3 0-8-2-6-3-7-3-12-2-6 0-6 0-13-5l-9-5-5-4-7-6-7-3c-6-2-21-15-25-21-2-4-5-5-14-5-2 0-3-1-3-2l-3-2c-2 0-2-1-2-3 0-3 0-3-3-3-4 1-9-1-9-3-1-3-10-10-12-10l-1-3c1-2 1-3-1-4l-6-3c-4-3-4-3-7-2z"/>
  <path d="M389 15l-3 1-5 4c-3 4-3 4-2 8 2 3 6 5 9 3h2c1 2 4-2 5-7 1-6-1-11-3-11l-3 1z"/>
  <path d="M371 30l1 3 6 8 3 6c1 1 2-3 2-7 0-5-1-7-5-8l-2-2h-5z"/>
  <path d="M210 166c0 1 4 5 6 5l1-1v-1l-3-2c-1-2-4-3-4-1z"/>
  <path d="M46 426c-3 0-3 0-3 4 1 3 1 3 5 4l5-1-4-7h-3z"/>
  <path d="M243 615c-1 2 1 6 5 10 2 2 4 2 2 0l-2-7c-1-4-2-5-3-5l-2 2z"/>
  <path d="M240 630l-3 11v5c0 3 1 3 5 3s4 0 4-3v-7c1-5 0-11-3-15-1-2-1-2-3 6z"/>
  <path d="M253 632c-2 2-2 2 0 6 4 7 7 6 6-2 0-7-2-8-6-4z"/>
  <path d="M223 644c-2 2-3 2-2 4h7c2 0 2-1 1-3-2-4-3-4-6-1z"/>
  <path d="M210 653l-8 3-6 3c-8 2-11 4-11 6l-4 7c-4 6-6 15-6 28 0 8 0 9 2 10 4 3 11 2 14 0 2-2 2-2 5-1s4 0 6-6v-8l-3-6c0-2-1-3-2-3l-1-2c0-4 11-7 16-4 4 2 5 2 6 0 1-4 4-7 9-10 3-1 5-3 6-5 2-3 1-4-2-4l-9-5c-5-4-5-4-12-3z"/>
  <path d="M203 682l-1 4c0 3 6 5 9 2s3-3-1-5c-3-2-5-2-7-1z"/>
  <path d="M202 691c0 2 2 3 4 3v-3h-4z"/>
</svg>
