<svg xmlns="http://www.w3.org/2000/svg" viewBox="0 0 1024 1024">
  <path d="M619 203v5l1 6 2 6c3 7 0 13-7 11-4-2-6-4-6-6 0-1-1-3-3-3l-3-2-2-1c-4 0-6-2-6-6s0-4-3-4c-2 0-3 1-3 6s3 13 8 20c3 4 2 7-3 9l-7 2c-3 0-4 0-4 2-1 3-5 5-13 5-4 0-6-1-10-3l-5-5c0-3-1-2-4 1s-8 4-8 2l-8-9c-2 0-1 5 2 7l3 4-2 3c-3 4-5 5-9 1-3-2-7-4-14-5-3 0-4 0-5 3l-3 3c-3 1-9-2-9-4l-1-4-2-6c-1-2-2-3-5-4l-7-4c-3-2-4-2-6-1-3 1-2 5 2 15s4 15 0 17c-2 2-4 2-8 1-5-1-6-2-6-6l-2-3c-2-1-2-1-2 2 0 2 0 2-4 2-5-1-5 1-1 5l3 4c0 2-2 2-5 0-3-3-10-6-11-5l-1 2-5 1c-4 0-5 0-8-4-4-4-4-4-11-5-6 0-7 0-9 2s-3 3-3 6c0 2-1 4-5 8-6 6-12 8-15 6-1-2-2-2-4 0-4 1-4 3 0 4s5 3 5 8c0 7-2 6-12 0-8-6-12-8-17-8-3 0-3 0-3 5s0 5 5 8c6 3 7 4 9 9l-2 9-3 4-3-4c-2-2-3-2-8-2l-8 3c-3 2-11 2-19-1-7-3-12-3-13 0 0 2-3 3-5 1l-1 4c0 4-1 6-3 7l-3 2-3-2-3-2-5 4c-8 6-11 7-16 1l-3-4v4l-3 7c-1 3-1 3 2 10l4 9 2 5c2 4 1 8-3 8l-5 3-5 2c-3-1-3 0-3 3l1 8c0 2 0 3-2 3s-2 1 2 7 4 6 9 6l7 2 2 2c2 0 2-1 2-5l1-5 4 3c3 4 4 4 4 0v-4l2 3c3 3 4 6 3 8h-4c-4-3-6-3-5 0 1 4-6 6-10 3-2-3-3-2-5 1-2 5-5 6-6 4-2-3-5-2-7 3-1 4 0 6 3 6 2 0 2 1 2 3 0 3 1 5 6 10 5 6 6 8 6 10 0 5-2 6-6 3l-2-2-1 5-2 8c1 2 7 4 13 4 4 0 5 0 5-3 1-2 2-2 6-2l6 1h8l6 1v5c-1 4-1 4-6 4-12 2-20 2-22 1h-3c-2 2-2 2 1 5l4 3-4 1c-4 0-5 0-6 3-2 3-2 4-1 8l3 12c1 7 1 7-1 10-5 6-3 10 4 10 3 0 5 1 9 5 3 3 7 6 9 6l4 2v12c0 12 0 14 2 16l5 9c2 7 3 8 7 10 5 2 9 3 9 0l1-1c2 0 3 2 4 6 1 3 2 4 4 5l3-1c1-2 9-1 13 1 2 2 3 2 3 1 1-3 4 1 7 8s7 12 11 13c2 1 3 1 4-3 2-4 2-4 9-5h8c3-1 8-13 7-20l1-8 1-3h11c10 0 13 0 19 2l8 3 4 3c1 3 2 4 1 8-1 7-6 15-10 16-5 3-7 5-8 12 0 4 0 7 2 11 2 5 2 13 0 26-1 11-4 19-8 26l-5 13-3 11-2 8c0 4 0 4 4 6 8 3 9 3 11-2l3-7c0-3 11-12 16-14 2-1 4-1 6 1 3 1 3 1 6-1 3-1 5-2 8-1l5-1c2-3 5-4 15-6 5 0 9-2 11-3 3-2 9-4 14-4s6-1 10-9c7-10 11-12 22-9 5 1 6 2 6 5l4 9c2 5 4 7 6 7l3 1 1-7c1-6 1-6-2-10-4-5-3-7 2-6l7 6c2 4 5 6 7 8 6 2 8 5 8 8 0 4 7 7 16 7h7l1 4c0 3 1 5 2 5l6 4c7 6 11 6 12 3 1-4 4-5 6-2l9 11c10 9 13 11 23 9 9-1 14-1 15 1l-2 7c-4 7-4 10-1 15 2 4 4 5 9 7 16 7 15 6 15 10s1 5 3 7c3 3 10 15 11 22l1 5 9 3 17 5 8 1v5l2 8 1 2 4-2c3-2 5-2 9-1h6l1-4c0-3 1-4 4-5l8-2c4 0 5-1 10-5 3-3 6-5 8-5 1 0 3-1 5-4l5-6 3-2 5 2c2 2 6 3 9 4 6 2 9 4 12 9 2 4 4 5 11 8 9 3 14 4 26 2 6 0 6 0 5-2s-1-3 3-6l5-5c2 0 4-10 3-12l-1-5c0-4 1-6 3-9 4-5 7-6 16-6 5 0 5 0 5-3 1-4 0-9-2-12l-1-7c0-4 1-5 4-9 4-4 5-5 11-6h17c11 0 11 0 14-2 5-5 6-11 3-17-2-4-2-4-8-4-5-1-7-2-9-4-4-4-5-10-3-13 1-3 1-3-1-6s-6-4-8-2l-2 6-2 4c-1 0-4-14-4-21l-1-12c-1-3-2-4-5-5-2-1-3-2-3-4s-6-20-9-24v-6c0-4-1-7-6-16-4-4-4-5-4-14l1-9c2-1 0-4-7-8-6-4-7-4-12-4-8 1-9 0-9-18 0-11 0-15-2-19l-2-11c0-4-1-6-3-9-2-4-4-9-5-22l-12-25-7-3c-4-1-8-3-11-6l-5-4v-10c1-13 3-17 13-27 6-6 8-7 13-8l10-4 11-4 13-2c6-2 10-2 25-2h21c4-1 5-1 10 2l4 3 4-3c3-2 3-3 3-7l2-7 5-16c4-11 5-12 10-18 6-6 9-13 9-21 0-5 1-6 3-8 3-3 5-4 18-7l14-3 6-7c6-7 8-11 8-19 0-5 0-5-7-12-9-9-16-14-19-14l-2 4c-1 3-3 5-6 6l-9 6c-3 3-4 4-12 4-6 1-9 1-15-1-11-3-15-4-23-4s-16-2-31-7l-8-2-24 2c-17 2-26 2-35 1-12 0-16-2-21-7l-5-3-7-4-7-3-2-3c0-2-1-3-2-3l-8-3c-5-3-15-6-19-6v3c0 3-1 6-4 6l-4 1c-2 2-3 2-5-1-6-5-13-9-18-9-4 0-10-3-16-7-3-2-4-3-15-3-11-1-11-1-15-4l-4-5-3-2c-3-1-4-1-5 1-2 2-2 2-5-2l-4-3 1 6c1 6-1 10-5 10-2 0-4-3-2-4 2-3 1-5-2-6l-6-2-2-1v8c0 7 0 9-2 9-2 1-5 1-8-1-3-1-3-2-3-8l-1-8-2-5c-1-3-1-4-3-4l-2-1-5-4-3 3z"/>
  <path d="M429 224l-2 6c-2 2-2 2 0 3l6 4c5 4 7 4 6 0-1-9-5-17-8-17l-2 4z"/>
  <path d="M343 297c1 7 9 9 9 2 0-3-2-5-7-5-2 0-3 0-2 3z"/>
  <path d="M331 299l6 6c3 1 3 1 3-1s-3-5-8-8c-4-2-4-1-1 3z"/>
  <path d="M123 376c0 9 0 9-2 8s-2-1-4 1c-1 3-2 3-5 2l-4 1c1 1-3 13-5 13l-1 2c0 2 0 3-2 3s-3 1-4 3l-4 4c-3 1-3 1-4-1 0-2-1-2-7-2l-9 2c-4 3-28 1-28-2 0-2-2-1-4 2l-2 3 3 3c1 2 3 3 5 3l3 1 5 5c4 3 5 3 14 3 8 0 11-1 13-2l6-2c3 0 4 1 9 6l6 6v10c0 11 0 11 3 13 2 2 2 2 1 3l-2 2 4 3 4 3-4 1-3 2 4 4c5 6 9 7 18 5 7-1 9-3 12-10l4-7c2-2 3-5 3-7 0-4 2-6 6-4l5 2c2 0 2 1 0 4-2 4-1 4 4 1l7-4c3 0 3 0 3-7v-7l-4 1-3 1 2-2c2-2 3-2 7-2h8c2 0 3 0 3-2 1-1 2-2 6-1 4 0 5 0 5 2 1 3 2 3 4 3l4-2-4-6c-5-6-5-11-2-13 4-2 4-2 1-5s-4-3-4 0-5 3-8-1c-3-3-4-8-3-15 0-2-1-2-3-2-6 0-10-1-10-3-1-3-5-4-14-5l-11-2c-2-1-2-2-3-9l-2-8-6-2c-4 0-6-1-8-3l-3-2v9z"/>
  <path d="M217 383l-6 2v5c0 4 1 5 2 7l4 5 3 4c3 0 7-3 7-5s2-3 4-3l2 6c1 5 1 5 5 5 3 0 3 0 2-1-3-2-2-4 1-6s4-1 7 0l4 2c2 0 2-3 0-7l-3-6c-2-3-4-4-10-3-5 0-6 0-10-3l-5-4-7 2z"/>
  <path d="M213 491v10c-1 2-2 2-5 1-5 0-6 1-4 8 2 5 5 7 11 7h4v8l6 5 5 4v-3c1-3 2-4 4-5 5-2 9-1 12 2 2 2 2 2 1 5l-2 3h2l4-1c2 0 2 0 2-3-1-2 0-3 1-4v-9c-3-2-6-10-6-13l1-4c2-2-4-7-10-9l-12-4-9-2c-3 0-3 1-5 4z"/>
  <path d="M114 506l-5 6-8 3-13 2-8 1c-4 1-4 1-3 5v17c-1 3-2 3-4 3-3-1-3-1-4-7-2-7-5-12-7-9l-1 4c1 2-2 5-8 7-5 3-6 5-6 15l-1 9c-3 0-6-5-7-10l-4-9c-2-6-3-7-14-8-5 0-5 0-5 2l1 4c1 2-4 2-8 0l-3-1v3c0 2 1 3 5 5l5 3 3 5 4 7c0 3 1 4 3 5 3 1 3 1 3 5-1 3-1 5 1 6v4c-2 2-2 2-6-1-3-2-3-2-3 0l2 5v5c-2 2-2 2-6 0l-4-5-2-3c-2 0-2 4 0 7l1 3H9c-4-1-5 1-2 7 1 3 3 5 8 8l9 5c3 0 3 0 3-2s0-2 3-1c3 2 3 3 8 16 2 5 3 6 4 6 4 0 12 3 13 5l4 1c2 0 3 0 3 2v3c-2 1-7 14-7 16 1 4-3 4-5 1-3-4-5-3-7 4-1 4-3 7-5 9-2 1-3 3-2 3 1 2-1 6-2 6l-2 2-2 4c-2 1-2 2-2 6 0 5 1 6 4 6l2 2 3 5c2 2 2 2 4 1l7-8c4-5 6-7 9-8l5-2v-6c0-5 0-7 2-11l3-9 2-7 2-13c1-16 2-17 11-21 4-3 9-4 13-5 4 0 5-1 6-2 1-3 5-3 5 0 1 4 4 4 6-1 2-3 5-4 5-1 0 4 2 4 7 0 7-3 9-3 9 1 0 2 0 2 3 2l6 2h5v-4c-3-3-6-10-5-11 1-2 6-1 13 1l6 1 2-4 2-5 1-5 1-4c1-1 2 0 3 4l4 5c3 0 4-1 5-8l2-7 3-2-4-3c-3-3-3-3-1-4 3-3 7-3 9 0 0 2 2 3 3 4 4 2 6-1 8-6l3-7 2-5c0-2 0-2 2-1l3 1h3c2-1 3-4 3-12v-4l3 4c1 2 2 3 4 3 2-1 3 0 3 1 0 2 4 8 7 9 2 1 3 1 1-3l-2-4h5c3 2 7 1 7-2s-9-12-14-14l-10-4c-5-3-6-4-7-8-1-5-1-5-5-5-3 0-5-1-11-6l-9-5-4-2-6-1-5-2-7-1c-9 1-10 2-11 5l-3 6-2 2-3-2c-3-3-7-4-8-2 0 1-1 2-3 2s-4-1-9-7l-6-8-6 6z"/>
  <path d="M10 569l-6 2c-4 1-5 3-3 5 1 2 2 2 8 1l6-2c1-1 0-7-1-7l-4 1z"/>
  <path d="M109 635l-2 4c-1 2-1 2 1 4l2 2 3-2 4-3-2-3c-2-4-6-5-6-2z"/>
  <path d="M347 640c-2 1-3 3-4 6-1 7 0 9 3 9 2 0 2-1 4-5l3-8c0-5-1-5-6-2z"/>
  <path d="M225 737v5c0 3 1 4 2 4l3 1c2 0 2-1 2-4l-1-5c0-2-4-2-6-1z"/>
</svg>
