<svg xmlns="http://www.w3.org/2000/svg" viewBox="0 0 1024 1024">
  <path d="M912 64a14565 14565 0 01-419 8l-3 13c-3 12-4 13-12 25l-12 20c-3 6-3 8-3 15-1 7-1 9-5 16-3 6-4 10-4 15l-4 12c-5 7-18 19-29 26l-16 11c-14 9-16 10-23 10l-6-1-3 5-8 10c-5 4-6 5-10 5l-7 1c-5 1-10 14-10 25 0 5-1 8-5 16-2 7-6 13-9 16-4 5-7 12-12 29l-6 16-7 15-4 11-1 27c-1 27-1 27-4 36l-5 12c-1 3-5 7-10 9l-5 7c-2 5-3 5-9 8-9 5-11 7-15 13-4 8-11 17-17 22-14 10-26 20-29 25-3 4-6 5-14 10a63 63 0 00-33 36l-2 6c0 2 1 2 4-3l6-11 9-11c6-6 6-6 8-4l1 7c0 6-3 10-12 20s-16 21-17 28c-1 4-2 6-7 11l-6 9-3 6c-2 3-3 5-3 8s-1 5-4 8c-5 4-5 6-2 6 2 0 3 1 3 4 1 5 1 7-6 14-4 4-5 5-8 5s-3 0-3 4c0 3-1 5-3 8s-2 5-4 17c-1 11-2 14-4 17l-4 4c-2 0-4 3-4 6s-6 16-9 20c-3 3-11 5-17 5-5-1-10 1-10 3l-4 6c-6 7-12 18-14 25l-7 14c-4 6-4 6-5 16l-2 12-2 11-4 14-4 16a344 344 0 01-8 45l-4 17c-2 8-2 12 2 12 3 0 4-3 6-18a157 157 0 0112-43l1-5h22l123 4a4589 4589 0 00346 4l-4-52-5-78-1-27-5-15-4-14 4-10c2-7 5-13 9-19l6-8 26-18 26-17 13-2c15-2 16-3 34-13 9-5 12-6 17-7h6l-1-20-3-315a17718 17718 0 00392-11l-10-209V60h-10l-92 4z"/>
</svg>
