<svg xmlns="http://www.w3.org/2000/svg" viewBox="0 0 1024 1024">
  <path d="M266 83l-12 5c-6 2-7 3-11 10s-5 9-10 12-6 5-8 12l-2 6c-3 1-7 1-10-1-2-1-2-1-6 1l-5 1v13h-7v-5l-1-6-6 2c-5 2-5 3-5 6 1 4 0 5-6 8l-6 4-2-4-3-4-11 4-1 8-1 9-12 2-12 2-6 7-6 7 1 11v11l-5 8a47 47 0 00-7 13l-5-3-5-3-12 3-12 4-3-3-10-3h-6l1 7c0 6 0 7-2 10l-3 3 5 14c4 12 4 13 3 14l-3 7c0 6 0 6-6 9l-5 3 1 5v15c0 9 0 9 3 13l6 4 3 2-1 7c-1 6-2 7 0 9l2 7c1 4 1 5-3 9l-4 4-5 30c-4 29-5 30-7 32s-4 5-7 15c-6 25-9 36-13 62l-4 27-4 3-7 6-3 3 3 16a1319 1319 0 0119 92c2 5 2 8 2 13 0 7 1 11 5 16 3 3 5 3 15-2l10-5h12c14 0 18 1 25 6l5 4 5-3c4-3 6-4 6-7 1-10 5-18 11-21 4-3 19-3 23-1 3 2 9 12 11 17 1 4 4 8 7 8 2 1 3 2 5 6 1 3 2 5 4 6l2 1a7952 7952 0 0042-112c4-3 6-1 16 12l9 10c7 3 14 5 19 5h8c4 0 4 1 6 7 1 6 2 6 16 20l15 15h6c5 0 8-1 19-6 12-5 14-6 18-5 4 0 6 0 13-4 7-3 10-5 15-10 4-4 6-8 6-9l1-6c1-3 2-4 8-5 7-3 10-3 14-1 4 1 8 7 10 13 0 1 1 4 3 5 2 3 3 8 0 10l-1 6c0 4 0 5 2 5 3 1 4 1 4-3 1-4 6-8 10-8s4-1 4-6c0-4 0-4 2-4s3 1 3 3c0 4 2 4 12 4s11-1 8-5l-3-4c0-3 3-8 5-11 4-3 8-2 12 1l5 3 6 2 7 3 7 4c1 3 3 4 5 4l4 2c2 2 10 6 13 5l3-1 5-4c3-3 4-4 4-6 0-4 3-8 7-8l3-1 8 11 5 12 4-1c3-1 6 0 47 16l44 18 35 43c34 42 35 42 41 45 6 2 6 3 11 12 8 13 20 24 41 39l17 11 24 26c18 21 25 27 29 30 4 2 9 7 16 15 9 11 10 12 17 14 6 3 9 5 21 16l13 13 5-4 5-4 8 5c5 2 12 7 17 11l9 8 8-4 10-4c2-2 2-8 0-11l-1-3 5-6 8-9c1-2 2-3 6-3l6-3 13-6 11-5-2-3c-2-2-3-6-4-14-1-11-2-12-3-13-2 0-5-3-7-5-5-3-5-4-8-3l-2 2 1 3 1 4c2 1-1 4-5 4l-3 1c-2 3-5 2-8-1l-5-3-1-1c0-2-4-3-5-2h-6c-2-1-3-5-4-13-2-15-3-16-9-17-6 0-7-1-11-6l-8-8-5-6-2-3c-2 0-2-1-2-3 2-4-2-3-5 2-2 3-3 4-4 3l-8-1c-9 0-11-3-11-14-1-6-1-8-3-10s-3-6-4-9c-1-5-2-6-4-8-3-2-4-3-4-8l-3-7-7-8c-6-7-10-9-13-8s-2 3 2 3c6 1 9 5 5 6-2 1-2 1 1 5l4 5c0 2-7-5-9-8-3-5-6-7-9-7s-4-1-8-8c-6-8-16-19-21-20-7-1-14-5-19-9l-10-5c-9-1-8-1-19-17l-12-13a390 390 0 00-49-61l-8-9-9-7c-3-3-6-4-8-4l-5-2-7-1c-5 0-6 0-7-3-2-4-8-6-28-5h-17l-1-3c-2-3-2-6-2-11l1-7-5-4c-4-3-9-4-11-2l-2 2c-1 0-2-4-1-5 2-3 0-5-5-5s-5 0-6-3c0-4-3-4-5 0l-4 4c-2 1-3 1-5-1l-2-4c0-2 0-2-3-1-2 1-3 2-3 4-1 3-3 4-4 1-2-3-3-3-4 0l-2 5c-1 2-6 4-10 4-6 0-17-6-18-9-1-6-3-10-8-13-5-2-7-5-7-10l-2-3-2-2-2-4c-2-2-2-2-1-3 2-2 1-5 0-6-2-1-2-1 1-4 6-10 0-18-20-28-6-3-7-4-10-3l-7 5c-3 4-3 5-4 12l1 13c1 5 2 6 3 5 4-1 4-1 6 11 1 11 1 17-1 20h-5l-7-4c-3-3-3-4-4-13l-4-17-6-10-4-10c-3-9-8-16-14-18-3-1-5-1-9 1l-6 2-1-3-2-9-1-13-2-12c-1-8-3-10-8-13-4-2-5-3-6-9l-6-15a440 440 0 01-27-100c-3-16-10-39-19-60s-12-29-14-39l-4-9-4-8a910 910 0 01-25-45l-9-13-22-29-7 1z"/>
  <path d="M499 355c-1 3-1 4 1 5 1 2 1 2-5 3-3 1-4 5-1 7 1 2 2 2 4 1s2-1 4 1c2 3 4 3 8 3 2 0 2-1 2-3l-2-3c-3-2-5-4-4-5s7-1 12 1h5c2-3 0-5-5-5-4 0-5 0-5-2-1-2-1-2-5-2h-5l-1-2c-2-2-2-2-3 1z"/>
  <path d="M410 357l-1 4c0 3 0 3 3 3s4 2 2 8l-1 6 3-1c3-3 3-8 0-14-2-4-5-7-6-6z"/>
  <path d="M493 392l-4 1c0 1 5 2 6 1 1 0 7 5 7 7l-2 1c-3 0-3 0-3 3s1 4 2 4c1 1 1 1-1 2s-3 0-5-2l-3-3-1 5v6h6c3-1 4-1 9 5 5 4 6 6 6 8-1 2-6 4-8 1l-3-1c-1 1-2 0-3-3-1-2-2-5-4-6-4-2-6 1-2 4l2 4 1 3 2 3c0 3 2 4 6 4l6 1c2 2 3 2 6 1l4-2c2-2 5-1 7 2l4 3v-6h6c5 0 7 0 9 2 4 3 8 3 8 0 1-2 4-3 7-1h4c2 0 3-1 2-2l-1-5c0-5-2-6-4-3-3 3-7 6-7 4l3-3 2-2-2-2h-4c-1 1-1 1-1-1 0-3-3-5-10-6-6 0-6 0-7 2-2 4 0 6 4 5h3c1 1 1 1-1 1l-3 2c-1 3-5 4-10 2-3-1-4-1-6-9-2-10-3-12-6-15-2-1-2-2-2-5 0-4-1-5-5-6l-7-3-2-2-5 1z"/>
  <path d="M623 442l-2 3 1 1c5-7 5-9 1-4z"/>
  <path d="M541 495c-2 1 0 4 2 4l2-2c0-2-2-3-4-2z"/>
  <path d="M543 504c-4 2-2 11 3 11 2 0 2 0 2-4l1-6c4-2-1-3-6-1z"/>
  <path d="M552 527l-1 2c-1 1-1 7 1 8 2 2 4 1 6-2s2-3 1-6c-3-4-7-5-7-2z"/>
</svg>
