<svg xmlns="http://www.w3.org/2000/svg" viewBox="0 0 1024 1024">
  <path d="M116 135c-1 3-3 4-5 5-3 1-4 1-5-4v-2l-5 3-6 3c-2-1-4 1-4 3l-4 4-5 5c-2 2-3 3-6 3l-4 3v9l3 1 4 2c2 0 2 0 1 4l-1 4-4-4c-2-2-4-4-6-4l-6 3c-6 5-12 8-18 9-5 0-6 0-7-2-3-3-7-3-11 1-2 2-3 4-2 5 0 2-1 3-5 5l-7 2-5 2c-2 3-2 3-1 4 2 2 2 3-1 3l-4 2c-2 2-2 4-2 11 0 10 1 13 3 8 2-3 3-3 5-2 3 0 5 11 3 12-2 2-1 3 2 4 3 2 6 1 8-1l3-1c2 0 2 0-1 3l-4 6-3 7v7c2 4 4 4 8-2 3-4 4-5 5-4 3 1 4 0 4-3 0-2 0-2 2-1l2 3-5 14v6c0 4 0 4 4 4h4l-2 2-3 5-4 6c-4 4-5 6-2 4l5-2 7-2c5-2 6-3 6-1l-5 5-5 4-2 2c-2 1-3 2-2 3v2l-3 1-1 10v10l3-1 4-4 5-2 5-3c2-2 4-4 6-4a136 136 0 0017-4l7-2c2-2 2-2 4 0l3 2 5 5-3 2c-3 1-8 8-8 10l2 1c2 1 2 2 2 4 0 7 7 7 15-1l4-4 2 3 2 3 4-2c3-2 5-2 8-1 5 0 9 3 9 4 0 3 2 2 5-1l2-3 3 4c2 3 3 3 4 2l6-1c4 0 6-1 8-3 4-3 4-3 3-7v-4h4l6 2c2 2 2 2 5 0h5c3 1 6 1 8-1 2-1 2-1 5 1s4 2 9 2l6-1v3l2 5c2 2 2 2 0 5-2 5-3 11-2 14l1 3 9-1h10l2 4 3 5-5 10-12 16c-6 5-7 6-11 6s-5 0-9 5c-3 3-4 6-4 8l-2 6c-2 2-3 3-6 3-4 0-4 0-4 3l4 8c3 5 3 6 3 12l1 10v41l-6 2c-4 2-6 3-8 7-3 5-2 8 2 8 5 1 8 8 7 18 0 7 0 8-3 9-2 1-3 2-3 4l-1 6c-1 2-2 3-5 4-8 2-18 3-23 2h-15l1 3c1 2 4 7 9 11l8 8-1 3c-2 3-2 3 0 8l4 6 1 5c0 2 1 4 5 8s5 5 7 3c2-1 3-1 5 2 4 3 4 8 0 14-2 3-3 5-2 7s0 3-8 9c-9 6-10 8-10 16l-2 8c-2 6-2 8 0 9 1 0 4 3 6 9l6 10c1 1 3 2 3 4 1 2 3 3 9 0l4-1-1 2-3 9-2 7h-4c-3-1-3-1-5 1l-6 2c-3 0-3 0-4 6s-2 7-7 12c-5 6-6 7-6 12l-4 10c-3 5-3 6 1 8l4 3v26h5l7-2 13-1c10 1 14 2 17 5l4 2 7 3 9 6c8 4 11 7 15 15 3 7 4 10 2 12v5c1 5 2 5 6 7l6 3 3 13 1 4 3 6c1 3 2 5 4 6l2 3c0 4 3 6 7 6 5-1 7 0 9 4 2 3 3 4 8 6l13 3c11 1 15-3 24-20 4-8 7-12 10-14l4-4 6-2 7-1 11-2h10v-2c0-3 1-3 5-5 4-1 7-3 10-6l5-5 12-2c16-3 42-3 49-1 6 3 12 2 16-1 3-2 5-2 9-2l15 2c7 0 10 1 11 2l8 1c10 0 13-1 13-5 1-5 7-8 15-8 7 0 7 0 12 5s8 6 9 3l2-1c2 0 7-6 9-11l5-6c1 0 2-1 2-3l2-6 4-15c-1-2 0-2 1-3l6-6c4-6 12-12 16-12l3-3 3-3 4-3 8-4 6 1h6l14-2c11-1 14-2 16-5 1-2 1-2-1-3-5-1-6-2-8-5l-2-3 3-4c2-1 5-6 6-9l4-8 3-7c3-12 4-14 7-14 2 0 3-1 3-3l1-7c1-4 2-5 3-5 2 0 3-1 5-5 2-3 4-5 8-7l8-5 5-3c2 0 4-2 5-5 2-3 3-4 7-4l7-4 5-3c3 0 3-2 2-4l-1-5c-1-3-2-3-8-5-11-3-12-4-17-8-4-5-7-12-9-25l-4-11c-3-5-3-6-3-13 1-7 1-9 8-22l11-18 7-11c3-5 5-9 8-11l6-7 12-15 3-4c0-3 2-8 6-12l3-6c0-4 7-10 13-11 5 0 9-2 12-5 2-3 2-6-1-6l-4-2-3-2c-5 0-1-6 12-18 11-10 15-12 19-8 2 1 2 1 4-1 3-4 4-5 20-9l19-6 14-3c12-1 16-4 22-13 3-5 6-8 9-10l8-6c3-3 11-6 19-8l8-4 8-5 4-3 5-4 5-4 5-5c4-1 7-7 5-12l-1-7c1-5 1-5-2-7-4-3-4-4-4-8s0-4 6-4c4 0 5 0 7-4l2-4-3-2-6-2-3-4c0-2-1-3-2-3 0 1-2 0-3-2-2-5-5-5-13-1l-12 4c-6 0-6 0-7 3 0 3-1 4-4 4-3 1-5 0-7-1l-15-8c-1-1-2 0-3 1-1 2-11 5-15 5-2 0-4-2-6-5l-8-6c-5-2-13-1-18 1-3 2-6 2-10 2-6-1-8-2-6-5 1-3 1-13-1-16-3-7-4-8-13-7-6 0-7 0-8-2-2-3-8-7-12-7-2 0-7-1-10-3-5-2-11-3-14-1v13c1 2 1 2-8 2l-11-2c-2-2-2-2-5 0l-3 3-3-3c-3-3-10-3-16 0-5 3-9 2-12-3-2-3-4-5-9-7l-8-3-4 3-3 3-3-2c-4-1-6-1-6 1l-1 2c-2 0-10-10-12-15-3-6-4-6-10-5-5 1-6 1-9-1l-12-4c-11-5-11-5-11-7s0-3-3-2c-2 0-3 1-4 4 0 3-1 3-2 2-3 0-6-3-6-5l3-4c3-3 4-4 4-8l-1-6-6-2h-8c-2 2-2 2-3 1l-1-3h-3c-2 1-3 0-6-3l-6-5c-3-1-3-1-4 1 0 1-1 3-3 3-4 3-15 5-21 5l-7 1-4-1-6-2-6-2-2-2-6-2c-3-2-4-2-5-1-1 2-2 2-2 1l-2-5c-3-3-3-3-6-1l-7 2-6 1-4 2c-3 0-3 0 0 4l2 3h-3l-5-3-4-1c-1 0-3-1-3-3-2-2-3-2-12-2s-14-1-11-2c2-2 1-2-2-4-2-2-5-2-15-1a78 78 0 00-28 5c-3 2-4 2-25 2s-23 0-27-2c-3-2-7-3-14-3l-12-2-6-1-4-2c-2-2-7-3-22-5-14-1-15-1-15-3l-4-5-4-3-2 3c-3 5-6 7-9 6h-6l-6-1h-9c-8 3-11 3-34 3l-26 1c-7 1-11-1-19-9-11-10-16-11-18-6l-1 2-3-3-2-5-1-2-3-1-3 3z"/>
  <path d="M1007 506c-1 1-2 2-8 2l-8 1c-3 0-4 4-2 10v3l6-1c4 0 5 0 7 2 4 3 17 10 20 10 2 0 2-1 2-3 0-5-3-12-6-16l-3-5c0-2-1-2-3-2-3 0-4-1-4-2s-1-1-1 1z"/>
  <path d="M938 518l-19 6-5 3-6 3-8 5-9 7-5 4-4 2-4 3c-3 3-3 3-2 5s4 3 6 4l3 3c0 4 3 3 7 0 3-4 4-4 10-4 3 0 4 1 4 8 0 8 2 10 10 10 6 0 8 1 10 5 3 4 4 4 9 0 6-3 8-5 11-12l6-10c7-10 9-18 5-22-2-2-4-2-7 0s-9 0-14-5c-1-1 0-2 2-2 3-1 3-2 3-3 0-2-1-2-5-2-5 0-6-2-1-3l6-2c3-3 1-5-3-3z"/>
  <path d="M808 603c-5 1-11 5-11 8l-2 3c-3 1-5 7-4 10 0 2 1 2 5 2h5l3 1 2-2c1-3 10-13 13-13 2-1 2-2 2-4 0-6-2-7-13-5z"/>
  <path d="M806 635c-1 1-2 2-2 6s0 4 2 3h4c2 2 9 0 8-2l-3-1c-3 0-6-2-6-5 0-2-1-2-3-1z"/>
</svg>
