<svg xmlns="http://www.w3.org/2000/svg" viewBox="0 0 1024 1024">
  <path d="M632 2l-6 1-4 2-4 3c-2 0-5 3-7 5-5 5-9 5-14 1-6-3-9-3-13 2l-7 10-7 10c-3 3-4 5-4 8-1 6-4 18-9 31l-3 11 1 13v13l-3 5c-3 6-4 6-6 6-2-1-4 0-7 4-4 3-5 5-7 11-3 10-4 12-8 12-3 0-7-3-9-8l-6-3c-9-2-14-4-16-8l-4-5c-1-1-2 0-4 4l-2 6-2 1c-4 0-11 3-15 6s-5 3-5-1c0-3 0-3-6-3-5 0-9-1-11-4-1-2-2-2-7-2h-5v-5l-2-10-2-10-13-31c-2-3-8-6-12-5-5 1-9 3-11 6-2 2-2 3-2 8 1 10-1 11-7 4-3-3-3-3-6-1l-5 5 4 3c4 2 5 4 5 11 0 4 0 4 3 4 4 0 9 3 10 8l3 3c1 1 2 2 2 5 1 4 1 5 5 8 3 2 5 4 5 6 1 2 2 3 3 2 3 0 5 2 5 7 1 3 1 4 4 4l13 6c9 4 11 5 12 8l5 5c4 2 7 8 6 12v4l3 3c3 1 4 1 4 5 1 3 2 5 4 6 3 2 3 3 3 6l-2 6c-3 3-5 21-3 28 1 5 1 5-1 8-2 1-3 4-3 5-1 3 0 3 2 3 4 0 9 4 9 7l1 5c1 4 0 7-5 8-3 1-3 2-3 5 0 4 5 19 12 40l2 9-2 6c-3 9-7 16-11 21-4 3-4 4-3 6 1 3 1 5-1 7v4l1 5c0 3 1 5 7 11l6 7v8c0 6 0 8 2 10 2 3 2 3 1 16a256 256 0 01-2 26c0 4 0 5 2 3 2-3 4-15 4-23l1-9c1-2 1-2 6 3 9 7 14 10 17 10 2 0 4 2 10 7l7 7v14l-2 18c-3 6-2 8 2 12 4 5 5 7 3 9h-5c-3-1-3-1-3 1s1 3 3 4c7 2 6 9-1 9-3 0-4 0-4-2 0-3-5-3-13-1-7 2-11 5-19 15-4 6-5 7-5 12 0 6-1 7-12 13-8 5-8 5-8 9 0 5-4 12-10 15l-6 7-5 5-3 7c-2 6-3 7-6 9l-6 5-3 3-3-4c-2-4-3-5-8-2l-6 1c-2 0-2 1-2 4s0 3 5 3c3 0 4 0 5 2v5c-1 2-2 2-9 2s-7 0-8 3l-5 6c-3 2-4 3-3 5l-3 6c-3 4-3 4-2 10 1 7 1 9-3 12-3 3-10 3-12 0l-6-2c-4-1-15 1-18 4-2 1-2 2 0 4l1 5c0 3-13 26-17 30-2 3-3 5-3 8l-3 7c-3 2-3 3-1 4 2 2 2 9-1 19l-1 6 3 4c2 3 4 7 4 10 2 5 2 6 0 14-3 9-2 14 2 22 5 8 5 13 2 26-2 9-2 12-2 25v14l-3 5-3 8c0 2-1 2-3 2-3 0-4 0-4 3l-2 3c-2 1-1 12 1 15l2 8 1 5-5 5-4 6 2 3c2 3 2 3 1 5-2 2-1 6 2 7s4 0 4-3c0-2 2-4 2-1 1 2 7 1 12-3 3-2 7-3 7-2l-2 5c-2 5-2 5 0 4 3-1 8 1 12 5s5 8 4 12c-2 5-1 8 4 13 2 3 5 5 6 5l2 2-2 2c-1 0-2 1-2 3 0 4 2 10 4 11l1 2c0 1 2 3 5 4l4 3 2-3 11-13c2 0 6 4 6 7l-2 4-3 3c0 2 4 3 5 1 0-2 4-1 5 1s1 2-2 3c-3 0-4 1-5 4l-2 4h5c5 0 6 0 11-4 2-3 5-5 6-5a712 712 0 0146-9l4-2v4c1 3 1 3 6 3 3 0 4 0 4-2l2-6c1-4 2-5 6-6s6-2 6-4l1-2 1 2c3 4 7 5 12 2 2-2 3-3 3-5s1-3 15-3c8-1 10-1 15 1 6 2 7 2 7-4 0-4 1-5 3-5l3 2c2 1 2 1 4-2 3-4 7-4 11-1 1 2 3 2 5 1 2 0 2 0 0-1-2 0-2 0 0-4 1-3 1-3 6-2 4 2 5 2 15-3 12-6 19-7 26-3 4 2 5 2 11 1l7-1c1 1-3 15-5 19-3 5-8 7-28 8l-12 1 2 1c4 3 17 4 25 4 6-1 7-1 14-8 6-6 7-8 9-14l2-10c0-7 3-13 9-19 3-3 8-8 10-12l9-12c5-6 6-6 11-7h5v-5c2-10 8-18 15-20 5-2 10-7 10-9s8-13 14-19l4-7 3-5c2-2 3-5 3-7l6-8 4-7c0-2 1-3 3-5 6-4 15-15 19-24 3-6 6-10 13-17 7-8 13-15 18-24a163 163 0 0013-37l2-8-7-10c-7-6-8-8-8-11 0-2-1-4-8-9l-13-11c-3-2-6-4-9-4-9-2-12-3-12-5s-3-6-9-12l-11-13-2-4 5-3 5-7 6-12c4-9 5-11 3-17-1-2-2-5-1-6 0-3-2-5-12-11-6-4-9-9-10-17-1-5 0-7 1-9 1-4 2-22 0-22l-9-2h-7l-2-7c-3-13-2-19 4-22l4-2c0-3-4-10-6-12l-3-3 2-4 2-10c0-6 1-10 3-16 1-3 1-3-1-5l-3-3 7-3 7-4v-8c-1-11-7-29-13-36l-4-7-4-10-5-17c-1-7-2-9-4-13l-9-12c-5-8-5-8-5-17-1-10-1-10 2-15a533 533 0 0024-40c4-3 6-7 6-16 0-5 0-6-8-14-7-7-8-9-12-19l-5-10-9-5-13-6c-4-1-5-3-5-8l-2-10-3-14c-1-6-1-6 2-10l5-12 5-12 2-5h-6l-6-1c-2-1 4-8 10-12 6-5 6-7 2-12-3-4-2-13 3-19l5-6 4-7c3-6 3-6-1-18-4-8-4-9-9-10l-5-3-7-3c-4-2-8-5-15-12-11-11-11-10-8-18 0-2-1-2-4 0z"/>
  <path d="M495 502c-2 1-2 2-1 5 1 2 2 5 4 6 3 2 3 2 6 0 4-2 5-5 3-9-1-3-2-3-6-3l-6 1z"/>
  <path d="M327 673l4 7c3 3 5 3 5 1l2-2c2 0 3-1 3-4 0-4-1-5-2-3s-6 1-6 0l-4-2c-3 0-3 0-2 3z"/>
  <path d="M236 951c-1 2 0 4 1 5v3l-4 2-8 1c-6 1-7 2-8 5-1 4 0 7 3 5 3-1 7 0 7 3s3 6 8 6c2 0 3 1 5 4s4 5 7 6c4 2 4 2 4 0l3-6c3-4 4-6 0-7l-3 2c-1 4-2 4-5 0-3-2-4-8-1-7 6 3 7 2 9-2 1-2 2-5 1-6-1-3-8-11-14-14l-5-3v3z"/>
</svg>
