<svg xmlns="http://www.w3.org/2000/svg" viewBox="0 0 1024 1024">
  <path d="M671 152l-6 3-9 4c-5 2-9 4-11 3l-3 1-2 2c-3 0-6 5-6 7l-1 3-1-3-1-2-1 2c0 1-1 2-3 2-3 1-4 0-1-2l3-4 2-2h-3l-4 2-3 3-13 1 6-4c2 0 1-3-1-3l-3-1h-4c0 1-1 2-3 2-3 0-5 0-6 2-3 3-3 3-3-1 1-4 1-4-1-3-1 1-3 3-3 6-1 4-3 5-4 2 0-2-1-2-3-1s-2 1-1 2c2 1 0 3-2 2l-2 1c-1 2-1 2-3 0l-1-3-2-2c-2 0-3 1 0 5 1 3 0 6-1 4l-3-2-2-3-1-2c-1-1-2 8 0 10 1 3-1 4-3 2l-1-4c1-4-1-5-5-4-2 1-2 1 0 3l2 3c1 2 1 2-2 2l-3-2h-2c-2 2-2 2-4 0-3-2-4-2-4 2 1 1 0 3-2 5l-3 3c2 2-2 2-3 1-2-2-2-2-2 2v4l1 3c0 2 0 2-2 0l-2-2-1 2-1 3-1-3c-2-3-2-3-5 1l-2 2 3 4 4 5h-3l-4-1-1-2h-3c-3 3-7 4-11 4h-7l-3-1-5-1c-2-2-3-2-10 2s-13 5-22 5c-4 1-6 1-8 4-3 3-4 3-6 2-3-1-7-1-12 2l-2-1c0-3-4-2-7 1l-3 2c-1-1-3 1-3 3l2 3-2 3c-4 2-6 8-4 10v1l-4-2-2-1h-7l-1 4c1 3 0 4-1 4l-2 4-2 5c-1 1-1 1-1-1 2-3 0-5-4-5-3 0-5 1-7 4l-4 5-5 4c-8 3-16 3-18-1s-3-4-4-1c-2 4-7 2-5-2 0-2-3-5-5-5s-8 2-10 4v2l3 4c0 3 3 3 4 0l2-2c2 0 2 0 1 1l-2 6-4 5-2 2c0 2-1 3-2 3-2 1-2 1-1-1v-3c-2-1-3-1-5 2l-4 4-1 2c-1-1-2 4 0 6l2 6c0 3 1 4 3 5 3 0 10-1 12-4 3-2 13-1 15 2 1 1 1 3-1 5v7l4 6c1 0 4 6 6 13l8 15 3 3 8-1 10-2c2-2 3-5 1-5-1 0-4-3-3-4l2-1c2 0 4-3 3-7 0-2 0-3 3-3l3-2c0-1 1-2 3-2l3-3c1-4 3-5 7-4 3 0 4 2 6 5l2-1c2-2 2-2 7 5l5 1 5 2c3 3 5 3 9 0l6-2c3 0 4-2 3-4l-4-2-4-1c-2-2-3-1-4 3l-1 3c-2 0-1 0 6-17 2-4 8-7 12-7 2 1 3 0 6-5 2-4 3-6 5-7 2 0 4-2 5-4 3-5 7-8 14-8 5-1 7-1 12 2l10 5c1 2 3 3 5 3 3 0 5 2 3 3l-1 2-4 3-9 7-3 3 2 1c2 1 3 0 4-1l4-1 11-2c9-1 9-1 13 1 5 2 8 3 10 1l8-2 7-1c3-1 5 0 5 2l1 2 16-9c3-3 9-6 12-6l4-3c0-2 4-3 7-2h7c4 0 5 0 9 3l8 3c2 0 3 0 3 2s5 5 6 5h3c1 1 1 1 1-3-1-4-1-4 1-4l3 2c0 3 2 2 4-1 1-2 1-3-2-5l-6-4-2-4-1-4c-1-2-2-2-6-2-6 0-7-2-2-4l2-3 2-3 2-3 3-3 2-4 2-4 1-5 2-4c3-2 5-10 4-14 0-3 0-3-3-2-1 0-4 2-6 5-3 3-6 4-11 6-8 3-10 4-18 12l-9 7-6 8c-1 4-3 7-4 7l-1 1-5 3-8 8c-3 4-5 5-8 6s-4 2-6 5c-2 4-3 4-5 2-1-2-3-2-8-1l-7 1 1-3c2-3 1-10 0-11-2 0-1-2 0-2s4-3 6-7c3-5 6-8 9-10 5-3 6-5 4-5l2-3c1-1 2-3 1-5 0-3 3-7 5-7l3-2 4-2 3-2c1-2 11-7 13-7 3 0 11-7 13-11a90 90 0 017-14l3-3 4-5c1-3 2-6 4-7l3-8c0-2 1-4 3-4l7-6c7-6 9-8 12-8l5-3c1-2 6-5 10-7a187 187 0 0013-7c0-3-6-2-12 1z"/>
  <path d="M458 168c-2 2-2 5-1 5l4-2c3-2 3-3 2-4-2-2-3-1-5 1z"/>
  <path d="M679 228c-8 4-13 9-14 15-1 3 0 4 3 1 2-1 5-1 5 2h7c5-2 7-4 5-9-2-4-2-4 2-6l2-4c1-4-1-4-10 1z"/>
  <path d="M343 253l-4 1-2 2c0 2 8 1 14-2l5-3c0-1-12 0-13 2z"/>
  <path d="M653 268h-2c-3 0-5 2-4 5 0 2 0 2-2 2-2-1-5 1-3 3h7c5-2 8-6 8-9s-3-4-4-2z"/>
  <path d="M109 279c1 4 1 3-17 20-8 8-9 9-9 7-1-3-3-3-3 0l-1 3c-2 2 1 3 7 2 6 0 8-1 8-4l11-13 11-12c0-2-3-5-6-7l-1 4z"/>
  <path d="M692 287l-8 7-7 6-7 8-6 8-4 8c-1 3-3 6-10 13l-8 10 2 4c2 2 2 4 2 5-1 2 0 3 1 4 2 1 3 1 6-1l5-3c2 0 8-3 11-7l14-12 5-4c3-3 4-4 7-4s3 0 3-3c0-5 3-11 6-11 1-1 2-1 1-3 0-2 0-3 3-3l3-1-4-4c-3-4-4-5-4-9s-3-10-5-11l-6 3z"/>
  <path d="M741 300c1 5 1 6 3 7l3-1c1-1 1-1-1-3l-1-5c1-3-1-5-3-5l-1 7z"/>
  <path d="M719 299c-2 1-2 1-1 2 2 2 2 2-1 3l-2 3c0 2 4 5 5 4h5c3 0 3 0 3-2-1-2 0-3 1-3h5l1 1 1-2 1-3v-4l-4 1c-3 2-4 2-7 0h-7z"/>
  <path d="M273 303l1 3 1 2c0 2 8 6 9 5v-5c0-3-1-4-2-3l-5-1-4-1z"/>
  <path d="M77 316l-2 4c-1 3-2 3-4 3s-2 0-3 3c0 5 2 8 4 4l2-2 5-5 1-3v-4c-1-2-2-2-3 0z"/>
  <path d="M55 338c-2 2-1 6 1 7l2-2 2-3 2-2c0-2-5-1-7 0z"/>
  <path d="M54 348c-2 1-6 8-5 9 1 2 3 1 5-2l3-5 1-2h-4z"/>
  <path d="M32 370l-6 8-3 5-1 3-2 5c-2 2-4 9-3 9l9-13 2-3h3c1 2 1 2 2-1l5-5c5-3 10-10 8-12-1 0-2 0-6 6-2 2-5 0-4-3v-3l-4 4z"/>
  <path d="M895 388l2 3 1 4c0 2 1 2 3 2l6 1c4 1 4 4-1 10-3 3-4 5-4 8-1 7 0 10 2 10s2 0 2-4c-1-5 0-7 6-10 11-6 9-17-4-19-5 0-6-1-8-3-2-3-5-4-5-2z"/>
  <path d="M523 411c-4 1-5 4-3 9v27l4-2c6-3 8-5 11-11 2-5 2-6 2-14l-1-9h-13z"/>
  <path d="M1 412l-1 8c0 5 0 6 2 6l3-2c1-1 1-1 1 1v4c-1 4-1 5 3 5s4-1 2-8c-2-3-2-4 0-6v-5c-1-4-1-4-4-1l-3 1-1-2-2-1z"/>
  <path d="M248 428l-5 7c-4 4-4 4-5 3-1-2-2-2-3-1s-4 2-11 2l-12-1c-1-1-1 0-1 1 0 4-5 10-9 12-2 0-3 1-3 2h-11c-3-1-3-1-5 1s-2 2-4 0c-3-1-3-1-6 1l-3 1-5-1h-4l3-2c2-2 3-4 3-8 0-5 0-5-2-4-1 1-3 2-3 4-1 2-2 2-5 2-4-1-7 2-5 6s1 5-2 5l-4-1c-3-2-3 0-1 3 2 2 2 2 0 3-2 0-6 4-6 6s-2 2-5 0l-7-2c-5-1-6-1-7 1-2 2-2 2-4 1-3-2-3-2-5 0l-3 3-3 3c-1 3-4 3-6 0l-2-3c-1 0-3 6-3 12l-1 6-3 2-5 4c-5 1-9 4-10 7-1 2-2 2-5 2-4-1-5 0-3 3 1 2 1 2-1 2-1 0-2 2 0 4l5 2c2 0 3 1 4 3l2 2c2 0 2 1 2 3l-1 6c0 2-1 3-6 6-7 5-9 7-9 11 0 2 0 3-3 3l-5 4c-2 3-2 3-6 3-6-1-9 0-11 4-2 5-2 8 1 7l1 1-2 2-1 1c1 1 0 2-1 4-3 4-4 5-1 8v2c-1 0 0 2 3 5l4 7c0 2 1 2 3 3 5 1 7 8 2 8-3 0-3 4 0 5l4 3c4 3 12 5 19 5 3 0 4 1 4 2 1 3 6 7 9 8l15 2a167 167 0 0133 6l13 4 20 5c2 0 3 1 3 2l1 1c1 0 2 1 2 3l1 2 2-2 2-2 2 2 5 2c3 0 4 0 5-3 2-4 5-4 6 0 0 2 1 3 3 1s4-2 4-1c0 2 2 3 3 2l8-1 10-1c3-2 10-1 12 1 1 2 1 2 4 1 4-2 12-9 14-13 1-3 1-3 5-3 6 0 9-3 9-6-1-2 0-2 2-3l3 1h4c0-2 7-10 9-10l2 2c3 4 10 0 9-4-1-2 6-2 7 1l4 5 3 3 3-2 2-4c0-2 7-7 10-7l3 3c2 2 2 3 1 4l-1 3 16-4c2-1 4-5 6-11 1-3 3-3 5 1l2 2 4-4c2-3 3-4 2-5-2-2-1-4 2-6s3-2 1-3c-1-2-2-2-5 2l-3 6c0 3-4 3-4 0l-2-3v-5l-3-5c-3-3-4-5-1-5 1-1 1-1-1-3l-6-4c-4-2-5-2-3-5l1-4c1-3 3-4 5-2 1 1 2 2 3 1v-1c-2-2-1-5 3-8 2-1 3-3 2-3h-4c-2 1-3 0 0-2 2-3 1-4-4-4-3 0-4 0-2-5 2-3 2-4 0-4h-4l-2-1c0-1-1-2-3-2s-2 0-1-3l4-4 2-4 3-9c2-5 3-6 2-9s-3-4-6-6l-8-4c-3 0-7-6-7-8 0-3-7-6-12-6-2 0-5-1-7-3l-6-2c-2 0-2 0-1-2v-1l-2-2-2-2c-2 0-3-2-1-2l1-2c0-1-3-2-4 0l-1-3c-1-4-1-5-5-8-7-4-10-4-13 1-3 4-4 5-5 1-2-4-1-9 1-10 4-3 4-6 0-12-2-5-3-6-5-5-1 0-2 0-2-2s0-3-2-3l-2-2c-2-2-4-1-4 1z"/>
  <path d="M909 430l-1 2 3 3c5 0 7-1 4-4-2-2-3-2-6-1z"/>
  <path d="M860 455c-2 1-2 2 1 4 3 3 3 3 5 1l2-4c0-3 0-3-3-3l-5 2z"/>
  <path d="M427 456l-3 6c0 3 3 3 5 1 3-3 2-10-2-7z"/>
  <path d="M963 475l2 1 2-1c0-2-1-2-2-2s-2 0-2 2z"/>
  <path d="M362 489v3c1 2 1 2 2 1l1-4c-1-1-3-2-3 0z"/>
  <path d="M434 495l4 8c4 7 7 9 6 5l-8-16-2 3z"/>
  <path d="M384 503c-7 3-10 14-6 17l1 3c0 2 2 7 4 7 1 1 3 0 4-1 2-1 4-2 5-1l4-3c2-2 2-4 2-9 0-6-1-7-4-11s-5-5-10-2z"/>
  <path d="M938 506c-3 2-2 7 2 7 2 0 2 0 2-4s-1-5-4-3z"/>
  <path d="M371 524c-1 1-1 4 1 5l1 3c0 3 5 8 8 8 3-1 2-4-3-9-3-2-5-5-5-6s-1-2-2-1z"/>
  <path d="M823 525c-3 1-5 5-3 9 1 2 2 2 5 2 4 0 5 0 7-4 4-5 4-5 1-7-2-2-7-2-10 0z"/>
  <path d="M469 536c-1 3 0 8 2 8h1c0-1 1-2 2-1 3 0 4-4 1-7s-5-3-6 0z"/>
  <path d="M527 538c0 3 0 4 3 10 2 4 2 5 5 5s5-2 3-7v-6c0-3 0-3-3-3-6-1-8-1-8 1z"/>
  <path d="M496 578c-5 2-8 10-7 16 1 2 2 2 4 2 3 0 3 0 3-3s0-3 3-1 7 9 10 16c1 5 2 7 4 7 6 1 7-7 5-20-3-13-4-13-10-16-7-3-8-4-12-1z"/>
  <path d="M882 580l-3 2 2 2 3 4c1 3 5 3 6 0 1-2 0-9-2-9h-2c-1-1-3 0-4 1z"/>
  <path d="M933 636c-3 1-3 2 1 5l2 4 3 2c2 1 3 0 6-2 8-5 5-11-4-11l-8 2z"/>
  <path d="M960 665v2c1 1 7 0 7-2h-7z"/>
  <path d="M233 677l-3 5c-2 4-2 5 0 6 1 2 1 2-1 2l-2 1c1 2 9 2 11 1l5-2 3-2c0-3-2-8-3-8s-2 3-1 4l-1 1c-2 0-2-1-1-3 0-3 0-4-2-5h-5z"/>
  <path d="M1013 693c-4 1-5 3-1 4l4-2c3-2 1-3-3-2z"/>
  <path d="M116 710c-3 3-2 5 2 10l4 8c0 3 3 6 5 6v-5l-2-9c-1-11-2-12-5-12l-4 2z"/>
  <path d="M639 722l-3 1c-2 0-4 2-4 4l9 20c2 0 9-11 9-14h-8l3-4c3-4 3-5 2-7 0-2-6-2-8 0z"/>
  <path d="M1002 744c-2 1-1 3 1 3l1-1c0-2-1-3-2-2z"/>
  <path d="M969 788l-1 2 7 1c6 0 7-1 5-3h-11z"/>
  <path d="M912 792c-3 2-4 4-2 5 2 0 7-3 7-5h-5z"/>
  <path d="M314 800c-4 4-4 8 0 10 2 0 3 0 6-3 2-2 4-4 4-6 0-5-6-6-10-1z"/>
  <path d="M695 811l-3 7c-1 7-1 10 2 10 2 0 2-1 4-6 2-8 6-8 6 1 0 2 2 5 4 5s3-5 3-10c0-6 0-6-2-6l-6-1c-3-2-5-2-8 0z"/>
  <path d="M902 812c-5 1-7 2-7 6 0 3 2 6 5 6 2 0 6-6 6-8 0-3-2-5-4-4z"/>
  <path d="M278 814h-5c-4-2-4-1-4 3l-1 5-2-2-3-1c-17 3-18 4-19 12-1 9-1 9-5 10l-6 2-8 2c-8 0-14 2-18 7-3 5-4 5-7 4-3 0-3 1 0 4s4 3 14 5c11 1 11 1 16-2l7-4 2-3v6c0 4 0 5 2 5 3 0 9-9 7-11l-3-6v-7l6-2c4 0 5-1 8-5l5-5 4-3c2-2 3-2 4-1l5 1c3 0 4 1 3 3 0 1 1 2 3 2s3 2 1 5c-1 3-1 4 1 2h6c3 1 4 1 5-1h4c3 0 3 0 3-2s0-2 3-1c2 1 2 1 3-1l4-3c2 0 4-1 4-3 2-4 1-6-3-8-5-2-8-3-8-1l-1 3c-2 1-2 1-4-1l-2-3c0-1-1-2-4-2-2 0-4 0-5-2-2-2-10-3-12-1z"/>
  <path d="M979 852c-3 4-2 6 1 9l2 3c0 2 4 1 5 0 1-2 1-2-1-3s-3-2-3-5l1-4 1-2c0-2-4-1-6 2z"/>
  <path d="M604 856c-3 0-3 0-2 5l-1 7c-2 3-2 3 2 4 6 2 7 2 9 1 1-1 2-3 1-5l1-4c2-2 1-5-2-7l-5-2-3 1z"/>
  <path d="M1020 859c-2 4-2 5 1 5 2 0 2-1 2-4 0-5-1-5-3-1z"/>
  <path d="M231 869c-2 2-1 4 1 2s3-4 1-4l-2 2z"/>
  <path d="M1018 873c0 2 2 3 4 2 1 0 2-1 1-2h-5z"/>
</svg>
