<svg xmlns="http://www.w3.org/2000/svg" viewBox="0 0 1024 1024">
  <path d="M27 187c-1 5-2 5 4 7 3 1 6 3 8 6 4 4 8 6 11 4 2-1 2-1 1-4-2-2-3-3-5-3-3 0-4-1-5-2l-11-11-3 3z"/>
  <path d="M63 192c-1 1 0 3 1 5l2 3-4 3c-3 2-3 2-2 5 2 4 3 4 6 3h5c2 2 10 5 11 4l-7-14c-2-2-3-4-2-5l-4-4c-5-3-6-3-6 0z"/>
  <path d="M122 219c-2 1-2 2 4 8s7 7 9 6 2-1-4-9l-6-7-3 2z"/>
  <path d="M168 235l-1 3c0 2 0 2 2 1 3 0 4-2 4-4h-5z"/>
  <path d="M260 247h-4l3 2h13l2-2h-14z"/>
  <path d="M138 249l-4 4-3 4h5c4 1 4 1 8-3 4-3 4-4 2-5-2-3-8-3-8 0z"/>
  <path d="M305 249c-3 2-2 4 3 4s5-2 2-4c-2-2-3-2-5 0z"/>
  <path d="M141 268l-3 1-10 3c-7 2-8 3-5 3 6 2 12 1 17-2 5-2 5-2 3-4l-2-1z"/>
  <path d="M400 276c-2 2-2 2 5 4l4 1-2-3c-4-3-4-3-7-2z"/>
  <path d="M672 290c-1 3-1 4 2 6 2 3 2 3 1 5-3 2-2 3 1 6 5 3 10 11 14 21 2 6 4 9 7 12 4 3 4 4 4 8 0 7-1 7-19 7l-18-1c-2 0-3 2-1 8l2 4-4 2-4 4-3 4-3 2-3-3-8-5c-5-3-5-3-8-1l-2 4c0 3-1 4-4 6-4 3-5 3-5 8 1 4 1 4 6 8 5 3 6 3 7 1h8c3 1 3 3 0 3l-4 5 6-2c5-2 5-2 13 5 4 5 5 5 12 6 5 0 8 1 8 2 2 3 1 3-4 1l-8-1c-3 1-4 1-6-2-4-4-8-4-13 0-2 3-3 4-2 7l3 6c3 3 6 9 5 10l-3 1 2 4c4 3 4 4 3 6v5c-4 0-6-1-6-4s0-3-3-3h-3l-1-8c0-6 0-9-3-15l-5-10c-1-3-5-6-7-5l2 4c5 5 4 8-7 21l-8 10 1 5c1 5 1 6 4 6l11 6c6 4 9 6 10 10l4 4 6 3c5 2 5 2 3 4l-2 2 3 1c3 1 4 2 2 4v3l-2 8-1 6 4 1c3 0 3 0 3 9l5 15 4 9-3 4c-2 4-2 5-7 6-5 0-5 1-6 3 0 3-1 3-3 3-3 0-3 0-2-2 4-7 4-7 3-11-2-6-1-6 3-8 3-1 3-1 3-5 0-3 0-4-2-4-2-1-2-2-2-4 1-4-1-10-4-10-2 0-2-2 0-6l2-4-5-4-6-4-4 3c-3 2-5 3-6 2l-3 1-6 2c-2 0-3 0-4 5-2 6-4 7-5 5s-3-1-3 1l-2 4c-1 1-1 1-1-1 1-1 0-3-2-4-2-2-2-2-4-1l-7 5-3 4 2 2c2 1 2 2 1 4l-1 3-1-3-4-5c-2-1-2-1-2 3s0 4-4 4c-4 1-4 1-4 5s1 5 2 6c3 2 3 2 2 4s-2 2-3 2h-2c-3 5-9 2-8-3 0-2 0-3-3-4l-4-1v7c1 7 0 8-2 12l-3 9v4l-3-2-4-3v-7l1-6c-1 0-7 5-10 10l-4 4c-2 0-2-1 0-4 2-2 2-3 1-3l-4 2-6 2c-4 0-4 0-6 5l-3 5 3 2c2 2 4 2 7 2l3-1-2 3-2 5c-1 3-1 3 1 3l2 1h-7c-2-1-3-2-2-4 0-2 0-3-2-4l-2-1c-3 4-4 14-1 16l7 4 5 3c0 2 0 2-2 2-3-1-3-1-4 1 0 2 0 2-7 0l-9-2c-4-1-4-1-3-3 2-1 2-2-2-4l-4-2-2 2c-2 2-3 5-4 11-2 8-2 9 0 10h12c2-1 2-1 4 1l6 3c6 1 4 3-4 5l-10 3c-2 1-3 1-5-1l-3-5-5-3h-4l6 7c4 4 9 9 12 10 10 6 9 9-1 4-6-3-6-3-10-2l-5 1c-2 0-2 1-2 4v4l6 2c4 1 5 2 3 2-2 1-2 2-1 4 0 4 2 6 4 6l6 2c3 1 3 2 3 6 0 3 0 4-2 4l-5 4c-3 4-4 3-6-2 0-3-2-4-5-2-2 1-2 1 1 6l4 9c1 4 1 4-1 5-3 2-3 2-5-1l-2-2-3 2c-3 3-5 2-5-3l-1-4-4-2-6-3c-3 0-4-1-4-2l3-15-1-3-3 2-2 6-2 6c-1 3-1 3 1 7l5 4c3 1 3 1 2 3-5 7-5 7 0 11 2 2 4 4 6 4l2 2 5 6c4 4 4 4 5 2l1-2 1 2c2 1 2 3 2 5-1 2 0 3 1 5 2 2 2 2 1 5s-1 4 1 5c3 3 11 3 13 0h4c2 0 2 1-2 8-5 8-6 11-3 13 1 2 1 2 3 1 3-2 3-2 5 0 2 1 2 1 4-1l2-3 3-1c2 0 2 0 2 2l2 4 1 3c-1 1 0 2 2 3l4 2-2 4-2 7v4l5-1 7-1c1 0 5 1 7 3l5 2-1 4-2 3 7 2 6 2-1 2c-1 2-1 2 1 4l4 2c3 0 12-4 15-6s4-4 2-6c-1-1-1-1-3 1-4 3-5 3-7 1l-7-6c-5-3-6-4-6-6l1-4c0-2 1-2 3-2 3 0 4-1 6-4 1-3 2-5 1-6v-3l-4 2-8 4c-3 2-4 2-5 1s-1-2 1-2l10-7c6-5 7-7 7-9 0-3 0-3-3-3l-6-2c-2-1-2-2-1-3l5-2 6-3 1-2-8-1-5-2-2 3-6 8-5 4v-3l3-6c3-4 3-6-2-3l-5 2c-2 0-2 0 0-3s3-8 1-10c-2-1 1-2 5-1 4 0 4 0 4-3l-1-3-5-1c-2-2-3-3-3-6l-2-7-1-4c2 0 7 5 8 7 0 4 2 5 7 5l3-1-2-2c-2-2-3-4-3-8-1-5-1-5 1-4l1 3c0 2 5 3 7 2 2-2 3 0 4 5s1 5 5 4c2 0 5-1 7-3 3-2 5-3 6-2l-5 6c-5 6-6 7-5 9l1 3 5-4c3-3 5-4 7-4l4 2c0 2 1 2 2 1s2 1 2 5l2 9c2 5 3 6 5 7 3 1 3 1 5-1l1-4c0-2 1-2 5 0l5 2 3 2 7 3c3 1 7 3 8 5 2 2 3 2 3 1 1-2 2-2 5-1l3 3 4 2 7 3c3 3 4 3 5 2 1-2 1-2-2-5s-4-4-4-6c1-1 1-2-1-1-3 0-3 0-3-2l3-6c2-3 2-3 1-4h-15c-2 1-2 1-2-3s2-7 6-8v-3c-1-2-1-2 4-4 5-1 7-5 6-9 0-3 0-3-4-3l-5 1-6 4c-5 3-6 3-6-3v-3l-5 5-6 3-1-3c-3-2-2-3 1-4s4-2 5-5c2-3 2-4 4-3 4 1 10-2 11-5l1-4-5 1c-4 1-5 0-7-1l-8-1c-3 1-4 1-5-2l-2-2h3c3 1 5 0 8-2l6-3-4-7c-4-5-4-6-3-8l1-4c-1-1-3 1-6 4-7 7-11 8-13 4-1-3-1-4 1-7 2-2 2-2 1-4-2-3-11-7-16-8-4-1-5-1-8 3l-4 3v-3c0-4 3-9 8-11 5-3 5-2 5 2v4h6l9 2h4c4-3 6-7 5-10l1-2c1 1 2 0 3-1 2-1 2-1 2 1-1 5 0 6 5 4 2-1 2 0 3 5 1 9 1 10 6 5l4-2 1 5c2 5 6 6 10 3l2-2 3 3c1 2 3 3 6 3l3 1-2 3-2 3 3 8 3 7 4-5 5-5 3 10c3 13 3 13 5 11l5-8c4-6 6-8 8-6l1 2h3v-5l-1-7-3-5-1-3c1-1 1-1 4 2s3 3 8 3c7 0 10-2 8-6-1-3-1-3 1-3l6 4c4 2 5 3 9 3 3 0 3 0 4 2l-1 5c-2 5 1 7 5 2 3-3 5-3 5 2l5 8 3 4-1 4c-1 5-1 5 1 7l4 5c1 3 1 3 3-2l3-6v-4c-2 0-2-2-2-2 1-3 0-12-1-17s-1-5 1-9l3-5-4-2-3-2 3-1 11-2 9-2v-3c1-2 1-2-2-1l-7-1c-4-2-5-3-3-4l1-3 2-3c1-2 1-2-1-3l-4-3-5-2c-5 0-10-2-14-5s-4-3-7-2l-7 5-5 4c-1 0-2-2-2-5 0-2-1-2-2-2l-8-4-9-3c-4 0-4 0-3-1 2-2 2-2-5-4-5-1-7-2-7-3 0-2 0-2 3-1h9c4 0 5 1 7 5l6 6c3 1 3 1 6-1l2-3-9-5-16-9c-5-3-8-5-12-10l-4-6h-5c-4 1-4 1-6-1l-3-2-4-2c-1-1-1-2 1-3 3-2 3-3 2-6 0-3 1-5 4-11l4-8 2 9c2 8 2 9 7 13l9 5 20 10 14 8 3-2 2-2 3 2 7 2 7 2 3 3 3-2c3-2 4-2 5-1 0 1 4 1 9-1h8c4 2 4 2 6-1 1-2 2-3 4-3s2 0 2 3c-1 4 2 9 6 9s4-2 2-6c-1-4-1-9 1-6h5c6-2 7 0 4 3s-3 3 11 2l9-1c0 4-5 6-10 6h-6l-3 1 3 2c3 2 5 2 12 1 5 0 5 0 7-5 0-3 3-6 5-8 3-3 5-4 12-5 5-1 9-2 12-1l4-1 2-1v-2c-1-2-2-2-5 0h-6c-1 0 1-2 6-3l11-5c2-2 4-2 4-1 1 1 0 2-2 5l-4 4h3c2 0 4-1 5-3l3-4 1-4-3-4-4-3c0-2 1-2 7-2 7 0 8 0 10-3l2-2h-6l-12-2c-6-2-7-2-10-1l-5 5c0 3-1 4-2 4l-5 2-2 3-6-4c-7-3-6-4 2-4 7 0 8-1 11-5 1-2 2-3 4-3s5-1 6-3c3-2 3-2 5-1 1 1 2 2 3 1l3-1c2 1 2 1 1 2-2 2-2 2 0 2l7 1c4 0 4 0 3-2l-4-2-1-1 2-1c7 2 15 2 18 1l3-3-10-2c-14-2-16-2-15-3l-16-10-5-3c2 0 15 4 19 7 4 2 7 3 7 0 1-3 6-3 13 1 6 3 6 3 14 2l8-1c0-1-2-3-4-3l-2-1 3-1c2 1 3 0 4-1h4l8 2c5 0 7-1 14-4l8-4 9 1c10 1 11 1 11-2l-8-1c-9-1-16-3-14-5 1-2 2-2 7 0h16c13-3 16-4 17-8 2-4 6-6 14-6 4 0 5-1 8-3l3-4h-8l-15-1h-7l2 2c7 5-1 8-9 4-3-2-3-3-1-3 1-1 0-1-4-3l-6-2-2-1 4-1c6 1 21-3 19-5l-1-3c1-1 2-1 4 2 4 4 4 5 8 2l1-2c-1 0 0-2 2-3 4-2 4-2 6 0h4c1-2 1-2-1-5-2-1-4-2-6-1l-5-3c-2-3-5-4-8-4l-11-4-39-9-8 1c-7 2-15-1-18-6l-13-8-12-7c0-2 6-4 11-4 6 1 8 0 5-5-2-4-1-5 2-2l19 6c2 0 1-2-1-5-2-2-4-6-4-9l-2-4 3 3c4 3 9 4 11 2 1-2 4 0 5 4 0 2 2 5 5 7 4 3 5 4 8 3l17 2c11 1 16 2 23 1 8 0 9-1 7-5 0-3-14-10-18-10-1 0-5-1-7-3-5-2-5-3-3-3l5 1c7 3 8 3 12 3l6 2 4 2 8-3-6-6c-5-4-7-5-10-5-4 0-9-4-9-7l-2-7c-1-3-2-4-4-5-4 0-4-3-1-7 2-4 2-9-1-10l-6-3-3-6c0-3-1-4-6-7-7-4-14-5-18-2l-4 2-4 1c-4 3-8 3-12 0l-4-2-4 3c-4 3-5 3-11 2-6 0-7 0-13 3l-6 3-8-2c-7-1-8-1-13 1-4 2-4 2-5 5l-2 5-1 5c0 3-1 4-6 10l-6 8c1 2 0 3-5 5-6 3-7 3-7 6l2 14h6l5 1 5-8 6-7v4c1 4 1 5-2 9l-3 4 4 1 5 2c2 1 10 1 12-1l7-1c0 2-5 8-6 8l-5 2-3 4 4 2c4 2 4 2 3 3-3 2-2 3 4 5 4 1 6 2 7 5 1 2 2 3 4 3 3 0 3 3-1 3-2 1-4 0-10-4l-8-4-2 2c-3 3-2 5 0 5s2 1 2 3c0 3 2 5 6 7l2 2-1 5-1 4-2-5c-3-5-5-7-5-3l-1 4c-2 1-2 1-2-5 1-7-2-12-8-12l-3-1 5-2c2 0 4-4 3-8l1-2c2-1 1-3 0-3-2 0-3-4-2-6l-1-4c-1-1-2-1-4 2l-3 3-4-3-3-4-1 2c0 2-2 3-3 3-2 1-2 1-1 3 1 3 1 4-2 2h-5c-2 0-2 0-1-1v-4c-1-1-2-3-1-4 0-1-1-3-4-4l-5-3-1 7c-2 10-2 10-6 6l-3-3 3-3c3-2 3-3 2-5l2-10 2-7-2-3-2-6c0-3-1-3-5 1-5 3-7 2-8-2l-2-3-2 4-5 6-3 4c1 3-1 6-3 4v-8l2-2c1-2 1-2-1-1-1 1-2 0-4-2l-3-2 3-1c2 0 4-2 6-4 3-3 3-3 1-5l-2-2c-1 0-2-1-1-2 0-2 0-3-2-4-2 0-2-1-1-5 0-4 7-17 8-17l2 1c2 1 2 2-2 6-3 4-3 4-2 7 2 3 2 3 4-2 2-6 4-6 4-1 2 7 5 18 7 19h6l10-2 7-2c2 0 2 0 3 5 1 3 2 4 4 4s3-1 5-5c1-4 1-4-1-5-3-1-2-2 2-2 3 1 3 1 3-2l2-5c1-1 1-2-1-6-3-4-3-5-6-5s-7-2-7-3h8c2 0 1-7 0-9s-2-3-1-5c0-2 0-2-2-2-4 1-10-5-9-9 0-2 0-2-3-2-2 0-4-1-5-3l-5-3c-3 1-11-3-10-5 1-3-2-3-7-1l-4 3-5-3c-4-3-4-3-7-2l-5 1c-3-1-7 0-9 4-1 3-2 3-6 4l-5 1 5 13 4-3c3-2 5-3 5 0 1 2 1 2-3 3l-5 3c-2 1-2 1-4-2l-3-5c1-3-2-5-10-6l-12-3-7-2c-3 1-19-4-20-6 0-3-14-10-18-10s-8-3-18-13l-9-10v4zm311 201l-5 3h-7l-1-2 13-1z"/>
  <path d="M408 292l3 3 4 3c2 3 3 3 6 1 2 0 3-1 3-2l-5-5c-4-3-6-4-9-4h-4l2 4z"/>
  <path d="M212 297c0 5 1 8 3 12 3 5 4 5 7 5 3-1 4 0 6 1l2 5c0 2 1 3 3 3 3 0 4-5 1-12-1-6-1-6-4-6s-5-1-11-8l-8-7 1 7z"/>
  <path d="M442 295c-5 1-14 6-14 7l21 12c6 3 7 4 7 6l1 3 4-3c5-4 8-4 13-2l9 2c5 0 6 1 7 3l2 5 4 6 4 5 7-1a513 513 0 0022-1c3 2 3 2 0-3-1-3-2-5-1-8l1-3 1 3c1 2 8 8 11 8 2 0 1-5-1-6s-10-11-14-18l-4-4-3-1-2 2c-1 2-2 2-3 2l-4-2-4 3v5c2 2 2 2-1 4-2 3-3 3-8 0l-4-2 2-7 1-8h-15c-18 2-24 1-29-5-3-4-3-4-10-3z"/>
  <path d="M298 300l-4 2c-4 1-5 4-2 8 2 4 13 11 17 11 2 0 4 2 9 7 7 9 16 15 21 15l5 2v6c-2 4-10 8-11 6l-1-4c0-2-4-8-9-14-2-3-5-4-7-4l-4-1 1 3v6c-1 3-1 3-5 3-3 0-4 0-5 4-1 2-2 5-1 7 0 2 0 2-4 2h-4l4 5c3 3 4 4 10 5 6 0 6 0 10-4 6-5 6-5 8-3l8 3c6 1 7 1 11-1 5-2 5-3 5-5-1-3-1-3 2-3 4 0 5-1 5-5 0-2 5-13 9-17l2-3-4 1-5-1c-1-2-1-2 1-3l2-4c0-2 0-2-3-2-4 0-4 0-4-3 0-2 0-2-4-1l-9 3c-6 3-12 3-22-2-11-6-11-6-12-12 0-5 0-5-4-6-5-2-4-2-6-1z"/>
  <path d="M382 313c-2 2-3 3-8 3l-7 1c-1 2 3 8 7 12l7 7c3 3 12 7 16 7s4 0 4-4c1-3 1-4-1-6l-2-2 4-1 5-3c0-1-2-4-7-8-6-8-7-8-12-8-4 0-5 0-6 2z"/>
  <path d="M443 329c0 4 2 8 4 8l1 1-4 1-8 1h-9l-4-1c-1 2 2 5 6 6 3 1 5 2 6 4l2 3v-7h4c4 0 5 0 9 4l4 5 1-4 4-6 2-3-4-3-5-7c-1-2-1-3-2-2s-2 1-4-1c-3-1-3-1-3 1z"/>
  <path d="M174 330c-2 3-1 5 3 9 3 3 4 3 3 6-1 5 1 9 4 8 4-2 6-5 6-7l1-4v-3c-1 0-2-1-1-2 0-2-1-3-7-6-8-4-9-4-9-1z"/>
  <path d="M461 334c-1 2 0 3 3 6s4 3 6 3l6-3c1-2 1-2 3 1l1 2 1-3 1-5-5-1h-7l-1 3c-1 2-4-1-4-3 0-3-4-3-4 0z"/>
  <path d="M550 334l-2 1c-3 0-3 0-2 5l1 5-6-2-5-3 1 7c2 9 1 10-3 13l-4 4 4 1 5 1 6 5c6 3 11 10 6 8l-7 3-6 3-4 3c-3 2-3 2-6 1-1-1-4-2-5-1l-7-2-6-3v6l1 7-8-6-8-6 8-3 13-6c2-3 5-4 6-3l4-2 2-3h-2c-2-1-2-1-1-2 1-2 1-3-1-4-3-2-10 0-10 2 0 3-17 15-22 16-5 0-6 1-6 5l-1 4c-1 3-2 1-2-3v-4l-6 1c-5 0-8 1-12 4-6 3-7 3-16 3-12 0-16-1-16-3l-3-3-3-1 3-1 8-2 11-3 6-2-2-3c-2-2-3-2-6-1l-8-1c-3-2-4-2-7 0h-12l5-3 6-3c0-2 0-2-5 0l-8 2-5 2c-2 3-3 2-3-2s0-4 4-5l3-1-3-3-3-5c0-2-1-2-5 0s-4 3-4 6v2c-6-1-8-1-9 2l-5 4c-5 2-5 2-3 5l1 3-7-3c-2-3-1-7 2-9l2-3-6-1-7-2c-2 0-2 0-1 5l2 8c1 2 1 2-2 1l-7-2-5-1v5c0 3-1 5-3 6-3 3-3 3 1 8l3 3h9c8 0 9 0 11 3l3 2 3 1c5 2 2 4-7 5l-10 2c-2 1-2 1-3-1l-2-2-3 2-5 6c-3 4-3 4-7 1h-11c-2-1-2-1 0-4 2-2 2-2 1-4-2-1-2-1-5 2l-3 4h-18l-16-11c-13-8-17-11-19-14l-5-5c-2-1-7-4-10-8-5-4-8-6-10-6l-5-3-9-7c-7-4-9-5-12-4-3 0-4 0-6-3s-12-8-19-9c-4-1-4-1 4 4l4 4c-1 2-4 1-7-1-2-2-2-2-5 0l-3 1 2 3 6 4c3 1 3 1 3 6s0 6-3 8c-2 3-3 6 0 6 2-1 6 2 7 5l4 4 12 3c13 4 18 5 20 3l4-4c4-3 6-1 6 4 0 3 0 3 2 3 5 0 7 1 7 4l2 2c4 1 7 7 7 12v4l-4-1c-3 0-7-1-10-3-6-2-12-2-18 1-4 3-4 3-4 7 1 7 6 13 10 12 5-1 13 4 22 13 9 8 9 8 14 8l8-2c2-1 2-1 3 2 0 2 2 4 6 7 6 5 7 5 12 5s6 0 6 2c1 2-1 3-6 3-4 0-4 1 2 4 4 1 6 3 10 8 4 6 6 7 14 11l10 6c2 1 2 1 2-3 1-3 1-4 3-4s3 1 3 11c1 5 1 6 5 9l7 4c8 1 8 1 8 4 0 2-1 3-7 1s-11-5-15-10c-2-3-4-4-10-6-7-2-8-3-16-12-11-11-12-11-16-3-1 3-3 5-4 5-4 2-12 1-21-1-5-1-10-2-11-1l-15 7-17 9h-12c-5-2-8-3-14-8s-7-6-7-4c2 6 0 5-6-1l-5-5-2 4-2 5 2 6 3 8 2 3 2 5 7 10c6 7 6 7 9 6 3 0 3 0 3 3v8c0 4 1 4 5 6h7c2-2 0-8-3-12l-3-3 4-3 3-2 4 2c6 3 16 2 23-3 3-2 5-4 4-5 0-2 3-4 4-2l2 3 6 3h4l-4-6-5-8c-2 0-2-1 1-4 2-2 3-3 8-3 4-1 6-1 7-3 2-3 2-3 4 2l4 4c3 1 3 1 9-4l5-6 5 2c4 2 4 2 7 1 4-2 4-2 4 13 0 10 0 12-2 16l-3 6-1 2-1-7-1-7h-3c-2 0-2 1-1 3 0 2 0 3-2 5-3 3-4 3-4-1l-3-4-1-3-1-4-7 3c-7 4-8 5-6 7l1 3c-1 3-1 3 1 3s2 0-1 5l-2 5 3 3 4 5 1 2c1 3-3 2-8-1l-4-3v10l-1 11-6-4-4-5-4 4-4 5 1-3c1-6 1-6 6-10l4-5 1-4v-4c-3-2-3-2-7 0l-5 3c-3 0-3 0-3-3 0-4 0-4 3-5l6-3c4-3 5-5 3-8 0-2-4-1-10 4-3 2-4 3-5 2v-2c2-2 1-3-3-1-6 2-7 4-8 12-1 6-2 8-4 9h-4c-3-1-3-1-2 4l4 12 4-4c2-4 2-4 4-2s2 2 0 6c-2 5-3 6-1 6 3 0 3 2-2 9a107 107 0 00-10 19l-4 1c-4 1-5 0-11-2l-10-4-5-3c-2-1-2-1-5 1l-3 1 2 3c2 2 3 2 9 2s6 0 11 4 10 6 17 4c3 0 4-1 5-3v-3l2 2 1 2 4-4c4-4 5-4 9-4l5-1 1-1c4 0 1 7-6 13-7 8-13 10-24 10h-8l-2 4c-2 2-3 6-4 10l-2 8-3-3-1-2-3 2-2 2v-2l4-8 4-6-4-2c-3-2-4-2-5-1-2 1-3 1-7-3l-4-3-3 2c-2 1-3 3-3 5l-1 6c-1 1-1 1 1 3s2 2 1 4v4c1 2 0 4-2 4l-1 3 1 3-3-3c-3-4-3-8 0-17l2-6-2-3-3-2v2l-1 7c0 4-1 5-3 7l-3 2-1-2 1-4 2-5 1-6c2-1 2-2 0-4-1-1-1-2-6-1h-7c-1-2-1-2-3-1h-3l-16-2-6-1v4c0 4 1 5 4 9 4 4 5 5 4 7 0 2 0 2 3 1 4-3 10-3 11 0 0 2 1 3 2 1h5l-1 1v3c1 2-1 4-5 4-2-1-3 0-8 4s-6 5-12 5c-5 1-6 1-10-3-3-3-4-4-6-3-3 0-3 1 1 4 2 1 3 2 3 6l3 7c1 2 2 2 8 0l-8 7-6 1c-3 0-4 0-3-1l4-1c2-1 2-1 0-4l-4-2h-2l2-3c2-2 3-3 2-5-1-4-4-5-10-4-5 2-7 2-13 0l-7-1 2-4c3-4 1-7-3-6-2 0-4 0-5-2-3-2-3-2-6 0h-7c-3 0-3 0-2 1l5 3c5 2 5 2 4 4-3 2-3 10-2 13 2 3 2 3 0 6l-1 3h3c2-1 4 0 6 1s2 1 2-3l-2-7-2-4h3l3 4 4 6c0 3 1 4 3 4s2 1 2 2c-1 2 2 3 8 3 2 0 2 0 0 3-1 3-1 3 2 8l4 4 6-1c6 0 7 0 8 2l3 2c2 0 2 1 2 6 0 2 2 3 6 3l5 2v6c-1 5-1 5 2 8 2 2 3 2 13 2l13 1 6 1 2-1-3-2-4-3-7-4c-5-2-6-3-9-7s-5-6-7-6c-4-1-12-7-13-9s0-3 2-5c2-3 3-3 4-2l11 4 13 3c1 0 2 0 3-2 1-3 1-3 9 2l6 5h-7c-6 0-8 1-10 2l-2 2 3 4c3 3 3 3 6 1 3-1 3-1 2 1-2 6-1 8 6 6l5-1-3 4-3 4 3 2c5 3 11 10 10 11l-3-1c-3-3-6-3-10-1l-3 2 3 2 4 1c2 0 1 1-1 4-2 1-2 1 0 3l4 7c2 4 2 4 6 4 5 0 10-3 13-9 2-2 3-3 5-3 1 1 2 0 2-1l3-3 9-7c5-4 6-5 5-6l-2-1c-2 0-1-2 0-2l3-2 3-1c2 1 2 1 2-1 0-3-6-9-9-9l-3-3-3-5c-2-2-2-2-3-1h-2c0-1-1-3-3-3l-2-2 4-3c4-3 5-3 5 0 0 2 9 12 13 15 3 2 3 2 4 0 2-1 2-1 2 4 0 4 0 5 2 6 4 1 4 1 6-2 1-3 1-3-2-4-2-1-2-1 3-5l7-4 1 6v6l5 2c4 1 5 1 7-1 2-1 2-1 1-4l-4-7c-2-4-3-5-1-5l5 6 4 6 3-2c2-1 5-6 11-15l8-14 4-8c2-5 3-9 3-17 0-10 0-10-2-10s-2 1-3 11c-2 15-2 17-3 16v-8c1-9 0-17-3-19l-2-4c-1-1 1-2 10-7 11-5 20-7 20-5l-10 9-2 3v3l8-2c7-3 28-5 28-3s2 1 5-3l2-3-2-2c-2-2-2-3-1-11s2-9 5-9c1 1 2 2 0 6l3 3c3 2 4 2 7 1l3-1 3 6c3 6 3 6 1 8l-2 2 4 2h7c5-2 10-6 10-8l3-5c3-4 6-4 8-1 1 2 1 2 7 0l6-3 2-12c2-16 4-21 13-29 5-5 7-7 6-8l4-8c6-7 7-10 4-11-5-1-4-3 3-4 2-1 3 0 4 1 0 2 1 1 4-3l26-25v-3c-2-2-2-2 1-4 5-3 10-12 9-15 0-2 0-3 2-4 2 0 3-1 3-2l3-4c3-3 3-3 3-8l-1-4-7 7-7 7 1-5 1-4 15-13 3-3v9l5-5 9-10c7-10 10-13 12-12 1 1 1 1-1 3-3 1-9 12-10 16v4h5c6 0 6 0 9-5l3-4 5-4c3-3 4-4 3-6 0-2 1-7 6-16l6-14c0-2-4-1-5 1 0 2-4 4-5 3l2-6c4-7 4-8-2-9l-4-1 3-1c2-1 4-2 6-1 1 1 2 0 2-1l4-1c3 0 3 0 2 2-2 6-2 8 0 8s7-5 13-14l11-11 8-5c2-2 5-6 3-5l-7 5c-5 3-8 4-11 4s-3 0-2-2c3-2 2-6 0-9l-2-2 7-3c2 0 12-7 16-10l2-2h-3c-3 1-8-2-25-10-22-11-23-11-24-15-2-4-4-5-4-3zm-32 127l-4 3 4-5v2z"/>
  <path d="M265 341l3 5c3 3 4 4 6 4l3-1-6-8-4-1h-2z"/>
  <path d="M469 348l4 4 3 1 3 1s-1 2-3 2c-2 2-3 3-3 5v3l3-2 3-3 3-2 6-2c5-1 5-1 4-4 0-3-1-3-6-3l-12-2c-8-2-9-1-5 2z"/>
  <path d="M419 349c-2 0-3 2-1 4h3c1-1 2-2 4-1l3-2c1-2 1-2-3-2l-6 1z"/>
  <path d="M459 355c-2 0-3 1-3 7-1 7 0 11 2 11l3 1c3 0 8-9 7-13l1-5c2-2 2-2-3-2l-7 1z"/>
  <path d="M445 359c-2 1-2 1 1 1 2 0 3 0 2-1 0-2-1-2-3 0z"/>
  <path d="M490 364l-5 2c-7 2-9 3-8 4 0 1 1 2 5 1l8 1c3 2 6 2 6 0l-2-3-2-4c0-2-2-3-3-1z"/>
  <path d="M338 369c-2 2-2 2 8 6v-3c0-3 0-3-4-4-2-1-3 0-4 1z"/>
  <path d="M175 393l3 4c5 3 7 2 7-1l1-3-6-1-5-2v3z"/>
  <path d="M233 400l-3 1c-2 0-2 0-2 2l1 3 3 1 3-1 3-3c3-1 4-3 3-4 0-2-7-2-8 0z"/>
  <path d="M239 434l1 5c2 1 3 1 3-2l2-3c2-1 1-2-1-3-4-1-4-2-5 2z"/>
  <path d="M130 437l6 3c4 1 4 1 4-1s-3-3-9-3c-2 0-2 0-1 1z"/>
  <path d="M143 442c0 3 0 3 2 2v-4c-2-1-2-1-2 2z"/>
  <path d="M151 440c-4 1-2 3 7 6 8 3 16 4 16 3l1-4c0-1-1-2-5-3l-8-1c-1 1-3 0-5-1h-6z"/>
  <path d="M601 448c-1 3-1 3 3 1 3-2 3-2 1-3-3-1-3-1-4 2z"/>
  <path d="M185 459c-1 2 0 3 1 4 2 2 2 4 2 15l1 12 4-4 3-4-2-9-3-10c0-2-4-7-5-7l-1 3z"/>
  <path d="M252 458c0 2 8 9 9 9v-3l-1-5c0-3 0-3-1-2h-4c-3-1-3-1-3 1z"/>
  <path d="M281 469c-2 2-2 2 1 4s5 0 3-3c-1-3-2-4-5-1z"/>
  <path d="M23 492c0 3-1 4-8 6l-6-1c-1-1-2-2-3-1s-1 2 1 7c3 5 3 6 3 13s0 8 2 11c3 3 4 4 7 1 2-2 2-2 1-5l-4-3c-3-1-2-8 2-9h2l-2-3c-2-3-2-3 0-5s3-1 7 3l5 4c2 0 2 0 1-3-2-4-2-4 1-5h5c3 1 3 1 3-3v-4h-4c-5 1-8 0-8-4 0-2-1-2-2-2-3 0-3 1-3 3z"/>
  <path d="M515 518l-3 6 10-8c0-2-2-4-3-4l-4 6z"/>
  <path d="M502 531c-3 3-4 4-6 4l-7 3-4 3 2 5 1 5 3-2 8-2h6v-7c0-5 0-7 2-10 3-2 3-3 1-3-3-1-4-1-7 4z"/>
  <path d="M130 532c0 2 0 2-2 2-3-1-3-1-3 3l4 10 3 5-2 5c-3 7-2 6-5 5-2-1-2-1-4 1-1 2-3 3-4 2-3 0-4 3-3 6 1 2 1 2-3 2s-5 0-5 2c-1 2-2 2-9 3l-7 4-3 2 3-5 3-7 4-2 6-5c1-3 4-5 6-6 4-1 4-1 3-3-2-2-2-2 0-2 1-1 2 0 3 1s1 1 3-2c1-4 1-4-1-7-2-2-3-2-4-1l-2 1c-3-4-4-6-3-8 1-3-3-4-5-1l-3 2-2-2c-3-2-3-2-6-1h-3l-6-1-5 1 3 8 3-2c1-1 3-2 4-1 2 0 3 4 1 4v3c0 3 0 3-2 3-4 0-6 2-4 7 3 4 2 5 0 2-3-2-8-4-10-3-2 0-2 0-1-4 0-4 0-4-2-3l-5 1c-4 0-4 1-4 3 0 4-3 5-7 4-3 0-5 2-2 6 1 3 2 3 5 3h8c3-1 7-1 7 1 0 3-2 3-4 2-1-2-2-2-4 0-3 1-3 2-3 6s0 5 2 5 2 0 1 3l-2 5c0 2 4 5 5 4l1 4c-1 4 0 5 1 6 2 2 3 2 3 0h8v3c-1 1 0 2 3 5 3 2 3 3 2 5-1 3-1 3 3 4l9 6c4 4 4 5 6 3l4-3c2-1 3-2 3-4l5-4 6-2c1 1 3 0 5-1l3-2-3-2-4-3c-2-3 1-4 3-2 4 4 7 2 7-5l3-3 2-3c0-2 0-2-3-2-4 1-7 0-7-2l5-3 6-2-4-1c-4-1-5-3-2-4 2 0 2-1 1-5l1-6c1-2 1-2-1-2-2-1-2-1 1-4s3-4 2-7c0-2 0-4 2-6l2-5 1-4v-12h-8c-4-1-4-1-3 2z"/>
  <path d="M480 534c-3 2-5 4-5 8 0 2 0 2 3 0 4-1 7-6 7-8s-1-2-5 0z"/>
  <path d="M53 539l-1 3 4 1c4 1 4 1 4-2l-2-4c-3-3-4-3-5 2z"/>
  <path d="M68 538l2 4c2 2 2 2 2 0 1-1-2-7-4-7v3z"/>
  <path d="M64 544c-1 3-1 5 1 5 3 0 4-3 2-6l-2-2-1 2z"/>
  <path d="M31 545c-1 1-2 2-1 3 0 2 0 2-3 1-4-1-4-1-3 5 2 7 1 6-6-1l-6-7 2 5c1 5 1 5-1 4-3-1-10 2-12 4-1 2-1 2 2 4l6 3 3 4 4 4c3 2 4 2 6 0l6-4c4-3 5-6 3-7l-2-3c0-3 4-4 8-2h6v-4l-3-1c-2 1-2 1-2-1s-3-8-5-8l-2 1z"/>
  <path d="M43 567c-1 2-2 2-4 1-3-2-5-1-7 1l-5 4-3 2 3 2 4 3c1 3 1 2 4-2l3-5 4 2h4l4-3c2-1 2-1 0-4-1-2-1-3-2-2h-1c-1-1-2 0-4 1z"/>
  <path d="M488 572c-1 2 0 5 2 7 2 1 2 0 5-3l3-5-5-1c-3 0-4 1-5 2z"/>
  <path d="M44 580c0 2-1 3-2 3v2l-2 5-3 4c0 1 5 2 6 1h2c0 2 5 1 8-1s4-5 2-5-4-5-3-7c1-3 1-4-3-4-3-1-3 0-5 2z"/>
  <path d="M472 585c-2 4-1 6 1 3 2-1 2-2 1-4s-1-2-2 1z"/>
  <path d="M477 598l2 4c3 3 4 3 4 1 1-1 0-2-2-4-3-2-4-2-4-1z"/>
  <path d="M462 610c-3 5-4 6-1 8 1 1 1 2-1 3-3 3-2 4 2 4l4 4 2 3 3-3 3-6c1-3 1-3-4-5l-4-2 2-3c2-2 2-2 1-5-2-4-3-3-7 2z"/>
  <path d="M812 613l-2 1 4 2 1-4-3 1z"/>
  <path d="M133 623c-1 2-3 3-5 3l-2 2c0 2-1 2-3 2l-7 2-3 2h3c5 0 7 1 7 3l3 3h4c1-1 1-1 3 1 3 3 7 3 10-1l2-2h-2c-2 0-2 0-1-2 1-3-2-13-4-15s-3-1-5 2z"/>
  <path d="M806 623c-1 2-1 2 2 3l6 2c4 0 11 4 12 6 0 2 0 2-3 3-1 1-2 1-3-1l-3-3-5-2c-4-2-4-2-5 3-1 2-2 3-5 4s-5 2-5 4l-4 3c-4 1-4 3 1 6 4 2 4 3 4 5-1 4 2 9 5 9 1 0 4 2 6 5l5 4c1 0 2-1 2-3l2-2v4l-1 6 2 3 3 2 3-2 3-2-2-2c-3-3-3-3-2-9s1-6-1-11l-5-5c-3-2-4-4-1-4s3 0 2-3c0-5 0-5 6-2 4 2 4 2 6 0 2-3 1-7-4-12-4-5-7-6-11-8-8-2-8-2-10-1z"/>
  <path d="M474 631c0 2 5 4 6 2v-2c0-3-6-3-6-1z"/>
  <path d="M838 637c1 2 2 3 1 4-1 2 1 3 4 3 1 0 3-1 3-3 2-2 2-3 0-4l-5-3h-4l1 3z"/>
  <path d="M468 645c0 3 5 5 6 3 1-1 0-2-1-3-3-3-5-3-5 0z"/>
  <path d="M420 649c-2 2-1 4 2 4 2 0 3-2 1-4s-2-2-3 0z"/>
  <path d="M476 649v4l2-1c0-1-1-4-2-3z"/>
  <path d="M635 670l2 1h2c-1-2-4-3-4-1z"/>
  <path d="M769 690c-1 3 0 7 2 8 1 0 2 1 2 3s1 3 2 3c2 0 1-6-2-11-2-5-4-6-4-3z"/>
  <path d="M421 695v3c3 3 6 1 4-3-2-2-2-2-4 0z"/>
  <path d="M740 695l4 5 3-5-3-1-4 1z"/>
  <path d="M164 699c-2 1-1 2 1 2l2-1c-1-2-2-2-3-1z"/>
  <path d="M660 699l-1 3c0 3 5 3 6-1l1-3-6 1z"/>
  <path d="M438 706c-3 6-3 7-2 8l2 3c0 2 2 3 8 3 3 0 3 0 6 5l3 5-3 5c-2 5-2 5-1 8 2 2 2 3 1 5s-2 3-4 1c-1-2-2 2-2 7 0 3 4 12 6 14 2 1 2 2 3-10l3-3 11-8 1-4 2-4c2-2 1-4-2-6-2-3-2-3-1-8v-9l-1-5h-11c-12 0-12 0-12-8 0-5 0-6-2-6-1 0-3 2-5 7z"/>
  <path d="M707 707c-3 7-4 8-4 15l1 8-4 1-7 2c-2 0-4 1-6 4-3 4-4 4-7 4l-9-2h-5l-2 4-2 4h5l9-1 8-1 6-2c5-1 19-10 21-13 1-3 1-4-1-9l-2-5 3-4c2-3 3-4 2-8l-1-4-5 7z"/>
  <path d="M122 712c-3 2-3 2-1 4 3 2 7 1 6-3 0-4-1-4-5-1z"/>
  <path d="M170 725c-1 3-1 3 2 2l3-1-2-1c-3-2-3-2-3 0z"/>
  <path d="M254 733v3l5-2 4-3-5-1-4-1v4z"/>
  <path d="M245 739c-4 2-5 3-4 4h2l4-1c2 0 3 0 3-2 2-5 1-5-5-1z"/>
  <path d="M465 776c-1 1-11 2-13 1s-7 3-7 6l1 4v3c-1 3-2 3-5 3-4 0-5 1-7 3-3 4-3 5-1 7h3l2-1v2l4 3 5 2 4-4 4-4-2-2c-2-2-2-3-1-6l4-4 4-5c1-2 2-3 4-3 3 0 3 0 3-3s-1-4-2-3z"/>
  <path d="M473 799c-1 1-13 6-16 6-1 0-2 1-2 3l-1 4c-1 2 0 3 3 4 4 2 4 2 8 0 3-1 4-2 5-4 0-2 1-4 4-5l5-3-4-7-2 2z"/>
  <path d="M631 831l-7 3-4 2 4 3 4 2 8-4 12-5c3 0 3 0 2-1-4-2-17-1-19 0z"/>
  <path d="M689 838c-1 2-1 3 1 3s4-2 4-3h-5z"/>
</svg>
