<svg xmlns="http://www.w3.org/2000/svg" viewBox="0 0 1024 1024">
  <path d="M692 4l-6 5c-3 2-3 2-3 6 0 5 4 9 12 12l8 5v12l-2 10 5 15 5 16-10-15c-4-7-5-10-6-16 0-10-2-15-6-16l-5-1c-3 0-8 7-10 14-1 3 0 4 3 10l3 10 3 12c3 8 3 9 3 26s0 18 2 23c3 5 3 7 2 11l-3 9c-3 4-3 5-1 11v9l-2-6-1-5-7 1-8 1 1 4 2 11c0 7 0 8 3 12l9 15 10 15 8 11c3 6 7 9 9 8l1-8c0-6 0-7-5-14-4-6-5-7-4-10l-1-7-2-7-2-7c-2-2-2-2-1-4 1-1 2-1 4 2 5 6 7 10 7 14 2 6 6 14 11 17l5 7c3 5 6 6 17 6h8l2-4c4-4 4-5 0-9-2-4-2-4-1-14v-12l-9-5c-6-2-8-4-14-10a51 51 0 01-13-25l3 1 7 7c2 4 7 9 10 11l6 5 9-2 9-2 2-4 2-11c0-6 0-7-2-10l-5-2c-2 0-3-1-5-4s-3-4-9-6-7-2-14-12l-8-9 9 3c13 6 29 11 32 11 2 0 2-1 1-7-1-4-1-5 5-13l6-8-8-9c-10-11-13-13-13-12l-2 6c-1 6-5 14-7 14s-3-3-2-13c0-12-1-18-6-20-2 0-4-3-7-9-5-7-5-8-5-16 0-9 0-9-5-20-5-9-6-11-11-14l-8-4c-2 0-3 0-5 4z"/>
  <path d="M582 29c0 8 7 36 14 55 6 16 17 36 25 44l5 6v15l-1 15 11 8 12 9 3-5c2-4 3-6 3-13v-8l-5-4c-5-4-8-8-12-23-2-9-4-15-16-37l-13-26-2-12-1-12-4-2-8-9c-4-6-4-7-8-7h-3v6z"/>
  <path d="M637 36c-3 4-3 5-2 10l-1 13v10l2 11c0 7 1 9 6 17l8 19 9 21c6 9 7 10 11 12s5 3 9 1l5-1 1-7c1-6 1-7-2-12l-5-17c-2-10-3-13-13-31l-11-21V50c0-12 0-12-9-16l-5-2-3 4z"/>
  <path d="M805 48c-2 4-3 13-2 17l4 12c3 6 3 7 5 7l9-1h6l1-5c2-4 2-4 7-4l4-1-2-4c-2-3-2-5-1-5 1-1 1-3-1-6-1-4-2-5-4-5l-6 2c-4 3-6 3-6-2-1-5-4-7-9-8-4 0-4 0-5 3z"/>
  <path d="M503 61l-7 2c-4 0-4 0-5 5-1 3-2 5-6 9-5 4-7 5-13 7l-8 1-4-3-6-4c-1-1-2 0-4 5l-3 6 2 6 2 5 5 2 5 1v4c0 4 1 6 3 10 3 5 4 7 4 11s1 5 5 11c4 5 4 5 4 13l1 9 5 7 11 17c3 2 4 5 6 15l3 13 5 2c4 2 5 3 7 7l8 10c4 4 5 5 5 8 0 2 0 3-1 1 0-3-12-13-25-21-9-6-12-8-12-10l2-2c3 0 5-1 6-4 1-2 0-4-8-16-13-18-20-33-24-48-2-10-4-14-9-23-4-8-7-11-11-14l-4-3-4 3-4 3-1-4c-1-2-2-4-6-7-6-5-10-5-13 1-2 4-2 4-3 2-1-3-9-3-11 0l-2 2-4 4c-2 4-2 4 0 5l1 6-1 7-1 6v12c0 8 1 12 4 14 3 1 3 1 1 3l-4 15-6 20c-3 6-3 6-1 9 1 2 1 2-1 5l-2 8-2 6c-1 1 0 3 2 5l8 10c7 10 15 17 22 20 3 0 5 2 5 2l3 10c2 8 2 8 10 14l7 6h10l13 1 10 1h7l6 7c5 5 8 9 8 12l4 9c2 4 2 5 2 21v17l2 1c2 1 3 2 4 6 2 5 4 7 11 5 13-3 12-3 16 5 3 5 3 8 4 18l1 12 10 7c9 7 15 13 35 37 7 8 12 13 14 13l5 6c4 4 4 5 9 5l6 1c1 1 3 0 6-2l3-4-2-9c-1-8-2-11-1-17 2-11 2-10-6-16-5-4-7-6-8-9l-3-6-2-2 2-5 6-8c3-1 4-2 2-8-2-4-2-4 1-5h2l-2-2-4-11-2-9-5-1-6-3c-2-1-2-1-11 1l-10 2-9-4c-6-3-9-5-11-4l-5-2-2-3h4c4-1 6-1 11 2l8 3 10-7 9-8-9-18c-8-19-8-19-12-20-3-1-7-2-9-4-7-4-9-3-15 3-4 4-5 4-11 4l-6-1c0-1 1-2 4-2 3-1 5-2 8-6 2-3 4-4 6-4l8-3c4-2 4-3 4-6l-3-9-6-9c-1-3-2-5-4-6l-8-5-5-3 3-1c6-2 7-2 15 2 6 3 7 4 11 12 7 14 14 23 22 30 4 4 8 8 10 12l8 10 5 3v-8l4-12c4-5 4-5 1-20-2-10-3-13-8-24-6-12-8-14-18-24-9-10-12-14-12-19l2-2c1 0 4 3 7 8 4 6 8 10 12 13 7 5 7 6 16 21 7 14 8 17 8 22l3 14 2 10-3 1c-3 0-3 1-5 5-1 4 0 5 1 6l1 5c0 4 1 8 8 22l9 17h4l5-1v-10l1-14c2-4 2-6 0-12-2-12-2-12 2-9 5 3 12 2 18-3l5-4c1 0-8-13-11-15l-3-5c0-3-1-4-9-7l-8-5c0-2 0-2 11-2 11 1 12 1 22 6 14 6 14 6 14 3 1-2 0-3-8-7-7-3-12-7-17-12-6-6-9-7-14-9s-8-3-12-7c-3-4-6-6-8-6-5-1-12-9-12-13l1-5 1-3v-3l11 4 24 9 14 6 1-2c2-2 2-4 2-7l-2-9v-6l-17-7c-17-6-17-7-23-13-6-7-8-7-15-3-9 5-10 5-15-1-5-4-10-11-10-13l3 2c4 4 6 4 13-1 4-3 5-4 6-8v-7c-1-5-7-11-16-16l-8-4-8 3-10 4v-2l2-8c1-6 1-6 5-7 7-2 7-4 0-10l-5-3-5 2-12 2c-5 0-6 0-8 3-2 2-3 3-8 3l-7 2-2 8c-2 7-5 14-6 13l2-10 1-9-2-7-3-7 7-7 14-10c4-1 7-3 7-4l-9-7-16-13c-6-6-6-6-11-6l-8 2z"/>
  <path d="M797 99l-6 8-4 8c-2 3-3 3-8 3-6 0-6 0-9 4-5 6-5 10 0 16l4 5c2 0 4 6 4 14 1 7 1 9 3 11l3 2 7-3 9-3 7-1 3-1v-9c0-7 0-10 2-11 2-4 1-6-5-11l-5-4v-6h10l12 2c2 1 2 1 2-8s-1-10-8-11c-4-1-10-4-10-7l-4-1c-3 0-4 1-7 3z"/>
  <path d="M368 252l-19 8c-6 0-7 1-7 9 0 5-2 9-3 9l-10-4c-7-2-9-3-10-5-1-1-2-2-5-2s-6-1-10-4c-5-3-6-4-10-3l-4 1-1 5v9c0 4 1 4 5 6s4 2 4 7 2 9 9 16c3 3 5 5 7 5l3 1c1 3 9 6 16 8l13 3 6 2 1 6 1 6-5-3c-4-3-5-3-9-2-5 1-5 1-8-1-4-5-7-5-13 0l-5 4 2 4c0 2 1 3 3 3 2 1 3 2 3 4 1 4 12 10 21 11h9c2-1 2 0 5 3 4 4 4 4 7 3 5-1 5-1 8 4l5 4 2 1c0 1 3 5 8 9 6 7 7 7 9 6l9-2 11-3 7-2c6 0 11-5 11-10 0-3-2-5-10-7s-9-5-2-5c5 0 5 0 5-3 0-2 0-2 1 0 2 3 3 3 13 3 9 0 11 0 14 3 4 3 5 3 8-1 2-3 3-5 3-11 0-7 1-8 4-13l4-6c0-2-8-17-11-20s-4-3-14-4l-10-1-9-13-9-12-13-6c-16-9-17-9-18-16 0-6 0-6 3-7h2l-2-2c-4-4-10-3-25 5z"/>
  <path d="M219 289l-5 3-2 2-6 2c-1 2-6 4-9 6-4 1-8 4-9 6l-3 3 5-1 8-2c2-3 8-3 12 0s5 3 17 3l17 1 10 3 6-1-1-5c0-3 0-3-2-3s-5-2-9-7l-10-8-14-4-5 2z"/>
  <path d="M641 387l3 9c2 7 3 11 3 17 0 13 1 18 4 19 3 2 10 14 12 21 1 4 6 9 8 9s5-5 6-9 1-5-4-12-5-7-5-14c0-5 0-6-2-7-1 0-2-1-2-3s-1-4-5-7-5-5-7-11c-2-7-2-8-6-10l-5-2z"/>
  <path d="M496 404v6c1 6 1 6 10 13l11 9 3 2-3-7-2-10-6-8c-6-6-9-7-13-5z"/>
  <path d="M531 444l2 4c0 2 2 4 3 5l5 5 6 8 6 7c1 3 6 6 9 5s3-2 0-7l-2-7c0-4-5-12-11-17s-6-5-12-5c-5 0-6 0-6 2z"/>
  <path d="M522 495c-2 3 0 8 5 14l7 9c2 4 2 5 1 8-1 5 0 12 4 19l2 8c0 3 1 4 3 7l3 3h-3l-3 1 8 15 4 7c0 2 5 6 6 6l1-3c0-5 5-9 11-11 7-2 7-2 7 0s2 4 5 7l5 4v-8l1-8 4 3 8 4 6 8c2 5 2 7 2 15v10l4 7 7 10 7 10 7 11 7 7 5 3 7-6c6-7 6-7 6-11l-5-10-4-6 4-3 3-3v-9c0-8 0-9-3-11l-3-3 8-5c8-5 8-5 8-10l1-5-6 1c-5 1-6 0-6-4l-5-9-9-13c-4-6-5-7-9-8l-8-2-6-4c-1-3-2-3-5-3-5 0-15-7-19-13-6-9-15-14-26-14-4 0-5-1-10-5-6-6-6-6-14-7-8 0-17-2-21-4l-2 1z"/>
  <path d="M564 627l-1 11v8l9 10 9 10c1 1 13-1 13-2l-9-32c-2-5-2-5-5-6l-14-2c-1-1-2 0-2 3z"/>
  <path d="M605 717v9l7 2 7 2-1-4-4-9c-1-4-2-5-5-7l-4-1v8z"/>
  <path d="M520 762l-11 2 1 7c0 6 0 6-2 6-4 0-5 2-7 7-2 7-2 12 2 14 2 1 2 2 2 5s0 4-2 5c-4 1-4 2 0 6 3 3 5 4 8 4l4 1-2 4c-4 6-4 9 0 14 1 3 3 5 6 6s5 3 8 9l7 13 7 10 6 7c2 4 1 14-1 18l-1 11c0 7 0 7 3 8 5 2 7 6 7 10 0 3 1 4 2 5v4c-1 2-1 3 2 4l5 6c2 4 3 5 5 5l4 3c1 2 3 4 6 5s9 7 14 12l9 9 2 8c1 8 2 9 6 13l5 5c3 0 14 7 19 11s6 5 7 4h5c3 1 4 0 5-6 1-8-2-19-6-24-5-5-7-10-7-19v-7h-3c-9 2-10 2-10 1l2-8c2-6 2-6 0-8s-9-1-16 2c-4 2-6 3-7 7l-3 4v-4c0-4-1-6-3-9-5-5-8-10-8-11l10 2 9 1 5-4c4-4 5-5 8-5 4 0 5-1 8-4l3-4c0-2-2-4-5-4h-6c-4 0-4 0-6-4l-3-7c-1-2-1-2 6-2l7-1-2-5-1-6c1-2 1-4-3-9-4-6-5-7-15-11a87 87 0 01-30-24c-1-2-1-2 6 1s8 4 12 10c5 6 7 7 11 4l7-1c5 0 5 0 8-6l2-5-4-4c-4-3-4-4-4-9l-2-6c-3-3-15-6-23-6l-8-1c-3-2-7-8-7-10l-4-7-5-5h-10c-10 0-18 1-24 4h-6c0-1 2-3 5-3l6-5c4-5 9-11 14-14l6-4-1-2-9-1c-8 1-8 1-8-1l4-5 6-6 2-3-7-5-9-5-13 3z"/>
  <path d="M627 774l-1 5-1 5h6c7 0 7 0 7-3s-5-8-8-8l-3 1z"/>
</svg>
