<svg xmlns="http://www.w3.org/2000/svg" viewBox="0 0 1024 1024">
  <path d="M481 26c-20 4-28 7-36 13l-6 3v6l-1 9c-3 5-2 8 0 14 2 4 2 5 1 5-1 1-4 9-4 13l1 3v4c-3 4-2 5 2 8 8 6 12 15 7 15l-3-1-6-3-4-3-6 7c-7 6-20 18-24 20l-6 1-9 1c-2 1-5 2-6 1-6-1-12 1-19 6l-11 6-8 4c-4 3-9 14-9 20v4l9 2c9 2 13 3 12 4l-10 3c-7 1-13 3-20 7l-14 5-11-4c-10-5-17-6-28-6l-12-2c-4-2-8-1-8 2 0 4-1 5-7 4-4 0-5-1-5-3l2-5c1-3 1-3-2-10l-4-8 3-5c3-2 3-3 3-5-1-4-6-5-13-2l-9 2c-4 0-16-4-19-6-2-1-2-1-2 1l3 15 1 14 8 7c8 9 9 11 7 16v9c0 4 1 5 2 5 3 0 3 2 0 17-3 13-2 15 6 20 6 4 7 7 2 8-8 1-10 2-11 4s-1 2-3 1l-9-3c-9-2-12-3-12-7v-4l-4 3-3 3 1 5c2 5 2 8-1 11-1 2-5 3-5 1l1-4c1-3 1-4-1-7l-3-4-3 2c-3 4-5 4-8 1l-3-3-1-2c0-3-1-3-2-2l-4 1c-2 0-3 0-5 2l-8 6-5 4-2 1-7-10c-11-21-12-22-17-21-3 0-3 0-3-4 1-3 1-3-1-2-2 2-4 2-6 0-1-1-1-1-6 2l-7 3c-2-1-3-1-4 3-2 7-10 11-13 6l-5-3c-2 0-3 0-5 3-2 4-3 5-7 3-2-1-3-2-4-5 0-3-1-3-2-2l-17 5c-3 1-4 1-4-1l-2-1-5 2-7 2-12 4c-1 0-2 1-2 5l-1 9c0 4 0 4 3 4l15-2c10-2 11-3 11-1l-2 3c-2 1-2 1 1 3 2 1 3 1 3 3-1 1 0 2 1 2 3 0 5 1 6 4v5c-2 2-3 1-7-2-4-2-14-5-18-5-2 0-2 1-2 3 0 3 0 3 2 1h7c7 3 9 5 10 10 0 5-1 6-14 7l-14 2c-3 1-1 2 5 2 5 0 5 0 7 4l6 11c2 6 2 6 1 7-2 2-2 2 0 2l6 1h5v-7l2-4c0-3 2-5 5-5l2 2-1 2c-2 2-1 4 2 5 2 2 3 2 4 0 3-3 3-3 7 3 2 4 4 5 7 6 7 2 16 6 19 9l3 3v-7l4 2c3 1 4 2 5 4 0 5 0 5 3 5 2 0 3-1 3-4 0-4 3-4 6-1 4 4 4 6-1 9-3 1-3 4 0 4l4 1c1 2 5 1 6-2l1-3c2-1 2-1 3 2 2 2 2 2 9 2 6 0 6 1 7 3 1 3 1 3-1 5l-3 3h8l11 1c3 2 4 5 1 6v2c1 2 1 3-3 8l-1 6 1 4 6 2 7 2 3-4c4-4 6-5 13-5 6 1 8 2 13 7 4 4 10 6 20 7 4 1 5 1 4 3-2 4-5 4-12 2l-15-6c-5-4-8-5-11-6-6 0-8 1-8 5v6c-1 1 0 2 3 3s13 10 13 12l-2 1c-3 1-13 14-13 17l4 7 7 9 6 12c1 5 3 7 6 11 5 4 11 7 16 8l7 3c4 3 8 4 8 2 0-3 3-2 5 2 1 2 2 3 3 2 4-1 6-1 8 2 3 4 2 6-4 10-4 2-4 2-3 4 3 3 10 18 10 20s-1 3-2 3c-2 0-2 0-1 3 2 4 1 7-2 7-3 1-2 3 2 9 3 6 1 7-5 3-5-3-6-2-5 1 1 2 2 4 5 5 6 3 23 21 26 28l3 14c1 13 2 17 9 24l5 8c0 2-1 3-3 2-1-1-2 0-3 3l-3 4-1-4-4-8c-4-4-7-13-8-24-1-6-1-8-6-15-10-14-12-16-13-16-2 0-4 5-5 13l-6 33a187 187 0 00-6 38l-1 6 2-5c2-6 4-8 7-8 2 0 12 10 12 12 0 5-4 7-11 5h-4c-3 1-6 10-8 25a730 730 0 01-15 71c-1 13-16 31-25 31v4c1 3 2 3 5 3l5 2 3 3v-3c0-3 4-3 10 1 4 3 5 4 5 7l-3 10-3 7 3 1c2 0 3-1 4-3 3-6 8-6 8 0 0 5 3 8 8 11 8 3 19 6 24 6h6l2 4 4 9 3 4h31l4 6c5 6 5 6 8 5l13-2h10l1 3 1 3 2-2c1-3 3-4 6-2 1 2 4 2 8 2l6-1v-4l1-7c2-5 4-5 10-2 2 1 7 3 12 3l12 5c3 3 3 3 10 2 9 0 13 1 13 6l2 5c1 2 2 2 4 1h11c10 1 11 2 11 8 0 2 1 3 3 4 2 0 4 2 5 6 8 12 9 13 21 8l7-3 10 4c9 4 9 4 14 2l16-7 12-5 8 3 7 4-1-3-2-4-4-5-3-3v-12c0-8 0-13 2-18v-10c-1-2-1-3 1-6l1-5c-2-4 0-8 2-6 2 1 2 0 3-2 3-5 11-13 16-16 4-2 7-2 11-1 1 1 3 0 6-3l31-26 9-2c3 0 3 1 4 5 2 5 4 6 18 7 12 1 16 3 17 7 0 3 2 4 11 4h7v-3c0-5 6-9 9-6l3 2c2 0 2 0 1-3-2-2-2-8-1-10 1-1 2-1 7 2l9 3c5 0 5 7 1 10l-8 3c-6 0-6 1-5 2 2 2 2 2 9 1 10-3 12-3 15 0 2 2 2 4 2 7v5h4l7 2h3c2-3 4-2 8 2l7 4 4 4c2 4 4 4 7 1 2-2 7-2 10 0 4 2 5 1 5-1 1-2 1-3 8-2 6 0 7-1 8-3 0-1 2-2 10-4l11-3 2-4c0-3 0-3-2-3l-3-2v-2l4-6c2-5 4-6 9-7 6-1 9-4 11-10 1-5 2-6 11-7 2-1 3-2 5-6 4-6 7-9 11-9 3 0 3 0 3-3 0-7 3-8 11-5 2 0 2 0 2-8 0-9 0-9 3-12l4-3c2-1 3-14 2-15-2-1-7-1-15 1h-11c-6 0-20-7-26-13-7-6-9-10-9-22l-1-10 6-9c6-9 6-9 5-12-2-4-7-8-11-8-3 0-4-1-8-5-6-7-13-17-13-19 0-3 5-8 9-8l16-5 14-6v-7c1-7 2-7-9-13-5-4-6-5-7-8l-2-8c-1-3-2-5-4-6l-6-4c-3-3-3-4-3-6 1-5 3-7 10-11s8-5 3-12c-2-3-3-4-6-5-2-1-5-2-6-4-2-2-2-3-2-13 0-7-1-11-2-13v-10h-5c-7 0-24 5-25 7s1 8 3 10c2 3 1 6-3 10-6 4-11 7-16 7l-6 1c-3 4-5 1-5-5 0-3 1-5 6-9l6-8-2-6c-2-5-2-5-1-10 2-3 2-5 1-7-1-3-1-3 3-7l16-15c3-4 3-5 3-12l1-10c1-2 4-3 9-4l3-3 5-7c7-7 14-16 15-19l2-5c2-2 2-2 0-2-4 0-5-4-2-12 2-4 3-5 6-6l8-2 4-2c2 0 4 3 4 6 0 5 5 4 13-3 7-7 7-8 4-17l-3-7 3-13c3-13 3-14 1-19-3-8 0-19 6-28 2-3 2-5 2-11l1-9 2-8c1-5 3-9 7-16 7-8 8-10 12-11 3-1 3-2 2-4 0-2 0-4 2-6l2-2-2-1c-16-10-20-12-34-14-9-1-13-1-15-3-4-3-4-3-10 1-4 2-5 2-8 1h-6c-3 1-5 0-6-3s-9-3-9 0c-1 3-6 3-10-1-4-2-11-12-18-24-3-5-3-5-9-5-5-1-8 0-13 2l-7 3-8-5-9-5-8 2c-13 4-14 4-16-3-1-3-2-4-4-3-3 0-3 0-4-6-1-4-2-4-7-7-22-10-26-12-25-17 1-2 0-3-2-6-3-4-4-5-1-13 2-8 2-8 0-7l-3 4c-1 6-3 9-11 15-9 6-12 6-21 3-9-2-13-8-7-12l3-2-2-3c-2-3-2-4-2-11s0-8-2-10c-3-3-8-4-14-4-4 0-5 0-8 3s-3 3-6 2-4-5-5-13c-1-9-4-11-12-11s-11-2-13-8l-5-11-4-8-5 1c-4 0-4 0-4 3l-1 4c-2 2-2 2-10-4-10-7-12-10-14-22-1-9-2-11-3-11l-17 4zm-26 887c2 4 0 7-4 7-3 0-3 0-3-4 0-6 5-9 7-3z"/>
  <path d="M1005 834l-1 6-1 7c-1 3-1 6 1 7 1 2 1 6-2 10-1 3-4 4-8 1h-7c-4 1-5 2-5 4 0 4-4 6-12 8-4 1-5 2-6 5-2 3-2 3-4 3-2-1-3 0-4 1-2 2-2 3-1 9 0 4 0 4-2 3-3 0-3 0-3 3 1 2 2 5 4 6l3 3-4 4c-5 3-5 3-4 7l1 5c-1 1 0 1 1 1l9 5 2 4c1 2 1 3-1 4l-2 3-1 4c-1 2-1 2 2 2 6-2 10-2 11 0 1 1 0 5-7 18h3c3 0 13 4 13 7l-5 5c-3 2-4 4-4 5 1 1 6 4 13 6l12 7 2 3 2 2c2 0 2-1 2-3 0-4 2-10 4-12l1-2c-3 0-3-2-3-6 1-4 1-4 4-4 3 1 3 0 4-4l2-17 1-13 4-9 5-11-2-11c-2-5-3-15-4-21-1-11-1-12-4-17l-4-5-1-17c0-15 0-16-2-16h-2z"/>
</svg>
