<svg xmlns="http://www.w3.org/2000/svg" viewBox="0 0 1024 1024">
  <path d="M510 1l-13 2h-16c-13-1-15-1-14 5a721 721 0 00-2 108l1 101h-24l-128-1-104-1-4-3c-6-5-8-5-14-5l-8 3c-5 4-12 7-15 7s-3 0-2 2l3 4c2 1 3 2 3 10l2 9c4 1 4 3 5 15l2 22c1 10 1 11-2 16l-2 7-1 2c-2 0-3-5-2-11v-8h-3c-2 2-2 2-3 0l-3-2-6-1c-3 0-3 0-2-1l8-1h5v-5c0-5 0-5-3-5-5-1-9 0-12 2s-4 2-7 2c-4-1-5-1-7 1-1 2-4 3-7 3-6 1-7 1-7 12 0 5 0 6 2 6l4-2c2-1 2-1 6 4l16 27 4 6c2 2 8 1 10-1 1-1 1-1 4 3 3 5 14 11 18 11 2 0 5 1 8 4l5 3h22l-5 2-7 6-2 1-5-1c-4 0-4 0-4 2 0 1 1 5 3 7l3 7c0 2-3-1-5-6-3-6-6-9-10-9l-7-2h-10c-4 2-5 2-5-1 0-4-6-6-12-5-2 1-2 1-1 7 0 5 0 5-2 5-1 0-2-1-3-6 0-4-1-5-4-8-5-4-9-4-12-1l-2 1 2-3c2-1 2-2 2-11-1-10-2-14-6-14-3 0-7 6-7 9l2 16 4 20 1 11-1 14c0 8-1 15-5 22-2 4-2 5-2 15l1 10-5 7-11 14-7 9-5 5c-5 4-7 8-7 15 0 2-1 4-3 5l-3 6c1 1 0 3-2 6-3 3-3 4-3 9 0 6-1 9-2 9l-1-6c0-6 0-7-2-9-4-2-7-8-7-10s-1-3-3-5c-3-2-6-1-5 2 0 3-2 4-5 4-2 0-2 1-3 6l-1 5-1-1-3-4c-2-1-3-3-4-9-1-9-4-15-6-15l-2-1-3-1-2-4-1-2-1 6c0 5 0 7 4 13l6 12c0 3 2 7 5 11l5 10c1 3 2 6 4 7 2 2 3 3 3 8 1 5 1 6 15 25 3 3 3 5 4 14 1 7 2 10 4 13l2 5c0 2 2 4 5 8 3 2 7 7 9 11l11 16c7 10 8 11 10 20l2 15c0 8 2 16 4 15h3c2 0 2 0 3 2 0 3 6 6 6 3 0-2 5-7 7-7l4 5c3 4 3 4 4 2l4-2c2 0 3 1 6 6s4 6 3 9c-1 2-1 3 3 7s5 6 5 8c-1 4-3 4-6-1-3-4-4-5-6-5-3 0-3 0-3-3 2-10 2-9-2-11l-6-1-5-2-3-1c0 3-5 2-11-1l-5-3 2 3 4 4 8 10 10 12 15 16 10 12v7c1 9 4 16 10 21 3 3 4 4 3 2l6 6 17 16 14 14a1468 1468 0 0155 47 378 378 0 0162 59c3 2 5 3 7 7l3 6-2 7v6l5 3a172 172 0 0153 48 119 119 0 0022 30l9-16c6-12 10-19 15-25l7-9h7c9 0 14-3 15-12l1-4h6c11 2 10 1 20 16l10 14c3 2 18 5 24 5 4 0 7 0 11-2 9-4 9-6 1-11-10-8-11-12-1-33 3-8 7-15 8-15l2-4c0-2-1-3-8-5s-9-3-14-7c-3-3-7-6-12-8-7-3-8-4-9-7s-1-4 1-6l1-3 4 2h4l4-5 3-5 2-4c2-2 2-2-12-20l-14-19-3 4-5 5c-3 1-3 1-5-1-3-5-1-12 4-15 4-2 11-15 12-22 0-5 0-6-4-12s-4-6-3-11l-1-12c-3-9-3-11 0-11 6 0 12 2 14 6l4 3c1 1 3 2 3 4l2 3 6-6c4-4 6-5 9-5 5 0 15-2 16-4 3-3 6-1 13 5l6 6 34-8 36-9c3-3 5-10 5-17 0-5 0-7 2-10 3-5 3-8-1-9-4-2-6-8-7-18l-2-10-1-5c1-3 1-3 3-1l4 3c3 1 3 1 4-1l2-6c0-2 1-3 6-7 7-5 9-5 12 0 2 5 4 6 8 3l3-2 1 3 1 5c1 2 3 3 10 2 4 0 9 3 9 5l3 4 2 3v5l2 6c0 2 1 3 3 5 2 1 3 2 2 4 0 1 0 3 2 4l1 4c-1 1 0 2 1 3l2 5c0 2 1 3 3 3 5 0 9 5 9 8s1 4 2 5l3 1-3 6-4 8c0 2 0 2 4-1l5-4 5 1 10 5c4 2 4 2 6 0 3-2 2-2 20 5 10 3 13 4 23 4l12 1 1-4 5-5c2 0 4-2 5-4 2-3 4-4 6-5 2 0 3-1 4-3l9-11c7-6 8-8 8-11s1-5 3-7l4-4 3 4c3 4 7 12 7 17l3 5 4 8c0 4 0 4 3 4s4 1 5 3v2c-1 0-4 2-6 5-4 5-4 5-4 9 1 4 2 4 6 7l5 2 2-2c3-2 10-4 10-2 0 3 2 3 6 1h6c2 2 7 1 8-1l2-4c2-1 3-4 3-6 1-5 3-6 12-9l8-2-4-4-3-4-3-2c-3-1-4-2-6-5l-2-5 6-3c5-3 6-3 5-7 0-4 0-4 2-5l4-8v-8l-1-7v-5h4l5-2 9-5c4-1 8-3 9-5 2-2 2-2 1-5s-2-4-1-5v-11l1-5 2-5h2l3-1c0-2-2-4-4-4-1 0-3-1-3-3l-5-6-2-3h3c3-1 4-2 5-4 0-4 1-5 6-5 3 0 5-2 2-4s-4-5-3-7l2-4c0-1 1-3 3-3l2-4c1-2 0-3-4-7-6-5-6-9-3-12l3-8c1-5 1-6-2-10l-2-8-2-7-2-5-2-4v-11c0-8 0-8 5-13 6-6 7-8 3-13-2-3-2-4-2-8 1-3 2-7 5-10l4-9 2-6c1-2 1-2-3-7-3-2-5-5-5-6l-4-4c-2-2-3-3-3-5l-4-3-8-4c-5-2-11-3-17-1-3 1-3 1-5-1h-5l-2 1-1-7c-1-8-5-19-8-19l-6-3c-4-3-4-3-7-2s-5 1-11-1c-9-3-11-3-13 0l-1 3-2-3c-3-4-3-17 0-21l2-5 2-4c2-2 3-3 3-6l-1-5c-1 0-1-3 1-6l-3-3h-3v-7c0-5 0-8-2-12-3-8-3-9 1-12l6-11c3-7 4-7 11-12 8-6 10-9 10-16 0-5 0-5 6-7 6-3 7-3 11-2l10 1c5 0 6 0 9-4l9-8c6-4 7-4 5-6-2-3-1-7 3-11l4-5c0-3 4-7 6-7l4-4c2-4 2-5 1-8l-1-7c0-5-1-8-7-15-3-3-4-6-4-8-1-4-1-4-6-6s-6-3-9-7c-5-7-5-11-5-22l1-10-3-3-4-3-7-3-5-3-9 1-9 1-4-3c-3-3-4-3-9-3l-10-2c-3-2-5-2-12-2h-8l-2 6-3 5-3-2c-3-1-3-1-5 1l-6 2-5 1-6 3c-3 1-5 2-7 5l-4 3-5 2-3 2-6-3c-5-1-8-2-9-1h-5l-4 2-3 2-5 3c-3 3-6 4-14 3h-5c-2 1-3 1-4-2-1-5 0-8 4-8 3 0 4-1 5-3l1-5 1-6c1-4-1-11-6-16-3-3-3-5-3-8s0-3-2-3-3-1-5-4c-1-3-2-5-1-6l2-21c0-3 1-4 2-4 3 0 5-13 3-21-2-4-2-4 2-7 2-3 3-5 3-8 0-2 1-3 5-6 7-5 8-8 9-22V16l-3-4c-3-4-3-4-6-2-2 1-2 1-5-1-4-4-11-4-18 0-4 3-5 3-13 3l-11-1c-3-1-4 0-6 1s-8 1-15-1c-4-1-4-1-9 1s-5 2-10 1l-12-2-10-2-8-1-8-3c-5-2-5-2-10-1l-6 2-5-3-5-3-9 3-12 4-5 1c-2 1-3 1-5-1s-4-2-28-1c-30 1-33 1-41-3l-8-3-11 1zM240 350c4 0 4 0 2 2h-11c-6-3-1-4 8-2z"/>
</svg>
