<svg xmlns="http://www.w3.org/2000/svg" viewBox="0 0 1024 1024">
  <path d="M519 3c0 2 3 4 5 4l2-2-2-2-3-1c-1-3-2-2-2 1z"/>
  <path d="M506 8c-1 1-2 4-2 11l-1 10 3-1c2 0 2-1 1-2-1-2-1-3 1-6l2-3 2 2v6c-2 4-1 7 2 8l8-2 5-3 1 3 8 7v-5l-1-3c1-2 0-2-1-1-3 2-4 1-4-2s0-3-4-2c-6 0-9-2-7-5l3-3c3-1 2-3-4-7s-9-5-12-2z"/>
  <path d="M499 36v3l5 6 4 5 4-5c0-3-2-6-4-9-3-3-8-3-9 0z"/>
  <path d="M526 49l2 5c1 1 1 1 1-2l1-4c0-2 0-2-2-2-1 0-2 1-2 3z"/>
  <path d="M500 68l1 1 1 4v3l-4-2-10-2c-5 0-6 0-10 3-3 3-5 3-10 3l-7-1c-2-2-3-2-3-1l-3 2-6 3c-4 2-5 3-6 2-3-3-7 0-11 7-2 3-2 0-1-5 2-4 2-4 0-6l-5-2c-2 0-3 0-3 2s-2 5-5 8c-4 4-6 5-6 4s1-4 3-5l2-5-5-5-2 4-2 3v-3c0-3-4-8-6-8l-2-1c-2 0-2 0-2 2l-4 8c-5 5-5 6-2 8l2 2-2 2c-2 2-2 2-1 3 3 2 2 3 0 3-4-1-5 1-4 7 0 3 2 6 3 8l1 1-8 1c-5 2-7 2-8 1-3-1-3 0-1 3 7 10 8 19 3 19l-5-2-3-2c-1 2 2 6 9 12 5 4 7 6 6 7l4 6 4 7-5-4c-5-5-6-6-10-6l-4-1 4 4 5 5c0 2-1 1-7-2l-5-4-1 3c-1 2-2 2-4 2-3 0-4-1-5-4l-2-3c-2 0-2 3-1 7 2 3 3 11 1 11s-5-4-5-6c0-5-1-6-4-5-3 0-3 0-3 6 0 5 0 6 4 8l4 4c0 2-1 2-3 1-1-1-2-1-3 1-3 3-3 4 2 10 3 3 4 4 7 4 2 0 6 2 6 4l-3 1c-3 0-4 1-4 2-1 1-2 1-4-1l-6-5-3-1-1 6 1 9 2 5 1 3c2 2 2 2 6 0l4-3 2 2 2 2 3-2c3-3 3-3 3-1s-2 4-8 7c-7 3-8 5-2 5 3 0 12 4 13 7l-4-1c-3-2-4-2-7-1-2 1-2 1-1 2 1 2 1 3-1 5l-2 4 6 3 6 3c0 2-3 2-6 1-6-2-8-2-11 0-2 3-2 5 1 6l5 4c3 4 3 4 1 4-2 1-3 0-4-1l-5-2c-2 0-3 1-5 7l-2 7 4-1c7-3 8 3 1 8l-4 5-1 3v1l-2-1-8-1-8 2c-2 1-3 6 0 6 3 2 20 1 23-1 3-1 7-1 11 1l4 2h-6l-8 1-6 2-6 2c-1 1 6 9 12 12 8 4 9 4 15-3a323 323 0 0126-30l-4-2c-7-2-8-2-5-3 3 0 9 1 12 3 1 1 1 2-3 7l-4 8c1 1 0 2-2 4l-3 2-3 5c-4 6-4 9-1 8 2 0 2 0 1 1l-3 2c-3 0-4 2-2 4l2 2-5 5c-6 3-7 5-5 5s1 3-2 7c-5 5-5 7 0 7 3 0 3 0 3 3l-1 9c0 4 0 6-2 8-5 7-8 16-6 20 1 1 1 1 2-1 2-3 2 0 1 6-2 5-2 5 0 8 3 5 2 8 0 10-3 3-4 6-5 21 0 6-1 9-3 12-5 7-3 15 3 13 9-2 12-8 8-11-2-2-2-2 0-5s6-17 6-22c0-6 4-13 8-15 2-1 2-2-2-11-4-7-5-10-5-14 0-5 0-5 3-4 2 0 3 0 6-6l8-9 4-3 4-5c2-3 4-4 6-4h2l-2 2-4 3-7 9c-8 8-11 15-12 20 0 5 2 11 6 13h1c-1-2-1-4 1-8 1-3 3-4 5-1 2 2 3 1 1-3l-1-4c2-1 5 3 6 8l3 5 4-11v-2l1-10c0-10 0-10 2-8l2 2 2-3c2-3 3-1 1 4l-2 6c1 3 12 12 16 13 10 3 7 5-3 3-12-3-14-3-15 1l1 10v10c-2 4-1 5 6 12 3 4 7 8 7 10l2 5c1 2 0 3-3 6-5 5-10 13-10 17 0 3-2 7-6 13-2 3-5 8-5 11-2 6-2 7-1 12 3 6 2 8 0 8-4 0-6-3-6-8 0-4-1-4-3 1-2 4-2 4 0 9l6 9c5 5 7 8 7 13 0 3 2 5 3 5 2 0 1-4-2-9-3-8-3-9 1-12s5-4 7-2l4 2c3 1 5 3 8 7 6 6 9 9 13 9 3 0 3 0 3-6 1-4 0-6-1-9-3-6-2-7 4-3 3 2 4 2 5 1 1 0 2 0 5 3 2 3 3 4 5 3h3c2 2 4 2 13-5 5-4 8-5 12-5l5-1-1-6v-5h3c4 1 24 2 27 1s4-1 5 1c1 4-2 6-7 4-4-1-9-1-7 1 3 3 0 7-4 5-2-1-2-1-4 3l-2 7-4 8c-4 6-5 8-5 12l-2 7-2 4 3 4c5 6 10 14 12 21 3 8 4 9 7 9 4 0 3 0 2 4-2 3-2 4 0 7 3 7 5 7 7 1l5-7c2-2 2-2 4-1 2 2 2 2 5-1l3-4 2 5 2 5-3 5c-3 4-4 6-2 8 2 1-1 5-5 7l-5 3v8c0 10 1 11 8 10l5-1-6 6c-7 7-9 11-9 15 1 5 8 19 10 21s3 2 8 1h5l-2 3c-6 9-11 7-17-7l-4-5-6 4 3 8 4 9c0 2 0 2-2 1l-9-7-6-6-11 3-11 4-6-2c-7-2-7-2-7 0-1 2-2 3-6 4-8 3-8 3-8-1 1-3 1-3-3-3l-5-2c-8-9-9-10-12-10-7 0-8 1-10 6-1 5-3 7-5 6v2l3 3 7 6 7 6c3 2 3 3 3 6 0 4-1 5-5 9l-10 7-6 5c-3 3-7 10-6 11l5-2c5-3 8-3 9 0 0 2 0 2 1-1 2-6 6-9 14-10 3-1 5-1 7 1 4 1 6 6 4 7-2 2-1 4 2 8 1 2 3 4 4 3 2 0 1 1-2 5l-3 6c0 4 3 8 5 8s2 0 1 2l-3 6-6 14c-4 7-5 9-9 11-3 1-7 4-9 7-5 4-6 4-15 6-3 0-5 1-8 5l-7 6c-3 2-3 2-5 1-2-3-5-2-6 0-1 3-4 5-8 6-3 1-6 4-6 5l2 1c4 0 8 2 10 5 1 4 1 5-3 7-3 2-4 4-2 6l2-1h11c2 0 3 1 2 2l-4 1-3 1c-1 1 1 5 4 6s4 1 9-2l6-2 4-2c5-8 4-8 9-6h7c3-1 3-1 6 2 1 2 3 3 5 3s3 0 3 2l-2 4c-3 3-3 4 0 6 2 2 5 2 7 0l5-1 7-2c4-2 4-2 7-1l5 7 8 8c10 8 10 8 16 8 9 0 11-2 16-8l3-5 10-3c10-2 13-4 16-7 2-2 2-2 1-11-2-9-2-10 1-16 2-7 2-7 0-10-1-3-1-5 1-4 2 2 2 8 0 13l-1 14 1 9 11-8c4-3 4-4 3-6-2-3-1-4 2-2 3 1 3 1 1 4 0 2-4 6-8 11l-9 12-7 8-10 7c-4 4-5 5-6 11-1 9-3 11-6 9-2-1-3-1-8 2l-6 2-5-2c-5-3-7-3-19-3-10 0-15 0-22 2-10 2-12 3-12 9l-2 8c-2 5-5 6-9 4-7-3-7-3-9 3l-1 12 1 5-7 7-7 8c0 2-4 6-9 8s-8 5-8 9c0 2-1 4-4 6l-4 6c0 2-3 5-12 12-6 4-8 5-9 4-2-1-7 1-11 5l-3 6 1 4c3 0 7-3 9-5 2-3 3-3 5-3 5 1 11 6 13 11l2 5 5-3c5-3 6-6 3-8-1-1-1-1 1-5l2-6c0-3 2-2 3 2v2l2-3c1-3 8-6 11-5l1-2c0-3 3-9 4-10l3 1c0 1 2 2 3 1l10-2c9-2 9-2 13 0s4 2 6 0 4-3 4-1c0 3 3 5 8 5 7 2 8 2 10 6s3 4 9 3c3 0 3 0 3-4s1-6 6-9c4-3 4-5 1-7l-3-2 3-1c2-1 3-2 2-4-1-1 0-3 1-7 2-4 3-5 7-6l7-4 11-4 10-3 4-1 9 4 14 7c4 3 4 3 4 1 1-2 2-2 6-2 7 0 15 2 18 4 2 2 2 2 5 0 5-2 5-5 1-7l-4-3 4-1h6c3-2 15-3 18-2s4 1 11-3l8-6-4-5c-7-6-3-5 6 2 7 7 9 7 10 6 3-2 16 1 19 4l3 2 3-3c4-4 9-6 17-6l12-1c6-1 6-1 20 4l14 4 4-3c4-4 5-4 15-7l10-5c4-4 5-4 10-3l7 1 1-5c0-4 0-6 3-8l7-4c11-4 14-6 16-10v-8c-1-5-1-6 2-8 2-3 2-3 0-4s-18 1-23 2l-7 2c-2 0-2 0-2-3 0-2 0-3-4-5l-5-2-3 3-3 3-3-1-2-2 4-3 3-2-4-1c-3-1-6 0-11 1-7 2-11 2-16-1-3-3-3-4 1-2 7 3 9 3 13 0 3-4 10-6 20-6 4 0 5 0 8-3 3-4 6-14 5-16l-5 1c-3 2-4 2-6 1l-2-2 9-5c8-4 8-4 10-2s6 1 11-4c3-3 3-3 1-3s-2 0-1-4c2-3 2-3 0-3l-5-1c-3 0-3 0-2-1l5-2c4 0 4 0 3-2-2-2-2-3-1-3l4 3 3 3 4-3 12-13 1-9c1-8 3-15 7-21l2-10-3-23c-1-4-15-18-19-20-6-3-46-8-52-7-4 1-6 3-7 8-1 6-5 11-8 11-2 0-5-1-7-3l-9-6-4-4c0-1 10-14 14-17 7-5 7-6 3-20-5-18-10-26-22-33-4-2-9-6-12-10l-5-5-7 2h-9c-5-3-7-2-8 3-1 6-2 6-2 0 0-7 4-10 10-7l9-1 8-2 6 6c5 5 5 5 11 5l8 1c2 1 2 1 0-2l-8-14c-10-15-12-21-12-27 0-5 1-6 4-7 3-2 3-2 1-3l-5-3-3-3-5-6-6-9-3-7-3-5-8-8-18-9c-12-4-16-7-17-10l-4-7c-5-5-7-12-7-20 0-4-1-6-3-9l-4-10c-3-8-7-29-7-35 0-13-8-28-18-33l-6-6c-3-3-3-3-6-2h-1l2-2c2 0 1-2-2-8-4-7-7-9-14-9-3 0-17-8-20-12-2-3-3-3-8-3s-6 0-8 3l-2 4c0 1-7 6-10 6l-6-2-6-2-27-6c-2 0-4-2-3-2 1-2 9-1 14 1l5 2 3-2 7-3c4 0 5-1 5-3 1-3 7-11 11-13h14l10-9-6-3-6-3v-6l-1-5-3-1c-4 0-8 2-20 9-4 2-5 1-1-4 6-7 9-8 18-8 8 0 9-1 13-3 6-5 13-13 13-17l1-4 2-5c1-4 2-6 6-9 5-5 11-15 11-18 0-1 1-6 4-11 4-8 4-9 3-14 0-4 0-6 3-11 1-4 6-11 9-16l7-11-2-9c-1-7-3-9-10-14-5-3-8-4-12-1h-5c-2-1-3-1-7 1l-4 2-14-2-14-3-6 3-6 2-6-3c-12-4-13-4-17-3l-5 2c0 1-1 2-3 2l-4 3h-2c0-2-3-1-9 3-4 3-6 4-12 4l-5 1v4c-2 5-19 10-24 7v-3h6c4 0 4 0 6-4l4-5 8-10-3 1-6 1c-2-1-4 0-9 5-6 5-7 5-7 3 0-6 7-13 13-13l8-3 6-3v3c-2 6 1 4 6-5 7-11 7-11 4-8-3 2-4 2-6 1h-4c-2 1-4 0-9-1-7-3-15-7-12-7l7 2c9 2 12 1 12-4l-1-4-1-1 1-1c2 0 11-7 12-9l12-10c6-5 11-9 13-13l12-11c12-7 15-13 11-20-3-6-3-8 0-12l4-5c1-2 1-3-1-4s-3-1-4 1h-4c-2-2-13-3-13-1zm-63 156c-3 5-15 21-16 20l14-22c4-3 4-2 2 2zm-18 139c0 2 3 5 5 6 3 4 4 6 1 7-3 2-4 1-5-4l-2-8c-2-4-2-5-1-5l2 4zm159 53l-2 3-3 2 2-3 3-2z"/>
  <path d="M313 88c-5 6-17 16-23 18-9 4-10 5-7 11 4 6 2 7-3 2l-3-4 1 3c0 4-3 6-5 3l-3-2c-2-1-3 0-5 5-4 6-4 13-1 13 2 1 2 2 2 5s0 3-2 3c-4-1-4 0 0 3 2 2 4 3 7 3l6 2c3 2 2 5-1 5-2 0-12 10-12 11l4 5 3 4 2-2c2-4 7-9 9-9v-3c-3-5 0-7 5-5 3 2 3 2 3 0-1-1 0-2 1-3 2-2 2-2 4-1 3 2 5 1 7-5 1-3 3-4 4-4 2 1 3-3 2-9-2-5-2-6 0-8v-4c0-2 0-2 2-3 1 0 2-1 1-3 0-3 1-4 5-9s5-5 3-7l-1-3c2-7 2-10 0-12-2-4-3-4-5 0z"/>
  <path d="M253 186c-2 1-3 2-5 1h-3l-3 1c-2-1-2 0-4 3-2 4-2 4 0 5 3 2 8 8 8 10l-1 4c-2 2-2 3 0 4v4c-2 1-2 3-2 6v21l1 7h4l4 1c2 0 2 0 1-4-4-10-4-9 0-14l3-5-2-4-3-4 3-1c2-2 2-2 1-5v-5l4-9c2-4 2-6 1-7s-1-2 1-4c4-4 4-5-1-6s-4-1-7 1z"/>
  <path d="M309 187c-2 3-2 3 0 6v6c-1 1-1 2 1 5 2 4 2 5-1 3h-3c-1 1-3 0-7-5l-6-5c-2 1-1 4 1 6 3 3 4 6 1 5-1-1-1 0-1 2 0 5-2 5-5 0-3-4-3-4-3-2l1 4c1 1 1 1-1 1s-3 1-1 2l2 4c0 3 1 3 5 5l5 1-1-3c0-3 1-5 3-3h3l1 2 1 3c2 0 8 5 7 5h-3c-7-3-6 4 1 10l4 3 1 1 1 2 4-2 6-1c2 0 2 0 2 3v4l2-5 3-5 1 3c1 3 2 3 5 2h4l-4 3c-3 2-4 4-4 6l-2 6c-1 5 2 4 8-3 6-6 7-8 5-10-2-1 0-2 3-2 2-1 6-5 6-8 0-2-5-2-10 0-4 1-4 1-8-1l-6-2h-2c1-2 0-3-1-4l-4-6-1-5v-3l1-12-1-9-4-5-6-5-3 3z"/>
  <path d="M308 262l-3 2 4 5c4 3 4 4 5 2 3-3 3-5 1-6v-5c-3-2-3-1-7 2z"/>
  <path d="M237 267c-3 3-4 7-2 7l7-8c0-3-2-3-5 1z"/>
  <path d="M297 307c-3 2-4 4-4 5 0 2 1 2 5-1 3-4 6-8 4-8l-5 4z"/>
  <path d="M321 309l-2 3c0 2 0 2-2 1s-3-1-2 1l-1 3c-2 1-1 3 1 3l6 3c5 3 6 3 8 1 3-1 4-1 4 2 0 1-2 3-5 4-4 3-7 7-6 9l5-2c5-3 6-3 6 0 0 1-2 3-7 5-8 4-9 5-11 2-3-3-7 0-4 5h5l8-2c5 0 10-2 14-4 3-4 4-4 4 0 0 3 2 3 6-1l2-3c-2 1-2 0-2-1 0-2 1-3 3-2 1 0 2-1 2-3 1-5-2-8-10-10-6-1-7-2-10-7-6-8-7-9-12-7z"/>
  <path d="M275 322c-5 2-6 4-2 7 2 1 2 1 2-1l3-5 2-2-5 1z"/>
  <path d="M342 374c-9 9-9 9-8 11 2 2 2 2 0 2-4 1-6 4-6 9-1 4 2 8 5 8 1 0 18-34 18-37l-9 7z"/>
  <path d="M319 372l-3 6c0 2 1 2 3-3 4-6 3-8-1-3z"/>
  <path d="M317 394l-6 3c-4 0-7 2-7 5v4c1 0 1 2-1 5-4 8-2 8 4 1 5-6 7-7 8-6 1 2 1 3-1 5-1 2-1 2 1 5 3 3 3 5 0 7-4 2-4 7 0 5l3-2c1-2 2-3 5-4 7-2 8-5 4-18l-4-12c0-2-1-2-6 2z"/>
  <path d="M376 419l-3 5 1 7c2 12 5 15 12 13 3 0 4-1 4-4l-1-3-1-4c1-2 1-3-1-4l-1-4c0-4-3-10-5-11l-5 5z"/>
  <path d="M293 473l-9 4-6-1-5-2-3 8c-4 7-6 9-9 8h-12c-3 1-4 3-6 12-1 6-2 9-5 12l-3 5c0 3-1 4-8 6-6 3-8 3-9 2-2-1-3-1-4 1-3 2-2 4 2 6 2 2 4 2 6 2 2-1 3-1 3 1l-1 1-5 4-4 3 3 1c3 0 3 1 3 3l1 2 6 13-7-4c-6-6-9-7-13-7s-4-2 1-4l4-2-4-1c-3 0-4 0-8 5l-5 5 7 7c7 6 12 13 12 16 0 2 1 2 4 2 4 0 5 1 10 5l6 4 4-2c3-1 3-1 6 1l2 2 1-2c1-3 3-4 3-1l1-2c1-3 2-5 4-6 3-1 3-2 1-5-3-3-2-8 1-9 2 0 4-2 5-4l4-4 6 5c3 3 5 6 5 9l4 8c3 4 3 4 5 3 4-3 7 4 5 11-1 4 0 6 3 4l7-1c5 0 6-1 7-2 1-2 1-3 6-2 3 0 6 1 7 3l4 2 2 2c1 1 2 1 7-3 4-5 4-5 4-11 0-5 0-5 4-7 5-2 9-2 11-1 3 3 9-9 7-12-1-2-2-2-4-1l-4 1 1-5c1-6 0-11-2-13s-1-3 1-5 2-2 6 2 6 8 4 13v6c2 4 3 3 4-5 1-7 1-8-2-16-4-11-6-12-12-12l-8 3c-6 4-7 4-7 1 0-2 1-4 7-9s7-7 6-9c0-4-2-5-1-1v3l-3-3-4-6-5-9c-4-5-5-7-5-9 1-2 0-2-2-3s-2-1-2-7c1-6 1-7-1-8-4-3-11-5-19-5-7-1-8-1-16 4z"/>
</svg>
