<svg xmlns="http://www.w3.org/2000/svg" viewBox="0 0 1024 1024">
  <path d="M29 250l-8 2c-5 2-8 5-11 16l-4 8-6 17 6 1c4 0 6 1 9 4 5 4 8 6 13 6 3 1 4 2 6 5 3 5 6 15 5 18 0 2 0 3 2 5l5 6 2 5 2-2c4-3 7-3 11 1 2 2 6 4 9 4 4 1 7 3 11 6 5 5 5 5 9 4 5-1 15 0 20 2l8 1c5 0 10 4 11 10l3 5 2 2 3 4 2 3 3-2c3-3 7-3 10 0 3 4 9 18 9 23 0 4 1 5 5 10 5 5 5 6 7 5 4-2 11-1 14 3 3 2 4 3 7 3 7 0 13 2 16 5 2 1 5 6 7 11 4 9 8 28 8 43 0 11 2 18 7 25l3 9 3 6 1 6c0 2 0 5 2 6l1 13v10l5 8c10 16 11 19 13 44 0 11 0 11-3 16l-4 10c0 5-10 19-15 21l-6 6a218 218 0 01-12 19l6 1 9 4c3 3 4 3 8 3 5 0 6 0 7 2l6 2c3 1 4 2 5 4 3 4 7 5 8 1l4-3 4-4 7-7 4-2 3 1 7 4 4 2 4-2c3-2 4-2 6-1h5c2-2 2-2 7 1 4 2 7 3 11 3l6 2c3 2 8 4 12 4 2 0 4 1 7 4l4 3 4-1 5-5c1-2 3-6 6-8l4-7c0-7 1-9 6-11 5-3 21-3 22 0l5 1 5-1-1 6c0 4-1 6-2 7-2 1-2 2 2 5l5 4 3-3 3-4 2 4c1 3 2 4 4 3 1 0 2 0 3 2l3 5 3 4c0 2 10 12 12 12 3 0 6 3 8 7 1 2 2 3 4 3l3 1 3 1c1-1 2-1 2 1 1 2 1 4-1 4s-7 3-7 5c-1 2 0 2 3 2l6 1 3 8c3 8 4 8 11 5 5-2 11-3 18-1 3 0 4 1 6 6l3 7c0 4 0 4 9 1 5-2 7-3 9-2l23 4h6l6-6 7-6h10c9 0 12-1 17-2 4-2 6-2 9-2 11 2 11 2 12 0l3-6c0-1 1-3 3-3 2-1 3-1 5 2 7 6 10 6 18 3l4-2 5 2c6 3 13 2 17-1 3-1 3-1 6 2s3 3 5 2l4-4c1-3 2-3 5-3l7 1c2 2 5 2 16 1 14 0 14-1 8-9l-3-5 2-2c3-1 3-1 9 2l8 3c2 0 8-5 20-16 33-29 35-30 44-23l5 3 8-1h8l3 4c3 3 4 4 7 4 6 0 11 2 15 6 4 3 4 3 10 3h6l-3 4-4 5a77 77 0 0033 23c10 3 19 3 29-2 4-2 7-3 9-2l8-1 3-1 11 10c10 10 13 12 15 12 6-2 7-2 8 1 2 5 4 7 9 7 3 0 3 0 6-5 1-5 2-6 5-6 7 0 8-1 9-4l4-5c3-1 3-2 3-5l1-6c2-2 2-12 1-21-1-3-2-4-6-6-4-1-5-3-6-5-2-4-2-4-7-4l-6-2-3-1-7-5-6-4-3-2c0-2-2-3-4-4l-4-1-4-2c-2-1-3-2-2-3l-2-4-3-6c0-2 1-2 3-2 4 0 4-2 2-5s-3-3-4-2c-2 1-4 0-4-3l-4 1h-5c-3 0-6-9-6-17 0-7 2-12 6-15h6c7 2 6 2 18-11 4-4 5-7 7-13l2-7-3-3c-3-3-3-3-11-4s-9-1-11-4c-7-9-5-8-17-7l-11 1-3-4c-2-4-4-6-6-4-1 2-1 2-3 0-3-1-6-1-9 1-2 1-2 1-2-1l-2-3-2-4c0-4-3-8-9-9-8-1-12-2-18-8l-10-6c-3 0-5-1-8-4s-3-4-2-7l3-9c4-7 9-18 10-26l4-11c1-3 1-3-2-7-5-4-17-9-30-11-7-1-7-1-17 2l-12 4-3-4-9-12c-1 0-3-2-4-5l-6-7-7-6c-4-5-6-5-12-2-7 4-10 3-19-5-8-8-9-8-17-4-4 3-4 3-4 9-1 5-1 7-3 9-3 2-3 3-1 5 1 3 1 3-1 4s-4-1-4-4-8-16-11-19c-2-2-15-5-22-5-5 0-13 2-21 6-4 3-6 3-14 3h-9l-1 4c-2 6-6 14-9 14l-12 2c-12 1-16 2-20 8-4 5-7 5-13 0-4-4-5-4-13-4l-10-1-1-3-2-4 4-6 6-8c1-1 3-2 3-4l2-3-6-4c-4-2-9-4-13-4-5-1-6-2-8-4-6-9-16-15-25-17l-5-2-15-3-8-3-9-2c-6 0-10-3-20-11l-12-12-5-4 1-4c2-6 1-7-6-8s-9-3-14-8c-4-4-4-4-6-3l-7-1c-3-2-4-2-6-1h-4c-3-2-5 0-7 3-2 5-6 5-15 0l-12-8c-5-5-9-6-21-6l-12-1c-1-1-2-2-4-1l-4 1c-7-1-9 0-15 5l-7 5-12-3c-17-5-17-5-22-2-5 4-8 4-14 0-4-2-6-3-12-3h-11c-3 1-4 1-9-6-4-6-6-7-11-9s-6-3-6-4c0-2-1-4-3-5-2-3-3-3-10-3s-8 0-15-4c-6-3-7-3-19-4l-12-1-5-4-11-8c-6-5-13-10-22-12-3-2-5-3-8-7l-4-4h-6c-4 0-7 1-10 3-4 3-5 3-11 3-7-1-11-2-19-8-3-3-7-4-10-5l-9-3c-3-2-8-2-13-1z"/>
</svg>
