<svg xmlns="http://www.w3.org/2000/svg" viewBox="0 0 1024 1024">
  <path d="M283 5a58 58 0 00-26 49c0 12-2 16-10 24l-13 15c-6 8-7 11-9 17-1 6-2 7-3 7-6 0-27 19-34 29l-11 15c-7 7-9 10-14 20l-11 20c-8 12-8 12-10 24 0 6-2 12-3 15-2 5-3 36-2 46 1 6 1 6 5 8s5 3 6 7c1 5 1 6-1 14-1 3-1 4 1 9 5 11 5 16-2 25-5 6-5 10-1 22l4 14c0 5 2 10 5 15l3 4v37l3 6c2 4 4 5 8 7 5 2 6 2 6 5 1 3 0 5-4 13-5 9-5 10-4 14 1 5 2 5 7 9 5 3 6 4 8 10 3 10 8 21 13 27 4 5 6 6 11 8 6 2 7 4 7 12 0 3 0 3 5 3 13 2 13 2 16 8 5 8 8 15 8 19 0 5 2 10 5 12l3 4 4 4c3 1 4 1 6-1l2-2 2 2c4 5 4 10 2 15-1 3-3 11-4 25l-3 20-5 6-5 5v9c0 11-2 14-8 15-3 0-6 2-8 4l-7 6c-2 1-4 3-4 6-1 5-5 9-8 11-2 0-2 1-2 5s-1 6-3 8l-2 7c0 4 0 4 4 5 6 3 7 5 5 12-3 6-2 15 0 24l2 8-2 11c-3 10-4 20-5 33-1 5-1 6-11 16-11 10-11 11-11 15s-1 6-8 17l-14 23c-6 11-12 20-19 27l-5 6v11c0 10 0 12-2 15l-7 5-7 4c-3 3-3 4-3 8 0 5 0 5 8 12l7 7h13l12-1 2 5c4 7 9 10 19 10 7 1 10 1 19-1l12-3 2 3c1 7 4 9 15 9h6l1-4 1-8c0-3 0-4 4-5h7c2 0 4 0 7-3l5-3 7-3c6-2 6-2 10-13 2-4 2-4 11-6 20-4 20-4 22-10l2-6h5c5 0 5 1 12 11 3 4 5 6 8 7 8 3 22 2 37-3l10-3 10-2c6-2 7-2 10-1 2 1 4 2 5 5l4 5c5 4 9 4 25 1 11-2 12-2 15 0l9 3 7 1 2 6c3 6 3 6 7 6l9 2 14 1h9l7 7c5 6 7 7 11 8 5 1 5 1 14-3l11-5 7-12c6-11 6-12 11-15l10-7c3-3 7-4 12-6 7-1 24-10 24-12l5-12c5-10 7-12 12-16 6-6 10-12 12-19l3-6c2-1 2-2 2-13v-11l8-14c6-10 8-14 9-19l3-10 8-13c5-9 6-10 9-11l4-2v-7c-1-9 1-18 9-28 6-9 6-11 7-30v-14l5-2 4-3 3-8c3-6 3-7 9-9l7-3 13-22a1387 1387 0 0049-87l6-18 7-3 7-2 1-6c1-5 1-6 8-11 8-7 15-14 22-23 4-6 5-8 6-14l1-11c0-3 1-4 7-10 5-4 10-7 14-8 8-3 12-6 12-11l4-13c6-16 6-16 1-19-5-4-6-5-6-9 0-6-4-14-11-20-7-7-7-8-4-22l1-7-5-5c-5-5-5-5-4-7 1-3 1-3-1-7-3-4-6-13-6-18s-4-16-8-22-13-15-20-18c-3-2-9-2-14-1l-4 1 1 21v21l-4-1c-3-2-3-3-3-6 0-7-2-16-8-30-5-13-6-15-14-23-7-8-11-12-21-18a147 147 0 01-43-40c-8-8-10-9-15-3l-4 3-1-3c-4-9-8-13-24-23s-24-16-35-28c-7-6-27-22-38-29-8-6-21-20-25-28l-8-12-5-9c-4-7-9-12-16-15-8-4-15-5-31-5-11 0-10 0-33-9-6-2-8-2-13-1-6 1-6 1-12-3-7-5-10-6-27-6-15-1-16-1-21-4l-10-4-9-4-9-6-14-10-8-8-8-1c-9-1-10-2-17-7l-16-13c-7-6-9-7-15-8l-13-2c-6 0-7 0-13 5z"/>
</svg>
