<svg xmlns="http://www.w3.org/2000/svg" viewBox="0 0 1024 1024">
  <path d="M921 90c-3 1-3 1-3 6 2 10 2 10-1 12-2 1-3 2-3 4l-1 5-3 10c-2 9-4 12-7 10s-5-1-9 5l-3 3-14-1a110 110 0 01-26-4c-4 0-6-1-11-6-8-7-8-10-2-15l9-11 5-10 2-4c1-2 1-2-1-2s-4 1-5 3l-7 5-8 5-7 3c-2 1-2 1-2-1 0-4-4-8-8-9l-5-2-4 3c-7 4-12 5-21 3l-9-2c-2 0-2 1-2 5v5h-7c-4 1-10 2-16 5-9 3-9 3-9 6l-1 6c0 1 0 2 2 2s4 2 4 4 1 2 12 1h11l3 3 9 5 6 2v4l-1 8v11l2 8-3 6c-2 5-4 7-6 8l-4 3-4 2c-2 0-2 0-2 5 0 4 0 4 2 3 6-4 6-4 5 2l-2 14c-3 11-3 12 0 14 5 3 5 5 2 11-3 7-7 9-16 9l-7-1-2-7c-3-10-7-14-16-16l-6-1-5-10-5-9 1-5 3-12v-8l-3-1c-2-2-4-2-11-1s-8 2-10 4-3 4-3 8c0 5 0 6-5 10-4 4-5 5-16 8l-14 3-1-5-3-8c-2-3-3-4-6-4-2 0-5 1-9 4l-5 3-4-3-5-2-2-1c-1-2-6-2-7-1l-6 4-6 4c0 2 5 5 7 5 3 0 4 2 4 8 0 5-3 10-9 13-6 4-8 3-9-4-1-4-1-4-4-5s-3-1-7 3c-4 3-5 5-4 7 0 3 0 3-4 6l-5 3 5 2c4 0 6 1 7 3 2 3 2 3 0 9l-1 6h-8c-6 0-7 0-10 3l-7 3c-4 1-4 3-1 5 5 2 5 5 1 11l-4 6h-6c-8-1-9-1-12-6l-5-6-4-2-2 3-4 4c-1 2-1 2-6-1-4-3-5-3-14-3l-11 1-7 2c-3 0-4-1-6-3-2-3-2-3-5-2-5 2-7 13-5 25v4l6-6 6-6 5 1 10 1 12 2c6 1 7 2 7 4 1 5 0 11-3 14-2 3-3 5-3 10-1 7-6 22-9 26l-5 15-5 15c-1 3-5 5-10 5l-12 4c-9 4-9 4-20 4l-13-1c-1-2-2-1-3 3l-1 5-6-2-6-3c-2 0-2 0-1 3l3 4c1 1 2 3 2 7 0 5 0 6-3 7-4 3-7 2-9-3l-6-6c-3-3-3-3-3-9v-6l-4 1c-7 1-8 2-8 6l-1 4-6-1c-5 0-7-1-10-3-3-3-4-3-8-2l-5 1c-1 2 1 6 5 10s5 5 12 6c15 2 19 8 19 29v13l-3 6c-4 7-15 18-23 24-4 2-8 4-15 5l-13 4c-5 3-14 4-25 4-9 0-16-2-23-6-3-2-3-3-3-7s0-4-5-6l-4-2v-9l-6-2-7-2-3-1h-3l1 9v9l-7 3c-8 6-11 10-9 18 2 9 1 11-6 23-6 10-6 11-12 13-5 3-6 3-12 2-8-2-18-7-25-13l-5-5-6 2-11 2c-6 0-7 0-11 3l-9 9c-5 7-18 17-22 17l-7 1c-3 0-4 0-5-2s-2-3-6-4l-7-4c-4-4-11-4-9 0l-2 12-5 12-3 4c0 2 1 2 9 2 9 1 9 1 10 3l2 5c2 1 3 2 10 1l9 1 2 3 8 13 6 13 2 20c2 17 2 21 1 28v15l-2 12c-7 17-10 21-15 25l-5 4v9c-1 8-1 9-5 15-5 8-12 14-22 19l-7 4-5-2c-4-2-7-2-11-1l-9-1-6-8c-3-6-4-8-7-8-3-1-6 1-6 5 0 2 0 2-5 2l-10-1c-4 0-4 0-7-5-1-3-2-6-1-7 0-3-1-2-7 3l-7 3c-5 0-5 0-3 4 2 3 2 3-3 12-5 11-6 18-4 23 2 4 3 10 2 14-1 5 0 8 6 14l7 10c3 5 4 6 6 5l2-1 3 4c2 4 2 4 5 3 4 0 6 2 6 6l5 11c4 9 4 9 6 8l1-4c2-8 3-10 5-11 1-1 2 0 4 3l3 3v1c-2 2-2 2 0 6l4 5c3 2 3 2 3-1l1-4c3-1 8 2 9 5 1 2 1 2 3 0l4-3 4-3c1-3 7-3 9 0 1 2 2 3 6 4 7 2 12 1 19-4 8-7 10-7 13-2 2 4 6 3 9-1 1-2 4-7 8-10 5-6 6-7 9-7s3 0 3 4c0 5 1 7 5 5 2 0 3-2 3-4 1-4 2-4 5-4 6 0 10 5 10 11 0 4 0 4 4 5l7 1 7 1c3 0 3 1 3 5s0 4 3 4c2 0 3 0 4 2 2 3 3 4 7 2l6-2 7-1c4-3 9-2 14 1l4 4 3 3h17c4 2 5 4 6 9 0 4 1 5 6 8 8 3 8 4 7 1-2-4-1-5 5-3l8 1c7-2 17 3 21 11l2 4 3-2c2-1 4-3 4-5v-2l3 3 3 4 1-1c2-3 13-8 16-8 5 0 6 3 2 6l-3 6c0 3 1 3 4 5l9 2c3 0 4 0 8-5l3-6c-2-2-1-3 2-4 4-3 10-3 16-2 5 1 6 2 9 7 1 2 2 1 8-2 6-2 8-3 10-2l2 4 1 7 2 3 2-2c1-2 3-3 8-4l8-2c3-2 8-1 12 2 3 2 3 2 4 0 3-3 6-2 11 3l5 7c0 2 3 4 5 5 4 2 5 2 9 1 5-2 6-3 2-6-2-3-3-4-3-8l-1-7c-2-1-2-2-3-6v-5l4 2c3 2 4 2 9 2l15-2 13-1 2-1-3-4-2-3 3-2 2-2 3 4c4 3 6 4 6 2l2-6 2-5-2-2c-2-3-3-7-1-9l5-1h3l-1-4-2-9-2-4 2-1c2-1 3 0 14 8 3 3 3 4 3 9s1 6 2 7c2 0 2-1 2-6l1-6 29 3c4 2 8 2 11-2s6-4 9-3c1 2 1 2-1 3-1 2-1 2 1 4l5 4 3 1c3-3 9 0 11 5 2 4 2 4-1 6l-2 2 2 9c2 10 6 16 9 18 5 2 7 4 8 9 0 2 1 5 3 7l2 7v5c3 0 6-2 6-5l6-7 4-6 4-4c3-2 3-2 1-5v-7c2-4 3-5 4 0 1 3 1 3 5 4 2 1 3 0 4-2s1-2 3-1c3 2 3 2 4-2 0-3 1-4 2-4 4-1 3-3-3-10-6-5-7-8-8-12-2-9 2-14 7-7l5 5 4 4 4 2c2 0 3-1 4-3 2-4 4-4 4 0 0 3 0 3 1 2 2-2 2-10 1-16-1-2-2-4-1-5 1-3 6-2 7 0l8 10c1 0 2-1 2-3l5-7 4-7c1-3 2-4 4-5l6-4c3-3 3-3 7-2 2 0 5 2 5 3 2 2 3 2 6 2 4 0 5 0 8 3 2 3 3 3 6 3l4-3 8-2h6l-1 3c-1 6-5 13-8 17-3 3-3 4-2 9 0 6-2 14-6 18-2 3-2 3 0 5 1 2 2 2 5 1 3 0 3 0 3 3l-2 4c0 1 0 2 2 3s3 2 3 5c1 3 1 4 3 3l6-1c5-1 6-2 7-5 2-4 3-4 5-4 1 1 2 0 2-1l-2-2c0-1 10-8 12-8l4 3c1 2 4 5 6 5l3 2v-6l-1-7c-1-2-1-3 1-5l2-11c0-8 0-8 2-8l6 2 4 2 1 4 2 3 1-3-2-7c-1-3-1-3 1-7 3-3 3-3 1-5l-5-5c-3-3-3-3-2-12 0-11-1-12-8-17l-6-7-2-4 3-4c4-3 4-4 2-5-1-1-2-2-4-1-3 1-4 0-4-4l-1-6-3-9v-7l-5-2-8-6c-4-4-4-9 0-15l3-4 5 2 5 3-1-4-1-10c-2-7-1-20 2-27 2-5 2-8 3-27l1-21c2-2 10-3 15-3h6l-3-5c-3-3-3-3-3-9 1-5 1-6-1-9-4-6-8-10-16-14-10-7-11-7-11-14 0-5 0-6 2-6l15-4c18-5 23-6 26-4l4 8 1 5 5-2c4-1 5-2 5-3l-3-9-1-7 4-5c3-2 4-4 3-5l-7 4-9 7-3 2-3-3c-5-6-7-7-13-4-4 3-5 3-6 2 0-1-1-2-4-1l-4 1-3-5c-2-4-2-4-1-7 2-3 2-3 0-7s-1-11 1-14c3-3 4-3 4 0 1 2 2 2 6 2 5 0 5 0 9 6 5 6 9 10 9 8l-2-6-1-6h1c1 0 4 2 6 5 5 4 5 4 8 3l3-2-6-9c-4-7-5-10-7-19l-5-14c-2-5-2-5-6-5-3 0-3 0-3-2l-3-6c-3-2-4-3-8-3-5 0-5 0-10-6l-6-7v-8c0-13 2-21 7-29 4-6 5-10 6-15 2-13 2-13 11-22l11-9 4-5 7-7c3-2 4-3 14-3l13-2 15-4 18-4c7-3 14-3 23 0l12 2c3 0 4 0 5-3l3-4c10-2 12-6 16-24 1-2 0-3-2-4l-6-3c-2-2-5-2-12-2h-9v-4c-1-5 0-8 1-8l3-3c1-3 3-4 5-5 4-1 8-5 8-8l3-4 6-3c2-3 2-4 2-10l-2-7c-2-3-1-6 3-10 3-3 3-4 3-7l-1-6c-2-1-4-10-4-12l7 1c5 0 7 1 9 3l2 5c0 3 2 4 3 1 1-2 1-2 5 1 4 4 7 6 7 3l-2-4-2-5c-2-2-2-2-1-13 1-13 3-19 6-26l2-7c-3-14-3-14-1-18 1-4 1-8-3-13-2-1-4-5-5-7-1-4-1-5 1-8l1-4-3-3c-7-5-7-11-2-19l2-4-3-7c-5-9-6-14-5-17 1-1 0-2-2-4-2-3-3-3-4-1-4 2-7 1-9-2l-2-3-2 4c-2 5-5 7-9 7-2 0-3 1-5 3-1 2-2 3-6 3l-7-2-16-6c-4 0-4 0-4-4 0-3-1-4-3-6l-2-3-2-4c-2-3-2-3-1-5 2-3 2-3-2-5-4-3-5-4-9-1z"/>
</svg>
