<svg xmlns="http://www.w3.org/2000/svg" viewBox="0 0 1024 1024">
  <path d="M627 2l-5 5c-6 4-6 4-8 3l-6-2c-2 0-3 1-5 3v5c1 2 1 2-3 4l-5 3-6 2c-6 0-7 1-11 8l-2 3-3-3-4-5c0-2-4-3-16-3l-14 1c0 3-3 2-6 0-2-3-13-4-24-4-50 1-51 1-54-1-3-1-7-2-16-2-11 0-12 0-12 2l-1 2h-97c-92-1-97 0-98 1l2 5c2 3 2 3 1 7l-4 4c-2 1-3 2-3 4l-2 5-4 10c-4 7-4 8-3 9 2 1 2 2 0 6l-3 5 4 11c5 13 5 14 10 19 3 4 4 4 7 3l4 1-1 3-3 2c-3 1-6 6-6 10 0 2 9 10 12 10 2 0-2 7-5 9s-3 2-2 4c2 3 2 13 1 16l2 9c3 7 3 8 2 14-1 5-1 6 2 11l2 6-4 7-5 7 2 5 4 7c2 2 2 2-1 6-3 5-2 8 2 11l7 7c3 4 4 6 4 9v10c1 4 0 5-3 8-3 4-3 4-2 7 1 2 2 4 4 4 3 1 3 4-2 8l-6 9-2 4-3 5-1 7c-2 3 1 5 10 7 8 2 9 2 8 5 0 4 3 12 5 12 1 0 2 1 2 5v15c-1 1-1 2 1 3s3 3 10 46l7 46c-1 2-10 4-14 4-2 0-3 0-5 2v5c2 1 6 12 5 12l-8 3c-8 2-9 3-14 8-4 4-7 6-9 6s-2 1-2 6c-1 6-2 7-4 9l-2 5-1 4-2 3-2 2-7 13c-6 11-6 13-6 19 0 5-1 14-4 27l-5 19 3 3 2 3-6 9c-5 7-6 9-6 13v4l-5 1-6 1-10 19c-11 20-12 24-10 32 3 8 3 11 0 11-5 0-8 6-4 9l1 9 3 20 4 21c1 7 1 8 3 8 2 1 3 2 7 12 3 9 5 14 5 19 1 6 2 10 6 19l5 11-1 10c-1 18-2 17 4 17h5v12c1 3 1 3 5 3l6-3c3-1 4-1 10 1 10 4 9 3 10 13l3 16 3 12c0 5 0 5-2 5l-4-1c-2-1-2-1-2 3l-2 6c-1 2-1 2 1 4l2 6 3 9c3 7 2 10-4 10h-11l-7 1c-2 2-13 1-17-1-3-2-6-2-11-2-6 1-6 1-7 3 0 3 0 3 16 7 13 4 20 5 32 7 14 1 17 2 34 7 10 3 21 7 25 7 15 3 28 8 33 15l6 5c2 0 3 2 4 3 0 2 1 3 5 4 3 1 5 2 6 4 1 4 4 4 10 1l7-2c3 0 4-1 8-5 3-4 7-6 10-8l9-4 6-2c2 0 5-3 5-6s5-6 12-7l7-1 1-5c1-4 1-4 4-4l6-1 11-3 10-3 7-2 10-2 15-3c9-2 20-7 26-11l7-4c4-2 4-2 6 0h10l15-1c6 0 7 0 18-10 7-7 19-12 32-14 5-1 11-6 11-9 1-2 4-5 9-8 5-5 8-6 11-6l14-3a817 817 0 0138-15c2 0 5-2 8-5 3-4 6-6 8-7l7-3 16-7 13-5 9 1 44 1v-4c-2-6-2-17-1-17l1 5 4 11 3 7h9l13-1 10-2c5 0 6 0 9-3l5-3a279 279 0 019-29l18-15c10-5 9-5 7-9-2-3-3-4-7-4-11-2-11-2-13-6l-5-7c-3-2-4-5-5-8l-2-4-7-1h-8l-5-5-8-6c-3-2-13-14-15-19-2-3-2-3 0-6 4-5 4-7-1-7-4 0-5-1-8-3-3-3-3-4-3-10 0-11-1-12-7-14-4-1-5-2-5-4l-3-6c-4-3-5-4-2-9 2-5 1-7-3-9-2-1-2-2-2-4s1-3 5-4l6-3c3-2 5-8 5-12-2-10-2-13 0-15l3-8 2-8c2-3 2-4 1-11l-1-8h-7l-7 1-4-6c-3-5-3-8-4-13 0-10 1-13 5-15s5-3 5-9c0-4 3-8 5-8l1-4v-13l1-8-1-10c-2-6-3-14-4-25-1-8-1-10 1-12s2-3 1-4l-2-3c0-2 7-8 14-10s8-5 4-11l-2-6-3-5c-3-3-4-5-4-7 0-6-3-10-9-11-5-2-6-3-7-5l-3-2-4-2-3-2-5-4-12-27c0-1 5-1 6 1 2 2 3 1 3-2s0-3 4-3c4 1 4 1 4-2l2-6 2-6-5-10c-3-4-5-9-5-11l2-7c2-3 2-5 1-7-1-3 0-4 1-6 4-3 6-8 5-13-1-3-1-4 2-9 3-4 3-5 3-13v-9l-3-1c-2-1-3-1-3-3 1-1 0-2-4-3-5-2-15-2-20-1l-3 3c0 2-2 3-6 4-7 3-11 2-11-1l-1-4c0-2 1-2 4-2l6-2 2-3h-4c-4 0-5 0-6-4l-1-4 7-1h10c4 0 5-2 5-5-1-2-2-2-6-1h-8l-2-2-2-3v-4h5l6 1c3 0 3 0 3-4l-1-7c-3-2-2-10 0-13 2-2 2-4 2-9-1-7-1-7 2-10 3-4 3-5 0-8s-2-7 2-8c3 0 3 0 3-3-1-2-2-5-4-6-2-2-3-4-2-5l2-13 2-14v-3h-4c-3 1-4 1-7-4l-3-9c1-2 0-3-2-4-2-2-2-2-4-1-1 2-2 2-4 1-2-2-3-2-4 0-1 1-2 0-5-7l-4-9-5-3c-4 0-5-1-9-5-5-5-8-7-11-7l-6-3c-3-2-4-3-5-7-1-7-1-8 4-17 5-8 6-9 8-23 0-4 1-6 3-8 3-2 3-3 3-9-1-8-1-8-8-11h-8c-4 2-4 2-8 0l-4-4c-1-1-2-2-8-2l-10-2c-3 0-4 0-4 2z"/>
</svg>
