<svg xmlns="http://www.w3.org/2000/svg" viewBox="0 0 1024 1024">
  <path d="M573 2l-11 2c-14 2-18 3-18 6 0 2 0 2-2 1-1-1-3 0-3 2l-3 1c-2-1-3-1-3 1h-1c-1-1-1-1-2 1l-1 2c-2-1-3-1-3 1v4c-2 3-6 3-7-1 0-2-1-3-3-3l-3 2-2 2c-2 0-2 0 0 4l1 2-3-1c-3-2-10-2-9 0l-3 1c-1-1-3 0-5 1l-2 3 2 3 3 4h12l13 1 3 3c4 5 3 6 0 3s-3-3-14-3l-8-1c-4-2-3 2 1 8l4 9c1 3 1 3-1 3-1 0-3-2-5-7-3-7-5-9-11-9h-4l2 6 6 13c3 6 4 7 4 12 0 6 0 6-2 5l-2-4-7-10c-4-4-8-10-9-13-2-5-5-7-10-7l1 29-1 11c-1 1-2 1-3-1-1-1-3-3-3-5-1-4-8-14-10-15-1-1-2 1-3 3l-5 6c-1 1-2 2-2 5s0 3-1 2c-2-3 0-9 3-12l2-4 1-7c2-3 2-7 1-11-1-2-2-2-5-1l-16 1c-7 0-12 1-13 2l1 3c2 2 3 3 3 6l-1 6c-1 2-1 2-2 1l-1-5c1-2 0-3-2-6s-3-3-6-3c-4 1-6 4-7 10l-2 8-2 5c0 2-1 3-3 4s-3 1-6-2l-5-3-9 5-13 7-10 5-6 3c-2 0-3 1-3 6v7l3 3 2 2c1 2 1 2 4 2 2-1 2 0 2 2l2 4c1 1 0 2-4 4-5 2-5 2-4 4l2 3-14 12c-5 3-5 3-15-1-7-3-8-3-11-2l-7 4c-2 2-2 2-4 1-4-2-11-1-13 2l-2 2-2-3c-3-6-12-5-19 2l-3 3v11c1 13 2 16 8 16 4 0 4 2 0 3l-4 2 3 1c7 3 8 3 3 2l-4 1c0 1 2 3 4 3l4 2c2 3 7 6 12 6l9 5 5 4-3 1-4 2c-2 2-2 2-7-1-5-4-13-6-15-5-1 1 0 2 2 4l2 3c-2 0-6-3-11-8l-5-5-5 1c-8 1-10 3-10 9v6l4 1c3 1 4 1 3 2l2 6c2 4 4 5 7 6l5 3c0 2-2 2-4 1-3-1-14 0-15 2l2 9c1 8 1 9 8 15l7 7-1-5c0-5 2-9 5-9 2 0 2 1 2 4 0 4 0 4 1 3l4-2c2 0 2 0 1 2l-1 9 3-1c2-1 2-1 2 2l1 3h1l3-1 5-4 2-3v10c1 0 4-3 4-5s1-3 3-3c4-1 6-1 6 2l2 3 3 4c2 3 3 4 7 5s4 1 5 4 4 9 7 12l2 5 3 8c5 7 5 14 2 16-2 2-2 2-1 5l1 6 5 8c5 6 5 10 2 14-2 3-2 4-2 11 1 7 1 7-2 9l-2 1 2 3c3 2 3 6 0 7-4 1-4 3-1 8 3 4 4 5 1 6-2 0-2 1-1 6 0 5 0 5-2 7-2 1-3 3-3 5s0 2 3 1c4 0 5 1 2 3-2 2-2 2-1 4v3c-1 2-1 2-4 1-3-2-4-2-5 7 0 5 0 6 2 8l2 3-2 5-4 7c0 2 0 2 3 2l5-1-1 1c-7 7-7 7-6 9 2 3 1 5-4 7-4 3-4 3-4 9 0 7 1 8 4 7l5 2 6 3c6 0 8-1 8-4-1-5 6-10 11-10 1 0 2 0 1 1l-1 2-3 3c-2 1-3 4-1 4h11c5 1 5 3 0 4-4 0-6 2-6 3l7 1 6 1h-7l-8-1c-1-2-2 1-2 6 0 3 0 4 2 4l4-2 4-3c1 0 1 1-1 2-5 5 1 6 6 1 3-2 6-2 6 1l-1 2-5 1-3 2 3 2c4 1 8 4 8 5h-3c-5-2-5-1 1 4l5 7c0 2 0 2-3 0l-4-3c-2 2-1 7 1 9s3 6 1 8-6-1-15-10c-8-9-9-10-15-11l-7-3c-1-2-8-1-9 1-2 2-2 2 1 9 4 8 4 8 10 11 7 3 9 5 11 12 2 4 3 5 5 6l5 2 4 3 4 3-2 2c-3 2-3 3-3 8s1 5 4 6 3 1 2 3l-2 3-1 2c-4 2-6 6-6 11l-1 6c-1 1-1 3 1 7 2 5 2 6 0 7-1 1-2 2-7 1-8 0-10-1-10-3 0-3-3-8-5-8h-4c-2 0-2 1-1 1l2 2c2 2 1 3-3 3l-4 1h-3l-4 1c-1 1-1 1 1 3s3 3 2 5c0 3-1 3-3 3-2-1-2-1-2 1s0 2-2 1c-2 0-2 0-2 4 1 4-1 7-5 8l-2 4-1 4-4 10-4 10c-2 1-2 2 0 5l5 6 3 3-2 2c-3 3-3 4 1 2s5-1 5 1 0 2-2 1c-4-2-9 4-13 15-3 7-3 8-3 15l2 7c2 1 2 8 0 10 0 1 1 3 5 6l2 4 1 3 1 2 2 2c2 0 2 0 1 2-3 4-3 6 0 7s4 5 2 6l-1 4c0 2 0 4-2 5v4c1 2 0 3-1 4-2 2-4 11-3 15 0 2 1 5 3 6l6 9-1 6c-2 6-2 12 0 14l2 6c2 10 2 11 5 12l2 4 2 4c1 1 2 2 1 3-1 0-1 2 1 5 1 3 1 3-1 5l-2 1 3 4 4 9 4 7c2 2 2 3 2 7-1 3-1 5 2 9 1 3 2 6 1 7l3 7c2 2 3 5 3 7s1 4 4 6c4 2 6 5 5 9-1 2 0 2 2 2s5 4 2 5c-1 0-1 3 1 6 1 2 5 3 7 1l4-1 7 2c4 0 6 1 8 3l7 3c3 0 4 1 5 4 1 2 2 3 5 4 11 2 17 5 12 7l-2 1c0 1 3 4 5 4 2 1 2 2 2 5 0 4 0 4 4 7l7 2c5 1 7 2 7 5 1 3 6 4 10 1l6-2c4-1 7-4 8-13v-8c-2-4-1-4 3-5 4 0 5-1 5-6v-7c2-4 3-10 3-16 0-3 1-4 2-4 2 0 3-2 3-4l3-7 5-8 3-6-2-8c-2-9-2-10-1-10 2 1 2 0 2-5 0-4 0-5-2-6l-1-2c3 0 8-3 10-7 1-3 3-4 3-2l1-2 3-4 2-2 2-4 3-4 4-6c6-8 7-10 7-25l-1-14 4-1c5-1 6-5 2-12l-3-8c0-4-2-6-4-4l-3 1c-2 0-2 0-1-3l1-5c0-2 1-2 7 0 5 1 4 1 11-4s8-9 2-12c-3-3-4-6-1-4l5-1c3-2 3-2 5 1 3 3 5 2 3-1l-1-4c0-2 1-2 2 1 3 3 7 3 12 0 4-1 4-2 4-6l1-4c2 1 4-6 4-11l1-6c2-1 0-3-2-3-3-1-2-3 0-2l8 1h6l-3 4c-5 5-6 7-7 13l-2 8v5c2 1 3 2 8 1l8-1 1-5 1-4 1 2c0 2 0 2 2 2 1 0 2-2 2-7 1-6 2-9 2-5l2 6c2 3 2 3 3 2l2-4 2-4 3-5c2-2 3-3 3-5l-1-2 4 2c4 1 4 1 7-2 7-7 16-22 16-27 0-4 2-8 5-9l2-4 1-2 1-9c0-8 0-8 3-11l3-4c0-2 5-6 7-6h3v-6c-1-10-3-15-6-15-2 0-4-2-6-7-2-3-2-3 0-2l2-1 2 2 3 4 1 1c0 2 9 10 13 12h5l5-1c5 0 6-1 3-5l-2-3h2l4 2 1 2 4-2c4-2 5-4 2-4-3-1-4-3-1-4 2 0 4 0 6 2 3 4 4 4 4 1l2-2 1-2c-1-1 0-1 2-1 3 0 5 0 6-2l6-4 3-3h2c2 1 2 1 4-1l2-2 6-6 1-1 5-3 6-4 4-5c1-3 3-7 5-7l1-2c-1-1 0-2 1-2 2 0 3-2 3-4l-3-1c-5 0-4-2 1-3 4-1 5-2 5-4l1-2c2 0 5-4 5-6l2-3c4-1 4-3 3-5l-3-3h9v-3c-2-2-2-3-1-3 1-1 2-2 1-3 0-1 0-2 2-3l3-2 2-2 4-7-6 2c-5 2-7 3-15 2l-17-1c-6-2-7-2-8 0l-2 2v-2l-1-2-1 1-5 5-8 3-6 1c-2 2-3 3-4 7 0 4-2 7-2 4 0-2-4-1-6 1s-3 2-4 1l-3-1c-2 0-2-1-1-3l6-2c4 0 6-1 9-6l6-4c5-2 7-5 5-6s-3-1-14 3a1002 1002 0 00-12 2c-1-2-2-2-5-1l-5 2-2 1c0-2 1-4 6-6l3-3 1-2c1 0 2-2 2-5 1-3 1-5-1-7l-2-2 2-1 3-1h2c2 2 3 2 5 1l5-2c3 0 4-1 7-3 4-5 5-4 1 1-2 3-5 4-7 5-3 1-4 2-6 5-1 2-2 5-4 6l-4 5v4c2 2 3 1 11-3l12-4c4 0 5-1 9-5l5-5-2-4c-2-4-3-5-5-5-4 0-2-3 2-4s4-2 2-2l-2-4v-2l-3 3-2 3 1-4c2-4 2-6 0-9-2-2-5-2-17 0l-7-1-5-1c-6 1-7 0-2-1l3-3-1-2-3-1-5-4c0-2-1-2-5-1h-4v-3l1-4c3 0 11 4 12 5l6 7 6 5 8-1c8-1 9-1 15 3 4 3 4 3 6 1h3l5 8 6 9c2 7 5 10 12 12 5 3 6 3 10 2 4-2 4-2 3-10l-1-4 2 3 3 5 2 3c2 1 2 1 6-1l3-2v-6l-2-7c-1 0-4-5-4-8l-1-3c-2 0-3-3-6-15-1-5-2-5-5-2-2 3-3 5-2 8 2 5 0 4-2-1l-3-5 2-4 3-5c0-2-2-1-3 1-1 3-3 3-3-1v-2l-3 3c-4 5-6 4-2-2l2-7c0-3 0-3-7-4l-10-4c0-1-1-2-3-2l-8-3c-5-1-5-1-8 1-4 2-4 2-6 1v-2l5-2c5-3 1-12-7-13-3 0-4 0-7 4l-4 4-1-1c-1-3 0-4 3-6l5-4 4-3c2-2 7-3 8-2h2l6-1c4 0 4 0 3 2l-5 1c-4 0-5 1-2 4l1 5c0 4 4 7 13 8 3 1 7 2 9 4l7 2c3 0 4-1 4-3 0-3-1-3-6-4-8-2-6-5 2-5 4 0 4 0 2-2l-8-5-9-5c-2-2-2-2 1-2l5 2c1 2 2 2 5 1l4-1-2-3-1-5c1-2 1-2-2-3-4-2-14 0-21 4l-8 3c-3 0 3-4 9-5l5-4c1-2 0-2-7-2h-8l5-1c7-1 8-1 4-3-6-3-12-3-21 1-2 0-2 0-1-2l4-3c2-1 2-1 1-2-1-2-1-2 1-2 1-1 2-2 1-5l1-6c2-3 3-1 3 4 0 3 2 5 10 9 4 2 7 3 11 3 5 0 6 0 8-4l3-5c0-2 2-3 7-4 7-2 8-3 5-8l-3-7c0-2-1-3-4-3l-9-3h-7c-2 2-5 3-5 1l1-4c1-3 1-3 4-3l6 1c2 1 3 0 8-4l3-4-4-3c-2-2-4-2-5-2h-3c-1-1 2-3 6-3 2 0 3 0 3 2s1 2 4 2c4 0 5 0 7-3 2-2 3-9 1-9l-1-1 2-1c2 0 1-3 0-4l-4 1c-1 2-2 2-3 1-2-3-3-2-4 1 0 2-1 2-4 2h-6c-2 1-3 1-2-1 0-2 1-3 2-3 6 0 10-6 5-8-2 0-3-1-3-2 0-2-10-1-12 1s-3 0 0-3l3-2c3 0 2-1-1-3-4-3-5-5-1-6l4-1c1-2 2-1 4 2l4 3c4-1 4-7 0-14l-3-8-1-1c-2 0-9-10-9-12 1-2 0-3-3-5l-5-3-2-4c-1-5-4-9-8-10-4 0-5-2-2-7 3-7 4-7 15-6h9v-3c0-4-3-12-6-15s-8-3-8 0-1 3-8 0c-4-3-5-3-5-6v-2l2 2 2 1-1-4c-1-2-1-2 2-2h5c1-2-1-6-4-7l-2-2c0-2-8-5-12-5l-5 1v8c0 6 0 8-2 8l-1-7c0-10 0-11 3-15l3-3h-2l-5 1c-2 1-2 0-2-9l-2-12 1-4h4c7 2 11-2 7-9l-1-6-1-4c0-2 0-2-2 0-1 1-1 1-1-2s-1-4-4-7-4-3-4-8c0-6 0-6 4-8 3-1 3-2 4-9 1-10 1-11-4-7l-6 3c-4 2-6 6-6 12l-1 5-2-16 1-5h4c6-1 15-5 16-8l2-9-4-3c-4-1-5-1-7 1l-4 2-3 1c-3 0-3 0-1-1l4-5c3-3 3-4 7-4s7-2 7-5l2-1 3-3c1-2 0-2-2-5-3-3-3-3-2-5l3-4 5-10 2-9-3-3-5-2-7-2c-8-2-11-1-14 6-1 2-1 2-3 1-4-3-5-4-3-1 2 4 2 4 0 4l-1 5c0 6 1 6-7 6l-3 3-2 4-1-6c-2-5-4-8-6-8l-1 9c0 9-3 23-6 28l-1 7c0 4 0 6-2 7-1 1-1 1-1-2l2-4-1-3v-4c2-3 4-22 4-27l-7-21-6 1c-5 2-5 2-4 12 1 3 0 4-6 10-7 6-7 6-8 4l3-6 3-9v-5l-9 1c-7 0-9 1-15 4-10 5-18 11-19 14 0 3-4 3-4 0 0-4 4-9 11-15 9-6 14-9 21-9s14-2 18-7l8-4c3-1 3-1 3-4l2-7 3-5-12-9-1 1c-1 1-9-1-11-3l-3 3-3 5 1-5c0-4-1-9-4-12l-3 3-3 4h-9c-10 0-16 2-18 6-1 3-4 4-11 6h-3l2-2 2-4h2c2 1 2 1 6-2 5-4 8-5 13-5 3 0 5-1 9-4 7-5 8-9 4-11l-12-1-11-1c-1-2-2-2-5 0z"/>
  <path d="M451 54c-3 3-2 5 0 8l4 4c0 2 2 3 2 3v-7l-2-6c-1-4-2-5-4-2z"/>
  <path d="M313 548l-4 1 1 5c0 2 1 6 3 7 3 4 2 5-2 2l-4-1c-2 1-3 5-1 8 1 3 1 3-1 2s-2-1-2 1c0 4 2 7 6 8l5 4v2h-3c-2 2 1 6 6 8 7 2 21-1 26-5 5-5 4-12-2-15-3-2-7-8-7-11 0-2-6-9-8-9l-2-2-4-4-7-1z"/>
</svg>
