<svg xmlns="http://www.w3.org/2000/svg" viewBox="0 0 1024 1024">
  <path d="M572 405c-13 6-25 10-27 10-3 1-6 0-16-5l-13-6-40 17-10 25-8 23h-7a7098 7098 0 00-334-14h-8l-1 4c0 3-3 6-5 6l-3-7-2-7-9 3 4 6c4 3 4 4 5 12s1 8-1 11c-7 7-7 6 0 11 4 2 8 5 11 5l4 2v11l1 10-5 6c-3 4-4 5-2 5l10 3c6 1 9 2 13 6l8 4c1 1 7 0 13-1 9-2 10-2 13 0l6 1c3 0 3-1 5-4l1-5v-2l3-4c2-3 2-3 2-1 1 1 0 3-1 5-1 3-1 3 2 3 2 0 5-2 13-8 5-5 12-9 14-10l6-4 10-7 9-4 7 3c7 4 9 4 20 5h58l23-1c18 1 18 1 24-1 4-1 8-4 10-6 5-4 10-6 16-6 4 0 5 0 10 5 6 7 8 7 12 0 3-6 5-8 10-9 9-2 22 2 22 6 0 2 0 2-2 0-2-1-4-2-10-2-7 0-8 0-11 2s-3 3-3 7c0 7-3 9-10 9-6 0-6 0-10-5-5-5-6-6-9-6s-4 1-7 5l-5 4a442 442 0 00-35 3c-1 0-5 0-9-2l-8-1-4 2c-4 2-7 2-20 3a415 415 0 00-29 1c-5-1-6-1-10 1l-4 3-8-3-14-3-6-1c-2-1-3-1-8 5l-13 9-6 3-3 9-2 9-8 1c-11 3-18 5-20 7l-5 1c-3-1-9 2-9 5 0 4-7 4-10 0-2-3-2-3-14-3l-12 1 4 2c5 0 6 2 1 2s-7 2-7 8l-2 7-2 3 1-3v-18l2-1-15-6c-13-3-14-4-16-7-2-4-4-4-9-1-6 3-8 1-3-5l5-7c1-4 1-4-2-13-2-7-3-9-6-11-4-3-5-3-2-12 1-6 1-6-1-9-2-2-3-2-7-2l-5-1-7-4-11 8c-6 6-9 9-10 12-1 4-6 8-17 15-5 3-6 4-7 7 0 4-2 6-4 7v14c0 8 0 8 2 11 4 4 4 10 2 25l-1 12 2 3c2 1 4 6 5 9 2 7 2 8 0 11l-1 4 4 2c4 1 8 1 10-2 1-1 1-2-1-4-2-1-2-2-1-4s2-3 5-3c2 0 3-1 5-3l2-3-2-3-2-4 2-1c2-2 13-2 111 2l198 5a792 792 0 005-55c0-2 1-2 11-2 9-1 13-1 18-3l7-3 16 5 17 6 15-8 17-8 19 8 18 8 16-3 17-4 11-7 13-8 5-20 4-18 15-10c14-10 14-10 20-10h6l6 12 6 12 20 15 21 15 11 1c8 0 13 1 24 4l15 5 4 8 3 6 14 9 15 9 13-2 13-3 5 5c4 4 7 5 20 9l15 5 11 11 11 11h38l7 4 7 5 9-3c7-2 9-2 18-1h10l5-10 5-9 11 1 12 1 9-5 10-4 16-2 20-1c3 0 5-2 21-23l8-12-18-23-18-24-6-2c-11-3-14-3-26-1l-22 4c-9 0-16 1-24 3-12 3-13 4-23 10-10 7-12 8-22 10-11 3-12 3-24 2l-13-1-15-12-14-12-5-15-6-15-20-7-21-6-15 6-16 7-12-8-12-7v-7c0-6 0-7-6-19l-6-12-18-7-18-8-7 1c-8 1-8 1-16-3s-15-6-22-6l-27 9zM138 575c0 6 0 6-2 5v-12c1 1 2 2 2 7z"/>
</svg>
