<svg xmlns="http://www.w3.org/2000/svg" viewBox="0 0 1024 1024">
  <path d="M206 98l5 15 4 10-2 2c-2 2-3 4-3 11-1 8-1 8-5 11-3 3-5 4-7 4l-5 1c-1 1-1 1-1-1 0-3 0-3-5-3s-5 0-5 2c0 3 0 3-4 3l-5 1-2 3-3 5-1 3c0 2 1 2 5 3 5 0 5 1 6 3 1 3 2 3 5 3 4 0 4 0 4 3s1 4 7 8l7 5v13l1 20v8l-6 1-7 3-1-2-3-2c-2 0-3-1-3-2-2-4-3-2-6 6-1 2-1 2-4 0h-5c-2 2-9 3-11 1-1-1-2-1-6 1l-5 2-2-2c-1-2-3-3-6-3l-10-1h-6l-4 5c-4 6-5 6-19 13l-14 6-9-1c-8-1-8-1-12 1-8 6-10 9-20 30a290 290 0 01-22 35c-3 6-6 9-9 10-9 5-12 7-12 10 0 4 1 7 6 11 3 3 4 4 7 4s4 0 5-2 1-2-2-2c-2 0-3 0-3-2l1-2 1-3 1-2 5-2c3-4 4-2 1 2-3 5-1 11 3 7 3-3 3-11 0-15-1-2-2-4-1-5l2-7 2-5v6c0 4 0 5 3 5 3 1 8-2 9-5 1-4 1-4 3-1 2 5 4 5 9 0 4-4 5-7 3-7l-1-3v-3l5 5c2 2 4 5 3 6l-1 1-6 5-9 5-7 4c-3 2-4 3-4 7-1 7 2 10 7 4l2-2-1 4-4 8c-3 3-3 4-3 7l3 4 2-1c0-2 5-7 9-8l4-1-4 4c-4 3-4 4-3 7v5c-2 2-2 5 0 6s8-5 15-17l8-11 4-2 4-2h3l-4 3-5 3c-2 0-3 2-8 14-2 5-5 10-7 11-2 3-2 3-1 6 2 3 2 4-2 5-3 1-3 1-4 8v7h5l6-2 5-2 3-1-2 4-2 7c-1 4-1 4 3 7 5 4 6 7 6 16v9l4-1c4-3 9-2 16 4 4 3 7 5 8 4 2 0 3 0 1 3s0 6 4 6l4-1 2-1c2 0 2 0 1 2-2 2-2 2 0 5s3 4 6 4c5 0 7-2 7-7 0-4 0-5 5-7l5-2-3 3c-2 2-3 4-3 9v9c0 1 3 4 7 6 9 4 16 11 20 19 3 8 3 8 5 5l7-3c4-1 6-3 8-5 3-3 7-6 7-4l-3 4c-2 3-5 6-9 8l-6 4c1 0 3 2 3 4 2 4 2 4 6 4l7-3c4-1 5-1 7 3 2 3 2 3-1 4-2 1-2 2-2 6 0 7-1 9-11 19l-7 8c1 0 7-2 9-5l9-3h6v3c0 4 2 8 5 7 2 0 2 0 1 2-1 1 0 3 1 5 2 6 3 7 6 7 4 0 6-1 8-4 1-2 1-2 1 1l-2 5c-2 1-2 3-2 7 0 5 0 6 3 8 2 2 3 2 5 0 2-1 3-2 3-4 0-3 1-3 5-5l6-3-4 3-4 4v12c0 11 1 13 2 13l3-2c2-5 9-13 12-13 2 0 2 0 0 1s-5 5-6 9c0 3 0 3 3 3 2 0 2 0-3 3l-10 7c-4 4-4 5-2 7l1 3 9-3 8-3 2 3c2 3 3 3 7 3l8-2c5-4 13-16 12-18l3-7 3-4h8l8-1 4-5 6-8c0-2 2-3 3-3 4 0 13-13 13-18 0-2 2-5 6-9l5-8 4-6 7-13 5-9a650 650 0 0138-8l7 5 8 2 14-4 15-4 1-4 2-4a1362 1362 0 0195 2c5 0 5 0 7 4l2 9c1 3 2 4 6 6 5 3 6 4 12 13l8 14c1 4 2 5 4 6 3 1 5 4 5 7l2 3c1 1 2 2 2 6s0 4 3 5 3 1 3 5 5 16 8 17l4 1c2 0 5 2 8 5l6 5-1 8v7l-5 2-5 2-1 9c-2 8-2 8 6 9 2 0 7 1 9 3l5 2v35l3 1c2 0 3 2 6 10l2 10c-4 8-8 11-15 14s-7 3-8 8l-1 7-4 7c-8 13-9 17-4 12h8c11 3 12 3 24-8 12-12 17-14 25-11 5 2 5 2 12 0s18-3 18-1l3 4 3 3 6-1c4-2 9-2 11-2 5 1 5 1 11-5l5-6 4 2c3 1 3 2 5 8l2 9c1 3 5 3 6 0l3-2c2 0 2 0 1 5l-2 4 4-1c3-2 3-2 4 2l4 3c1 0 2 1 2 11v11l4 3c4 3 4 4 4 8l-2 8c0 2 0 3 3 5l4 2-2 5v15c0 9 1 10 3 12s2 3 2 11l2 17 2 9-6 12c-5 10-7 12-10 13-3 2-4 3-2 5 1 2 2 2 10 0l9-2 2 2c2 2 3 3 6 3l6 2c3 1 4 2 5 6 0 3 1 5 9 12l9 9 8-3c9-4 9-4 17-3h8v-6c0-9 2-12 12-20l7-6v-9l2-14 2-6h9l9 1 3 5a734 734 0 0110 10c3 0 3 0 6-5l2-5h6c11 0 12 1 18 8l6 7 11-21 11-21-1-6-1-6 7-13c6-12 7-13 11-14 5-2 5-2 2-11l-3-6-11-2-12-4-3-23v-11l3-3 7-3 5-2 10-1h7l4 5 8 8 4 3 3-5 3-4 4 6 4 6 7 1 8 1 1-12c0-10 0-12-2-17l-2-6 2-4 2-3-3-3-9-10c-5-8-5-8-11-8-6-1-10-4-10-6l1-7c0-4 0-5 2-5 1-1 2-2 2-6l1-6 6-2 9-6 4-4-11-9-12-9 2-3c9-16 13-26 10-28l-13-1c-15-1-19-3-23-11-3-5-3-6-3-17 0-15 2-27 4-35 2-4 2-5 0-8-2-5-2-6 0-9 2-1 2-1 0-5l-2-7c-1-2 0-3 8-8l9-6 3-9 5-15 3-7-8-4c-7-5-8-6-9-9l-2-5-8 2-7 2-1-3c-9-23-10-26-11-45l-1-19 4-7 4-7-1-6-4-7-10-4-9-3-11 7c-17 10-15 9-19 8-3-1-5-5-5-9l4-3c4-1 5-4 4-7s-1-3 3-4h4v-10h6c8 0 11-1 12-5 0-3 1-3 5-4 7-1 10-4 9-8-1-6-3-8-10-11l-7-2-1-6c-1-7 0-6-14-9l-5-2-4-11-4-11h-6c-6 0-7 0-10-3-4-3-4-3-2-6 3-6 5-19 5-28 1-9 1-9-3-13l-6-5c-3-1-4-2-5-8-1-3-2-8-1-9 0-2 0-3-2-4-5-3-5-3-1-14l5-10-8-11-9-10-20-3-20-3-4 9 7 5 7 6-4 7c-3 5-5 7-8 9-4 1-4 1-8-2s-5-3-6-2l-7 6c-5 4-8 6-14 7l-8 2-5 11-4 11-9-6c-12-8-20-11-32-11-7 0-9 0-10-2l-12-6a282 282 0 00-28-8c0 1-1 3-5 5l-8 5c-6 4-15 15-16 20-1 3-3 5-9 8l-7 5-3-2c-3-1-4-3-8-10-3-7-4-9-4-15v-6l-14-10-14-10-3 1c-8 5-9 7-11 12-1 4-2 6-6 9s-6 5-6 7c-2 11-3 11-8 11l-5 1-5-5c-12-14-19-21-23-22-5-2-6-5-6-9v-4c-1-2 1-7 3-9l2-4 1-13 3-2v-3c-2-1-4-2-14-1-9 0-13 0-22 3-10 3-11 3-15 2-3-2-5-2-8-1-4 1-5 1-10-3l-6-3-11 2c-10 2-12 3-14 5s-5 3-18 7l-15 4-1-5v-4l-7-2c-7-2-8-3-14-2l-5 1-4-4c-3-4-4-4-12-4l-9-2-4-2-9-8c-10-9-13-8-13 3 0 7-1 7-6 4l-6-1c-3 1-4 0-6-1-3-3-2-4 1-10 4-8 2-15-3-14h-11c-2 1-3 0-5-1-3-2-8-3-12-1-4 1-4 1-7-1s-5-3-19-3l-23-1h-7l1 6z"/>
</svg>
