<svg xmlns="http://www.w3.org/2000/svg" viewBox="0 0 1024 1024">
  <path d="M434 77l-4 1c-3 0-7 5-10 11-4 6-12 14-17 16l-7 3c-1 2-4 3-6 4-3 1-4 3-4 5-1 6-4 8-10 10-5 2-8 4-14 10l-11 10c-2 1-3 3-4 6l-3 11-3 7h2c1 1 2 2 2 5l3 8c2 2 2 3 2 7-2 6-1 7 2 14 2 3 3 8 3 10 0 4 3 9 6 11a154 154 0 0021 9l-2-3c1-1 6 3 12 9l6 6v6c-1 7-3 12-5 12l2 3 2 3c-2 2-1 5 2 6l4 2-8 2-11 3-3 1 2 2c3 1 3 1 2 2l-2 4-2 2c-5-2-17-4-19-3l-8 8c-5 5-7 7-7 9 2 3 2 9 1 12v10c-2 8-12 20-13 16l-1-1v5c1 5 1 5-3 9-2 3-4 4-5 3-3-1-3 0-2 4 2 4 1 5-4 2-3-3-4-3-4-2-2 3-4 2-5 0s-1-2-4 0c-7 5-8 6-10 3-3-3-6-2-5 1l-2 5-4 7c-2 3-3 5-8 7-7 3-9 4-12 1-2-1-3-5-1-7s3-6 1-6c-1 0-4 2-6 5-5 6-11 9-14 5-1-1-1-1 3-8l1-4-8 2c-7 3-8 2-11-3-1-2-1-2 2-5 6-5 7-6 6-8l-1-4 2 1c4 3 4 5 2 8l-2 3h3c3 0 4-1 5-7 2-7 3-9 8-12 4-2 7-5 6-7-2-2-13-1-20 1l-7 3-3-3-6-3-5-3-7-2c-3 0-4-1-5-2-2-2-2-3 1-5l2-3-6-3-8-3-15 4c-2 1-2 0-3-1l-3-3-2 1c1 0 0 1 0 0l-4-3-5-5-3-2-2 2-2 3-3-3c-6-7-13-10-23-12-13-2-18-4-18-9l-8-10c-5-6-8-8-10-8l-9-3c-7-3-9-3-9 0s-5 8-8 8l-6-2c-3-1-4-1-10 1l-12 6c-4 3-5 4-5 7s-2 5-7 8c-6 2-7 4-5 8 3 8 0 12-8 15-10 4-11 7-5 12l4 4-4 4c-6 3-7 6-5 14s2 8 0 12c-2 2-2 3-1 4 2 2 1 4-3 6-3 1-5 5-3 8l1 9 4 12 2 8c0 3 1 5 5 8 2 3 5 5 6 5l2 2 4 6c4 5 7 12 7 20 1 5 1 7-1 14-4 10-4 13-1 15 2 2 2 4 2 12v10l3 1 4 1c3 0 4 13 2 17v7c1 6 1 7-1 12l-3 6 4 2c4 3 9 7 9 10l-3 5c-3 5-4 12-2 21v12c3 0 3 3 2 4s-1 2 1 3v2c-3 3-2 5 2 5 4 1 5 2 2 4-2 2-2 3-1 5v10c0 2 0 4-2 5v10c2 12 3 14 11 24 15 17 16 18 18 36l2 12c2 4 29 29 35 33 4 2 5 4 7 9 4 9 6 16 4 21-1 4 0 5 1 8 1 2 4 5 7 6l4 2 12-2 13-4 9-8 9-8c3-1 3-1 5 1l3 2 6-5 9-5 12 2 8 1 3-3c3-3 3-4 8-3 6 0 6 0 6-2-3-5-2-7 1-8 2-2 3-3 3-5 0-4 3-9 8-13l6-6 9-8 8-6 4-3 8-6 7-6c3-1 5-3 8-9l6-13c0-5 2-8 8-15l4-4-3-7c-5-9-5-11-3-31v-18l-4-8-1-4c1-1 0-2-1-3l-4-2c-3-2-3-3-3-9 0-8 0-8 8-12l4-4c0-3-3-6-5-6-4 0-8-3-12-8l-5-5 2-4 2-5-5-4c-3-2-5-3-5-5l-2-8c-3-6-2-7 2-10 3-2 4-4 3-7-1-2-2-2-4-2h-4l-2-8c-3-12-3-13 2-19l4-5-3-5c-3-3-3-3-1-6 1-3 1-3-1-5-2-3-2-3-1-9 3-12 10-20 12-16l6 1c11-2 10-2 12 0l1 3 2-2c1-2 2-2 4-1l6 5c4 7 6 9 8 9s3 0 2-2c0-2 0-3 2-4l3-3h-4l-5-2-1-11c1-3 1-4-1-7-4-4-4-6-1-8 3-1 6-1 6 2l4 6 6 9c1 3 3 5 6 6 2 1 3 2 2 4l2 4v4c-1 2-1 2 1 3 4 3 4 5 1 4h-2l2 3 6 5 5 2 6-2c5-3 6-3 8-2 3 2 4 3 4 7v4l6 1 13 1c7 0 25 5 32 9 4 3 7 2 9 0 0-2 2-3 3-4h5c2 2 3 2 6 0 2 0 6-3 8-5 3-3 5-4 11-5 9-2 11-2 11-1 1 3 4 2 7 0 2-2 2-2 4-1 4 2 10-1 16-7 5-4 8-5 10-3 1 1 3 0 3-2s4-4 12-4h7l7-6c7-7 12-10 22-11 5 0 10-1 15-4 8-3 9-3 15-3 5 1 7 1 9-1 2-1 2-1 6 1 3 2 3 2 15 1 16-3 28-6 32-9 4-2 6-3 14-3 8-1 10-1 15-4 5-2 5-2 20-2l30 3 27 3h11l11 5 11 5c1-2 1-3-8-8-8-6-9-6-14-6-4 0-5 0-6-2 0-1-1-1-2 1-3 2-2 2-9 0-8-2-11-4-15-8l-8-4c-14-4-28-15-33-26l-6-10-3-5c0-6-8-15-10-12-2 2-4 1-4-2 1-2 1-3-5-5l-6-5-3-2c-2 0-4-1-6-4-3-3-4-3-9-3l-6-1h-2l-1-3c0-3-1-4-3-2-4 3-7 2-11-2l-5-5-2 2-3 2-12-4-14-3-4 4-2 2-4-4-4-4-4 2c-5 1-5 1-12-1-19-6-26-11-38-28l-12-19-6-11-2-5v-12c2-8 2-10 1-13s-1-3 2-6 4-5 2-8c-1-1 0-2 1-3 3-2 4-5 3-9v-5c1-1 0-2-1-4l-3-9c0-8-1-10-4-10-2 0-3-1-3-3l-5-22c-1-6-9-13-13-13l-4-3-9-7-6-5c-3-3-4-3-6-2-1 1-2 1-2-7l-1-7-5 1h-6l-4-1c-4 1-10-2-10-4l-2-4c-2-1-2-2-1-4 1-4 1-4-1-3z"/>
  <path d="M276 284l-2 3 5 2c5 1 11 0 11-3 0-2-1-3-5-4-7-3-8-3-9 2z"/>
  <path d="M1012 285c-3 1-5 2-6 4-2 3-2 3-5 2-3 0-5 1-11 5l-6 4c-3 0-20 9-27 14l-12 8c-4 3-6 3-10 2-4 0-4 0-4 2 0 4-10 9-16 8-1-1-3 0-5 3-5 4-6 7-6 15v7l2-2c3-2 7-4 11-4 3 0 6-2 11-5 5-4 8-5 11-5 5 0 22-4 27-7l10-7c9-8 24-15 37-19l11-5-8-21-5 1z"/>
  <path d="M676 727l-9 1c-9 1-10 1-16 12-3 5-6 8-8 9-2 2-3 3-3 5 0 5-2 8-9 9l-7 2v24l-6 6-12 9-6 4 1 12a304 304 0 017 33v5c-2 3-1 4 2 7l3 7c1 4 2 5 10 10 11 7 19 10 31 13l14 5 6 3c4 1 14-1 20-3 2-2 7-3 11-3 8-1 11-2 20-8 10-5 18-12 22-17l5-4 4-3 6-5c3 0 4-2 8-9 7-15 9-29 4-41-3-8-8-13-16-18-5-3-8-5-8-7l-3-3c-2 0-6-4-5-5l-2-3-6-8c-2-4-3-6-2-7 2-2 0-5-5-6l-5-5c-2-2-3-3-7-4-5 0-12-4-19-9-3-3-6-4-10-5l-8-3h-3z"/>
  <path d="M298 887c0 5-2 9-4 9l-3-3-2-4-3 2c-2 3-3 4 0 6 2 2 1 5-1 9-2 3-2 3-8 3l-8-2c-2 0-3 0-3 2l-4 4-2 2 5 3c6 4 10 4 13 0 2-4 2-4 7-3l7 2c2 0 2 0 1-2-2-2-2-3-1-6s2-5 7-7l7-4h-1c-3 2-5 0-3-4s1-7-2-9c-2-1-2-1-2 2z"/>
  <path d="M267 893c5 3 7 4 7 1 0-1-1-2-3-2l-5-1c-2 0-2 0 1 2z"/>
  <path d="M218 902l-7 7c-6 4-8 7-7 10v5l-2 5 9 4 11 4c3 0 6-3 11-10 4-8 6-9 7-6l3 1c2 0 2-1 2-2 0-2-1-3-4-4l-4-1-3-2c-2-1-2-1 0-4l1-3-7-2-8-3c-1-1-2 0-2 1z"/>
  <path d="M272 941l-3 4h4l7 1c4 2 4 2 4 0s-6-9-8-9l-4 4z"/>
</svg>
