<svg xmlns="http://www.w3.org/2000/svg" viewBox="0 0 1024 1024">
  <path d="M235 156l-10 3-7 1v7l3 12c2 6 2 9 4 28 2 38 2 40-1 47l-5 9-5 9-2 5 3 6 3 9 3 11c1 7 2 9 3 9l2 4 4 23 4 21-6 9-8 12c-1 4-3 7-6 8l-5 6-7 6-4 4 6 2 5 4c0 2 0 2-3 0l-5-1c-2-1-2 0-3 7-1 6-2 9-5 14l-6 9c-3 4-9 8-14 10s-6 3-10 10c-3 6-7 11-13 14l-2 3-2 3c-3 0-8 5-8 7s-1 3-4 5l-4 2-1 12v11l4 5c6 6 6 8 2 7-3 0-4 0-8 4-3 3-4 6-6 10 0 4-3 9-5 11l-4 9-3 12-2 7h-5c-7 1-6 1-10 13 0 1-15 12-21 15-2 2-6 4-7 7l-8 9c-6 7-6 6-1 19l3 8h-2c-2-1-3 1-3 7 0 3-1 4-3 6l-5 3c-2 0-8 7-10 11-1 5-2 5-7 7-6 2-10 6-8 7s1 7-3 15l-2 11-1 4-2 4-4 7-2 5-3 5c-3 5-4 9-2 13 2 2 3 3 5 3s3 1 7 7c5 6 5 7 11 8l6 2 3-2c1-2 4-3 5-3 3 0 13-3 13-5l3-2c2 0 5-1 7-3 3-3 4-3 8-1 4 1 5 1 7-1 2-1 3-1 7 1 2 2 6 3 9 4h5l4 8 7 11c3 3 6 11 6 17l2 8 2 3 5-3 9-2c2 0 3-1 3-2l5-3c5-1 7-2 7-4l3-2 6-2c4-2 5-3 4-4l-1-4c0-3 0-3 2-3 3 0 3-1 5-7 2-7 3-8 7-12l9-4c5-1 5-4-1-8-4-3-5-3-7-2l-2 3c0 2-3 1-3-2 0-5 1-8 2-8l3 2 2-1c0-2 0-2 3-1l2 4c0 2 1 3 3 4s3 1 7-1c7-3 9-7 4-7h-2l-1-9c-1-8-1-8 2-11s6-11 6-15h1c2 1 2 3 2 7-1 4-1 6-3 7l-3 4-1 3c-3 2-3 6-1 9l3 3c1 0 2-3 1-4-2-2-1-4 1-4 3 0 3 0 3 4s0 5 2 5l3-1 12-15 6-3c2 0 1 2-2 5-7 7-9 10-10 13s-4 5-8 5c-5 0-6 1-7 5 0 3-1 4-2 3l-7 5c-4 4-6 5-8 5-5 0-9 4-9 10l-1 8-1 5 6 1c5 0 7-1 9-3 4-2 9-3 18-1 11 2 11 2 11 0l1-2c1-2 3 1 3 4 0 2 1 3 7 4l12 1c7 1 7 1 9-1s4-4 6-4l3-3h3l3-1c1 0 2-4 2-9v-10c-2-3-2-4 0-7l3-4 1 8v13c1 3 1 5-1 7l-3 7v4h-7c-4 0-9 2-13 4l-6 3 3 2 4 3 2-1c1-2 2-2 5-2l8 2c4 0 7 1 11 3l6 1c4-1 6 0 4 3-2 1-6 1-10-1l-6-1c-1 1-3 0-4-1l-4-1-3-1c-2-2-4-2-4-1l-2 5c-3 2-3 2-7 1s-5-3-2-4l1-1c0-1-8-3-13-3-7 0-7 1-5 6l2 11c1 9 1 9 3 10h5c4-2 13 0 17 3s9 5 11 5 8 6 8 8l3 6c2 5 3 5 13 11l13 7h10l13-2h5v-5l1-7v-4c-2-3-2-7 0-9l1-5v-3h184a1907 1907 0 00204-5c16 0 17 0 19-3 3-2 4-2 14-3l15-2h14c9 1 10 1 14 4l7 6 4 3h74l105-2h31V268l6-12 6-11-23-1-37-2c-12-1-13-2-17-5-5-4-7-4-16 2l-6 4H673l-253 1-6 2-9 3-7 2c-5 3-7 3-12-1l-7-4-8-2c-3-1-5-1-10 1-5 1-6 2-7 4-2 4-5 4-6 1-2-4-5-6-14-6-11-1-17-3-18-7-2-2-3-3-8-4h-7l-4 1c-2 0-3-1-4-3l-3-3c-4 0-9-2-10-4l-2-3-1-2c0-3-8-11-13-12-8-2-10-2-14 2-2 3-3 3-3 2l2-6 2-4-2-6-2-10c0-4 0-5-4-2-3 2-5 0-3-3s1-4-2-4l-2-1 3-2c1-2 3-3 5-3 3-1 3-7-1-12-4-4-4-4-8-2z"/>
</svg>
