<svg xmlns="http://www.w3.org/2000/svg" viewBox="0 0 1024 1024">
  <path d="M757 3c-5 2-5 2-5 8 0 5 0 5 4 7s5 4 5 7l2 6v12c2 3 2 3 1 6l-2 4c0 2-8 7-11 7l-6 2-8 3c-5 1-6 1-8-1-3-2-3-2-7-1l-5 2-4 2h-10c-3 1-4 1-5-1-2-1-2-1-4 1-3 3-3 3-5 2-2-2-3-2-11 3-8 4-10 4-14 3-4 0-5-1-6-3-2-3-12-11-14-11l-6-3-8-3-6-2-7-1c-3 1-4 2-5 4-1 3-2 3-4 2h-3l-2-5c-2-4-2-4-5-4h-4l-4-1c-2-1-3-2-6-10-3-9-3-9-6-9s-4 0-5 2c-2 2-3 2-6 2h-9l-5 2v-3c0-2-1-3-3-4s-2-1-4 1l-2 2-3 1c-1 2-2 2-5 0l-5-2-2 3c-3 2-3 3-3 6 0 5-1 6-3 4-1-1-2-1-4 1s-2 2-6 0l-3-2-2 2c-1 2-2 3-6 3l-8 3-8 2-6 3c-1 1-2 1-7-1-9-3-14-3-21 1l-5 3-3-3c-2-2-3-2-5-2l-5 1s-2 2-2 5l-1 4h-14c-23-1-33-1-35 1-1 1-2 4-2 10-1 9-3 14-5 15l-4-3-3-2-2 4c-2 5-3 6-19 5-14 0-14 0-17-3-2-2-4-2-8-2-5 0-6 0-9 3l-3 3-4-3-4-2-4 3-9 5c-3 2-4 3-4 5l-3 3-2 2c0 2-1 3-3 4s-3 3-3 5c-1 5-3 6-9 6-6-1-6-1-10 3-5 6-7 7-12 3-3-2-4-3-9-3-4 0-6 1-9 3l-8 4c-3 1-4 0-7-2l-3-2-2 3-6 2-5 3c-2 2-2 2 0 4l2 4c1 3 0 4-2 7-4 4-6 4-4 0v-4c-2-1-2-2 0-4 2-3 2-3-1-5l-2-2-3 3c-6 4-6 7-1 15l5 7-1 8c0 6-1 8-3 10l-6 8-3 5h-6c-5-1-5-1-5 1l-1 2c-2 0-4 6-4 9 0 4-1 5-5 10s-4 6-4 11c1 4 1 6-1 9l-2 5v6c-1 4-1 4-7 5l-8 1h-10l-3-1-3 6-3 7h-5c-4 0-4 0-4 2l2 5 4 9c4 5 5 9 3 12h-11v3l1 5c1 2 1 3-2 5l-3 5h-2c-1-1-2-1-3 2l-1 3-9-3-10-3c-2 0 11 9 14 9l1 4-1 5-2 4c0 3 4 5 10 5l3 1-2 2c-2 0-2 0 0 3 3 3 3 4-1 4-2 0-2 0-1 3l3 5 3 4 2 7c3 4 3 4 14 5 5 1 6 2 6 6 0 3 18 22 20 22l4 4c2 3 3 5 3 9l2 8c2 3 4 2 4-1 0-2 0-2 3-1l4 2c1-1-1-4-4-6-4-2-4-3-1-7 3-2 3-2 5 0l4 2 5 3c1 1 2 1 3-1h5l5 3c4 0 4 0 6-3s2-4 4-3c2 2 3 5 3 11 0 5 1 6 3 8 1 2 2 3 1 4 0 1-1 1-3-2-3-4-6-4-7 0 0 3-2 4-3 1l-2-1v-3c0-2 0-2-2-2h-3c-2-2-8-3-9-1l-2 1c-1 1-2 0-3-2v-3l-3 3c-2 3-6 4-7 1 0-2-2-1-3 1s-1 3 1 5c2 4 2 5 0 5-1 1-3 2-3 4-1 3-3 3-3-1 0-3-2-3-7 3-4 4-8 13-8 16l-1 3c-2 1-2 3-2 10 0 8 1 10 3 6 3-4 3-4 6-1s3 3 3 1l1-2 3-2c2-2 5-1 9 4 3 3 4 3 4 1 1-1 0-3-2-4-2-3-3-5-1-8l2-2c0-1-4 0-6 2-1 2-1 2-3-1v-6l1-6c-1-2 0-3 1-4 2-1 2-1 2 1l1 2c1 1 6-1 9-4l2-2c1 0 4 8 4 12 0 5 3 8 7 7 3 0 3 0 3 2l1 5 2 8 1 8 1 2 3-3 4-4v6c-1 5-1 7 1 12s2 6 1 8v6c2 6 4 7 8 3l4-3c3 0 8-3 9-5 0-1 1-2 3-2s2-1 2-4c0-2 0-3 2-3l2 3c0 2 1 3 3 4s3 2 3 4c0 5 5 9 9 8l6-3c3-3 8-3 17-2 6 1 6 1 7-1 0-3 6-7 7-5 2 1 7 0 10-2s4-2 6-1l5 1c5 1 13 6 15 7 2 3 3 2 6-1 3-2 3-2 6-1 2 2 9 3 13 2l1-4 1-6 2-3 4 3c5 3 8 8 8 12 0 3 3 6 6 6 1 0 2-1 2-5 1-5 2-7 5-8 2-1 2-1 4 3 2 5 5 8 9 10 3 1 4 3 1 5-1 1-1 1 1 3l7 1c4 0 5 0 5 2 1 3 5 4 5 1l5-1c6 0 6 0 6 2 0 4 4 5 8 2h4l1 3h2c3 0 8 3 6 4v2c1 1 0 2-2 4-6 6-8 6-15 6l-9-2-5-1-8 7 6 4c5 3 6 4 5 5-3 7-11 6-19-2-9-8-19-16-27-20-7-3-8-3-12-2-4 0-5 0-8-2l-9-3-9-3-3-2s-2-1-2-3c-2-3-6-6-11-7-4-1-5-2-5-5-1-2-2-3-5-4h-8l-6-1c-1-1-2-1-3 1l-4 2c-2 0-6 6-9 12-2 7-4 8-9 10-6 3-12 2-18-2-4-3-5-3-7-2-2 2-2 2-3 0-2-3-3-2-3 5l-1 7-1 3-2 4-2 6c0 2-2 4-3 5l-4 3c-3 3-8 7-11 7-2 0-3 1-4 5-2 9-2 8 5 10l10 5 4 3c2 1 4 11 3 15-1 6 0 8 3 4l2-2 4 3 11 6c5 4 6 5 8 10l8 13 7 14c1 6 1 6-1 11l-7 7c-5 5-6 9-5 20l1 8 4 5c12 13 11 13 10 14-2 2-3 5-2 11 1 4 2 5 4 7 4 2 4 2 8 1 3-2 4-2 4-1l2 5 2 6c0 2 1 1 5-2 4-4 5-9 4-10l-1-14v-12l5-3c6-4 13-5 17-3 2 1 3 5 1 12-1 3-1 4 1 5l4 2c1-1 3 1 7 6l6 10c0 4 6 15 8 15s2 0 1 2c-2 3-3 8-1 13v6c-3 4-3 8 0 10l1 1 4 2c3 2 4 3 4 5 1 3 4 8 4 5l1-7c1-5 1-7-1-10l-1-9c0-6 1-6 3-6h3l-2-4-1-4h5l-1-2c-2-2-1-6 1-8 2-1 3-3 3-5 0-1 1-3 4-5s4-2 7-1l7 1c2-1 3 0 5 3l2 8 1 8 1 3 1-3 2-2v2l3 2 1 3c0 3 0 4 3 5l3 3 2 4c2 2 2 2 0 6-3 5-3 7 1 6 2 0 3-1 3-3 0-3 4-5 6-2l2 3c0 3 2 8 4 9h7c6-1 6-3 2-7-3-3-4-5-3-8 0-2 0-3-3-5-10-7-12-11-8-18l2-3h-2c-2 0-3 0-3-2 0-3 3-5 5-4h2l1-3c2-1 2 0-3-11l-3-9-3-9v-6c0-3 0-5-2-7l-2-4-1-5c-2-3-3-4-5-4h-3v-12l-2-4c-1-2-2-5-4-6l-2-5-2-3-1-4-2-4c-2-2-3-3-3-10l-2-12c-2-5-1-7 4-8 1-1 2 0 3 3 1 4 7 11 7 8s2-3 8-2 6 2 6 5c0 4 1 4 4 3h3c0 2 2 3 5 3l4 2c2 3 2 4 0 4-2-1-2-1-2 1s-1 3-2 3c-4 0-2 4 3 9l6 5c2 0 3-3 2-5 0-4 3-5 7-3 2 2 4 2 7 2 5-1 5-2-1-3l-5-2c-2-1-2-1 0-4 1-1 2-2 4-1l4-1 10-1c9-1 11-2 11-4l-3-4c-3-2-3-5 0-5s3-2 1-6-2-4-3-2l-3 3-2 2c0 2-1 2-2 2l-1-2-1-3c-1 0-1-2 1-6 2-6 2-8 0-8-2-1-9 1-9 1l1 4 2 6c0 3-8 2-9-1l-3-3c-6 0-9-6-9-16l-2-5c-2-1-3-4-1-4l3-2c3-2 2-7-2-10-2-3-3-3-9-2h-6v-7l1-3c0-2-1-2 9 0 2 0 3 0 7-3 7-7 9-8 19-7l9 1c0 2 1 2 5 1 3 0 4 0 4 2l-4 3c-6 1-7 2-5 5s5 3 8 0l4-2 2-1 2-3c1-2 1-2-1-2l-2-2-3-5c-1-2-2-2-3-1-2 2-5 1-5-1l1-2h3l7-2c6-3 7-3 7 1 0 2-1 3-2 3l-1 1-1 4c0 2 0 2 2 2s4 1 5 3l3 1 3-1c2 0 7 9 9 15 1 5 3 7 6 5 2-2 2-2 6 0 3 2 4 3 4 6l2 7 3 4c0 3 1 5 7 5 3 1 4 1 5-1l2-7 1-7c2-3 2-3 1-6l-3-7c0-3-1-4-2-5-2 0-3-2-1-3 3 0 2-3 0-3-3-1-3-8 0-8v-3l-1-3-1-3-1-6c-2-4 0-7 5-9 3-1 3-1 3-5s-1-5-2-7l-6-6c-3-4-7-6-16-8l-6-3-8-2c-5 0-6 0-9-5l-5-5-3-5c-1-4 3-2 6 2l5 4 8 2h13c4 2 11 1 13-1 2-1 2-1 3 1l3 1v8c-1 1 0 1 3 2l4 1 1 4c1 3 1 3 3 2s3 1 0 3c-2 3-1 5 2 5 5 0 8 6 5 9-2 3-2 3 0 7s2 4 6 4 5 1 6 3 1 3-4 5c-3 3-4 4-4 6s0 2 3 2 4-1 4-3c0-4 4-4 4-1l2 4c5 2 6 1 6-1-2-6 5-4 8 2l3 3c3 0 6-2 6-4l2-4c1-2 2-5 2-12v-9l-7-1-11-1c-3-2-4-2-6-1h-4v-2c2-2 1-3-1-3l-7-3-1-6-2-8-2-7c0-3 0-4-2-4l-1-2 1-2v-1c-2-2-1-10 1-14l2-3-4-2c-7-5-8-10-5-15 1-1 2-1-5-4-5-3-14-3-14-1s-5 2-7 1l-4-2c-4 0-14-4-14-6l-3-5c-3-3-3-3-5-2-3 1-10 1-11-1l-10-7c-2 0-6-4-7-7l-1-8c0-4 0-5-2-5l-4-5-5-6c-3-2-3-2-8 0l-5 2h-5l-5 1-2 1-3 4c-1 4-2 5-3 4-2 0-2 0-3 2l-4 3-16 8c-4 3-4 6 0 5l6-2c9-1 9-1 9-3-1-3 0-3 2-3s3 1 4 3c2 3 6 4 9 2s9 2 13 8l7 6 7 5c2 3 5 5 6 5 2 0 4 2 4 5l2 3 3 5c2 3 2 4 5 4 5 0 7 1 8 5 4 7 0 13-5 8-3-3-4-4-4-1s-2 3-13-2c-2-1-4-1-7 1l-2-1 3-1c4-1 4-4-1-5l-3-1-2-2c-1 0-1-1 1-3s2-3 1-5c-1-3-4-5-7-4l-3-2-4-2c-3 0-3 0-3 2 1 2 1 2-1 2l-3 2-2 1-5-10-2-5c-1-3-2-3-6-3l-9-1c-2-1-4-2-5-1l-4-2c-1-2-3-2-5-2-3 0-4 0-7-4l-3-5c-1-1-2 0-4 1-4 2-7 3-11 1-2 0-2-1-2-3 1-2 1-2-1-1-4 1-2-2 3-4 4-2 5-3 6-2l6 2 8 2c6 1 9 0 10-4 1-3 1-3 5-2 3 1 4 0 9-3 3-2 5-4 6-7 2-6 2-8 0-8l-4 2h-2l2-3c2-3 2-3 0-7l-4-4c-3-1-3-2-3-5 0-2-1-3-3-4l-4 1c-1 2-1 1-3-4-1-6-1-11 2-13l6-1c4 0 5-1 4-3v-5c1-3 1-3 4-1 2 1 4 2 4 4 1 2 2 2 6 2 6 0 10 3 11 8l4 6c3 4 3 9-1 9l-4 3-4 3v-2c1-1 1-1-1-4-4-3-5-2-6 5 0 5 0 5 3 6s4 1 6-1l6-2c2 0 3-1 3-2l2-2 7-3c5-2 5-3 5-7s-1-5-4-9l-3-7-4-6-4-6-4-6-8-10c-2-3-4-5-7-6-5-2-11-6-12-8l-3-5c-2-1-2-4-3-12l-2-13-7-9c-7-6-8-7-8-11-1-6-1-6-7-10-6-3-7-6-9-14l-2-9c-1-4-1-4 1-8l2-7c0-4 4-13 7-15s3-7-1-8l-3-4-2-6-2-3h4c3 1 4 1 5-1v-9l1 1 4 1c4 1 4 0 4-2 0-3 1-4 5-4l7-2c3-1 4-2 4-5s1-3 4-4c2 0 3 0 4 2l-1 5 2 5c2 2 2 3 0 5-1 3-7 5-13 3-3 0-3 0-3 2l1 2c2 0 5 6 6 10 0 3 1 4 3 4 6 0 9 2 11 6 3 4 11 10 16 12l12 4 7 2v7l-2 10c-1 4-1 4 2 5 3 2 5 5 7 9 1 3 1 4-1 6l-2 2 2 1 6 1c3-1 6 0 10 2 6 3 8 3 17 3l10-1-4-2c-3 0-4-1-4-3l-5-4c-11-4-18-9-22-17l-7-8c-5-3-5-9-1-15l3-5 4 2 8 5c3 3 4 3 11 2h7l2 4 7 10 5 7c0 3 5 11 8 13l5 6 4 4 4-1c2 0 2 0 1-3 0-2 0-4 2-5 3-4 3-6 1-7-2 0-2-1-1-1l-1-4v-4c1-3 1-4-2-4l-12-7c-8-4-11-6-13-9l-3-4-2-4c-1-4-1-4 1-7 2-4 2-4 5-3 2 1 4 1 6-1 3-1 4-2 9-1 4 1 6 2 11 6 6 5 6 5 12 6 8 0 10 2 12 10l6 7 5 6 1 2 6-2c3-1 4-2 3-3v-2l-5-6-9-11c-2-5-3-6-5-7-2 0-3-1-3-2l-8-5c-7-3-8-4-9-8-1-3-2-4-4-4s-2 1-2 6 0 5-3 5c-4 0-9-3-11-7l-3-9-2-6h5c4-1 5-1 5-3l-4-3c-6-2-8-3-12-9-2-5-3-6-6-6-4 0-4-2 0-8 3-5 3-6 10-8l8-2 5 3c5 4 14 7 19 7 3 0 4-1 8-4l12-8 7-4v-4c0-4 0-5 3-7l4-3 17-6 2 3c5 7 8 11 11 11l5 2 4 1 5 1c2 1 3 0 5-3 10-10 10-10 14-10l5-1 2-4 2-4c0-2 1-2 6-2s5 0 6 3c2 4 7 6 16 6 7 0 9 1 11 2l10 6c8 3 10 4 16 4a409 409 0 0140 4c5 3 7 6 7 11 0 3 0 3 7 0 3-1 5-2 5-4l4-4c4-2 5-3 5-6l1-3 4-2c0-1 1-2 2-1l1-1 3-4c4-2 4-2 4-7l-2-9v-5c3-4 2-5-1-5-2-1-2-1-1-3 1-1 2-4 2-9l1-9 3-1c3 0 5-1 9-5 7-7 10-8 15-6 3 1 3 1 4-2 2-4 2-11 0-17l-2-14v-8h-4l-4-2c-1-3-11-11-15-13l-8-1c-5 0-6 0-7-2s-3-2-5-2l-5-1c-2-1-4 0-7 2z"/>
  <path d="M589 143l-4 3-5 6c-2 5-2 7-1 10 0 3 0 4 4 4l4 2 3 4 3 3 2-2 7-3 5-2v-14c-1-1-1-2 1-3v-2l-4-3-4-2-4-2c-3-3-3-3-7 1z"/>
  <path d="M679 257l-4 1-2 2c0 3-3 7-5 7l-2 2c-1 1-2 1-3-1l-2-4-3-2c-2-2-3-2-5-1h-4c-1-2-2-2-7 0l-5 2v4l1 5c1 0 2 2 1 7 0 7 0 8 4 6h4c2 0 2 1 2 3 0 4 1 5 6 4 3 0 3 0 1-3l-1-7c0-4 0-5 2-6 3-1 4 0 4 4l-1 3c-2-2-1 0 1 3l3 5 6 3 3-2v-4l-3-6c0-3 0-4 3-6l3-4c0-2 3-7 5-7l1-2-1-5c0-2-1-3-3-1z"/>
  <path d="M50 291l-10 2c-7 0-8 0-10 3s-2 3-1 6l3 3v1c0 2 2 6 4 6 1 0 2 1 2 3l3 4 2 2 4 4c2 2 3 3 4 8 2 7 4 12 8 13l13 6 10 4-2-7c-2-5-3-6-4-5-2 2-6 2-6 1s-2-3-4-3c-5-2-6-3-7-13l1-8c3 0 2-2-2-3-3-1-4-3-5-6-2-5-1-5 4-8s8-11 3-11l-2-2c-2-2-6-3-8 0z"/>
  <path d="M630 329v10c0 2 1 2 4-1 3-4 4-7 1-9h-5z"/>
  <path d="M780 353l-5 1-7 1c-4 1-4 2-4 5 0 2 0 3-3 4l-9 2-8 2c-2 2-4 3-7 1-1-2-2-1-4 1-2 1-3 3-3 5l-2 5c-1 3-1 3 1 7l4 3 6 3c6 3 13 4 16 2l6-9 3-6h5c7 0 9 1 9 5 0 2-1 3-5 5l-8 4-6 2c-4 2-5 5-3 5l5 5 2 4 6 1c5 0 8 0 12 3 4 2 7 2 12 2 6 0 7 0 10-2l2-3-3-5c-5-7-6-9-5-11 0-3 1-3 3-2 1 1 2 2 3 7 0 6 2 9 7 9 4 1 4 1 4-1s-1-5-3-7c-4-8-7-13-6-14l-2-2c-2 0-3-2-4-5-2-3-3-4-7-6-4-3-5-4-2-9 1-3 1-3-2-5-2-1-3-2-2-4 0-1 0-2-2-3h-4z"/>
  <path d="M511 371l-3 5-4 6-1 4c-1 1-2 2-1 3 0 2 1 2 5-1l4-5 3-5c3-6 3-8 0-8l-3 1z"/>
  <path d="M82 376c0 2 3 6 5 8 3 1 4 1 5-1 1-1 1-2-1-3-3-4-9-6-9-4z"/>
  <path d="M472 380l4 7 3 8c-1 2 0 2 2 2l5 2c3 2 5 1 7-4 2-4 2-4 1-5l-3 1c-2 1-3 1-4-2l-2-2-6-4c-5-4-7-5-7-3z"/>
  <path d="M457 383l-2 2c-2 0-5 4-4 5h4c2 1 3 1 3-1l4-3 2-1-2-3c-3-3-4-3-5 1z"/>
  <path d="M572 417l-1 5-1 9c2 0 6 6 5 6l-1 3c0 2 0 2 3-1 2-3 3-3 5-2s2 3 0 3c-2 1-2 1 0 4 1 3 1 3 2 1s4-2 4 0h4c4-1 5-2 4-3 0-2-3-4-6-7-5-4-6-5-6-8s-1-4-4-8c-5-5-8-5-8-2z"/>
  <path d="M694 471c-2 0-2 1-1 2l2 4c0 3 2 4 5 4l1-4c1-5-2-8-7-6z"/>
  <path d="M737 473c-7 0-12 4-11 8 0 3 4 7 8 9s11 14 10 19-3 7-7 8c-3 0-7 3-7 4 0 2 11 14 14 16l3 2v-3c1-5 3-6 6-6 2 0 4-2 3-5l3-6c3-3 5-8 3-9l-1-8-1-10v-4c1-1 2-2 2-5 0-4-1-6-4-4-2 1-2 1-4-2-2-4-6-5-10-5l-8 1z"/>
  <path d="M689 479c-1 1 0 3 1 3l1-2c0-2-1-3-2-1z"/>
  <path d="M766 481c0 2 2 4 5 4l4 1h2c0-2-4-5-7-6s-4 0-4 1z"/>
  <path d="M142 488c1 1 0 2-1 2v4c0 4 2 8 4 9l2-3c1-3 1-7-2-12-1-2-3-3-3 0z"/>
  <path d="M130 494v9c0 6 0 6-2 9l-4 3c-2 0-5-3-6-6 0-3 0-3-1-2l-2 2-2 4-2 7-3 9c-1 5-1 5 1 7 3 2 8 3 8 0 2-2 1-14 0-15s-1-1 1-1c1 0 3 2 7 14h-3l2 6c1 3 2 5 4 6 3 2 3 2 6 0 3-3 5-2 11 2 3 3 5 3 9 4 5 0 5 0 6-3 2-5 1-6-2-9l-12-16c-1-4-1-4-3-3l-3 1c-1-1-2-7-1-8s-2-15-4-19c-2-5-4-5-5-1z"/>
  <path d="M148 506l-3 2c-1 0 3 7 5 7 3 2 7-2 4-4l-1-3c1-4-1-5-5-2z"/>
  <path d="M603 563c-5 3-7 5-7 7 3 11 3 11 5 10 3-1 8 2 8 6l5 7 7 10c2 4 4 5 6 2 4-4 5-13 1-10-1 1-1 1-1-1l1-4c1-1 0-2-2-4-2-1-2-2-1-3l1-4c0-2 0-3-4-3-9-2-9-2-10-6l-3-5-1-2c0-3-1-3-5 0z"/>
  <path d="M143 574c-2 0-4 7-4 12 0 3 1 4 3 5l4 5c3 8 3 8 6 9 2 0 4 1 5 5 3 4 3 5 5 4 3 0 4-3 3-5-1-1 0-4 3-6s6-1 9 3l2 2 2-2c2-2 2-2-1-5l-6-5-3-4c-1-3-1-4-8-6-6-2-8-3-11-8-4-5-5-5-9-4z"/>
  <path d="M824 591l-2 1-4 3-4 2-4 2c-2 2-2 3-1 4 2 1 2 2 1 4 0 4 1 4 4 1 4-4 9-5 12-3l3 3c0 3 7 8 10 8 1 0 4-1 6-4l6-4 3-1 4-2c3 0 7-1 7-3l-2-1c-2 0-1-3 1-5 1-2 1-2-1-2h-6c-5-3-6-2-6 1l1 2-11-6-9-1-8 1z"/>
  <path d="M457 596c-4 1-4 4 0 7l2 1-2 2-2 2h2l3 1c1 2 6-1 6-3l2-6 1-3c-2-2-10-2-12-1z"/>
  <path d="M444 606l1 4 2-1 1-2c-1-2-3-2-4-1z"/>
  <path d="M777 609c-2 0-4 2-5 4-3 3-4 3-11 3-8 0-12 1-12 5l-4 5-4 6c1 2 1 2 6 2l10-3c2-2 6-4 9-4 5 0 7-1 14-11l6-8h-4l-5 1z"/>
  <path d="M555 611l-1 1-3 3v17l7-6c7-7 8-11 5-15-3-2-8-3-8-1z"/>
  <path d="M629 611c0 2 2 4 7 8 3 1 6 4 7 6l4 3 3 3c2 2 2 3 5 2 3 0 4-1 4-3l2-5v-5c-1-2-2-3-7-4l-8-2h-4c-2 0-3 0-3-2-1-2-1-2-5-3-4 0-5 1-5 2z"/>
  <path d="M619 639c1 3 1 7-2 10v2l2 3c0 4 1 4 4 0 3-2 3-4 3-7 0-6-1-9-5-11s-4-2-2 3z"/>
  <path d="M668 638v3l1 5v4l7-3 8-3c2-2 1-4-1-4l-5-1h-3c0 2-3 1-3-1s-2-3-4 0z"/>
  <path d="M565 641c-2 1-4 7-3 8l-1 9 1 8c1 0 7-7 7-9l3-5c3-2 3-2 1-4l-3-1c-2 0-2-1-2-4s-1-4-3-2z"/>
  <path d="M805 662c0 5 0 7 2 9l2 2v-2l-1-6v-4h3c2 0 2-1 0-4l-3-2c-3 0-3 1-3 7z"/>
  <path d="M465 657c-4 0-14 5-15 7-2 3 0 5 5 3l6-2 3-2c0-1 2-3 4-3l4-3h-7z"/>
  <path d="M419 673c3 3 6 4 7 1 0-2-3-4-7-4h-3l3 3z"/>
  <path d="M571 681c-3 2-5 6-5 9s1 4 3 1c2-2 4-1 5 1 0 2 1 3 2 3l3-10c0-4-5-6-8-4z"/>
  <path d="M835 681l-2 2c-3 0-3 2 0 4l3 3c0 1 5 5 8 5s3-1 0-4l-3-5-3-4c-2-2-2-2-3-1z"/>
  <path d="M688 684l-4 4-3 2-3 1-3 2c-2 0-3 1-3 3l-1 2v2l2 6 4 7 3 6c1 4 2 5 6 1 1-2 3-3 5-3s2-1 5-9l3-12c0-4-5-15-6-15l-5 3z"/>
  <path d="M653 691c-6 3-6 4-4 6 1 1 1 1-1 3-3 1-3 2-3 6 0 5 0 5 4 7l4 2 5-5c4-5 5-6 4-8s0-4 1-6v-4h-4c-3 0-3 0-2-2 1-3 2-3-4 1z"/>
  <path d="M847 701v3c6 2 6 2 4 4-1 2-2 3-3 2h-1l2 6c1 5 2 7 5 7 2 0 3-1 3-2s1-2 3-2c3-1 4-4 2-8-1-3-1-3-3-2-1 1-1 1-3-2-1-3-4-5-6-6l-4-2v2z"/>
  <path d="M592 707l2 7 2 8c2 3 4 4 4 2l3-4 2-2c0-2-6-11-8-11l-3-2c-2 0-2 0-2 2z"/>
  <path d="M638 707c-3 2-4 5-1 9l2 3v-2l2-12-3 2z"/>
  <path d="M630 715c0 2 1 2 3 2 2-1 2-1 0-2h-3z"/>
  <path d="M744 722l-2 1-4 4-6 5c-3 1-4 2-5 4 0 1-1 2-3 2l-5 2-2 1-1-1c-2 0-1 4 1 5 4 1 6 1 8-1l3-1 7-6c7-8 10-10 16-10h3l-4-3c-5-3-6-4-6-2z"/>
  <path d="M880 727c-4 0-7 2-7 3l-4 3c-2 0-6 3-8 6-4 4-6 6-9 7-4 1-4 1-4 5 0 3 1 4 3 6 3 3 4 3 4-2 0-6 3-8 9-8 4 0 7-1 12-4l13-7c5-2 7-3 7-5 0-1 0-2-2-2l-4-2c-2-2-1-2-10 0z"/>
  <path d="M580 736l-3 6c0 6-5 8-8 5-2-2-4-3-4-1 0 3 1 6 3 6 4 2 4 4 0 4l-4-2c0-2-5-6-6-6l-3 15h4l10-1 8-1c3-1 3-2 3-6 0-7 1-10 2-10l3-4 2-4-2-1-2-2c0-1-1-1-3 2z"/>
  <path d="M591 743c-4 0-4 2-2 4 2 3 5 3 5-1 0-3-1-4-3-3z"/>
  <path d="M662 744c-2 3-2 10 0 10l5 5c3 4 4 5 6 5s3-1 3-5c1-6 0-8-3-9l-4-4c-1-3-5-4-7-2z"/>
  <path d="M649 754c-4 1-11 9-11 10 0 2 1 2 6 0s9-6 9-9c0-2-1-2-4-1z"/>
  <path d="M614 762c-1 1 0 5 2 5l3 2 4 2c2 1 2 1 2-2 0-2-1-3-4-5-4-3-5-3-7-2z"/>
  <path d="M950 763l-4 5c-3 4-3 5-2 6l2 2 2 1 2 2 2 4c1 1 2 1 3-8 0-6 0-6-2-6-3 0-4-2-2-3l2-3h-3z"/>
  <path d="M786 766l2 2c1 2 2 4 0 4h-8c-7 0-7 0-7 2l2 5c3 6 5 8 8 7 3 0 4-2 2-4l-1-3c1-2 2-3 7-3l6-2c0-2-7-9-9-9l-2 1z"/>
  <path d="M873 771v4c1 3 2 3 4 3 3-1 4-3 3-6-1-2-2-3-4-3s-3 1-3 2z"/>
  <path d="M675 790c-2 1-2 2-1 3l3 1c1 0 2 1 2 4 2 7 1 8-3 8s-4 1 1 4c4 2 4 2 7 0l4-2-1-5c0-3-1-5-5-9-5-5-5-5-7-4z"/>
  <path d="M896 790l-3 2c-2 0-3 4-2 6h3c2-1 3 0 4 3 2 4 2 4 5 3 2-1 4-2 4-4 0-1 0-2-3-1-3 0-3 0-2-2 2-3 1-4-1-5l-4-2h-1z"/>
  <path d="M669 795l2 3c2 0 1-4-1-5-1-1-1-1-1 1z"/>
  <path d="M992 795l-6 3c-2 0-7 2-11 5l-11 5c-4 1-8 4-10 8l-4 3c-2 0-5 5-6 9 0 4-4 8-7 8s0 9 4 10c2 0 2 1 2 4l-2 13c-2 8-2 9 0 12l2 4 4-1c4-2 9-8 13-14 3-6 5-8 10-11 3-2 4-3 5-2l2 1c2-1 3-6 2-8-1-1-1-3 1-5l4-5 4-8 4-10 1-5 1-5c2-3 3-11 1-12l-3 1z"/>
  <path d="M716 804c-2 3-2 3-1 5 2 1 10 2 12 1v-3l-6-4-3-2-2 3z"/>
  <path d="M398 805l-3 5c-1 4-1 5 1 6 1 2 2 9 0 9-1 1 1 12 2 12l6 3c8 3 9 2 9-4s1-8 3-8l2-1 1-2-2-3-3-3-3-2c-3 0-6-4-7-8 0-5-3-6-6-4z"/>
  <path d="M917 826c-3 2-3 4 1 4l9-3c-1-2-7-2-10-1z"/>
  <path d="M883 876c-2 1-5 8-5 9 1 2 0 3-1 5l-2 8-2 7-2 6-4 7c-4 2-4 4 0 8 2 3 3 13 2 16-2 2-1 5 2 5l1 1c0 2 1 2 3 1 1-1 2-2 1-3 0-3 3-6 6-6s2-4 0-5c-2-2-2-2-1-4v-3l-4-5c-2-4-2-5-1-8l2-4 1-3 2-4 1-5 1-10 1-14-1 1z"/>
  <path d="M488 910c-1 3-2 5-1 8v17h-3c-6 0-8-1-8-9-1-11-3-11-4 0a314 314 0 01-5 34l-1 5v4l3 3 3 2c1 3 1 3 12 2l14-1h4c3 1 10 3 14 2 3 0 4 0 6 3l1 3 9-1c7 0 8 0 11 2s4 2 10 1l8-1h3c3 3 6 5 10 5l6 3c2 4 3 4 10 5l10 1c2 1 4 6 4 9l-2 13-1 2c0 3 2 3 7 0 3-2 5-2 9-1h14l10-2c9-1 15-3 21-5 8-3 14-3 23-2h11l15-1c11 0 13 0 19-3 7-3 13-3 16-1l5 2 4 1c0 1 4 1 9-1 4-1 6-2 8-6 2-2 3-5 3-7l1-3c1-1 2-2 1-4 0-1 0-2 2-3s2-3-2-4c-3-1-3-7 0-12 3-3 4-7 2-6l-3 2c0 2-2 3-4 4l-2 2c0 2-8 9-10 9l-3-2c0-2-9-2-12 0l-3 2-2 1-3 2c-3 0-11 5-12 8-1 2-2 2-4 2l-6-3c-2-1-2-2-2-7l2-12 2-7c2-3 1-4-6-4-7-1-13 0-20 3l-7 2c-3 0-8-2-8-5l-11-1-14-1h-7c-4 1-5 1-6-1-1-1-2-3-1-5 0-3 0-3-2-3l-2-1h-3c-3 2-3 2-6 1-2-1-4-2-9-1h-9l-8-1c-4 0-6 0-8 2-4 4-9 5-18 5l-11 2h-12l-1-8-1-9-4 1c-2 2-3 2-9 0l-6-4c0-2 0-2 5-2 5 1 6 1 7-2 2-2 2-3 1-6s-2-5-5-6c-3-2-4-2-6 0l-2 4c0 2-1 3-2 3l-1 2-2 2h-13l-8-1c-5-1-6-2-6-3l-3-16c0-1 0-3-2-4-1-1-2-1-3 2z"/>
  <path d="M852 947c-6 2-11 6-11 10l1 2c3 0 17-9 17-11 0-3-1-3-7-1z"/>
</svg>
