<svg xmlns="http://www.w3.org/2000/svg" viewBox="0 0 1024 1024">
  <path d="M133 160l-5 1c-2-1-3-1-2 1l-2 3-1 2 2 2c0 2 1 3 2 3l2 3 1 6c0 3 0 3-3 2-9-2-16-1-16 2l-2 3c-1 2-1 2-4 0-2-1-3-1-8 1-11 6-11 6-13 5l-3-4c0-2-1-3-2-3l-7-3c-7-5-21-7-26-5l-5 2c-4 0-12 3-14 5-2 1-2 4 1 8 2 3 3 5 1 7-2 1-2 1-5-1l-4-6c-1-4-5-7-8-7l-3-2-2-3-3 4c-4 4-4 4-2 5l6 4c3 3 3 5 0 12-2 3-3 10-2 10v3c-1 3-1 3 1 2 4 0 4 1 1 5-4 6-2 8 3 3 2-2 3-2 6-1l4 1c1-2 0-8-2-10-3-3-3-6 2-6l4-1-1-4c0-6 1-6 5-4l5 2c3 0 3 0 3 2 0 3 0 3 3 2 3-2 5 0 6 4 2 5 5 8 8 6l4-1 1-2h6c4 3 9 2 10 0l3-2c2 0 2-1 2-3s0-2 3-1c3 0 3 0 3-2 0-4 6-7 9-4 1 2 1 2-1 5-3 3-3 6-1 5l4 3c3 4 5 4 5 0 0-2 1-3 2-3l3-2h5c2 1 3 2 3 5 0 6 2 7 9 0 6-4 9-5 11-3 2 3 8 2 9 0v-6c0-4 0-4 2-4l4 1 5-1 6-1c1 1 2 6 0 7l-1 3 4 1 6 1c1 1 3 0 8-2 9-4 11-4 11 0 0 3-3 8-6 8l-6 3c-4 3-4 4-4 6 0 3-1 3-7 4-14 2-14 2-21 8l-8 8c-2 1-2 2-1 4 1 1 1 2-1 3-2 2 0 3 8 3l9 2c2 1 4 1 4-1l2-3c2-3 6-2 9 2l5 4c3 0 5 3 3 5h-4c-2-1-4 0-8 2l-12 6c-8 4-16 9-16 11-1 2 0 3 3 2 4-2 9 0 13 4 2 4 3 4 6 3 6-1 7-1 8 1l-3 2-5 4c-2 2-2 2-1 5 2 4 4 6 8 3 2-1 2-1 7 1 3 2 5 2 9 2h5l-1 4c0 3 0 3 2 2l1-4c0-2 1-2 3-2h5l3-1c1 1 1 0 1-1 0-2 0-2 5-1 4 1 4 1 6-1l7-4c3-1 4-2 4-6s-2-7-5-7l-4-1c-2-2-2-2-1-4 2-2 2-3 1-4-1-2-1-5 1-5 3-2 6-1 7 2s1 3 9 3c7 0 8 0 8-2s1-2 3-2 3-1 3-4 1-4 2-4c5 0 8 5 5 7-2 1 3 4 8 4 6 0 8 1 8 3l2 3c2 2 14 4 15 3h11a219 219 0 0040-4l4 1a168 168 0 0113 1c3 0 5 1 9 4 6 5 7 6 5 8-1 1-3 1-8-1-6-2-8-2-10-1l-8 2c-5 0-5 1-6 3 0 2-1 2-3 2l-16 1-10 2c-6 0-14 3-17 6l-6 2-4 1 3 3c4 4 6 7 6 10l2 3c2 0 2 1 2 2-1 2 1 3 4 2h5l6 2c4 1 11 7 13 10 1 4 3 4 6 1 4-3 5-2 5 1 0 2-2 3-5 5l-6 4-4 1-13 2-5 1h-4l-4 1c-5 0-9 4-8 7v8c0 5 1 6 3 4l3-2 3-1c1-2 3-1 5 1 1 2 1 2 4 0 4-2 11-3 11-1l-3 4-4 3h5c4-1 6-1 6-3l3-3c2-1 10 0 12 2 3 2 5 1 5-2 0-4 1-5 5-4 4 0 7-1 7-5 0-2 1-3 2-3 2 0 2 0 1-3 0-3 1-7 3-7l3 2c2 3 4 3 5-1 1-2 2-3 5-3 5-1 6 0 7 4 0 2 1 4 4 6l4 2-3 3-3 4c0 1 9 4 12 3l4 1c3 1 4 1 6-1l3-2c2 0 8 7 8 9 0 3 4 5 8 2h7l6 2c3 1 4 5 2 10-2 3-2 3 0 6l1 3-4 4-7 5c-4 1-4 3 0 5 2 0 3 2 3 2l6 1c6 0 7 0 10 3l4 3 3 2c1 2 5 6 9 7 2 0 3 1 3 2l3 2 3 2 4 2c4 0 7 2 7 3 0 3 5 2 7-1 2-2 3-2 7-2 6 1 8 0 7-6-1-5-1-5 2-6 4-2 13-1 16 1l6 2c4 1 6 1 7 3l6 2 6 2c0 2-3 4-8 4l-6 2h-3l-5 3-6 2-2 2 3 1 6-2h3v6l-1 8 2 3h2c2-4 2-5 4-6l4 1 3 2 1-2c0-4 1-4 5-4 2 1 2 1 2 4-2 7 0 15 4 13l6 1c4 2 5 2 6 0 2-2 4-1 6 2 0 2 2 3 2 2l3 1c3 2 3 7 0 8l-3 2-4 1c-3 0-3 1-3 4l-1 4-2 4c0 5-1 7-3 7v2l1 3 2 1 6 2c2 2 4 2 8 2 3 0 5 1 8 3s3 2 6 1c5-2 7 0 7 3s2 5 6 5c2 0 3 1 3 3v3h7c1-1 3 0 4 1 2 2 2 2 4 0 3-3 12-3 15 0l2 4c0 2-1 2-4 2s-3 0-4 4c0 4 1 5 5 9l4 5 3-2c4-3 5-3 6 0 1 4 3 1 3-4 0-2 0-2 5-2 4 1 5 1 5-1s2-2 6-1c9 2 9 2 9-1s1-4 3-4l2 2c1 5 1 6 3 3h4l11 2c7 0 8 0 8 2 0 3-2 4-6 4l-5 1c-2 3 0 5 7 6 3 0 8 1 11 3l5 1v9l-1 9-5 1c-7 0-8 0-8 5l-1 5c-1 2 0 2 5 5l8 3 2 2c1 2 2 3 5 3l6 3 5 2c3-1 4 0 4 3 0 8 1 12 3 12l1 3c-1 2 0 3 5 8l5 8c0 3 4 9 6 10l4 1c3 0 7 4 8 8 0 2 0 3-2 4-4 1-4 2-2 5l5 6 3 5c0 3 2 5 3 3s2-1 2 1l1 3 1 3c-1 3 0 4 2 7 3 3 3 4 3 9l-3 6c-2 2-1 4 3 4s5 3 2 6l-2 3 5 6 4 6s1 2 3 2l3 3 2 1c3 0 7 6 7 9s-1 4-3 5c-5 2-5 4 0 3 3 0 4 0 4 2l-2 3c-2 3-1 4 4 2 4-2 5-1 5 3-1 3-1 3 2 3s3 0 3 4 0 4 3 1c2-1 2-1 4 1l1 4 1 4c1 2 2 2 3 0 1-3 5-4 5-1s5 7 10 8c6 1 11 7 11 12 0 3 0 3 3 3l6 1c1 2 1 2-1 5-2 2-2 3-1 4 2 2 4 1 4-1s5-5 7-3l1 3v4c-1 2-1 3-4 3-2 0-3 1-5 3v5l2 2c0 3 3 5 7 3h6c4 2 5 1 4-4 0-3 0-4 2-4s3 2 3 5 5 3 9-1c3-3 4-3 1-8-2-3-2-4-1-5h5c4 3 5 5 4 8l-1 4c0 2 2 3 3 1 1-1 2 0 3 1h3v-16l-1-2 3-1c2 1 2 1 3 5l2 5 3 5c2 5 4 5 5 1l3-4c1 1 2-4 1-6l-5-4c-3-3-5-8-2-7l15 6c3 0 7-3 6-4l-1-4c0-2 0-3-4-3-3 0-4-1-4-3 0-3-6-7-8-6h-7c-2 0-4 2-6 4-5 4-9 5-13 3l-4-2c-4 0-5-3-3-5 2-1 3-1 7 1 5 2 8 1 10-2 0-1 1-3 3-3 4-2 4-3 0-3-3 1-4 0-7-1-2-2-4-2-12-1h-9l-2-4-2-4 8 1c5 2 7 2 9 1 3-2 2-3-2-5l-5-3c-1-3-7-6-9-6l-4-1-6-4c-5-2-7-3-9-2l-4-1c0-2 1-3 3-4v-2c-2-2-1-5 1-6 3 0 12 4 20 10 8 5 11 6 13 5 4-2 9 0 7 3-2 2 0 4 8 8l9 5c4 2 11 3 14 0 2-1 4-1 7 2l4 1h4c2 1 3 0 5-1 3-2 3-3 2-5-2-3-2-4 0-7 3-5 6-5 7 0s3 5 4 2c1-4 3-4 8-2 3 2 4 2 6 1h4l7-1 5-2v-10l4 1c4 0 4 0 5-2v-5c-1-1-1-1 1-3l2-4c0-2-1-2-4-2l-4-2c-2-2-4-3-5 0 0 2-4 2-6 1l-1-5c0-4-2-5-5-2h-5c-2-1-2-1-1-7l-1-6-2-2h-4l-4-1c-1-1-4-2-9-2-8-1-11-3-9-7 1-3 0-3-2-6-3-3-4-4-10-4s-7 0-7-3 1-4 3-5h20c1-1-1-13-3-17-2-5-2-7-1-9s2-3 1-4l-1-5c0-1-1-4-4-7l-4-7c0-2-1-3-2-3l-1-4c1-4 3-5 7-5h3l-1-5c0-5 0-5 2-6 3-1 3-3 1-10 0-2 0-2 2-2l4 1c2 2 2 1 1-5v-9l1-5c0-2 1-3 4-4 2-1 3-2 2-3v-6l-2-4h-3l-2 2c-2 0-2 1-2 3 0 3 0 4-2 4l-6 3-5 3-6 4-8 5c-5 2-5 2-7 11 0 6-2 7-5 4-2-4-3-9-1-11s2-3 1-3l-5-4-3-4-4 2c-5 3-10 3-13-1-2-2-3-2-3-1 0 3-8 5-12 3s-6-8-6-15c-1-7 1-9 6-9 3 0 4-2 3-7l-1-6 1-2h9l8 1 3-4c3-3 4-3 10-4l8-1c2-2 0-3-5-3-3 0-5-1-7-3l-6-4c-3-1-5-7-4-12 1-6-1-8-8-8-5 0-6 0-8-2-1-2-2-3-3-2l-4-1c-3-2-3-2-6 0-2 1-3 2-4 1l-3-3h-7c-2 1-2 1-4-1l-4-2-7-4c-6-5-7-9-4-16l1-6 2-5c2-4 2-4 0-7-4-5-4-7-4-11l2-7c2-3 1-4-3-2-2 2-6 2-8 0-2-1-2-1-5 1l-6 2-5 1-5 2c-3 2-3 2-5 0v-5l2-5c0-2 1-3 5-7l6-5 4-6c3-4 3-4 1-5-1-2-6-1-8 1l-2 1c-2 0-2 0-2-4 1-5 0-6-4-3h-4c-2-3-1-4 5-7 4-2 6-3 6-5s0-3-2-3l-3 1c-3 4-6 0-3-4l-1-5v-11c-1-3-1-4 2-4s3-1 1-3c-2-3-3-3-3 0-1 3-2 3-7 1-2 0-3 0-4 2-1 3-4 4-6 1-3-3-2-5 3-8 3-2 3-4 0-4l-2-5c0-2 0-3-3-4-2-1-3-1-5 2-2 2-2 2-5 1-2-1-2-2-2-4 1-2 0-2-3-4-3-1-3-1-5 1-2 1-2 1-8-2l-11-7-4-3c-2 0-1 5 1 10l2 4-2 2c-3 2-3 6 2 10 3 3 4 5 4 7l1 4c2 1 2 3 2 5-1 4 0 4 3 5 4 0 6 2 4 5s-1 5 1 7l2 4 2 4 2 5 1 3c2 0 6 5 6 7s-2 3-4 3-3 1-2 4l-3 9-4-2c-3-2-5-3-9-3-6 0-7 0-5-3 1-2 0-3-3-10l-8-11-5-10c-1-4-2-5-5-5l-4-1c-2-2-3-1-3 2l-1 4c-2 2-6 12-6 15l-1 2-7 11c1 5-2 6-8 3-4-2-5-5-1-5 2 0 4-6 6-14l1-6c1-1-1-7-2-7l-1-3c0-3 4-7 7-7l-2-4c-4-2-4-3-4-5 1-3 0-4-3-6-4-4-5-5-3-7 2-1 3-1 6 1h5c3-2 5-10 5-19 1-6 1-7-1-8-2 0-3-2-4-3l-3-2-3 5c-1 3-3 4-4 4-3 0-4-3-4-7 1-3 1-3-2-3l-4 2-3 1c-3-1-7 2-9 6 0 2-2 3-2 3-1-1-3 0-6 1s-5 3-7 6c-3 5-4 6-7 6-2 0-3 1-4 4-2 5-6 9-9 7v-6c1-1 0-2-1-2-1-1-3 0-6 4l-5 4c-1-1-2 0-2 2-1 2-6 5-7 3v-6c0-4 1-5 5-6 6-2 6-5-1-8l-8-7-5-5c-4 0-5-2-5-5s3-8 5-8l4 1c3 0 6 1 9 4l8 3 2-3 3-1c2-1 5-1 7-3 3-2 3-3 3-7l1-6c1-2 1-2 4-1h3l3-2c4-2 4-5 3-8l-1-7c2-5 5-5 9-1 6 6 12 7 12 1-1-5 2-5 12 0l10 4c2 0 2-2 0-5v-6c0-4 0-4-2-4l-6 2c-3 1-3 1-9-3l-7-4v-3c0-4 0-4-4-5-3-1-4-1-8 1s-5 3-8 2c-4-1-4-1-8 3s-8 6-12 4l-3 2-2 2-4 2c-2 3-6 5-9 5l-4-2c-2-1-4-2-7-1-4 0-5 0-6-2l-1-4c0-2 3-4 7-4l6-1 5-2c3 0 7-2 5-3l-10-1-11-2-1-4c0-3 3-5 8-4 3 1 3 0 3-2l-2-5-1-4c2-2 6-1 8 2 3 3 7 5 10 4 3 0 3-1 3-4-1-3 1-5 5-6l3-1-2-3c-1-3-2-3-6-4l-7 2c-3 2-3 2-4 1l2-5c3-5 2-7-4-4-4 2-7 2-11-2-1-2-2-2-6-1-4 2-7 0-7-3s-2-3-4 0l-3 4-3-3c-3-2-4-2-6-1l-7 2c-2 0-3 1-3 5v12l-1 9c0 5 0 6-2 7-3 3-8 2-10 0s-2-3-2-8l-2-5-2-3c0-3 3-7 4-7s2-1 2-4l2-6-1-2-1-5c0-5 0-5-8-7l-6-2c-3-3-9-4-11-2-2 3-3 3-8-2-6-4-6-4-8-3h-4c-2-1-2-1-5 1-1 2-3 3-5 3-4 0-7 4-5 6l3 1c2 0 2 0 1 3l-4 2-4 2-6 3-6 2-3 2c-4 0-10 6-7 8 2 3 1 4-2 4s-4 0-5 2c-1 3-8 6-11 4-3-1-3-2-1-9l5-9c2 0 6-4 6-6s2-3 5-3l7-3 4-3 1-2 1-2c1-1 1-8-1-9v-4c3 0 4-4 3-7l-1-3-2 2c-2 3-4 2-4-2 0-3 0-3-2-2-3 2-6 9-6 12 1 4-1 7-3 7s-3-1-3-5v-4h-5c-7 0-9 1-9 5 0 2 0 2-3 2l-5-1c-1-1-2 0-3 2 0 2-2 4-4 5s-3 3-3 5l-3 5c-1 1-3 3-3 5l-5 6c-4 1-4 5-1 6 3 2 5 4 3 5h-10c-1-1-3-1-6 1-5 3-7 2-7-4 0-3 1-3 4-4 3 0 4 0 4-2l-1-3-1-4-2-6c-2-3-3-4-1-6l1-4c0-3 1-3 6-5 4-1 6-3 7-4 0-1 2-3 4-3l3-2c-1-2-10-1-12 0l-3 1-2-1c-2 0-5-2-5-4s1-3 3-3c4 0 6-2 3-2s-2-4 1-5c5 0 5-1 4-3-1-3-2-3-4-2h-9c-8 0-9 1-8 5v5c-2 1-2 3-1 5 0 3 0 4-2 4-3 1-12-4-12-7l-3-2c-3-1-4-1-4 2l1 7c1 3 1 4-1 7l-4 4c-2 0-2 1-2 4 0 2 0 3-2 3-1 0-2-2-2-5l-4-8c-3-3-4-4-4-8-1-5-1-5-3-6l-3 1c0 3-4 3-13 3-6-1-8-1-10-3s-5-3-7-3l-4-1c-2-2-3-2-4 2-2 3-7 4-16 4-5 1-6 1-8 3-3 3-3 3-7 1a49 49 0 00-21-1c-5 0-9-1-7-4l3-1 1-3c0-4 2-5 6-4h7c3-1 6-2 7-1h2l-2-3c-1-2-3-4-5-4-5-2-3-7 4-8 4 0 4 0 2-2-1-1-3-3-5-3-4-2-4-4-1-7 2-2 4-2 6-2 2 1 4 0 6-1 3-1 5-2 9-1l6-1c0-1 1-2 3-2 3 0 5-3 4-6 0-4-3-4-11-4h-5l-1-3c-1-1-2 0-4 1l-4 2-1 3c0 5-4 7-9 3l-4-3c-1 0-5 9-5 12-1 3-1 3-7 1-3 0-6 2-6 7-1 3-1 4-4 4-2 0-3 0-5-2-1-2-3-2-6-3-6 0-7 1-7 4-1 3-4 3-5 0l-4-3c-2 0-3-1-2-3l-2-3c-3-1-13-2-18 0-6 2-10 0-12-4-2-3-3-3-5 2-2 3-2 3-4 2h-10c-4 1-4-2-1-6 2-2 3-3 2-5-1-1 0-2 1-5l2-2-5-1-9 1c-3 1-7 1-6-1 1 0-2-9-4-10l-1 2z"/>
  <path d="M425 545l-5 2c-2 0-2 1-1 3v5c0 2 1 3 2 3l12 4 3 1c3 0 2 4 0 4l-5 4-2 3h3l4-1 3-1c4 1 9 0 9-2 1-1 2-2 5-2l7-1c1-2 1-2-1-3l-7-6-14-9-11-6-2 2z"/>
  <path d="M1008 802l-2 2 3 1c4 2 5 4 3 6l-1 2c0 2 1 3 4 4 5 1 6 1 7-6l2-8v-3h-6l-10 2z"/>
</svg>
