<svg xmlns="http://www.w3.org/2000/svg" viewBox="0 0 1024 1024">
  <path d="M333 71v71h-22l-84-2c-1 1-2 2-2 5 0 4 0 4 7 5 2 1 5 3 8 7 6 5 6 5 8 4 1-2 3-2 6-1 5 0 8 3 10 8 1 3 3 5 7 8s5 4 6 8c3 9 5 12 15 15l8 3 1 5 2 6c4 3 8 9 10 14 1 4 1 4 6 5 2 1 6 2 7 4 5 3 6 3 6-2 0-3 0-3 3-3 4 0 6 2 4 5-2 2-2 2 4 8 5 5 7 6 11 7 3 0 6 2 8 3l8 2h6l1 4c1 3 2 4 6 6 7 3 10 6 19 18l8 11 1 7c0 7 0 7 2 7s2 1 2 3l-1 8v6l3 2c4 1 5 2 3 5-3 2-2 3 3 3l10 2 11 2c7 1 8 1 8 6v4l7 1c5 0 7 1 9 2 0 1 2 2 3 1l2 4 1 5c2 1 2 1-3 4l-3 1 3 3 3 2-6 5-6 5 3 2 1 1c-2 0-2 1-2 2 1 2 0 3-2 5-5 3-5 4-1 5h2l-2 3-3 6c0 3 0 4 3 6l4 3-3 2-2 3 3 2c2 2 2 2 0 2s-5 4-5 7l3 1c2 0 2 0 2 2l-2 3H307c-145-1-154-1-156 1l-55 94a3666 3666 0 01-62 107c0 2 5 9 17 25l16 23-3 6c-2 4-4 6-9 8l-6 4v27l-3 3c-8 9-10 15-6 22l2 6 2 11c3 10 2 16-1 19s-5 8-5 12c0 2-1 4-4 7l-4 5c0 2-1 2-3 1l-3 1c0 2 8 10 12 13 6 3 33 24 41 31l50 40 23 14 16 11c9 8 27 18 42 24l17 8a247 247 0 0067 19c20 2 28 3 52 1 14-2 39-2 71-2 16 0 45 9 71 21a544 544 0 0061 24c2 0 1-3-1-5l-1-10c0-9 1-13 10-19l7-6 1-5c1-3 2-4 11-9 11-6 15-9 19-16 2-3 3-4 6-4l6-3 6-3c3-1 4 0 11 4 10 5 11 5 11-4 0-5 1-7 5-14 4-9 5-10 14-16 8-6 9-6 14-5 4 0 7 0 11-2l6-3c1-1-2-18-3-21l-5-3c-5-2-6-4-2-7 2-2 2-3 1-5-2-4-2-8 0-11 2-2 8-1 9 1l2 3c1 1 2 1 6-4l6-5 5 1c6 2 6 2 13-3l3-3 4 3 6 2 1-5c0-6 1-8 5-9l6-5 7-9 7-8c3-3 3-3 12-3 8 0 9 0 10-2l1-13 2-15c1-3 1-3-3-7-3-4-4-5-4-8s-1-5-6-12c-6-8-7-10-7-13 0-4 0-5 4-8 5-3 10-12 11-19 0-3 0-4-2-6s-2-3-1-8c0-2 1-6 3-8 2-3 3-4 17-10l22-8c4-2 9-5 22-16 16-15 30-25 48-34 8-5 11-7 19-15 7-9 9-10 13-10a317 317 0 0132-29c15-14 23-22 24-25l8-7 7-4 5-1h5v-4c0-3 1-4 2-5l3-2-3-2-10-6c-4-2-9-5-10-7-3-3-24-14-27-14l-8-5-8-6-10-9c-9-8-16-11-20-9-3 1-3 1-2 4 1 2 4 5 9 7l8 7c1 2 2 3 5 4 4 1 9 6 7 8 0 1-7 1-13-1-2 0-2 0-2 3 2 9 2 9-2 15l-5 10c-1 4-2 5-5 7l-5 1c-1-1-1-5 1-6l1-4c0-3-1-4-6-6l-14-8-9-7c-1-2-3-4-10-8l-12-1c-9 0-9 0-13-4-4-3-4-3-13-3l-16-2c-7-2-19-2-23 0l-13-2c-1-1-2 0-4 2l-6 2h-4v-9l2-32 8-135c5-88 6-143 5-229V1h-8L546 0H333v71z"/>
</svg>
