<svg xmlns="http://www.w3.org/2000/svg" viewBox="0 0 1024 1024">
  <path d="M684 2c-5 3-19 19-19 21l-3 8c-6 12-13 22-26 37l-5 6-1 17-2 18c-1 1 0 4 1 8 1 3 3 9 3 16l2 11c1 1 1 3-1 8l-3 9c0 2-2 4-6 8l-5 5v10l-1 9-6 2c-4 2-6 4-11 10s-6 9-6 12c0 2-1 5-3 7l-4 8c-1 5-4 10-7 11l-4 3-4 3-1 4-2 5-1 6-3 6-4 8-7 10c-7 8-8 9-6 15l1 17c1 10 1 11 4 15l3 4-7 13c-7 12-7 13-15 18-7 4-8 5-15 5l-7 1-4-5c-5-4-5-4-9-4a429 429 0 01-23 4c-5 2-12 14-10 19l1 5c-1 3 0 4 5 4 4 0 8 4 8 9 0 4 0 5-5 13-5 7-6 8-15 13-11 7-20 10-26 8-3-2-4-2-3-5l-2-4c-1-1-1-1-3 1l-4 5c-1 2-2 3-5 4l-6-1c-6-3-30-5-34-3-2 1-3 1-5-1-3-3-6-4-5-2 0 2-4 4-7 4l-6 2c-9 7-20 9-32 6-3 0-4-1-5-3 0-2-1-3-3-1l-2 7c-1 4-1 7-3 9-3 4-4 4-8 4s-7 1-15 5c-13 8-17 8-21 2-3-6-6-6-11-3l-12 6c-7 4-8 4-13 3-3 0-9-1-13-3l-11-2-33 2c-33 1-29 0-41 10l-10 7c-7 3-11 7-10 9 1 1 1 1 4-2l7-5c3-1 6-3 8-6 8-8 11-10 23-11l13 1 4 1h5l4-1 5-1c13 2 16 2 16 1 0-2 2-1 3 2 2 3 2 3-1 6-2 1-3 3-2 3 1 1 2 0 6-2 4-3 5-3 7-2l15 1c13 0 13 0 14-2 1-4 6-7 14-9 6-1 6-1 8 1 2 3 1 4-4 7-5 2-5 2-5 4 1 5-1 6-22 6l-19 1-1 5c-1 4 0 5 1 6 2 0 2-1 2-3 0-5 1-5 6-2s5 3 8 1l5-3c2-2 5-3 8-3 6 0 6 0 7 3v5l1 4c2 3 2 11 1 14l-5 7-3 6c-1 2-4-1-6-5 0-2-2-3-2-3l-3-2c-2-2-2-2-5-1l-5 1c-2 0-3 0-2 3 0 3 0 3-3 3h-4v8c0 6 1 7 2 7h7c6-1 7-1 9 2l2 10c1 6 1 7-1 7l-6 11-5 11 3 1c3 1 4 4 1 4l-7 1-4 1-12-22 2-3 2-2-5-4-5-3 3-4c7-8 7-8 2-8-4 0-6-2-2-2l4-3c3-2 3-3 3-5-2-6-4-8-9-7l-4-1c0-2-4-1-6 2s-2 4-1 7c2 7 0 8-4 2-2-4-2-4-1-7l1-4-16 1h-7l-3 1c-1 2-2 2-8 1-11-1-19-3-26-8-8-5-16-7-20-5-1 2-3 2-5 1-3 0-3 0-2 2l2 7 5 9c4 5 6 6 9 7l7 2 9 4 10 6c5 4 4 2 9 26 1 4 2 6 6 9s4 3 7 2 4-1 5 1l2 5v2h17l4 4c8 5 11 11 12 18 0 4 1 5 3 7s2 2 2 7l-3 11-4 9c0 3-2 6-6 10l-10 15c-5 8-5 8-5 17 0 7-1 10-2 13l-2 8c0 2-1 3-2 3-2 1-2 2-1 3l1 5c0 3 0 4-2 5-3 2-7 10-7 14l-2 3-3 8-2 6c-1 1-3 3-3 5-1 4-6 9-12 13l-2 2 3 2c4 2 11 5 14 5 2 0 3 1 4 3l1 2c3 0 8 6 10 11l3 6c5 1 7 5 3 7-2 1-3 7-1 12 1 4 6 9 11 10l3 3c0 3-2 4-5 4l-4 2c-1 2 0 4 2 10 3 6 4 7 7 8l4 2-2 3-2 3 2 3 2 4c0 2 0 3 4 3 6-1 6 0 6 3l-4 4c-4 1-8 6-8 10 0 3 4 13 6 15 1 1 2 2 4 1 3-1 3-1 2 1l-1 7c-1 5-1 5 1 8 4 4 4 8 2 15l-2 5 4 5c2 4 6 8 9 9a193 193 0 0115 11l1 5c0 4 0 5 4 9 3 4 4 4 9 5l9-1c5-2 6-1 8 4 2 4 2 5 6 5l7 1c5 0 12 4 15 8 3 3 3 3 15 4 12 0 12 0 14-2 1-2 2-2 6-2 5 0 6 0 9-4 5-4 10-4 12-1 2 5 5 7 9 7 6 0 7-1 7-5 0-2 0-3 4-4l6-2c2 0 5-4 8-11l5-8 2-4 2-5c2-2 6-3 6-2l2-1c2-1 3-3 3-5s0-2-4-2c-2 1-4 1-5-1l-2-2 6-2c4-1 8-2 11-5l8-4 5-1c1-2 0-6-1-6l-4-4-3-4 2-1c2-2 2-2 7 2 2 3 5 5 6 5l8-5c7-5 8-8 6-11-2-2-1-2 2-1l3 1c2 0 5-8 5-14 0-4 0-5 8-13l9-13c3-6 5-17 5-24v-15l1-14c2-3 2-5 1-8v-11c-1-6-1-8-3-11l-3-8c0-5-1-5-3-5-1 1-2 0-2-1l-6-1c-4 0-5 0-5-3-1-3-2-2 12 0 4 0 5 0 8-3 4-3 5-5 2-5l-1-2 1-1v-2c-1-2-2-10-2-27 0-21 0-24-2-26-3-4-3-8 0-12 2-3 3-5 3-11l3-16 4-14c1-3 2-4 4-4 3 0 5-3 2-3s-6-2-6-5c-1-4-4-7-6-7s-3-2-1-4l6-3c4-1 7-3 16-11 2-2 2-3 2-8 0-4 0-6 2-9l3-6c0-2 1-3 5-6 4-2 6-4 6-5 0-4-1-6-4-7-4-1-9-8-9-12 0-2 0-2 2-2h2c0-2 4-6 8-8l6-1 8-2c3-2 4-2 8-2 18 2 18 2 22 0l4-5c0-5 11-20 20-28 4-4 5-4 13-4l11-1 1-3 3-4c4-2 14-14 14-16l3-4 10-10c5-6 7-7 9-7s3-1 3-2c0-2 5-4 11-4h5l8-9 12-12c3-2 4-3 4-5 0-3 4-7 11-11 4-3 13-14 15-19 1-4 3-5 10-8 5-3 10-4 16-5 10-2 15-4 15-7l7-7c6-5 7-6 5-10l-2-8c0-5 0-6 3-8l7-2c3 0 3 0 3-3l1-2 9-6c5-4 7-5 10-5l6-3c3-2 4-2 9-2 5 1 6 0 10-3s10-6 16-7c8-1 11-3 16-13 11-24 11-25 11-31 0-4 1-6 4-12l4-7 4-5c3-3 4-6 5-9l2-4c2-1 1-5-1-14-2-8-2-8 0-15 3-12 4-15 8-16 6-2 11-8 16-17 4-8 5-10 6-18 1-11 2-12 8-20 3-4 6-11 6-15 0-2-1-4-4-6l-4-2h-60c-4 2-6 2-14 0a155 155 0 01-45-16l-3-12c-3-12-3-12-12-21l-8-11c-2-4-7-9-11-12l-9-11-8-13c-3-5-7-10-7-12-2-3-10-8-15-10l-5-2c-6-7-24-15-33-15l-6 2z"/>
</svg>
