<svg xmlns="http://www.w3.org/2000/svg" viewBox="0 0 1024 1024">
  <path d="M503 176c-4 1-9 4-24 13l-21 12c-8 4-22 14-29 22l-7 7c-5 3-20 11-29 14l-10 5-41 22-8 2-17-1-25-4c-17-3-23-3-36-2l-12 1-17-5-19-6-10 2c-17 4-24 5-37 3h-7l-11 6a194 194 0 00-27 17l-11 7-8 6-20 2-27 1c-4-1-8 0-13 1-9 2-15 3-21 1-6-3-14-3-15-1v4l9 9 3 3c0 2 3 4 11 11 3 3 5 4 7 4 7 0 10 2 17 12l7 10 2 6c2 6 2 6 6 7h25v-11h-4c-5-1-7-3-5-6l1-5c0-4 1-5 3-2 1 1 0 3-1 6-1 4 0 5 6 4h7c1 1 1 1-1 4-4 5-2 7 8 7 5 0 6 0 8-3s2-4 1-7c-2-7-1-10 4-15l4-5-1-3c-2-4-2-4 0-6 2-3 3-2 2 1v6c2 4 1 5-3 9-5 4-5 7-3 12 1 2 2 3 4 3 3 0 5-1 14-11a135 135 0 0119-17c2-2 2-2 0-4l-3-2-3-3c-1-3-1-3 3-7l5-5 3-2h1c1 2-1 4-4 4-1 0-3 1-5 4-3 5-3 6 0 6 2 0 3 1 5 4s3 3 6 3l5-1 8-1c8 0 8-1 5-6v-3c1 0 2 1 2 3 1 4 4 2 7-4 5-8 8-10 20-11 6-1 9 0 11 1l6 1 8 3 7 3c1-1 3 0 4 1l5 2c2 0 4 2 6 6 5 6 12 12 14 12 3 0 8 4 11 8l7 9 3 4c-3 0-11-7-14-12-2-4-3-5-8-7-4-2-7-4-7-6l-8-7c-5-5-7-6-12-6l-8-2-10-5c-9-4-9-4-22-1-8 2-9 4-12 11-3 6-9 11-15 11-3 0-5 1-10 4l-13 9c-7 5-8 6-11 11-4 6-4 7-3 13l2 6c2 2 2 2 0 2-3 2-5-1-5-5l-1-4c-2-1-12 5-19 11-5 4-6 4-7 10-1 4-2 7-6 13l-5 8c0 2 2 4 4 4 3 0 5 4 6 12 0 7 2 11 5 15 2 2 3 2 8 1 4 0 5 0 9 2 5 2 9 9 10 15 2 8 13 15 26 16 7 0 13 3 17 7 5 6 8 6 10 0 1-4 3-6 8-10 4-2 6-2 25 0 4 1 8-1 15-7 7-7 8-9 6-12l-3-5c-1-3-2-4-6-6l-5-2-1-9-3-11c-2-3-1-4 1-2 4 3 5 2 8-3 2-3 3-3 5-3 3 0 2 3-1 5-4 2-6 4-7 10-2 7-1 11 3 12 2 0 4 2 5 4l6 7c3 2 3 2 4 0v-2l-6-6 3 2 5 3c3 0 3 0 5-3 1-2 3-3 6-4l5-2 1-2v-8c1-5 0-7-3-5h-2c-1-1 0-1 2-1 6-1 6-1 6 6l-1 6h15c6-2 9-2 12-1 3 2 4 1 2-2-2-4 0-4 2-1s2 5 2 11c0 8 0 8 6 5 2-2 3-2 6-1s3 2 3-3c0-3 1-4 5-8 7-7 8-7 13-5s7 3 8 8c1 3 1 4 5 3l5 1c-1 2-10 2-11 0l-3-5c-3-7-4-7-12-3l-8 4v4c0 5-3 14-4 14l-1-2c0-4-2-5-6-3h-7c-2-1-2-2-2-7 0-8-4-8-17-2-8 4-16 11-16 14l-2 3c-2 2-4 5-4 8-3 7-7 12-12 15l-4 3-3 9-3 14-4 8c-5 7-6 10-4 19l3 7 4-4c3-4 11-7 15-5 2 1 3 1 4-1v-2l-1-8c0-8 2-11 5-11l1-2-1-2c-1 0-3-5-3-9 0-5 2-4 3 1l1 4 3-2c3-3 4-2 2 1l-2 5c0 2-1 4-4 6l-3 3 1 5c1 7 4 10 8 9 3-1 3-1 5-8l3-7c10-13 10-14 10-18-1-5 0-5 2-8l4-4 6 2 8 5c1 2 2 2 5 2 4 0 5 0 4 1-2 2-6 2-9-1-6-5-12-6-15-4l-2 9-4 11-4 9-3 9c-2 5-1 8 2 10 3 1 4 1 10-5l6-4 7-4c9-5 16-7 25-7 8 0 8 0 14-8l4-3 7-2c4-1 5-3 6-6 3-5 15-18 18-18 4 0 7-3 10-9s5-7 16-9c7 0 8-1 11-4l7-5c6-2 23 0 29 4l6 7 3 5h6c4 0 6 1 9 3 5 3 17 7 19 6 2 0 5-3 8-6 4-5 6-7 6-9 0-5 10-13 18-13l6-1c2-3 10-3 15-1h8c4-2 6-1 12 3l6 4 3-2c4-4 5-3 1 1l-5 3-6-2c-4 0-5 0-6 2l-5 2c-3 0-4 1-4 7 0 7-2 13-6 18-6 7-7 12-4 20l3 8 7 1c8 0 15 3 18 8l5 7c3 3 8 5 11 3h1c0 2-7 4-12 4-2 0-3-1-6-4-5-9-5-9-12-10l-11-2c-7 0-9-3-8-13l-2-6-1-9c0-6 0-7 3-11l6-9c2-3 2-4 0-5l-6-3c-4-1-4-1-7 2-4 6-12 13-15 14l-4 1c-2 0-5 2-8 5l-5 4h-10c-8 1-10 0-13-1-3-2-5-2-6-1l-9 1c-6 0-8 0-13-3-7-3-7-3-12-2-6 1-7 2-14 10-6 8-7 9-11 9l-6 2a118 118 0 00-28 34c-5 6-5 9-3 10 2 2 2 3 2 7-1 4-1 5 1 5l1 2c0 2 2 3 5 3 2 0 4-3 4-7 0-3 1-4 2-5 2-2 7-2 9 0l-2 1c-2-1-3-1-3 1v4c2 2 3 7 2 9v4c0 2 1 2 5 2 6 0 7-1 11-8 2-4 4-6 6-7 3 0 5 1 2 2-2 0-3 2-4 3-1 2-1 3 1 4l3 2h-4c-4 0-5 1-2 5s2 6-1 2c-3-3-5-2-6 2v4l1 1-3 2c-2 2-3 3-3 5 0 4 3 12 5 14l1 4c-1 0 0 2 2 3l3 2h2l-2-5c-3-3-3-5-3-9 1-6 1-5 3 2l3 5c2 0 2 0 1-2v-5l-1-6c-1-1 0-2 2-2l3-2c1-1 1-1 1 3-1 8 2 13 8 11 4-1 4-4 1-7l-3-4c0-2 5-1 7 2l4 2c2 0 1-2 0-4l-5-9-1-2-2-1c-2-2-2-2-1-3v-6c1-2 4 1 4 5l1 4 4 4c2 4 6 6 7 4l2-1 1-2-1-2-2-1c-1 0-2-1-2-3 0-3 0-3 2-2 2 0 2 0 2-3 0-2 0-3-2-4-2 0-3-2 0-2l1-4c-1-5 0-6 2-3 2 1 2 4 3 11 0 7 1 9 2 9 2 0 3-4 2-8v-5l3 3c2 2 3 3 5 3 3-1 3-5 0-9l-2-3c2 0 1-4-1-5l-6-1 2-1c3 0 3-1 1-4s-3-5-1-5c1 0 3 1 4 4 3 4 3 3 4-4 1-5 3-9 4-7v4c-2 8-2 16 1 12l2-1c1 0 1 1-1 3-4 3-4 6-1 9 2 1 3 1 3-1l1-4 1-3 2-2 2-2 1-2 2-3v-4c-3-2-2-5 0-5s3-1 3-5l1-4 1 2c1 2 2 3 4 3 4 0 5 1 5 5v3l-3-2-4-2-3 6c-1 4-1 5 1 6 3 2 3 4-1 4-2 0-3 1-5 6-3 4-3 5-1 5l1 2-5 3c-5 1-8 3-6 4 1 1 8 0 9-1l2-1c3 0 6-3 6-5l1-2 1-3 1-2 1 3c-1 2-1 3 1 5 4 4 6 2 6-4 0-2 1-3 3-3s3-1 3-5c0-6 1-7 3-3l2 4 3-3 3-2 2 1v2l-1 1-4 3-6 4-5 4c-2 4 0 5 5 5h4c0 1 1 2 3 2 3 0 5-2 5-4 0-1 1-4 3-5 2-3 3-4 3-2l1 3-1 1-2 3-2 3-2 2h8c1-2 2-1 1 2 0 4 0 6 2 5l5-5c3-4 6-6 4-2v4c0 1-1 2-3 2l-2 2v2c-2 0-1 6 1 7 2 3 11 3 13 0h3c3 1 3 1 4-3 2-4 5-7 6-5v3c-2 2-1 5 3 6l2 2-1 3-1 2-1-2c0-2-1-2-4-2s-4 0-5 2h-2c-1-2-3-2-4-2-2 0-3 1-4 4l-1 4v-4c-1-4-1-4-3-3-2 2-2 2-2 0l-3-1c-2 0-2 1-2 3s0 2-1 0c0-3-3-3-4 0s-3 4-3 2c-1-3-4 1-4 6-1 4-2 7-4 6l1-5c1-5 1-7-2-7l-3-2c-1-2-1-2 3-2 4 1 9 0 9-2 0-1 1-2 2-1 5 0 4-3-2-9-6-7-11-7-8 0l-1 4c-3 1-4 0-3-3 1-2 1-3-1-5-3-4-4-5-6-4l-6-3c-4-2-4-2-6-1l-3 2c-5 0-4 5 2 10l4 2-2 1c-3 1-4 4-1 4l2 1-2 2c-2 0-2 1-2 3s0 2-1 0-2-2-3-1-1 1-1-1l-2-4c-2 0-2 0 0-2 3-4 3-5 0-8s-4-4-3-2l-1 4c-1 1-1 1-3-1l-1-3-3 3c-2 2-3 2-3 1 0-3-5-5-6-3v2l3 3 3 2c2 0 3 3 1 4-1 1 0 5 2 7 1 2 0 3-2 2h-2c0 2-2 1-2-1 0-3-2-6-4-6v-1c0-2-2-6-4-6l-3 3c-1 2-2 4-4 4-4 1-7 6-4 6l5-1c4-2 7-1 7 1-1 2 0 3 1 4l2 1-2 2c-2 1-3 4-1 6 1 1 1 1-1 1-1-1-2 0-2 1-1 2-1 2-2 1v-5c2-5 2-8 0-8l-1 2c-1 1-1 2-2 1-2 0-2 0-2 2l-1 2-1-2c0-2-3-4-5-4l-1 3 1 14c-2 1-7-3-7-5 0-3-4-3-6 0h-7c-1 2-1 3 1 9l2 7c-1 1-7-5-7-6l-2-1-1 4c0 4-2 6-4 4-1-1-2 0-4 2-4 4-7 4-8 2 0-3-2-3-4 0-2 4-1 12 2 12s3 5 0 5c-3 1-9 14-9 19l-3 10c-3 4-3 6-2 8s2 3 6 3c6 1 8 0 8-5 0-3 0-3 3-3 2 1 3 0 7-3 3-2 5-5 5-6 0-3 3-5 7-5 3 0 5-1 9-4 6-5 8-8 8-12 0-3 3-7 7-10 4-2 9-9 9-12s5-10 7-9l-1 3-5 9c-2 4-5 8-7 8-5 3-9 12-9 21 0 3 1 4 4 7l5 3c2 0 4-3 6-6l10-12 9-12c1-3 4-4 4-1l-1 2c-2 1-12 14-13 17-3 5-10 13-14 14-3 1-4 1-7-1l-4-2-6 3c-6 3-9 6-14 18-4 10-5 15-1 16 1 1 3 3 3 6 3 6 6 6 10-1l4-4c4-1 13 4 12 7l2 2 7 3c4 2 5 2 5 5s1 4 6 5c3 1 3 1 6-2 4-5 11-6 21-5l8-1v-27l1 9 1 17 1 7h-14c-7-2-9-1-10 4-2 5 0 11 4 20l3 8-2 3c-1 2-3 5-3 8a192 192 0 01-3 15l12-2c11-1 12-1 18-5l6-5v-4c-1-5 0-6 2-4 2 3 3 2 3-2 0-5 1-5 3-2 1 1 1 2 2 1h5c4 0 6-2 3-4-5-3-9-9-8-11l5 3c5 6 6 5 6-3-1-6 0-6 2-7s2-1 1 1l-1 7 1 6c2 0 8-7 12-15 4-6 4-7 3-10-2-3 0-5 4-2 3 2 5 3 5 0 0-1 0-2 1-1l2-1-1-2v-1l-6-6c-7-4-8-6-6-7l10 8c8 9 10 10 11 9 1-2 1-3-1-6-2-4-2-5-1-12 1-8 0-15-2-19-2-1-1-2 1-1l3 2c0 2 1 3 2 2l1 1-2 2-1 3c0 2 0 2 2 2v1c-2 6-2 19 0 17l3-5c3-6 3-4 1 2l-2 7c0 2 3-1 8-8l2-3a387 387 0 01-4 12l4-2c3-1 4 0 2 1l-1 3c1 1 0 1-3 1s-3 0-3 2c1 1 1 1 0 0l-3-1c-3 0-11 4-13 6-2 3-3 8-1 10s2 2 4 1c3-2 16-2 16-1l-2 2-1 3c0 3-2 2-3 0s-2-2-8-2c-5 0-7 0-10-3l-4-2-4 5c-2 3-2 5-1 7l2 2 4 3 2 2 3-2 3-3c2 0-1 4-4 6l-2 3 2 3 5 4c3 1 4 3 2 3s-9-5-9-6l-4-4-5-4c-1-4-3-5-5-2l-3 2c-2 0-4 5-2 6 1 2 1 3-1 3l-4 2c-1 2-4 3-5 3-4 0-5 2-5 6s1 7 3 7l2 1-5 1c-9 0-9 0-8 22l-2 10c-2 5-2 7 1 10l5 1 5-1c4-2 7-5 7-9 0-3 1-4 3-4 3 0 3 0 2 1l-2 4c-1 4-5 8-10 11-5 2-5 3-5 7 1 3 8 3 12-1l4-2 3-3 4-4 7-4 7-4c2 0 4-2 6-4 7-8 44-85 61-128 10-23 11-24 23-43 9-13 15-21 19-24l6-5h10l16 1 14 2c8 1 9 1 13-2l6-3 3-2c1-2 14-9 28-17l25-15 9-14 10-14c0-1 2-1 4 1s3 2 8 0c6-1 6-1 11 1 4 3 6 3 12 3l8-1 5 6 9 6c3 1 4 1 12-3l9-6 7 2 7 3 10-4c6-2 7-4 9-7 2-4 3-5 8-2 6 4 14 4 14 1l2-3c2-1 6-11 6-15l-2-5c-2-2-2-2 0-3 3-1 4 1 3 5 0 3 0 4 3 7 3 4 5 5 7 3l2 2c1 4 5 7 8 7s5-1 15-8l6-3h3c2-1 3-7 1-18v-12c2-6 2-8 1-25v-23l2-12 1-14 1-11-1-5-9-4-11-4-3-3-8-5c-3-2-5-4-5-6l-7-4c-6-3-6-3-10-15 0-2-2-4-4-6-4-2-5-3-12-3l-8-1-3-5c-2-6-2-11 1-11s7-4 9-8l1-5h8l12-2c5-1 5-1 5-6l-1-6c-1-1 0-2 1-2 2-1 2 0 2 2s1 3 3 4c2 2 2 2 4 0l3-3c1-2 1-2 0 0l-1 4 13 4 4-6 3-4 5 6c5 5 5 5 7 4 3-1 4-3 7-10 4-12 5-14 8-15 6-1 7-6 7-28 1-9 1-11 3-16l4-5 1-7c0-5-1-8-4-15-2-6-5-11-7-12l-2-4-2-7c-3-13-4-20-5-33l-1-14c-2-1-495-3-500-1zm7 494c0 3-2 6-5 6s-3 2 0 4c4 3 3 13-1 12-1-1-2 0-4 4-3 5-4 5-2-1 2-4 3-5 5-6 4 0 4-3 0-7s-4-6 0-8c3-1 4-2 4-5 0-4 0-4 2-3l1 4z"/>
  <path d="M120 448l-2 13c-1 13-5 24-10 28-3 2-3 3-1 3 5 2 9 2 11 1 3-2 7-1 10 2l8 1c8 1 13-1 15-6 0-2 2-3 4-4l4-3-5-2c-4-1-6-2-8-5s-2-3-7-2c-4 0-4 0-3-2 3-3 2-5-2-10l-7-10c-3-7-6-8-7-4z"/>
  <path d="M214 478l1 3c1 4 0 4-2 1s-3-3-6-3l-7 4-6 2-6 2h-7l-7-2c-5-1-5-1-7 2s-2 4-2 12l2 12c2 3 2 3 3 2 1-2 2-1 9 4 8 5 8 6 8 9 0 4 0 4 3 3l8-1c4 0 5 0 8-5 4-7 6-10 6-14l3-8 8-22-9-1z"/>
  <path d="M428 719l-4 3c0 1-3 4-5 4l-3-2-3-3c-1 0-5 4-5 6l13 21 6 9c3 6 4 7 7 8h7c2 1 2 1 4-3s2-4 1-6l-2-4 1-9 3-6 2-1c2-3-1-9-4-9l-6-2c-3-1-3-1-1-4 1-2 1-2-5-4l-6 2z"/>
  <path d="M452 731c0 3 0 5-2 6-1 2-2 4-2 12s0 11-2 14c-2 6-2 8 1 8l5 2h8c5 1 9 0 9-4l1-4 3-5c1-2 0-3-2-6l-2-8c0-6-2-7-7-8-4 0-5-1-7-4-4-7-4-7-3-3z"/>
  <path d="M485 791l-8 2-9 4c-5 2-6 3-7 6v6h3c2-2 2-2 2 0v1c-2 0-3 4-1 6l5 4 3 3 2-2 6-9 7-10c4-3 4-4 4-7 1-5 0-5-7-4z"/>
</svg>
