<svg xmlns="http://www.w3.org/2000/svg" viewBox="0 0 1024 1024">
  <path d="M348 1c-1 1 1 3 8 11l13 15c2 4 2 5 1 9 0 5 0 5-6 7l-8 2c-4 1-7 5-9 12-3 7-5 10-11 10l-9 5-8 4c-1 0-3 1-5 5-2 3-6 8-12 12l-9 7h-16l-5 6c-4 4-5 7-5 9 0 4-10 21-13 21-2 0-5 3-5 5l2 7c2 5 3 6 5 6l3 3c0 3 1 4 3 5s3 2 4 5c0 4 0 5-3 9l-3 5c0 2 3 6 8 10l7 7 1-3c3-6 4-7 15-6 10 0 10 0 15 4l5 6-2 5-4 7c-3 2-4 5-5 8v4h-4c-4-1-5 0-7 2l-5 2-6 4-6 3c-4 0-10 4-15 9l-6 5-5-2-10-2-9-1c-3-1-5 1-2 4 1 2 1 2-4 4l-7 2-4 1-2 1h-8c-7 0-12 5-12 10l-2 4c-3 1-3 2-3 5 0 4 1 5 4 8l3 4 2 4c1 2 2 3 1 4l-1 17 1 3 2 2c2 0 3 4 2 6v3c1 3 2 2-3 4-3 1-4 2-6 5-2 4-2 5-6 5-5 1-5 2-8 6l-6 10-5 5c-2 1-3 1-2 3 0 4 90 103 93 103l7-1h10c3 1 5 2 9 1l10 1c4 1 5 1 7-2 2-2 2-2 3-1 2 2 9 1 12-1l6-4c2-3 3-3 8-3 4 0 5 1 5 3s0 2 4 1c2-1 3-1 5 1l2 5c0 2 7 9 12 11s7 5 5 11l-2 8-1 8-2 16c-1 12-1 14-3 17l-4 7c-1 3-3 4-6 5-5 1-5 2-6 7-1 4-1 4 3 6 3 1 3 1 6-1 2-2 2-2 5 0l10 2c16 2 18 2 19 4l4 1 12 6 9 5-3 3-5 11h2v2c-3 6 0 14 7 16 3 1 4 1 4 6 0 4 1 6 3 8l4 7c1 3 2 4 5 5 6 2 7 3 2 5-4 2-6 6-6 12 0 2-1 3-3 5-7 4-9 6-9 11 0 4 0 5-3 7l-5 3-4 2c-2 2-3 3-7 3s-5 1-5 7c0 4 1 6 3 8s2 3 1 6l-1 6c1 4-1 11-4 15l-4 8-2 7-2 7-3 12c-3 5-4 9-4 11l-3 23-2 18 2 4 3 6 1 3c4 2 9 18 9 28v5l7 6 10 6c5 0 6 3 7 14v14c-2 3-2 4-1 9s1 6-1 9l-2 9-1 6h8l9 1-2 6-3 5 4 4c3 3 3 3 5 2 5-2 10 1 15 8 2 4 5 6 6 7l2 2c0 2 6 8 8 8l3 1 4 2c3 1 4 2 4 4l4 6 6 8a92 92 0 0031 11c9 0 15 3 18 9 2 6 6 8 12 8s11-2 13-6c4-8 3-7 17-6 14 2 16 2 18-4 1-6 1-9-1-14l-2-6 7-1c9-2 11-3 11-7l2-6 4-4h4l5 2 5 1 5 1 4-1c2 0 3 1 3 3l1 4h17l2-5 3-10c1-5 1-5 8-3 3 0 4 0 6-2s3-3 6-3l7-2c5-5 7-5 13-4l9 3c3 1 8 1 14-2 3-1 4-2 5-5 0-4 1-5 4-6 5-2 6-4 7-10 0-5 3-9 6-9l3-3c4-5 7-5 13-3l5 2 5-3c6-4 15-7 17-6l4 5c2 5 5 7 14 7 6 0 8 0 9 2l16 4c4 0 5 0 6-2 2-2 4-3 11-4 6-1 8-1 13 1l5 1 6-2 6-4c1 0-2-3-4-3s-9-4-12-7c-2-2-4-2-10-2-7 0-8 0-8-2l-8-9c-7-8-7-9-8-15-1-3-2-5-5-7-5-3-5-4-5-8s0-5-3-7c-3-1-4-3-4-5-1-6-4-11-6-13l-3-4-3-5c-3-2-3-4-3-6 1-3 0-3-3-5l-3-4-2-3-2-4-2-5c-2 0-3-2-3-3 0-2-1-3-3-3-3 0-5-2-7-7-1-4-1-4 1-6 1-2 1-2-1-4-2-3-2-4-2-9 1-5 0-8-8-20-3-3-3-4-3-13l1-11-1-4-2-4c-1-3-1-3-4-2h-10c-3-1-3-1-3 1 1 2 0 2-5 4h-9l-12-2h-7v-5c0-14 0-15-3-18l-5-5c-2 0-3-2-3-3 0-3-5-7-10-9s-8-6-8-10c0-5-4-15-8-20l-4-6-8-6c-7-5-8-6-9-9-2-8-3-20-2-23l5-7 8-9c2-5 2-6 2-12-1-6 0-7 2-11l3-5a235 235 0 0111-26l-3-5-4-5-3-6c-5-5-5-7 0-12l7-7 2-4h6l6 1 2-4c2-4 7-7 12-6h21l11-1 15-2h7l-4-4-4-3 2-7c3-7 5-9 7-7l5 1c4 0 5-1 5-5 0-2-6-12-8-12s-3 3-2 5v3c-3 0-4-2-4-7s-1-5-3-6c-2 0-2-1-1-3l4-6c2-2 3-5 3-8l4-10c7-11 8-15 8-29 0-11 0-12 3-15 2-3 2-5 2-13s0-11-3-19c-5-15-7-18-16-25l-11-7c-16-8-20-10-22-9l-2 2c0 3 0 3-4-2-2-2-5-6-6-10-3-6-3-7-12-12l-12-10c-3-5-10-11-15-14-3-1-6-4-8-7l-9-10-4-3h-22l-8-5c-7-4-9-5-14-5-12 0-24 8-27 19l-2 3-5 7c-3 6-3 7-4 15 0 12-1 18-4 20l-1 1 1-24a129 129 0 015-40l2-4 11-17v-44l-4-3c-10-9-15-14-18-20-5-9-13-17-16-16l-5-5c-6-9-14-16-21-21-4-2-9-7-11-10l-8-7-9-8c-3-3-7-6-14-9l-17-10c-4-4-14-9-22-13l-27-14c-14-8-17-8-17-5l2 4v2c-3 0-9-4-14-10-15-16-14-15-17-13z"/>
</svg>
