<svg xmlns="http://www.w3.org/2000/svg" viewBox="0 0 1024 1024">
  <path d="M576 122c-3 5-5 7-7 8l-3 1-2 5c-3 3-4 6-1 6s3 1-1 6-6 7-12 6l-8-2-7 1c-2 1-5 2-6 1-3 0-9 2-18 9l-8 5c-2 0-3 1-3 2 0 2-6 7-8 7s-4-1-6-4c-3-5-5-6-7-2-1 3-4 3-4 0 0-2 0-2-4-1-3 0-5 0-9-3-7-3-9-2-15 3s-7 9-6 16c1 6 1 6-1 10-4 6-9 10-12 10l-5-2c-5-4-10-4-17 0-6 3-9 6-10 12-1 7-4 11-10 13-4 1-4 1-13-1-10-4-14-3-22 2-6 4-6 4-5 7 1 1 1 3-1 9l-3 11c0 7-2 11-9 14l-5 3 7 7c6 6 7 7 11 8 12 1 19 11 25 33 2 6 3 8 6 11 14 12 15 14 15 15 0 2-3 0-11-7a46 46 0 01-17-28c-3-11-6-15-18-18l-9-3c-1 0 0 6 3 11 2 6 3 11 1 14-1 2-1 2-1 0l-5-14-2-11c0-5-3-11-9-16-3-4-4-3-11 4-5 5-8 6-9 4h-7c-7 1-8 1-4-2l5-3c2-2 4-10 4-16v-4l-10-3c-13-4-15-3-19 9-1 5-2 7-11 15-11 10-13 14-15 26s-5 15-21 19l-13 4c-6 4-19 25-20 32l-3 7c-6 8-22 15-40 17l-14 4-25 30 7 2c8 1 15 4 18 7 1 2 1 2-1 6-2 6-2 8 4 15 8 10 8 20 0 27l-3 3 6 6 18 15 12 9v-3c1-7 3-8 10-3l4 2 4 3 3 2v-5c0-4 0-5 3-7l5-6c9-8 14-10 28-6l8 1-3-7-2-6 6-3 5-2 5 3a194 194 0 0122 15c2 2 3 3 3 5 0 3 1 4 5 9l6 5 6-2c10-4 13-5 15-3l4 2c8 4 12 6 15 10 8 10 17 10 34-1 7-5 9-5 13-4s4 1 11-3 8-4 14-4h13c6 1 6 2 17-5l6-3 10 1c9 2 11 2 18 1 6-1 9-3 13-5l5-3 7 6c6 5 6 6 6 10s1 7 4 13c4 8 4 8 2 10-1 1-1 1 1 4l4 3c2 0 3 2 5 8 5 11 5 11 9 9 3-1 4 0 6 1 2 2 1 5-3 7l-5 1 1 6 1 4h8c8-1 8-1 9 2v3l-22 9-2 1 3 3c3 4 7 5 16 4 8 0 8 0 13 3l6 3 8-11c2-3-1-4-3-1-3 3-4 3-6 0-2-2-2-4 0-4s1-1-1-3c-2-1-2-2-1-3h2c2 1 2 1 3-1 0-3 2-3 9 2 8 6 12 10 12 15 0 3 0 3 2 3l5 2c2 1 2 2 2 11v9l-3 2-6 4c-2 2-2 2-1 5l2 4 8-2c9-3 12-2 14 3 3 6 3 7-1 7-3 0-1 2 5 3 5 0 6 0 13-7 5-5 6-6 14-8 13-3 14-4 11-20-1-7 4-19 8-19 1 0 9 7 18 17 15 15 19 18 19 15l-15-17c-11-11-15-15-14-16s3 0 7 4l9 8c3 3 3 3 5 2 1-1 3-2 4-1l12 13c13 15 17 19 20 19l5 1 2 1-2 3c-2 2-2 2-1 5l4 3c3 1 3 2 3 4-1 3-1 3 4 5l5 3 24-29c1-1 8-3 13-3 3 0 3 0 2 2s-1 3 2 6l4 7c1 2 2 3 3 2l5 4-4 8c-2 4-5 10-5 13-3 10-2 11 0 11 3 0 4 1 3 4-1 2 0 3 6 12l5 6 14-12c3-3 4-3 6-3 5 1 13 7 21 15l6 6-1-5 1-6c1 0 3 0 4 2h4c3-2 2-4-2-8l-6-6c-2-4-1-10 1-12l1-2-2 2c-3 2-4 3-7 1l-7-2c-8-2-12-7-7-10 2-2 2-2 1-3-2-2-1-5 1-8 3-3 5-3 12 2l8 3 4-4c1-3 4-5 7-6 5-3 7-5 5-6s-2-2 1-4c4-5 3-8-5-16l-9-8-8 3c-4 3-6 3-9 3-4-1-5-1-2-5 1-4 1-4-2-9l-3-9c0-4-1-4-5-3h-9c-3 1-5 1-9-1-7-3-9-6-9-12 0-8-3-19-7-22l-8-16c-1-3 0-4 1-5l3-2 2-2c0-2 0-2-2-1-4 2-6 1-9-3-4-6-8-8-12-6-6 2-6 2-6-4v-5l3 1c4 0 4 0 4-3s6-14 10-19c5-5 6-4 11 3 4 6 4 10 0 14-4 3-5 7-3 7l6-2 3-2v3c-1 4 1 8 4 11 1 1 2 1 4-2 2-2 3-3 2-5v-3c2-1 1-3-4-9-6-6-6-6-6-11l2-9c2-5 1-7-2-10l-2-3 3-3 6-4c2 0 3 0 3-8 0-7 0-7 3-10l8-6c3-2 4-2 6-1l7 7c3 5 5 6 5 4l2-1c2 0 4 2 7 5 5 5 5 5 6 3s1-2 3-1l6 2h4l-1-3c-1-7 6-12 18-14l5 1-2 3-3 3 2 2c2 3 2 4 1 5v8l2-2 3-1c2 0 2 1 2 3s1 4 7 8l6 4 3-1c3-2 4-2 5 0l1 8c0 6 0 7 2 8 2 2 3 4 0 4-2 0-7 3-8 6s1 6 10 12l8 7c1 2 1 2-2 3l-3 1 7 8c2 0 9-5 11-7 2-6 7-3 8 5 1 4 1 4-1 4h-3l6 12c3 7 5 11 6 10l3-6c2-4 2-5 0-8v-12c-2-6 2-8 6-4 2 3 6 4 6 3l-2-3c-3-2-2-5 1-5l6 2c4 2 4 2 6 1l3-6c1-3 2-4 4-5h4l-5-1-9-1-5-2c-2-2-3-2-6-2-4 1-12-4-17-10-4-5-6-6-6-3 0 5-2 5-11-4-8-8-9-9-9-13 0-3-1-4-3-6-3-4-4-6-3-8 1-3 1-4-2-9-4-6-4-7-1-5l5 1c1-1 3 0 6 4 4 5 4 5 6 3l1-3 2 4 4 6c2 2 2 2 6 1l8-3 8-2h4l-2 5v8c3 4 5 4 12-3 6-6 9-7 9-5l-8 9-8 8 3 5c2 3 3 4 8 6 4 1 6 2 7 4 2 3 8 8 10 8s3-2 3-4l-4-7c-6-8-6-10 0-11 8 0 9 0 12 7l6 8 2 3 3-3 2-5-4-7-5-8 3-1h4l-1-5c-1-15-2-18-9-20-5-1-9-5-12-10-2-2-3-3-6-3-6 0-13-6-9-8 4-3 6-6 7-11l2-8 5-6c3-6 11-13 14-14 5-1 8 1 15 7l10 8c3 1 10 2 11 0s-5-11-10-16c-4-4-5-5-5-8l-1-6v-2l5-11h-1c-3 0-8-3-11-6-3-2-3-2-6-1l-7 3c-5 2-6 2-8 0l-10-1c-6 0-7 0-10-3-4-3-7-9-7-13l3-6c3-4 3-13 0-16-2-2-11-6-12-5l1 6c1 5 1 6-9 11-5 2-7 4-6 5v3c-1 3-1 3 1 6 3 4 4 7 1 13v14c0 11 0 11-2 12-3 2-7 3-10 1-1-2-1-2 1-4 2-3 2-4 2-7l-3-11c-2-5-3-5-5-5s-3 0-4 4l-7 11c-2 0-4-5-5-11l-3-8c-1-3-1-4 4-4 7 0 10-8 4-12l-3-5c-1-5 0-24 1-25l6 2c4 2 7 2 9-1 1-2 1-3-1-6-2-2-3-6-5-13-2-14-2-14-6-10l-3 4 2 3c1 3 1 4-1 8l-3 8c-1 4-2 4-8 5h-9l-2-3 5-8 4-9-5 1c-6 3-8 3-11 0-2-2-2-3-2-8v-5l-2 2-4 1c-2 0-3 1-4 3l-7 6c-11 7-16 13-17 23l-1 7-6 2c-6 1-6 1-8-1l-3-2-1 3-1 4-2 6-2 3-2-3-3-3-6 3c-5 3-8 7-9 12-1 2-1 2 1 2 2-1 9 3 9 5 0 1-1 2-3 2-1 0-2 1-1 2l2 7c0 5 3 9 6 13 3 2 3 5-1 6-2 1-4 2-5 5l-6 5-8 7-4 4-1-4c1-7 0-13-4-22l-4-9h-17l-7-2-7 3c-7 3-8 4-10 2-1-1-1-2 1-4s1-2-3-4h-12l1 4c1 7-2 10-14 12-11 2-11 2-13 20-2 14-4 19-15 31l-45 48c-3 0 1-5 23-30l24-29-3-4c-3-2-3-3-2-6l1-15v-11l-13-11c-17-15-21-16-35-19l-16-5c-8-4-12-12-7-14 2 0 4-2 5-3 3-4 6-4 15-2l10 1c3 0 6-3 7-8 2-9 4-10 13-6 7 3 8 3 5-1l-2-3 14-22c2-2 2-2 5 0s4 2 9 2l13-2h7v3c0 6 3 5 4-2l5-10 7-9 3-5-1-8-4-17c-4-13-3-13 3 0 5 9 8 12 15 13 3 0 8 3 13 5l9 5 5-5 4-5 5 1c6 1 11 0 20-2l8-1c3 1 2 4 0 6l-2 4c0 3 1 3 3 0 2-2 2-2 5-1 5 2 5 3-3 13-9 10-14 13-22 13l-9 2-5 2c-4 0-11 8-11 12l3 1c4 0 4 1 1 6l-2 5 8-6 14-11c6-5 7-6 13-6 7-1 20-6 26-12 3-3 5-4 7-4 5 0 13-4 17-8 2-2 2-3 1-3-3 0-2-1 1-4 4-3 7-4 7-2 1 3 8-4 17-15l14-14 11-11h-2l-27 8-15 4c-13 5-17 5-20 2-2-1-3-2-4-1s-2 0-7-5-8-7-8-5l-1 2h-4l-4-3-3-3c-4-2-4-2-9-1-7 2-9 2-11 1v-8c-1-2-1-5 1-7 1-2 2-2 5 1l3 3v-2l3-6 2-3 3-4c2-2 2-2 0-2l-2 1h-6c-1-1 0-2 2-5 3-5 3-5-1-5l-4-1c-2-1-3 0-4 2-2 5-4 6-8 4-3-2-4-2-8-1-5 2-7 1-7-4 0-4 3-10 6-11l2-3c0-2 0-2-2-1l-4 2c-2 0-2 0-2-5 1-5 1-6-3-3-2 2-5 1-6-1s-1-3 1-4c2-3 3-5 1-7v-7c-1-1-2-1-4 2-3 3-3 3-4 1l-1-2-3 3-3 3c-2 0-6-5-6-7s-1-2-2 1c-2 4-2 4-4 2l-1-1-6 14-7 14c-2 2-3 2-5 0-2-1-2-1-7 3-5 5-7 7-10 5-1-1-2-1-3 2-2 3-7 5-16 5-8-1-11-3-9-6l1-4c0-4 7-13 15-21 7-7 13-11 15-9 3 2 5 1 5-3 0-5-1-5-5-7l-7-5-12-5-9-2-18 3c-14 1-18 2-22 1h-7c-4 2-7 0-8-4-1-3-3-4-5-5h-17c0 2-5 1-6-1-2-2-2-2-7 4z"/>
  <path d="M816 131v7c1 2 1 3-1 4l-2 2 4 5 4 7-6 7-6 6c1 1 20-2 22-3 4-2 5 0 4 4-1 2-1 2 1 2s4-3 6-7l3-7-3 3-3 3-5-4-9-10c-2-4-2-4-1-6 3-3 6-3 11 0s6 2 11-1c2-2 6-4 9-4l4-1-4-1-16-1c-12 0-17-1-20-4-1-2-2-2-3-1z"/>
  <path d="M867 172c-3 9-3 9-9 3-5-6-8-7-8-2l1 5 15 11c3 2 4-1 4-12v-11l-3 6z"/>
  <path d="M848 187l1 4c2 4 1 9-2 11l-6 8c-3 7-4 8-6 4-1-2-2-2-5-2l-5 1c-2 0-2 0-1 1l2 6 2 7c1 1 9-3 11-6 3-4 3-5 8-3 3 2 3 2 6-1l3-3 7-5 6-6-4-1c-4-2-4-2-3-5 0-4 0-4-6-7-6-4-8-5-8-3z"/>
  <path d="M939 231l-3 4 4 3 4 4 2-6 2-6-2-1c-3-1-3-1-7 2z"/>
  <path d="M937 269l-4 4 3 6 5 13 4 9c3 0 4-1 4-5l2-6c4-4 4-6-1-11l-4-7c1-3-1-6-4-6-1-1-3 0-5 3z"/>
  <path d="M746 318c-5 3-7 6-8 11v3l2-1 8-4c7-2 10-5 6-5-2 0-2-1-3-3 0-4-2-4-6-1z"/>
  <path d="M706 319l-3 7c-3 4-3 5-2 6l3 1 7-13c-1-2-3-2-5-1z"/>
  <path d="M833 472l2 5c2 2 2 2 4 1 2-3 1-5-2-6-4-2-4-2-4 0z"/>
  <path d="M847 476l-6 6-4 6-2 4 2 3c7 10 9 16 6 16l-2 2-2 4-2 6c0 4 6 13 10 16l3 2 2-2 3-3 5 3c3 3 5 4 9 4s5-2 3-5l2-5c2-4 4-9 4-14 0-3-3-6-9-8-4-1-4-2-4-6 0-6-2-14-3-16l-2-8-1-6-4 4c-4 5-6 5-4 0 2-8 1-9-4-3z"/>
  <path d="M870 478v4c0 4 1 4 2 3l4-2c2 0 2 1 2 6 1 8 3 9 3 1 0-5 0-6-3-8-2-3-6-5-7-5l-1 1z"/>
  <path d="M812 489l-4 6 4 4c1 1 4 5 4 8 2 4 4 8 6 8l1-9c0-8 0-9-2-11-3-3-4-5-3-7 1-1 0-2-1-3-1-2-2-1-5 4z"/>
  <path d="M465 506l-5 1c-8-2-11-1-18 2s-7 4-8 7c0 3 1 6 5 14 5 9 5 10 9 11 5 1 6 3 7 10l-1 9c-3 4-2 7 1 11 3 5 5 6 7 3l17-1c17-1 19-1 21-6 1-2 1-4-4-14-6-12-11-30-12-40v-7l-5-1c-8-1-13-1-14 1z"/>
  <path d="M393 524c1 3 1 4-2 6l-2 2 2 2 2 5c0 2 2 5 4 5 3 0 10-5 10-7l-3-3c-4-2-6-7-4-10s2-3-1-3c-6-2-6-1-6 3z"/>
  <path d="M369 540l-5 7c-5 4-15 11-17 11-3 0-5 1-11 10-8 11-12 10-6-1 1-4 1-4-1-3h-2c0-2-3-1-5 3l-7 5-6 4-5 5c-9 3-50 32-59 41-10 9-21 12-41 12-11 0-13 0-17 2-6 3-14 10-19 17-6 10-10 10-17 1-8-9-15-13-24-10h-20c-7 1-9 3-10 8s-2 8-9 16l-7 9 2 4c3 4 2 6-1 7-2 0-3-1-5-3l-2-2-5 2-9 4c-4 0-5 1-9 6l-7 10-4 4-4-3-7-1c-3 1-10 9-10 11 1 2 6 3 10 0 2-1 4-2 5-1 1 0 3 7 3 11 0 5-2 7-11 9l-8 3 1 7v13c-1 7-3 7-8 0l-5-5c-2 0-5 4-6 7l-1 15c0 11 0 12 2 15 3 4 4 6 1 8-3 5-1 9 8 14l5 2-1 4-2 5-2 5c-2 3 0 3 6 0 3-2 4-3 5-6 1-5 6-7 18-7h9l2-4c4-7 8-10 13-10 4 0 4 0 4-2-1-2 2-9 6-13 5-3 8-5 12-4 3 1 3 0 5-2 2-3 2-3 7-1 3 1 3 2 6 11 0 2 1 4 3 5 5 5 21 16 23 16l4-4 3-6c1-1 2-1 5 3l5 4 8-3 6-3v-5c-1-5-3-7-10-11-7-3-8-5-5-10 4-5 6-6 11-4 4 1 4 1 15-4l20-8c7-3 8-3 15-3l8 1 5-4c11-10 20-12 28-8 7 4 7 5 4 12l-3 6 4 7c7 9 7 9 3 13l-3 4 4 3c3 1 5 3 6 5 1 3 2 3 5-1 2-3 4-4 6-4l5-2c3-3 5-2 8 1 4 4 5 4 8 0l5-4 5-6c2-3 4-4 8-6 5-2 10-5 11-7l-4-2c-7-2-12-4-14-6-1-2-1-2-4 0l-4 2c-1 0-8-8-10-12l-6-4-8-2c0-4 15-16 21-17l8-4 4-3-4-4c-5-6-8-12-8-18-1-4-1-4-5-6l-4-3 9-4c2 0 7 3 13 8s7 6 11 4l5-2c3 0 3 0 3-2v-7c-2-6-1-12 0-14 2-1 2-2 1-7l-3-5c-4 0-5-7-2-11v-7l7 2 6 2-5-13-1 1-5 3c-4 1-4 1-7-2-4-3-4-5 1-8l3-3-3-2c-4-1-4-1-1-7s5-8 13-8l9-1c2-2 2-2 9 4 8 8 11 8 21 5 9-3 17-7 18-9 1-1 1-3-1-9-2-5-3-7-2-9l3-1c1 0 1-1-1-3l-2-3 3-6c2-5 2-6 1-8-3-3-2-7 1-8l2-1-4-7c-4-6-8-9-14-12l-3-2-2 4z"/>
  <path d="M864 548l-4 3 4 12 4 11h3l6 1c1 1 3 0 5-2 5-4 5-5 0-14l-5-9c0-1-3-3-7-4l-6 2z"/>
  <path d="M945 555c-3 3-4 4-4 8s3 8 6 8c2 0 2-1 2-7l2-9c1-2 1-3-1-3l-5 3z"/>
  <path d="M960 567c0 2 1 3 5 4l4 1-4-4-5-4v3z"/>
  <path d="M819 569c-2 5-1 9 1 10 3 2 12 3 12 1l-6-7-6-7-1 3z"/>
  <path d="M919 585c-6 10-5 14 2 10 4-2 5-3 5-6l2-6 3-2h-7c-2-2-2-2-5 4z"/>
  <path d="M138 592a2405 2405 0 01-42 14c-2 2-1 4 4 11l4 6-4 6c-4 5-4 9-1 10l16-2c17-2 25-1 37 3 12 5 16 5 19 2 3-2 3-3 2-9l1-9 3-9c0-6 3-14 8-24l3-7-6 2-5 2-4-3-5-2-31 9z"/>
  <path d="M941 591c0 2 10 20 11 19l3-3 2-3-3-6c-3-8-4-9-9-9-3 0-4 0-4 2z"/>
  <path d="M645 639c-4 1-7 4-12 11-7 9-9 10-29 11h-14l-8-5c-8-5-9-5-25-8-9-2-17-3-18-2l-12 6c-5 4-13 7-16 9-7 2-11 6-11 11 0 3 1 5 5 8l7 11 6 10c2 1 4 6 6 10 2 7 3 8 8 11 5 4 7 4 14 5 5 0 11 2 14 3l13 3c8 0 13 3 16 7v6c-2 3-2 3 0 4l2 5 3 6c5 3 7 3 8-2l4-9 4-9c0-5 3-7 8-7 4 0 8 2 9 5l4 7c3 4 4 5 7 5 4 0 5 0 8 4 3 5 4 9 1 11v3c2 3 1 6-2 8l-3 2 4 2c5 2 9 5 9 7l-4 5c-4 5-6 8-3 8l4-2c2-1 2-1 7 1 5 1 10 1 12-1l-2-2c-3-3-3-6 2-7 4 0 4-1 6 9 0 3 0 4-3 6-3 4-3 4-2 7 2 3 2 5 1 8-1 6-1 11 1 13s13 0 17-2c3-2 2-4-3-13-5-8-5-9-1-17 2-6 1-8-6-11-5-3-7-6-5-11 1-3 5-8 9-10l6-6 3-4 5 3c3 3 3 3 2 1v-6l-1-4c-2 0-8-6-8-7s-1-2-3-2c-4-1-8-4-11-11-4-8-4-10 0-5 3 2 4 3 5 2 2-1 3-1 5 1l3 2c2-2 4-1 6 3s3 5 8 6l9 4 3 2-2 4c-2 2-2 3-1 5 2 3 4 11 4 14 0 4 3 12 6 14s6 9 7 13l-1 5c-6 4 5 8 18 7l10-2c1-1 1-1-6-5-2-1-2-3-2-7 0-5 0-7-7-24v-5h9l-3-2c-3-1-4-4-2-8 1-1 0-4-6-12l-6-9 3-4 7-4 4-1 3-17v-5c2-1 1-2-5-7-7-7-9-8-15-8-4 0-6-2-3-6l2-2-3-5c-3-6-8-13-11-15-2-2-2-2-8 0-9 2-13 1-16-6-2-4-3-5-14-10-7-4-13-6-17-7h-18z"/>
  <path d="M359 647l-5 1v5l1 5 1 3c0 3 5 5 10 5 6-1 8-5 4-9-2-2-2-2-5-1-6 5-7-1 0-7 5-3 4-4-6-2z"/>
  <path d="M426 657c-2 0-4 3-3 5h9v-3c-1-3-1-3-6-2z"/>
  <path d="M857 676l2 2 1-2-2-2c-1 0-2 1-1 2z"/>
  <path d="M920 692l-2 6c0 2 0 2 2 1l3-10-3 3z"/>
  <path d="M379 703c-4 3-4 4-2 6 2 3 4 3 8-2 5-5 5-7 1-8-2 0-4 1-7 4z"/>
  <path d="M345 711l-5 2-1 1c0 2 1 2 6 3 2 1 4 2 5 5 2 3 3 4 5 4s3 1 6 7c3 7 7 11 9 10 2-2 2-9 0-14-2-4-2-5-1-9 2-7 1-8-9-9h-15z"/>
  <path d="M924 713c-4 1-3 5 1 5 2 0 4-2 2-5 0-2-1-2-3 0z"/>
  <path d="M819 716c-3 3-4 3-6 2h-7c-3-1-3 0-6 7-4 9-4 11 5 16 4 2 6 3 7 2l8-1c5-1 6-1 5-3l1-6c3-3 2-5 0-9l-2-7-1-4-4 3z"/>
  <path d="M550 737l2 4c1 2 4 4 10 7 5 2 10 5 11 7l3 2 2-4c3-7 0-14-7-16h-21z"/>
  <path d="M501 750l-10 4c-10 3-10 4-5 9 4 4 4 4 3 6s-1 2 1 4 2 2-4 6l-9 9-3 3 2 5c1 5 2 6 4 6 3 1 3 0 3-2l-2-4c-2-2-2-2-1-3l7 2c5 2 7 3 7 1v-5c1-4 1-4 3-5 4 0 10 6 13 13v17c2 3 2 4 0 12l-3 12c0 3-7 10-10 11-4 1-2 7 5 10l9 2c4 0 5 1 7 2l1 2 4-4 5-4 4 4c7 7 8 6 2-7-4-9-4-12-1-13l12 7 12 8c1-1-9-21-12-24-4-3-3-5 3-7 3-1 6-3 8-6 4-7 5-7 11-5l4 1 3-3c5-6 4-8-3-6-4 1-4 1-7-1l-3-3-6 2c-4 3-7 3-12 3-11 0-11 0-16 5l-5 5-2-4c-3-7-3-7 9-14 4-3 6-7 6-15 0-7-1-7-2-2-1 3-2 4-4 4-3 0-4-1-8-4l-4-6c0-2-3-5-8-9-3-3-4-6-1-11 3-6 3-8-1-9s-3-1-6 1z"/>
  <path d="M621 756l-2 2 1 2 9-1 2-2c0-2-1-2-4-2l-6 1z"/>
  <path d="M342 784l-5 4-2 6-1 6 4 2c2 2 3 3 3 5s-1 3-5 6c-3 1-5 3-6 5l-5 5c-3 1-3 1-2 3 3 6 10 5 18-2 6-5 9-6 11-3l1 2 3-2c3-3 5-8 5-10h-9c-4 3-11-5-11-11 0-4 4-13 7-16 2-3 0-3-6 0z"/>
  <path d="M622 793l2 2c2 0 3-1 2-3-2-3-4-3-4 0z"/>
  <path d="M261 825c-3 2-3 3-3 7 0 5 0 6 6 10 5 5 8 5 10 2 3-4 2-8-1-11-2-1-3-3-3-5 0-6-4-8-9-3z"/>
  <path d="M806 850c-4 3-4 3-3 5l3 4c2 3 4 5 5 3v-15l-5 3z"/>
  <path d="M746 850l-9 1h-6l1 5c0 6 0 6 4 6l6 2c3 1 3 1 6-1 2-3 3-4 3-9l-1-6-4 2z"/>
  <path d="M118 857l1 7 4-3 4-3 3 3c2 4 3 4 8 1l3-2-3-2-7-2c-3 0-8-2-10-4-2-3-3-2-3 5z"/>
  <path d="M762 870c-9 3-11 5-13 9-3 5-5 15-4 17 0 2 8 6 12 6l6-3c4-3 4-3 6-2l8 2h6l-1-3-1-12v-10l-10-8-9 4z"/>
  <path d="M123 886v3c5 4-1 8-10 8-4 0-7 2-7 4s2 4 6 6c2 1 2 1 5-1 2-3 3-3 9-3 7 0 8-1 5-6-2-4-2-7 2-9 2-1 2-1-1-3-6-3-7-2-9 0z"/>
</svg>
