<svg xmlns="http://www.w3.org/2000/svg" viewBox="0 0 1024 1024">
  <path d="M85 190c-3 6-8 9-27 18-34 16-44 22-51 30-8 8-9 15-3 31l3 18c1 14 2 17 7 23 7 7 48 30 62 34l5 2 16-7c8-5 17-8 18-8a632 632 0 0182 18c5 4 5 8 1 13-5 5-5 8-4 16l1 16v8l7 1c7 0 14 2 18 6 2 2 2 3 2 25v23l-3 5-17 24-5 6 3 2 12 4c11 4 14 6 17 12 8 13 14 29 21 62l5 40c2 38 5 44 34 86 15 21 23 37 27 51s6 19 15 30c11 12 34 34 44 42 21 15 31 16 50 3 8-5 13-7 21-7l59 11c51 10 54 10 59 9a202 202 0 0088-53c8-9 22-22 30-28 19-15 24-21 24-24 0-5-4-9-11-13-12-7-15-12-9-20 4-5 11-11 14-12 6-1 13 6 22 19l6 9 3 2 12-11c6-7 16-14 20-17l23-16c17-13 33-21 44-24l24-2c22-1 28-3 42-9l17-7c8-3 31-7 59-10 41-5 45-6 49-10 3-3 3-3 3-9-1-6-1-6-4-7s-4-1-6 1c-5 4-9 6-16 7l-35 8c-64 15-78 17-98 10a265 265 0 01-46-24c-1-2-7-7-15-12-36-23-65-47-79-64a179 179 0 01-25-52l-12-23c-13-23-21-35-31-46-11-12-13-13-31-14s-25-3-35-8c-8-4-17-13-21-21s-9-14-15-16l-16-1c-27 1-26 1-38-4l-13-5-14 3c-16 5-23 3-36-9-9-8-11-9-16-9-8 0-13 7-12 18 1 6 1 6-2 9-15 15-78 27-107 21-8-1-19-6-23-11-7-6-7-12-3-29 3-13 3-16-1-25-3-6-8-11-11-11-10 0-22 19-25 41-1 6-1 7 1 11 4 10 2 14-6 18-6 3-9 2-14-6l-9-9c-9-7-17-16-25-30-9-14-17-25-26-35a72 72 0 01-20-34c-2-10-7-17-22-27-16-10-20-15-24-30l-3-1c-2 0-3 1-5 4z"/>
</svg>
