<svg xmlns="http://www.w3.org/2000/svg" viewBox="0 0 1024 1024">
  <path d="M576 213c0 1-1 2-2 1-2 0-2 0-8 9-4 6-4 7 2 2l5-4 3-2 4-3 2-1-2-1-2-1-1-1-1 1z"/>
  <path d="M529 225h2l-2-1v1z"/>
  <path d="M499 228c-5 1-10 2-22 8-17 8-22 11-22 15 0 2 0 2 4-2l6-4 15-6a94 94 0 0123-9l4-3-8 1z"/>
  <path d="M407 279l-6 1c-5 1-9 3-9 5 0 1 5 2 8 1 2 0 5-2 6-4 3-3 4-4 1-3z"/>
  <path d="M555 297l5 1c3 0 3 0 1-1l-5-1c-3 0-3 0-1 1z"/>
  <path d="M568 301c2 3 2 3 3 1 3-2 2-3-2-4h-3l2 3z"/>
  <path d="M583 305l-4 4c-3 2-3 2-6 1s-4-1-10 3c-7 3-8 3-22 4-17 1-21 2-29 10-7 6-19 12-22 11h-3c-1 1-3 0-9-2-7-4-8-4-11-3l-9 1-13 2h-13c-6-1-7-1-12 1l-12 4c-6 1-8 1-16-1l-20-4c-12-1-24-4-36-7l-8-2-3 2-5 3-4 3c-5 3-8 3-18-3-9-4-9-4-2 3l3 4h-10c-4 2-5 1-5-4 1-4 1-6 3-8l3-2-2-3c-2-3-3-3-4-1-2 1-2 1-8-3l-7-4-3 2c-4 3-4 3-8 2-3-1-12 1-17 4l-6 2c-4-1-5 1-2 3s3 5-2 7l-5 2-5 1c-3 0-4 0-4 2l-5 5-6 7c-3 6-7 5-14-1-5-3-6-3-8 1-1 1-2 3-4 3l-3 2-4 1-3 2c-1 5-4 9-12 16a510 510 0 00-30 24c-3 1-8 6-13 11-7 6-10 9-18 13s-13 7-20 14c-10 8-15 12-28 17-11 4-16 8-18 13-1 4-1 5 1 6l1 3c0 3-5 12-8 13s-3 7 1 11c5 7 6 10 7 13 0 3 1 4 3 5 2 2 3 2 1 8-1 2-2 6-1 8l-1 8c-2 2-2 2-8 2l-6-1-7 8-9 9-3 4-2 3 4 3c2 2 5 2 11 3 7 1 7 1 11 5l6 4 4-3 5-5c4-1 6 0 8 6l3 5 3 4c3 6 9 14 12 15l5 1c3 0 9 5 12 11 2 4 9 7 15 7 5 0 5 0 5 4l4 8c3 3 4 3 8 2 5 0 9 1 12 4l5 2c4 0 10 2 10 4l-1 3v8c2 7 3 8 10 4s9-4 12-1l2 2 8-4c11-6 12-7 13-12l2-4h25l5 9 5 9 3-1c3-3 14-3 20-2 4 2 5 2 7 0 3-2 5 0 9 5l6 7 4 5-4 10c-3 7-4 11-4 15s0 6-2 9-3 5-3 9c0 5 0 5 3 5 4 0 7 3 8 7 0 4-1 5-9 9-6 3-7 5-3 5l5 3c3 3 3 3 5 1l3-2c5 0 10-6 8-9-2-2-1-4 2-5 4-2 5-2 3 3-1 3 0 3 1 4 2 2 2 2 1 5 0 2-1 3-2 3-2 0-4 2-4 5 0 5 9 7 11 3l7-4c9-3 17-8 19-11 2-2 2-2 3-1 3 2 2 3 0 4-1 0-2 1-2 3l-3 4-2 2-5 5-4 4 3 5c5 5 9 14 9 18s1 6 5 6 7 2 7 6c0 2 1 3 5 6 3 3 5 5 5 7s0 3 2 2l12-1h30c1-1 3-3 6-3l8-6 4-5v-11l1-15c2-5 7-11 12-12 3-1 4-1 9 2 6 3 6 3 9 2 5-2 6-3 4-9l-2-6-2-1c-2-1-2-2 0-5v-14l-4-13c-2-3-2-3 0-7 2-6 2-5-2-8l-3-2 2-3 2-9c0-5 0-6 2-7l18-3 16-1 4 3c4 2 5 2 8 1s4-1 7 1h6c2-1 3 0 4 1l3 1c3 0 7-6 7-11 0-2 1-4 3-5 4-3 17-18 17-20l3-3c4-1 4-1 3-5v-4l8-3c10-3 16-4 17-2l-1 6c-2 4-2 4 1 7l7 8c8 7 8 6 10 5l6-1c2 0 3 1 3 3l1 6c1 3 2 3 10 4 4 1 5 1 5-1l-2-3c-2-1-2-2-1-9l1-7 6-2c4-1 7-3 8-5l3-2c3 1 6 0 10-4s4-4 5-2c2 2 5 1 7-3l2-2 5-3c3-2 4-3 6-2 2 2 7-2 6-5l2-4 2-7c0-3 0-3 2-3s4-2 5-3c3-3 3-3 11-2h11c3 1 3 1 5-2 1-3 1-4-1-7l-3-3-1-2-2-3-2-2 5-9 7-14c2-4 2-5 1-8-1-6 3-8 7-3 3 3 3 3 6 1s7-7 5-7l-1-1 1-2c2 0 1-2-1-4-2-3-2-6 1-6 2 1 2 1 2-1-1-2 0-4 6-8l7-5 5-5c2-3 3-4 5-4 1 1 4 0 6-1 5-2 8-1 13 5 4 4 5 6 4 7s0 3 4 8l5 5c0-1 7-1 12 1l10 2c5 0 6 1 6 2-1 3 7 5 11 3l4-1 7-7c3-5 4-6 6-5 2 0 2 1 2 2-1 2 0 2 3 2 4-1 4-1 4 1l2 2c4 0 5-2 4-7l-2-4 3-3c3-3 3-3 4-2 5 8 7 8 15 5 5-2 6-3 4-4-2-2-1-4 3-5l3-2v3c0 3 0 3 2 3l3-2 1 1c0 2 1 2 4 1l4 1h8c2 1 2 1 3-2 1-4 5-5 8-2 2 1 2 1 6-1 4-1 5-2 4-3 0-2 1-2 4-2s5 0 7-2l4-3 3-2c1-3 9-6 12-4h2l4-5c5-3 9-9 9-11l2-2 2-2 3-3c2 0 3 0 5 2l2 3 4-2c3-1 4-3 4-4 0-4 0-4 5 0 2 2 4 2 4 1 1-2 13 0 12 3l2 1 19-1 3-1c0-1-1-2-3-1-5 1-23-9-23-12l-14-25-1 3c-1 2-1 3-2 2-2 0-2-6-1-8 2-2 1-2-12-7-12-4-21-8-33-14-5-3-7-3-8-3-2 2-1 4 1 4 1 0 4 1 5 3l5 3h3l5 1 7 2 4 3-3 1h-8c-5 0-5 0-6 2l-5 4c-5 3-6 4-4 6 1 0 0 2-3 3-4 3-4 3-6 2-3-2-4-6-4-11 1-5-1-5-10-1-11 6-14 6-18 2l-5-6c0-1-1-2-4-2s-4-1-4-2l-5-3c-6-2-12-7-13-13 0-3 0-4 2-5 3-1 4-3 1-6v-7c-1-2-1-2-2-1h-3c-2 0-2 0-2 2s0 3-2 3c-1 0-2 1-2 3-1 3-3 2-3-2l-3-6c-4-4-4-6 0-5h6l6 1c2 1 2 1 4-1l2-2-2-1c-2 0-4-2-5-3-2-1-2-1 0-2 3-1 3-6 0-11l-2-7c0-2-1-4-8-10-16-14-14-13-21-13a176 176 0 01-26-2c2 1 1 2-2 6l-7 4c-3 0-4 0-5-2l-2-3-3 3c-3 3-3 4-6 1-2-2-3-10-1-13 1-2 1-2-7-4l-6-1-3 3c-6 6-13 7-15 0-2-3-2-3 0-6l2-2-2-2-14-5c-17-7-24-6-32 3-6 6-15 9-33 10l-17 2c-7 3-13 1-34-10l-15-6-3-2-6-3c-3 0-4 0-5 3z"/>
  <path d="M858 357c0 4 1 5 3 3 1-1 5 2 7 6s1 7-2 10l-1 2c2 0 4 3 3 5-1 1-1 2 1 2 2 1 4 0 4-3s0-3 7 1l7 2c1-1 8 6 9 9h3c3-1 2-1-8-10l-22-20-11-11v4z"/>
  <path d="M920 404c1 2 5 3 6 1l-1-1-4-1c-2 0-2 0-1 1z"/>
  <path d="M879 407c-2 2-2 3-1 5l3 1 6 1 8 1c5 1 7 2 5 3-1 1 0 2 4 4 5 3 6 4 8 2 1-1-2-4-12-10l-14-9-1 3-1 2c-3 0-3-2-2-4 2-2-1-1-3 1z"/>
  <path d="M281 761l-1 3c0 3 0 3 3 2 5 0 5 0 3-3-1-3-4-4-5-2z"/>
</svg>
