<svg xmlns="http://www.w3.org/2000/svg" viewBox="0 0 1024 1024">
  <path d="M498 73c-2 3-4 6-9 9-5 4-6 6-7 11l-2 7-8 1c-7 0-8 0-10-3l-3-3-5 2c-2 2-6 3-8 3-3 1-4 2-5 4l-6 7-4 5-17 5-17 5-1 4c-2 6-4 7-7 4l-9-1-10 1c-3 0-3 0-5 4-1 3-2 5-1 7v6l1 4c0 5 2 7 11 11l8 6c1 1 0 4-1 6-2 3-2 5-1 12v8l-3 3c-3 4-4 6-3 11 1 2 1 3-2 5l-3 2-7-3c-5-3-6-3-8-2l-3 1-2 1-2 3c-1 1-2 1-4-1-2-1-5 1-5 6v3l-7 1c-5 1-11 3-18 7-6 2-11 5-11 6-1 1 2 6 3 6l3 2c2 1 2 1 6-1 5-4 7-3 7 2 0 2 0 2 1 1 2-1 5 3 4 6 0 2-1 2-4 2h-4l-3 1c-3 0-4 0-4 3l-3 3-2 1 2 2 4 10c1 7 1 7 7 10l5 3-4 3-5 4-5-1-5-2-5 5c-3 2-5 4-6 3l-5 1c-2 1-3 0-6-3l-7-4-3-3c0-1-5-4-8-3l-3-1-4-2c-2 0-5-1-7-3-5-4-7-3-9 4 0 4-1 5-4 6-10 2-10 2-12-2s-4-6-9-8l-9-4c-3 0-4-1-2-4 1-2-2-6-5-8-3-1-4-2-5-8-2-5-3-6-5-7-4-2-6-1-8 4-2 4-3 6-7 8-4 3-5 3-4 6l-1 7c-1 5-4 6-32 11-24 4-29 4-39 1l-8-2-3 4c-1 4-2 4-6 4l-8 2-5 3-5-3c-4-2-6-3-13-4-9-1-9-1-15 2l-6 3-6-3-14-7-8-4-3 3c-2 3-2 3 0 5l3 8 2 7c2 7 3 10 2 11-2 0-1 5 1 7l5 2c4-1 6 0 2 2l-2 1 2 2 2 1-2 2c-2 2-2 2-1 4 2 2 3 6 1 6v8l2 6 1 5h8c7 0 7 0 2 1l-8 2c-2 1-2 1 0 3s3 3 2 6c0 2 0 3 2 3s7 4 8 7l3 3 3 4 5 4c2 0 4 3 8 10l1 6c0 5 2 7 5 6l1 1-3 1c-3 0-4 1-1 3l3 3c0 2 1 2 1 1h1l1 3c-1 1 1 2 5 4 3 1 4 2 4 5 1 5 4 5 4-1 0-3 0-4-2-6l-1-1 5 2c3 2 10 3 12 2 1-1 1-2-1-3l-2-2v-6l2-4 6-11 4-7c2-4 4-6 5-5 2 0 1 2-1 2-2 1-3 5-2 5l4-2c3-3 4-3 6-1 4 2 5 1 7-2v-9c-2-8-1-12 2-14l3-6c0-2 1-3 2-2 1 0 5-7 6-16 3-15 6-24 9-26l2-4 2-3 3-2 12 4 14 6c2 2 9 7 11 7l-1-5h2l2 5 1 5-1 2c-5 0-5 0-4 2 2 3 1 3-1 1-2-1-2-1-1 2v7c1 3 0 5-1 7l-2 5c0 2 0 2-3 1-4-2-6-1-6 2 1 2 0 2-2 3-5 2-5 5 2 12 6 6 15 8 20 6 1-2 2-2 5 0 3 1 4 4 2 6-1 1-1 1 1 3l4 2 7 3 9 3c3 0 4 1 4 3l2 4 4 2c3 3 6 3 5-1 0-2-5-6-7-6l-1-1-2-1-2-3c0-3 1-3 5-3s4-1 3-5c0-3-1-4-2-5-3-1-8-5-8-7 0-4-2-6-4-5-4 0-7-1-8-4-2-4-2-7 0-9 1-1 0-5-2-5l-3-2-4-1h-3l2-1c2 0 1-1-2-6-3-6-4-11-1-9l1 2c0 1 7 8 15 14l6 4 10 5c5 1 8 3 9 4l3 6 6 17 2 3c2 1 2 14 0 17l-2 5-1 4c-2 2-2 14-1 21 1 3 2 7 1 9 0 3 1 6 6 13l7 12 6 9c11 8 17 14 20 17 2 4 11 11 14 13l8 8c6 6 16 13 23 14l8 5c6 6 8 7 12 7s6 2 5 6c0 3 1 3 5 6 8 5 9 6 8 7h-4c-4-2-7-2-7-1-1 2-1 2-5 0l-5-3c-1-2 0-2 4-3 3-1 4-1 4-3l-1-3-2-2-7-2c-4-2-5-2-6-1-2 2-5 1-10-3l-7-3-1-1c1-1-4-5-6-5l-2-1-1-1c-3 0-3 2 0 5 4 4 5 6 3 6s-2 0 0 4c2 5-3 3-11-5l-6-4 1 7c2 3 1 4-2 4-3-1-10-6-9-8l-3-2c-3-3-15-7-16-6-1 0-1 3 1 6 1 2 2 2 8 1 6 0 6 0 6 2l1 4c-1 1 2 5 5 7 2 2 2 2 1 5l-2 3 6 6 5 6c-1 1 5 8 8 9l4 5 3 4c2 0 2 0 1 1s0 1 2 2l5 2 6 7c8 10 18 19 22 20 2 0 4 1 5 3 2 4 11 11 16 12l5 2 4 2-2 1c-5 0-6 0-1 3l6 5c2 2 4 3 10 4l11 4c3 2 4 3 7 3h1c-2 1 0 3 4 5 2 0 3 2 4 3l3 4 4 3-4 1c-3 0-3 0-2 4l1 8c0 3 0 4 2 5 3 0 3 3 0 3l3 4 4 5c-3 0-2 2 0 3l3 1h3l3 2c3 2 16 4 16 2l5-1c3 1 4 1 5-1s1-2-3-4l-5-2h20c3 2 2 3-3 3h-4l2 2c3 2 4 2 7 1h23l-1-1-6-3-8-2c-4 0-8-2-5-2l8-3c6-2 6-2 16-1s15 3 7 3l-5 1-3 2v1l11 1c8 1 9 1 14 4 13 9 14 10 19 10 4 0 6 0 7 2 2 3 11 6 23 7l9 1 11 11 11 12 4 3 4 3c0 2 12 14 13 14l3 3c2 2 3 3 5 3 4 0 12 4 17 8l14 11c5 6 9 8 10 8 1-1 2 0 3 1 0 1 1 3 3 3s3 2 3 5c0 4 7 12 10 12l3 2 3 3c2 1 2 1 1-1s0-2 12-5c9-2 13-4 13-5 0-4-3-12-7-18l-5-7-17-9-16-10-3-6-2-5-7-3-6-2-6-13-5-14 2-8 2-9-6-3-10-3c-5 0-7-1-19-10l-19-19a96 96 0 00-36-30l-6-3-3-7c-3-6-4-7-8-10l-8-8-7-8-8-9c-3-5-4-6-11-8-6-2-7-3-8-7s-2-4-6-5c-4 0-5-1-10-5l-6-9c-1-3-4-8-8-12-5-5-7-8-7-10l-2-10c-3-7-3-8-2-14l1-6-2-3-6-3c-3 0-4-1-1-4 2-2 2-2-3-15l-6-14-8-7c-8-6-10-8-16-18l-7-11-8 1h-8l-5-4c-5-4-6-6-8-10l-2-6 5-4 4-5-3-7c-7-11-7-19-2-21 2 0 2-1 2-4l-4-10-2-5 2-3c4-4 5-6 3-15l-1-7 3-3 4-2 3-2c2-2 3-2 6-1h5c2-3 6-2 7 1l1 2 3-3c3-2 3-2 6-1l5 2c3 1 4 2 2 5v2l5 3c3 2 3 4 4 8 1 8 4 11 9 11 3 0 4 1 10 7 6 7 7 7 13 8l11 1c4-1 4-1 5-6l4-9 2-6c-1-2 0-3 5-5 6-4 6-4 9-11 3-8 5-11 10-11h6c4-1 5-1 12 2l12 3c2-1 6 0 12 1 9 3 11 3 11-3 1-3 1-4 3-4s3-1 3-3l3-2 4-2c2-2 2-2 3-1 2 1 2 2 1 4-2 4-1 5 2 5 2 0 3 0 3-2s0-2 2 0c2 3 2 3 3 1 2-1 2-1 2 1-1 2-1 2 2 2 2-1 3 0 3 2l11 7c11 5 12 5 19 5h7l2-4 2-2 3 1 2 1 2 2 1 1c0 3 16 6 19 3 1-1 2-1 3 1l3 2 2 2c0 2 8 3 9 1h3c1 1 2 2 3 1h3c2 1 4 1 8-1l6-3 15 9 15 9 9-4c6-4 7-5 7-7 0-3 0-3 2-3s3-1 4-3c2-4 5-5 8-3 2 2 2 2 3 1 0-2 5-1 6 0l1 3c-1 1 0 3 3 5 3 3 4 3 10 3 8 0 11-2 10-6-1-2-1-3 4-4l5-2 2 2c1 3 9 5 18 5h7l3 4c3 4 5 5 9 6l5 1c1 2 2 1 3-2v-4c-2-1 0-2 3 0 2 2 3 2 3 1s1-2 4-2c4 0 5 1 3 3-1 1 0 1 2 2 5 2 5 2 5-1 0-4 2-6 4-3v5c0 1 1 3 5 5l4 7c-1 2-1 2 5 1h5v4l1 7c1 1 0 1-2 1-4 0-4 0-3 4 0 4 1 4 5 6l6 5c2 3 2 3 14 3h12l1-5c0-6 3-8 11-6 4 1 5 1 8-3l7-4c3 0 3 0 3-4-1-5-1-5-7-5s-5 1-3-9l1-6v-4c1-2 1-3-1-6-5-6-4-8 2-7l5 2 4-5c4-5 4-6 2-7v-3c1-1 3-1 9 1 8 2 8 2 9 0s2-2 5-2c2 1 5 2 6 4l6 3c4 0 10-1 11-3l-2-6-2-5-13-2-12-2-1-3c0-2-1-2-2-2-7 1-13 1-19-2-6-2-6-3-8-7-1-4-1-4-7-5-9-2-14-5-14-9 0-2 1-3 5-4l5-2-3-4-3-9c0-4 0-4 4-4l7-1 6-2c1-2 1-3-1-4l-6-3-5-2c0-1-10-1-14 1l-1-2c0-3-1-5-4-5s-3-3 1-5c2-1 2-1 0-4-1-2-1-2 1-2 3 1 3 0 3-2l2-4c3-2 2-5-2-8l-4-3 4-3c6-4 8-8 3-7h-4l-4-1c-4 0-10-4-9-5l4-1c5 1 5 1 6-3 1-2 0-3-1-5-2-2-2-2-5 0-5 2-7 1-5-5 1-3 1-4 4-4 3-1 4-3 2-5-2-3-2-4 0-5 2 0 3-4 1-4l-4 1-5 2-6 3-2 2-10-3c-9-3-11-3-12-2a97 97 0 01-21 25c-3 1-6 2-7 1l-7 4c-5 6-7 6-15 3h-5c-2 2-9 1-18-2-8-4-21-5-23-2-2 2-9 1-13-2-3-2-5-2-13-2s-10 0-13 2l-4 2-3-4c-2-3-3-3-5-3-3 1-6 0-15-4l-12-4-2-6c-2-8-7-11-21-14l-14-3c-1 0-2 0-3 2-1 3-2 3-9 0l-3-1 3-2c3-1 3-1 1-1-1-1-2-2-1-3 0-3-6-4-7-2-2 3-2 2-5-2l-4-3c-2 0-2 0 1-2l3-3-4-1c-3 0-4-1-4-3 0-1 0-2-2-2s-2 0 0-2c1-2 1-2-1-4l-3-4-3-2c-4-1-4-2-4-5v-4l-19-8c-18-7-18-8-24-14-5-6-6-8-6-10 0-5-5-12-10-15-3-2-4-2-8-1-3 1-4 0-5-1l-3-1c-3 0-4-1-6-5l-4-6c-2 0-3-1-2-2 0-2-1-3-5-5-6-2-6-2-10-1-2 2-3 2-8-1l-9-5c-2-3-4-3-10-4l-7-2-2 5z"/>
  <path d="M140 363c-1 3-3 5-4 5-1 2 0 7 2 8l1 2c0 2 2 4 7 6 3 2 3 2 3 7 0 4 0 5 4 9l5 5 2 2h-5v4c2 3 2 3 1 5-3 2-7 0-11-5-3-4-3-4-6 2l1 4 2 4 3 12 3 4c2-1 3 1 3 7l3 7 1 6c0 5 0 5-2 4l-3-1c-3-2-4-1-4 3 0 6 1 10 4 12 3 4 4 7 3 8-3 2-2 7 0 8 3 2 5 1 5-1s5 4 5 6l3 4 7 6c3 3 8 4 8 1 0-1-7-9-9-9s-9-8-11-13l-3-6-2-8v-6l4 4c2 2 4 4 4 6 1 2 8 7 10 7l1-1c0-1 2-3 4-3 5-3 4-5-2-4l-1-3-1-4-4-5c-3-4-3-5-2-8 1-5 1-5-2-9l-1-4c2 1 2 0 2-6l-2-7-1-6 2-7c1-7 1-8 3-8 1 0 2-4 0-6l-4-1c-4 0-3 1-12-18-4-7-4-7-3-13 0-6 0-7-2-8-4-3-7-3-9 2z"/>
  <path d="M216 422l-1 2v1l4 2c3 0 3-1 0-6-2-2-2-2-3 1z"/>
  <path d="M212 430c-1 1-2 2-4 1h-3l3 3 3 4-2 1c0 2-1 2-2 1h-5c-1 1-1 2 2 5s4 3 8 3c6 0 8 1 14 7 5 5 11 8 11 5 1-2-6-12-13-17-7-6-8-8-5-10 1-1 1-2-1-3-2-3-5-3-6 0z"/>
  <path d="M228 429l-2 1 2 2h4v-3h-4z"/>
  <path d="M141 442v5l2-6-2 1z"/>
  <path d="M214 462l4 6 3 5 14 15 1 2 6 10c3 2 3 3 2 5-1 1 0 2 3 4 1 2 4 3 5 3 4 0 13 10 13 14 0 2 6 4 7 2h3c4 2 4 2 1 5-2 2-2 2-1 4l2 2c0 2 10 11 12 11 3 0 2-3-3-6-4-2-4-3 2-1 5 2 8 2 10 1 1-1 1-1-1-3l-2-3 3 1c2 2 5 2 5 0s-6-8-9-9c-2 0-3-1-3-2l-4-4-7-4c-8-9-14-12-12-8l-1 2-9-9-4-4c-2 0-9-6-7-6l2 1c1 1 3 3 7 4l5 4 6 3 6 2-1-3c-4-5-6-7-9-7-4-1-6-4-9-10-2-4-7-7-12-8-3 0-3 0-3 2l1 3-3-2-11-12c0-1-9-11-11-11l-1 1z"/>
  <path d="M132 467c-2 1-3 4-3 7-1 3 0 4 2 6l4 2c2 0 1-3-1-5s-3-6 0-7 4-4 2-5c-1-1-3 0-4 2z"/>
  <path d="M136 501c0 1 3 3 5 3v-2l-5-1z"/>
  <path d="M220 526l-1 6c-1 1-1 2 2 4 3 3 8 3 8 0l-1-4c-1-1-2-2-1-4 0-4-1-6-5-6-3 0-3 0-3 4z"/>
  <path d="M202 525c-1 1 0 3 1 4l4 5 4 3c2 0 1-3 0-4-1 0-2-1-2-3l-1-4c0-2-6-2-6-1z"/>
  <path d="M188 536c0 2 5 6 10 8 5 3 5 2 2-1l-4-3-4-2c-3-3-4-3-4-2z"/>
  <path d="M206 550c0 1 2 3 4 3 3 0 2-2 0-3h-4z"/>
  <path d="M216 551c-1 1-1 2 1 5h2l3-1c2 0 3 1 3 2 0 3 5 12 7 12l-1-3c-1-3-1-4 1-2l3 2 2 2c1 1 5 1 7-1 2-1-2-4-4-4-2 1-9-3-12-7l-7-6h-5z"/>
  <path d="M250 571c0 2 12 14 16 14v-1a42 42 0 00-13-14c-2-1-3-1-3 1z"/>
  <path d="M235 575l2 4 2 2h-3l-5-2h-2c0 1 8 6 10 5 2 0 19 17 26 27 7 9 18 22 25 27 5 3 5 3 5 1l-2-2-4-2-2-3h2c1 0 4 1 5 3l4 2 1-3c0-2-1-3-2-3l-7-6-7-5-3-3c-1-3-3-4-5-5-4-1-9-8-10-13l-2-3-1-1-1-2c-2 1-9-3-10-5l-3-3-3-2-4-5c-5-4-6-4-6-3zm51 54v1l-2-2c0-2 1-1 2 1z"/>
  <path d="M242 576l2 1 2 1c1 2 5 4 5 2s-2-3-5-4h-4z"/>
  <path d="M263 576c0 2 5 5 6 5 1-1 2 0 3 2l4 5 9 9c6 6 8 7 10 7 2-1 4 0 11 9 7 8 17 18 19 18l4 2 6 2c4 0 4-3-2-7-3-1-5-4-6-6l-3-4-6-3-8-5c-6-4-16-14-17-17-1-2-2-3-5-4l-7-4c-7-7-11-9-12-7h-1l-3-2h-2z"/>
  <path d="M273 597c1 4 14 16 14 13s-1-5-2-5-4-2-6-5c-6-7-8-7-6-3z"/>
  <path d="M304 636l2 1 7 5c7 7 12 9 7 3l-3-6c-1-2-1-3-4-2l-3-1-3-1-3 1z"/>
  <path d="M301 642c2 4 2 5 0 5l-1 1c0 1 2 2 5 2s5 0 7 3l5 4 10 5 10 5c3 0 1-2-6-5-5-2-8-4-9-7l-10-8c-6-3-7-4-7-6 1-1 0-2-1-2l-4-1h-2l3 4z"/>
  <path d="M357 647l7 9 3 3c1 2 2 3 4 3l3-1c0-1-4-7-6-7l-3-4-3-3h-2l-3-1z"/>
  <path d="M395 669l2 2c2 1 2-1 0-2-2-2-2-2-2 0z"/>
  <path d="M390 671l1 2 2 1v-3c-1-2-3-3-3 0z"/>
  <path d="M378 675l3 5 2 2c3 0 3-4-1-7-5-4-7-4-4 0z"/>
  <path d="M387 675c-1 1 1 2 3 3 4 3 4 0-1-3h-2z"/>
  <path d="M403 675c-2 2-2 2 2 5l4 2-1-3-2-3c-1-2-2-2-3-1z"/>
  <path d="M374 679c2 2 5 3 5 1l-7-4 2 3z"/>
  <path d="M364 683l2 1 5 3c2 3 9 5 12 4 2-1-9-8-12-8l-5-2c-2 0-3 0-2 1z"/>
  <path d="M445 729l-3 1c0 1 6 2 7 1l-4-2z"/>
  <path d="M454 731c-4 3-4 4-1 4l10-3c1 0-3-4-5-4l-4 3z"/>
  <path d="M469 738c-2 0-2 0-1 3s9 6 14 7l5 3 5 3 5 1c3 2 5 0 2-3-9-11-9-10-11-8-1 1-1 1-1-1 1-1 0-2-1-2l-4-1c-2-2-9-3-13-2z"/>
  <path d="M507 743l2 5v4l-1 2v2h-3l-2-1c-1 2 2 4 6 6 3 1 7 3 8 5 3 2 5 3 14 5h26c19-1 23-2 24-4l1-1c2 0 4-3 4-6l-4-4-7-2-2-1-1-1c0-2-10-4-12-2h-1c0-2-21-6-38-7h-14z"/>
  <path d="M525 777c-2 2-2 3 1 3l2 1 3 3 2 3h-2l-3-1-4-3c-2-2-3-2-8-1l-13 2c-7 0-7 0-5 2l3 2 5 2 6 2 8 2c7 4 25 7 35 6l20 1c14 2 48 3 56 1 9-2 6-4-7-4l-15-2c-5-2-19-3-38-4h-16l-4-4-4-6c-1-2-1-2-5-2h-4l-1-1-3 1c-1 1-2 0-2-1 0-3-3-3-7-2z"/>
  <path d="M492 789c-1 1 1 2 3 3 4 2 7 2 7 0l-2-1-5-1c-2-2-3-2-3-1z"/>
  <path d="M448 810c-7 3-9 8-4 7 2 0 3 0 3 2l-2 3c-2 3 0 4 7 4l9-2 6-1c2 0 3-1 6-4 5-7 4-9-4-7h-3c1-1 0-2-2-2h-17z"/>
  <path d="M606 820c2 2 2 3 1 3-2 0-3 3-3 4l9 2c6 3 9 3 19 3 11 0 11 0 15 4l9 4 7 4c2 2 4 2 8 2 5 0 6 0 8 3l2 4c-1 2 2 3 20 9a245 245 0 0132 13c1 2 3 3 3 0l-3-5-4-4 7 4c3 3 5 3 6 0l1-1h4c2 0 3 1 3 2 0 2 4 4 6 3 1-1 1-1 1 2s1 4 10 10c13 8 16 9 16 8 1-1 1-1 2 1 1 1 2 2 5 2 2 0 3 0 2 1-6 1-7 2-6 4 1 1 3 2 7 2l9 3c3 3 4 3 6 2 1-1 2 0 4 1 2 3 3 6 1 6-3 1 9 11 22 18l11 8 6 3 7 5 5 6 1-2 1-4c1-1-1-3-8-8-6-4-9-7-8-8l1-6c0-4 0-5-5-10l-7-7c-5-1-9-1-13 1s-6 2-6 0l-7-8-19-15a99 99 0 00-30-20c-4-1-5-2-5-4l-3-3c-2-2-3-3-3-7-1-8-9-13-12-8-1 2-2 2-7 1-7-2-9-2-13 0l-4 2-6-2c-7-4-8-3-1 1 4 2 6 4 6 5 1 2-1 1-3-1l-8-5c-4-1-7-3-7-4l-3-1c-2 0-2 0-1 2s1 2-1 2l-6-2c-3 0-4-1-4-3s-3-6-5-6l-14-5a75 75 0 00-19-7c-2-2-5-2-15-1h-12l-5-3-6-4c-2 0-2 0-1 4z"/>
  <path d="M542 829c-3 0-2 3 1 3l4 1c2 1 1 2-2 5l-3 4 6 2 9 1 11 2 11 2c2 1 10-1 16-4 4-2 4-2 22 1 10 2 11 2 16 1 6-2 7-4 3-5-2 0-4-1-4-3-2-3-6-5-11-5l-6-1c-3-2-18-2-27 1-8 2-23 0-29-3l-5-2a165 165 0 00-12 0zm11 7h-2v-1l2 1z"/>
  <path d="M665 870l-3 1c-2 0-2 1-1 3 2 2 10 5 11 4l3 1 6 1 6 2c2 1 7 3 15 4l18 4c4 2 5 3 8 2 5-2 6-3 1-4l-7-3-9-3-6-1-5-3a1270 1270 0 01-37-8z"/>
  <path d="M570 876c-1 1 1 3 2 2l1 1-1 2c-1 1-1 2 1 3 1 2 3 2 4 2 5-2 8-2 8-1 0 2 4 0 6-3 4-6 3-7-9-7l-12 1z"/>
</svg>
