<svg xmlns="http://www.w3.org/2000/svg" viewBox="0 0 1024 1024">
  <path d="M801 194l-2 2h-5c-6 0-9 1-10 5-1 3-2 4-5 4l-4-1h-7l-5 2-4 3c-3 4-6 5-6 2-1-4-8-6-17-4-3 0-4 0-6-3-2-2-4-3-8-3-4-1-7-1-9-3-4-3-5-4-10-1l-8 1-5 1-3 2c-2 0-8 2-10 4h-7l-4 1c-2 0-2 0-2 4v6l-8 11-2 3c-2 1-3 1-2 3l-1 4-1 4-1 5-4 7-2 3-5 6-5 5-4-2c-4-1-4-1-7 2-3 4-4 4-8 3-4 0-5 1-4 5l-1 2-8 8c0 2-4 3-7 2l-3 1-4 3-4 2c0 2-4 5-5 5l-2-2c1-5 0-6-2-7h-7l-1 1-4 1c-3 2-4 1-2-3 1-3 1-3-3-6s-6-4-7-1c-2 1-2 1-5-1-3-1-4-2-5-4-1-3-9-4-11 0 0 2-5 5-7 5l-2 2-2 3c-1 0-2 1-2 4 0 6-1 13-3 15s-2 2-3 1c-1-3-4-2-6 0s-3 2-11 2c-9 0-15 2-15 6 0 2 0 2-3 1-4-3-16-4-23-3l-7-1h-2l-1 1-3 2-5 1h-3l-5 1c-6 0-11 2-11 4l-1 3-1 4c0 3 0 3-4 4-4 0-6 2-4 5 1 1 2 6 0 11-1 5 0 9 4 11s8 8 8 10h-5c-5-1-10 1-12 5l-4 3-3 2c-4 3-9 4-14 3h-10c-4 2-5 2-7 0-3-2-3-2-5-1l-7 3-7 2c-3 1-10 2-12 1l-7-1-14-2c-9-2-14-2-16-1h-10c-4 2-23 2-30 0-9-2-9-2-10-4l-3-4c-4-1-8-5-8-7l-5-1c-3 0-3 0-5-5-2-4-3-5-6-6-5-1-9-4-9-8-1-3-4-7-12-14-6-6-6-6-10-6-5 0-8-2-8-5l-2-2c-3 0-13 4-17 8-3 2-3 3-2 5v3l-1 4c1 2-3 12-5 12l-9 3 2 3 3 4 2 3v4c-2 1-2 2 0 9l3 9c1 2 1 2-3 2l-12 2-11 2c-5 0-5 0-6-4 0-4 0-4-3-2l-2 4v3h-14l-2-6c-2-6-2-6-7-8l-7-3c-1-2-12-1-13 1l-1 4c0 2-3 5-5 5l-4 3-4 1c-1-1-5 4-5 5l4 3 6 2 2 1 7 3c5 4 6 4 7 3l4-2c2 0 3 1 4 3l2 5v3c-1 2-1 4 1 4s3 2 4 6c0 2-3 5-6 6-2 0-2 1-1 4 0 3-2 9-5 9l-2 2-2 1-4 3-4 2h-5c-3 2-3 2-5 0l-4-2-1 6-1 6c-3 2-2 3 0 6 4 2 5 9 3 14l-2 4c-2 0-3 1-3 5l-3 4c-2 0-1 5 2 6 3 0 5 5 3 7s0 3 4 2 5-1 5 1c1 2 0 3-3 6l-5 6c0 3 0 3 3 4 5 2 5 4 0 5-4 0-7 2-7 3l2 1 2 1 2 3c2 0 2 1 1 3h-8l-3-1-3-1H29l-1-1-1 1-2 3-1 3c0 2-6 7-9 7-2 0-3 0-4 4l-2 4-5 4c-3 3-4 4-2 5h10c11-1 14-1 19 3 3 3 3 3 2 8 0 3-1 4-2 4-2 0-3 3-1 4v4l1 4 3 4 2 3c1-1 2 0 2 2s1 3 4 3c4 1 4 6 0 7-3 2-2 5 4 11l7 8c1 2 2 4 4 4 1 1 2 2 2 8 1 6 1 6 4 8a65 65 0 018 4c8 3 10 6 16 16l2 1 2 1c0 2 5 4 8 4 1-1 2 0 3 1l3 1c4 0 6 5 7 13 1 5 1 8 3 9 2 3 10 8 11 8l1 2 2 2 5 3 4 2 6 4 7 3c2 0 7 6 6 9 0 3 1 5 4 5 2 0 2 1 2 5l1 1 3 3 2 3c1 0 2 1 2 3l1 3c2 0 2 1 0 2s-2 2-1 3l3 1 2 2c0 3 4 6 6 6 2-1 3 1 1 3l-1 3 4 1h3l4 2c3 0 4 0 4-2s3-3 4-1l13 3 7 2c4 2 8 9 8 12s4 8 6 8c5 0 10 1 11 3s4 3 10 3c1 0 2 1 2 3l2 2 1 1c0 3 2 3 4 1 1-1 3-2 11-2 8-1 9 0 11 2l8 2c4 1 5 1 6-1 3-2 7-3 9-1h2c2-2 5-1 9 3l5 3h13c0-2 3-3 5-2l2 3c0 2 2 3 6 3l3-3c0-2 1-3 2-3s3-1 3-3c1-2 2-3 3-2h4l5-2 3-3 3-3 4-7 3-3c1 0 2 0 1-1l2-5c2-4 5-5 8-2l4 1 2 1 7 4c1 0 2-1 2-3 0-3 1-3 4-4l6-2c3-3 5-3 7-2l8 1h5v-3c-1-4 3-7 8-6h4l-1-4c-1-5-1-5 2-9 2-3 3-4 5-4 2 1 3 1 3 5 1 5 1 5 5 5h14c5 1 6 0 5-1l-1-2 6-5c5-3 6-4 7-3l4 1c3-1 11-9 11-11l4-3c4-2 6-4 4-6s-1-4 0-4l5-4c3-2 4-3 5-2 2 2 7 1 9-1l5-1c3 0 10 4 12 6l3 2 3 2c2 2 5 1 8-1l5-2 9-5c1-2 7-2 11-1l3 3c2 4 6 5 7 2l2-3c2-1 2-1 5 2 3 2 6 3 9 1 2-1 5 0 5 2l2 2 4 2c4 1 4 1 5-2 1-1 3-3 5-3l5-3c1-2 2-2 3-1l2 1 5 1 7 2c3 0 7-4 7-7 0-2 1-2 4-2s4 1 7 4l4 3 4 3 3 3 2-3c1-3 1-3 4-2 3 0 4 0 6-4l2-7c0-3 0-3 3-3 2 0 2 0 2-5-1-4 1-10 3-10l3-1 11-1 4 2c3 2 4 2 5 0 1-1 1-1 3 1 1 2 6 3 9 1 1-1 2 0 4 1 3 3 6 3 7 1l3-2 2-4 1-5h5c4 0 5-1 4-4l2-6c1-1 2-3 1-5l1-7c2-3 2-3 7-3h6l2-5c2-5 2-5 1-6l-2-3-2-2c-2 0-2-1-2-7 0-4 0-7 3-10 2-4 3-6 2-7-1-2-1-3 1-6 2-4 6-6 9-4s6 1 6 0l3-4 3-3-2-1c-2-2-3-6-1-6h5c4 0 5-1 6-3 3-5 2-7 0-9-3-2-4-6-2-7s4-8 3-12l5-4 7-5 1-3v-3c-2-4-2-8 1-8l5-4c3-3 3-4 4-9 0-5 0-6-2-7-3-1-2-3 1-6l4-5c0-5 4-8 9-9 4-1 4-1 5-5 1-6 2-8 6-11l3-6-1-3c-2 0 0-6 3-10 2-3 2-4 1-5s0-3 2-7l4-10c2-3 2-4 6-4h4c3 1 7-12 5-14v-2l-2-3c-1-3-2-5-1-9 0-6 2-7 7-8v-2c0-2 0-3 2-3l5-5c2-3 4-4 6-4 3 0 4-2 5-7l2-7 2-5c0-3 1-3 3-4 2 0 2-1 3-5 0-2 0-4 1-3l5-3c3-3 5-4 6-3l5 1 5 1c3 0 3 0 3-6s1-8 4-8c2-1 4 0 8 3 5 3 5 3 12 3 7-1 14-4 14-6l1-1 1-4c1-4 2-4 5-4s6-3 6-5l-1-2-1-3c0-2 1-3 2-3l5-2 4-2 5-6c3-6 2-8-3-10-2-1-4-4-2-5 5-1 5-8 1-14l-3-4-2-3c0-3-1-4-4-4h-4l-5 1-7 2c-3 3-3 3-8 2-7-1-7-1-7-6 0-3-1-6-4-9l-1-4c0-2-1-3-4-5l-5-5-1-4h-8l-8 2-2 1c-1-1-7-10-7-12l-1-3-2-5c0-4-1-4-5-5-3-1-4-2-5-4v-4c2-2 1-5-1-5l-4-1c-2-1-11 2-11 4 0 3-4 5-10 6l-6-1c0-2-14 1-16 4l-2 1h-4c-2 1-5 2-6 1-1 0-2 0-2 3 0 2-1 3-4 2-8 0-14-2-15-5l-4-5-3-4-3-8-5-9-2-5h-4c-6 0-9-2-9-5s-1-5-3-5l-4-3c-4-3-4-3-6-1z"/>
</svg>
