<svg xmlns="http://www.w3.org/2000/svg" viewBox="0 0 1024 1024">
  <path d="M4 326c-1 0 0 2 2 2l1-2H4z"/>
  <path d="M1 330l1 6c1 8 6 15 18 26 9 9 12 11 15 11s9 5 9 8l2 3c5 4 11 13 11 16s1 4 10 8l10 5 3 6 6 16c3 12 4 15 11 20 8 6 19 20 21 25 0 3 3 8 5 11 6 9 9 15 9 17-2 3 0 7 4 9 2 1 5 4 7 8l8 9c7 4 9 6 9 8s11 12 17 16l7 5c1 2 4 4 7 4l6 5c2 4 15 17 16 17 2 0 2 0 0-5l-1-4c1-1 4 1 8 3 4 3 4 3 5 1 1-3 3-3 8 1 2 1 4 2 5 1l3-12v-33c-1-2-1-4 1-8l2-6-3-5c-7-13-6-13-13-13-8 0-10-1-10-3s-1-3-3-5c-5-2-4-2-6-13l-1-9h-3c-6 0-13-2-16-5l-4-2 4-5c4-4 4-4 0-5-2-1 2-5 4-5 4 0 0-8-6-12l-4-2-4 3c-5 6-6 5-2-3l4-7-4-3c-5-3-6-4-7-2s-5 1-5-1v-8l-6-1h-5l2 2 2 2-3-1c-4-2-8-6-7-7l1-6c0-3-8-2-8 2 0 1-1 1-2-1-2-4-9-8-10-7l-1 3c0 5-6 1-10-6l-4-6c-3 0-4 0-4-2 0-3-12-13-21-19l-8-5-5-3c-4-3-5-4-5-6l-2-5-4-5-6-7c-4-5-5-5-8-4H36c-7 1-11-1-16-5-5-5-13-6-15-4H2l-1-2v1z"/>
  <path d="M705 356c-1 2-1 12 1 12l2-4c2-2 2-3 1-6s-2-4-4-2z"/>
  <path d="M467 360c-7 1-8 3-10 9v12l-2 5-4 3c-2 0-3 1-4 5-2 3-2 4-1 5s1 2-2 4-4 4-4 7l-3 8c-2 4-5 5-13 5l-6 2c-3 4-7 4-15 0-4-2-7-3-12-3-7 0-10 1-11 5l-7 5c-5 2-6 2-10 1-3-1-5-1-10 1l-8 3s-4-2-6-5l-9-8-6-8-3-4-4 4-5 6-3 7-1 7v7c0 5 1 7 2 7l4 4v6c-3 3-2 6 1 9 2 1 2 2 1 3-1 0-1 1 1 3 1 1 2 2 4 1 2 0 3 2 1 3-1 0-2 1-2 4v3l4-2 5-3 2 3c3 4 3 5 1 10v5c2 2 5 12 5 17l1 6c1 2 1 2 3 0 3-1 3-1 8 2l5 2 8-2 10-3 1 7c0 9 1 10 6 6 2-2 4-3 5-2 6 2 14-1 16-6l1-2 3 2c2 3 3 3 6 2 3 0 3 0 3 3 0 4 2 4 9 3 9-1 11 0 11 5l2 7 1 4 5-2 12-6 11-5c2-1 2-1 3 5l1 5 2-2c4-2 4-3 4-6-1-1 0-2 1-2 1-1 1-4-1-4l-1-2-1-3c-1 0-1-2 1-4l2-7c0-3 0-4 2-4 2 1 3-5 1-7l-2-1-1-5c1-5 2-6 10-15l11-9h4c3-1 3-9 0-11l-1-7c2-11 6-21 10-19l3-1h5c7 2 12 1 14-1l2-3c0-1-13-12-19-15-6-4-7-5-5-9 1-3 0-4-3-13l-6-11c-5-2-3-5 2-3 4 2 2-2-2-5l-4-2h5c5 0 6-1 4-5-2-2-2-3 0-4h3c1 1 1 1 1-2-1-3-5-4-7-1l-2 2v-1c1-1 0-2-3-4-3-1-6-2-15-2l-15 1z"/>
  <path d="M290 365l-2 2 2 4 3 4c4 0 5-5 2-9-2-3-2-4-5-1z"/>
  <path d="M681 374c-1 1 0 2 1 3l2 3c3 4 4 1 2-2-2-5-4-6-6-4z"/>
  <path d="M507 378l1 1 1-1-2-1-1 1z"/>
  <path d="M250 383v1h1c0-2-1-2-1-1z"/>
  <path d="M236 390l1 3 1-1c1-1 2-2 1-3-2-2-3-1-3 1z"/>
  <path d="M306 391v2c2 0 3-1 2-3-1-1-1-1-2 1z"/>
  <path d="M14 393c-2 2 1 5 6 6 2 1 5 2 6 4l4 2c3-1 2-3-2-5l-4-5-2-1-4-2h-4z"/>
  <path d="M741 402l-4 2c-2-1-1 1 0 3l2 3c0 3 2 2 7-1 5-5 4-10-1-10l-4 3z"/>
  <path d="M47 407c-1 1-1 1 1 2s2 1 2-1-1-2-3-1z"/>
  <path d="M728 407c-1 2 0 3 1 1v-1h-1z"/>
  <path d="M728 412l-5 7-2 8-2 6 3 2c2 2 2 3 2 5-1 2 0 5 1 9l1 9 2 5 3 5c2 4 9 10 11 9l-3-5c-5-6-8-16-7-21s3-5 13-2l6 2c0-2-5-8-8-9-4-2-3-3 2-7 4-2 5-3 5-6 0-5-1-8-3-8-4 0-9 4-10 7l-7 10-3-2c-1-1 0-2 2-4 3-2 4-5 5-7 1-4 1-5-1-7-2-3-2-3-1-6 2-3 2-4 1-4l-5 4z"/>
  <path d="M663 422c-2 4-5 7-8 7l-7 5-8 4-10-2h-9c-1 2-1 2-4 0s-14-4-16-3l-2-1h-4c-5 2-7 1-7-2 0-2 0-2-2-2h-5c-3-3-7-1-9 3-2 6-8 11-8 6l-1-2-8 8-1 2c-2 2-4 7-3 8 2 2 1 4-1 4-2-1-3 1-1 2s-1 12-5 19c-4 6-4 7-4 14s-1 9-3 11l-2 5c0 3-3 7-5 7s-3 3-1 5v4c-2 2-2 7 0 10 1 3 6 4 8 3 3-2 5 1 7 7s2 8-1 20c-3 14-3 15 1 18 4 2 6 2 8 1 1-2 10-3 12-2 1 2 1-1-1-4s-1-8 1-13c2-3 2-4 0-6v-16c2-2 1-6-2-17-1-2 0-3 4-6 5-3 8-4 11-2s3 9-1 13l-2 4c0 1 11 11 15 13 3 1 3 1 1 3l-2 7c0 4 0 5 3 6 4 2 13 3 11 1-4-4 2-9 10-8 4 1 5 1 7-2 3-3 3-5 0-6l-6-6-6-4c-2 0-2-1-1-4l1-2 1-2c2-3 2-3 0-5l-1-3-3-3c-3-1-12-13-12-16s3-5 10-8c3-1 6-4 10-9l9-9c3-1 3-1 6 1l3 3 1-3c2-5 2-6-2-9h-7c-3 1-4 2-3 3 0 2 0 2-6 1-6 0-7 0-11 2s-9 3-11 1c-1-1-2 0-7 5-6 7-7 7-9 7l-7-6-6-6c-2-1-3-3-4-6-3-8-2-16 4-22 3-4 5-4 11-1h11c6-2 8-2 10-1h14c12 0 13 0 17 2l7 2 3 1c1 1 9 0 14-2 5-1 13-10 20-20 4-7 4-7 3-9l-5-2c-2 0-3 1-4 4z"/>
  <path d="M48 424l-3 1 3 6 6 7 4 4c1 3 4 3 5-1 2-5 1-6-5-12-5-6-6-7-10-5z"/>
  <path d="M207 431c-3 1-4 4-1 4l3 1c2 3 4 2 5 0 0-3-1-7-3-7l-4 2z"/>
  <path d="M198 432c-1 1-1 3 1 3l3 2 3 2-2-3-1-4c1-2-2-3-4 0z"/>
  <path d="M184 433l1 1h1l-1-2-1 1z"/>
  <path d="M184 439c0 2 1 2 3 2s2 0 0-2l-2-2-1 2z"/>
  <path d="M721 455v2c1 1 1 1 1-1s0-3-1-1z"/>
  <path d="M210 458c-3 3-1 5 4 4l4 1 1 1c2 0 1-3-3-5-4-3-4-3-6-1z"/>
  <path d="M763 457l5 4c1 0 1-1-1-3s-4-3-4-1z"/>
  <path d="M788 459c-2 0-3 2-3 2 0 2 6 5 7 4l1 1h5l6-1c4 0 5-3 2-5-2-3-14-4-18-1z"/>
  <path d="M74 462v3c-1 1 0 2 3 1v-4c-1-2-4-3-3 0z"/>
  <path d="M714 466c0 2 0 3 2 3l4 3c3 3 9 5 10 3 1-1 0-3-1-3l-3-1v-2c2-3 0-5-5-4-2 0-3-1-3-2l-3-1-1 4z"/>
  <path d="M207 465c-2 0-2 1-1 5l2 2 2-3 3-3c0-1-4-2-6-1z"/>
  <path d="M829 465l-6 4-9 4c-5 0-7 2-7 4l-4 7-1-3c0-3 0-4-2-4s-2-1-2-2l-5-1c-5 0-7 3-3 4l2 2 4 6c3 4 8 6 11 4h7c5 2 7 3 7 6 0 2 3 7 6 10 2 1 3 2 5 1l4 1h3l11-1 11-2c3 0 3 0 2 1v2c2 0 1 3-3 4-4 3-6 2-8 0l-2-3-5 4c-7 7-6 7-10 5-5-2-6-2-10 0-3 1-3 1-2 3l3 1c3 0 9 3 10 7l3 2 3 2c1 2 1 3-1 4s-2 2-1 3l1 3c-1 1 0 2 1 4 2 2 2 2 6 0 6-1 7-3 7-6 1-5 3-6 8-2 7 6 11 7 12 6 1-2 4 0 7 3 4 5 9 7 19 8 7 1 10 1 12 3l5 2 9 4c6 3 7 3 8 2s2-1 8 3c11 7 15 10 15 12l2 2 3 7 5 10c3 3 3 3 2 7-1 3-1 3 2 6 3 2 3 3 2 3-2 0-2 0 0 2 1 2 1 2-1 1-8-2-16 4-22 16-4 7-3 9 0 8l8-1h15c2 1 3 1 3-1 1-3 6-5 7-4h7c8 0 10 1 23 13l10 10v-25c0-25 0-25-2-28-2-2-2-2-1-6 2-3 2-8 2-45v-43l-5-2-8-2-5-1c-1-1-4-2-5-1l-14-4-12-6c-2-2-20-8-22-8l-8 3c-6 3-6 3-6 6v4l-8 1c-10 1-11 2-11 4l-5 7-4 5c0 1-2 4-5 6-5 4-6 5-10 5-5 0-9-4-8-7 0-2 0-2-2-2-1 0-2-1-3-5 0-3-1-4-2-4l-2 1c0 3-1 2-4-2-4-7-5-16-2-21l2-4-3-7c-4-6-3-6-13-8l-9-3c-5-4-15-6-20-4z"/>
  <path d="M775 466l2 1 1-1-1-1-2 1z"/>
  <path d="M715 471v3c2 2 3 1 3-1s-1-3-3-2z"/>
  <path d="M898 472l4 3 6 5c2 3 4 4 6 4 3 0 6-1 6-3l-3-1-4-4c-1-2-3-3-6-4h-9z"/>
  <path d="M79 479c-2 3-1 5 2 10s7 8 10 8c4 0 4-3-1-12-4-7-5-8-7-8l-4 2z"/>
  <path d="M885 479c0 2 2 4 5 4s3-1 0-3c-3-3-4-3-5-1z"/>
  <path d="M622 483c-3 0-4 1-4 4 0 4 2 5 5 2 2-1 2-1 4 1l2 2 2-2c3-3 4-5 2-7l-2 1c-2 1-4 1-4-1h-6z"/>
  <path d="M723 483c-1 1 1 2 3 2l-1-2h-2z"/>
  <path d="M774 483l2 1 1-1-2-1-2 1z"/>
  <path d="M722 488c-3 3-4 4-1 7 2 2 3 2 4 1l8-1c6 0 7-1 1-5-7-4-9-5-12-2z"/>
  <path d="M237 491h-2c-3 0-6 1-6 4l-3 4-3 4 7 1c7 0 7 0 9 4l3 8c0 3 2 6 8 9l5 3 2-6 3-7c2-1 2-1-4-3s-8-4-10-13c-2-8-3-9-6-9l-3 1z"/>
  <path d="M900 493l6 2 8 3c2 2 3 2 4 1l6-1c6 0 8-1 5-3l-11-1-14-2c-4 0-5 0-4 1z"/>
  <path d="M653 495c-2 1-2 1-1 4s4 4 8 1h22c5-1 5-1 4 3l1 3 2-3c0-2 1-3 4-4l3-1-2-1-10-1-15-1c-10-2-14-2-16 0z"/>
  <path d="M778 496c-3 0-5 2-5 2-1 1 6 5 9 5s5-1 5-3v-1l1-3c-1-2-3-3-10 0z"/>
  <path d="M108 513c0 3 2 7 4 7l2 2 4 7 3 2v-3c0-3-1-5-6-10-5-6-7-7-7-5z"/>
  <path d="M280 515c-2 3-2 11-1 12 1 2 2 2 4 1h4c2 1 2 0 5-3l3-5-4-4c-5-3-10-4-11-1z"/>
  <path d="M762 520c-2 2-3 2-4 1s-3-2-10-1c-10 0-10 0-14 4-3 3-4 4-2 7l1 4 2-4 2-4 4 4c2 2 3 3 2 4l-1 2h7v-1c-2-1-2-1 0-4 2-2 5-3 6-1l5 2 8-1c4-1 4-1 16 5l12 6 1-4c1-2 1-3-2-6l-3-5c0-2-5-5-8-5l-6-1-8-2c-4-2-5-2-8 0z"/>
  <path d="M732 522v1l2-1-1-1-1 1z"/>
  <path d="M697 525c-5 1-8 3-8 4 0 2 5 9 10 11 4 4 7 4 13 0 5-2 5-2 5-5s0-4-2-4l-2-1c1 0 0-2-2-3-3-3-6-3-14-2z"/>
  <path d="M727 528v1l2-1-1-1-1 1z"/>
  <path d="M722 530c-1 1 0 1 1 1l2-1-2-1-1 1z"/>
  <path d="M739 535v2h1v-2h-1z"/>
  <path d="M715 543l1 1v-1l-1-1-1 1z"/>
  <path d="M621 547c0 2 2 4 4 4s4-3 3-5-6-1-7 1z"/>
  <path d="M855 551l3 1-1-1-2-1v1z"/>
  <path d="M620 556l-1 5c-1 3-1 3-2 1s-2-2-6-1c-3 2-4 2-4 7l-1 7c0 1 0 2 3 2s4 0 4 2c0 5 4 7 6 3l5-5 3-2-3-3c-2-3-2-3-1-6 0-2 1-2 3-2s2 0 1-3c-1-4-3-6-4-6l-3 1z"/>
  <path d="M596 570c-1 2-1 4 1 6 2 3 4 2 4 0 1-4-2-8-5-6z"/>
  <path d="M634 574v2c2 2 3 0 2-2h-2z"/>
  <path d="M157 577l1 2 6-1c0-2-2-3-5-3-2 0-2 0-2 2z"/>
  <path d="M846 579c-3 4-5 10-3 10l6-13c0-1-2 0-3 2z"/>
  <path d="M875 581c-2 2-3 4-2 5v5h-2c-1-2-2-1-3 10 0 7 0 8 2 9s7-2 9-6l2-4 2-4c2-1 2-2 1-4v-3c1-2-2-12-4-12l-5 4z"/>
  <path d="M837 586c0 2 1 3 2 3s2-3 0-5c-1-3-2-2-2 2z"/>
  <path d="M565 587c-1 2 0 12 1 11v-11c-1-2-1-2-1 0z"/>
  <path d="M239 598c-5 11-5 13 1 11 3-1 3-1 6 1l5 2c2 0 3 0 3 2l-1 2-1 3c0 1 1 2 8 2 9 1 16 3 27 7l8 3 5-1c5-2 16-3 19-1l6 1 13 4 18 7v-1l7 1 8 1c2-1 6-1 12 1h15c5-1 6-1 15 2l12 3 3 1 6 3c1-1 1-2-2-5s-4-6-2-8h2c0 2 4 5 8 5 5 1 7 4 7 7-1 4 0 4 2 1 0-2 3-4 5-5 5-3 6-5 3-8s-8-4-13-2c-6 2-12 0-12-4-1-2-2-3-6-5s-5-2-10-1c-11 2-12 2-19-1l-7-5 2-3c2-2 3-2 7-1 8 1 13 1 19-2 9-4 7-5-9-6-10 0-13 0-14 2h-4l-7-2c-12-2-15-2-16-4h-5c-2 1-2 1-6-2l-5-4-4 5-6 7-11-2-12-1h-14c-3-1-4-2-4-4s-2-4-4-6c-3-3-3-3-5-2h-6l-5-2-4-1c-2-2-12-3-13-1h-5l-6-2-8-2c-1 0-2 1-6 10z"/>
  <path d="M883 603c-1 2-2 3-1 4 0 1 4-4 4-6l-3 2z"/>
  <path d="M450 610l4 1c2 0 2 0 1-1l-4-1c-2 0-2 0-1 1z"/>
  <path d="M569 614c0 1 2 2 3 1v-1h-3z"/>
  <path d="M428 616l2 1 1-1-2-2c-2 0-2 0-1 2z"/>
  <path d="M745 615l1 2c2 1 3 1 3-1s-2-3-4-1z"/>
  <path d="M812 616l-6 7c-2 3-4 5-5 4l-1 1 2 1 1 3c0 2 1 3 2 3l3 1 7-14 1-5v-2c-1-1-2-1-4 1z"/>
  <path d="M819 615c-1 1 0 1 1 2h2c0-2-3-3-4-2z"/>
  <path d="M576 617l3 1 2-1-3-1-2 1z"/>
  <path d="M801 623c0 1 2 1 3-1l-1-1-2 2z"/>
  <path d="M719 626h2c2 0 2-2-1-2l-1 2z"/>
  <path d="M697 627l-6 1c-2-1-3 0-5 2-3 4-3 5 3 5l12-3 7-3-2-2c-3-2-4-2-9 0z"/>
  <path d="M769 631c-1 0 0 2 2 3 2 2 2 2 4 0l1-3h-7z"/>
  <path d="M504 637c-5 1-6 2-5 4v3c-2 1-3 1-5-1-2-1-2-1-6 1l-4 4c-2 6-2 7 0 9 3 3 5 4 8 2l6-2c5 0 18-3 19-5 0-2 2-1 2 0 0 3 10 2 15-1l3-3h-1c-1 2-3 0-3-4-1-2-1-3-4-3l-5-1-5 1c-2 1-2 1-5-2s-4-3-10-2z"/>
  <path d="M729 637c0 1 4 4 6 4l1-3c0-2-1-2-3-2l-4 1z"/>
  <path d="M533 638v2c2 2 4-1 2-2h-2z"/>
  <path d="M618 638v1c2 0 1 2-1 3-2 0-4 2-6 4l-4 3-4-1c-4-2-6-2-11-2-5 1-6 1-15-3l-9-4-5 2c-8 1-10 2-12 6v4c1 3 1 3 11 2l14 1c3 2 3 2 7 0l9-1h6l11-3 14-4c4-2 4-2 5 0s2 2 5 1l3-2 2-1 3-3c1-2 1-2-7-2l-10 1-2-1c-1-2-4-3-5-1z"/>
  <path d="M654 641l-2 4 5-1c9-1 13-2 13-4s-1-2-11-2c-4-1-4 0-5 3z"/>
  <path d="M797 640c-3 4-1 4 3 0 3-3 3-3 1-3l-4 3z"/>
  <path d="M647 641c-4 3-5 4-2 5s4 1 6-3 0-5-4-2z"/>
  <path d="M753 640h3c1 0 1-1-1-1h-2z"/>
  <path d="M470 641c-3 2-3 3-2 6 0 2 0 3-2 4h-3v1l5 2c6 2 10 2 10-1l2-6c3-4 3-5-1-7s-6-1-10 1z"/>
  <path d="M541 647l1 3h1l2-2c2-1 1-3-2-3-2 0-2 1-2 2z"/>
  <path d="M455 650c-2 1-1 2 1 2 1 0 2 0 1-1 0-2-1-2-2-1z"/>
  <path d="M547 651l1 1c1 0 2-2 0-2l-1 1z"/>
  <path d="M665 655l-13 6c-10 3-16 8-16 12l-3 6-4 6c0 2 0 2 2 1 2-2 6-2 9-1h6c7-2 12-5 19-13 6-6 7-8 7-10v-4c3 0 2-3 0-3l-3-1c-1-1-3 0-4 1z"/>
  <path d="M535 666l-4 3c0 1 4 3 14 6 5 2 8 3 11 6l7 4c3 1 8-1 10-4s-1-5-10-12c-7-5-8-5-16-5-7 0-9 0-12 2z"/>
  <path d="M595 690v2c2 1 5-1 5-2-1-2-3-2-5 0z"/>
  <path d="M625 692c-10 6-9 9 1 4l6-2-1-3-1-3-6 4z"/>
</svg>
