<svg xmlns="http://www.w3.org/2000/svg" viewBox="0 0 1024 1024">
  <path d="M645 0c0 1 2 2 5 2 5 2 7 4 4 4s-3 2-2 6l8 8c7 5 7 5 5 7s-6 1-9-2c-2-2-2-2-1-3 2 0 1-1-1-3-4-3-6-3-11 1s-5 4-8 2h-4c-1 2-2 2-4 2-3 0-4 1-4 2l1 2c2 0 2 3 0 5-1 2-1 2 1 3l3 1-3 3c-5 5-5 5 8 25l4 7-3 3c-3 2-3 2-1 4l3 5c1 4 0 5-5 7-2 0-4 1-5 3s-2 3-4 3l-7 5c-8 9-10 11-11 10-2-1-1-5 6-12l7-9c0-2-2-2-6-1-5 2-5 2-5-1l2-3c4-2 15-14 15-16 1-3 0-4-3-8l-6-8c0-2 0-2-5 3l-5 4 4-9c2-1 2-1 0-3v-4l2-5-6-12-5 3-7 4c-2 0-4 1-6 4-4 4-4 4-2 7l2 2c2-2 4-1 5 1 0 3 2 2 2 0s0-2 2 0l4 3 1 2 1 3c2 0 2 2 0 10-2 6-3 7-4 7-1-1-2-2-2-6 0-7 0-7-3-11l-3-2h-3c-1-1-3-2-4-1-2 0-5-5-5-9 1-2 1-2-1-2l-3-1h-2c-2 3-1 5 2 6 5 2 5 5 1 14l-2 5-3-2-2-2 2-3c2-2 2-2 1-3l-4-3c-2-2-3-2-3-1-2 2-6 1-7-1l1-3c2-3 0-4-5-4-4 0-4 0-4 3 0 4-3 10-5 10l-1-1h-3l-7 2c-4 0-5 1-7 2-2 3-3 3-17 0-4 0-4 0-4 2l-1 6-3 10c0 4-1 6-2 6 0 0-2 1-2 3-2 5-5 7-7 5h-3l-1 1-1 3c0 2 0 2-3 3-3 0-4 1-4 6 0 3 1 5 3 2 1-1 1-1 5 2l6 5 2 2-6 2c-5 1-6 2-5 3l-1 2c-2 0-1 2 4 5 6 4 6 3 5 1 0-3 1-3 5-1 3 2 4 3 4 5l-1 2h-5c-2-1-3 0-3 3 0 4-3 7-6 5h-3c-2 2-3 2-6 1-2-1-3-1-7 1s-4 3-2 3l2 2 1 2 8 3-8 4c-3 0-3 0-1 2 1 2 1 2-7 2-6 0-9 0-13 2-4 1-6 3-7 4l-2 1c-1 0-5 5-5 7 0 3-5 6-7 5-2 0-2 0 0 2s2 3 1 5c-2 1-2 1 9 6 6 4 9 6 8 7 0 2 4 1 5-1 1-1 2-1 5 1 3 3 5 4 9 1l8-2c3-1 3 0 4 2 0 3 0 3 4-2l4-6v3c-1 4-1 4 2 3 2-2 5-1 5 2s0 3 5-1c5-6 8-7 11-5 1 1 1 2-1 5-2 5-1 5 8-1 10-5 10-6 11-4 1 1 2 0 3-1 2-2 4-1 2 2v6c-2 4-4 5-4 2l-3 3-5 6c-1 1-2 2-1 4 0 2 0 4-4 7l-3 4-2 7c-2 4-3 5-5 5l-10 3c-7 3-12 4-14 2-1-2-2-1-2 1 0 3-4 9-7 12l-5 3-8 4-6 4-4 2c-2 2-2 2 0 4 1 2 2 2 5 2 9-2 9-2 15 1 4 3 5 3 4 5-2 1-4 1-7-1-2-1-3-1-3 1l4 2c4 1 9 4 9 6s-8 3-13 3c-6-1-6-1-6 1 0 3 6 9 12 12 4 2 4 2 3 3l-6 1h-3c0 2-2 1-6-3l-4-6c-1-4-5-7-7-6-7 2-7 2-10 0l-3-2-4 3-6 3c-3 0-12-5-13-7 0-2-2-3-10-4-8 0-12 0-12 3l-4 10c-3 7-4 9-6 10l-2 2c0 3-1 5-2 4v-2c0-2-1-3-4-6l-10-12 1-3c1-1 1-2-1-1-2 0-4-3-4-7l-2-2-7-2-4-1-3 3c-3 3-3 3-5 2-1-2-4-2-7-2l-6-1h-14c-2-2-10-3-14-1-3 1-4 1-10-2-9-4-13-5-17-2l-3 3 3 5c2 2 3 3 2 4l-4 2c-3 1-4 2-4 8-1 8-3 10-11 10l-5-1 3 3c3 2 4 6 2 6v13l1 3c0 2-1 3-6 4-2 1-2 1 0 4l3 5c-1 1 2 1 5-1 2-1 3-2 3-4l1-3 3-2c1-2 2-2 3-1 3 1 3 1 2 3v1c2 0 1 2-2 3s-6 5-7 11c0 3 0 4 3 7 1 2 4 3 5 3 3 0 4 3 1 5-2 2-1 6 2 6 1 1 2 0 3-1 2-1 3 0 3 3s-2 4-7 2c-7-2-12-1-11 3 1 1 0 4-1 6l-2 7c-1 4-1 4 2 5 3 2 12-1 16-5 3-2 4-3 6-2l10-1 5 1h2c1-2 14 0 15 2 2 3-2 12-6 12l-1 4c1 4 2 5 7 5 6 0 2 4-6 7h-7c-3-1-4-1-8 1-5 2-5 2-9 1h-8l-9 3-5 1 1 3c1 2 1 4-1 9s-2 6-1 8v4c0 4 0 4 10 10 9 6 10 6 15 6l8-1h3c0 3-2 4-9 5s-8 1-13-2c-7-4-12-4-15-1l-2 3-6-2c-7-2-10-2-11 1 0 2 5 5 9 5 2 0 2 0 2 3v2l1 2h-3l-2 1c0 2-2 1-4-2-2-4-2-4-9-4h-6l2 2 2 2h-2l-5-1c-3-2-6-1-7 1s0 3 2 3l5 5c3 4 4 5 8 7 3 0 7 2 8 3 2 2 3 5 1 5l-4 4c-3 4-3 4-5 3l-5-2c-2-1-3 0-6 4-2 2-2 4-1 3 1 0 2 0 3 2h4c6-2 8-2 10 0l2 4 6 3c7 2 11 2 11-3 0-4 3-7 5-6l4-2c3-2 6-2 6 1l2 1c4-1 5 0 5 5v4l-7 2c-7 2-9 3-7 4 1 1 0 4-2 7-3 3-3 3 1 4 2 1 2 1 2-1 0-3 0-3 5 1 6 5 8 5 11 4s4-2 5-5c2-6 12-17 14-17 2 1 4 4 2 7-1 2 0 3 1 4s1 1-1 2c-3 1-3 1 1 1h3v-6l-1-6 5-1c5 0 5 2 1 4s-4 3 0 5 4 4 1 4l-1 2c0 2-1 2-2 1-5-1-5 1-3 5 3 5 2 6-1 10s-3 7 0 8 4-1 4-6l2-7c2-2 2-2 4-1l2 2-2 3-2 2 2 4 3 5 8-1c9-3 18-4 39-5 15-1 18-1 24-3 5-3 7-3 10-2h6c2-1 6-1 6 1l-4 3-2 2c1 1 1 2-1 3-2 2-2 3 0 5 1 2 2 3 6 1 5-3 5-2 2 2-5 5-5 8-2 11l2 6-6-3c-4-3-6-4-9-4s-3 0-2 1l4 1c2 0 3 3 1 5-2 1-3 1-6-1l-6-3c-2 0-2 0-1 2 2 1 3 5 1 5l-2-1c-2-1-2-1-5 1-1 2-4 3-5 3l-9-4c-7-4-8-5-10-4l-2 5c0 6-3 11-7 12l-4 4-3 7-2 7c1 1 0 2-2 4l-3 4-3 7-2 4h10c4-2 6-2 7 1 1 1-1 3-6 8l-7 8-2 4v4c1 1 1 2-1 3l-2 3-2 3c-2 0-2 1-2 5 0 9-6 16-10 13-2-2-4-2-8 0-3 1-5 4-3 5l-2 3-2 5c0 3 0 3-3 3-2 0-4 1-8 5-3 3-7 6-9 6l-5 5c-1 2-3 4-8 7-8 3-9 5-8 6 1 2 5 1 6-1s2-2 5-1c4 0 6 0 10-2s6-3 8-2c2 0 3 0 3-2l-1-3c-2-1 1-3 9-4 5 0 9-2 11-3 4-2 4-2 2-4-3-4-3-5 0-5s4 0 4 3c0 2 1 3 4 5l9 5 7 3 10-4 11-5c2 0 2 1-3 5-6 6-6 8-1 8 2 0 3-1 4-3l2-5 8-1c7 0 7 0 12-4l5-6 1-2c1 0 3-2 4-5 1-2 2-6 4-7l2-6 2-4 12-6c2 1 1 3-1 5-2 1-2 1 1 4 2 2 2 2 1 4l-2 7v4l6-2 6-2 7 2 12 3 6 1c0 1-3 3-7 4-7 2-7 2-9 0h-9l-10 2c-3 0-4 1-7 4l-3 5c0 1-2 1-5-1-4-2-4-2-6 0l-8 4-19 7-14 4c-3 0-5-1-5-2l-7-1c-5 0-7 1-9 3-1 2-2 2-3 1 0-2-1-2-4-1-4 1-5 1-10-1-4-1-7-2-8-1-3 0-6 7-7 15-1 7-1 9-5 10l-6 4-11 6c-7 4-9 4-11 3h-6c-4 3-2 5 7 6 7 1 9 3 8 8a231 231 0 00-3 15c-2 3-1 3 1 3 2-1 3 0 0 2-2 3-1 3 5 3 5 1 7 1 8 3l3 3-5 3h-8c-1-2-2-1-6 2l-6 3c-7 0-15-5-19-11l-1-3-2 2c-3 4-10 8-13 8l-5 2c-3 2-4 0-2-3 1-2 2-4 1-6 0-5-2-5-5-2-1 2-3 3-4 2-3 0-10 4-11 6l-6 4-4 2c3 0 3 1 0 4-2 2-3 4-1 4 2 1 0 4-3 5-2 0-7-5-5-6h-2c-3 2-4 2-2 4v3l-3 3v4l1 6c-1 3 1 4 7 2 4-1 5-2 4-3 0-2 0-3 2-4s3-1 5 1c1 2 4 3 7 4h4l-3-2c-4-2-4-2-3-3 2-3 5-2 8 0l4 2 4 2c2 1 3 1 5-1h9c2-2 18-6 20-5l6-2c6-2 18-4 22-2h5c2-1 3 0 2 2l-2 1c-2 0-2 1-2 3 1 2 0 2-3 2s-5 1-8 3l-5 2c-1-1-3 0-4 2-2 2-3 4-2 5s1 2-1 2l-9 6c-6 4-7 5-9 4-3-2-15 2-18 6l-3 2c-1-1-2 0-3 1l-3 2c-2-1-6 1-6 4 0 2-2 4-3 2 0-1-3 0-3 2l3 1 2 1 6-2c5-3 8-4 7-1l-7 4c-6 3-6 3-5 5 3 2 3 7 1 5-2-1-3 0-9 3l-9 3c-3 0-4 1-2 3l1 3c-1 2 0 2 1 2h4c2 1 2 1 2 8-1 7-1 7 1 6l9-9 3-4h6c7 2 9 9 4 14l-2 3 6 3c7 3 7 3 11 2l4-3 4-2 9-3 8-5c2 0 3-1 3-3l1-2 1 1 3 2c4 1 4 1 6-1 3-3 5-4 5-2l2-1c4-5 10-8 20-9l13-3 4-1c1 1-1 3-7 6l-6 4-7 2c-7 1-8 2-11 6l-7 6-3 1 3 1c3 1 4 2 2 4-1 2-2 2-5 1-4-1-5-1-5 2l-3 3c-3 1-3 1-3-1s0-2-4 0l-5 2c-2 0-6 3-6 4l3 1c4 0 4 0 1 5-2 4-5 5-11 6l-7 2h-3l3 2c4 1 5 2 3 6s-6 7-10 6c-2-1-3 0-3 1 0 2 0 2 1 1l10-1 5 1c3 1 3 1 6-2 3-2 4-3 7-3 3 1 3 0 3-2 1-3 3-6 6-7l11-1 10-2 2-1c2 0 2-1 2-2 0-3 3-4 3-1 1 2 1 2 3 1 3-1 5-1 5 1 0 1 1 1 3-1l7-5 5-3c2 0 2-1 2-5 0-6 2-7 4-1 3 4 6 6 9 4 3-3 4-2 4 4 0 5 0 5-4 7l-13 6c-16 6-35 17-40 24l-2 3 5-2c12-5 22-9 26-12l9-3c5-1 5-1 5 1 0 3 0 3-3 3s-15 9-15 12c0 2-2 3-9 7-11 5-19 10-17 10l1 4v3l3-2c2-2 2-2 4-1 2 2 2 2 5-2l4-5 4-2 3-3c0-2 3-1 6 2 2 2 2 2 4 1l5-2c3 0 3 0 3-2 0-4 3-5 4-2h6c5-2 7-4 4-7-1-2 0-3 2 0h3c2-1 5 1 5 3l-1 5c-2 2-1 3 2 2s4-1 2 2-1 4 2 2c2-1 2-1 2 1l-2 3c-2 0-3 2-1 2l6-2c5-2 5-2 4-3-2-3 0-4 2-2h4l4 2c3 1 3 1 6-3l4-8c0-4 2-4 2-1 0 4 2 4 5 2 2-2 2-2 0-3l-2-2-1-3v-3l5 4c5 3 7 4 7 2 0-1 3-2 10-3 3 0 4 0 6 3 2 2 3 3 4 2h3c1 1 2 0 4-5 4-5 4-6 4-10l-1-4 3 4c4 3 4 3 6 2s3-1 5 1l3 2h2l4 3c3 0 3 0 3-2l2-4v-6l1-4c-1-3-1-3 1-3l4 2h5c7-2 9-1 11 2 2 4 3 3 1 0-1-2 0-3 2-7s2-5 1-6c-1-2-4-2-7-1s-6-2-7-6v-3l3 3c2 3 3 3 6 3h6c0-2 3-1 5 2l4 3c2 0 1-1-2-5l-2-3h3l4 1 2 2h1l2-1 4-2 4-2c4 0 8-5 9-10l2-8 2-4h-3c-1-1-2-1-1-3 0-2 0-2-3-2s-3 0-2-4v-5c0-2-1-2-4-2-5 0-6-1-5-5v-4l4 3c3 2 7 3 7 1h2v11l4-1h13l-2 2c-2 1-3 2-3 4l-2 2v2l1 4h2l6 1c4 1 4 1 7-1 2-3 4-3 12-4l10-2-1-1c-3-2-2-5 0-8 2-2 4-3 11-4l10-2-3-3-3-2 5-5 6-5-2-5v-6c1 0 4 4 4 7s3 4 6 2h5c4 3 6 2 6-1 0-5 2-6 10-7 9-2 11-3 11-9l2-6v-2c-2 0-10-6-10-7l4-5 4-2 3 3c1 2 2 2 2 1 0-2 5-6 7-6l8-4 10-3h18l16-1 2-2 4-3c1 0 2-1 1-2l3-1c3 0 7 3 5 4l-1 3c-1 3 0 3 1 2l6-1c4 0 5 0 8-4 4-5 4-5 3-7-2-2-2-3-1-5 2-5 1-7-1-10-2-2-3-4-2-5l-2-1c-3 0-3 0-2-2 2-1 2-3 1-5 0-3 0-4 2-6l2-1v2l-2 4 2 3c2 2 3 3 3 5s1 4 5 8c6 6 9 11 7 11l-1 4 1 5c1 0 10-6 10-8v-5c-2-1 4-9 7-10l3-3h2v3c-7 9-7 10 1 8s12-1 19 6l5 4 7-2 10-2 2-2c0-3 1-3 5 0l3 2 3-3c4-4 6-2 3 2-1 3-1 4 2 4 1 0 2 0 2-4l3-8c3-4 3-6-1-5-1 0-3-1-5-4l-3-5-4-4c-4-2-5-4-6-7 0-3-1-3-4-5l-4-2c0-1 6-7 7-6v3c0 3 1 5 4 3 1-1 7-1 10 1 2 0 2 0 2-4-2-7 1-12 13-29 14-20 14-19 11-29l-3-12c0-3 2-8 8-18 5-7 5-8 5-15 0-9 2-15 9-21 3-3 8-14 11-26l1-4-3-3-4-4 1-10c2-15 1-20-2-26l-3-8-3-12-3-10 2-4 1-4c-9-3-14-6-15-7-3-3-4-7-2-8 1-1 1-1-1-3-3-3-3-5 1-5 2 1 4 0 9-3l7-5-3-6c-2-5-3-7-7-8l-5-2c-1-2-1-2 2-3s5-2 7-1c2 0 3 0 4-2 2-3 1-4-5-4l-6-1c-1-1 3-3 8-4 5 0 7-2 7-7s-2-8-8-11l-7-6c-1-2-2-5-4-6-3-5-5-14-5-26l1-14c2-2 2-3 1-3-2 0-5-3-5-6l1-7c2-3 2-4 0-5l-5-2c-4 0-10-4-12-8s-3-14-1-15l1-4 3-4c3-3 2-4-2-4-3 0-4-1-1-3 1-2 2-2 4-1l5 1 4 2c3 2 14 7 18 7l6-3 4-2-2-3-4-3-13-11-12-12-1 3c-2 2-5 3-7 1-1-1-1-1-1 2 0 6-9 10-15 6l-2-2-3 3c-3 2-4 2-9 2-4 0-6 0-7 2-3 3-5 2-9-2-3-3-4-5-3-6l1-7 2-10c3-6 2-10-4-13-4-2-5-2-5 0-1 3-5 2-10-2-5-3-6-5-8-11l-6-9-3-3 1-3c2-3 2-3 1-7l-4-6-5-6c-2-5-5-8-10-11s-7-3-12 4c-6 8-11 13-14 15-2 0-3 2-2 2l-2 4-2 3 4 4c4 4 7 9 5 10v6c-1 2-5 4-6 2-3-2-8 1-10 4l-1 8c0 6-3 12-7 13l-6 2c-2 1-2 1-4-1l-3-2-5-1-3-3c1-4-3-2-5 2-3 4-5 5-7 3l-4-1h-6l-4-2c-2 0-6-4-6-7 0-2-2-4-5-4l-4-3c0-2-1-3-7-4s-8-1-10 1c-7 3-11-2-12-16v-8l-5-1c-6-2-9-5-12-11l-4-5c-2 0-5-2-9-7l-14-18c1-1 0-2-2-3-3-1-3-1 7-4 9-3 12-6 16-13s6-9 10-7c3 2 13 4 15 3 3-1 6-5 8-8 2-4 5-6 12-10 6-3 6-3 5-5 0-2 0-2-3 0-3 3-3 3-9-1-4-2-5-3-6-2-2 2-5 1-6-2l-4-3c-2-1-5-5-5-10-1-3-1-4 2-4l5-5 5-4c1-1 4 1 6 3l7 3 6-3 10-5c5-2 6-2 11-1l6 1-1-3c-2-7-1-9 6-17 9-9 10-11 8-21-1-7-1-10 4-13 3-2 3-2 3-9 0-8 1-12 6-17 3-2 4-3 7-3l5-1h2c1 1 1 1 1-1l2-3 7-8c2-4 5-9 7-10a110 110 0 0125-17l7-3c5-3 7-5 6-8s-3-4-7-4l-7-2-5-2-7-3c-6-3-11-8-12-13-1-3-15-10-22-11l-8-2h-2z"/>
  <path d="M232 294c-4 2-5 3-5 6v4l1 2 2 2c2 1 1 3-2 6s-4 4-4 7c0 4 0 4 3 4l4-1 1-3c0-2 0-3 1-2 4 0 5-1 3-4l-2-2 3-3c2-2 2-2 3-1 2 2 2 2 3 0s1-2 2 0 2 2 2 1l2-1c1 1 2 0 3-2 3-5 2-6-1-7l-8-5-5-3-6 2z"/>
  <path d="M221 333l-2 7c0 2 0 3 3 4 6 3 8 1 4-4-2-2-2-6 1-5v-3c-1-4-4-4-6 1z"/>
  <path d="M225 367c-2 3-3 3-6 3l-6-1c-2-1-9 7-7 8 1 2 8 1 11 0h3c1 2 1 2 4 0 2-2 3-2 4-1 3 1 5 5 4 6-1 2-2 8-1 9l2-1c1-2 4-1 6 3 0 2 2 5 4 6 2 2 2 2 3 1l1-4v-6l2-6v-3l-3 2c-2 0-2-1-2-5 0-5 0-6 3-7l2-1-3-3-2-3-5 2-4 2-2-2c-3-3-5-3-8 1z"/>
  <path d="M237 420l-5 3c0 2 11 1 13-1 2-1 2-1 0-3-3-2-3-2-8 1z"/>
  <path d="M213 493l1 1 1-1-1-1-1 1z"/>
  <path d="M286 561c-2 2-3 2-2 4l1 3c-1 2 1 4 5 4h3v-6c0-6-2-8-7-5z"/>
  <path d="M376 592v1l1-1h-1z"/>
  <path d="M269 594c-2 0-1 1 5 4 5 1 10 4 13 6 7 4 8 4 5 0-3-2-3-3-2-4 2-3-6-5-10-3-3 1-3 1-4-2-1-2-2-2-7-1z"/>
  <path d="M301 609c-2 3-2 4 0 4s5-3 5-5c0-3-3-2-5 1z"/>
  <path d="M310 617l1 1 3-1c1-2 1-2-1-2s-3 1-3 2z"/>
  <path d="M177 909l-4 5c0 2 1 2 8-2l10-5c1-1 1-1-4-1-4 0-6 1-10 3z"/>
</svg>
