<svg xmlns="http://www.w3.org/2000/svg" viewBox="0 0 1024 1024">
  <path d="M647 1l-1 2-1 4c-2 2-4 13-3 16l-1 9-2 10c0 2-1 4-3 5l-3 5c-1 2-2 3-7 3-6-1-6 0-9 3-3 4-4 4-11 4s-7 0-8-2l-2-3c-1 0-3-1-3-3-2-2-2-2-13-2l-13 1-12 1-11 1a308 308 0 00-9 63c-4 9-9 12-15 8-2-2-4-2-6-2-5 1-6 4-5 17 0 10 0 11-2 16-3 4-4 13-6 35l-3 16-6 26-2 10-9 33a391 391 0 01-21 69c-2 7-5 16-9 23l-6 14-7 17-6 14-6 10-7 11-8 12-6 11 6 6c4 2 7 5 8 7l1 3-6 6a253 253 0 00-27 27c-10 9-11 13-11 23l1 9-7 6-12 11-5 4 6 17 13 43c7 25 10 30 20 53a193 193 0 0119 63c0 7 0 8 5 14l4 7-2 6c-2 4-2 7-1 10 0 5 0 5 8 10l7 5 16 45c12 33 16 47 17 52a418 418 0 0024 79l2 10c3 4 3 14 0 17-2 3-2 3 1 13 3 11 7 20 10 20l5-6 7-7c3-2 3-2 3-6 0-5 2-12 5-15 3-4 6-17 6-25l1-9a111 111 0 0011-44c0-10 0-12 2-15l3-12c1-8 2-9 8-18 9-14 9-17 5-33-3-10-3-11-2-14l2-9 2-6 2-6c2-4 1-6 0-13-3-15-4-16-2-19 2-5 9-30 9-35 1-5 3-10 9-21l12-28c1-7 3-12 7-15 2-3 2-4 2-7-1-3 0-7 1-11 1-6 2-7 7-12l6-6v-8c1-6 1-9 4-15l7-16h-2c-7 1-9-2-11-11l-4-10c-5-10-4-17 4-17 3 0 3-1 3-2l-1-8c0-5 0-6 2-9 2-2 2-2 1-5-2-2-2-3-1-5s1-6-1-10c-3-3-3-15-1-23l2-8h-2l-9 5-9 7-6 5c-4 5-15 13-22 16-6 2-8 2-26 2l-27 2c-6 2-7 2-11 0-4-1-5-2-5-5-2-6-1-9 4-18s8-22 8-32c0-6 0-7 4-10l4-7 1-4 11-6 11-8 3-4 4-4 4-2 5-2c2-2 3-2 11-3h10l-2-4c-2-1-3-4-3-5 0-4-3-6-11-7l-12-5-9-4c-6-1-5-2-9 4l-8 2c-8 0-10-1-10-7 0-4 2-5 7-7l5-2v-5c0-5 0-5-4-7l-3-2v-6l2-12 2-12c0-5 0-6-2-9-2-2-3-3-2-5v-10l-1-4c-2-1-5-7-5-11 0-2 1-4 4-6 7-5 9-8 10-11 1-2 0-3-2-6-2-4-2-4-1-11 1-5 2-7 4-9 3-3 3-4 4-9l1-7 2-7c1-7 5-12 12-14l7-6c3-3 15-12 17-12l6 5c5 5 5 5 9 4h22c4 1 7 9 7 17v7l13 4c9 3 14 4 15 3l3-8c2-5 2-9 1-19v-12l3-4 4-3-2-3-5-14c0-3 0-3 2-3 4 1 8-1 9-5l5-5c4-1 5-2 5-3l1-7v-15a500 500 0 01-5-27c-2-3-2-4-1-6l3-19c1-16 1-16-1-23v-6l2-5 1-10a152 152 0 002-31c2-3-2-3-5-1s-3 2-5 0l-4-2c-2 0-4-2-5-6-1-3-1-4-4-3z"/>
</svg>
