<svg xmlns="http://www.w3.org/2000/svg" viewBox="0 0 1024 1024">
  <path d="M796 7l-17 8-30 13c-39 17-56 22-74 22-7 0-8 0-14 3-16 9-38 24-78 53l-37 27c-14 9-18 13-24 22a91 91 0 00-18 46c-1 15-6 36-12 46-1 3-4 7-7 9-3 3-7 7-11 15-15 26-20 39-28 72-7 30-10 36-19 50l-10 16c-5 11-8 14-35 45-36 39-39 42-43 51-4 8-4 8-14 14-19 13-47 29-50 29l-5-2-4-3-3 7c-3 6-4 7-7 9-4 2-13 11-21 23-3 4-3 6 1 18 5 12 5 15 2 22-2 4-3 7-3 11l-1 15c-3 13-8 21-23 38-7 6-13 13-13 15-2 3-2 5-2 12 1 12 3 17 10 24 6 5 6 6 6 11l-2 13-2 8 3 6 3 6-4 16-4 22c0 6 0 7-4 11-8 11-15 23-16 27l-3 9c-2 5-2 5-5 4-4-2-7-1-14 5-4 4-6 6-6 8-1 4-4 9-11 17-8 9-9 15-4 22 2 3 3 3 9 3 9 0 13 2 14 5v5c-2 3-3 3-10 4-3 1-4 2-7 7-6 10-9 15-16 19-7 5-9 7-11 12l-4 10c-4 9-4 14 1 17 7 4 10 7 12 13l3 6 4 1 10-1c3 0 5-1 5-3l1-7v-6h12c10 0 11 0 14-2 3-3 7-10 9-18l3-7 8 4 9 3c7-2 8-5 3-17l-3-10c1-3 0-3 10-2 1 1 2 0 2-6s1-7 3-10c3-2 3-2 19-3 28-2 34-1 37 7l8 10 9 10v9c-4 11 2 18 21 24l9 2c2-1 4-7 4-13 0-9 6-16 21-24 12-7 16-8 26-5 8 3 16 8 18 12v10c-2 7-7 17-14 29l-5 9 20 4c2 0 6-8 17-27l15-27 4-8-2-2-17-17c0-3 11-17 18-25 11-10 21-17 35-24l12-5h17c19 0 20 0 26-7 3-3 4-5 6-12 1-5 2-10 4-11 1-2 5-6 10-8l8-5v-8c0-8 2-14 5-17 6-7 22-10 34-6l8 1 12-11c12-12 17-16 25-20 9-5 20-12 22-15s-1-9-12-20c-6-6-10-10-10-12 0-5 8-18 17-27s10-9 23-9c11 1 12 1 20-2 13-4 31-15 31-18 0-4 7-9 16-12l12-6c5-3 6-4 9-16l7-8c12-16 15-21 12-26l-9-11c-8-11-13-19-14-27 0-4 0-6 4-13 4-8 10-16 15-20 1-2 7-5 11-7 15-7 20-16 25-42 3-16 5-21 20-38 16-18 19-22 20-32 1-9 4-13 17-26 12-12 17-18 19-22l3-13c2-10 4-14 10-17 4-1 5-3 6-5 2-5 1-10-1-14-5-10-19-16-49-22-11-2-13-3-21-9l-3-3-3 4c-1 2-3 3-5 3-4 0-15-7-23-16l-9-8-3-15c-4-16-7-34-8-46-2-20 6-56 18-85 7-16 10-24 12-35 2-15 5-55 5-73V3l-3-1-6-2-13 7z"/>
</svg>
