<svg xmlns="http://www.w3.org/2000/svg" viewBox="0 0 1024 1024">
  <path d="M404 2l-6 1c-6 0-12 2-17 7-6 4-13 7-20 9-2 0-9 2-14 5l-10 5-2 6c0 3-3 7-4 9-4 3-4 3-13 4-7 1-10 1-15 4-9 4-13 4-21 1l-13-4-11-3c-5-2-7-3-15-2-7 1-7 1-9 5-2 5-1 7 2 10l2 5 2 5c2 3 1 6-2 9-2 2-2 2-1 6s1 5-1 9l-2 6 6 8c10 9 11 9 16 9s5-1 7 9c0 3 1 3 5 4l9 3c5 0 5 2 2 6-1 2-3 2-8 3-6 0-7 0-10 4l-6 5-3 1v13c1 13 0 16-5 19l-9 11c-5 6-7 9-7 11 0 6-1 7-6 9-5 3-10 9-20 26-8 13-9 14-16 15-7 2-10 3-11 8l-6 8c-6 5-11 13-11 19l-2 6-6-2-8-1-14 2h-9v-5c0-4-1-5-4-5-5 0-10 4-14 13-2 6-3 7-9 12l-7 6-2 4-4 4c-3 4-1 7 3 9l6 4c2 3 3 3 6 3 3-1 4-1 5 1 2 3 2 7-1 11-2 5-1 9 3 16l4 7h6c5 0 5 0 5 3l3 11 2 11c0 3 1 4 3 5s2 2 1 5l-2 5c-2 2-2 3-1 4l-1 5c-1 3-2 3-6 3-3 0-4 0-4-2-1-3-1-3-10-2-8 1-10 2-11 3 0 3-7 3-11-1-4-3-4-3-28-3l-5-1-1 5c0 4 0 5-3 5l-7 1c-5 0-9 3-8 6 1 2 13 2 16 0s4-2 4-1l-4 3-5 2c-2 2-1 8 3 16 4 7 4 8 7 8l7 4c6 4 11 5 21 5 7 0 8 0 11-3s3-3 7-3h8c1 3-5 11-11 15-4 3-6 4-10 4l-8 2c-4 3-10 2-13-1l-4-2c-2 0-4 2-4 4 0 3 7 14 13 20l7 10a346 346 0 0034 36c2 1 4 1 6-1l7-1c4 1 6 0 13-2l10-4 4-4 5-2c4 0 7-3 7-7 0-2 1-4 4-7 5-4 5-7 2-14l-2-5 3-6c2-6 3-8 5-8l1 1c0 3 2 4 4 3h3c1 1 1 2-2 4s-3 3-2 6v6l2 6c1 2 2 2 5 2l5-2 2 1c-1 2-3 2-8 4-2 0-4 1-5 5-4 6-4 9-1 10s3 2 4 8l2 10c2 3 1 6-2 11l-4 8c-2 9 0 26 3 30 2 2 2 2 0 5-3 4-3 4-1 6l4 2c3 0 3 0 3 3l-2 7c-4 7-4 10-1 13 2 3 2 4 1 6s-1 3 1 5l2 10c0 5 0 7 4 11 3 5 4 8 1 7l-1 2c2 6 3 12 4 27l1 16 8 12c5 9 7 12 7 15s1 5 4 8l4 8 3 4c4 3 9 13 10 20 0 3 1 7 3 10l2 10 1 10 2 11 4 15c2 3 5 9 5 12l12 20 10 15 3 9 5 13c1 7 2 11 6 17l3 8c0 2 1 4 6 8 7 7 10 15 6 13l-2-3c0-2 0-3-2-3-3 0-4 1-2 3l1 7c0 5 0 7 3 11l6 10c3 8 12 18 20 22 4 2 7 5 8 7 3 4 5 4 10 0l6-4c2 0 5-2 8-6 6-6 6-7 6-11l3-10c4-6 6-7 16-8l9-2c2-2 7-2 12 1 5 2 7 1 7-1 0-3-1-3-7-5l-8-2c-1 0-3-3-3-6l3-6c5-6 11-17 11-19s1-2 5-2h7l4 1c3 0 3 0 5-3v-25c1-8 1-9-1-12-3-6-3-20-1-24l3-7c0-3 1-4 3-5s6-8 10-18c2-5 2-8 2-15 0-9 0-9-3-12l-5-5c-1-3-1-11 2-18 2-6 2-13 0-17-2-5-2-14-1-21l5-13c4-8 6-10 13-11l4-1v-15c2 0 4 4 4 9 0 4 1 6 5 6 2 0 4-2 8-10s5-8 15-7h8l6-5c7-5 12-10 12-12l-3-2-3-3c0-4 6-11 9-11l5-3 10-5c11-6 14-8 19-15 5-8 14-16 19-18l9-9 9-11c6-4 6-4 7-10l4-9c3-4 4-5 9-6 6-1 9-3 7-5h-4c-1 0-2 0-2-2 0-4 8-7 12-4 2 3 5 2 10 0l7-2c8-2 12-5 19-15 3-4 4-6 4-9 0-2 1-3 3-5 4-2 4-4 0-7l-2-3 1-9c1-8 2-10 5-14 3-5 6-6 13-6 4 0 15-6 17-10l2-13c1-9 1-11 4-15l5-7c2-1 2-1 2 1 1 3 0 5-4 9-3 3-4 16-2 20l1 7c-1 7 1 9 3 5l4-2c1 0 2-1 2-3 1-4 3-6 5-4 2 1 2 3 2 6 0 5 2 7 4 3 1-1 2-2 5-2 4 0 5 0 5-2l-3-3c-3 0-4-1-4-4s0-3 2-3c3 0 3 0 2-5l-1-10v-17h-3c-3 0-3 0-3-7 0-4 0-5-2-6-2 0-3-2-3-3l-3-8c-2-5-2-6-1-10l1-10v-7l-5-2-9-3c-5 0-8-7-4-10l1-4c0-2 1-2 3-2 3 0 5-2 5-6l1-3 6 1c5 0 7 0 8-2 1-1 1-2-1-4-2-1-3-4-4-6 0-2-1-3-5-3-3 0-4-1-4-2-2-4-6-7-9-7-4 0-4-1-2-5l2-5 4-5c4-3 5-6 3-10l-1-3c1-1 10 3 12 5 3 3 7 4 7 1s5-1 7 3c2 5 6 9 9 9l5-2c1-2 2-2 3-1l4 13c2 12 2 13 6 16 3 2 5 3 12 4 9 1 42 1 51-1 5 0 5 0 11 4l6 4-3 3c-2 3-3 5-3 9-1 5-1 6-8 12-3 4-8 7-10 8-5 2-10 8-11 12-1 2 0 3 2 6s2 5 2 11c0 9 1 11 4 10l2-3c0-3 2-2 3 1 0 3 3 4 6 2 2-1 2-2 2-8s0-6 4-10c3-3 4-5 4-7s0-2 5-2c6 0 7 0 9 14l5 19 4 15c1 4 3 6 4 7l5 3c5 2 7 2 5-2-1-2 0-3 2-6s2-3 0-7l-1-13c0-8 0-9 2-11l3-6c0-3 2-6 3-7 2-2 2-12 1-17-1-3-1-3 1-3 1 1 4 0 5-1 3-1 3-1 6 1 2 3 3 3 6 2 6-2 6-2 6-8-1-5-1-6 3-14l8-11c3-4 3-5 3-9l-3-8c-4-4-4-7 2-11l7-7c3-4 4-14 3-24 0-11 1-14 6-13l6-3 4-4c2 0 3-1 3-3 1-2 2-3 4-3l7-7c5-5 6-6 9-5s4 1 6-1h5c5 2 10 2 10 1 1-1-1-3-3-6l-5-6c0-1 2-4 5-6 7-6 8-7 8-14 0-6-1-6-3-7h-6l-8-2c-5-3-8-3-11 0l-3 2c-2 0-2-1-2-6s0-6 3-9l3-3-4-3-6-3-4-1c-1-2-1-4 2-4 4-1 3-3-2-5-8-3-11-3-16 1-3 3-6 4-8 4s-3 0-3 2l-2 3c-2 2-11 1-15-3s-8-4-10 1c0 1-3 3-5 3-4 2-5 3-5 5-1 2-2 3-4 3s-3 1-3 3c-3 7-4 8-8 8-7 0-15 5-15 10 0 4-2 6-7 8a354 354 0 00-13 10c-2 3-3 4-10 5l-10 3c-1 2-2 2-6 1-4 0-4-1-5-3 0-2-1-3-4-4l-5-3h-5l-3 3c-2 2-3 2-4 0h-10c-2 2-2 2-3 0 0-2-3-5-4-5l-3-2c-3-3-8-3-14-1-2 2-6 3-9 4-5 1-5 2-8 7l-3 9c0 3 0 4-7 9-8 6-9 6-9-5l-1-11c-2-2-5-3-9-1l-7 2h-4l-2 7-3 15-1 8 2 3c4 4 4 8 1 11l-2 7c0 4 0 4-3 3h-3l-7 1-7 2c-2 1-6 0-8-2-1-2-6-3-6-1-1 3-3 2-10 0-7-3-21-5-27-4-4 0-4 0-5-3-1-4-4-5-9-2-3 1-3 1-5-1s-4-2-5-2c-2 1-3 0-6-2-8-9-23-19-29-19l-4 2c-3 2-3 2-6 1-5-1-6-1-10 1l-4 2-6-2-8-3c-3 0-4-1-6-3-2-3-3-3-8-3s-5 0-11-4c-5-5-5-5-8-4-4 2-6 1-12-4-4-4-6-6-6-9-1-4-2-4-7-7l-9-4c-3-2-4-2-8-2-4 1-5 0-7-1l-5-5-3-3 2-2c3-2 3-2 2-10 0-7 0-8 2-11 2-1 3-4 3-5s1-3 4-4l5-5 4-6c6-5 3-8-12-16l-6-2v-5c0-5 0-6-4-6l-5-2c-1-2-4-3-8-3-6-1-7-1-9-4l-5-7c-3-7-6-9-10-5-3 3-3 2-2-3v-7l-2-8-3-5c-2-1-7-7-7-11v-7c3-6 7-6 10 0l5 4 4 2 7-5c8-5 9-8 7-12l-1-5c-1-4-2-5-6-6-6-1-9-3-9-6l-2-5c-2-2-2-3-2-8s0-5 3-8c3-2 5-3 9-3l6-1 1-8c2-8 4-11 8-11 3 0 8-3 8-6l4-8 3-9 2-7c3-3 3-7 0-7l-6 1-4 2-2-3-4-4c-5-1-7-3-7-6l-1-4c-3-2-8-2-11-1z"/>
</svg>
