<svg xmlns="http://www.w3.org/2000/svg" viewBox="0 0 1024 1024">
  <path d="M498 1l-13 6-1 5-1 3 6-1h13l13-2c5-1 5-1 5-5 0-3 0-3-6-5-7-2-8-2-16-1z"/>
  <path d="M436 7c-7 1-11 4-36 26-7 6-8 9-5 14l2 3 8-6 9-9 4-3c3 0 17-9 23-14l4-4-2-4-3-4-4 1z"/>
  <path d="M574 19c-2 1-3 2-3 6v32c1 4 8 7 15 7l17 4 10 2 10 11 9 10 2 12 1 16c0 4 0 4 7 9 6 4 7 5 13 17l11 28c4 12 5 15 10 22s6 8 18 15a406 406 0 0035 20l10 6c4 0 5 1 9 7 4 5 8 8 15 13l15 13c6 5 6 6 11 20 5 19 5 17 12 27l7 8 1 10c0 9 0 13-2 25-4 23-7 34-17 54-9 18-18 31-37 55a592 592 0 00-37 57c-5 12-7 14-12 19s-6 7-10 16c-4 10-4 11-3 20l1 9 5 4c5 3 6 3 12 3h7l8 9c10 11 10 11 13 31 1 11 1 11 9 26l8 15-1 5c0 6 0 7 4 15l5 13c1 3 11 17 14 18l2-3c2-3 2-3-1-10l-3-6c1-2 6 1 11 6l10 6c7 1 8 1 3 11-4 8-4 9-7 9-2 0-2-1-3-5l-1-4-4 5c-3 4-6 6-9 6l-2-3c-2-5-6-4-10 4-1 3-3 5-5 6l-12 10c-6 7-8 8-12 9h-5l14-15 5-5 4-5 8-10c3-6 3-7 2-10l-3-6c-2-2-2-2-3 0l-5 8-14 20-12 11c-12 11-14 15-14 24 0 5-1 6-6 13s-6 7-9 7c-5 0-5 1 4-12 7-10 7-10 7-15v-5l-9 8c-8 7-10 8-13 8l-6 2c-4 6-17 14-22 17l-14 6-7 3-4 15-7 20-6 13c-3 7-4 8-12 15l-10 11-10 38-6 24c-4 12-4 13-2 17v14c0 2-1 2-4 2s-4 0-4 2 0 2-2 1-2-2-1-7l2-8 1-5c0-4-2-4-7-1l-4 1v28l-3 3-5 6c-2 4-2 4-2-8 0-6 1-9 2-11 2-3 2-4 1-7l-2-3-4 2c-3 1-5 3-7 6l-3 5 2 4c2 3 2 4 1 7l-1 8v3l-2-2c-1-2-1-2-2-1l-1 4c0 1-1 3-3 3-3 2-4 2-4-2 0-3-3-3-9 0l-4 2v-4c0-3 1-5 3-7 3-3 3-3 2-6-1-2-1-4 1-6l1-3 2 3 2 3 2-7c0-2 1-2 5-2 5 0 5-1 2-6-11-15-12-25-9-67l2-25c1-6 0-24-1-28-3-6-3-12-2-21l3-22 2-19 1-14 2-14c2-4 2-8 2-15l2-17 2-15c0-6 0-7 3-10 4-5 4-5 5-16l3-18c1-8 1-8-1-18l-2-23c-1-19-3-30-5-44l-3-19c0-6 0-6 3-6 6-2 11-16 11-34 0-10 0-13-2-18l-7-13c-5-8-8-20-10-44l-3-24c0-8-3-11-10-13l-11-5c-13-9-24-12-33-10a138 138 0 01-75-53c-18-27-36-47-47-51-4-1-5-2-5-3 0-2-9-10-15-12-4-2-5-3-8-9-3-7-4-8-7-8-3-1-4-2-7-7l-7-9-9-14-6-11 2-8c2-15 5-21 14-30 9-11 15-19 16-25 2-13 1-20-4-15-3 3-5 3-25 4l-17 1-8 7c-8 8-10 10-23 15l-18 11-12 9-10 8c-7 7-7 7-7 11 0 3 1 6 4 11 3 6 5 8 15 15l11 8 2 10c3 9 3 10 9 15 7 6 25 19 43 30l13 8 10 12a357 357 0 0091 87l17 7c11 2 22 6 36 12l19 8c7 2 19 9 28 15l9 7 11 17c9 17 10 19 11 26 1 6 2 9 5 11 3 4 3 4 3 13l-1 18c-1 8-1 9-6 14-4 5-5 6-5 13l-3 18-1 11 3 15 7 27c4 12 4 12 3 21-1 10-6 32-13 58-4 13-4 15-5 33a845 845 0 00-1 62l-3 16c-1 12-1 13 2 33l2 34c-1 23-5 59-9 85l-5 25 10 5c10 7 18 9 30 8 8-1 9-2 16-11l7-7c7-1 13-5 16-10 4-7 11-12 15-12 3 0 3-1 5-4l2-10c1-6 2-7 6-11s4-5 3-8l3-14 7-22c4-13 4-14 19-34 9-11 14-16 25-26 10-8 14-13 15-15 1-5 6-10 14-14 9-4 14-8 40-32 22-19 25-22 41-26 10-3 16-6 28-12 9-5 17-10 19-13l5-5v-7c-3-25-6-29-46-70l-12-13-9-17a118 118 0 01-14-38l-2-13-2-12c-2-6-2-18 2-26l3-11 4-11c2-2 3-5 3-7 0-3 1-5 12-16l14-17a150 150 0 0127-35c3-5 4-6 4-15v-8l4-3c5-3 8-8 9-17l3-12c2-5 2-7 1-10v-12c1-13 0-29-2-32v-8c0-4 0-6-3-12-5-10-14-21-19-24l-4-5-5-9-7-11-9-11-10-10-9-10-9-12c-3-6-7-11-12-17l-11-12c-4-4-20-15-26-16l-10-3c-4 0-6-1-10-4l-5-4-1-3a658 658 0 00-42-99c-3-4-7-7-11-9-3-2-9-6-12-10l-18-14c-7-6-11-9-12-12l-1-3-4 1z"/>
</svg>
