<svg xmlns="http://www.w3.org/2000/svg" viewBox="0 0 1024 1024">
  <path d="M412 1l-3 3c0 1-1 4-3 5l-7 11c-4 6-5 7-8 8l-7 2-7 1c-3 0-3 0-3 4 0 3-2 5-27 31l-27 28-22 4-21 4-6 11-6 11-2 19-2 19 5 11 6 10 1 15v15l-6 9c-5 8-5 9-6 16 0 6-1 9-4 16l-3 8 1 28 1 27-4 6-12 22c-4 9-9 18-11 19L5 483l-4 2 5 18a5989 5989 0 0022 88c0 1-1 2-4 2-4 1-5 2-5 3l4 22 12-2 11-3 2 6 3 6-7 7c-4 4-7 6-6 7l64 13 62 14 50 36 51 37 34 16 34 17 31 29c27 24 40 36 84 72l165 133c1 1 43 6 118 13l62 5 4-2 9-4c7-3 19-16 25-26l6-10 7-12 8-15 4-10 2-6 5-12c3-9 11-25 13-26l7-2c2-1 6-2 7-4 3-2 3-2 23-2h20l13 6 14 5 3-3c3-2 4-2 10-2 4 0 7 1 12 4 11 6 26 9 34 7 3-1 3-1 2-3l-7-3-5-1-3-7-2-12c0-4-1-5-7-12s-8-8-11-8c-5 0-7-1-7-7-1-6-2-7-5-8l-8-2-4-2v-14l-1-32v-18h-17l-18 1v-6l-1-27v-20l8-22 7-24-4-5-4-4-2-3-6-7-7-10-6-7-5-4c-2-1-3-2-3-4l1-5-5-8c-5-6-7-9-7-12-1-5-6-11-9-11l-5-1c-1-2-2-2-3 0l-7 2c-4 1-5 0-13-5-9-7-18-15-21-20-1-2-3-3-5-3l-9-6-11-8-10-6-8-7c-3-2-15-4-26-4-10-1-12-2-8-8l2-4-4-3-4-3v-2l4-1 6-3c3-4 3-4 2-6l-2-5-2-4c-4-2-10-11-10-15s-8-13-10-12l-5 1c-4 0-4-2-1-5s3-3 2-7c-2-3-2-4-6-4-4-1-5 0-7 1-3 2-5 2-5-2 0-2-2-4-6-6-4-3-5-5-5-7l-3-6-6-9c-4-9-6-10-10-10l-5-2c-1-1-1-2 1-3l4-7c0-5 2-8 6-11 3-2 3-3 3-5-1-1 0-3 1-5v-12c-1-4-2-4-5-5-4 0-4-1-6-4-3-6-3-10 1-11 3 0 5-5 5-10 0-6 1-7 5-4 2 1 4 2 9 2h7v-5l-4-11-4-5 2-4 2-5 4-3c4-2 4-2 4-6v-5l5 1c6 3 6 2 6-9 0-4 1-7 3-9l3-4 5 2 3 3 3-3 5-2c6 0 6-1 6-6l1-5c3-3 0-9-4-9-2 0-2-1-2-2l2-7c0-4 0-4-2-5l-5-5-5-9c-2-2-3-5-3-8-1-4-1-5 1-5 2-1 2-1 2-5v-7c1-2 1-2 6-2 4 1 5 1 6-1s2-2 6-2c6 0 7-1 10-7 3-4 2-8 0-8l-5 2c-2 2-8 2-10-1l-3-4c-3-2-3-2-7-1-2 1-5 2-6 1l-3 1-4 2-4 1h-5l-4 1-2 1c-2 0-3-1-5-5-3-6-7-11-14-16l-5-4-8 1c-8 1-14 1-14-1l2-4c2-5 2-6 0-9l-2-8c0-5 0-6-3-7s-3-1-2-3v-6l-1-7c-1-4-4-8-6-7h-10l-10-15 3-5c4-6 4-8 0-14-2-5-6-8-15-10-3-1-4-2-4-4l2-5c4-4 5-7 3-10l-1-7c1-5-1-7-5-7-1 0-3-2-4-5-3-4-3-5-2-7l1-3h-9c-7 0-9 0-14 3-3 1-7 5-9 7-4 3-5 4-9 4s-4 0-4 3c0 5-1 7-3 7-4 0-5-2-9-8-3-5-3-6-2-9l3-4c3-3 4-6 1-12-1-3-2-5-6-7-5-2-6-2-12-2-5 1-6 1-11 6-5 6-10 8-14 6l-10-1c-6 0-9-1-11-2l-7-1c-4 1-12-3-16-7-3-2-3-2-6-1s-3 0-7-2c-4-3-14-6-15-4l-3 1-7 2h-10l-6-3h-8z"/>
</svg>
