<svg xmlns="http://www.w3.org/2000/svg" viewBox="0 0 1024 1024">
  <path d="M21 74l-4 9-9 6c-6 3-8 5-8 6l3 12 3 9v30c0 28 0 30-2 35l-2 5 6 4c6 5 15 16 17 21l2 22v20l4 8c3 5 6 8 11 12l6 5 1 8 4 14c2 5 3 6 6 8 8 5 16 7 27 8h10l-5 7-5 7v12l1 12-5 4c-7 7-15 19-17 26-1 6-2 6-5 7l-5 2-3 19c0 4-1 6-3 9-5 7-6 13-3 21 1 3 2 4 5 5h5a385 385 0 0012 18c3 6 4 8 4 13s0 6 3 9l11 7 10 8 10 10c7 4 10 6 17 8 9 2 10 3 13 6l6 12 5 10c5 7 9 14 10 19 2 6 2 7 0 16l-3 24v13l6 3 7 3 1 9c2 9 5 16 12 24 4 4 24 20 26 20l2-4 5-5c2 0 3-1 4-6v-9c-2-5 5-6 12 0 3 3 4 4 6 11 2 6 3 8 5 9l5 3 3 3 5 3 4 3 3-3c6-5 11-8 15-8s9 6 10 13c2 5 12 20 17 23 4 3 7 8 10 17l2 9 10 8c10 8 10 9 11 15l7 19 8 21c3 6 4 8 12 15l10 8h9c9 0 9 0 20 5l17 11c6 4 7 6 11 13l4 8 6 2c18 4 29 9 33 12 2 2 3 3 2 4l4 6 5 6 9-2c13-2 24-1 29 2 6 4 18 7 23 7 7-1 16-6 20-10 3-4 4-4 8-4 10 0 17-4 20-11a468 468 0 0037-16c9-4 13-3 25 3l11 6 6 10 7 15c1 9 6 20 14 34l9 13 13 1c9 0 15 1 17 2l23 2c24 0 32 1 39 6 4 3 4 3 5 1 3-5 8-6 13-4 6 3 23 5 41 5 18-1 18-1 21-3l4-3 5 3c3 3 5 4 11 5 3 0 10 1 13 3 4 1 8 2 9 1a183 183 0 0124-3h4v-11c0-12 2-29 5-37l6-15c7-13 16-23 22-25 4 0 11-4 19-10l11-4c5 0 5-1 11-6 8-9 9-13 5-22-2-7-5-9-14-9-11 0-11 0-11-10-1-13-9-42-13-45-4-4-10-6-20-8s-13-3-23-8c-16-8-23-14-30-27l-8-14c-2-6-6-10-17-17-4-3-9-6-10-9l-3-4 2-5c8-21 11-28 15-31 10-12 13-16 15-26 3-14 3-21 2-28-2-10-5-16-12-20-5-3-6-3-12-2s-7 1-12-1c-8-3-17-10-19-14l-1-24c0-9 0-10-3-17-7-16-11-27-11-31 0-5 2-15 5-24 2-8 2-16 0-18l-7-2-6-2-1-14-1-13 9-4 9-5v-8c0-8 0-9 5-21l6-12-1-17 1-29c1-11 1-12-1-16-2-5-3-12-5-28l-1-11-5-1-15-1h-10l-10-5-14-9c-7-5-13-8-25-13-6-2-10-5-10-6-2-6-5-11-10-16-5-6-5-6-13-7h-21c-4 1-6 1-15-2l-28-9-18-5-10-10-10-9h-14c-18 1-19 1-20 6 0 2-2 5-4 6-2 3-3 3-9 3l-10-1h-11c-13 2-14 2-22 11-9 10-29 26-37 30l-15 5-10 3c-2 2-1 8 2 13l3 12c1 8 1 9-4 9l-8 2h-14l-8-1 7-2c7-1 8-2 6-4-1-1-3-1-9 1-15 6-30 10-36 11-6 0-10 2-21 6-12 6-13 6-22 6-15 0-25-2-36-8l-34-21c-2-1-4-5-7-10-3-7-3-8-7-9l-13-1c-8 1-9 1-15-2l-11-4c-4 0-5-1-10-5-4-5-5-7-9-18s-4-14-5-25l-1-14c-1-1-3-2-8-2-6 0-7 0-9-2-1-1-4-4-8-5l-7-6-6-4c-3-1-5-3-5-4l10-8 6-4-3-8c-3-7-3-9-2-14v-6l-7-4c-6-5-7-5-13-5a55 55 0 00-43 27c-11 16-10 15-20 16-12 2-30 1-43-3l-11-3-7-13c-9-15-28-41-29-41l-5 7z"/>
</svg>
