<svg xmlns="http://www.w3.org/2000/svg" viewBox="0 0 1024 1024">
  <path d="M775 170l-9 10c-1 1-2 0-5-3-4-3-6-3-6 1 0 2 0 2-1 1l-2-3-1-3c-1-3-4 0-4 3l-1 3c-1 0-2-1-2-3v-3l-2 4c-2 4-2 4 0 4 2 1 4 9 4 20 0 6 0 9 2 10l1 4 3 8c3 4 3 6 2 7l-6 21v5l-2-3-3-2-3 2c-3 1-5 2-6 1-3 0-3 0-3 5s-1 6-3 3c-2-2-3-1-4 2s-3 3-3 0-2-3-8-2c-5 1-6 2-5 4 0 1 0 2-2 2s-2-1-3-6c-2-10-3-14-5-17-2-2-3-2-6-2l-6 3c-2 2-2 2-4 1s-2-1-5 1c-2 3-3 7-1 7l1 3c0 3-1 4-5 8l-5 8v4c2 0 1 4-1 5l-2 5c-1 4-3 5-11 6h-7l1 4v3l-3-3-5-4c-3 0-3-1-3-5l-1-7c-2-4-13-15-14-15-1 1-6-5-6-6 0-2-4-5-7-5l-5 2-2 2-2-4c-2-3-2-3-3-2-1 2-1 2-3 0s-3-2-6-2h-4c-1-2-6 7-6 10l2 6 1 8c0 6 3 14 6 19 4 5 4 6 3 8v4c2 2 2 3 3 2 2-2 8 10 10 18 1 4 1 6-1 12l-2 7 2 9c3 12 3 13 0 13-2 0-3-2-3-5l-3-7c-3-3-4-6-4-10l-2-8-2-9c0-6 0-6-3-8-2-1-3-3-5-8-3-9-4-11-8-11-3 1-4 0-6-1-1-2-3-3-5-3l-3-1v-9c1-10-1-19-3-17l-6 1h-4l2-4 3-5-2-3-3-4c0-2 0-2-3-1l-5 3c-2 2-4 3-3 0l1-6v-6c-4-2-6-1-6 2s-5 11-7 11v-3c1-5 0-7-4-6-5 1-9 5-10 11l-2 6 4 5 2 5c0 1-4 0-7-3-2-2-2-2-2 0-1 2-1 2-4-1-3-2-4-2-9-2l-10 3c-5 3-5 1-3 17l-1 12-2 5 3 5 4 11v6c-2 1-2 3-1 5l-1 6-2 5-2 4-2 2-5-4-4-5 1 4v4l-5-2c-6-2-8-5-8-11l-3-12c-2-7-3-8-7-10l-6-3c-2 0-3-1-3-4l-4-8c-3-2-3-3-2-4s0-3-5-11l-3-7-1-3-1-2-3-6-3-4c0-2-5-2-8 0l-7 3c-3 0-5 1-6 3-2 2-2 2-3 1-2-2-4 0-3 2v7c-2 4-2 5 0 9l2 8 4 14 3 15 2 13c4 10 4 12 1 17l-2 7c0 6-2 12-4 16-2 3-3 5-2 7 0 4-2 7-3 4l-1-5c0-3 0-3-2-3-5 0-5 3-2 7l3 4c0 2-6 11-8 12-2 0-8-6-9-10-1-5-2-5-3-2-1 2-1 2-2 1v-12c1-14 1-16-1-18-1-2-2-2-5 0l-11 10-8 9-3 13-3 13 4 13 4 14c0 2-3 3-6 2-2-1-4-6-6-14l-3-9c-2-3-3 3-1 14 1 10 1 12-1 15l-1 6v4c-1 1-1 4 1 13 3 11 3 14 1 14-1 0-2-2-2-5-1-7-3-13-8-23-3-7-3-8-2-12v-10l-1-10-3-4-3-5-2-4-7 4c-7 4-11 6-11 4l7-8c9-11 10-13 10-20 0-5-1-6-3-6-3 0-4 1-8 5-2 3-5 5-6 4-2-1-1-3 4-9l4-5-3-3c-3-3-2-3-12-2-5 1-10-2-10-6l-2-5v-3c4-2 2-8-5-13-4-2-4-2-3-3 4-2 7-1 10 3l4 7c4 6 5 6 13 7l5 1 1-4 3-5c5-1 5-1 2-4-3-2-4-3-5-2s-1 1-3-1c-3-2-2-3 1-4 4 0 12-6 12-9 3-7 2-8-2-9-5-1-6-3-1-2 2 0 3-1 4-4 3-4 3-4-1-8-1-2-3-3-3-2h-11l3-3c3-2 3-2 0-1h-8l-6 2-3-5 24-7 3-1-3-3c-2-3-3-3-5-3-11 3-14 2-14-3l-1-3c-2-1 0-2 3-2 3 1 4 1 1-4-2-3-2-3-5-2s-3 2-3 3c2 6 2 7-2 11-5 5-7 4-3-2 3-3 3-4 2-6l-1-2-2 2c-2 3-3 3-5-3-1-4-2-5-1-7s1-3-1-4v-5c3-4 2-4 0-4-2 1-2 1-2-1 1-2 1-3-1-4l-3-1h-3l-4-2c-3-4-4-5-7-2-4 3-3 0 0-4 4-3 4-4 3-6-2-4-3-4-7-2l-4 1-2-2-2-3-3 3-3 3 1-3c1-3 1-4-3-1h-4v-14c1-2 1-3-1-4l-3-5-3-4c-3 0-7-5-9-11l-4-8v1c2 2 1 5-1 8l-1 2-7-6c-5-6-6-6-6-4l-4 7-5 5-2-4c-3-5-13-10-16-8h-1c1-2 0-2-1-2-2 0-2 0-1 1s0 4-3 7c-1 2-1 2-3 0h-3c-1 1-1 1 1 2 2 2 1 4-2 4-1 0-2-1-2-3s-1-3-3-3-3 0 0 5c2 2 3 3 5 3s2 0 2 4l1 5c1 1 1 1-1 1l-5 1c-2 2-3 2-6 0-5-2-5-1-1 2 4 5 10 8 12 8l7-2c4-1 5-2 5-4l5-6c4-3 4-3 5-1l-2 4c-3 2-4 5-2 6s6-2 8-5c3-5 5-7 9-7s4 2 1 3l-4 4-2 6c-1 3-1 3 2 4 6 2 8 1 12-3 5-4 6-4 6-1 0 2-1 4-3 5l-4 4c0 2 3 2 7 0h11l-16 8c-2-1-2-1-1 2v3c-1 1-2 1-4-2-2-2-4-3-7-3l-5-3c-3-2-9-1-15 1l-7 3c-2 1-2 1-1 4 1 7 8 14 16 16 8 3 21 10 22 12 2 3 7 4 11 2 4-3 5-1 1 3l-4 6c-1 4-1 4 2 6 3 3 4 5 6 14 0 4 2 8 3 9v4c-2-1-2 0-2 2 0 4-5 13-12 20s-12 10-15 10c-2 0-1-1 3-4 11-8 16-16 16-28 0-6 0-7-2-8l-3-3-1-1-2 5-6 17c0 3-3 9-4 9-2 0-1-4 2-15 4-15 5-17 2-23-1-3-3-5-4-5l-3-4-3-4h-4l-1-1-1 13c-1 11-1 14-3 18-5 8-6 4-3-5l1-9v-5l-4 7-7 11c-3 4-4 4-5 3l4-8c4-5 4-5 3-7-2-2-2-3 0-10 1-4-1-4-5 2l-8 10c-6 7-5 2 1-8 5-7 6-8 6-13l-2-8-3-2-3 5c-2 5-3 6-6 6-2 0-3-1-3-3l2-3c2-1 3-3 3-6 0-5-3-8-8-10-2 0-4-2-5-4s-3-3-8-5c-8-3-10-3-13 0l-4 2-5 5 3 1c4 0 8 3 13 9l4 5c0 2-5-2-10-6s-6-5-9-3l-4 2-3 1 3 3 9 8 6 5 2 3c3 4-1 3-9-1s-17-7-20-7c-2 0-3 1-4 3-2 2-2 3-1 7l4 8a89 89 0 0028 21c2 3 5 4 8 5 6 1 17 6 17 8s-6 1-8-1l-9-3c-5 0-8-1-10-3s-4-2-6-2c-3 1-5 0-13-4-5-4-10-6-11-6-2 0-5 4-5 7 0 4 5 15 10 20 4 5 18 11 22 9l10-1c10 0 10 0 14-3 3-2 6-2 8 1l2 3-3 1c-4 0-4 0-2 3s0 3-11 4c-12 0-19 1-19 2 0 2 5 6 9 8 2 2 4 2 8 1l7-1c1 1-3 4-5 4l-2 1c0 1-1 2-3 2-3 0-3 0-1 3v4c-2 1-2 1-4-1s-3-2-3 0h-2c-2-2-3-1-4 2l-3 3c-2 0-3-5-2-9 2-3 1-7-2-7-2 0-2-1-2-2 1-3 0-3-8-7l-13-8c-2-1-3-2-4-1h-2c0-2-1-3-5-6l-6-3c-3-3-4-3-6-2-3 1-3 6 0 14 3 9 5 12 17 19 7 5 11 8 11 10 2 4 0 5-3 2-6-6-12-9-18-9h-5l3 4 3 5 8 7c5 5 7 7 11 7 4 1 4 1 3 2l-3 2-3 1-2 2c-2 0-9-7-9-9s-1-2-3-2c-4 0-7-1-13-8-4-4-8-6-12-8-5-2-6-2-6 0l-2 3c-2 2-2 4-2 8 0 6-1 7-5 9-3 0-10 6-10 8l2 2h7l14-2c10-1 15 1 19 6 2 2 2 2 4 1h5c2 2 2 3 1 5-1 7-1 7 3 8 3 1 6 1 12-1 7-1 7-1 10-7 3-5 3-5 6-4l4 1 8-4c9-4 9-4 18-2 6 1 7 1 10-2v-7c-2-3-2-4-1-7l4-4c2-2 2-2 2 1 0 4 1 5 6 6h6l4-5 3-10 3 4c1 5 2 5 3 3l2-6 1-4 2 2c3 4 4 4 4 0 0-3 1-4 4-1 2 1 2 1 4-1s3-2 4-1c1 2 1 3-2 6-3 4-3 4-2 9l3 7 1 3 1-4 1-6v-13c2 0 5 9 5 13 0 6 1 7 2 3v-10c-1-8-1-10 1-10 3 0 6 13 6 24 0 6 1 7 4 5 2-1 2-2 1-6 0-5 1-5 3-2l2 3 4-5c3-4 5-5 5-1l-2 4c-2 3-2 4 1 4 3-2 7-5 9-9 1-3 3-5 6-7l4-2-3 5-5 9c-3 6-6 9-10 9-3 0-10 3-10 5l2 1 6 3 5 4 1 1c1 2 3 0 6-5 3-4 4-6 3-8 0-3 2-8 3-8l3 4c1 2 3 3 3 2 0-2 3-1 7 4l5 7c-1 0-1 1 0 0l6 2 6 2 3-2c3-2 4-2 6-1l2 1-3 3-10 6-6 3-1-2c-2-2-2-2-4-1l-1 3c1 1 0 2-1 2l-1 1-3 3-5 3c-1 1-3 2-4 1-2 0-5 3-4 6l-3 3-5 1-5 3-6 2h-2l-3 4-3 4-2 2-4 4-2 3 2 3 3 3-3 2-2 2c0 1 5 1 7-1 3-1 3-1 7 2 6 5 8 6 12 6l8 3c5 2 5 2 10 0 7-2 16-11 18-16 0-3 1-4 4-4 8-1 11 7 5 16l-3 7-3 5-2 3 2 1c4 1 4 4 1 7-2 3-3 3-6 2h-5c-1 1-4 1-8-1h-15l-8-2-7-4c-1-1-2-1-4 1l-10 1c-7 0-7 0-10 4-4 4-4 4-1 8 3 5 2 6-2 3l-4-3-3-3-4-3c-2 1-1-1 0-3 2-1 3-6 1-6l-2 1c-1 1-2 2-3 1l-3 1c-2 2-1 3 1 3 5 0 3 3-4 5l-7 4c-2 2-2 2-3 0-2-2-5-1-7 1-1 3-1 3 1 5 2 3 2 3 1 6-2 5-4 5-4 1 0-2 0-3-1-2l-1-2c-1-4-3-1-3 4 0 6-1 6-4 1l-3-3 1-5c4-7 4-7-1-9-5-1-6 0-4 7 2 11-1 15-8 11-5-2-5-3-4-5l-1-3c-1 0-2 1-1 2 0 2 0 2-6 1-5 0-6 0-8 3l-5 5c-2 0-4 2-5 3-2 4-11 2-17-4-3-2-3-2-7-1l-8 5-5 4c-2 0-2 0-1 6l3 7 5 8c2 4 4 6 7 8l5 3 5-2c2-1 6-2 7-1 3 0 4-1 5-7 0-4 1-5 4-6 4-2 4-2 9 0l5 2 4-4c2-4 2-4 6-4 5 0 23 5 24 6 2 1 5 1 6-1h4c3 2 16 2 21 0h5l4 3 3 3 4-3c2-3 3-3 4-2s2 1 3-1h5c2-2 4 1 3 5 0 3 0 3 3 3 4 0 6 1 6 4s-4 10-5 9l-1 2c-2 2-1 3 1 2 1-1 2-1 2 1v7c1 1 0 2-1 3l-3 2 2 2 2 5c-1 8 1 11 5 7 2-2 2-2 3 0l3 4c2 3 2 3 1 6v6l1 4c0 2 0 2 2 1h5c2-1 3-1 5-7l1-8c0-2 2-5 4-5s2 0 1 3c-2 4-1 5 3 1l5-3 5-3 9-4h4l-3 4c-4 4-4 5-3 6 2 2 2 3 0 3l-5 1c-10 4-12 6-15 18-2 6-2 9-1 10l2 2 3-2 5-1 3 1 1 3c0 3-2 4-8 4-2 0-4 1-6 5l-4 5 3 2c4 2 4 2 7 1 4-2 18-13 19-16l6-4c5-2 6-2 9-1l8 1 9 1 5 1-4 4c-4 4-4 4-9 4l-7-3c-2-1-3-1-6 1s-4 2-1 3c4 2 2 4-4 3-4 0-8 2-10 6l-6 9c-4 6-4 7-1 6 3-2 5 0 5 3 0 1 1 2 3 2l4 1c2 1 2 1 0 2-3 1-3 3 0 3 5 0 3 3-3 5l-5 3 2 2c1 2 1 2-1 2-1 0-3-1-3-3-2-2-2-2-5-1h-3l-3-1c-1 1-1 2 2 4 4 3 4 4 2 4v1c2 1-1 4-4 3-2 0-4 1-2 3 3 2 2 4-1 6l-6 2c-4 0-5 1-8 4l-4 3-3-1c-4-2-4-2-9 0-4 2-6 4-7 7s-1 3-9 1l-4 1c-2 2-3 0-4-7 0-5-1-6-5-10-5-7-7-6-7 2 0 5-1 7-2 9l-2 5c0 2 3 4 6 5 5 1 6 3 2 4l-4 4-2 5c-1 1-1 2 1 5s2 3 0 6l-1 4c0 3 3 3 6 1 2-2 3-2 7-1h5l3-2 4-2h4c1 1 2 0 4-2 2-3 2-3 5-2l3 2 5 2h6c3-1 4-1 5 1h8c9-2 15-4 17-6l8-3c6 0 6 0 6 2 0 6 4 7 12 0l7-5 6-3 5-2 3 3 3 2v-3c1-5 4-7 13-8l8 1c0 2-3 3-7 3-5 0-5 0-4 2v5c1 3 1 4 7 8l11 5c6 1 9 3 13 6 5 4 8 4 12-3 3-5 3-6 2-8-2-3-3-6-1-8s2-1 4 1c2 5 1 16-1 20l-2 3 6 5c6 6 7 7 7 4 0-2 3-6 6-8 4-3 4-1-1 4-3 5-3 5-2 8 1 2 5 7 10 11l9 10c0 2 13 10 20 13s16 4 28 2c7-1 7-1 10 1 2 3 9 7 12 7l3-2c2-2 3-1 3 1l2-1c2-1 3-2 4-1h3c2 0 2 1 2 5v6l11 5 12 6 1-2c0-2 3-2 6 0s4 2 7 2h9c16 4 15 4 29-1a141 141 0 0131-7l-2-9c-3-9-4-9-2-9s7 6 9 11c0 3 1 5 2 5 2 0 17-11 20-14 4-5 8-12 10-18l5-11c5-8 5-9 0-14s-2-5 3 0l5 5 3-2 6-4c1-2 3-3 4-2l4-2 7-2 5-3c2-2 3-3 3-1s2 2 4 0h2l6 1c4-1 4-1 2-3v-5l1-8 1-7c2-2 2-2 3-1 0 1 1 2 2 1 2 0 2 0 2 3 0 2 0 3 1 2l7-10 5-5 2 4 1 3 2 3c1 3 1 3 4 2 3 0 3 0 4 5l3 6 1 2 4-3 5-4 1-2 3-1c4 0 11-5 21-14 5-5 6-6 6-10 1-5 1-5 5-5l8-3c4-3 4-4 3-5-2-1-2-2 1-3 2-2 3-2 3-1 1 1 3-1 6-4 4-3 6-6 6-7-1-2 4-6 5-5s3 0 8-3l7-5 5-3 5-5c2-3 3-4 4-3 2 1 3 1 7-1l6-2 3-1v-2l-1-3h2c2 2 2 2 5 0l3-2 1-4v-16c2 0 7 6 7 8h1c1-1 1-1 3 1l2 4c0 2 2 4 3 2l3 2c2 3 5 4 6 1l2-1c2 0 7 3 8 5v4c-2 1-1 2 1 1 2 0 8-8 8-9l-2-1-3-2 8-9c3-1 4-4 1-7-2-2-2-2-1-4s1-2 3 1l4 5 5-6c2-4 5-7 6-7 3-2 7-1 11 1 4 3 4 4 4 1l2-3v-4c-1-1-1-2 1-6 3-5 3-5 2-7s-2-3-1-4c1-2-3-2-5-1-2 2-3 0-4-6 0-7 3-10 9-7 3 1 7-1 7-4l-4-6c-3-2-4-4-3-4 3-2 9-1 13 1s5 3 6 2c3-2 2-3-2-6-4-1-5-3-7-7l-6-9c-3-3-3-3-2-5 1-1 0-2-1-4l-1-2c3 0 13 11 14 16l4 4c6 4 19 1 25-4l3-4-4-4-5-6c0-2 1-2 4-2h4l3-1h7l4-1-3-2c-3-1-7-5-6-6l7 1c5 1 5 1 8-1l2-5c0-3-6-6-15-8-7-2-11-4-11-7v-2l5 1 9 2 7 2c3 2 4 2 8 1 5 0 5-2 0-4-3-1-6-3-11-8-7-6-8-7-13-8l-13-2-9-1c-2-3 0-4 4-3h8l6-2h3l-2-4-2-5 6 3 9 6 7 6c3 5 5 6 12 6 5 0 8-2 7-6-1-2 0-3 4-7 5-4 6-7 3-9-2-1-2-2-1-5v-6l-4 5c-4 7-7 9-6 5 1-3 0-3-2-3-3 0-4-1-1-3v-1l-2-1-2-1c-4 0-2-3 2-4 5-1 7-3 7-6 0-2 0-2-9-2h-28c0-3 12-6 21-6 10 0 13-1 16-6 5-7 5-7-1-10-4-2-6-2-7-1l-8 1c-6 0-9 1-13 3l-7 3c-1-2 1-6 3-7l6-3c3-2 6-3 10-3 9-1 9-2 1-6l-6-4 7-1c6 0 7 0 10-2 2-3 2-3 1-5s-1-3 1-4c2-2 2-2 0-6-1-4-1-4 1-6 3-4 4-9 2-11l-4-2-2-2c0-3-3-3-5 0l-3 4c-3 0-5-3-5-7 0-2 0-3-2-3-3-1-4-4-2-5 3-2 1-5-2-5-2-1-4 0-8 3-5 5-7 5-7 1 0-1 0-2-1-1l-1 2c-1 0-3-3-2-4l-1-1c-3 0-10-4-13-7l-2-3-9 9c-8 9-9 9-9 7l4-8 7-9 2-3-3-3c-5-7-5-6-2-14l3-8-11 2c-1 1-5 3-8 3-5 0-12 2-19 6l-6 4-2-2-2-2 2-4c3-4 3-5-1-2l-3 2c-2 0-1-3 2-5l4-9c1-5 2-7 4-8 3-1 12-12 13-17 3-8 3-12-2-21-5-11-9-12-13-4-4 7-6 8-9 2-1-3-2-3-4-3h-6l-4-1c-4 1-5-1-3-5 2-5 1-7-3-7-3 1-7-2-7-5 0-2 3-5 7-5l9-7c10-9 10-13 2-20l-4-3 6-4 9-5 6-4c2-2 6-5 10-6l10-4 4-2h-4l-7 2c-5 3-6 3-11-1-5-3-6-3-8-2-5 1-11 7-12 11-3 5-11 14-15 15l-9 2-6 1v11c1 3 1 4-1 9l-3 5-3-2-4-4c-1-2-3-4-5-4-2-1-4-2-4-4l-2-4c-2-2-2-2-3-1s-2 2-5 2c-4 0-7-4-5-7 1-3 1-3-2-2l-2-1-2-1c-4-1-3-4 0-7 6-3 9-13 6-20-1-2-2-3-5-4-8-1-9-1-8-2 0-1-1-2-4-2h-4l-2-5v-7l2-2v-3l-3-2-1-2c0-2-5-5-6-5l-1 3-4-1c-6-3-8-4-9 0z"/>
  <path d="M231 406c-1 1-1 1 0 0l1-2-1 2z"/>
  <path d="M857 664c-1 1 0 2 1 2v-2l-1-2v2z"/>
</svg>
