<svg xmlns="http://www.w3.org/2000/svg" viewBox="0 0 1024 1024">
  <path d="M236 305c-4 0-8 2-10 3l-4 1-7 2c-7 4-12 10-12 16l-1 6v12h-5l-7-2-8-2c-5 0-6-1-7-2l-2-3-19 5h-7l-11 1c-7 1-8 1-10-1h-3l-1 2-1 1-1-2c0-2 0-3-2-3l-3-2c-2-3-10-3-14 1-3 2-3 3-2 6l-1 3-4-1-1-2c0-3-3-5-12-6-8 0-12 1-12 4 0 2-2 3-5 4s-4 2-5 4l-3 4-1 3-2 2c-4 0-8 4-7 6 1 4-1 5-7 4-7 0-8 1-8 5l-2 4-3 5c0 3-2 4-4 1-4-3-6-2-9 2-3 3-3 6-1 6l1 5 1 14v9l-3 4-5 3c-2 0-6 6-6 9 0 2 7 13 10 15 1 1 5 4 10 5 7 3 8 4 15 3 10-1 12-1 16 5l7 7c4 1 4 1 11-2s19-7 23-7c2 0 5 1 6 3 4 2 4 2 10 1l9-2c4-3 8-2 11 0 1 2 2 2 4 1 5-3 19 3 20 8l2 7c2 5 4 16 4 23 0 4 2 5 7 7l5 3 4 3c6 2 11 8 12 13 1 2 2 5 4 6l4 6 2 6 3 4c0 3 3 4 10 5l8-1c2-2 3-2 5-1l6 1 6 3 7 3c2 0 3 1 3 2l4 4c3 2 3 3 3 6l-3 6c-2 2-2 3-1 12l2 9 5 3 6 3c2 0 6 5 6 8 0 5 3 10 8 12l4 3 2 1 4 4 5 5 4 3c0 3 3 3 8 1s9-2 32-2l35-1h10l8 5c11 7 15 7 26 3 10-5 19-7 30-7h8l8 6 11 5c3 0 19 10 20 12 2 5 13 17 19 19l7 3 4 8c4 8 4 8 9 9 4 2 7 3 9 6 1 2 5 4 11 7 9 5 10 5 16 4 7 0 8-1 13-4 5-4 5-4 5-9l-1-5c-2 0-7-5-7-7l1-2v-4l-5 1-8 3c-3 0-5 0-6-2l-8-3c-5 0-5 0-5-3 0-2 1-4 3-5 4-3 5-3 7 1 1 2 2 4 4 4 2 1 2 1 2-3v-5l-2-2c-3-1-3-2 0-3 1 0 2-1 2-3 0-4 3-6 7-5 7 2 11 0 5-2-5-2-6-6-3-13l3-9c0-3 1-5 5-9 7-7 9-8 13-8 2 1 3 1 5-1s4-3 4-1 4 1 6-2c1-2 3-2 3 2 0 2 1 3 3 0 2-2 2-2 5 0 4 2 10 7 12 10v9c-4-1-4 0-4 5s2 6 4 3c2-2 9-1 12 1s8 3 8 1h2l2-1c1-3 5-3 6 0l2 2 1 1c0 2 3 1 12-2 5-2 6-2 8-6l3-4 3-3c1-4 7-14 10-17l2-2h-2c-4 0-5-2-5-4 1-2 2-2 5-2 4 0 4 0 4-3l2-6c2-1 3-3 3-5l2-3 4-4 2-3h-3c-3 1-3 1-2-2 0-1 1-5 3-7 2-4 3-5 5-5 4 0 6 1 6 3s8 9 12 11c4 1 13 2 21 1 5-1 6-1 10 2l6 5c0 2-1 2-12 2h-13l-3 3c-2 2-3 3-5 2l-7-2-7-2c-1-1-2-1-5 1l-3 2 6 1 14 3c11 3 12 3 16-2l2-3h9l10-1h7l12 2c5 1 7 1 9 4l6 3 3 4c1 3 2 3 5 3 2 0 3 1 3 4l3 11c2 5 3 6 6 7l11 2 11 2h7s-1-2-3-2l-2-2 6 2 10 2c5 0 5 0 4 2l-9 1c-5 0-6 0-6 2l8 1c7 0 8 0 10-3l3-4 33-6 13-1 8 3 11 3c2 0 3 1 3 2 0 2 5 1 6-1l1-2 1-4c0-4 0-5 2-6 4 0 6 2 5 5l1 3c1 2 8 1 9-1l2-1 3-1c0-3 5-4 8-2 1 1 2 1 5-2l7-2c4 0 5 0 6-3l4-4h10c1 2 6 1 6-1l2-3v-4l-2-5c-2-2-3-3-5-3l-3-1-5-1h-4l-3-4c-2-2-3-4-2-5l2-5c1-4 1-4-1-6l-5-3c-3-1-5-5-5-10 0-3-1-4-3-6-2-1-3-2-3-4l-1-4-2-5c-1-11-8-24-15-30-4-3-4-4-4-7 0-4 0-5-4-6-3-2-3-2-3-6 0-6-2-9-5-8h-3c0-2-6-7-9-7l-3-3h-5l-5-1-5-1h-6l-4-3c-4-2-4-2-6-1-5 4-11 1-15-5l-3-6c-2-1-10 0-10 1l-3 1-4 1c0 2-4 1-5 0-2-2-5-2-8-1-5 2-12-2-18-9l-7-7-5 1c-7 3-12 3-19-2l-10-9-5-6-11-1c-9-1-13-2-15-4-3-2-8-3-9-1l-4 2c-6 2-10-1-12-7-2-3-4-7-7-9-2-4-3-5-2-6v-8l-3-1c-3 0-11-5-18-11-6-5-10-8-15-8-2 0-5-3-5-6l2-7c2-7 1-8-12-8l-11-1-4 3c-3 4-4 4-7 2l-6-1c-2 1-5 0-7-1-4-2-5-2-8-1-4 1-4 1-5-1s-3-3-8-4c-5-2-6-2-8-1l-5 2-6 2c-3 2-4 2-9 2h-5c-2 2-5 1-8-1-1-2-5-3-9-4-5-2-7-3-10-6-2-2-4-4-10-5l-10-3-7-2c0-2-4-4-8-4l-6-1a493 493 0 00-31-4c-1 2-21 4-25 2-3-2-15-2-16-1h-4c-9-7-11-7-15-3l-3 2-3-3c-3-3-3-3-10-2l-9-1-8-2-8-2c-4-2-5-2-17-1-11 0-14 1-15 2-2 2-2 2-6-1-5-3-10-5-10-3l1 2c5 4-3 4-8 0-2-2-5-2-10-3-6 0-6 0-5 1 2 2 2 2-1 2-4 0-6-1-13-6-4-4-5-4-14-5l-13-2c-8-5-34-7-45-4z"/>
</svg>
