<svg xmlns="http://www.w3.org/2000/svg" viewBox="0 0 1024 1024">
  <path d="M771 55a45922 45922 0 00-312 196c-9 7-10 7-23 4l-10-1c-2 1-3 0-5-2-3-2-4-2-14-2-12 0-23-2-26-4-2-3-6-3-13-3-6 0-7 0-8-2-1-4-17-17-26-23l-12-9c-1-3-2-3-5-2h-5l-4-1h-14v-4c-1-5-5-12-7-14l-3-7v-6l-5-1c-8-2-9-3-8-4 2-2 1-4-1-4l-7-6-21-4c-4 0-6-1-6-4l-5-1c-4 0-5 0-7 3l-8 5-8 4c-4 3-6 4-12 1l-4-1 2 3c2 4 1 6-2 11-5 4-6 6-4 9l2 8c1 5 1 5-1 6s-3 2-2 3c0 2 0 3-2 4l-2 1 3 3c3 4 3 4 1 6v6c1 3 1 4-1 5l-2 6-1 6v6a204 204 0 011 45l-2 10c0 4-1 7-3 11-3 7-4 14-1 17v5c-2 3-2 3-1 6 2 2 2 4 1 8l-1 6c-2 1 1 12 3 14l1 4c-2 2-2 10-1 16 1 4 2 5 4 5l5 2c2 2 2 2-3 25-5 24-5 28-1 39v9c-3 10-4 18-4 24l-1 10-3 5c-1 3-2 3-4 2l-3-1c-1-1 0-7 1-10l-1-2c-1 0-5 4-8 9l-4 6-2 2-2-2-3-2-2 5-2 5 5 8 7 12 3 3-1 10c-2 9-2 11-5 14-6 7-7 10-5 19l1 7-4 4-8 7c-2 2-3 4-3 9l-1 10c1 3 1 4-1 5-3 0-8 7-8 11 0 5-3 15-6 20l-3 7-5 9c-4 6-4 8-7 20-3 16-6 24-8 26-1 2-1 4 5 15l3 7-3 3c-4 3-4 4-5 13-2 12-2 10 2 25l1 13-7 11c-5 7-7 10-10 20s-3 11-2 21v11l-3 6c-4 6-4 7-4 11 1 4 0 7-1 10-2 4-2 8-2 18v12l-5 5c-6 7-8 13-5 18 3 4 2 9-1 18-1 4-2 7-1 10l-1 5c-2 1-2 2-1 6v5l5 1 227 40 46-37 45-38 26-46 26-45 78-17 78-16 18-40 17-40 34-21 35-21-104-123c-87-103-103-123-101-123a4851 4851 0 01175-50 29055 29055 0 01240-69 1347 1347 0 0061-56l3-4-4-13-5-15-22 5-23 6-1-4-6-21c-4-14-4-17-3-18l10-3c7-2 8-3 8-4-2-11-60-208-62-210l-88 54z"/>
</svg>
