<svg xmlns="http://www.w3.org/2000/svg" viewBox="0 0 1024 1024">
  <path d="M754 4c-2 3-6 5-8 3-3-2-4 0-3 3l-1 7-2 5 4 8 7 15c3 8 3 8 2 13v7c1 3 1 5-1 10-2 4-2 7-2 18 0 14 0 14-3 17l-5 3-4 4c-2 4-1 17 2 22 4 6 2 14-5 19-4 3-5 3-7 2l-4-3c-1-2-6-1-8 0-1 2-7-1-9-4-1-2-10-4-12-3l-1 1c0-2-3 1-4 4-1 2 1 7 3 7l4 5 4 5-3 3-5 5-4 5c0 3-1 3-4 3-2 0-3 1-5 3-2 3-3 4-6 4-4 0-8 6-6 9 1 3 0 11-2 13-2 3 0 7 3 9l4 3c0 2 5 6 8 7l3 5c1 4 1 5-2 13l-3 13c0 5 3 12 5 12l5 1c2 0 3 0 4-3 0-2 2-3 3-3 4 0 6-3 6-8 0-4 0-5 2-6 2 0 4-2 5-4 2-2 3-3 5-2l7 1 7 2c2 1 3 1 6-2l4-4c0-1-7-6-9-6s-9-6-9-8l-1-3-3-3c-2-3-2-3-4-2-4 4-9 2-17-5-9-8 1-23 13-21 5 1 12 5 17 11 3 4 4 4 4 1 2-4 5-7 8-7l3-2 9-6c6-4 7-5 12-5l8 2 7 4 13 6c11 8 24 14 28 14 6 0 13 4 18 9l5 4v-3l2-8 1-10c-1-7 1-14 10-27l10-13 9-7c4-5 6-6 10-6h25v-4c0-2 1-3 3-4 3-1 4-1 4 1v3c1 2 8-2 10-7 1-3 2-4 6-5l9-3c3 0 4-1 6-5 1-4 3-5 6-7 4-2 5-3 3-4-3-1-6 0-11 5-4 3-5 4-7 3-4-1-6-3-6-5l-1-4-3-7c0-4-1-5-3-6-5-2-6-5-5-12 0-3 1-8 3-11l2-7 2-4c2-3 3-9 1-11h-3l-3 5-7 10-6 7-4 4c-4 3-5 3-13 2-10-1-12-1-14-5-1-4-2-4-3-1-1 2-1 2-2 0 0-3-1-3-9-5-8-1-9-1-6 1l3 2h-4c-3 0-7-2-7-5l-6-3a137 137 0 01-50-39c0-3-9-15-12-17l-9-7-10-10-6-5-1 4z"/>
  <path d="M714 10c1 5 2 7 3 7 3-1 1-11-3-11v4z"/>
  <path d="M723 21v3l1 4c0 3 4 3 7 0s3-4 0-6c-3-3-6-3-8-1z"/>
  <path d="M653 226c-2 1-3 4-2 8 2 2 2 2 3 1l2-10-3 1z"/>
  <path d="M724 276c-4 8-5 17-3 19 1 2 2 2 6 0l6-3 5-2 3-3 3 4c2 4 2 5 1 9l-2 8-2 4h-3l-2-2-5-3-5-2-1 6-3 5c-2 0-4-3-5-8-3-15-4-16-10-15l-5-1c-2-2-3-3-3-1l-2 4-2 3 2 3 3 3-1 1c-2 1-2 1-2 6 1 5 1 6-2 9-1 2-3 3-6 4-3 0-5 1-8 6l-4 5 2 3 2 5 2 6 3 3-2 7-1 10c0 2-6 8-9 8-2 0-2 1-2 3 0 3 3 5 6 4l3-1c1-1 2-2 2-5 0-2 0-3 1-2l2 3v1c-3 0-2 4 2 8 2 3 2 5 2 11 0 12-1 20-3 22s-7 18-7 22-3 13-7 16c-4 5-7 11-8 16l-2 6-1 9-1 11-3 4-11 7c-13 8-18 14-18 18 0 2-1 5-3 7l-5 9c-1 4-3 6-9 10l-9 8c-1 2-2 2-6 2-4-1-4-1-9 4-4 4-5 5-8 5l-7 2-8 3c-5 1-6 2-6 5 0 1-2 4-5 6l-4 4-6-2-6-2v-4l2-6c1-2 1-2-1-5-2-4-2-5-4-3-2 3-5 1-5-3s2-6 4-4c2 1 5 0 5-1s2-3 5-4c4-3 5-4 5-7 0-2 0-3 2-4 2 0 3-5 0-6-2 0-8 2-12 5l-9 4c-7 1-9 3-10 9-2 6-2 8 0 8l2 4v10c1 5 1 6-1 11a155 155 0 01-34 41c-6 7-7 11-5 13l1 4 2 3c4 2 4 5 3 9-2 3-2 3-2 1s-1-2-3-1c-1 0-2 1-2 4v3h-7c2 2-1 6-3 5-2 0-2 0-3 2 0 1-1 2-3 2s-2 0-1-2 1-2-3 0h-4l-1-1-3-1c-2-2-2-2-4-1v5c-2 0-6-3-6-5l-1-1v-2c1-2 2-7 1-9 0-2-7-1-9 0l-3 2-3 2c-1 3-4 4-7 2l-11-2c-8 0-15 2-20 6-1 1-4 2-9 2l-15 2h-11c-2-1-3-1-7 1-5 2-11 3-12 1-2-2-3-1-1 1l1 2h-4c-4-1-4-2-4-4l8-4 1-1c-1-1-13-2-14-1l-10 4-8 3c-4 2-5 3-5 5 0 3-6 9-11 12l-4 3c0 2-5 7-10 9l-13 11-11 9c-5 0-11 4-18 12-8 8-9 9-14 6-4-2-10-1-15 3-4 3-5 6-3 8 3 2 2 6 0 7-2 0-2 1-2 4l1 5 1 2c4 0 1 3-3 3l-2 1c-1 1-2 0-3-1-2-2-4-3-6-1l-6 2c-4 1-5 2-5 5s-1 5-4 7-3 3-1 4 0 2-4 2c-2 0-3 0-4-2-2-3-2-3-4 0 0 2-2 3-3 3s-2 2 0 3c3 0 2 2-1 3-5 2-8 1-9-1 0-3-4-3-5 0l-3 3v2l2 6v3l-2-2-4-3-3-2h-2c-1 0-3 4-3 7l-1 2c-2 1-1 3 1 3l4 4c1 1 1 2 2 1l2 2 4 3c4 2 6 6 7 12l1 4-3-2-5-1c-2 1-3 0-1-3 1-2-3-8-6-10-3-1-2-2-4 4-1 6 0 9 4 13l4 4 1 2c2 0 1 1-1 4-2 4-3 7-1 7l2-2c0-2 1-3 2-3l4-3c1-4 3-5 8-6 4 0 5 0 6 2 1 1 0 2-1 4-1 3-1 7 1 7l4-2c4-2 9-8 9-10l-2-4c-2-2-3-2-7-2-5 1-6 0-3-3 2-2 3-6 0-10-1-3-1-3 2-6l3-2 3 2c2 0 5 6 5 10l2 5 6 7c3 5 3 5 1 7 0 2-2 4-4 4-3 3-3 4 2 3l4 1-1 2-3 5-1 5-3 5-5 10c-3 3-4 4-7 4-5 0-5 1-5 10 0 7 0 9-2 10-2 2-2 2 2 6 3 3 4 5 4 8l1 7c0 3-4 7-9 7-3 0-3 0-1 1l2 4c0 5 1 6 9 6 7 1 8 1 8 3s3 4 5 4l3-3-2-9c-4-8-4-12 1-19l4-7 3 1c4 2 5 3 3 7-1 3-1 3-4 1s-6-1-5 2l3 1c2-1 2 0 2 4l1 7c2 2 3 6 1 9l-1 4-3 5-2 4c0 3 2 3 3 1l6-3c4-1 6-2 7-4l5-5c4-1 5-3 4-4v-1l-2-3v-4c1-3 7-3 9 1l5 2c2 0 2-1 4-6l4-8c2-3 2-5 3-15 0-8 1-11 3-14l2-7c0-4 6-17 8-18 1 0 2-1 1-2l1-2v-3c-1-2 0-5 2-5l2-2 13-13 1-3 1-4c1-1 1-1-1-2l-4-1c-2 0-1-2 1-5l3-3-5-1c-5-1-6-2-4-6 4-5 3-5-7-5-9 0-10 0-10-4 0-2 1-2 2-2l7-4c4-3 4-4 4-9s0-5-4-8c-6-3-8-3-12 1-4 3-9 5-12 3l-5-3c-4 0-5-1-5-4l-3-4c-1-2-2-8 0-9v-5c-1-1-1-1 1-3 2-3 5-2 7 2 1 2 3 3 5 3 3 1 4 0 6-2l4-3h6c0 1 2 1 6-1 6-2 10-1 9 3 0 3 1 4 3 1 2-2 3-1 4 2l3 3 5 3 4 3v-3c0-1 0-3 2-5l3-5v-5l1-6c0-4 1-5 4-7 3-3 5-4 8-4s4 1 4 3l-2 2-1 1-2 1c-2 0-1 3 1 4l3-1h6c5 1 5 1 9-2 3-3 5-4 10-5l7-2c0-1 3-2 8-2 7 0 7 0 11-3 3-4 3-4 6-3 1 1 3 0 6-1l3-2 4 3c2 3 3 3 4 2h4l6-3c3-3 4-4 3-5v-1c3 1 7 0 7-1-1-2 3-5 7-7l9-2 8-1c1-1 3 0 6 2l6 3 5 3c3 2 4 2 8 2l6-3c3-3 10-3 13 0 2 2 3 4 1 5l-1 4-1 2-5 5c-2 3-4 5-6 5l-5 2c-3 3-3 3-1 4s3 6 1 10l-1 5v4c-3 3-2 6 2 8l5 5c1 3 1 3 3 2 1-1 1-1 3 1s2 2 1 4c-2 4 10 12 18 12l3 2c1 1 2 1 5-2l4-4 5-9c5-9 10-16 12-16l1-2 2-1 1-4c-1-3-1-3 1-3s2 0 2-2c-1-4 1-7 5-7l5-2 5-2 4-2c2-2 2-2 2 0 1 2 3 3 4 1s3-1 3 1c0 3 2 0 3-3l1-6c1-2 1-2-2-4-1-2-4-3-5-3l-7-4-4-2-3-5c-1-4-1-4 1-6l7-14 2-3 4-2c3-3 4-1 3 4l-1 6 1 6c0 3 1 7 3 7l2-1c1-1 1-1-1-3v-7c-1-1 0-2 1-3 2-2 3-1 3 3l1 4h16c2 4-2 8-9 10-3 1-6 3-5 5l12-3 14-4c3 0 4-1 3-3l-1-2c1-1 5 3 4 4l10 1c8 0 11 0 15 2 7 3 9 3 8-1 0-3 0-4 3-8l4-6 5-5c4-3 5-4 5-6 0-4 2-6 8-6 5-1 6-1 7 1 2 4 2 4 0 5s-3 2-2 8l-1 7c-2 2-1 7 1 10 3 2 3 2 7 1 4-2 5-2 7-8l3-8 3-4c1-3 1-3-1-5-3-2-3-7-2-8l2-3c0-3 3-7 8-10 4-2 5-2 10-1s7 3 7 7l2 2 1 1 2-4v-6l-2-7c-1-4 0-5 2-5l3-2c2-2 2-3 0-5-2-3-1-4 2-4l5-2c2-2 5-1 8 1s3 3 2 7c0 2-2 4-5 6l-4 4-3 3-3 1 2 3c2 2 2 3 1 7v9c0 3 0 4-2 5v2l3 2h4l3-3c0-3 9-11 12-11s10-4 11-6l1-10 1-12c1-5 9-11 13-12l6-2 3-1-3-4c-6-5-15-25-15-30l1-4v-4c-1-6 8-34 10-34l5-5 3-4v-22c0-24-1-29-5-36-3-4-3-6-3-11 1-7 3-13 6-15l2-3c-1-1 1-3 2-2l4-2c4-3 8-3 11 1l6 3h3l-2-2c-3-4-5-12-3-13l1-1-1-6v-5c1-1 2-2 1-3l2-7c3-4 3-5 2-7s-1-2 1-2l3-3 3-2 3-3 2-6 2-3c2 0 2 0 0-2l-1-2 2-4c0-3 1-5 2-5l1-3v-4c1-2-1-7-2-7s-2-8-1-11c0-1-3-11-6-15l-3-2-1-3-4-13c-5-11-9-15-14-16-2-1-3-2-6-10-3-9-3-9-4-6-1 4-2 4-2-1 0-3 0-4 2-5 2 0 2-1 1-5v-31l-3 2-5 2-6-4c-4-4-5-5-9-5l-4-1-2 6z"/>
  <path d="M608 495l-6 4-1 3-1 5c-1 2 0 3 1 4h1l1 1c1 1 0 7-2 10h5c4-1 9-7 11-12 1-5 1-5-2-5-4 0-5 0-3-4v-11l-4 5z"/>
  <path d="M333 624c-3 8 0 12 5 8s4-7 0-9c-4-1-5-1-6 1z"/>
  <path d="M321 636l-2 2c0 2 4 1 5-1l1-2c-3-1-2-1-4 1z"/>
  <path d="M326 639l-1 2 4-2h-3z"/>
  <path d="M321 642l2 2h1l-1-2h-2z"/>
  <path d="M120 725c-1 1-2 3-4 3-2 1-3 4-1 5v5l-3 5-3 3 3 1 6 1c2-1 2-2 1-5 0-2 0-3 3-6 3-4 4-7 3-11-1-3-2-4-5-1z"/>
  <path d="M427 741c-4 2-8 6-10 10l-4 5c-2 2-3 8-1 8l1 2c0 2 3 1 9-2 3-1 3-2 3-4-1-6 0-9 2-12l2-5c0-2-1-3-2-2z"/>
  <path d="M385 743c-3 0-5 3-2 3l3 1 4 2c3 0 3-1 4-4 0-3 0-3-9-2z"/>
  <path d="M107 753c-2 6-2 8 1 9s3 1 5-1l1-4 2-5 2-2h-3l-4-1c-2 0-2 1-4 4z"/>
  <path d="M367 754c-1 2-9 8-12 8l-3 1c-2 0-2 1 0 3 2 4 1 6-3 10l-3 4h-6c-5-1-7 0-9 1-4 3-7 2-9-2-1-4-6-8-8-8s-10 7-10 9l-2 4-1 5c-1 2-3 5-7 8l-8 8-13 8-10 6c0 1 4 0 7-2l3-1 4-2c4-3 6-3 6 0l-1 6c0 3 0 3 3 4l3 1v6c0 2-1 2-2 1-3-2-4 2-1 4 2 2 1 5-2 4-1-1-2 0-2 1l2 1 4 2v2c-1 0-2 3 0 4l3-1h3l3 1c2 0 2 1 0 6l-2 4h3l5 1 3-1c3-2 3-1 7 2 3 2 3 2 4 0l-1-3v-8c2-7 3-8 5-8 1 0 3-1 4-4l3-4c2 0 4-6 4-9 0-4 2-6 4-6l5-3 11-5h11c6 2 7 3 16 13 3 4 5 5 5 4 5-15 9-23 15-26l5-4 6-5c3-2 3-3 2-4s-1-1 1-3c1-3 1-3-2-6-4-4-5-7-2-10 1-2 1-2-1-5-3-2-4-3-5-2s-3 1-5-1l-4-1-5-3c-2-2-4-4-5-3l-1-1c0-2 0-2-2-1h-13z"/>
  <path d="M317 758v5c1 2 1 2 2 1 2-3 3-7 1-7l-3 1z"/>
  <path d="M312 760l-2 1c1 2 3 2 4 0s1-2-2-1z"/>
  <path d="M288 768l3 2c4 0 4 0 2-2-3-2-5-3-5 0z"/>
  <path d="M275 781c-2 2-2 2-1 4h7c2 0 3 0 5-2l2-2h-4l-6-1c-1-1-2-1-3 1z"/>
  <path d="M132 784v5c3 2 5 1 6-1 1-3 1-3-1-5l-3-3-2 4z"/>
  <path d="M122 812l-4 2-1 3-3 5c-2 3 0 4 3 1 3-1 4-3 5-6 2-6 2-8 0-5z"/>
  <path d="M95 835c-2 2-2 4-1 7 0 5 2 5 3 2 0-2 2-4 3-5 4-2 4-6 1-4-3 1-3 1-3-1s-1-2-3 1z"/>
  <path d="M90 842c-1 1 0 3 2 3l1-2c0-2-1-2-3-1z"/>
  <path d="M85 845l4 2v-2h-4z"/>
  <path d="M80 848l2 3h2c2-3 1-4-2-4l-2 1z"/>
  <path d="M77 851h-2c0-2-3-1-4 1l-1 5c-1 3-1 3 5 4 3 1 3 1 4-1 0-1 1-2 2-1 3 0 3-3 0-5l-2-3c-1-2-1-2-2 0z"/>
  <path d="M90 851v3l1-3h-1z"/>
  <path d="M169 866c1 4 2 5 3 3 0-2-1-5-3-6v3z"/>
  <path d="M148 870l-1 3-1 3v10c-3 2-3 2-2 4l4 1 2 2c0 3 2 5 5 5l1-4c0-3-1-4-3-4-3 0-3-2 1-5 3-3 3-4 3-9v-5l-4-1h-6z"/>
  <path d="M165 872l-2 1c-2-1-4 1-4 4 0 2 1 2 4 3l5-1 2-7h-5z"/>
  <path d="M135 915l1 2c0 1 3 0 3-2 1-2 1-2-2-2-2 0-2 0-2 2z"/>
  <path d="M128 921l-3 3c-2 3-2 4-1 4l7-7h-3z"/>
  <path d="M200 986c-3 3-7 12-7 15l-2 5c-3 3-4 6-2 9 0 2 1 2 3 1 1-1 2-2 2-5l3-6 3-5 1-4 1-7c0-5 0-5-2-3z"/>
  <path d="M165 1010c-3 2-4 2-3 5l1 5 4 3c4 1 6 0 8-3 3-4 2-5-2-9l-4-3-4 2z"/>
</svg>
