<svg xmlns="http://www.w3.org/2000/svg" viewBox="0 0 1024 1024">
  <path d="M110 14c-8 8-17 18-20 23-5 6-6 8-5 9 5 5 8 15 9 28 0 6 2 8 6 8l6 2-1 1-3 2c-1 2 1 5 6 6 4 1 5 2 6 4 1 3 1 3 6 3s6 0 9 3c2 3 3 4 3 11 1 7 1 7-2 10-4 4-4 11-1 17l4 12c2 8 3 9 6 11 3 1 4 4 7 19l4 8c4 4 5 4 10 4s5 0 6 3l1 10c1 9 3 13 8 13 2 1 3 2 5 6l5 8 2 2-4 3-5 4c-1 1 2 9 5 18 6 14 6 16 6 21-1 6-1 7 3 11l3 4-2 2c-2 1-2 2-2 15v13l-3 4-6 6c-2 1-3 2-3 5 0 4-2 9-6 10-4 2-5 9-3 13l2 5c-1 2-1 3-7 4-6 0-8 1-13 6l-6 7-1 1-5-2c-4 0-4 0-5 3l-1 9c0 6 0 7-5 13l-9 10c-5 3-6 5-6 10s-3 7-7 7c-3 0-4 1-6 3-4 6-7 14-8 21v7l-11 12-10 12h6c6 0 6 0 6 2l-2 5c-2 2-2 2-1 5 1 2 2 3 5 3s4 1 5 2c0 1 3 3 5 3 4 2 4 2 3 4v7l2 5c0 3 5 3 6-1l4-4 4-5-1-10c-1-2 0-3 8-4 9-1 18-3 25-7 4-2 5-2 11 5 11 10 16 19 10 18-7-2-9-2-10 1-2 4-5 5-16 3-9-2-16-1-18 3-1 2-1 2 1 7l3 4-3 4-4 4-2-4-4-4-3 1c-2 1-10 0-12-2-4-4-7-4-10-1-2 3-2 5-2 8 1 3 0 3-2 3-4 0-10 4-9 6s1 5-1 8c-5 6 0 18 8 22 3 1 5 3 5 4l-3 6-3 6c0 3 0 3-3 3s-3 1-3 6l-3 5c-2 3-2 4 0 4l5 1c3 0 4 1 5 2l3 2 335 185 62 34 2 16 2 16-5 4c-4 3-4 4-5 9v6h3l8 2c4 2 4 2 4 6l2 6c3 3 80 61 120 89l37 27 4-2c4-3 7-4 9-1l5 1c4-1 4-2 4-4l2-6 2-3 2 3 2 4 1-5c0-6 4-13 6-13l3-7c2-11 5-18 13-30 13-20 17-28 18-40 2-10 6-21 11-29l3-6 9-7 9-5v-7c0-7 0-8 5-18 5-9 5-10 4-12-4-4-4-6-3-15l2-12c4-9 27-19 42-19h8l4-4c2-3 5-5 6-5 6-2 10-9 7-14-1-2 1-6 2-4h4c3-1 3-2 3-4l-1-3 3 2 2 5c-1 2-1 2 1 2 4 0 6-2 6-5 0-5-1-7-3-7-3 0-3-1-4-7l-5-13c-2-2-3-5-2-5 2-3 7 2 9 7 1 5 2 3 3-5 1-11 4-11 4 0 0 4 2 5 8 2 3-2 8-3 10-3 4 0 4 0 4-2-1-3-1-3 1-3l3 1c1 3 7 0 14-6 8-8 22-28 22-32 0-3-5-10-31-43l-31-39 1-205V197l22-21 21-21 28-38 27-39-2-1-8-4c-5-3-11-4-18-2l-28 3h-24l-9-8-10-10c0-1-1-2-3-2-5 0-6-1-6-4 0-2-1-4-6-7l-6-5-23 10a450 450 0 00-30 13l-27 12-21 10-4 10c-4 8-6 12-16 23-7 7-12 15-13 16-1 5-5 5-8 1-1-3-4-4-15-5l-5-2h-4c-2 3-12 1-17-2s-5-3-15-3c-13 1-22-1-30-6-5-4-5-4-8-3-5 2-8 1-11-1s-3-2-6-1c-3 2-7 2-23 2-17 0-19 0-20-2l-3-2-3-2-53-35a281 281 0 01-62-43l-9-3-6-4-43-1-43-1-13-9-13-9-82-1h-82l-13 14z"/>
</svg>
