<svg xmlns="http://www.w3.org/2000/svg" viewBox="0 0 1024 1024">
  <path d="M912 283c-6 3-7 3-20 3-12 0-16 0-23-2-14-3-19-4-27-2l-13 2-8 1-26 1-27 2-6 2-9 2h-11l-9-2-5-2c-4-3-5-3-20-1-17 1-19 2-18 5 0 2 0 2-4 2s-5 0-6 2c-1 1-3 2-11 2l-13 3c-3 2-4 2-29 2h-27l-2 3-2 4-2 6c-4 6-7 6-32 5h-26c-4 0-9-2-17-7-3-3-5-3-10-4l-7-2-6-1c-2 0-8-1-11-3l-10-3-7-4-7-3-4-1c0-4-16-9-25-9l-4 2c0 2-1 3-12 4h-12l-3-2-5 5-4 5h-7c-5 0-8 0-10 2l-9 5c-4 0-9 4-11 9s-3 7-3 13c0 7 0 9-4 15-3 7-3 8-3 17 1 11 4 18 8 19 3 0 3 0 1 2-1 2-3 2-9 2h-9l-6-6-7-5-16 1c-15 1-15 1-18-1l-7-2c-4 0-7-1-11-3-5-3-6-3-15-4l-14-1c-4-2-6-2-14-1-13 1-27 0-34-1-11-3-14-3-26 4l-17 7c-5 1-16 9-19 14 0 2-3 4-5 5-6 3-7 6-2 8 3 1 3 2 3 5s1 5 6 12c7 9 7 9 11 8 3 0 4 0 7 4 5 6 5 4-11 19a379 379 0 01-23 20l-7 7c-2 1-4 2-4 4-1 1-4 4-13 9l-13 7v4l2 7c1 2 2 2 6 2 5 0 7 1 11 4l7 3 7-3c8-5 15-5 18-2 2 2 2 3 2 12l1 9 5-2 4-2 3 2c4 3 6 3 10 0 5-3 5-3 13-1l8 2 6 5 5 4c3 0 5-5 5-13v-8l4-1c3-2 3-2 3 0 0 3 3 6 5 6l1-4c1-3 2-4 6-7 5-3 5-5 1-9-2-4-2-5 3-5l4-1c1-1 1-1 1 4-1 4-1 5 1 6h3c1-2 3-1 4 2 0 1 1 4 3 5l3 2-2 6-1 8c0 3 3 4 14 3l11-1 1 4v6l-1 3h7l13-2 6-2 8 2c11 3 13 4 17 8 3 4 3 4 8 3 4-1 6-1 13 2 8 2 8 2 12 1 2-2 3-2 5-1h4c3-1 7 0 8 2 0 2-1 2-8 2h-9l-5 5c-4 3-7 7-9 12l-3 6h-4c-5-1-6 0-4 3l1 4-7 1c-6 1-7 0-12-3-6-4-17-6-17-4 0 1 4 5 6 5 1 0 2 2 0 4l-2 6c0 5-1 6-3 6s-8-4-8-7c0-6-11 3-14 10l-4 11-3 7h-5l-8 2c-5 3-16 4-18 2-1-2-3-2-10-2-8 0-9 0-10-2-1-1-2-2-5-2l-6-1c-4-3-16-2-22 0-7 3-8 4-8 10 0 4 0 5 5 9l6 6c2 1 4 8 4 12-1 2-1 2-4 1l-6 1c-3 2-4 1-1-4 2-5 1-8-2-11l-3-6v-4h-10c-11 1-11 1-15 4l-6 4-3 6c-2 6-8 12-10 9l-1-4c0-3-1-4-9-5-5 0-8 0-14 2l-7 2-4-2c-4-3-16-6-29-8l-8-1-5 3-7 3c-3 0-10 3-11 6l-2 6c0 4-1 4-4 6-4 1-4 1-7-3l-3-4-2 6-2 9-2 4 3 6c3 6 3 7 3 13-1 11-2 11 29 11l30-1h9c4 3 6 2 10-1l3-3 4 2c4 2 5 2 7 1 3-1 12-1 14 1 2 1 2 2 2 4l-2 8c0 3 0 4 3 6 3 4 8 4 11 1l13-6 11-6c4-3 17-9 21-9 3 0 4 1 10 7s6 6 12 7c8 1 11 3 11 12 0 7 2 9 5 6h7c4 1 4 1 6-1l1-2c0-2 6 0 14 5l12 6c3 0 6-3 8-7 1-4 6-7 15-10 7-3 9-3 28-4l32-2c13-2 13-2 23-7 8-5 10-6 14-6l7 2c3 1 3 1 6-3 2-3 4-4 6-4l7-2c3-1 4-2 5-5l3-6 2-3-2-11-1-11 2-3 9-6c6-5 8-7 12-18 2-7 4-9 7-9l8-3c6-5 12-6 18-4 3 1 4 1 9-1l7-4c1-2 5-4 8-5l7-6c2-3 4-5 9-6 4-2 6-3 6-5 0-3 4-5 10-3 7 1 15 0 16-2 1-1 1-2-2-4-2-2-7-11-7-14 0-2 4-1 9 2l4 2 12-3c15-4 30-12 33-18s6-8 10-7c3 0 4 1 5 3l3 6c3 4 4 4 9 4s5 0 5 2l-2 4c-2 2-2 2-1 7l3 6 4-2c4-2 4-2 6-1 2 3 7 2 9-2 2-3 3-3 6-3s5 0 6-2c1-1 2-2 3-1 1 0 9-2 14-6l5-2 2 3 1 3 4-2c1-2 4-3 6-3s4-2 11-9l9-9-1-9c0-7 0-9-2-11l-2-4 5-6 4-7c0-4 3-8 8-10l8-5c3-2 3-2 6-1s4 1 6-1c2-3 3-3 11-3l9-1 7-2 10-1c3-1 6-2 11-1 7 0 8 0 15-3l11-3 10-2c6-2 9-3 16-3 14 0 16-1 23-16l8-17 4-6c1 0 4-2 6-5 4-4 6-5 9-5l7-4c2-2 6-7 11-10l17-15c10-9 10-9 16-9 5-1 6-1 11-5 5-5 10-6 11-4l5 2c8 2 16-4 21-15l4-5 4-4c2-5 7-8 17-9 7-1 10-2 12-4l6-4c2-1 3-2 3-4l-1-4h-5l-5 1-7-8c-6-5-9-7-11-7l-6-1c-4-3-23-2-26 0l-7 3c-4 0-5 0-9-2l-5-4c0-2-8-10-11-10l-7-4c-3-3-4-4-5-8l-1-7-6 2z"/>
</svg>
