<svg xmlns="http://www.w3.org/2000/svg" viewBox="0 0 1024 1024">
  <path d="M999 89l-2 3-5 4c-4 4-5 5-6 11l-1 8-6-1c-6 0-6 0-10-5-3-3-4-4-7-4-4 0-8 2-8 4l-3 3-2 4-1 6c-1 3-2 3-5 3s-4 0-6 5-3 6-8 8c-7 4-9 4-13 0-4-3-9-4-9-1l-2 6-5 6c-3 0-3 1-3 4v4h-8l-9 1-3 1-4 2c-2 1-2 1-4-1l-4-2-2-3-5-6c-3-2-4-4-4-6-1-3-5-7-7-6-3 0-14-4-17-7-2-1-3-3-3-5s-1-3-3-3c-6 0-7-1-7-4 0-2-7-12-9-12l-6 4-5 4 1 2c1 3 1 3-1 2l-4-1c-3 0-3 0-3 3l-2 8c-1 3-2 4-4 4l-7 2c-4 1-4 1-6-1l-6-3-6-3-3-2v4c0 11-15 29-17 22-1-2-5-2-7-1h-1l-4-1c-3 0-4 0-4 2s-1 3-3 3c-3 1-4 0-6-2s-3-2-5-2l-2 3 1 3 2 4c2 1 3 2 3 7 1 5 2 8 5 12 3 5 3 5 8 5h4v4c0 8 4 14 14 20 1 1 1 1-1 5s-2 5-6 6l-7 3c-3 1-3 1-3 9v7l-7-1-9-2h-20l-8-6-10-8-7-4c-9-6-21-11-28-11-4 0-5-1-7-3s-3-2-9-2a90 90 0 01-51-15l-13-26c-1-4-2-5-5-5s-3 1-5 6c0 3-2 8-5 11l-4 5h-6c-6 0-6 0-10-4l-7-10v-9l2-4-5-3-9-3c-7 0-19-2-21-5-3-3-6-3-8-2-2 3-8 4-13 3h-6l-5 1c-4-1-12 4-16 8-2 2-2 2-14 0-3 0-4 0-6 2l-2 2-3-2c-3-3-11-4-17-3h-33c-2-1-2-1-3 1 0 3-5 3-7 0-1-3-5-2-8 1s-11 5-15 3c-5-2-13-1-14 1s-2 2-6 0l-8-2c-4-2-7-2-9 0-1 1-1 1-3-1-1-1-2-2-5-2l-6-1-5-2c-4-1-4-2-2-7v-3h-6c-5 0-7 0-9 3s-5 3-9 0c-4-2-8-2-14-1-3 0-4 1-5 5l-4 5c-2 1-3 1-3-1-1-3-6-4-8-1-4 3-7 4-13 4l-16 2-17 3c-10 2-18 6-23 12-8 10-10 11-13 11l-7 3c-2 2-3 3-3 6l-2 6-2 4-2 5c-1 2-2 4-2 9 0 6 0 6-4 8-3 2-14 12-24 23-4 5-4 5-4 12v8l-4 3-11 6-13 7-8 5 1 4c1 3 2 4 7 6l6 2-5 2-9 5-4 4H29l-16-1c-6-1-7-1-13 4l1 1c4 2 5 7 5 20-1 10-1 13 2 27l4 23c0 8 3 13 11 23l5 8 5 5 2 3-2 1c-3 1-3 2-3 7l2 8 1 7c-1 3 0 5 1 8 3 6 3 13 0 16-2 1-2 3-2 9 0 7 1 8 7 8l9 6 8 7c1 0 3 2 4 5l10 13c11 12 13 14 14 17l-2 8c-3 0-5 4-5 7l-2 9-2 9-1 9c-2 7 0 14 6 22 4 6 4 8 5 16s2 9 5 13l4 8c0 7 3 13 10 22l7 8v12c0 12 0 13 2 13 1 1 2 2 2 5 1 6 4 14 6 16l4 2 2 3 3 6c3 5 3 7-2 10l-4 4v9c1 5 2 10 1 14 0 5 0 6 3 7l4 2c2 0 5-6 6-11 1-3-1-8-3-10v-15h7l1 4 2 7v14l-5 9-3 7h3c3 1 8 8 10 15 1 5 1 6-2 10-3 5-3 5-2 8 2 4 3 12 1 18-1 4 0 7 5 14 2 2 3 3 8 3 6 1 6 1 11-3 5-3 6-4 11-4s13 4 13 6l5 1c7-1 12-3 12-4l-2-6v-9l2-5 2-5 3-7 2-3 1-3c0-3 0-3-3-2-2 0-2 0-1-2 3-3 10-10 13-10 5-1 8 0 11 7 3 6 3 6 7 6 6 0 10 3 9 9-1 5 1 15 4 19 2 3 6 14 6 18l-3 6c-4 5-5 9-5 14l1 3h-7c-6 0-9 1-12 3-7 3-8 4-10 8l-6 8c-2 3-3 4-2 5 1 0 4 2 6 5l6 4 3 4 2 3 3-2 3-1 3 8 2 8h5l8 2 12 10c11 10 11 10 18 4 3-3 3-3 3-12 0-11 0-12-5-14-3-2-3-2-2-4 6-9 7-12 7-16l-1-4h4c4 0 4 0 5 4 1 5 5 8 10 10l12 4c8 3 9 3 23 1l7 1c1 1 3 1 6-1l7-2c4 0 8 5 9 9l2 6c2 2 6 1 9-1 2-1 2-1 6 3 7 6 15 12 16 10 2-1 6 0 7 3 2 3 3 3 4-1l5-5c3-1 4-2 5-5l3-6 2-3c1-2 2-2 6-2 4 1 5 0 6-1 2-1 6-1 12 1l19 1h13l3-3 8-11c3-5 5-7 9-10l15-9 9-6v-5c0-4 0-5-3-7-2-1-3-2-3-7l-3-10c-3-6-2-7 2-11s6-5 7-2l12 4 6 2 3 1c5 0 17 3 21 6 5 2 5 2 8 1 4-3 12-13 13-18 0-4 1-5 4-3l4 2 8 1c4 0 6 0 14-3l14-4 10-4c2-2 6-4 9-4l6-2 4 5 5 9c5 8 6 11 6 16s0 5 4 7l8 2h5l-1-3c0-3 0-4 2-4l2-4c0-2 0-2 5 3l11 9 6 5h9l12 2c4 2 4 1 4-4 0-6-1-9-7-16-2-3-3-4-2-5v-11h5c6 1 6 1 6-1l-2-8c-1-5-1-7-4-10l-5-5-5 3c-3 2-4 2-4 0l-5-4c-2-1-6-3-7-5-3-3-4-4-4-7s0-4-3-4l-7-1-7-3c-2-2-3-3-3-6 0-5-3-10-6-10s-4-1-2-7v-10l1-7c2-2 3-6 1-9l-2-10c0-6 0-7-2-10l-4-2c-3 0-6-3-6-6 0-2 1-4 5-8l6-6 5 2 8 3c4 0 5 0 6-2l1-5 2-2c3-1 6-6 6-11 0-3 1-4 2-5 3-2 9 0 12 3 4 3 12 5 14 3s6-2 7-1c0 1 3 3 7 4l6 4 9 5 6-2h9l8 3c2 2 2 2 4 0 2-3 2-3-2-9-4-5-4-8-1-15 1-4 2-7 1-8l2-5 3-1-5-11-3-11 3-2h3c3 5 3 5 8 3h6l12 1 12-1c1-2 1-2 4 0 6 2 8 1 12-6l8-11 5-5 7 1c9 3 14 2 20 0l9-2c2 0 3-1 5-3l7-9c3-2 5-5 5-6l2-1 1-2 4-4 5-4c3-4 6-6 21-10 20-6 21-6 25-2l6 8 2 4 3-3 3-6c0-2 1-3 5-4 5-2 12-9 15-13l1-7 2-11 3-11a669 669 0 01-1-24c-2-4-2-5 0-7v-5l-4-13c-1-11-2-12-7-20l-5-8v-28l5-16a280 280 0 0115-37l3-8v-32l-5-10-5-16c0-2-2-8-5-13-3-7-4-8-9-11l-7-4v-7c1-5 1-7-1-8v-4c3-3 3-8 0-8l-1-5c1-7-2-9-9-10l-8-2c-1-1-2-2-1-9 0-7 0-8-2-10-4-2-3-4 3-14 7-11 10-23 7-26-3-2-2-4 2-9l4-8c1-3 2-4 4-3 4 0 4-1 7-7 4-12 6-18 5-25 0-5 0-6 2-7 2-2 2-3 2-9 0-7 0-7-3-7l-4 4z"/>
</svg>
