<svg xmlns="http://www.w3.org/2000/svg" viewBox="0 0 1024 1024">
  <path d="M88 103l-9 3c-5 0-7 1-9 3-1 2-3 3-5 3l-11 3c-8 3-8 4-12 9-7 10-9 17-9 27 0 7 0 9-2 10-2 3-2 4 0 10s6 34 6 41l-2 12c-2 3-3 9-4 14v14c3 8 2 15 0 21-6 11-6 13-5 37l2 28v7l-6 7-14 24c-9 18-9 20-4 29l3 9c0 9 7 20 17 25 2 2 3 4 5 11 6 19 8 22 15 27l13 8c8 4 14 5 40 5h16l5 4c3 2 6 5 7 8l9 14 7 10 7 1c6 1 6 2 9 6l13 13 10 8h6c7-1 15-4 16-8l5-3c5 0 6-3 6-10 0-6 0-7 5-10l5-4c2-2 2-2 0-4l-3-6c0-3-1-4-4-6-4-3-5-4-5-7-1-5-4-10-9-15-3-3-4-4-4-7l-3-6c-4-3-7-9-13-24-3-9-3-10-3-23 0-21-4-32-15-45l-5-5v-18l-3-2c-3-1-4-3-4-5s-4-7-10-10c-3-2-4-3-6-9l-2-12-2-9c-2-3-2-4-1-19 0-16 0-17 4-23a978 978 0 015-29c1-12 1-13-1-18-3-8-4-25-1-32l2-10 3-9 4-6-1-12v-12l-6-7c-7-8-8-11-8-15s-3-6-12-8l-14-4c-10-3-14-3-18 1z"/>
  <path d="M959 655l-9 6-7 5-5 1c-7 2-9 11-2 14l2 3 2 6c1 3 1 3-2 7-4 4-6 9-7 16l-3 7c-1 4-1 4-6 4s-6 0-12 7l-14 10c-7 3-8 4-18 4-9 0-12 1-14 2l-8 2-7 2-8 1c-4 0-5 0-9-4l-4-4h-22c-7-2-9-2-12-5l-8-7c-5-3-6-3-10-3l-7 2c-3 1-2 4 1 6l9 7 6 5 6 4c9 7 17 12 38 22l21 10h15l16-1 10 6c12 7 19 13 23 20 2 6 8 12 13 14 4 1 11 8 16 16 3 4 11 9 22 12 7 1 8 2 13 7 5 7 10 18 10 24s2 9 8 12c7 4 13 4 19 0 3-3 4-4 5-9 1-7 0-39-1-45l-2-18c-1-14-1-15 5-17 2 0 3-1 1-5-2-3-3-11-6-26 0-2-1-5-3-7-3-3-3-4-4-13-1-13-2-16-7-19-3-1-4-3-6-9s-3-9-3-15 0-8-3-11l-4-7-3-4 2-7 2-6-2-5-8-11-5-7h-6l-8 1z"/>
  <path d="M328 794l-4 2c-4 0-10 4-11 7l-2 10c0 8 0 8 3 13 2 4 4 8 5 14l1 8h5c9 2 15 5 18 12l2 5-2 4-2 7c0 2 0 2 3 1 4-2 4-2 7 1 3 2 3 2 17 2l13 1c0 4 6 7 9 3 1-2 3-2 11 1 4 1 4 1 6-1l5-2c3-1 4-1 11 5l7 6 1-3c1-4 3-5 7-2 3 1 6 2 13 2 8 1 9 1 9 3s1 3 3 1c1-2 3-1 6 2 2 2 4 2 9 2 7 0 11 1 23 8l1-2 2-4 1-6c0-6 0-7-5-14l-7-12c-2-5-6-8-14-10l-13-5-10-4c-4 0-7-1-12-7l-9-8c-4-1-6-3-7-5l-3-3-7-2c-4-1-5-2-7-4 0-2-3-5-6-7-5-4-6-4-13-4-6 0-7 0-16-5-7-4-11-5-14-5l-7-2c-3-2-3-2-8-1l-5 2-1-3c-1-3-2-3-7-3-4 0-5 0-6 2z"/>
  <path d="M375 911c0 8 1 12 3 12l1-5c0-8-1-12-3-12l-1 5z"/>
  <path d="M347 912c-1 1-1 2 1 6l3 6v-7c0-6-1-7-4-5z"/>
</svg>
