<svg xmlns="http://www.w3.org/2000/svg" viewBox="0 0 1024 1024">
  <path d="M157 2c-8 2-10 2-14 6-3 4-6 5-9 5l-6 3h-19c-5 0-7 0-8 2-3 3-7 4-13 4h-4l-1 5c-1 4-1 4-8 6-6 2-7 3-8 5 0 2-1 5-3 7l-2 5c0 2-1 3-3 3l-5 4c-2 3-4 4-9 5l-6 2v6c-1 4-1 6-3 8-2 1-3 4-4 6l-3 8c-2 4-2 5-1 10l1 18c0 12 0 12-4 18-4 8-3 10 1 12l13 7 10 6 11 16 12 17c2 0 3 8 3 12v8c1 4 2 4 5 4 2 0 3 0 4 2s3 3 6 4c4 2 5 3 9 10 5 8 6 9 10 11l9 8c15 16 17 17 31 23a1032 1032 0 0038 16l23 12c4 3 10 5 13 6 5 2 5 2 9 11l4 13c0 3 1 5 3 8l7 10 4 7 7 3 11 5 7 3c5 0 11 4 12 7l3 6c2 2 3 2 5 0 5-2 9-1 13 3l4 3 9-1h9l4 3c4 4 4 4 7 3 4-3 19-3 27-1l10 2c4 0 5 0 6 3 0 3 1 4 4 4l6 2c3 1 3 1 5-1 3-2 8-2 12 1 2 2 2 2 6 1 4-2 5-3 6-6 2-5 3-5 7-6a229 229 0 0159 1l1 6v5l9 10 13 11 38 4c6 0 11 3 13 9 1 4 3 6 6 6 1-1 3 0 4 2 2 2 3 3 5 3 3 0 17 7 32 15 7 5 10 7 13 11l10 13c6 7 7 8 7 12 0 5 3 15 5 18l3 6c1 4-1 8-6 11-2 2-3 3-3 6s3 8 6 8c3 1 3 12 0 14-2 2-2 4-2 8v6l-4 1-5 2-7 2-5 3 2 7 2 7 6 3c6 3 6 3 6 7 0 3 1 4 2 5s2 2 1 6l-1 9c-1 3-1 4 2 10 3 7 3 7 7 8s5 1 10-3 5-4 4-8l-1-15 2-13c2-3 13-8 16-8l7 8c4 6 5 7 8 7s3 0 3-4c0-3 1-4 3-7l6-3c1 0 2 0 2-2 0-4 5-6 12-6h4v4c0 4 1 5 2 6 3 2 3 2 8 0s6-3 6-8c0-2-1-4-4-7-5-3-5-4-5-8v-5h5c9-2 10-2 11-6 1-3 2-5 4-6 3-1 3-1 3-6l-1-6c-1 0-3-3-4-7-2-4-3-6-5-7l-2-4c0-4-2-6-10-8-7-1-7-1-12-8-4-5-6-7-8-7l-2 1-2 8-2 8c0 3-3 5-8 4-4 0-5-1-6-3l-1-6-1-5c-3-5-10-12-13-14-4-1-7-4-7-8-1-3-4-5-8-5l-8-2c-6-2-6-2-5-5 1-1 1-3-1-5l-2-6c0-2-7-8-10-8s-5-1-5-3c0-4-5-8-10-9-3 0-5-1-5-2l-4-1c-3 0-4 0-5-3l-4-3c-6-1-9-3-11-8-2-2-3-7-4-9 0-4-1-5-3-7l-4-2-2 3c-2 2-3 2-6 1-5-2-6-6-7-22 0-14 0-15-2-18-3-3-3-4-1-10l1-8-7-3c-4-1-7-2-9-5l-3-3-1-14-1-14-10-11a64 64 0 01-19-27l-4-10-2-5c0-4-2-8-4-9l-3-3-6-8c-3-3-5-6-5-8a281 281 0 01-36-41c-2-1-2-3-1-4 1-3 0-3-4-6l-6-6c0-2-1-4-3-5l-2-5c0-5-2-8-7-10-6-3-14-9-15-13-2-5-6-9-10-9-3 0-4-1-6-4l-2-7c0-4-2-6-9-7-2 0-4-1-6-4s-3-3-6-3c-2 0-7-1-10-3-5-2-7-4-8-6l-4-4c-3 0-15-5-19-8-6-4-41-41-46-48-4-7-10-10-18-10l-8-2-6-2-11-3c-5-3-7-5-8-7-2-4-3-4-5-4l-6 1-3 2-4 3-3 2-4-2c-6-2-7-3-7-5 0-4-4-11-7-13l-4-4c-2-5-7-7-17-7l-9-1c0-1-4-1-14 1z"/>
  <path d="M848 667c-4 2-21 6-32 7-12 1-12 1-16-1-3-2-6-2-8 2l-5 4c-4 2-4 2-2 3l2 1-2 6c-2 5-5 8-10 13l-2 3-4 6-4 6-2 9-1 8-4 4c-4 1-4 2-4 5l-1 5-8 10c-8 11-11 21-14 41-2 14-2 15 0 22l3 20 1 13-4 3-3 4v16l-1 20-4 3c-1 0-2 1-2 6l-1 5 7 7c5 5 6 6 6 10 1 6 6 15 12 24 4 6 4 6 4 15v8l4 1 4 5c1 3 3 4 5 5l3 3c0 3 1 4 8 7l7 5 2 3 2 5c0 3 1 3 4 4l8 3 6 2 4 2 6 3c3 1 4 1 10-2l7-5c1-1 2-1 5 1s4 2 8 1c5-1 5-1 6-6 1-3 2-4 5-6l6-1c1 1 3 0 5-2 2-1 4-2 9-2 6 0 6 0 10-4l4-3h9c8 0 9 0 14-3 15-9 19-10 29-5l7 2c2 0 9-5 10-8l9-7c9-5 12-10 13-18 1-10 3-17 4-18l1-6c2-9 2-10 6-11 3-2 3-2 3-6l2-5c2-2 2-4 2-9l-1-10c-2-2-2-6-1-6 2 0 4-3 4-9 0-4 0-5 2-7l2-2-2-4-6-15c-3-9-3-10-2-14 3-10 3-15-1-25-5-12-6-19-5-25l1-10c0-4 0-5-2-5-2-1-2-2-2-5l1-7c1-2 0-3-2-6l-5-6c-1-3-3-5-5-6-4-1-10-8-12-13 0-2-1-4-3-4-3 0-4-3-3-6 0-4-1-6-6-8l-6-3h-5c-3 2-4 2-7 0l-9-2c-5 0-5-1-11-8l-6-10-5-7c-2-4-4-5-7-6-2 0-5-1-7-3s-3-2-5-1c-4 2-24 2-26 1-3-2-4-2-6-1z"/>
</svg>
