<svg xmlns="http://www.w3.org/2000/svg" viewBox="0 0 1024 1024">
  <path d="M860 1l-2 3-3 3-4 2 2 3c2 4 2 4 1 5-1 0-2 1-2 4l-2 8-4 11-3 12c-2 5-2 5 0 7 2 3 2 9-1 10v12l-2 14c-1 10-2 12-3 14-3 4-8 4-10 1l-5-2c-2 0-2 0-2 3l-1 4-2 4c0 5-2 5-7 1l-5-4-3-2-4-2-4-1h-7c-2-2-2-2-4 1l-3 6c0 2-1 3-4 4-5 2-8 6-6 9 1 1 1 1-1 3l-2 4-1 3c-2 2-4 7-3 8l3 4c2 3 1 5-3 5-3 0-3 0-3 3 0 2 0 3-2 3l-3 2c-1 3-3 4-5 2s-6 2-7 6c0 3 0 3-4 3l-6 1-1 7-2 7c-2 2-8 1-12-1l-8-2c-5-1-6-1-9 2-5 4-7 4-10 2-2-3-6-3-9 1-2 2-4 3-8 3-6 1-10 0-13-4-2-2-3-2-16-2s-13 0-16 2c-2 2-4 3-7 3l-6 2c-2 3-3 3-5 1l-3-1c-2 0-1 5 1 12 2 5 2 7 2 17l-1 11 3 1c2 1 3 1 3 4s2 5 12 15c12 12 13 13 13 17s-4 15-6 18l-3 6c-1 5-4 10-8 11l-3 2-3 3c-3 4-6 4-6 1 0-2-1-2-3-2l-3-1-3-1-4-2c-2-2-5-3-10-4l-7-2c-2 0-2 0-2 3v4h-5c-12-2-22-2-24-1-1 1-3 0-7-1-9-2-10-3-11-6-2-2-2-3-7-2l-7 1c-1 2-5 1-6-1-2-2-4-3-6-1s-3 2-5 0l-7-2c-3 0-3 0-2-2 1-1 1-1-2-2l-5-2c-2-2-5-2-7-3-6 0-10-2-8-3l2-4 3-2 2-2-2-1c-2 0-8-6-8-8l-4-4c-4-4-4-5-1-5l2-1c0-3-13-14-18-16-2 0-2-1-1-2 1-3 1-3-1-3-2-1-11 5-11 7l-3 9-1-3c-1-3-3-2-4 3 0 6-3 6-4 2 0-3-5-7-10-9-3-1-3 3 1 6l3 2-4 4c-4 5-8 7-9 5-2-2-4-1-5 2-1 4-3 7-5 7-3 0-3 0 0 7 2 6 2 6 0 8-1 2-3 5-3 8l-4 9-2 3 2 7c1 5 2 7 1 8-2 1-4 1-6-1l-2-1-13 16-3 7-3 3c-2 0-3 1-3 2l-2 5-2 6-3 2-6 3c-2 2-3 3-4 2-2-1-2-1-2 2 0 4 0 4-4 5-6 0-6 1-5 4s1 4-1 6l-3 3-2 3c-3 2-3 2-2 4s1 3-2 6c-2 3-4 4-5 4-2 0-4 1-5 3l-4 5c-1 1-5 1-5-1-1-2-6-1-11 1-4 3-6 4-7 1-1-2-5-1-7 1 0 2-2 3-2 3-3 0-13 9-13 11l3 4 1 3c0 2-10 1-13-1s-4 0-7 5c-1 4-3 5-6 3-2-1-2-1-2 1l-3 3c-2 0-3 1-3 3 0 3-1 4-3 4-3 0-3 0-2 4 0 3-1 4-3 2l-6-1c-4 0-6-1-7-2h-5c-2 1-2 1-2 3 1 3 1 3-4 3l-8 2c-10 8-14 11-18 12-4 0-4 1-6 4-1 4-1 4 2 6 3 3 3 5-2 4h-5c-3 2-7 2-9-1-1-2-1-2-6 4l-5 9c1 2 0 2-3 1-3 0-5 0-8 2-3 3-4 3-4 7l-1 4-9 5c-10 5-14 9-27 23l-12 13c-6 3-9 8-9 11l1 3c2 0 1 4-4 8l-10 11c-5 6-5 6-5 11l-1 9c-2 5-2 7 1 7 2 0 3-2 3-6l1-2c2-1 4-10 4-16 0-3 2-6 4-5 2 2 7-2 8-5l1-3 1 2c1 4 0 7-4 8-1 0-2 1-2 3l2 5 2 4 3 3c1-1 2 0 4 4 1 4 2 5 4 2 1-1 2-1 7 1l8 3h3l-2 3c-1 3-1 5 3 5 1 0 2 1 2 3l-1 3c-2 2-1 3 1 3l3 3c1 2 2 3 3 2 2 0 2 0 2 2l-1 3-1 3-1 4c-1 1 0 8 1 8l6-5c3-3 5-4 8-4s3 0 2-3c-1-2-1-2 1-3 3-1 4-4 1-4l-1-2 1-1c2 0 2-5 0-8-3-6 0-6 4 0 3 4 4 5 6 5 3 0 4 1 5 2l3 2c1 0 3 1 4 4l4 6c2 1 2 1 3-1 2-2 3-1 4 3 1 3 1 3 3 2 2-3 3-2 3 0 1 2 1 2 4 1 4 0 9 2 9 5s3 7 5 7l3-1c2-1 2-1 0-5-3-4-2-4 1 0 3 2 3 2 5 0 1-1 3-3 3-5 2-2 2-2 2 4 0 7 0 8 3 11 4 5 8 5 10 2l4-3 6-3c4-3 10-5 9-3-2 2 6 3 8 0l3-1c2 0-3 4-5 4-8 0-15 6-13 11 1 3 1 3-1 3-3 0-5 4-3 7 2 2 2 2 1 4l-3 1-3 2c-1 2-1 3 1 4 2 2 2 2 4 0h5c1 2 5 2 7 0 1-1 4-2 4 0l-2 3c-1 1-3 2-7 2-5 0-5 0-5 2l1 3c2 0 3 2 2 3v3c0 2 1 2 2 1 2 0 2 0 0 2s-2 3-2 6v3c-3-1-5 1-5 3s0 3-2 2c-2 0-8 6-8 9 1 1 0 2-1 2-2 0-5 8-5 10l2 2 1 2 1 2c2 2 1 3-3 3-4-1-4-1-4 1s-1 3-2 3l-4 5c-2 3-2 5-1 6 0 1 0 2-3 4-4 4-6 8-6 11l-2 5c-2 3-2 4-2 10l1 9 5 1c4 0 5 0 6 5l5 8c4 4 4 4 8 3l7-2 7-2c3 0 4-1 6-3l2-2 3 2c1 2 4 3 6 3 7 1 14 7 14 12 0 2-3 1-4-2-1-2-2-3-4-3-3 0-3 0-4 3 0 5-2 5-2 1 0-3 0-4-5-6-6-4-6-4-6-1-1 2-2 2-6 2h-6l-3 2-1 1-2 3-2 2-2-2c-3-2-3-2-7-1l-6 1c-3-1-3-1-3 2v4l-4-4-4-3c-2 0-1 11 0 14 1 1 0 1-3 1-4 0-4 0-4 2l-1 3c-1 1-4-1-4-3l-4-3c-6-2-7-1-6 2 1 5 2 7 3 7l1 4c0 3-1 5-3 7-2 1-3 4-3 5l-1 2-1-2c0-3-2-1-5 6l-6 10c-4 4-4 4-3 8l1 9c1 4 1 7 3 9 2 3 6 4 7 2 0-2 5-3 6-1l-2 1-4 2c-2 3-4 4-4 1l-1-1-4-2-2-2-4 3-4 6c-1 2-2 2-4 2-2-1-3 0-6 2-2 3-4 4-8 4-5 0-5 1-6 3 0 2 1 2 11 5 5 1 19-1 22-3 1-2 2-2 6 1 10 8 14 9 19 8l7-2c5-2 21-1 25 1 1 1 1 2-2 4-2 2-2 2-1 4 1 3 1 3-1 3l-2-2c0-3-2-4-6-3h-7c-3 0-4 0-4 2-1 2 0 4 2 8 3 3 3 4 5 3 3 0 3 0 1 2s-3 2-6 1l-6-2c-3-1-3-1-6 1l-6 2-3 3c-1 2 1 4 1 2 2-2 3-1 3 1-1 2 2 5 5 5l5 2 6 3c7 1 12 0 15-4 3-2 5-3 6-1h3c2 0 2 0 2 2v4l-4 4c-5 3-5 5-1 6h2l3-1c3-1 3 0 3 2v2l3-2 5-6 3-4 4 3 4 1 2-2 4-3c2 0 2 0 2 3-1 2-1 3 1 4 1 2 2 2 2 1h1v2h-5c-5-3-7-2-11 1l-6 4c-2 0-2 0-1 2l1 3-4 5c-4 5-4 5-2 8 2 4 3 4 4 0 2-4 6-6 13-5h5l1-4 2-6c1-3 3-3 3-1 1 3 4 4 5 1 1-2 3-1 4 1s2 3 4 3 2 0 2-9l1-9c2-1 2-4 2-10 0-4 1-4 3 0s6 4 10-1c3-3 2-5-1-3-2 2-2 2-2-1s0-4 2-4l1-1-3-1c-2 0-3 0-2-1v-4c-1-1-1-1-4 2l-2 3-4-3c-5-2-7-6-7-8 1-2 7-2 11-1l8 5 1 1 1-2c0-3 3-3 8 0l5 3v4l-1 3c1 3 2 3 4 3 2-1 2 0 2 1-1 1 0 3 4 6 2 3 5 6 5 8 1 3 2 3 4 3l4 2 3 2c2 0 2 0 0-3l-1-5-2-3v-4c1-2 2-2 6 4 5 6 6 7 7 4 2-1 2-1 3 4l4 12c3 6 4 7 7 8h5c2 0 1-8 0-11-2-4-1-7 3-8l2-4c0-2 0-2 2-1l4 1 5 1c3 1 3 1 7-1l6-3 2-2c1-1 5-2 5 0s4 7 6 8l9 6c9 8 11 8 19 5 5-2 6-2 7-7 2-5 3-14 1-22 0-3 0-3 2-3l6-2 5-2 8-6c5-6 6-8 7-12 1-5 2-6 8-11 7-5 7-5 7-10 0-4 1-5 5-10l7-6c1 0 4-2 6-5 5-4 6-5 8-4 3 1 4 1 7-1 4-3 5-3 9-2h13c1-2 3-2 9 0l10 3c2 1 3 1 7-2 5-3 11-4 18-2h11c10-3 11-3 15 1l2 3 4-2 5-3c1-1 2-1 5 1l14 3 9 1 11-8c12-8 16-12 21-18 2-4 3-6 3-16l2-13 4-4c3-1 3-2 3-7v-5l-7-8-8-7-1 1c0 2-1 2-4 2-4 0-4 0-8-7l-7-8c-2-1-3-2-3-4s-1-3-9-5c-9-2-13-5-14-9l-3-2c-1 0-2-1-2-3l-2-3-5-4c-4-2-5-4-5-6s-1-4-3-5l-6-10c-4-7-6-9-9-6l-5 2c-3 0-5-1-9-4s-6-3-9-3l-5 1c-1 1-2 0-4-3-3-4-3-4-5-3-3 2-3 2-8-1-5-2-6-4-7-7-2-4-1-12 2-14l1-5v-2l2 3c0 1 2 3 4 3v-3c-1-3-1-3 2-3 4 1 4 1 4-1l-2-5h-12c0-2 4-6 5-6 1 1 3-1 4-2 3-4 5-4 5 1 0 4 4 14 7 17l4 2c2 0 2 0 2-4l-5-18-2-14c0-9 1-12 6-17 2-3 2-3 1-6l-2-5-4-1c-3 0-4 0-5-3v-8c1-5 1-7 4-10l4-6c0-2 8-10 11-10l4 2c1 2 2 3 3 2l1-2 2-4c2-2 4-2 8-2 5 0 5 0 6-3 0-2 1-3 7-4s6-1 7-5l-1-5c-1-2 1-7 4-7s8-5 12-11c1-2 2-2 5-2l9 2 9 2c1 2 2 2 4 0l5-1c3 0 5-2 5-6s4-3 7 2c1 4 3 4 5-1 3-6 8-10 13-10 2 0 4-1 7-4l6-3 6-3 9-6c7-2 8-3 9-8 0-2 0-3-2-5l-4-2v-4c0-3 1-4 3-5l4-2 5-3 5-1 2-1c4 0 17-7 19-10 3-6 7-10 12-13l6-3 4-1c2 1 3 1 6-3l3-4 3-4 3-5 4-10 3-12c0-3 0-4 3-5 5-2 5-1 7 2 3 4 4 4 5-1l5-8 4-6c-1-2-1-2 1-1s3 1 8-2l9-3 4-1 2-3c3-4 10-5 20-5l6-1a765 765 0 013-22c-4-2-5-8-5-38l2-21 1-3 2-6c2-2 3-6 3-9 1-5 1-5-2-5-2 0-4-2-11-9l-8-8v-7l3-18c2-8 3-10 5-13 5-4 6-7 6-10 0-4 2-9 4-10h5c5 3 6 3 7-4v-11c0-4 2-11 4-11l4 1c2 2 3 2 3 0l1-2 1-3 4-17 2 2h2l2-6c1-4 1-4 2-3 2 3 3 1 3-4 0-2 0-3 3-3 3-1 4-1 6 1s3 2 3 0l-2-2c-2 0-1-4 3-4l3-3c2-7 5-14 9-17l4-4 1 4c1 4 3 5 4 1l3-3 1-4 3-3c2 0 3-2 1-4v-7c-1-4 0-4 4-2 2 3 4 2 7-1 2-2 2-2 4-1 3 2 4 1 4-2-1-2-1-3 1-3l1 4c-1 4-1 4 2 4 2 0 3-1 3-2l1-2 2-3c1-2 1-1 1 1l-2 5c-1 1 0 2 2 4 2 3 6 4 9 2 3-1 3-3 0-7-3-3-4-5-2-8s-4-13-6-13c-6 0-7-1-7-5l-3-10-4-12-3-8c-3-2-5 0-5 6 1 3 0 4-2 6-3 3-4 2-5-5 0-4-1-5-3-5s-16-12-16-14l-2-4c-4-3-5-5-6-16 0-9 0-10 2-15 3-4 3-4 1-6l-11-1h-10v-3l1-3V8c3-3-4-6-8-3-2 2-4 2-10 1-5 0-7-1-7-3 0-3-3-4-8-2zm107 115l-1 2c-2 1-2 1-2-1 0-1 1-2 2-1h1zm-744 889l-1 1-4 1c-3 0-3 0-1-1 3-2 5-2 6-1z"/>
  <path d="M144 657c0 2-2 4-3 4-3 1-5 4-2 4 2 0 3 4 1 5s-3 6-1 6l6-4c2-3 5-5 6-5 2 0 1-3-1-5v-3c3-2 2-4 0-4-4-1-5-1-6 2z"/>
  <path d="M107 662c-4 3-4 4 0 4l4 2h4c6-6-2-11-8-6z"/>
  <path d="M117 668c-2 1-3 6 0 6l2-3c1-3 0-4-2-3z"/>
  <path d="M129 857c-2 2-3 3-3 5 0 3 1 4 3 1 1-2 7-1 9 2l3 1c2 0 1-4-2-8s-6-4-10-1z"/>
</svg>
