<svg xmlns="http://www.w3.org/2000/svg" viewBox="0 0 1024 1024">
  <path d="M604 2c-1 1-2 4-2 11 0 11-2 17-8 25-8 10-26 22-33 22l-13-2-9-2-6 2c-6 3-7 3-12-1l-3-2-10 1c-10 2-11 2-16 0l-5-1-5 3-7 4-8-3c-7-3-8-3-12-2-8 2-9 2-13 0-4-1-4-1-10 1l-9 2c-4 0-20 13-24 19l-4 8c0 4-1 5-6 9-6 4-7 6-9 11-3 9-13 18-21 21l-7 2v18l3-1h3l-4 3-3 4 1 8-1 12-1 4 6 6 7 6 1 1c0 2-3 1-9-3-4-2-7-5-8-7l-1-9-1-7-3 1c-3 2-7 2-11 0-3-1-3-1-4 1-1 4 2 17 7 29l5 15c1 3 2 4 4 4s2 0-1 4l-4 5 4 3c3 2 3 3 3 6-1 4 0 6 2 4 2-1 3-1 7 1l3 2-2 3-2 4 6 5c7 4 8 5 3 5l-4 1c-1 1-8 4-9 3-1 0-2 7-1 14 0 5 0 6 2 5 2-2 3 0 2 5l-1 4 5-5c6-7 9-8 14-4 3 2 3 3-2 7-4 3-4 3-3 7l-1 8c-2 3-2 3 1 3l5 2c3 1 3 2 1 3-1 1 0 2 5 8 8 9 10 9 14 7 3-1 4-2 4-5s1-4 3-2 1 6-1 9l-9 5c-7 3-9 5-11 10-1 5-2 4-4-2-3-12-5-18-8-21-2-3-4-3-9-4-6-1-7-1-8 1s-1 1-5-2l-11-8-7-4-3 3c-3 4-3 5 1 9 2 2 2 3 1 3l-1 3c-1 2-1 2-3-2-4-6-6-7-11-7-4 0-11 3-8 3 4 0 7 3 6 5l4 5 3 3-1 3-5 6-3 2-2 4c-1 2-1 2-3 1-1-2-2-2-2 2s-2 5-5 3c-2-2-2-10 1-12 2-2 2-2 0-6l-2-4-2 6c-3 6-8 8-10 3 0-2-1-2-1-1v7c-3 1-3 3 0 3 2 1 3 4 2 5h-4c-2-1-3-1-5 2-4 4-5 6-4 9v3l2-2c1-3 1-3 4-1 5 2 6 5 5 7 0 1-1 2-4 2-2 0-3 1-3 2 0 2 2 1 8-2 6-4 8-4 8-1l3 6c4 4 5 8 2 11v6c3 0 5 6 6 16 0 8 1 10 3 13 2 4 3 4 6 4l4-1-7-25c-7-23-8-29-6-30 2-2 4 3 4 9l1 6 5 2c3 1 4 0 4-5 0-4 2-8 5-8l1 10 1 3c2 0 1 2-1 4-1 1-1 1 1 8l2 14 1 7c2 0 2 3 1 8v4c2 0 8 6 8 7s-1 2-3 2l-3 2 3 5 3 5-2 10-2 12 4 2c6 3 13 10 13 14s6 12 9 12c1 0 4-1 5-3l19-7-9 7-6 4c-1 2-3 3-17 5l-14 3 4 1c6 1 7 4 7 9-1 3 0 4 2 4l5-1c3-2 4-2 9-1s6 1 9-1l6-2c2 1 2 1-2 5s-6 5-10 6c-7 1-8 2-5 5l7 4c3 1 4 2 4 5 0 4-1 4-5 1-2-1-4-2-10-2h-7l-2 5c-3 6-7 10-13 13-4 2-12 10-12 13l3 4c3 4 4 4 13 1 8-1 11-1 13 2s2 7 0 5-5-1-6 1-4 2-9 3l-9 2c-3 1-7 7-11 15l-3 11c1 3 0 4-1 5-1 0-3 3-3 6l-7 11-4 8 2 4c1 2 2 2 4 2 4-1 4-1 4 3 1 3 2 5 7 10l6 6-1 4c-1 4-6 10-8 10v-3c1 0-3-8-5-8l-4-2c-2-1-2-2-2-6s0-5-1-4l-6 1c-4 0-6 2-7 6h-3c-2-2-8-1-10 2-1 1-1 2 3 4 2 2 4 4 6 4l4 2 2 2 2-2 5-2c2 0 2-1 2-3 0-3 0-3 2-3l2 1v3c0 4 0 4 3 4s4 1 4 2c1 1 1 1-2 3l-2 4c0 2 0 2 4 2h5l-2 6c-1 7-1 11 1 15l1 4-3 4-4 6c0 2 0 2 5 0 5-3 6-3 11 0l4 2 2-2 2-3v4c0 3-3 6-5 6l-2-2-4-1c-4 0-13 4-11 5l8 3c7 2 11 5 11 7l2 3c3 2 2 3-2 3l-4 1-1 1c-2 0-3-3-5-8l-2-2-4-1-3 3c-3 6-3 7 5 13 7 6 7 8-1 5-7-2-9-6-11-15-2-8-4-13-5-13-2 0-6 10-6 15l2 5 2 5c-1 3 3 7 7 8 2 0 5 1 6 3 2 2 2 2 3 1 1-2 4-1 8 3 2 2 3 4 3 7l1 8c0 2 1 3 3 3 3 0 3 0 3 3l-1 4-3 4c-1 3-1 3 1 2 3-2 5-1 5 5v6l4-2 4-2c2 1 3 0 4-7v-7l7-3c8-4 10-6 9-8l1-2c3-1 6-8 7-16 0-10 1-11 3-7 1 3 2 6 2 13v10l4 2c4 3 7 4 9 1h5c3 1 3 1 3-2 1-3 2-3 3-3 2 1 2 1 2-5 0-4 0-6 2-8 1-1 2-2 1-3v-4l1-4 7-6 10-8c3-3 4-3 6-2 3 2 7 0 9-6 4-7 5-8 8-4l3 3 2-2c4-3 5-3 6 1 2 4 2 7 0 12-1 2-2 3-5 3s-3 0-3-4l-1-4c-2 0-4 6-4 11-1 4-1 4-3 4s-3-1-3-2l-2 2c-1 2-3 6-6 8l-4 6 2 3c3 2 3 2 6 1 8-3 10-3 18 7l3 4 2-2 7-4c3-2 7-6 7-9h-3c-3 0-4-1-2-3l1-1-3 1c-3 2-3 2-4-2-1-2-1-3 1-5 3-1 3-1 7 1s5 2 7 1 2-1 3 1c2 3 5 1 5-3 0-3-1-4-3-5s-3-1-3-3c1-1 0-3-4-5l-7-7-1-4c-2-1-1-4 1-5 2-2 2-2 0-3-2-2-2-2 1-4l2-2-3-2c-3-4-3-5 0-3 2 1 3 1 5-1s4-2 7-2c4 0 4 0 5-3l1-3 4 3c3 3 3 4 3 7-1 3-1 4 1 4 2 1 7 8 7 10l-3 4c-1 2-2 3-1 4v3l-1 5c0 3 0 3 3 3l5 2c2 1 2 1 0-6-1-7-1-8 4-12l3-3 3 2c5 4 10 1 10-5l1-8 2-7c0-1-10-2-11 0l-10 5c-2 0-7-9-7-12l-1-4c-1-4 1-5 7-2l6 2c1 0 4-2 6-5 6-7 8-7 13-4 3 2 3 2 5 1 2-2 5-2 5-1 1 3 6-1 8-6l3-5 2 2 6 2c6 0 6-1 2-6-3-4-2-6 2-4 3 2 4 1 4-3 1-3 1-4 3-4v25c-1 2 0 3 4 3 4 1 6 1 7 3 2 2 3 3 5 3s7-4 7-6 1-2 5-2c5 0 5 0 6 3 1 4 3 4 4 0 0-3 2-8 3-8 2 0 7 9 7 12 0 2 0 2-4 1-3 0-3 0-3 2 0 1 1 2 3 2h8l4 1 1-6v-7c-1-1-1-2 1-3 2-2 2-2-1-4-3-3-1-4 5-4 5 0 6-2 3-5-4-3-5-3-11 1l-6 3 1-4c2-5 8-8 11-6 5 2 5 1 3-3-3-5-3-6 1-6h8c4-1 5-1 7 2 3 2 3 2 1 5s-1 3 3 2 4-3-1-12c-3-8-4-13-1-15 2-3 4-2 3 1 0 3 3 11 5 10h2l5 1c3 0 4 0 6 7l3 1c10-2 10-2 14 0 1 2 4 3 5 3 2 0 3-1 5-4 1-5 3-4 3 1v2l5-2c2 0 2 0 3 3 0 5 1 6 4 2l2-3 1 1c1 1 1 1 2-1 2-3 6-8 8-8l1 2 1 2 3 1c2 0 2 0 1-5v-6h5c5 0 6 0 8-3l6-8c2-3 2-4 1-6v-5l2-6 2-2 6-3 5-4c2 0 2 0 1-2v-13c-1-3 0-4 2-5 3-1 5-8 3-10l-2-3c0-3 3-1 6 5l3 5 2-8c3-10 3-14 1-19-1-2-1-4 3-14 3-8 4-12 3-14l3-8c3-6 4-10 2-11v-7c-1-3-1-3 1-5 2-1 3-4 3-6l3-7c2-4 2-5 1-9l-2-4-4 5c-5 6-11 12-13 12l-6-5c-6-6-7-9-2-11 7-3 8-7 3-11-3-2-4-3-4-5l-1-6c-2-2-2-4 0-5v-5l-1-10c0-6 1-8 4-16 6-14 8-28 4-36-4-7-4-11 2-19 4-7 5-8 5-13s-1-8-4-15-4-11-5-18v-27c1-3 1-4-2-7-7-11-11-21-9-26 2-4 1-7-6-14-5-5-6-7-7-11s-2-7-6-11c-3-2-5-5-5-6l-6-10c-6-9-7-13-5-13s1-3-5-9-6-6-5-10c0-4 0-4-15-22-11-12-15-18-22-29l-15-22c-13-18-17-24-17-30a198 198 0 00-23-51c1-1 0-2-1-3l-3-7c-2-9-8-22-11-22l-2 2z"/>
  <path d="M305 156c-4 3-6 12-4 16l3 4 4 5 2 3-2 3c-2 1-3 3-3 5 0 3 3 4 12 4 8 1 8 0 10-2 1-2 1-3-1-14-3-15-5-21-9-24-5-3-9-3-12 0z"/>
  <path d="M281 159l-1 4c0 2 0 2 2 1l7-1c7-2 8-4 2-6s-9-1-10 2z"/>
  <path d="M292 170c-2 2 0 7 3 11 3 3 3 4 5 3 3-2 3-4-1-7l-5-6-2-1z"/>
  <path d="M321 214c-1 2-3 2-7 3-7 1-12 4-11 7 1 2 8 6 10 6 1 0 4-2 6-5l4-4 6-2c4-2 5-3 4-4l-3-2c-6-2-6-2-9 1z"/>
  <path d="M334 259l-2 12 2-2h7c0-1 1-1 2 1h2c0-2-9-12-10-12l-2 1z"/>
  <path d="M315 260l-1 3c0 3 2 4 5 1 1-1 2-2 1-3-1-2-4-3-5-1z"/>
  <path d="M260 263l1 5c3 4 5 4 7 0 2-2 2-2-1-4l-4-2c0-2-2-1-3 1z"/>
  <path d="M263 666l-5 4c-4 2-5 3-5 5 0 4 5 7 8 6 3 0 3-1 3-5l2-8c2-2 2-2 1-3-2-1-3-1-4 1z"/>
  <path d="M270 681l-3 2 4 1c4 1 6 1 4-2-1-2-2-2-5-1z"/>
  <path d="M657 689c0 4-3 7-8 10l-4 3 3 3c3 5 3 8-2 6h-5c-2 1-2 1-4-1-3-3-6-2-9 2-3 3-2 5 2 9 1 2 3 3 3 2l4-3 4-2 3 2c3 3 3 4 0 8-3 3-3 3-1 4 2 0 3 1 1 4-1 2-1 2 1 4v5c1 1 2 0 4-2 2-3 3-5 1-7-1-1-1-2 1-3l4-5c0-3 1-3 2-2 3 2 6 0 4-1-2-2-1-5 2-8l3-2-3 1c-3 0-5-2-3-5 3-3 3-7 1-12s-2-8-1-10c1-1 1-3-2-3l-1 3z"/>
  <path d="M264 688c-1 0-1 1 1 2l2 4 2 1 1-4c0-3 0-4-2-4l-4 1z"/>
  <path d="M295 699c0 2 4 6 5 5l1-4c0-3 0-4-3-4-3 1-4 1-3 3z"/>
  <path d="M256 704l-4 3c-2 0-3 1-3 3l1 2 1 3c0 2 1 2 5 0 4-1 4-5 2-10-1-3-2-3-2-1z"/>
  <path d="M532 707l-5 8-2 4 3 7c3 7 4 9 2 9v3c1 3 2 3 5 3s3 0 2-3c0-4 2-6 6-6 3 1 3 1 3 5 1 6 2 9 4 6h3c1-1 2-2 3-1 2 0 2-1 3-7 2-6 2-8 1-9-2-3-6-3-10-1-5 3-7 3-7 0l-3-2c-3 0-3 0-3-5-1-5-1-6 1-7 3-2 4-5 2-7s-5-1-8 3z"/>
  <path d="M291 709c0 3-2 6-5 7l-5 2c-1 2-1 2 4 2l7-3c4-1 6 0 5 4l1 3c3 2 3 1 3-3s0-5-3-5c-3-1-3-1-2-4 1-2 1-3-1-4-3-3-4-2-4 1z"/>
  <path d="M551 708l-3 5c-2 3-2 3 0 5 1 2 2 3 5 3l7 1 5-1-1-3-2-1-2-4h-3c-1 1-1 0-1-3 1-3 1-4-1-4l-4 2z"/>
  <path d="M617 715c-4 4-4 5-3 6v3c-3 2-2 4 0 7 3 4 3 3 5-4 0-3 0-4-2-4-1-1-1-1 1-2 1-1 3-3 3-6l2-4-6 4z"/>
  <path d="M257 722c0 3 1 4 5 2 2-1 2-1 1-3l-4-2c-2 0-3 1-2 3z"/>
  <path d="M242 730l-6 2c-5 0-6 1-6 3-1 5 2 9 6 7l1-2c-1-2 0-3 3-4 2-2 4-3 4-5s-1-3-2-1z"/>
  <path d="M260 737v3l1 3c0 2 0 2 3 1h4c1 3 4 2 5 0 0-3-3-6-5-6l-3-1c-2-3-4-2-5 0z"/>
  <path d="M237 745l-3 4 4 3 3 2 2-3c3-5 3-6 0-8l-3-1-3 3z"/>
  <path d="M514 753c-3 2-4 8-3 10 2 2 7 4 8 3l2-6-1-8c-3-1-3-1-6 1z"/>
  <path d="M248 763c-1 7 1 11 5 8v-6l-4-6-1 4z"/>
  <path d="M255 761c-1 0-1 1 1 2 2 2 1 9-2 12-2 3 0 3 4 0 4-2 5-3 4-6 0-4-5-9-7-8z"/>
  <path d="M286 775c0 3 0 3-3 4-6 2-18 13-21 19-1 3 0 7 2 7l5 3 4 2 7-2c7-3 9-4 11-2v-2c0-2 0-3 2-4h3c1 1 1 0 2-2 3-4 5-14 5-16l-5-4-6-5-4-2c-2 0-2 1-2 4z"/>
  <path d="M510 776l-2 3 5 3c9 6 10 5 5-2l-5-6-3 2z"/>
  <path d="M467 777v6c1 3 2 4 4 4l5-1c1-1 1-1-2-3l-3-3c0-3-2-4-4-3z"/>
  <path d="M426 788l-6 1c-4 0-4 1-2 5 2 3 3 3 5 3l6-1c2 0 3-1 3-3l2-4c0-2 0-2-3-2l-5 1z"/>
  <path d="M470 790c-3 1-2 3 0 4l4 3c1 3 2 3 3 2l3-1c2-1 0-5-3-7-4-2-5-2-7-1z"/>
  <path d="M368 797c-5 3-9 9-6 9l2 2c1 1 1 1 3-1l5-2c4 0 7-3 4-4l-2-3c0-3-1-4-6-1z"/>
  <path d="M348 804c-3 2-4 5-1 9 2 4 9 9 12 9h3c0-2-7-17-9-18h-5z"/>
  <path d="M380 805c-1 1 0 2 2 3 3 1 8 1 9-1 1-4-9-6-11-2z"/>
  <path d="M374 812l-4 2c-5 1-4 3 1 4 3 0 4 1 5 2 0 2 1 2 4-1 4-3 4-3 2-5s-8-3-9-2z"/>
  <path d="M250 819c0 3 3 6 6 6s3 0 3-3c0-2 0-3-2-3l-4-1-3 1z"/>
  <path d="M331 839c0 3 1 4 2 5s1 1-2 1c-2-1-3 0-5 2-2 3-2 6 0 7l5-3 5-3c2 0 3-2 1-3-2 0-1-3 1-3l2-1c1-3 0-5-5-5l-4-1v4z"/>
  <path d="M379 841c-1 3 1 7 5 7 2 0 2 0 1-5s-4-5-6-2z"/>
  <path d="M360 960l-11 2-5 1-11 2c-9 1-12 2-33 9-4 1-6 3-6 4-1 2-2 3-4 3-1 0-3 1-3 3l-7 8c-10 9-10 16 0 25l7 6 1 1 3-4c3-4 3-4 12-4h14c5 2 6 2 8 0h14l6-4 6-3c4 0 10-2 12-4l6-2c3 0 4 0 4-2l2-3 3-4 5-7 4-6-3-9-4-7c-3 0-6-2-9-5l-4-2-7 2z"/>
</svg>
