<svg xmlns="http://www.w3.org/2000/svg" viewBox="0 0 1024 1024">
  <path d="M445 22l-10 4c-10 3-22 11-32 20-4 3-7 4-26 11-33 11-37 13-45 20l-9 14-11 21c-6 11-7 14-9 22a448 448 0 01-16 49l-10 21c-3 7-6 13-10 17-4 5-5 8-6 13l-7 16-6 11-3 18c-3 16-4 19-6 23l-6 11-10 16-7 12-4 10-7 13c-1 3-4 9-7 12-4 5-5 7-5 11l-8 22c-11 23-12 25-19 33l-19 23-15 18c-4 3-5 5-7 12-4 9-9 17-27 39l-21 29c-8 13-9 15-26 30l-23 21c-15 12-18 15-23 25l-5 10a34939 34939 0 00496 66l2 8 1 9 13 18 11 15v6c0 9 3 17 10 24 6 6 6 6 16 35l10 29 1 22v23l6 8c4 7 5 10 6 17 1 6 2 10 7 18 5 10 5 10 16 19l16 11c5 3 9 9 11 19l2 7 400-7-3-6c-3-4-4-8-4-10 0-3-1-6-3-8-6-9-7-13-7-25 0-11 0-11-3-13-2-1-2-1-8 3l-7 4-3-6c-2-8-1-8 1-8l5 2c2 0 3 0 5-3 3-4 2-7-2-9-2-1-3-2-3-4 0-4 3-4 6 1 2 3 3 4 5 2s2-2 1-6c-1-2-2-5-1-8l1-10 2-10c2-5 2-9-1-9l-7-1-8-3-15-8-11-6-5-11-9-19-3-8 1-14 1-19-1-5-5-2-10-3c-4-1-14-7-17-11l-6-10-12-16c-7-7-9-10-14-21l-10-19c-4-6-4-7-5-19 0-15-2-21-7-25-4-3-4-4-4-12l-4-15c-2-6-2-7-2-21v-14l-5-11-5-10-1-29-2-31 4-6c5-6 6-9 3-11-1-2-1-2-9 1-11 4-16 4-24-1l-8-8-6-6-6-6c-3-10-12-9-20 1l-10 10c-7 6-8 7-10 6l-2-3-4-3c-2-1-2-1-5 1-2 3-3 4-4 11l-1 7-9 4c-7 2-10 3-18 3-13 0-15 0-15-4v-18c-2-3-2-4-1-6 2-3 8-5 17-6 8 0 8-1 9-3s1-2-4-2c-4 1-5 0-8-1l-3-2-2 2c-2 2-4 3-14 4l-15 3-15 1h-11l-4 4-7 4-3 1c-2 0-4-5-4-10 0-3 0-3 3-3 2 0 3 0 3-2 0-3 4-10 6-10h4c4 3 8 2 10-2l6-8 7-9c6-14 15-24 24-30 1-1 4-4 5-8 4-6 15-16 26-23l11-7 10-6c6-3 22-14 25-18 2-2 3-2 16-2 15 0 25 2 41 7l16 4c9 2 14 5 24 13 6 5 7 6 9 11 1 6 3 7 7 2 3-3 4-6 6-14 2-6 1-11-4-19-6-8-8-13-12-27l-7-18-6-12-6-11c-7-9-7-9-6-20 0-11 0-11-2-14-3-3-18-13-23-15-2-1-3-2-6-9l-4-13c0-3-1-6-3-8l-5-10-6-14c-4-8-4-8-4-21 0-9 0-15 2-19v-9c-2-3-2-7-1-10 1-2 0-4-2-7-3-5-3-9-1-18v-7l-11-3c-11-1-12-2-16-6-4-3-15-8-70-33l-66-29h-91c-90 0-92 0-95 2z"/>
  <path d="M824 69c-13 4-13 4-13 8l-6 12c-5 7-8 15-8 21 0 2 1 2 3 2l7-2 6-2 6-3c3-3 23-18 28-20l8-1 10-2c4-1 5-2 7-5l1-4h-8l-19-2c-16-4-18-4-22-2z"/>
  <path d="M854 95c-6 2-8 3-8 7 0 3 3 7 5 7l6 6c3 5 4 7 7 7 5 1 5 1 3 12l-2 7 4 1c4 0 4 0 2 2-4 5 2 7 11 4 6-3 6-4 3-9-2-2-2-5 0-12 0-3 5-3 5 0 0 2 1 3 4 4l4 2 2 1-2 4-4 6c0 3-2 5-6 5-3 0-2 4 1 6l4 1-5 1c-5 0-5 1-1 5l2 3h-3l-5-2c-2-2-2-3-2-7l1-5c-2 0-5 2-5 4 0 3-1 3-8 2-6-2-6-2-5 0l5 5c2 2 4 3 7 3l6 2v6c-1 6-1 8 3 8s4 1 3 6c-1 4-5 4-4 0 0-2-1-3-4-5-2-2-3-3-3-5 0-4-4-9-8-9s-6-1-6-2c0-2-1-1-5 0l-6 3c0 1 9 6 12 6 2 0 2 0 2 5 0 4 0 4-3 4l-6-3c-6-4-10-5-17-2-5 3-5 3-5 7v5h12c12 0 17 1 17 4 0 2-1 1-9-1-6-2-15-3-18-1-1 0-2 2-2 5 0 4 0 5-4 7l-5 3v8c0 8 0 9 3 10l9 3c6 1 8 2 10 4l2 5 3 4c2 3 3 5 3 10 1 5 1 8 3 10l2 5 5 9c5 5 6 6 8 16l3 13 3 5 3 8 8 21c2 3 6 5 11 5l9 1c4 1 4 1 7-1a279 279 0 0062-65c7-12 8-14 13-31s5-17 4-20l-3-14c-1-10-1-10-4-10-2 0-3 1-3 2l-1 2-3-2c-3-2-6-6-16-22l-21-34c-8-14-9-14-25-29a98 98 0 00-27-20l-18-6h-20z"/>
  <path d="M802 153l-1 9c1 6 1 6 5 9s4 3 3 5l-2 3c0 2 4 6 7 6l4 2c1 2 1 2-1 2l-6-1c-5-2-5-2-1 3s7 13 7 16c0 5 2 5 7 0 4-5 4-5 4-10s0-6-3-7l-3-1 3-1c2-1 3-3 3-5 1-3 3-4 8-4 3 0 5-5 4-8-1-2-2-3-9-4-17-3-17-2-21-9l-4-6-2-1-3 2z"/>
  <path d="M945 418l-5 8-3 10c-3 5-3 6 1 6 14-3 14-3 18-2l10 2c6 0 6 0 11 5l6 7c2 2 17 8 24 9l4 1v-10l-15-14c-13-13-15-15-19-16-9-1-13-3-15-6s-3-3-8-3-6 0-9 3z"/>
</svg>
