<svg xmlns="http://www.w3.org/2000/svg" viewBox="0 0 1024 1024">
  <path d="M89 297l-8 2-11 5-13 6-9 4-6 2-8 5-8 5c-10 2-14 7-21 23-6 17-7 20-2 24 7 5 10 5 24 4a45 45 0 0132 7l8 4c7 3 17 11 24 21 5 5 10 18 13 33l5 11c4 7 6 21 4 38l-1 14c-2 2-5 24-6 35l-2 20c-2 7-1 21 1 22 2 0 5 4 7 7l2 11 2 12-1 3-3 2v6c2 0 1 2-5 6-6 5-14 17-20 30l-3 8 1 7 3 10v19l3 4c3 3 5 4 7 4l6 2 5 2 5 2c3 4 7 4 12 0 7-4 21-12 29-15l14-7 16-8 19-8 11-5h12c14-1 15 0 16 7 0 4 4 12 7 16l5-2c7-3 14-3 19 0 4 3 7 4 15 1h8l19 1c15 0 16 0 24 3s10 4 17 10l10 8c1 1 3 0 6-2l10-2c5 0 6 0 8 3l9 7c6 3 7 3 15 3l15-1c5-2 8-2 10-1h6l11-3c9 0 12-1 20-5l15-7 28-28c23-23 25-25 33-29l12-6 6-3 8-6c5-5 7-5 11-5l8-1 17-7 15-5h14c13 0 13 0 17 3 5 3 11 4 21 2l12-4 6-2 7-4 7-3 4-1 8-5c6-2 8-2 22-3l16-1h7c6 0 7 1 16 8 21 17 22 18 29 14 3-2 5-2 7-1l12 1c9 0 10 1 14 3 4 3 4 3 10 2l32-3 20 1c14 0 15 0 26-4a259 259 0 0039-17c3-1 5-3 10-8l14-16c7-7 8-9 8-13 1-2 2-7 4-9 5-9 11-27 12-41l-3-48c-2-5-10-17-13-18-2 0-4-3-6-5l-8-9c-7-7-7-7-31-6-13 1-20 0-28-1a448 448 0 00-59-3c-6 5-10 5-35 5a123 123 0 00-51 7c-17 8-41 12-67 12-19 0-27-1-60-12l-18-6-15 1c-10 0-15 1-17 2l-9 3-15 5c-8 3-13 3-27-2a189 189 0 01-39-20c-2 0-20-14-33-26a478 478 0 00-33-29c-2-1-15 19-15 23 0 3 2 6 2 4h3c1 0 2-1 2-5l3-8 2-4v7a23 23 0 01-5 16l-5-2c-6-3-7-1-2 2l5 5-1 2-3 4c-3 7-4 7-18 7-10 0-13 0-12 2 0 1 9 4 13 4l2 1 1 2c1 1 1 1 4-1 4-4 7-4 7-1 1 3 3 2 4-2l2-6 4-8c2-5 4-7 5-7l2 1 3 4c2 5 4 6 6 3 0-2 2-3 4-3 2-1 3 0 7 4 6 5 6 7 3 10-2 2-4 2-5-1 0-4-11-8-13-5l2 5 1 13v8l-4 5c-6 7-10 12-9 13l6-1c6-1 8-3 9-6s3-2 4 1c2 9 4 13 6 14 2 0 2 0 2-3l2-6 2-4c0-2 3-4 4-2l3 1 5 2 2 3-2 5-4 4c-3 0-3 7-2 9 2 3 3 22 1 24-2 3 0 7 2 7 3 0 4 3 3 6s-7 0-9-5l-2-4c-2 0-6 3-6 6-1 4-8 10-14 13-5 2-9 2-16 3h-11l-6 3c-4 4-5 5-9 2h-4l-8 1c-5 0-6 0-8-3l-2-4c0-2-3-3-8-4-6-1-7 0-8 4-1 1 0 2 1 3 2 1 3 6 1 6l-2 10c-2 7-3 11-5 13s-2 4-1 6c0 4-1 5-5 5-2 0-2 1-2 3 0 6 5 12 8 10l1-3 2-6c2-5 2-5 6-5l6 2c3 2 3 3 0 5-1 1-2 2-2 5s-1 5-4 8c-3 5-6 6-11 5-3 0-4 0-8 3l-7 4c-4 1-4 1-8-3-5-5-9-5-12 1-3 4-21 17-28 20-3 1-5 3-6 5-2 3-6 4-9 1-4-3-9-5-13-5h-27l-2-4-4-3-4 6c-3 5-4 6-7 7l-4 1v10l-1 9-1-9c0-10-1-11-7-7l-4 3v-3c0-5-4-12-10-17a640 640 0 01-20-16c-6 0-11-5-7-8 2-1 2-2 1-3-1-4-9-17-12-19s-6-3-6 0l1 1c1-1 2 0 3 2 2 3 1 5-1 2l-4-2-4-2-4-2c-2 0-2 0-1-1l5 1 3 1c0-1-4-6-6-6s-1-5 2-6c4-3 6-14 3-18l-2-3c-1-2-4-3-5 0h-4c-3 0-3-1-3-5s1-5 4-8c4-4 4-4 2-7-1-4-1-7 1-7s3-1 4-4c2-7 3-7 2-1 0 5 0 6 1 5l3-4 3-7c1-2 2-3 1-4l1-3c2-4 1-5-5-5l-6-1 2-1c1 1 2 0 3-1 2-2 2-2 3-1l3 2c1 0 2-1 2-6v-11c2-2 1-7-1-8-3-3-20-30-22-36-1-4-9-18-13-22l-2 2c-3 3-6 4-10 4l-7 1c-5 1-5 2-5 4l-3 3c-3 0-4 0-2-4 3-3 5-4 14-5 6 0 6 0 9-5 4-5 4-7 1-10s-15-24-17-29c-1-4 0-10 1-13 1-2 1-2-2-2l-3-1 2-1c2 1 4 0 4-2l-4-2-4-1h4l4-2c0-2-1-2-3-2l-4-1h5c4 0 5-1 3-3l2 1c5 2 6 4 2 4-2 0-3 0-3 3-1 2-1 2 3 2 16-3 17-2 32 2l17 4c4-1 4-4-1-12-6-10-9-12-23-20l-21-11-12-7c-7-2-25-1-30 1zm30 29l2 3-11-3c0-1 2-3 5-3l4 3z"/>
  <path d="M407 497l-4 2-3 2c-2 2-2 2-5 1-3-2-5-2-8-2l-6 2 2 4 3 4-2 4c-3 6-3 6 4 6l6 1c0 2 6 1 8-1 3-2 3-3 4-8l3-12c3-4 3-5 1-5 0-1-2 0-3 2z"/>
</svg>
