<svg xmlns="http://www.w3.org/2000/svg" viewBox="0 0 1024 1024">
  <path d="M557 224l-1 2c0 2-2 2-4 0-2-1-2-1-2 1l-1 2v3l-4 3h-5l-1 3v6c2 1-1 4-5 4l-6 2-4 2-5 2-4 1-9 3-10 3-6 3c-3 2-3 2-3 0 0-3-2-3-4-1s-3 2-5 2c-3-1-4 0-7 2l-3 7c0 3 0 3-3 2h-5c-1 2-4 2-9 2-7 0-11 2-11 5 0 2-2 3-4 1h-4l-7 1-4 1-4 2-7 2c-3 1-4 2-4 4l-1 3c-2 0-2-1-2-3 0-3 0-3-4-3l-6 2c-2 1-2 1-3-1l-5-1c-2 1-3 1-4-1-3-3-7-2-7 2 1 2 0 2-2 2-3 0-4 2-1 3s3 3 0 8c-3 4-2 5 4 6 5 0 8 2 7 5l-4 1c-3 0-4 0-4 2l1 3c1 2 7 6 10 6 4 0 11 8 9 11h-6l-7-1c-4-2-4-2-8-1l-3 4-8 7c-1 0 0 4 2 5l1 3 3 4c3 3 3 7-2 11-2 3-4 4-6 4s-5 1-7 3l-6 3-2 1c0 2 2 4 4 4l2 2 4 3c3 0 3 0 1 3-2 4 0 6 4 6 3-1 4 0 9 4l8 4c2 0 3 1 5 4l2 3-3 9-2 10-7 3c-7 2-8 2-13 1-5 0-9-3-9-6l-2-2c-2-1-2 0-5 5l-4 5-2-1-5-2c-3 0-14-5-17-8l-4-7c-1-3-2-4-4-5l-5-1h-5c-4-3-6-2-7 1 0 3-4 3-8-1-2-2-5-3-10-3h-10l-3 1c0 1-1 2-4 2s-3 1-4 5-2 5-4 7c-5 3-7 3-10-1l-5-3c-2-1-5-6-5-9l-3-3c-1 0-4-1-5-3l-4-3-1 9c0 8-1 9-3 9s-2 0-1-3c1-5 0-8-3-12l-4-8c0-3-1-4-5-5-5-2-8-4-8-9-1-5-3-7-8-9l-6-1h-9c-3 1-3 1-5-3l-2-7c0-2-1-2-3-2h-6c-5 0-7 2-7 6s-1 4-3 1l-5-2c-3 0-5-2-3-3 3-2-1-6-6-7-3 0-4-1-5-2-1-3-3-1-3 2s0 3-2 2c-2-3-4-2-4 2 0 3-8 9-11 9l-6 3c-5 3-4 3-9 2-4-1-6 1-4 5l1 3-5 3-5 3c0 1-6 1-9-1-2 0-2 0-2 2l2 10 2 12c0 4-2 7-7 8-3 0-4 0-7-4-3-3-4-6-5-10-2-6-6-13-10-15h-6c-3 1-3 1-3 6l-2 9c-2 3-3 4-6 3-3 0-5 2-7 10l-2 8 3 6c4 5 3 9-2 12-3 2-4 3-4 5l-3 6c-6 7-6 9-5 11s4 4 7 5c6 1 6 2 7 7l3 4 3 2h-3c-3-1-3-1-1 3l1 5c0 2 1 3 3 4 2 2 2 2 2 0 0-1 3-1 7 2l6 1h4l4 9 6 11 14 27h-7c-3-2-7-1-7 1s2 3 13 4l11 2c2 1-4 2-6 1h-6c-1 2 2 5 9 8 7 4 11 4 16 2l8-3c2 0 5-1 6-3l2-2h-4l-4-1c-1-1 1-3 3-2l2-1 2-1h4c1 1 2 1 3-1h2l3-2 6-4c6 0 11 2 16 8 4 3 5 4 6 3 0-2 1-1 2 1 3 4 6 5 6 3l3-3 2-2 5 1 7 2 3 1v16c4 0 1 12-4 15-3 3-5 6-3 8 1 2 1 2-2 2l-3 1h-16c-3-1-5-1-7 1l-4 1c-1 0-5 4-6 7 0 2-1 4-3 4-3 0-3 3 0 5l2 4c0 3 1 5 4 5l4 1-4 1h-6l-5-2c-2-2-4-2-6-2h-6c-2-1-2-1-4 1-3 3-2 5 1 8l5 3c3-1 7 1 7 4l1 3 2 6 4 8c3 4 3 5 3 9v6l10 6c2 1 3 2 5 6l3 5h5l5 1c1 1 2 2 4 1 3 0 3 0 5 4l2 5-3 8c-3 10-3 11-1 23l1 7 5-3c8-5 18-7 27-7h9l6 6 7 7 8 12 7 11h13v-10l2-61v-52l3-1 34-6 30-7 2-4c1-5 2-6 9-6l7-1v2c-3 5 2 8 6 3 0-2 1-2 1-1h1v-15c-1-3-1-3 1-3s3 1 3 6l2 6h2c0-2 4-1 5 0l1 4v4c2 1-1 2-6 2-6 0-7 1-6 4 0 3 1 3 4 3 9-2 14-2 14-1a2211 2211 0 015 28c-1 4-1 4 1 7l16 21 14 18 17-3 18-2 16 3 16 2 5-2 5-2 2 2 3 4 5 3c2 0 4 2 7 10 4 6 6 9 7 8l3-1 1 14c0 15 0 15 8 15h4l1 7c1 9 5 17 8 18l14 1c7 0 12 0 15 2l5 1-1 4c-1 3 0 4 1 5 3 3 5 4 9 3h4v-5c0-5 0-5 4-6 4-2 9-6 9-8s7-8 9-8l4-4c1-2 3-4 5-4l3-4 2-4 1-3c0-2 3-2 5-1s2 1 5-3l5-3c2 0 7-5 8-9 1-3 6-7 10-9l4-2c3-3 21-2 28 2 4 2 6 2 10 1l7 1c3 2 7 2 9 1v-3c-2-3-2-4-1-7l2-6 2-5c4-3 11-5 16-4l3-1c0-3 2-2 10 1 11 5 21 7 31 7 8 0 9 0 10-2 0-2 1-2 13-3 6 0 9 0 13-2s5-2 11-2h24l24-1c8 0 8 0 12 4 5 4 5 4 11 4l12 2 5 3v-10l1-10 3-2v-3l-1-2 7-5c1-4-1-9-4-14l-4-7-1-3-2-4-2-7-1-9 1-5h-6c-9 0-8-5 3-8l11-3 14-5 7-4 3 2c1 2 3 2 9 2 8 1 9 0 9-6 0-4 0-4-3-4h-3l1-6v-11c0-4 1-10 4-19l4-16c0-5 2-5 11-2 7 2 9 2 17 2h10l1 2 7-3 9-3 2-3 1-4-2-6c-2-8-3-18-2-24s4-9 8-9 9-3 9-4l1-3c1-1 2-3 2-8 0-7 1-9 5-9 3 0 3-1-2-6-6-6-7-10-6-12v-3c-2-1-3-1-4 1 0 2-2 4-4 4l-4 4c0 2-1 3-2 2-4-2-8-2-11 0-2 1-2 1-4-1-5-6-9-12-9-14-1-2-9-7-11-7s-5-4-5-7c0-2-2-5-8-11l-8-8-7-1-8 1-4 2-3 1c0 4-12 6-18 3l-7-1c-3 1-3 1-3-3v-3h-10c-2 0-2-1-1-5l-1-5-6-2c-4-2-4-2-5-1l-3 2c-2 0-3 4-1 6 1 1 1 1-2 4l-4 3c-1-1-1-1-1 1a2102 2102 0 00-51-80l-14-22-20-18-19-20 2-1c3 0 5-4 5-7-1-1 0-2 1-2l1-2c0-2-3-1-6 1s-5 2-9 0c-3-1-3-1-5 1l-6 2-6 2c-3 1-4 2-5 1-2-1-3-1-3 1s-8 8-12 9c-9 0-14 1-14 2v5c0 3 0 4-1 3l-2-2c0-2-1-3-3-3l-3-1c-1-2-7-3-8-2l-3 1c-3-1-4 0-6 1l-2 2-3-3c-4-3-5-4-3-9 2-4 4-5 8-5l3 1v-5c0-4 0-4-2-4l-4 1-6 2c-5 0-6 0-9-4-3-3-10-7-13-7l-1 2v2l-3 1c-3 2-3 1-2-2v-3l-1-2c0-2-3-5-4-5l-1 7c0 6 0 7-2 8l-3 3c0 3-3 4-5 3h-5l-3 1-2-3c-3-4-2-6 1-6 2 0 2 0 2-3l-1-9c0-5-1-6-3-8-3-2-4-5-4-12 0-5 0-7-3-10-3-4-8-4-13 2-2 3-3 2-10-3-4-3-4-3-9-3-5 1-6 1-8-1-2-3-3-4-4-2z"/>
  <path d="M319 629l-1 5c0 3 1 4 7 10 5 5 7 6 8 5v-5c0-6-1-7-2-4-1 2-1 1-1-2 1-5 0-6-2-7-3-3-5-2-3 0 1 2 1 2-1 2-3 0-3 0-3-3 1-3 0-4-2-1z"/>
</svg>
