<svg xmlns="http://www.w3.org/2000/svg" viewBox="0 0 1024 1024">
  <path d="M364 1c-5 2-7 5-6 8s1 4-3 8l-7 6c-5 1-5 1-5 4l2 7v4c-2 1-2 3 0 10 1 3 2 6 1 8 0 4 0 4 2 6l4 1c1 0 2 0 2 2l-1 2c-2 0-1 2 1 2l2 3 2 4c1 1 1 2-1 5l-2 9c0 5 0 6 3 9 4 3 3 5-2 5h-3l1 5c0 4 0 4-2 6l-2 3-2 6c-3 6-3 8-1 12l4 3c1 0 4 3 4 6 0 1-1 2-3 2-3 0-3 1-4 4 0 2 0 3-3 2-2 0-4-1-5-4-2-3-3-3-7-3-3 1-4 0-4-1l2-2c0-2-8-6-14-6l-11 2c-9 3-10 2-11-1-2-3-2-8 1-17 0-2 0-3-2-5-3-2-4-4-1-8s3-8 0-11l-3-2-2 3c-3 6-13 12-21 14l-10 4c-5 4-7 4-11 2-7-2-7-2-13 10-7 14-10 18-15 18-3 0-4 1-4 3l-3 8c-2 3-2 4-1 6s1 2 6 1c6-1 8 0 5 2l-6 3c-4 1-4 1-9-1-8-3-11-4-14-1l-8 3c-9 4-15 12-20 27-2 11-3 12-6 14-4 2-4 2-4 8 0 8 1 10 6 11 3 0 3 0 3-4s0-4 3-4c2 0 3-1 3-3s5-5 8-5c5 0 7 3 9 10l5 14c4 8 6 10 8 6 1-2 3-1 3 1l-1 5-2 6-3 6c-2 2-3 5-3 7 0 3-1 4-4 6l-8 7c-3 3-3 16 1 24 4 11 8 14 13 10l3-3 3 2 5 3 4 2 2 2 9-7 7-6 7 1c6 1 7 1 10 5 4 4 10 6 14 3 2-1 3-1 5 1 2 1 3 1 2 4 0 4-5 9-7 9s-4 6-3 11l1 4v26l4 3 4 4-2 3-5 6-4 6c-3 2-3 4-5 12l-1 12c1 2 0 3-2 5l-4 3-3 3c-1 3-5 5-8 5l-2 2-2 5-3 3 3 5c1 3 3 5 4 5 2 1 3 4 2 5-3 1-3 10 0 10 1 1 1 2-1 4-3 4-4 10-2 12 1 1 0 2-3 4-4 2-5 4-6 6 0 2-1 3-5 5-5 3-6 3-6 7l-2 4-2 3-3 13-2 7c-2 2-2 2 0 3l8 9 8 7c1 0 2-1 2-3 1-2 2-3 4-3s4-1 9-7c6-6 8-7 11-8 4 0 6-2 6-4-1-2 0-2 3-2l4 1 6-2c4-2 5-3 5-5-1-2 0-4 4-4 8-2 13-4 16-9l4-6 1-3c1-1 3 0 7 2 3 2 6 2 6 1l9-5 10-8c4-5 11-3 12 3l5 9c3 4 5 6 8 7 2 0 5 2 6 4 4 5 10 8 16 9s7 1 8 3c0 3 0 3-2 5l-2 4c0 3 5 8 8 8 2 0 2 0 2-3s0-4 3-4l6-3 5-2 7-2c6-3 12-3 15 0 1 2 2 2 4 1 3-1 5-6 6-11 0-3 1-5 3-6 4-1 6-4 6-7 1-4 6-7 11-7l5-1c2 0 2-1 0-3l-2-3 4-5c3-2 4-3 7-2l9 1c8 1 17 6 24 11 2 2 4 3 9 4 5 0 5 1 7 3 2 5 3 5 6 3 4-2 7-1 12 6 4 5 5 8 6 13 1 6 2 9 6 15l7 14c1 4 2 7 5 9l8 14c6 13 6 13 12 16l11 9c5 6 7 8 10 15s3 8 3 14c-1 10-7 24-11 28l-3 4v16c-1 15-1 18-3 22-2 3-2 7-2 11 0 5 0 6 4 11l5 10c0 4 1 6 4 8 4 3 8 11 8 17 0 9 6 14 26 21l12 6c1 1-1 2-4 5l-5 5 2 5 3 7c0 3 4 6 8 6 6 0 11 6 14 16 1 4 1 4-2 8-2 2-4 5-4 8-2 8-2 8-7 9l-9 4c0 2 5 5 8 5s3 0 3 3l-3 3-7 5c-6 5-7 9-3 14l4 3 1 2 3 5c2 5 2 6-2 6-2 0-2 1-2 4l-1 4c-1 0-2 1-1 2 0 1 0 2-2 2-2 1-3 1-3 8l-2 12v6c1 3 1 3-6 9l-7 7c0 1-4 2-11 2l-4 2h-3l-2 1-3 1c-2 0-3 1-3 3-1 2 0 4 1 4l1 4c1 3 7 12 10 14 2 2 3 2 13 2h14l3 4 2 1h3l5 4 5 3c0 3 1 5 6 12 4 5 4 5 10 5l11 3c3 2 3 2 5 0l1-3c0-3 3-6 6-6 4-1 4-3 0-8-2-2-3-4-3-7 0-4 0-5-3-6-3-2-4-4-4-8l-1-5c-1-2 0-6 1-4s6 3 7 2h15c2-1 5-6 5-10 1-2 1-2 4 0 2 3 4 3 8 3 6 0 8-1 8-4 0-2 1-2 3-2 2 1 2 1 2-1-1-1 0-2 3-3 5-2 6-2 6 4 0 3 0 4 2 4s3 2 3 4l2 3 3 2 4 2c2 0 3 1 4 5l4 8c3 3 4 3 6 2s5-1 10 1l2-1c0-1 9-10 11-10l1 1 1 2c2 2 2 2 9-1l10-4c1 0 2-1 2-3l3-4 2-4c0-2 5 2 6 4 0 2 5 5 7 5l3-4 4-6c2 0 4-2 6-4 2-3 2-4 1-5-1-2-1-2 1-3v-4c-2-3-1-5 4-7 4-2 5-5 2-5l-5-4c-2-3-3-4-3-7 0-4 0-4 4-4h6c2 1 2 1 4-1l2-4 2-3 4-6 4-4c2 0 1-5-3-9-3-3-3-5-3-7 1-4 0-7-4-8-4 0-4-1-3-4s-3-7-9-8c-5 0-5-1-7-9-1-4-2-6-4-7s-3-2-3-5-1-4-3-6c-3-3-3-3-2-5l2-5c0-2 0-3 8-5l11-2c3 0 4 0 8-6 2-4 2-5 1-8v-4h-12l-3-4c-2-4-3-5-7-7-5-2-6-4-5-10 0-6-2-10-10-11-5 0-6-1-11-7-5-7-7-12-3-15 1-2 1-2-1-5-3-4-4-4-7 0l-4 5-2 2c0 3-4 3-7-1s-5-9-3-11c1-2 0-5-4-9l-3-3v-12l1-18c2-7 2-9 0-8l-5-2-4-3c-1 0-3-6-2-7v-3c-2 0-4-4-4-7l-2-3c-1-1-2-5 0-5v-3l-2-4c0-3-3-4-4-1l-2 2c-2 0-5-3-5-5l-3-2-2-3-3-4c-3-2-5-6-11-15-6-13-13-23-17-24l-3-4-4-7c-4-5-3-4-2-7 1-2 1-3-2-5l-4-3 2-4 2-6c1-1 0-3-1-4l-3-5-3-6-3-8c0-3 0-4-3-5-3-2-4-2-6 1s-5 3-8 0c-1-2-2-3-1-7 0-4 0-4-3-4-2 0-3-1-3-2l-4-4c-3-2-4-4-1-7 1-2 1-2-2-3l-4-3c-2-3-1-12 1-15 3-6 4-7 6-6s2 1 2-2l-2-5-1-3-2-2-7-2-9-3-3-3c0-3-3-5-7-4-3 0-4 0-6-2l-4-2-3-3c-1-3-3-4-5-5-4-2-13-11-14-14 0-3-3-5-7-5-2 0-5-4-5-7l-4-3-5-4c-1-2-3-3-5-3s-4-2-3-4l-1-1-1-2-3-3-6-4c-2-2-3-3-7-3-5 0-9-2-9-5l-2-1-1-2-2-2-2-1 3-1 5-3 7-3c6-1 9-2 9-5l3-3c3-1 2-6-2-12-3-4-4-7-2-10 0-3 4-2 5 0s7 3 8 1 17-1 17 2h5c6 0 6 0 7 3l3 3 3 3c3 2 4 2 7 2l7 1c1 1 2 1 4-4 2-6 7-10 10-9h3l4-2 4-1c2-3 0-7-3-9-2-1-2-1-1-2 2-3 14-9 18-9h4v-4l1-5c1-1 0-2-1-4-2-3-3-4 0-6 1-2 1-2-1-2l-6-4c-3-3-4-3-8-3-7 0-13-1-12-3v-4c0-2 1-3 2-3 3-1 2-5-1-8l-4-5c-2-2-3-3-6-3l-8-2-6-2c-2 0-5-3-5-5l7-3h7c3 2 6 1 7-2l6-6 4-5c0-1-3-4-7-6-5-3-7-5-8-7 0-2-1-4-4-5l-3-3-2-1-5-7c-2-6-3-6-5-6s-3-1-3-2c0-2-5-6-8-6l-4-1c-1-2-8 0-9 2-1 1-2 2-4 1l-15 4h-3l-3-1-3 3c0 2-1 3-2 3v4c0 3 0 3-3 3-4 0-4 0-4 4-1 3-1 4-4 4l-2-1-5-7c-3-4-5-5-7-5-4 0-7-3-7-6 0-2-2-2-5-1-2 1-4 0-9-2-3-2-7-4-8-3l-2-1-2-1c-2 0-11-8-11-10l-3-11c-3-6-4-8-6-9-2 0-3-2-3-5l-3-6-1-6c0-3-2-6-5-6l-3-1c-1-1 0-2 3-3 4-1 5-2 5-4l3-8c5-6 5-7 0-4h-2l1-3 2-2 7-6 5-6v-6c-1-7-2-9-8-9h-3v-7c0-7 0-8-2-8s-2 1-3 5c0 6-2 8-8 12h-6l-3-1V99l-1-12v-3c2-1 0-4-6-8-5-3-7-6-5-7 2-2 1-4-2-7l-3-6-2-3-3-3-1-2-3-2-3-3-2-3-2-2c-1 1-7-10-10-18 0-3-2-6-4-8s-2-3-5-2l-9 1c-5 0-6 0-7 3-1 1-2 0-4-1s-3-3-4-7c-2-5-2-5-5-6l-6 1z"/>
</svg>
