<svg xmlns="http://www.w3.org/2000/svg" viewBox="0 0 1024 1024">
  <path d="M747 2c-2 1-3 2-4 7l-1 12c0 13 0 13-9 15-7 1-8 1-15-1-6-2-8-2-10-1h-4c-2 0-4 0-6 2-3 1-3 1-7-1-5-3-5-3-14-2h-10c-2-2-8-2-23-2l-10 1c-4 2-8 2-19 2-16-1-25-3-33-8-3-2-5-3-9-3s-5 0-5 2l5 17 5 14-1 16-1 23c-1 7-1 7-6 10l-10 7-8 6-11 8a55 55 0 01-43 17h-15c-3 2-2 8 2 12 3 4 4 5 2 13-1 5-3 7-12 12l-24 16c-2 2-6 9-6 12l-3 9-5 12c-2 6-5 7-12 5-4-1-6-1-8 1-4 2-5 3-5 7 0 3-1 5-5 10l-5 6 1 8c3 19 3 19-5 31-5 9-7 13-8 19-2 8-2 9 0 17 1 7 2 9 3 10 2 0 2 1 2 6s0 6 4 9l3 4-2 5-3 15c-1 9-1 10-6 19-4 8-5 9-5 14 0 6 0 6 5 12 4 4 5 6 5 8s-1 3-5 4c-9 3-14 11-21 33-1 5-4 9-7 14-6 8-10 9-21 8h-33c-3 0-3 7 1 13 3 6 4 10 2 29s-3 26-9 34c-7 9-9 16-9 25s-4 22-8 25c-5 4-5 5-5 8 0 7-2 14-5 17-6 8-8 14-11 33-1 7-1 9-5 15l-6 15c-2 7-11 27-21 44-6 10-15 18-20 18s-5 1-7 8l-6 16c-6 15-11 33-12 45v9l-9 17-8 17-5 2c-5 1-5 1-5 5l3 7 4 7c2 5 2 21-1 29-3 9-10 18-15 19s-9 6-9 12c0 9 0 9-13 19-10 9-12 11-13 15l-2 5h6a509 509 0 0046 4c4 1 5 1 6-1l3-4 3-3 5 3c5 2 6 2 13 1l15-2c5-2 8-2 13-2l6 1v5c0 4 0 5 5 9 4 4 5 6 5 8v3h10c7 0 10 0 12-2l13-2h11l2-4c1-3 3-5 7-8l5-3h25l1-4 2-7c0-4 1-5 4-5 4-2 7-7 8-18l3-11c2-4 1-17-1-28l-1-9 3-5 4-10 5-9c4-4 5-7 5-11 0-5 1-6 5-4 2 2 3 3 4 7 0 6 1 6 5 9 4 2 11 5 14 5v-11l6-3c6-3 7-3 12-3l6 1 5-6c4-6 6-7 10-8 7-2 8-3 8-8l4-8c3-3 4-3 10-3s7 0 19-7c14-7 18-11 21-18 2-9 10-21 13-23l15-10 16-9c4-2 6-3 10-9l11-12 8-6 1-9c0-7 0-7-2-10-3-4-3-6-2-11 0-2 1-3 3-3l9-2 11-2 15-6c8-4 9-5 11-8l5-9c3-4 4-5 4-9 0-3 0-4-3-5-3-2-8-8-9-11-1-1-2-2-5-2l-9-3c-14-8-20-10-27-10-6 0-8 0-10-2l-3-3 2-5c2-5 3-6 8-9 8-4 10-9 10-21v-10l7-6c6-5 8-7 13-16l5-10h5c7 0 10-3 12-13 1-5 4-12 7-16l4-9 4 2c4 3 11 2 15-2 2-3 3-3 8-3s5 0 8-5c4-6 7-7 13-6 3 0 5 1 7 5 3 4 4 5 7 6 8 2 11 2 13 0l4-1 5-5 6-6c3-2 4-2 8 0l11 5 7 3 11 4c7 3 10 3 19 4h10l5-3 6-4v-14l-4-1-7-5c-4-4-4-4-13-5-10 0-13-2-14-8-1-4-2-4-9-7l-8-5 4-7 10-17c7-15 10-20 27-35l12-14c1-2 2-3 4-3 3 0 4-1 4-6s1-6 6-4c1 1 3 0 6-2 4-4 5-4 8-2l14 1 11-1 5-4 4-5v-7c0-8 2-13 8-20l4-7c0-2 8-6 15-8 3-1 4-2 4-5l1-6c0-2 1-3 6-5 5-3 6-4 10-14 4-9 5-10 7-11 3 0 4-1 4-4s0-4-5-8l-6-5-1-2-4-9c-5-7-5-7-5-14 0-8 0-8 4-12 7-9 7-8 6-13l-2-4-9-3c-10-3-11-4-11-12l-3-3c-4 0-5-3-7-14l-2-7 6-13c8-15 8-16-1-21-3-1-8-4-12-4-6-2-8-4-8-10 0-3 0-4-10-9-10-6-11-6-13-11l-3-11-2-5h-21c-20-1-21 0-24 2-8 5-7 5-12-5l-5-9 18-11 17-10V68c0-13 0-14 2-17l2-2 5 5c6 5 12 8 13 6l6-22h-9c-8 0-9 0-14-2l-11-4c-5-2-7-3-13-9-4-5-7-9-7-11-2-7-3-9-6-10-4-2-11-2-15 0z"/>
</svg>
