<svg xmlns="http://www.w3.org/2000/svg" viewBox="0 0 1024 1024">
  <path d="M579 7l-4 9c-2 5-8 15-10 15l-3 6c-1 5-1 5-4 4-5-2-16-4-21-4s-6 0-7 3c-2 7-1 9 4 6 3-2 6-3 11 0 7 2 12 9 12 15s3 13 5 14l5 1 6 1c3 1 4 4 1 5v3c2 3 3 5 1 5l-6 4-6 4c-1 0-3-4-1-5l4-2c5-4 5-8 1-11-6-5-8-4-10 5-1 8-3 9-11 10-7 1-11 3-13 8-2 6-2 6-4 4-1-1-4-2-10-2-9 0-9 0-10 3v5c2 2 3 8 0 11-1 2-1 2 1 4s2 4 2 8 0 7 2 9c1 3 2 7 2 18 1 17 1 20-2 26-2 3-4 5-8 7-5 3-6 4-7 8s-2 4-6 7l-11 7c-6 5-7 6-13 6-7 1-10 1-10-3s-4-6-12-4h-8c-2 4 1 10 6 13l5 4c0 2 5 3 7 0 2-2 4-1 4 3 0 5 0 7 2 8s3 0 6-2c4-3 5-2 5 3 0 3-1 4-3 4l-3 1h-6l-9-1c-4 0-4-1-6-5s-2-4-5-4h-6c-1-1-2 1-2 3l-6 7c-4 4-5 4-6 3h-5c-2 1-2 2-2 5 0 2 0 5-2 8l-2 5 2 5c3 5 4 15 1 19-2 3-2 4-1 6l2 3 1 3c1 3 1 3 2 2 3-3 8 0 8 4 0 1-1 4-3 5-4 4-9 4-19-1-15-8-16-7-16 5 0 7 0 8-2 10-3 2-3 3-3 8l-2 9c-3 5-2 8 1 11 2 2 4 3 8 3l6 2c2 1-7 3-11 2-9-1-9-1-12 7l-2 7-8 4c-6 4-7 5-8 8-4 11-9 25-12 27-2 2-2 3-1 6 0 5-2 8-5 8s-6 2-7 7l-1 3h-18l-2 5c-2 7-2 8 0 9 3 2 3 6-1 10-2 3-3 5-3 8l-3 8c-2 4-4 5-7 6-6 1-11 8-11 13 1 3 1 4 4 4 4 2 4 4 0 7-5 4-8 11-10 20l-5 11-5 11-7 14-5 5v26l1 26 5 3 8 3c3 0 5 2 10 9 3 4 3 4 7 3 7-1 11-1 12 1l2 6c1 4 0 6-1 7-2 3-4 8-5 17-2 6-3 10-7 17-6 9-6 10-5 13 1 8 2 9 7 10l6 2v7c-2 7-5 11-20 25-21 19-21 20-5 33 13 11 13 11 13 26 0 8 0 8 4 12l11 5c5 2 6 3 6 4 0 2 4 6 9 12 8 7 10 10 11 14 1 3 4 8 10 15l8 10h12l2 6c2 3 4 5 7 6s7 4 9 7c3 3 6 4 9 5 2 0 5 1 7 3 3 2 4 2 11 1 7 0 7 0 10 2 3 3 9 5 13 3h20c18 1 19 1 19 7 0 2 1 5 4 8s4 5 4 8 1 4 3 6l4 6c2 3 3 4 6 4l3 1 6 1c8-1 10 0 16 7l3 5h13l20 1 11 2 5 1c0 3 2 7 5 8l7 5c5 4 4 3 2 12-1 3-3 5-8 10-10 8-10 10-4 12h6l6-2c3 0 4 0 7 3 4 4 5 5 7 3l7-3c8-1 9-2 10-7 0-4-1-7-7-11-3-2-5-5-7-9-3-6-4-8-1-10l5-8c2-5 4-7 5-7l4-2c2-2 3-3 3-13 0-15 1-18 12-27l5-11c3-11 3-12 9-15 7-5 7-6 0-6-4 0-5 0-6-3-2-4-1-5 2-7l4-4c1-2 3-3 5-3s3-1 3-3c0-3 0-3 3-3 4 1 7 4 7 6h5c7 0 10 2 12 8l2 4 4-6c4-7 6-9 8-7 2 3 6 3 8 2 1-2 1-4-1-11l-1-10 4-1c4 0 4 0 6-4l2-4-2-4c-2-3-3-4-2-5h5c5 2 10 0 9-3-2-6-2-8 0-9 3-2 3-4-1-5-3-2-4-4-4-17 0-9 0-9 3-10l4-6c2-4 2-7 2-22 1-18 1-18 3-20l9-3 9-1 4-1-4-2-10-1c-5 1-6 1-7-2l-5-4c-4 0-4-3 0-3 4-1 3-5-1-6-4 0-5-2-2-4 1-1 2-1 8 1 11 3 17 2 17-4 0-3-1-3-6-6-6-4-8-6-5-8h10c1 1 2 1 2-3 0-3 0-3 3-4 4-1 4-3 1-6-3-4-3-3-1-8 2-3 2-4 1-9v-9l1-6c-1-3-1-4 2-5s3-3-1-3c-2 0-3 0-3-3l-3-3-4-3c-1-1 8-2 17-2 7 0 8-1 8-4l2-4c4-2 1-8-4-7l-7 4c-3 3-5 4-7 3-3 0-3-1-2-3v-4c-2-2-2-4 0-6l1-3c0-3 4-5 8-5s5-1 1-3c-3-2-8-1-14 1-7 4-16 4-21 0-4-2-5-6-2-6l3-3 4-4c3-3 3-3 0-5-3-1-3-1-1-4 0-2 2-3 3-4 3-2 8-1 9 1l9 4c2 1 3-1 1-3-3-2-2-4 1-5 5-1 6-4 3-7-2-2-2-2-1-3h4c3 0 4-4 1-7-2-3-2-3 0-6l4-2c3 0 3 0 2-2v-12c0-3-1-4-5-4s-8-3-8-5c0-1-1-2-3-2s-2 0-3-3-2-4-4-5l-2-4c0-5 2-7 8-11 5-3 6-4 6-7s0-3-7-6l-7-4v-7c0-13 4-21 12-21 4 0 7-1 7-2l4-6 4-8 2-6v-16l4-4c2 0 2-1 1-10 0-13 0-14-3-14-4-1-5-5-2-7 2-2 3-3 1-5l-2-6-1-7c-1-1-1-2 2-2 3-1 3-1 4-6l2-8 2-6 1-3c2 0 1-4 0-5l-2-3c0-2-1-4-5-6l-4-3 2-2 3-2 1-2 2-7c2-5 2-7 0-7l-5-3c-2-2-4-4-7-4l-4-1-1-6-3-8-1-3-3-8-3-8-1-3c-3-3-2-7 1-9 5-4 5-4 5-9l-2-6-2-4c0-3-2-4-5-4l-5-2c-2-1-2-2-1-5l3-6c2-2 3-11 2-14l-7-3c-11-1-14-5-7-8 3-1 4-4 2-5l-2-3-3-4-3-4h9c12 1 11 1 11-13v-10l4-2c3-1 5-4 4-6s-9-10-12-11c-3-2-4-3-4-5s-2-7-6-12c-1-2-3-3-6-3-3-1-6-2-9-6-6-5-10-6-14-2l-4 2c-2-1-3 0-8 4-3 3-5 6-5 8 0 3-3 3-4 0-1-2-1-3 2-8 3-7 4-8 2-13-3-6-2-8 1-10 4-1 4-4-1-5-4-1-4-2-3-4l2-4c0-2 0-2-2-2l-5 1-3 2c-3 7-13 0-13-9l-1-5c-1 0-2-1-2-3 0-3-3-4-9-5h-8l-1-5c0-3 0-3 3-3 2 1 4 0 7-1 4-2 4-2 6 0s2 2 6-1l5-4c2-2 1-6-1-9-4-3-4-8-1-13 2-3 2-3 0-3l-3-3c-1-2-1-2-6-1-3 1-3 1-4-3-1-2-2-3-5-4-4 0-5 0-7 3-3 4-6 4-6 0l-1-5c-1-3-1-3-9-3l-13 1c-5 2-6 2-8-1-5-3-6-3-11 5z"/>
</svg>
