<svg xmlns="http://www.w3.org/2000/svg" viewBox="0 0 1024 1024">
  <path d="M441 7c0 12-3 29-7 39l-7 21c-5 20-10 33-17 49a730 730 0 01-49 87c-4 5-6 9-6 13l-4 8c-3 3-3 4-3 11 0 11-3 31-5 36-2 7-6 15-17 38l-15 35c-5 12-6 16-7 26-3 19-2 39 1 64 4 31 9 50 15 62l4 11 5 15 7 16c2 4 6 13 11 20 10 16 22 38 25 47a302 302 0 0113 62c3 13 7 34 10 57l6 30 5 16v23c0 21-1 23-3 30s-8 16-14 24c-4 5-19 18-37 32l-22 18c-19 15-23 18-36 25l-25 14c-11 8-12 9-13 12-1 5 0 20 2 25a743 743 0 007 26l1 9h3l3-1v-6c0-8 0-8 7-10l6-2c2 0 2 0 2 6 0 5 0 7 4 14 3 7 7 13 8 12l8-14c10-20 12-22 19-18l8 5 5 3c2 0 3-2 4-7l2-6 2 2h24c15-1 19-3 21-8 3-8 4-9 21-13a170 170 0 0030-8c2 0 4-1 5-3 3-3 8-5 16-7 3 0 8 2 19 8l10 5c4 2 5 3 7 7l7 9c5 5 6 9 7 24 2 12 3 16 6 19 5 5 14 6 19 2 7-7 12-9 20-10l13-4c3-2 5-2 16-2h13l9-5 12-6 5-4c1-3 5-5 12-6l10-4 8-6c4-1 5-2 5-5 1-3 2-4 5-5 3-2 4-2 6 0 6 5 11 1 17-10l4-10 4-13c4-12 4-16 0-24-5-7-5-9-4-17l1-7h5l11 2 6 2 8-11 7-10 14-2c18-1 18-2 18-11 0-5 1-8 3-12 4-9 3-26-3-42a459 459 0 00-32-57c-4-3-5-6-1-13 4-8 6-15 7-25 0-8 0-8 6-16 5-6 7-8 11-10 6-2 8-5 9-13 0-2 1-5 3-7l2-4h-3l-12-7-12-7c-3 0-4-6-4-19 0-9 0-12-2-15l-3-8c-1-4-1-4 1-8l5-10 2-7-4-3c-3-4-9-14-11-20v-4l-9 6-10 9c0 2-7 4-15 4-11 0-19-8-22-24-2-10-4-14-7-16v-4c2-11-13-27-37-41l-18-13c-12-9-14-10-22-5-4 2-6 2-15 2-8 0-10 0-15-2l-5-3v-4c1-5 2-7 5-7l4-2 4-2 5-7 6-7c2-1 1-30 0-38l-2-17v-9l11-12c10-11 11-12 13-20a183 183 0 0113-35l-10-11c-9-8-10-10-11-14l-4-8-4-7-4-6-8-12c-5-9-5-9-14-12-4-1-7-3-12-7-8-7-10-8-20-8l-6-1c-1-2-2-2-4-1h-3l12-29 23-34c11-13 11-21 2-35l-9-13a210 210 0 00-56-51l-4-6c-3-3-8-15-9-22 0-2-2-3-4-3L453 9l-10-9c-2 0-2 1-2 7z"/>
</svg>
