<svg xmlns="http://www.w3.org/2000/svg" viewBox="0 0 1024 1024">
  <path d="M347 2c-2 5 8 12 19 12h6l10 12a258 258 0 0040 38c-1 1-13-5-22-11-7-5-10-8-12-11l-6-8-9-10c-3-6-3-6-7-6-3 1-6 0-9-2l-10-3c-4-1-4-1-5-7-2-6-1-6-11-4h-15l-10-1-5 5-9 7-4 3 3 6 4 9 1 4 6 2c5 1 7 2 11 6 3 2 7 5 11 6l11 6 7 3c2 0 2-1-1-4l-3-4 6 3 10 8c6 3 8 4 8 1 1-2 0-3-3-6-4-5-5-8-2-8s28 14 41 23c12 9 13 9 18 8 2-1 3 0 4 1h3c2-4 3-4 5-4a500 500 0 0136 25c-4 0-10-3-15-6l-11-6c-7-3-9-3-15-3l-10 2c-12 6-32 9-33 5-1-2-1-4 2-5s2-2-3-8c-3-4-4-4-13-5-10-1-11-2-22-7-9-5-12-6-15-6-5 0-5 0-4 2s17 12 25 16c4 2 5 3 7 7l2 5-5 2c-4 2-5 3-7 7l-2 6-10 3-10 3v18l7 5 8 5 1 6c1 6 1 8-1 17l-6 15c-3 4-4 9-6 17l-4 14-6 3c-3 1-7 3-13 9l-12 9-3 2v39l4 8 3 7-1 14c-1 12-2 14-4 17-2 2-3 6-3 9-1 5-1 5-7 8l-6 3v10c0 10 0 11-3 14-3 4-3 4-3 10 1 6 0 7-2 12-2 4-3 8-3 15-1 8-2 10-4 14l-3 4 2 4 2 9 1 8c1 3 1 4-3 12l-4 9 4 6c5 6 5 6 5 11-1 6-4 7-11 7-5-1-7-1-9-4-4-4-5-6-2-9 3-4 3-4 0-6-1-2-2-4-2-11-1-7-1-9 1-13l2-9c0-4 1-5 3-8l4-7c0-4 0-4-3-5l-3-3 4-9 4-9-5 6c-4 5-6 8-7 12l-6 11-4 5 1 11v11c-2 2 4 32 12 62 8 32 12 53 12 68 0 7 0 8-1 7h-2l7 44c5 38 6 43 5 52 0 9 0 9 2 11 3 2 5 9 5 15 0 5-1 3-5-6l-5-9c-1 0 0 5 5 23 6 19 7 24 7 30s0 8-3 12l-3 5 3 17c2 15 3 19 10 36l10 25c3 3 5 9 8 21 5 15 5 16 4 20-2 4-2 4 0 6 2 1 3 4 4 9 1 8 4 14 8 21 3 5 3 6 3 12-1 6-1 7 2 9l4 9 5 12c3 3 4 6 4 9 1 4 2 5 6 7l4 4s1 2 3 2l8 9c5 6 7 7 9 7 4 0 8 2 12 6l11 4 10 3c2 2 4 2 6 1 4 0 4 0 8 3 2 3 4 3 7 3l6-1c2-1 5 0 5 3s2 3 15 3c10 0 14 0 19 2l6 2 6-4 6-5h8c8 0 9 0 11-3l4-2 3-3c1-1 3-3 5-3l8-6c6-4 6-4 11-3 4 0 5 0 5-3 1-2 3-3 18-8 15-6 18-6 31-8l17-2 3-3c1-2 3-3 7-4 5-1 6-2 7-5 3-7 6-8 6-3l1 3 5-3c3-2 6-3 11-3 7-1 16-5 21-9l9-7 11-7a315 315 0 0120-17c2-3 5-5 11-8l11-6 7-5c9-5 18-15 31-35 12-20 14-24 14-30l1-5 6-12c3-8 4-11 4-16s0-7 3-10c2-3 3-6 3-11l3-11 4-12c0-5 2-9 3-11v-13l-3-15v-25l1-20c2-5-12-52-15-52l-3 6-3 5-1-5c-1-4-1-4-4-3s-4 1-2-2c1-1 1-2-1-6l-2-4 2-2 2-2-2-1c-2-2-2-3-2-8 1-8-1-15-6-19-3-3-6-4-6-2l-1 2-2-6c0-2-2-4-5-8-4-3-6-6-6-8s-1-3-4-3h-11l-2-1 2-3c2-2 3-2 8-2 7 1 7 1 10 6l2 4 3-2c3-1 4-2 4-5 0-2-1-4-7-9l-10-11c-2-3-4-4-6-4-3-1-4-2-7-8-4-7-4-14-1-17 1-1 1-1-3-4l-5-5c-1-1 0-3 2-5 2-3 2-4 1-6s-2-2-5-2c-2 1-3 1-4-1l-4-2c-2 0-2-1-3-3 0-2-2-4-4-6-4-4-4-4-4-9s0-6-3-7c-2-1-3-1-5 1-4 4-6 4-9-2l-4-6c-2 0-2-1-2-4 0-9 1-9 6 2l5 10 2-1c1-2 0-19-1-22l-7-21-5-20h-3c-5 0-7-4-6-9l1-4 2 4 4 5 2-1a331 331 0 00-11-34c-1-1-3-3-3-5-2-3-3-4-5-2l-3 2c-3 2-3 2-3 5s0 5-3 7c-3 3-4 4-13 1-6-1-6-1-7-5 0-2-1-3-5-5l-5-2-3 3c-3 2-4 2-5 1v-4c3-5 5-5 11-2l7 2c3 0 4-3 2-6l-2-5c0-4 0-4 2-4 3 0 3 1 4 4 0 4 0 4 3 3 3-2 3-6-2-13l-5-5c-2 0-1-2 2-2 3-1 3-1 3-4s-1-4-4-6l-6-9c-3-5-3-6-4-5-2 1-3-2-3-8 0-5 0-5-7-10s-9-7-12-14c-4-6-5-8-9-10s-5-3-6-9c-2-6-3-8-9-12l-6-6-1 2c0 3-4 7-8 7-6 2-10-4-5-6 2-1 2-2 1-2l-1-3c0-2-1-4-7-7l-6-6 4-1c4 0 5 1 8 4 5 4 8 5 9 2l-4-6c-3-3-6-7-8-13-4-7-4-8-7-7-3 0-3 0-3-3s0-3-4-3-7-2-5-4h6l6 2a198 198 0 00-17-32l-4-1-1 2c1 2 1 2-3-1l-7-4c-2-1-5-5-5-8 0-1 4 0 7 3 3 2 5 3 6 2 2-1 0-3-15-19-14-15-20-20-30-27l-40-30-26-21-14-17-15-22-1-5h-14c-12 0-14 0-15 2z"/>
  <path d="M275 18l-3 8c-1 10-1 10 2 14l3 6c2 6 6 8 18 8h11l-7-5-8-7-5-2-4-2-1-6 1-9v-4c-1-2-4-2-7-1z"/>
  <path d="M261 61c-1 5 0 7 6 7h6v-3c0-4 0-4-3-4l-6-2-3-2v4z"/>
  <path d="M220 78v7l4 2c10 6 17 4 15-4-1-4-3-5-8-5l-5-3-5-3-1 6z"/>
  <path d="M240 191c-8 0-9 0-9 2s5 5 16 8c9 3 22 11 27 17l3 4 3-2 2-3-3-4-4-4 5 1h5l-8-7c-7-5-24-13-26-13l-11 1z"/>
</svg>
