<svg xmlns="http://www.w3.org/2000/svg" viewBox="0 0 1024 1024">
  <path d="M421 3l-2 6c-1 4-1 4-8 6-5 2-7 2-8 1l-6-1c-4-1-6 0-12 3-5 2-9 5-12 8-2 3-4 4-5 4-2 0-4 1-5 3s-2 2-5 1l-4-2V14l-3-2c-3-2-5-2-12-2-8 0-9 0-11 2-3 4-10 8-12 7l-3 1-5 1h-3v4c1 3 0 6-1 9-3 6-5 13-5 21 0 4-1 6-3 10-4 6-5 11-2 15 2 3 4 10 2 13l-6 5c-5 4-6 4-16 3-16 0-20 1-28 8-4 3-7 8-8 10-1 3-3 5-8 7l-6 4v18c-2 42-2 43-4 43l-5 2c-6 4-17 15-20 19-16 23-37 44-44 44-4 0-9 3-16 9s-22 16-30 20c-3 2-5 4-8 9l-8 12c-3 2-4 4-4 7s0 3-9 6c-13 4-20 9-21 13l-5 9c-5 6-5 6-5 12 1 5 1 6-1 7-4 1-6 5-6 9 1 3 0 4-2 7l-5 4c-3 1-5 8-5 12 1 3 0 4-6 4l-5 1c-2 0-2 1-1 2l7 8c4 6 6 8 10 11 9 5 12 12 9 22-1 4-1 5 1 9 2 3 3 4 9 6l12 4 15 7a458 458 0 0059 26l9 5 17 12c12 10 13 11 16 19 3 6 4 10 4 14v5h-3l-3 1 5 5c4 4 6 5 8 5l9 3c7 5 26 12 33 12 9 2 31 9 37 13l8 3 3-1-4-3c-2-2-6-5-8-5l-6-3c-1-2-1-2 1-2l4 1 13 7 3 2c0 2 2 4 4 6l3 3h-3c-4 0-4 1 0 5 3 3 9 6 17 7 5 1 6 2 17 13 8 7 13 12 16 13l9 5 9 6 5 1 1 8 1 7 7 7a227 227 0 0032 25l7 7c4 7 14 17 26 26l16 14 13 10 7 6c0 4 3 9 5 9 3 0 11 4 15 8 2 2 6 6 7 9 4 8 14 19 23 25l9 8 11 7c8 4 9 5 8 6s-2 2-1 3c1 3 9 8 12 8 1 0 5 2 10 7l13 10 9 6c11 9 19 13 33 17l16 5c4 1 20 12 26 17 4 4 5 5 10 6 11 2 30 10 37 15 1 2 5 3 8 4 6 3 14 7 17 11 7 7 22 16 32 18 8 1 13 4 21 11l11 8 19 1h16l13 6a499 499 0 0049 18c5 0 6 1 7 7v5h4c3 0 4 1 6 3s3 3 5 3 7 1 10 3c5 2 7 2 11 1 4 0 6 0 9 2 6 3 12 4 21 2 9-1 9-3 2-9-4-3-4-4-3-7 1-7 1-24-1-33s-2-9-1-12c2-4 2-7 1-28-2-17-2-18-5-23s-3-5-3-16c0-10 0-11 2-11l3-2 5-2c2 0 2 0 2-4 0-3-1-5-3-8s-2-4-2-15l1-13c1-2 7-4 11-4s6-1 9-9c2-4 2-4 0-13-3-8-3-9-1-15 1-6 2-6 4-6l6-2 2-1 2 3 1 3 1-4 5-6 3-2-2-8-2-9-2 2-2 3-3-4c-5-6-6-14-3-14 2-1 3-2 4-9l2-13c2-4 2-6 1-8-1-3-1-4 2-4s2-2-1-7l-4-10-5-13c-2-6-3-9-2-11l1-14c0-12 0-13-7-13-3 0-3 0-5 5-2 6-2 6-6-2l-3-5-5 3-4 3-4-7c-3-5-4-6-7-7l-16-9c-2-3-5-3-6 1 0 3-1 4-2 4-2 0-17-10-19-13-2-2-3-5-2-12 1-4 1-6-2-10l-3-6-7-1c-6 0-6 0-3-14 3-15 3-15-5-20-4-2-7-4-8-7-3-4-9-7-17-7l-6-2c-2-2-8-2-15-1-5 2-7 2-8 1s-2-1-4 2l-7 4c-4 1-14-1-18-4l-11-4c-5-1-9-3-11-5-5-5-18-8-23-6h-5v-2c2-1 2-2 0-8l-2-6 3-2c2-3 2-3 1-5l-3-1-6-3c-1-2-3-3-5-3-1 0-2 1-3 5s-2 5-3 5l-4-2-5-4c-4-6-8-8-16-8-5 0-6 0-6-2l2-2c2 0 7-7 7-10l2-2c4 0 6-2 6-5s0-3 3-2 3 1 5-3c1-3 2-4 5-5l4-3c0-2 3-4 10-8 2-1 3-3 3-5 1-2 3-5 7-8 3-4 5-6 5-8l2-3c2 0 4-5 4-9l2-8c1-5 1-5-1-7-2-3-3-6 0-10l1-7c-1-5-1-6 1-7 3-1 8-8 8-12l-3-10c-2-8-3-17-1-20s2-11 0-11l-8-6-7-5-1-6c-1-11-1-12-4-13-2-1-3-3-4-7l-1-11-1-9-2-12c-1-8-1-10-5-16-4-7-4-7-13-11l-13-8c-4-3-4-4-5-12l-1-9h-10c-10 0-15 1-22 7-3 3-4 4-5 10-3 10-3 20 0 24l2 4-6 7-7 7c-2 0-6 5-6 8s-1 3-4 4c-2 0-3 1-7 8l-5 8 3 5 3 4-2 5c-1 3-3 4-5 5l-6 1c-4 1-6 1-6-1l-2-4c-3-2-3-2-5-1l-3 3-3 4c-3 3-4 4-8 4-8 1-9 2-13 5-3 3-5 4-9 4l-4-1 1-3c2-3 2-3-3-6-3-2-4-3-4-5s-1-2-4-2c-7 0-12-5-14-13v-7c2-6-1-7-15-6l-6 1-2-4-2-5h-7c-6 0-7 0-8 2-3 5-8 5-11 1l-2-3-6 6-6 7 1-7c0-8 2-13 8-17 3-3 7-11 7-15l2-4c2-2 4-6 5-11 3-8 3-8 1-12l-2-5c0-3 2-12 5-18 1-5 1-10-2-12l-5-6-5-6c-2-2-3-3-4-10-2-12-1-20 1-25 3-6 3-11 1-15-1-3-2-3-4-3-3 1-3 0-2-1 2-1 2-1-1-5-2-3-2-5-2-12 0-9 1-8-9-10-3 0-5-1-6-3l-2-3 2-5c2-3 2-5 1-7s-1-3 1-4v-5c-2-5-2-11 1-13l2-4c0-2-3-4-7-4l-9-6-5-4-4 1-7 2-5 1c-4 2-4 2 0-5s3-12-1-16c-4-2-8-3-11-1l-3 6-2 6-3-7-3-12c1-3 1-4-2-8l-4-5-3 2z"/>
</svg>
