<svg xmlns="http://www.w3.org/2000/svg" viewBox="0 0 1024 1024">
  <path d="M676 3c0 1-9 10-14 13l-6 3h-21l-5 1-6 1c-2 2-5 2-6 0-2-3-11-3-15 0l-6 3-6 2c-4 2-4 2-6 0h-4l-1 6c0 3 0 4-2 4-1 0-4 2-6 6-4 5-5 7-5 10s-1 4-5 7l-4 4-2-2-3-2-3 3c-4 5-7 5-8 1-1-3-2-2-8 4l-4 4-4-2-6-3-2-2c0-1-1-2-5-3-6-3-8-2-8 0s-4 5-10 6c-5 0-5 0-6-2 0-3-2-4-2-1l-1 3c0 2 0 2-2 0l-2-2-3 4-2 5v5l-3-2-2-2-5 6-7 5c-1 0-2 1-2 3-1 4-3 6-6 7l-3 6-4 6-1 3c0 3-4 7-9 7-4 1-5 1-6 5-1 3-1 4 1 5l1 3c0 1-4 5-8 7-2 2-3 3-2 7v4h-4l-7-1c-3-2-4-2-5 1l-1 2-6-3c-4-3-5-4-9-3-3 0-4 1-4 2 0 3-2 6-4 6-7 0-9 3-6 8l2 4-2 3c-2 3-6 4-10 3-2-1-3-2-3-5s0-3-3-3-4 0-4 2l-2 3-5 3-3 3-5-1-6-4-15-6v3l2 4c2 1 2 2 1 5l-2 5c0 2-1 2-5 2-6 0-6 0-9 5-3 3-4 5-4 8 0 4-1 6-3 6s-2 0 0 5c2 4 2 6 1 8-1 1-2 1-6-1-6-3-7-2-8 5 0 4 0 5-2 4-2 0-2 0 0 4l1 4-4 1c-4 2-5 2-6 0h-4l1 4c2 2 3 3 5 3 1-1 2 0 4 3l2 4-3 2c-3 2-4 2-7 1-4-1-5 1-3 4 2 4-1 13-4 14-2 0-2 1-2 4s0 3-3 4l-5 1-3 1 2 4 3 5-2 2c-2 2-4 2-8 2-5 0-7 2-9 8-1 3-2 4-5 5l-6 4c-3 4-6 7-10 9l-3 2 1 5c0 4 0 4 4 3 4 0 4 0 5 3l2 4-6 4-6 6-6 4-6 5c-2 1-3 2-5 1-6-1-10 2-8 7v5c0 2-1 3-6 5l-6 3v8c-1 8-1 9-3 8-7-3-7-3-9-1-1 2-1 3 2 5 2 1 3 4 4 6 1 4 1 4-3 7l-7 4c-3 0-3 1-4 4-1 4-7 13-10 14-4 1-4 6-1 12 3 4 2 5-3 6-3 1-4 1-7-1-3-3-3-3-5-1l-7 7c-2 4-3 6-3 11 0 4 0 5-2 6l-5-1c-3-3-7-2-11 1l-3 6c0 3-5 4-9 2h-5c0 1-1 3-3 3l-3 4c-1 2-1 2-12 2-10-1-11-1-17 2-9 4-13 8-14 12 0 3-1 4-5 6l-4 3-2-4c-3-5-4-4-6 5l-2 8c-1 2-1 2-4 0l-5-5-5-4c-2 0-2 0-2 6l-1 9c-2 2-3 8-1 10l6 4c3 2 4 4 6 8s4 6 10 11l11 8a1986 1986 0 0156 130c1 7 2 8 6 8l6 3 4 2 2 2c0 4 3 9 8 10 5 2 4-1 11 31l3 15 4 1 29-1c2-1 2-1 3 6 1 4 1 4-1 5-3 0-6 5-7 9 0 2-1 3-3 3-3 0-3 0-3 8v32l3 3c3 0 3 1 3 6 2 12 2 13-1 13-1 1-2 1-2 4 0 5 3 6 10 3l10-4c4 0 5-1 6-3s7-4 9-2c2 1 4 7 5 14 0 7 0 8 4 11l5 4 3 4c2 3 2 3 9 3l7 1 4 4c2 3 3 5 3 9 0 3 1 5 4 9 3 5 3 5 9 5 5 0 5 0 5 3 0 2 1 4 4 7 3 4 3 5 3 9-1 7 1 9 8 13l14 10c7 5 8 6 9 10 1 3 2 4 4 5 3 1 5 4 8 8 3 6 4 6 14 12l11 5h19c18-1 19-1 23-4 3-2 12-4 13-2l2 7c3 8 7 13 15 16 5 2 6 2 9 1 3-2 3-1 9 1l5 3 13-1c12-2 13-2 15 0l7 5 5 4 2-3c2-3 3-12 1-15l-1-10v-8l5-4 7-3 3-4c3-3 3-5 3-9s1-7 4-12c2-5 3-7 2-10l1-6c3-4 2-7 0-7l-2-3c0-2-1-3-4-5l-3-2 5-5c4-4 5-5 5-8s0-3 5-3l8-1 5-2 5-2c1-2 4-3 6-4 4 0 4 0 6-7l2-9 2-3 1-8c0-4 0-5-2-6-2-2-3-3-3-6s0-4-4-5l-6-6c-2-3-3-4-5-4s-3-2-5-5c-2-4-2-4 0-4l3-2 5-7 4-5 2-1 6-2h5c0 1 4 2 9 2 7 0 7 0 7-2 0-4 2-6 9-8l7-1v-7l2-9 3-6c1-5 4-9 8-10 4 0 6-3 7-7v-3h5l9 3c6 3 15 3 24-1l20-9c1-2 2-2 15-2a356 356 0 0032 3c6 1 6 1 11-1 3-2 11-6 18-8l12-6 5 2c6 2 11 1 14-3 2-3 3-3 8-2l8-1 6-2c4 0 4-1 5-4 2-4 2-4 13-8l11-4 8-6 9-5 5-2 7-2c3 0 4 0 6-4 4-6 6-8 12-10l6-6c2-3 3-3 15-10 5-2 6-3 9-2 4 1 4 1 5-7 0-5 1-5 4-7l9-3c8-2 14-7 11-10v-7c0-6 0-6-2-6-3 0-4-1-7-5-2-5-8-11-12-12-3 0-5-2-3-2l3-2 4-3c3 0 5-7 3-10-2-4-2-8 0-12 2-5 3-9 1-9-3 0-2-2 1-3 1-1 2-2 1-3l-1-4 2-2c2-1 3-4 1-9-2-4-1-8 3-8 2 0 2-1 3-7 0-7 0-7 3-7l4-2 3-2c1 1 2 0 4-2l5-5c3-1 4-3 4-4 0-2 0-2 2-1 1 1 2 1 4-1 3-2 5-2 13-2l10-1c1-1 3-15 3-24 0-3 1-3 5-4 8-1 11-7 4-13-3-2-3-3-2-6s1-4-2-7c-2-4-2-5-1-6 2-3 1-8-1-10s-2-3-1-4c2-2 2-2 5-1 4 1 5 1 5-2l2-5c1-2 1-2 3-1s2 1 3-1h6l5-1 1-1 2-2c0-2 1-3 4-3l5-3 5-2 2-4c1-4 2-4 4-4 3 0 3 0 3-6 0-4 0-5 2-5 6 0 7-1 8-8v-12c0-6 0-6 2-6 3 0 3 0 3-3 0-2-1-5-3-7-3-4-3-5-4-16 0-13-1-14-6-15-4-1-5-3-2-3 3-2 3-6-1-10-3-2-4-3-3-4v-5c-2-2-3-3-8-4l-9-2c-4 0-4 0-5-3l-3-3c-3 0-4-2-3-10 0-6 1-9 2-11l2-5c0-3-2-6-9-16l-9-12-7-1c-7-1-7-1-11 2-5 4-7 4-8 0 0-2-1-4-5-6l-4-4c0-3-2-6-5-6-2 0-2 0-2-5s0-6-4-9l-5-3-1-2c0-2-4-3-10-3-4 0-5 0-8-5-2-3-4-5-6-5-3-1-3-1-3-4 1-2 0-4-6-9-5-5-8-7-11-8-4-1-4-1-4-5v-4l-7-2c-6-2-8-3-9-5l-5-7c-3-4-4-4-6-3l-2 4c0 3 0 3-5 3-5 1-6 0-11-3-5-4-6-5-6-8 0-2-1-3-3-5-3-2-4-4-1-7l1-2-1-5-1-3-2-5c-2-5-2-5 0-7l2-2-2-2c-1-2-2-3-1-5l1-3-8-5-7-4-4 4-5 4-4-5c-3-4-4-5-9-5-4-1-5-1-10 2l-7 3c-2 0-4-3-4-6l-1-5c-1-3-1-4 2-8l3-6-4-3c-3-3-4-4-7-4-4 0-5-1-8-4s-4-3-9-3l-6 1-5-5c-6-6-6-7-8-20 0-9-1-11-8-18-8-9-20-17-20-14z"/>
</svg>
