<svg xmlns="http://www.w3.org/2000/svg" viewBox="0 0 1024 1024">
  <path d="M671 113c-2 2-3 3-3 6s0 3-1 1c-2-1-2-1-7 2l-8 3c-5 0-6 1-9 6-2 3-4 5-6 5-4 2-10 8-14 15l-3 8-11 4-10 3-8-4-12-5c-4 0-5 0-13 5l-13 7-6 2-8-2c-6-2-11-5-18-10l-12-9c-3-2-5-2-18-3h-15v-6l-7 1c-5 0-7 0-10-2l-4-1-6 4c-5 4-7 5-8 4l-11-2c-5 0-14-3-21-5-12-5-13-5-18-4l-11 3c-5 2-5 3-5 5 0 3-1 4-7 8-9 6-9 6-15-2-3-5-4-7-4-10 0-4-1-5-5-9-8-8-10-9-14-8l-14 10-6 3-9 2c-7 3-10 2-15-3-2-3-6-5-12-7l-8-3-10 1-25 1c-13-1-16-1-24-4-12-4-25-4-30-1-6 4-20 11-25 12-4 1-7 2-10 5l-7 5-8 3c-5 2-6 3-13 2-8-1-14 0-15 2-1 3-5 7-8 8l-10 7-8 6-8-1c-8-1-9-1-9 5-1 4-2 5-9 10l-8 5-1 8c-3 17-3 19-7 20H9c-2 2-3 3-3 9l-1 17c0 7-1 12-3 19-2 9-2 10-1 22v25c0 11 0 13 2 18l5 7c3 4 7 13 9 25 2 7 4 16 6 19 2 5 4 12 5 21 3 19 3 27-1 35-3 5-6 14-5 14l4-3c4-2 4-2 6 0l1 5 2 9c3 7 3 10 0 10-2 1-2 2-2 5 0 4 0 4 2 3l6-3c5-3 12-3 15 0 4 5 7 11 7 15 1 4 1 5 7 7l11 2 9 2c6 2 19 11 22 15 1 3 9 7 13 7l5 3c1 2 6 5 10 7 6 3 8 3 14 3l9 1 3 7c1 6 3 8 9 9 4 1 6 0 8-5l3-4 51 2c12 0 13 0 17-2 6-4 9-5 14-2l4 3v9l2 14c1 4 2 5 5 7s5 2 9 2c5-1 5-1 6 2l2 4c2 2 2 2 1 3-2 3-1 4 10 9l9 4v25l-1 8-4 2c-3 1-6 3-8 6l-5 5-4 1c-2 1-2 1 0 4 1 3 1 3-2 5-3 3-3 4-3 9l-1 15-2 16-1 15c-3 10-2 16 1 24l7 16c5 13 5 13 8 10l4-5c1-2 2-3 5-3 6-1 10-1 14 1l9 3c5 2 6 2 7 5 0 4 2 5 8 5 6 1 6 2 3 5-5 4-4 5 2 8 4 3 7 4 10 4l5 1 4 2 5 5c2 5 3 5 7 7l10 1c7 0 8 1 13 8l9 12 6 6 5 21c5 20 5 21 4 23l-4 8-2 6 3 2c1 1 2 2 2 5v4l7 2c6 1 9 3 13 6 5 5 6 5 9 4 2 0 6-1 8-3 4-2 6-2 9-1 5 2 6 1 7-2s2-4 6-1c4 2 6 2 17-2 4-2 5-2 11 0l14 1c9 0 9 0 14-5 4-3 6-5 7-4l7 2c8 3 9 3 10 7 0 3 5 11 6 11l4-1c3-1 4-1 6 1l7 2c4 1 4 1 16-10 6-7 13-13 15-14l7-5c3-3 3-3 9-3l9-1c3-2 3-2 4 0l2 5c0 4 0 4 6 1l9-2c5 0 5 0 6-4l2-12c0-8 0-9-4-16l-4-8 3-1c2 0 3-2 4-5 2-4 3-4 6-4l11-3 8-3 6 4c6 6 5 5 11 4 4-1 6-3 14-12 9-10 12-15 13-25 1-3 1-4 4-4l8 2c4 1 5 1 13-1 7-1 8-2 10-4 4-7 8-11 11-11 2 0 7 4 14 14l4 5-4 4-4 3 2 3 2 2-2 1c-3 1-5 5-3 8l2 7 2 4h13c11 0 12 0 15-3l6-3 7-3c4-2 4-3 6-19v-10l-4-6-6-7c-2-1-3-3-4-6l-1-5-8 4c-8 5-13 5-18 3-3-1-3-1-3-7 0-7 0-8 7-21 6-11 7-14 7-17-1-4 1-17 3-21l6-5c7-3 12-10 12-17 0-6-2-12-6-17-4-4-4-11 0-18l3-6-2-6c-3-10-2-18 2-18l4-2c3-2 3-3 3-7l-2-12v-6l6-4c5-4 6-5 7-9 3-8 7-9 22-9l12-1 10-4 10-6 5-9c4-5 6-9 6-12a473 473 0 016-28c4-3 9-4 15-2l10 2c6 1 6 1 7-2 2-4 4-5 12-1 7 3 13 5 16 4 2 0 4-2 5-4 2-3 2-4 2-10-1-6 0-7 1-11 3-6 10-12 13-13l13-9 2-3-2-3c-3-4-6-5-13-5-6 0-8 0-10-2-3-3-9-3-15 0l-4 2-9-3c-8-2-12-4-12-6l4-9 6-14c2-7 4-13 7-15 2-2 2-2-1-8-3-9-3-14 3-19 5-4 6-8 6-25v-13h-3l-9-2c-4-1-9-2-11-4-3-2-6-3-11-3-7 0-7 0-14-5-10-8-22-26-22-32l-4-7c-3-4-6-6-12-10-7-4-10-6-13-11l-10-9c-10-6-29-20-34-26l-14-12c-8-7-12-12-12-17 0-4-4-5-12-4-6 0-6 0-11-3l-4-4-3 3-4 3-15-1-21-3c-3-2-8-3-15-3l-13-2c-5-1-9-5-10-9-2-8-7-18-11-22s-5-6-7-16c-3-11-12-34-14-35l-4 2z"/>
</svg>
