<svg xmlns="http://www.w3.org/2000/svg" viewBox="0 0 1024 1024">
  <path d="M404 3c-8 3-10 3-20 3-13 0-16 1-20 5-2 2-2 5 1 17 1 4 1 5-1 6-4 4-6 14-4 22s1 10-6 13c-4 2-8 2-16 3-20 2-21 2-30 10l-9 11c-2 4-8 35-8 41 0 4 0 5-4 7l-7 4c-2 0-6 3-9 6-4 4-5 7-6 11-1 6-1 9 5 17l4 7-5 11-7 14c-1 3-2 4-5 5l-12 8c-9 5-14 11-14 16s3 12 7 18c2 4 5 9 5 12 2 4 2 5 0 9s-7 8-10 8c-4 0-13 4-14 6l-3 7-3 7c-1 2-1 2-5-1-5-4-10-4-15-2-3 2-4 3-5 16-1 10-2 13-4 18l-3 17-2 13-5 2-14 13c-8 8-9 10-8 12 0 3 3 5 9 7 15 6 27 22 23 30-2 3-3 4-9 4-4 0-5 0-7 2-2 3-2 4-2 15 1 21 1 21-3 25-3 3-3 3-3 12l1 11 1 12 1 16c1 5 2 6 5 8 4 2 10 2 17-1 10-4 13-2 13 7 0 7 2 12 4 13l6 8 8 11c2 2 3 6 4 10 1 5 2 7 5 10l4 4v11l-1 28 10 1c7 0 10 0 14-2l5-1 7 3c7 4 8 4 10 10 3 7 4 14 2 21-1 4-3 6-7 8-2 2-5 12-5 20 0 4 1 5 4 9 2 3 4 4 8 5 5 1 20 9 21 11 2 6 4 36 2 42 0 1-3 4-9 7-13 8-14 9-16 20-1 7-1 9-3 10l-8 8-11 8c-6 3-6 3-5 7 0 3 1 4 7 8l12 6c5 2 5 3 5 5-1 4-1 4-6 5-4 0-5 1-7 4l-6 6c-3 2-5 3-7 8-3 6-3 7-10 11s-8 4-11 10c-4 10-4 14 4 24l12 15c14 19 16 21 24 24l17 4c9 2 10 2 14 1l22-1 18 1 4 3c4 2 6 3 10 3s5 0 10 5l5 4v17l1 24c1 7 2 8 5 9 4 2 4 2 9 1 8-3 13-3 16 0 1 2 2 2 6 2l9-3c6-4 8-4 11-1 2 3 6 4 9 2l5-8 5-7h9c8 0 9 0 13 3 3 1 6 5 8 8 3 4 4 5 6 5l6-1v-4c-2-6-1-16 3-20 1-2 2-2 7-2l6 1 2-6 2-7 3-5c2-3 4-3 16-6l13-4v-8l1-9c2-3 8-4 33-5 21-1 25-1 32-4 9-3 12-3 18 0l8 2 4 2 7 8c4 5 6 7 6 10l2 7 2 6c0 3 5 9 8 9l8 2c4 2 8 2 13 2h8l4 5 5 8c1 2 2 2 6 2 4-1 5-1 9 2 3 3 5 4 7 3 1 0 3 0 5 3 4 4 7 5 11 3 4-1 4-4 0-8-2-3-2-4-2-10 3-25 2-29-1-42l-5-19c-3-8-4-19-2-26 0-2 4-8 7-12 8-10 10-14 10-19 0-3-1-4-8-11s-8-8-8-12 3-8 7-9c6-1 7-2 7-7l-1-6c-2-1-2-5 1-12 1-3 2-4 7-5l9-3c5-1 8-3 12-9l7-10 4-8c2-8 6-17 9-21 5-7 8-14 9-21 0-7 0-7-3-9l-6-4c-6-1-5-10 2-15 3-1 10-8 17-14 11-11 18-16 25-21l10-12c9-12 11-16 8-22l-2-7c0-5 1-5 7-3 5 3 5 2 5-1l-4-8c-8-9-9-10-8-18 0-6 1-6 4-8l8-8c5-5 5-6 5-9l-3-5c-3-2-4-8-2-12l1-10c-1-8 0-10 5-12 9-4 13-13 10-23-1-5-2-5-6-4-2 0-3 1-3 3l-4 5c-4 4-7 3-10-1-3-6-9-9-15-9-4 0-5 0-5-3-1-2-3-3-8-4-2-1-3-1-6 3-1 2-4 5-7 6-4 2-6 2-13 2l-15-5-14-6c-4-1-6-2-10-7l-10-9c-5-3-6-5-9-14l-6-8c-6-5-8-6-14-6-4 0-6 1-11 4l-6 5c-1 4-4 5-10 4l-5-2-2-12-4-21c-4-11-4-11-12-13l-5-2-23-9c-6-1-7-1-12-7-20-21-25-29-26-42 0-8 0-9-5-14s-5-6-4-9l3-4c3-1 2-4-2-10l-4-7-1-4h-9c-10 0-14-1-20-7-3-3-4-5-4-7 0-3-1-4-4-8-4-4-5-5-7-12v-9c2-2-3-10-8-13l-7-2c-2 0-5-3-10-10-3-3-2-7 1-7 2 0 9-7 9-9l-2-2-3-3c-1-1-1-6 1-9l1-3-5-8c-7-8-9-13-9-19l-1-10c-2-5-2-7 0-11 3-8 0-13-6-10-4 2-4 2-5 0-2-2-2-1 0-9 0-4 3-9 5-13 2-5 3-7 2-8-1-2-1-3 1-7l2-9c0-4 1-6 3-8 3-4 5-12 5-27 0-14 0-14-11-22l-7-5 3-5c3-5 3-5 3-14-1-13-3-17-9-21-4-3-5-3-16-4h-12l-2 2-3 7c-1 6-4 7-16 7-10 0-10 0-16-4l-6-4-2-10c-1-6-1-10-3-11-2-3-8-2-17 1z"/>
</svg>
