<svg xmlns="http://www.w3.org/2000/svg" viewBox="0 0 1024 1024">
  <path d="M597 211c-1 1 0 2 2 5 4 4 4 11 1 15l-2 2-3-5-4-9c-1-9-6-11-16-7-4 1-4 2-7 9l-2 8h-7c-6 0-8 0-13 3-4 3-6 3-8 2h-6c-4 0-5 1-8 6-4 4-4 5-7 4-2-1-3-1-5 1l-2 2-3-2-3-3-8 4c-7 3-8 4-8 8-2 6-3 8-7 7l-5-1c-3 0-3 0-3 6-2 22-1 41 3 56v9c-2 4-3 12-1 18l2 13 3 14 1 16 1 14 2 7c0 7-5 15-19 29-12 12-21 19-32 24l-7 6c-1 6-6 9-20 14-13 4-30 7-36 6-4-1-5-2-9-8-5-8-9-11-18-12-6-1-11-4-15-8-3-3-4-5-6-15l-4-16-3-13-4-14-3-11c0-4 0-4-5-5l-12-7c-6-4-8-6-16-16-5-9-10-14-13-16-9-7-19-17-22-22l-5-10v-14l2-11v-3l-6 1c-7 0-17 4-28 10l-19 10-20 10-10 5h-10c-11 0-12 0-21 4l-10 4-1 7c-4 12-11 25-17 29l-8 12-10 17-5 6-1 23v23c1 1 0 7-2 13l-3 11-8 8-10 10-14 13c-7 5-13 10-13 12-2 1-2 5-2 15 0 18-3 36-8 45l-4 7v16c0 14 0 16-3 24-2 7-2 8-2 19v15c-3 6-2 10 2 24a165 165 0 016 28l7-1 10-2c3 0 8-4 9-10 1-3 1-4-1-6l-3-2 5-2c4-1 7-4 9-7 4-4 6-6 12-9l8-5 4-5c3-4 5-5 7-5 3 0 4-1 7-3 4-5 6-5 15-4l6 1 5-4c9-6 11-7 20-7h9l3-4c6-8 6-8 17-8 9-1 10 0 14 2 5 3 11 4 25 4l15 1h10l6 5c6 5 13 8 16 6h22c1 1 3 0 6-6l4-8h4l4-1 1 8c2 10 6 16 11 17 3 1 3 1 9-2 3-2 7-5 7-7 2-2 2-3 13-4l10-1 6 3c13 8 19 9 29 4 6-3 8-4 14-4 8 0 9 1 8 5 0 3 1 5 3 3s10-1 13 0l8 2c4 0 6 1 10 3l5 3 3 3 6 6 3 2 5-1 10-4 8-4c2-1 2-1 5 1 2 2 4 3 7 3l5 2 3 2 4-2c2-1 5-3 8-3 5-1 10-5 10-9l2-3c2-1 3-2 3-7 1-5 1-5 7-7 2 0 4-1 5-3s3-3 7-3l7-3 5-1c2 0 3-2 3-5 0-2 0-2 3 0 2 1 4 3 5 7l4 8 2 10c1 6 2 7 6 11 5 5 8 12 9 20 1 3 2 4 7 6 8 4 10 4 11 2 2-4 3-4 5-3l7 6c5 4 5 4 10 3 4 0 7 0 13 2l7 1 3-2 3-3 4 3c4 4 7 5 12 3l4-2 1 6c1 8 3 11 10 14 4 1 8 5 14 10 6 7 11 10 18 13l10 7c4 9 9 13 17 18 9 5 9 5 10 10l5 12c2 4 4 6 7 8 5 2 8 5 10 9 1 3 1 3 5 3 4-1 8 0 13 4l7 3c4 0 5 0 13-4l8-4 3 1 6 4c2 1 3 1 6-2l7-6c3-2 3-4 4-8 1-5 2-6 8-13 7-7 8-8 11-8 5 0 8-2 12-5 4-5 7-4 18 6l9 8 7-5 6-4 5 3c5 2 7 3 17 3h11l1-4 2-11c0-8 4-24 6-29 3-4 5-5 12-6 5 0 5 0 5-3l3-6c3-4 3-4 1-5-3-3-3-4 0-4l4-2 4-3 7-7c6-9 6-9 11-11l4-3 3-1 3-3 3-3c6-2 8-5 9-11v-7c-2-1-2-2 2-8l3-6-5-12c-6-12-8-18-5-23 1-3 1-3-3-8-3-3-5-7-5-9l-4-5c-3-4-3-5 0-9l3-5c0-3-5-6-10-6-4 0-4 0-7-4l-3-9-2-8c-2-5-7-11-10-13-4-3-4-5 1-14l3-11c-1-2-1-2-4-2-2 0-4-1-8-5-2-2-6-6-7-9l-5-5c-2-1-6-11-6-14 1-4 0-7-2-7s-4-4-3-6l2-6c1-4 1-4-1-9-3-4-3-5-1-6v-2c-1-2 0-2 5-5l6-3 1-8 3-17 2-8-2-5c-2-4-2-5-6-6-4 0-5-1-7-5s-3-5-8-7l-11-7c-3-3-6-5-17-8-2 0-1-6 1-12 4-9 4-12 0-14-2-2-3-2-8-1l-10 2-8 1c-2 0-4 0-7-2l-12-4c-9-1-11-1-15-4-1-2-4-3-6-3l-5-3c-2-3-2-3-5-1-4 1-9 0-9-4-1-4-3-3-8 4-3 6-5 7-11 7-4 0-6 1-11 5-5 3-7 5-7 8-1 2-2 3-4 3l-3-2c-1-2-1-2-3 0l-3 4c-1 3-6 0-8-6l-3-6-8-2-10-3-7-4-4-5-5-10-8-14-6-6-8-2-8-2 1-7 2-8v-10l-1-2-3 3c-9 6-27 0-29-10-1-4-7-5-11-3-3 2-3 2-10-2l-8-8c-1-2-2-3-8-5-8-2-8-2-10-6-1-3-4-6-7-9l-8-7c-4-3-8-4-10-1z"/>
</svg>
