<svg xmlns="http://www.w3.org/2000/svg" viewBox="0 0 1024 1024">
  <path d="M160 64l-5 1c-6 0-9 4-9 9l-2 9c-2 7-2 12 1 15 5 4 5 10-2 12l-8 5-14 8c-8 4-12 6-16 10-3 4-7 6-8 6-2 0-6 3-8 9-2 4-3 5-9 7-11 4-14 6-15 10-3 7-2 15 2 26l4 10-1 9c-1 7-1 9-4 12l-7 9c-5 7-9 11-15 12l-15 4c-10 3-12 5-16 8l-4 4 3 10 8 19c5 10 14 36 16 47 2 7 2 8 0 35l-3 27 3 8 3 14c1 5 1 6-1 9l-2 7c0 3-1 4-3 6-3 2-3 4-4 8 0 7 3 25 6 29 2 3 2 4 1 11-2 13-2 13-9 19-7 4-8 5-12 5h-5l-5 8-5 9 20 29 20 30v8c0 11 1 15 5 20 2 3 3 4 3 8v5l7 4 7 3 6-2c8-3 8-3 8-1 1 2 9 3 12 2h7c5 1 6 2 9 7l5 5 18 4c17 2 17 2 18 5 1 2 0 4-3 9l-4 7 14 17 14 19 53 12 54 13a375 375 0 0142 30c1 1 23-9 59-26l57-28 262 125a47095 47095 0 00265 123l-1-12v-9l67-2-17-318-17-317-8-10-8-10 1-6v-9l-4-14c-5-12-5-12-4-19 1-5 2-8 9-19l7-12-4-7c-5-7-5-9-8-24l-3-16 8-8c5-4 9-9 9-10 1-2-3-6-7-8l-2-4c-1-3-1-3-6-4l-10-2c-4-2-5-2-10-1l-17 2-12-1-3-2-9-3c-7-2-10-2-24-3-14 0-16-1-17-2l-5-2c-4 0-5-1-6-5s-1-4 2-4c1 1 2 1 2-1l-2-3-1-5c0-4-1-4-11-6-8-1-28-8-30-9l-9-2c-7 0-8 0-10-2s-2-2-5-1l-16 1-12 1-5 4c-6 5-9 6-18 7l-12 2c-7 2-25 12-32 19l-11 8c-3 1-5 3-9 8l-8 12c-5 6-7 12-8 20 0 6 0 7 3 14l4 9 4 7 5 4v7c0 10-3 19-12 31s-16 20-22 22l-15 6c-8 3-11 4-13 3l-9-2-9-3-7-4-8-4c-2-3-7-6-10-8l-9-7c-5-5-15-10-18-10s-7-3-7-5l-3-1c-5 0-15-3-20-6l-8-2c-5 0-15-3-19-5-3-2-12-4-36-5l-24-3c-5-1-18-7-28-14l-7-4-5-14c-5-13-5-14-6-24-1-15-2-17-9-19l-10-1c-6 0-16-1-22-4l-8-1c-3 0-13-7-17-12-2-2-3-3-8-3l-9-3-20-3c-4 0-7-1-11-3-8-5-11-5-27-1-10 3-13 4-24 3h-12l-21-10c-20-11-23-12-26-11z"/>
</svg>
