<svg xmlns="http://www.w3.org/2000/svg" viewBox="0 0 1024 1024">
  <path d="M659 111l-7 4c-4 4-8 6-13 6l-6 1-9 2h-6l-1 7c-2 10-5 19-11 33l-6 18c0 3-2 9-5 14l-6 18c-3 10-3 12-12 28l-18 31c-13 24-20 33-30 38l-8 5-9 5c-4 1-8 4-10 6l-7 4-7 3-6 3c-3 0-6 1-11 5l-8 5-13 5-16 6c-3 0-7 3-12 6-4 4-8 6-9 6-3 0-9 6-12 12-1 3-5 7-8 10l-12 14c-8 9-15 16-26 25l-8 6v21c1 2 0 15-2 18l-4 7-8 11a159 159 0 00-24 34l-3 7-5 9c-2 4-3 6-2 10l-2 12c-1 7-1 13 1 34 0 6 0 7-3 12l-3 9c0 3 1 4 4 4 2 0 4 2 8 6 5 6 10 15 10 18l-3 12c-2 19-12 38-23 45-5 4-13 15-15 22-1 5-8 14-17 24l-13 15c-10 13-13 15-31 23l-22 12c-8 5-25 23-30 30-6 9-11 12-35 22-13 6-25 9-40 11l-18 4-18 2c-9 0-18 1-24 4-3 1-5 2-7 7-3 5-8 10-13 13-3 1-5 4-5 5l27 1 88 4c63 3 273 9 274 8a391 391 0 001-96c0-2 1-4 8-8l16-13a169 169 0 0137-25 654 654 0 0019-15l7-5c4-3 6-3 12-4h8l5-7c3-4 8-8 14-12l9-6 7 2 12 3 15 3 9 2 4-3c3-4 6-13 6-20v-5l3 1c3 2 17 2 22 0 2-2 4-2 8-1 4 0 8 0 15-2 5-2 14-3 21-4l12-3 10-7c6-3 9-7 14-12 11-14 19-25 21-32l3-6 12-5 15-7c4-2 5-2 9-1h6l5-5c3-4 6-6 11-7 5-2 6-3 10-9l5-7 16-4c15-3 17-3 19-6 3-3 3-3 2-7 0-4-1-5-3-5l-6-4-3-3-3 3-4 2v-2c0-1 0-3 2-4v-7l-1-5 3-3 3-4-4-3-4-2v-10c0-11 0-12 4-15 2-2 3-2 8 0 9 2 16 1 21-1l20-8c7-1 13-4 16-8 3-2 3-3 2-9 0-6 0-6 3-9 2-3 4-4 8-4l20-5 16-3 19 1 49 1h30l-1-3-3-9c-2-5-2-7-2-11 1-7 2-9 7-9 3-1 5-2 7-5l3-5-15-11c-20-13-23-17-25-24l-1-10c1-6 1-6-2-10l-5-8-5-5c-3-2-4-12-1-20l2-9c0-4-5-13-8-14l-1-6-1-13 1-15c1-9 1-12-5-24l-4-9 3-6 2-4-6-6-7-6 3-5 3-8c1-2 1-3-6-5-6-3-9-5-12-11-1-2-4-3-8-4-6-2-6-3-8-7l-2-5-8-4-9-3-3 2c-1 2-4 3-7 4-5 1-6 1-16-2l-12-5-2-5a107 107 0 00-5-19l-4 6c-3 7-5 8-6 8-2 0-4 2-7 5l-5 4h-9l-18-4c-8-3-8-3-11-1-1 0-3 2-3 4-1 2-2 2-5 2-4 0-5 0-5-2s-1-2-3-2l-7 2-6 2-8 3c-7 3-14 3-27 0-14-3-18-5-21-8l-12-8c-9-6-25-21-27-25-4-10-5-20-3-24l2-3-6-3-4 1z"/>
</svg>
