<svg xmlns="http://www.w3.org/2000/svg" viewBox="0 0 1024 1024">
  <path d="M873 2l-3 7-2 5 5 5c2 2 6 6 7 9l3 4-2 6c-3 7-5 8-21 23l-17 16h-14l-14-1-7 7c-13 13-11 12-33 13h-20l-10 6-18 9c-7 3-8 3-19 3l-13-1a353 353 0 01-10 28l-7 2-6 1-9 22c-7 18-10 23-16 33l-8 11-1 21v21l-5 10-7 17-6 17c-4 9-5 11-10 16l-14 13-9 6-7 13c-6 13-6 13-23 31-16 16-18 18-21 18-4 1-5 2-10 10l-7 9-20-13-19-12-10 6-13 7c-2 1-7 5-11 10-9 8-9 10-6 16l1 4-9 9c-12 13-21 19-28 20h-6l-57 50-104 91-47 40v4l3 14 3 9-5 4c-5 4-5 5-5 10s1 7 5 16l6 10-2 6c-2 3-2 9-3 23-1 15-2 19-3 20l-11 2c-6 0-9 1-11 2-2 2-7 3-14 4l-11 2-9 7c-9 7-10 9-29 34l-19 28 42 29c42 28 43 29 125 94l83 66 4-3 35-33 32-31 42-25a673 673 0 0041-30c-1-1-5 1-21 9l-21 11-16-21c-7-9-7-10-7-16 0-5 0-6 2-7s2-2 2-3c-1-2-3-2-31-1h-30l-1-7c-2-8-3-8-13-8h-6v-34l4-1 8-2c4-1 5-2 5-4l-17 1c-24 3-23 3-25-2l-2-4 14-12 15-12 7 5c5 4 7 5 7 8l1 3 3-3 2-3 5 3c5 2 5 3 10 14 3 10 5 13 8 15l4 3 6-4c9-6 16-8 20-8 4 1 4 2 6 8 0 4 6 13 11 18l6 2c6 1 14 4 14 5l-2 13-2 13 3-1c2-2 3-3 5-14l4-13h22l9-4 18-12c5-4 11-9 15-10l8-6 7-6 5-4 7 1c6 0 8 0 14-2 6-1 8-2 11-6 4-5 6-10 6-17 0-4 5-13 14-23l10-13 4-5-2-8c-1-7-1-7 1-14 3-10 3-13-1-20-3-5-5-6-7-7l-3-1-5-24a1102 1102 0 01-7-26h-3l5 22 4 23-19 5-21 4-2-3c-1-5-3-4-4 1 0 4 0 5-2 5s-2-1-2-4c0-4 0-4-3-4h-3v5l1 5h-7v-6l-1-5-3 1c-2 1-2 2-2 7 1 6 1 6-1 6l-13 3-2-8c-2-7-2-7 0-10l2-3-11 1 1 3 4 11 2 8h-2l-20 4-3-12c-1-11-2-12-4-12-3 0-3 0 0 13l2 12c-1 1-16 4-17 3l-8-15-7-16-6-12 5-2c5-2 6-4 6-14l1-7c1 0 2 2 2 11 1 7 1 7 4 7 2 0 3 0 3-2-2-5-4-16-3-17l6-1h6l1 7c1 10 2 11 4 10 1-1 1-4-2-22-4-26-4-25-7-25-3-1-3 1-1 12l2 7-5 1h-6l-3-9-2-9c-3-1-3 2-1 11l2 10-4 1h-3v-4l-1-7c0-2-5-5-11-6-4 0-4-1-5-4v-20c-1-18 0-22 5-26 2-3 4-3 68-11l66-7a433 433 0 018 45l3-1 3-1-4-23c-5-31-5-29 1-29a344 344 0 0040-19c3-2 5-2 9-2 4 1 5 1 7-2s4-4 10-6c8-2 14-7 14-12l2-6 4-9 3-12 1-9 2-10 2-9 2-14 6-28c4-19 6-24 13-34l8-16c4-9 11-20 21-30 6-5 7-6 10-15 3-7 3-10 3-18 0-9 0-9 3-13 2-4 5-6 9-7a26 26 0 0012-11l-3-1c-2-1-4 0-7 3-6 5-8 5-8 1 0-7 2-15 6-24 6-11 11-15 18-18s11-3 13 0c2 2 5 3 5 1l-2-4-2-5 11-9 12-10c2-2 20-7 25-7l2 1c2 2-2 9-5 11l-4 4c-1 2-1 2 1 2l6-1c4-1 4-2 6-7s3-7 6-8l4-3c1-2-2-4-3-2-3 2-6 1-8-3l-2-5 2-3 8-10c6-5 7-5 11-5h5l10 18 9 17 9 6c7 5 9 6 15 7l6 1 13-5 13-4v-4c1-4-10-73-13-84l-6-6-5-4V67c0-14 0-14 2-20 4-9 4-11 1-17-5-7-12-13-21-18a152 152 0 01-21-12l-3 2z"/>
</svg>
