<svg xmlns="http://www.w3.org/2000/svg" viewBox="0 0 1024 1024">
  <path d="M319 5l-17 8c-6 3-12 5-13 7l-3 3-1-3c-2-3-3-3-7-3-10 0-12 1-20 12l-8 10h-8l-8 1-14-7-15-7c-2 1-2 2-2 8v6h-4l-7 2c-3 2-3 2-10-2-4-2-10-5-14-9-7-6-8-7-8-5l-1 5c-1 4-1 4-6 4-6 0-6 2-3 6v3l-1 10v8l-6 1-6-1-4-8c-4-7-5-7-8-8h-3v5c0 5-2 8-6 8-3 0-3 0-3 7 0 6 0 7 2 7 1 0 3 1 3 3 2 2 3 3 5 0 2-1 2-1 4 1l2 2 2-3 1-3 2 2c2 3 3 3 9 3 9 0 10 0 12 5l4 4c2 0 10 8 10 10 0 5 3 6 6 3l3-2c2 0 2 1 2 3 0 4 1 4 6 7l5 4-5 2c-4 0-4 0-2 2l7 3c6 0 6 1 8 4l1 7c0 7 1 10 7 17 6 6 7 8 5 10-1 1 3 5 7 5 2 0 2 1 2 4l2 4 2 4 2 7 1 8c0 4 3 7 8 9 2 0 2 1 2 9v9l3 2c4 2 4 5 1 6-1 1-1 7 1 10l7 9c5 5 6 7 6 10s0 4-3 5l-3 2c-1 1 1 4 3 7l5 9 3 6c4 4 13 16 13 18 1 1 3 4 6 5 5 3 5 4 7 10 1 4 3 7 5 8 2 2 2 3 2 9 0 7 0 7 11 9 4 1 5 2 8 5 3 4 4 5 4 10l1 7 1 8c1 6 1 7 3 10l3 4 4 6c4 6 16 15 22 16l5 1c2 3 3 8 2 11-1 4 0 5 4 9 3 4 5 7 6 12l2 9c0 2 1 4 4 7s4 5 4 7 1 3 4 5c6 3 18 14 18 17l9 5 10 3c4 0 20 29 22 42 1 4 2 9 1 12-1 7 4 22 8 27 4 3 4 4 4 10s0 7 6 19c5 9 6 13 7 18l2 10c2 3 2 3 0 9l-2 11-2 13-3 7 3 4c6 6 8 15 4 18l-2 7-3 9c-7 9-8 14-6 19v9c-2 7-2 7-11 8l-3 6c0 4-2 7-2 7-2 1-1 2 1 8 2 8 3 19 1 26l-6 13c-5 9-6 10-5 13l1 10 3 14a897 897 0 012 51c0 6 0 7 5 17l5 11v19l-2 21c-1 3-2 3-6 3-3 0-5 1-8 3s-3 3-2 7c1 5 7 12 11 12 3 0 6 4 8 14 3 15 4 17 8 21 4 3 4 3 6 2l3-8c3-9 6-15 10-17s4-2 14-1c7 1 13 3 16 5 6 3 6 3 13 1 12-2 15-3 16-6v-8l-3-5c-2-1-1-3 1-3l5-3c3-3 3-3 2-5-2-1-2-4-2-10l-1-9c-2 0-6-5-6-8s5-12 7-13l5-1c4 0 5-1 6-8 1-9 2-10 11-10 7 0 8 0 11-3s3-4 3-9 0-5 2-5c3 0 15-8 16-10l-5-31c0-2 0-3 5-5a1119 1119 0 0147-18c3-2 2-7 0-17-4-12-4-15-2-15 5-2 17-21 17-28 0-3-1-4-10-14l-10-10v-5l1-7v-11l-5-33 8-10c8-9 16-14 23-16l14-6 14-6 5 2 3 2v18c0 18 0 19-2 22-3 5-4 13-2 13 3 2 6 1 11-4 3-4 6-5 8-6h4v-8c0-10 2-16 6-17 3-1 3-1 4 2l3 9c3 6 4 7 6 7 3 0 3 0 3-4s1-5 9-13l9-8 4 2c2 1 3 2 2 6-1 6 0 12 3 14l8 2h5l2 6c3 8 4 10 10 11l5 1 4-3c3-3 3-4 3-9v-6c-1-1 0-2 5-3 7-2 7-2 8-9v-5l12 12 12 11-2 7-2 6 4 2c7 3 10 3 16-4l5-5 21-1h21l4-5 3-7c0-1-3-3-10-4l-6-2-4-2-6-2c-5-1-6-5-3-8 3-2 2-4-2-7l-4-2-3 2-2 2-3-2c-1-2-4-3-6-4s-3-2-5-6l-2-6c0-2 7-7 12-8 6 0 6-1 3-15-3-10-3-10-1-15 2-3 2-7 2-16 0-11 0-14-3-26l-5-14c-2-2-5-1-5 1-1 1-2 0-3-4l-6-7c-4-3-5-3-12-3l-13-1c-5-2-6-2-9-9s-4-7-7-7c-5 0-11-2-16-6l-10-4h-4v-8c1-7 4-17 7-21 2-2 2-4 2-11v-8l-3-2c-6-2-10-2-13 2l-3 4c-2 0-10-12-10-13l13-6c7-1 9-9 5-20-3-6-4-14-2-17l3-2c4 0 5-3 5-8l-3-17c-6-6-10-7-15-7h-6l-1 7c-3 9-4 11-12 11h-6l-4-6c-4-5-4-6-4-14s0-8-3-10l-6-1c-4 0-4 0-5-4l-1-7-4-3-5-2c-2 0-4-3-4-6s-4-3-7 0l-5 2c-2 1-3 0-4-2l-2-7c0-4-1-5-5-11-5-5-6-6-6-12l-1-6 8-8c4-5 9-10 10-13 2-6 3-20 2-25l-2-7c0-4 1-5 3-8 3-3 7-9 7-11 0-3-3-5-9-7-5-1-5-1-5-5 0-3 1-5 7-12 9-12 9-13-1-17-6-2-8-4-9-12-1-7-3-11-8-16-3-4-3-4-9-4l-9 1c-2 0-2 1-1 6 0 6 0 7-2 8l-11 2-7 1-14-16c-13-16-13-16-14-22 0-4-1-7-3-8l-2-7c-2-9-2-9-7-10-2 0-6-1-8-3l-11-2c-6 0-7 0-10-3-4-3-13-5-20-5-4 1-7 2-15 8l-10 6v8c1 10 0 10-6 5l-3-4v-25h-3c-4 0-9 4-10 8-1 3-2 5-5 5-3 2-3 2-5-2-3-3-3-3-1-6l7-10c5-6 6-7 3-14-1-4-8-5-13-4l-6 2-7 3c-4 3-6 4-8 3-6-1-7-2-7-6 0-5-1-6-5-6-3-1-4-1-6 2-2 2-4 3-7 3h-4v-4c4-21 2-23-17-25h-10l-7-6-7-8c-1-4-5-9-11-12l-12-11-7-7h-5l-12 3-6 2-8-4-7-4V0l-8 4z"/>
</svg>
