<svg xmlns="http://www.w3.org/2000/svg" viewBox="0 0 1024 1024">
  <path d="M335 2l-4 1c-2 0-6 4-7 8s-3 6-6 6c-5 1-18 8-19 11-2 2-2 2 0 7l2 7c1 2 1 2 3 0l2-4 1-4h4c4 2 4 2 4 9v12c0 5 1 6 7 6 4 0 9 2 9 6l1 3 2-3c1-2 2-2 3 0l7 10c4 9 4 10 5 19a65 65 0 002 16c0 2 1 3 5 5 4 3 5 3 5 7l3 11c4 11 4 11-4 11l-10 2c-3 2-4 2-6 12l-4 14c-2 5-5 6-10 3-4-1-4-2-3-5 1-5-2-9-7-11-6-2-9-5-9-7l3-8c3-6 2-13-1-13-1 0-5-3-9-8l-8-7h-9l-17 3-7 4 1 4 2 5-43 23c-5 2-10 6-17 13l-10 10 5 6 6 7-11 9-10 8-3 10-2 12-2 7-2 4 2 24 3 33v9l-7 2c-6 2-9 2-26 2h-20l-6 6c-5 4-7 6-7 9l-4 7c-4 5-7 18-8 30-1 10-1 11 3 17l3 11 2 6c0 2 0 3-3 5-2 1-3 2-2 4 1 5-1 8-3 8-1 0-4 1-5 3-2 2-3 3-3 7l1 6c1 2 1 3-2 5-2 4-2 4-1 9v8c-1 3-1 4 1 8l2 7c0 5 3 10 7 13l4 4c0 2 4 6 6 6l4 2c2 3 9 6 15 6 5 0 5 0 5 2l-1 6c0 3-1 5-4 8l-3 7c0 3 3 11 5 11 1 0 6 6 6 10 1 3 1 3-2 3-4 0-17 8-18 11s1 10 6 17c5 5 5 10 2 11-2 1-7 0-7-1 0-2-7-5-10-5s-5 1-14 9l-9 8v5c1 6-1 17-4 22l-4 11-3 8 7 5c7 4 9 6 14 14 7 10 17 19 19 17s1-4-2-6l-5-5v-7c2-2 3-3 4-2l4 2c1 2 9 4 13 2 3-1 3-1 9 3l9 5 2 1c1 1 5 1 13-1 2-1 5-2 6-4l4-3 2-1 5-4c3-1 4-3 4-5l2-6 2-4-3-1-5-1c-2 0-5-2-5-4s7-7 9-7l3-3 3-2c2 0 2 1 2 6 0 8 1 10 8 12h9l9-3c5 0 7 1 5 5v27c2 5 2 7 1 7l-3-8c-4-13-11-21-22-23l-5-2h-4l-1 4-2 4v7l1 5 6 10c6 10 7 12 5 12l-2 4-1 3-4-2c-2-2-5-3-7-3-3 0-14-4-20-8-5-3-10-5-15-5l-6-2c-3-2-3-2-9-1-6 2-7 2-8 7-1 2-1 3 1 3s3 1 3 3l4 4c3 2 5 5 3 6l2 4 4 4c0 3 9 8 16 9 4 1 4 1 4-1 0-3 4-3 5 0 2 4 2 4 5 0 2-3 2-4 1-6v-3l7-1 6-1 1 4 3 6c4 3 5 9 1 7-3-1-4 0-3 4 0 3 0 4 3 4s4 1 5 4l2 4c1 1 0 2-1 2v5l5 6 3 5 2 1 5 4 5 6 6 7c4 4 6 4 7-1 0-5 1-5 3-2 2 4 4 4 5 1 1-4 3-4 6-3 2 2 4 2 9 1l8 1 6 1 7 3c2 3 5 12 5 19l2 7 2 4c0 3 8 11 14 13l6 4c0 2 2 3 3 3 3 0 4 3 4 6s1 4 5 8l8 7h5c3-2 3-2 3 1l1 5 1 4c2 2 2 2 4 1h15c3 0 4 0 5 2l2 5c0 2 2 4 4 6 5 3 8 10 7 13-1 2-2 3-4 3l-3 1c0 2 14 16 19 18 5 3 11 10 11 14l1 4c2 1 3 3 1 5v9l-1 8c1 4 1 5-1 6-3 1-1 7 4 11s5 5 1 6h-2l5 5c2 3 7 7 11 9a276 276 0 0123 13l16 4 15 4 12 12c13 13 16 14 16 6l1-9c2-4 2-4 0-7l-5-4c-10-4-12-8-4-11l6-3c1-2-2-6-6-9-5-3-5-4-4-9 1-4 2-4 5-5 9-1 12-2 12-4l-2-4c-2-2-2-2-1-6 1-3 1-7-1-20-2-10 0-29 4-36l2-4c0-2-15-8-17-6-1 1-3 0-13-9-6-5-8-6-11-6-2 0-3-1-4-4l-4-3-4-2-4-2-4-3-4-5-5-6c0-2-2-3-2-3-2 0-4-3-6-9l-3-4-2-6-3-7c-2-1-2-1 0-3l2-2-3-1-5-3-5-2-4-2c-2-2-6-3-9-1s-11 0-11-2l1-2c3-1 2-3 0-4l-4-5c-1-4-1-5 1-8v-6l-2-4c0-2-2-5-7-9-5-5-6-7-4-7 3-1 7 0 9 3 0 2 2 3 3 4l6 8c3 4 5 7 7 7s2 1 1 3c-1 5 3 4 7-2 4-5 7-6 6-2-1 1 0 2 1 2l3 5 2 5 2-4c2-3 2-4 6-4l5-2h6c1 1 4 2 5 1l3 1 5 1c3 0 6 1 10 4 5 3 6 3 11 2 6 0 10 1 13 4 2 2 3 2 3 0l3-6c4-6 4-6 2-6-1-1-3 0-5 2l-4 3v-3l-1-6c-1-2-1-3 1-5 1-1 1-1 3 1l1 3c-1 0 1 2 3 2 4 2 4 2 7 0l4-3 1-5 2-6c0-4 0-4 3-4 2 0 3-1 5-6 3-5 4-6 7-7 4-2 5-3 3-11v-7l3-6c1-5 8-12 13-13 6-1 13-10 18-25 2-4 3-6 7-8s5-4 5-6l2-4c2-1 3-3 3-5l7-12c5-8 6-9 6-13v-5l8-5 12-7c3-4 3-6 2-17 0-9 1-11 12-25l10-13 5-2c4-1 5-1 7-5l8-10c5-4 6-4 8-3 2 0 4 2 5 4 0 2 3 5 5 7 3 4 3 4 2 8s-1 4 4 13l6 11-5 3c-4 1-5 2-6 4l1 3v5c-2 6-1 15 2 24 4 11 4 12 8 14l6 6c3 4 4 6 11 9l8 3 6-5c4-5 5-5 9-5 3 0 4 0 6-3l2-3 4 2c4 3 4 3 5 1l2-4c0-4 1-6 3-6l6-3c3-3 3-3 7-2l15 2c15 1 15 2 17-13v-5l9-3c7-2 9-3 9-5 1-3 2-3 4-3 4 1 7-3 9-14 2-16 4-23 7-31l3-12 1-5-5-3-15-4c-13-1-16-2-24-7-9-6-13-11-12-16 1-7 5-14 15-24 12-11 13-12 29-12h9l9 5 8 6h19l19 1 1-3v-13c-2-5-2-10 0-15 2-3 3-4 11-7 6-1 11-4 14-6l4-3 7 2 8 2 3-3 11-3 9-2-1-6c-1-5-1-6-4-6s-6-5-6-11-1-7-10-16l-12-13c-4-5-5-6-12-9l-12-4-23-9c-19-8-20-8-25-7l-9 2c-3 2-4 2-10 0-7-2-12-6-15-11-3-3-3-4-2-12l1-10c1-1-2-6-3-8l-8-2c-9-2-17-8-19-14l-6-9-8-14c-4-10-7-14-12-14-3 0-4 1-9 7-4 6-5 7-10 8-13 2-11 3-14-3-6-12-10-16-29-24a176 176 0 00-61-18c-3-1-10-10-17-21-5-9-9-13-16-17-4-1-5-3-6-7l-11-19-13-19c-2-4-4-7-8-9l-9-8a199 199 0 00-24-23c-3 0-15-7-21-13-6-5-13-10-37-24-16-9-22-13-26-17l-5-6V36c1-10 1-11 3-14 3-3 4-5 2-6-2-2-15-4-25-5l-11-1-5 3c-6 4-10 6-15 6l-6 1-7 2c-4 1-5 2-7 5l-4 3c-2 0-2-1-2-6s0-6-3-10l-6-8-4-3-3-2h-5z"/>
</svg>
