<svg xmlns="http://www.w3.org/2000/svg" viewBox="0 0 1024 1024">
  <path d="M906 59c-11 1-16 3-22 9-4 4-5 4-11 4-9 0-20-2-22-3-1-2-3-2-13-1-17 2-26 7-28 15l-3 7c-4 6-4 9 3 24l6 14-5 4c-4 3-6 3-9 3l-8-2c-4 0-5-1-6-4-3-6-8-8-19-10-10-2-11-3-22-10-12-7-13-7-18-7-8 0-15 3-16 5-1 3 0 8 1 19 1 9 1 11-1 18v20c-2 4-4 12-4 17 0 7-3 19-7 23l-4 7c-3 10-17 26-28 31-6 3-6 3-20 3-13 0-14 0-26-4-11-4-12-5-20-12-10-9-12-9-19-2-3 4-6 6-7 6-3 0-4 2-4 7 0 6-1 8-6 9-5 2-5 0-7 20l-2 13c-2 2-10 6-15 7-3 0-11 6-11 9 0 1-7 6-9 6l-5 2c-2 1-3 2-5 9-3 7-4 9-7 12l-12 10-7 7v6c0 5 1 7 5 15l6 11 6 11c6 7 6 8 6 14 0 8-2 14-8 23l-7 12-10 14c-7 8-9 13-7 19 2 7 0 10-7 15-3 1-9 6-12 10l-14 12c-8 5-9 6-17 6-7 1-9 1-15 5-5 2-10 6-13 10-5 5-7 6-15 9-13 5-20 6-31 2-11-3-21-8-25-12-3-4-11-8-21-11-4-1-9-4-20-11-13-10-14-11-19-20-8-13-8-15-2-21l7-6c3 0 8-5 10-9 1-2 1-2-2-4-4-4-7-8-7-11 0-2 1-4 3-5 5-3 13-18 11-19-4-3-7-4-12-4s-6 0-13 13c-5 10-12 15-20 17s-10 3-20 17c-9 11-13 14-22 17l-9 3-9-2-15-4c-7-1-11-4-37-23a82 82 0 00-44-18c-16-1-34 2-46 9-4 2-4 2-4 9l1 9c2 3 2 4-1 7-4 8-14 18-20 23a39 39 0 00-19 30c0 2 4 3 19 9 39 17 57 26 69 37 6 5 8 7 9 11v11c-2 7-1 10 5 13l7 6 9 10 8 7h6c5 1 10 2 18 6 18 8 28 15 35 23l7 8-2 2c-2 2-2 2-1 7 4 11 8 18 13 24 5 5 6 5 12 6 7 1 7 1 16 12 3 4 4 4 11 5 10 1 11 2 13 7 2 3 3 4 6 4s4 0 7-5l6-12c4-11 11-14 38-15 14-1 15-1 26 2 16 4 38 14 55 24 12 9 13 9 18 18 5 7 6 10 7 17v12c-1 4-2 4-8 7-5 2-6 3-8 6-2 4-2 5-1 7 2 5 10 13 15 14 7 2 11 4 13 9l6 8c3 3 4 4 7 4l7-2c6-3 13-4 21-3 10 1 24 5 34 10 6 3 7 3 10 9l3 10c0 7 8 8 17 3 12-8 18-6 34 12 5 7 8 9 12 11 6 3 7 3 12 0 5-2 11-8 14-13 2-3 2-3 12-3 12 0 20 2 26 7 4 2 5 4 7 9 3 6 3 9 3 18v11l3 3 4 3 3-2 4-2 1-7c1-6 0-11-2-24l-3-18 8-5c8-4 9-5 12-11 5-10 22-13 44-9 17 3 28 8 39 16l9 6v7l-1 13c-2 5-2 5 1 12l8 18 5 11-6 12c-7 13-8 19-7 31 2 15 5 19 12 16l7-2c5 0 9-3 13-8l6-7c3-2 9-12 13-22l4-8 10-4c10-3 12-4 16-10 3-5 4-6 13-8 3-1 4-2 5-5l1-7 2-6c3-4 14-13 19-15 3-1 4-2 6-5 1-4 1-4-1-12l-6-13c-3-7-2-11 2-14 2 0 5-3 8-5l8-6c3-1 5-3 6-5s3-4 7-6l6-3 1-7c1-7 1-8 5-11 5-5 4-8-2-10-7-3-11-6-11-9-2-6-1-12 2-19 2-3 3-10 4-14 1-6 2-9 6-14 2-4 5-7 6-7l8-2c7-1 9-3 13-11 2-4 5-7 8-9l6-6 3-4-2-5c-2-2-4-9-5-14-2-8-3-11-2-17 1-13 1-15 8-20 7-4 9-7 9-12 0-6-4-7-13-3l-7 3c-1 0-6-7-10-15l-4-7 4-3 3-3 6 1c5 1 6 2 11 6 4 4 6 6 8 6 7 0 11 4 11 11 0 2 0 2 6 2 6-1 7-1 10-5l4-4v-9c0-9 0-10-3-15l-6-12c-3-8-2-15 3-29 3-10 3-12 3-16-1-6-7-17-9-16l-8 1c-9 1-11 2-15 8-3 4-4 5-8 6s-4 1-11-3l-10-3c-5 0-11-3-14-6-1-2-4-4-9-5l-11-5c-5-2-28-9-32-9-2 0-4 1-8 5-5 5-6 6-10 6l-7-1c-2-1-2-1-2-5 1-6 5-13 9-16 3-2 4-3 4-6 0-4 6-10 13-11 4 0 7-2 12-5l12-5c7-1 8-2 8-6 1-5 6-13 12-18 3-4 6-5 11-6l7-2c2 0 0 12-3 23l-4 11 2 12 6 21 3 10 8 6c6 4 8 5 11 5s4 0 5-3c1-2 0-3-7-10l-8-8-3-11-4-18c-1-6-1-7 3-14 5-10 6-11 10-12 5-3 11-2 17 0h6l3-8c4-10 9-19 15-26 6-6 7-7 6-10 0-2-1-3-4-4l-36-17-10-11-12-12c-7-6-16-18-20-29-3-8-3-9-4-29-1-19-1-22-3-25l-3-9c-1-10-2-14-6-18l-8-11c-4-6-4-7-4-11l3-10 2-6 7-1 12-2c4 0 14 4 16 6 2 3 10 3 16-1 5-3 6-4 8-9l2-9c1-5 0-7-9-16-5-5-5-6-6-14l-3-16c-2-5-2-10-2-23 0-15 0-16-2-18l-33-24-11 1z"/>
  <path d="M994 187c-12 2-14 5-14 15 0 8 1 10 5 13 5 3 8 3 11-2 3-2 3-2 24-4 4 0 4-2 1-9-3-6-3-7-10-11s-8-4-17-2z"/>
  <path d="M1016 328l-2 9c0 5 0 5 3 6 4 1 6-3 7-11l-1-7-3-1c-2 0-2 1-4 4z"/>
</svg>
