<svg xmlns="http://www.w3.org/2000/svg" viewBox="0 0 1024 1024">
  <path d="M681 3l-5 5c-3 3-4 4-1 4s5 3 3 5l-1 4-2 2-3 1-2 2c-3 0-7 4-7 7l-1 5-2 2-3-2c-3-4-8-5-10-3v2l2 2c0 2 5 7 7 7v4l1 4 1 4 2 5c2 3 1 9-4 18-2 5-3 8-3 13l-2 7-1 3c0 4-2 6-8 7-8 2-10 1-12-5l-2-6v5l2 9c2 4 1 5-1 4h-3l-4 2h-2l-1-1-2 9c0 8 0 9-3 11-2 2-2 2-4 1l-3-8c-1-3-3-7-5-8l-4-5h-2c-2 2-3 2-3 0l-1-1-1 1-3 4c-2 2-2 4-2 6l-1 6v8c2 6 3 7 7 7 3 0 2 2 0 4-3 1-3 3 1 5 3 1 4 4 2 9l-1 5-1 3c-1 2-1 2-1-1l1-6c3-4 2-5-1-6-4-1-5-1-3 2 2 1 2 3 1 4 0 3-1 3-4 3l-6-1c-1 0-2 1-2 3l-4 7c-1 2-2 4-1 6v5c1 6 1 6 4 6h9c2-1 2-1 5 2s5 7 3 7l-2-3c-1-3-3-3-3 0l-1 2-1-1-8-6-12 15-4 7-1 5c0 2-1 3-2 3l-2 3c0 1-1 3-3 3l-3 2v-5c0-4 1-7 3-10 2-4 3-6 2-10-1-8-2-8-7-4-8 7-10 13-4 11l2 1-4 2c-3 1-4 2-6 6l-6 8c-3 3-6 5-6 7-1 2 1 7 3 7l3 5 4 5c3 2 2 3-1 3l-8 2-5 2-2 2-1 2c-1 0 1-7 3-10l3-5c2-3 2-3-2-5-2-1-3-2-3-4 0-3-2-3-5-2-3 2-14 10-20 17l-9 6c-7 3-11 8-11 14l-2 7c-1 2-1 4 2 4l4 2c2 3 3 5 1 3s-4-1-4 1-4 2-5 0l-3-5-1-4 1-4c0-2-1-3-4-4-4 0-7 1-11 4-2 3-3 6-1 5l2 1c0 3-6 1-6-2-1-3-4-4-8-2-3 2-11 2-12 0 0-2-2-1-2 0l-2 3c-1 2-2 3-1 6l-1 4v4l-1 2c-2 0-2-1-2-3v-3h-5c-9 2-10 2-10 4l1 2c2 0 1 2-3 4s-5 2-4-1c1-2 0-9-2-10s-9 3-12 8l-7 7-3 2-2 1-3 2h-3l-12-1-12-1c-3-1-3 0-5 6l-2 6 3 4c4 4 4 5 1 10-2 3-2 4-1 8 1 5 1 5-3 7l-3 5-1 2-3 5c0 2-2 4-3 5-3 4-9 13-9 15l-2 3-2 2-4 8-6 12c-1 5-1 5 1 9l4 7c2 4 3 6 0 14-1 5-1 5 1 15l2 15c0 8 2 15 6 18l3 4 3 10c3 6 4 9 3 10l-2 9c-1 6-1 6 2 11l5 8 2 3 4 8c6 8 6 11 3 19-4 9-5 13-3 14 2 2 6 8 6 10l-1 3-2 4-4 5-8 13-6 10-5 5c-2 3-3 5-3 8 0 4-4 12-7 12s-9 10-10 17c-1 10-3 16-5 19-1 2-3 3-9 3l-10 2c-3 2-4 3-5 7v16c2 4 2 5 0 5l-5 5c-3 4-3 5-3 9v4l-1-2h-2l-1 3-2 4c-3 4-2 16 1 16l2 1c1 2 0 2-2 2-3 0-3 0-3 4v5l4 13 2 13c3 11 5 14 16 26 4 5 5 6 5 11v8c0 2 1 3 5 8 5 5 6 5 5 8v3c1 2 0 3-3 3-4 0-5 3-3 22l1 17v20l11 11c9 9 10 11 9 13-2 3-1 5 2 11l5 9 1 4 3 2c0 2 2 3 4 3s5 1 7 3l5 3 2 4v4l10 1 19 4c9 2 10 3 12 6 1 2 3 4 9 7 5 2 7 3 7 5s0 2 3 2l13-2c12 0 17-2 23-7 5-5 29-17 34-18l16-4c9-2 10-2 15-1 5 2 5 2 9 0l9-6c4-4 5-4 7-3s2 1 5-1c1-2 3-4 5-4 2-1 2-1 2-3l2-2 1-3 2-6c2-1 3-5 3-7l3-9 4-13 3-10c3-3 8-16 8-16-1-1-1-2 1-3 3-3 8-15 9-23 2-12 3-15 7-26l5-15 1-9c3-4 5-15 7-32l3-13 6-18 6-14a138 138 0 0010-26l3-10 4-11 3-9 3-13c2-6 2-7 1-8v-2c2-1 5-10 11-32l7-22c4-8 10-23 10-27l2-11 5-17 5-11c3-12 5-19 8-25 4-9 8-18 11-29l5-13c2-2 3-7 4-12l3-10c1-1 2-2 1-3-1-2 0-14 4-23 2-7 2-8 1-14l-1-9c0-2-1-3-2-3l-1-3-1-4c-2-1-1-5 2-12l4-9 3-8c3-8 5-9 14-10 7 0 8-2 2-5-4-3-4-6-1-8l2-2 2-5c3-4 5-14 3-14s-2-8 0-12c1-5 1-6-4-9l-5-3c-2-3-3-11 0-14v-2l-1-2-3-8-3-8v-4c-1-1 0-3 2-6 3-5 3-5 9-6h7v7c0 5 0 5 2 6 3 1 3 1 2 4 0 3 0 4 2 6l3 6c0 3 1 4 3 6l5 4c3 3 7 3 9-2l2-4 4-8 5-10c5-11 7-21 6-28 0-5-4-13-7-16l-3-4-2-6c-4-6-6-14-5-15l-2-6c-3-4-3-8-2-21l-1-7-2-9a155 155 0 00-5-40l-3-10-3-9-2-3-1-5c-2-3-2-6-2-9 1-4 0-6-1-10l-4-4-1-2c0-2-6-12-8-13-1-1-2 0-3 1-2 4-4 4-4-1l-2-6c-3-3-5-11-3-10v-6l-2-4c0-3-1-3-4-3-4 0-4 0-5-5-2-5-5-7-5-3 0 2-2 4-3 2h-7l2-1c3 0 4-2 2-4-2-1-3-4-1-4l2 1c1 2 2 2 2 1h3l2 2v-3l-1-5-1-3-2-3c0-2-3-6-5-6l-3 3zm-1 6c1 2-1 2-2 0V8l2 1zM336 994c1 2 1 2-1 2l-2-2v-2l3 2z"/>
  <path d="M613 97c0 2 0 2-3 2-3-1-3-1-3 3 0 5 3 8 8 8h4v-4c-2-11-2-12-4-12s-2 1-2 3z"/>
  <path d="M617 114l2 2c2 1 2 1 2-1l-1-2h-1l-2 1z"/>
  <path d="M735 363l-2 6-2 3c-2 1-3 4-3 5l-1 4c-2 1-4 8-3 9 2 1 15-26 15-30s-2-3-4 3z"/>
</svg>
