<svg xmlns="http://www.w3.org/2000/svg" viewBox="0 0 1024 1024">
  <path d="M714 115c-10 5-11 5-11 8 0 4-4 7-10 7s-6 0-12 6c-6 5-6 5-9 4-4-1-5 0-6 3-1 2-2 2-7 1-5 0-7 0-13 3-7 2-8 3-13 2-4-1-6-1-8 1l-3 1-7-6c-5-6-7-7-11-7l-10-5c-6-4-7-5-10-4-2 1-2 1-3 8v7l-4 3c-5 2-7 2-7 1 0-2-4-3-11-3-3 0-4 0-4-2-1-3-7-5-9-4l-3 4-3 7c-2 4-2 4-7 4-4 0-5 0-5 2l-4 5c-4 3-5 5-5 8 0 6-1 7-6 5-6-2-11-1-14 1l-3 4-3 4-2 3-5-3-8-3-7-2-6-1-4-2-3-1-5-2c-3-2-4-1-9 1-3 2-4 3-7 2-2-1-3 0-4 1l-6 1c-3 0-4 0-4-2 0-4-5-8-14-10-6-3-8-3-10-2l-6 1c-2 0-2 0-2 3l-2 6c-1 2-1 2 2 6l2 5-12-4-8-1c-3 1-4 2-7 7l-5 6-3 4c-2 4-2 5-5 4h-3v5c1 4 1 5-3 10-3 4-4 6-3 7 1 2 0 4-5 10l-5 8 1 5c2 4 2 4 0 7l-3 2-4 2c-1 2-2 2-10 2-12-1-13-1-13-11-1-8-1-8-10-23l-9-17-9-5c-9-3-9-3-13-1-2 1-5 2-6 4l-8 4c-6 2-6 3-8 7-2 6-7 9-24 16-11 4-14 5-16 4-3-1-4 0-7 2l-5 2-1 2-4 7-4 5-11 1c-9 2-11 2-14 5-2 2-4 3-11 5-7 1-8 2-9 4 0 1-2 4-5 6-4 4-4 5-4 8s-1 4-3 7l-3 3v12c1 11 1 11 3 13l4 6c1 3 0 9-2 10s-1 2 2 6c3 3 3 4 3 7l-3 5-1 2c0 3-1 4-5 7-2 1-3 4-5 8-3 6-3 7-12 9l-6 2c-1 1-2 0-3-3l-2-4h-6c-5 1-6 2-9 6l-5 5c-1 0-3-2-5-6l-3-5h-5l-8 1c-2 0-3 1-6 4-3 4-3 5-2 14 0 9 0 12 3 18l3 7-2 3-5 3-7 2c-3 2-3 2-3 7l-3 9c-3 3-4 7-5 10-1 6-1 6 1 10 3 4 3 5 3 13l-1 11c-2 2-2 2 0 7l2 7c0 2 1 4 3 5 2 2 3 5 5 15l2 6c0 2-1 4-8 9-5 4-9 6-11 6l-5 1-6 2c-4 0-5 0-5 2v6c2 5 1 6-3 8-2 2-3 2-3 5 0 2 1 3 3 3s3 2 4 4 2 3 4 3c5 1 10 10 10 16l2 6 1 5c0 3 3 7 6 7l7 6c6 7 7 10 4 14l-2 6c0 5-3 11-6 14l-3 5-2 4c-2 1-3 1-5-1-3-4-5-3-7 1-1 3 0 4 2 7 3 2 3 3 3 9l2 11v9c-1 5-1 5 2 8 2 3 2 3 1 9l-1 6 3 3c3 3 3 4 3 9v6l5 2c4 2 6 3 6 5l4 7 4 7 3 9 3 6-2 5c-2 5-2 6 2 11 3 4 5 4 12 6l8 2 1-6c-1-6-1-7 2-11 5-10 6-13 6-16s0-4 4-6c3-2 4-2 13-2l13 2c3 2 14 18 15 22 0 3 4 5 8 5 3 0 4 2 2 7-2 7-2 13 0 17 2 2 2 5 3 19v17l-3 7-4 12-2 8-2 7c0 4-3 9-6 10l-3 2 8 3 8 2 4-4 6-6c0-2 2-5 5-7l4-5 11 6 10 6 3-2c1-2 3-2 5-2h4c2-1 3 1 12 9 10 11 12 12 15 11 2-1 2-1-1-4l-2-2 2-1 2-2c0-1-3-4-7-5-3-1-5-2-5-5-1-3-4-5-11-6-6-1-10-4-10-7 0-2 4-11 6-12l8-10c5-8 7-9 11-7 2 1 3 0 5-2 3-3 4-3 7 2 2 5 4 6 4 3 1-4 4-4 9 2 4 3 5 5 5 7 0 4 2 9 7 13 3 3 4 5 4 10 1 7 4 13 8 19 3 3 3 5 3 9l2 8 3 4h6c5 0 6-1 10-5 4-3 5-4 8-4l5-1c3-1 15 3 20 7l4 3 4-2 21-6 17-4 11-10 12-9 9 3c9 3 9 3 11 2 2-2 3-2 12-1h10l8 11 7 10h7c7-1 7-1 17-8 8-6 12-8 14-8 4 0 5-3 5-8-1-3 0-4 2-8l7-6c3-1 4-1 8 1l10 5c5 2 6 2 12 0l7-1 4-8 3-11 1-6 8-7c7-3 8-5 8-7s1-3 7-7c6-5 6-6 7-9 0-3 0-4 3-4l6-3c2-1 2-1 1-10 0-8 0-8 3-12l13-11c9-8 11-9 15-9l27-10 1-3c0-6 1-6 5-3l5 4 8 6c6 4 9 5 13 5s4 0 11-8l7-9 7-2 16-3 8-1 13 6 13 6v4c1 7 4 8 11 3 4-2 7-3 13-3l7-1 6 5 5 5 11-1 22-3 17-3 6-1 2 5 2 4 7-4c6-3 7-4 13-14l7-13c0-2 1-3 4-4l5-2 8 11 9 10h4c5-1 10-7 10-11v-4c0-1-2-2-5-2-2-1-3-2-4-6l-5-10-3-9c-1-4-1-4 5-10 7-6 7-6 13-4 2 0 2 0 4-14v-11c-1-1 1-12 3-14l5-2c3 0 3-1 5-4 2-5 5-6 9-3 3 3 3 3 5 2 3-3 9-4 27-4l16-1 5-4 5-5v-11l-2-16-3-6 5-5c6-7 6-9 3-15-2-2-3-6-4-11-1-8-1-8 1-10l2-3-2-8c-3-8-3-8-1-12l1-11c-1-8-1-9-4-11l-4-3v-14c0-12 0-13 3-14l5-2c3 0 3 0 9-13l11-18 5-5-7-15-7-15h-7c-7-1-7-1-7-4l-6-12c-5-7-7-10-7-12l-5-15c-5-11-5-11-8-12h-4v-7c0-7 0-8-4-14l-4-8-1-16a124 124 0 00-3-27l-1-4h-16l-4-5-5-6-3 2-3 3-9-3c-9-1-11-2-15-6-5-4-6-5-12-5-10-2-13-3-20-9-6-5-8-6-12-7-4 0-6-2-15-10l-15-11-8-7c-4-4-5-6-6-13l-2-9-6-3-6-3-6-13c-6-10-7-12-10-14-2-1-4-3-7-9-4-8-5-9-12-13l-36-29 1-5v-5c-1-1-4 0-12 4z"/>
</svg>
