<svg xmlns="http://www.w3.org/2000/svg" viewBox="0 0 1024 1024">
  <path d="M364 32l2 17 7 67a28939 28939 0 0043 461c0 3 4 6 16 15l-11 53c-1 1-230-4-234-5-3-1-3-1-2-6l-1-5c-3-1-6 3-6 7 0 6-2 8-10 8l-10 1-13 3c-11 0-11 0-14-2-3-3-4-3-13-3l-15-1-5-2v3l-3 5c-4 5-8 10-8 12 0 3-2 2-4-2-3-5-11-13-17-17-2-1-5-4-5-6-3-5-6-9-9-9l-6 4c-4 3-5 4-7 3-3-2-3-1-7 12-3 8-4 11-4 19 0 9-1 9-4 12-4 4-12 8-14 6H5c-2 0-3 1-2 2 3 7 3 7 0 12l-3 5 4 4 5 6 3 3c2 0 2 1 2 10 0 10 0 11 3 12 2 2 3 2 2 6 0 3-1 3-5 5-5 2-5 3-5 6s1 4 5 9c4 4 5 6 5 9 1 4 1 5 4 5 2 0 3 0 5-2 2-3 2-3 5-2 3 0 4 1 6 4l1 7 5 10 4 6v8l-2 8c-3 2-2 12 0 15l2 3-2 4-2 7c0 2-1 3-2 3-4 1-4 5-1 6l6 6c5 5 9 6 16 0l6-5 4-2c5 0 10 5 10 9s5 9 8 9 11-6 11-9l3-3 6-4c5-3 11-2 19 2l20 9c1 1 2 0 5-4s5-5 7-5l4-2c1-1 2-2 5-2 6 0 7-1 7-6l-2-4c-3-2-2-4 2-5 6-1 9-1 17 3 4 3 5 4 5 6l-2 2c-2 2-1 4 2 8 2 2 3 3 3 7 0 3 0 4 3 4 3 1 3 1 3 5l-1 10c-2 7-1 8 5 10l4 4c0 4 4 8 7 8l1 1 4 3c7 2 8 7 2 9-2 0-6 3-9 6-5 4-6 6-6 9v4h4c5 0 5 0 6-2 1-3 2-3 6-3 6 0 9 5 6 15l1 14c1 9 2 9 4 11l5 2 2 2c0 2 2 3 4 3 5 2 6 3 6 7s0 4 4 4 4 0 7-5c6-9 6-10 15-10 6 0 7 0 8 3l3 3 1 3c0 2 0 2 6 2 5 0 6 0 8 2 2 3 6 5 9 5l3-2c2-1 2-2 1-4-2-4 0-5 6-6h7c5 2 10-2 6-5-2-1-2-2-2-6l2-8c1-2 1-2 5 1 4 4 9 5 10 2 2-6 2-7 5-7l4-1c1-2 3 1 5 5 1 3 1 3-1 6-1 2-1 2 1 4 3 2 3 6 0 9-3 2-4 7-2 7l5 2c4 1 4 1 8-1l3-4c0-4 15-11 26-11 6 0 8-1 8-10l1-22c-1-10-1-11 4-11l5-4c5-4 7-11 7-19 0-5 0-6-3-10l-6-8c-2-4-2-5-1-6 2-2 19-7 24-8 15-2 14-1 26-14l12-11-1-6-2-11c-2-7 0-8 6-8 7 2 9 0 9-7 0-4 0-6-2-7l-4-6-2-5 2-3 5-3 4-6 6-7h3l5 2c3 0 8 2 14 6 11 7 16 8 16 4 0-3 1-4 9-4l3-1v-9l1-13c1-3 1-4 4-4 3-1 4 0 7 2l6 2 4-1v-6c1-12 3-15 12-24 12-12 13-12 27-4l10 6 3-3c3-3 3-4 5-15l2-12 27-10 31-11 11-8 8-7h8c9 0 9 0 10 2l1 3 5-3 7-2 9 4c8 3 9 3 14 2h9l9-1c3-1 5-1 11 1h14c8-2 9-2 14-8l10-11 4-4 53-3 53-3 2-3 3-3h11l13 2c3 0 3 0 3-2l1-4 4-6c2-5 5-7 10-7 2 0 7-5 7-7l3-9 3-15c1-9 5-17 9-18h3v-40c1-2-7-134-8-135l-28 4c-25 4-27 5-27 3-1-1-3-3-5-3-7-3-8-4-5-9l3-6 1-3c3 0 3-3 2-5l-3-13c-2-6-3-12-5-14-3-4-8-6-22-7l-17-3c-6-1-7-2-12-8l-7-7-5 2c-4 2-6 2-14-1-8-2-14-8-14-15 0-2-1-3-3-3-7-2-14-4-16-6s-5-3-7-3h-4l-1-11-1-12-38-24a9657 9657 0 00-216-151L468 32h-41a2180 2180 0 01-63-1z"/>
</svg>
