<svg xmlns="http://www.w3.org/2000/svg" viewBox="0 0 1024 1024">
  <path d="M554 1c-2 1-3 2-3 6l-2 6c-5 4-7 13-3 15 3 2 2 6-1 7-5 2-12 7-12 8l-4 3c-4 3-6 7-6 11 0 2 2 6 7 11 6 7 7 8 6 10s-3 2-8 0l-5-2c-1 0-2-1-2-3 0-3-1-4-5-6-5-2-5-2-8-1l-10 2c-7 0-8 1-20 12-11 10-13 12-15 12-1 0-2 1-2 3 0 1-1 2-3 2l-4 2c-2 3-6 6-11 6l-7 4-4 3v9c1 6 1 10 3 13 2 4 2 5-4 12-3 3-3 3-2 6 1 4 1 5-2 5l-6 6c-3 5-4 6-6 6s-3 1-5 5c-2 7-3 9 0 11 2 2 4 7 4 10l-3 8-3 6-2 3c-2 0-3 2-3 3l-2 3-4 6-4 6-5 13-5 13-5-2-8-2c-3 0-4-1-4-2-1-3-8-3-11-1-2 3-4 2-8-1-2-2-3-3-5-2-3 1-3 2 0 9 2 5 4 17 3 19l-3 19c-1 8-2 9-7 8h-5v8c-1 12-1 16 1 25s1 13-5 14c-4 0-4 0-4 4l-1 5c-1 2-5 0-7-3s-3-3-6-3-3 1-3 4l-1 5c-2 3-2 16-1 25 1 8 0 13-2 13l-3-1-3-2-3-3-7-2-4 3c-1 2-2 2-1 6l1 6c-1 1 1 6 2 12 3 11 4 12 7 13l6 7 4 6 3 6c4 10 9 14 13 10l3-2 1 2 1 3 1 15c2 2 3 1 3-3l1-5 2 3c3 3 3 3 3 1v-4c0-3 1-3 4-3 5 0 7 3 7 11s0 8 2 8l4-2c0-2 4-7 5-7 2 0 1 3 0 4-3 2-2 4 1 4 3 1 3 1 3 5 0 3 1 4 2 4l5 3 3 3-4-1-5-2c-2-1-5 0-5 2l3 5 2 5c0 2 0 2 3 1l4-1c1 1-2 5-3 5-3 0-12-6-13-9-2-2-2-2-4 0l-2 2 5 6 4 7 2 4 6 6 7 4 1-8v-8c2 0 3 0 3-3 0-2 0-2 1 1 2 4 2 7 1 13-1 3-1 4 1 6 1 2 2 2 3 1 2-1 3 0 3 3-1 2 0 3 1 4l2 5c0 3 1 5 5 10 3 4 3 4 2 6-2 2-2 2 0 4 3 3 5 10 4 14v4l1 4 1 6c1 1 2 5 2 12l-1 12c-1 0-2 1-1 2l-1 3c-2 1-2 3-3 8 0 5-1 8-2 9l-2 2c0 4-4 19-5 19l-1 2-1 4c-2 4-3 18-2 20l2 2c2 1 3 1 7-4 3-2 5-5 5-6s1-3 3-3l5-4 2-3v4c0 3-1 4-7 10l-7 6-1 2 2 2c2 1 3 0 5-2 4-3 4-4 4-1-1 1-1 2 1 3 0 0 2 1 2 3 1 3 4 3 6-1l4-5c2-3 2-3 3-2s0 2-2 4c-3 3-4 7-2 7l4 2c1 2 3 3 4 2 2 0 5-7 5-10s4-8 5-8v2c-2 2-1 13 2 15 1 1 2 1 2-1l3-4 3-6v-4l1 4c0 3 0 5-2 7-1 2-2 3-1 4 2 3 3 3 7 3 4-1 5-2 8-6l7-11c4-8 8-10 13-10 3 0 5-1 9-4l7-5c2 0 2-2 1-4l-2-8-1-7v-2c1 0 2 1 2 4 2 9 5 12 12 11 8-2 14-6 19-16 4-8 5-10 4-13l-1-5-1-9c0-7 0-7 2-5l6 7c3 2 5 5 5 6l1 2 2 7 2 8 2 4 3 4 3 5c0 5 1 5 6 4h11l-2 3c-1 2-2 2-4 1h-5c-2 2-1 9 2 11 2 3 4 2 4-2 0-2 0-3 2-3 3 1 2 5-1 10l-3 6 5 7c7 6 8 11 7 25l1 12 3 4c1 2 1 3-1 4l-1 10c1 10 3 12 6 12 3-1 3-1 3 6 0 8 2 14 5 20 4 5 4 8 3 12-2 4 0 15 2 23l2 4 1-4 2-9c0-6 2-5 2 2 0 3 1 4 3 7 4 3 8 12 8 15 0 6 1 9 3 9l3 3 2 4 3 16c0 7-1 15-3 19l-1 5v4c-3 3 2 7 5 4l3-1c1 1 1 1-1 3-2 3-2 3-1 5l2 4c0 3-5 3-7 0l-3-3c-2 0-5 3-5 5 0 3 4 6 8 6 3 0 4 0 4 2l-1 3c-2 1-1 2 2 3s6 1 6-2c1-1 1-1 3 1 2 1 1 2-1 3-3 1-4 4-2 9 1 2 1 3-1 5s-2 3 0 5c2 3 1 7-1 10s-3 6 0 7v2l-2 3c0 1-1 3-3 3-3 1-4 3-4 4 0 3-1 5-3 4-2 0-1 8 1 16 1 6 1 6-1 10l-2 4 3 5c4 5 5 6 6 2 0-3 1-5 4-7l4-7 2-7 2-8c0-6 0-6 3-9l6-8 3-4c2 0 9-8 10-11l4-7 6-10 2-7 3-3c1 0 7-6 7-8l-2-3-1-5c0-5 0-7-3-10-3-5-8-20-6-23s0-6-4-7c-5-2-11-8-12-12l-2-7c-2-8-2-10 0-11 4-2 4-4 3-13l-2-13c0-3-2-8-4-11l-4-10-1-3-7-5-11-8c-3-1-4-2-5-5 0-5-3-9-5-9l-3-2-5-7c-4-4-4-5-4-9l-2-8c-2-3-2-3-1-8 1-3 2-4 5-5 3 0 4-1 5-3 0-2 0-2 4-2 4 1 4 1 5-2v-9c-1-7 0-26 1-28l7-1h5l2-7 3-8-3-2c-3-4-5-4-7 0-2 5-4 5-5-1l-4-10c-4-6-4-7-3-10 3-7-1-12-8-14-2 0-3-1-4-3l-5-8c-3-2-5-6-6-8l-12-13-10-11 2-6v-6l-2-5-2-6c-2-2-3-3-5-3-4 0-7-3-7-7l-2-4c-2-1-3-4-1-4l4 2c4 2 4 2 6 0 1-1 2-2 5-1 2 0 3 0 4-2l2-6 2-6v-2l-4-3-3-3 3-2c3-1 7-9 6-12-2-4 1-20 3-20s7-5 8-9v-3l7 3c6 4 7 4 10 3h6c2 0 4 0 6-2 4-3 11-5 16-5h5l1-6 1-8c2-2 2-3 10-3 11 0 14-2 14-6l-1-5c-1-2 0-2 5-2s7-1 12-3l6-4 5 2 5 3 2-9c1-9 1-9 6-13 4-3 6-3 10-3s6-1 7-2c2-2 2-2-1-3-3 0-4-1-4-3s1-3 2-3 6-7 6-10c0-4 1-5 3-5 2 1 5-1 12-7l10-9-1-6-3-5a409 409 0 01-15 5l-1 3c0 4-1 6-4 7-5 3-9 3-11 1s-5-3-8-1l-6-1c-3-2-4-3-4-5 1-2 0-3-3-4-6-2-7-3-6-9 1-5 1-8-1-10-1-2-2-2-3-1-2 1-9 0-10-2 0-2-1-2-7-2l-10 1h-5c-3-1-3-2-3-5l5-12c3-8 3-8 2-13v-7l3-4 3-3 1-3 1-5c0-2 0-2-2-2l-5-2c-3-2-3-2-4-1-2 3-7 3-13 0l-6-2c-2-1-2-1-1-3 2-3-1-12-4-14v-2c2-3 1-7-3-11-6-7-6-13-1-16 3-1 7-6 6-7l-4 1h-14c-3-2-20 1-25 3l-9 6c-7 6-10 7-12 4l-2-2 3-5c4-6 5-11 3-12l-1-2c0-3-1-7-3-7-3 0-4-3-3-10 0-7 2-9 8-13 2-1 2-2 1-5v-9c2-5 2-6 6-7 7-2 13-9 15-17 0-4 2-5 6-3 2 2 2 2 6-6 4-7 5-7 8-7 4 0 7-1 7-3l-4-6-4-5 4-5c5-4 5-5 2-6-2 0-2-1-2-2l3-11c2-8 2-11 0-26a186 186 0 01-2-33c0-2-1-2-3-2s-3-1-3-2c-1-3-7-3-7-1l-3 5-3 3v-2l-2-7-2-8-2-7-2-6c0-4-1-5-3-8l-3-5c-1-3-7-5-11-5-3 1-3 1-3-3 0-3-1-4-3-4l-4-1h-5z"/>
  <path d="M346 531c-2 0-3 1-2 2l1 4 2 2 2 1c0 1 1 2 3 2h4c3-3-2-12-6-12l-4 1z"/>
  <path d="M602 881l-2 2v5l1 4c0 3 0 4 5 2 3-1 4-3 4-8 0-2 0-3-1-2-1 0-2 0-2-2s-2-4-3-4-2 1-2 3z"/>
  <path d="M583 895c0 3 0 4 4 2 2-1 2-2-1-4-2-1-2-1-3 2z"/>
  <path d="M589 902c1 2 3 3 3 0l-2-2c-2 0-2 0-1 2z"/>
  <path d="M587 927c0 3 2 6 3 5s-1-8-2-8l-1 3z"/>
  <path d="M600 926l-4 15c0 4 3 2 5-2l2-8c-1-4-3-7-3-5z"/>
  <path d="M607 930l1 7 6 3 1-7c1-6 1-6-2-7-5-2-6-1-6 4z"/>
</svg>
