<svg xmlns="http://www.w3.org/2000/svg" viewBox="0 0 1024 1024">
  <path d="M355 261c-2 7-5 10-11 11-3 0-3 1-5 5-3 6-4 7-6 6s-5 2-7 8l-3 7c-2 3-2 9 0 11l2 5c0 4 4 12 6 13s2 2 1 8c0 7-5 16-7 16l-4 2c-2 1-4 2-6 1-4 0-7 2-7 5 0 1-6 4-9 4l-3-3-6-5c-5-3-5-3-9-2-2 2-3 2-3 0l-3-1-6-3c-2-2-4-2-6-2-2 1-4 0-5-1h-4l-7 1-9-2c-5 0-7-1-7-4-1-2-1-3-7-3-5 0-6-1-6-3l-2-3c-2-1-2-2-2-11l-1-10-9-1-11-2-15-5c-2 0-4-3-2-4 1-2-1-5-3-5l-4 2c-2 3-3 2-7-3s-5-5-6-2c-1 4-4 4-11 3-5-1-6-1-9 1a124 124 0 01-7 5l-9 1-9 1-4 2-3 2-4 2-9 1-7 2-3 2-6 3c-7 1-8 2-8 5 1 5 0 6-3 6l-5 1h-3c-2-2-5-1-5 1 0 3-7 4-8 2h-4c-2 1-3 0-5-1-1-2-3-2-7-2-7 0-10 1-11 5l-1 3-6 2c-4 2-7 5-5 7 2 1 0 3-2 3s-2 1-2 4 0 4 3 6c4 2 4 2 2 4-3 4-3 5 2 9l5 4 3 4 2 6 6 8 6 7c2 3 7 5 9 3 2-1 8 0 8 1l2 6c2 5 3 5 8 5 2 0 3 1 3 3s1 4 3 5c4 3 5 5 5 16l2 11 2 6 3 4c3 3 4 9 4 21 0 4-1 5-4 7l-3 3 1 8-1 9-6 5c-4 3-5 6-7 10-2 6-2 7 0 8l1 5c-1 4 2 11 4 11l6 3 7 3 3 1c2 2 7 4 13 5l8 2c4 3 12 5 17 5 4-1 6 0 8 1l8 3c3 0 8 1 11 3a91 91 0 0129 28l5 5 9 6c5 3 6 3 12 3h6l-2 3-2 6c0 3 1 4 3 6 3 2 4 3 7 14l4 17c0 5 1 6 7 15 4 7 7 12 7 15l1 4h25l19 5c13 4 23 6 42 9l25 4 8-1c5-1 9-2 12-1l7-1c4-2 19 0 37 6l16 6 5 6c4 6 5 7 11 9l12 2c3 0 6 1 17 7 16 8 24 11 34 11l11-1c6-2 8-1 8 4l-1 4 7 1 9 2c2 1 2 1 7-3l6-5 7-4a348 348 0 0175-30c2 2 4 2 9 1l10-2 5-1c4 2 22 1 23 0h7l7-1 5-2c3 0 7-2 10-5l9-4c5 0 16-7 17-10l4-6 3-4 6-9c4-6 7-8 10-9l8-5 4-3 4-4c2-2 4-5 6-5l3-4c1-4-5-12-11-17-8-6-11-13-8-18l2-6 3-12c4-10 8-12 19-12 6 0 7 0 10 4 4 4 5 5 23 6l13 1 4-4 9-6 5-6 6-8c3-3 5-6 5-8s1-3 3-5c4-2 4-2 7-1h8l9-3c7-1 11-3 13-8l8-7c6-5 7-6 6-10-2-4-1-8 3-15 6-9 13-14 22-14 6 0 8-2 8-6 0-6 3-9 7-5 4 2 6 1 7-3l3-3 5-4c5-5 5-5 7-3h6l5-1c2 1 2 0 3-1 0-2 5-3 6-1l5 1h9l8-2c2 0 3-1 3-2l2-2c3-2 3-5-1-13-3-6-4-7-10-11l-11-8-6-3c-2 0-3-1-3-3-1-4-1-4-8-5-6-1-6-1-9-5l-3-5h-7l-11 1h-5l-3-1-5 11-6 11-7-4c-11-4-16-5-19-2-3 2-4 3-7 2h-5l-8 10-8-5c-6-5-6-5-6-9s1-5 4-8l3-4-1-6c-1-6-1-7 1-13l3-9 6-26 6-22-2-3-4-2-5-2h-8c-2 0-5 2-6 4-2 2-3 3-10 3l-7 1-3-4c-7-7-17-11-23-8-1 1-2 1-4-1-4-1-6-1-11 5-2 3-5 5-6 5l-11 9c-9 8-9 9-9 13 0 5 0 5-4 6l-5 3h-5c-4 0-5 0-8 2-5 3-15 7-19 7l-6 1c-1 1-2 2-3 1-2 0-7 2-8 4s-12 9-14 9l-5-2h-6c-3 2-17 2-19 0h-4c-2 0-3 0-5-2-3-4-7-4-10-3l-3 1-9 1-6 1-5-5c-2-3-6-5-7-5-3-1-7-6-7-10 0-7-5-10-16-10-5 0-5 0-12-7l-10-8-9-1c-5 0-9 0-13-2l-9-2-9-2c-4-1-4-1-7 1-3 3-11 6-16 6-4 0-9 2-13 5-3 3-6 4-10 2h-13c-2-1-3-2-5-1-1 1-2 0-3-1-2-3-4-5-7-5l-7-2-5-4c-2 0-3-2-3-3l-3-3c-3-1-3-1-3-5 1-3 0-4-1-6-2-1-2-2-1-3v-5l-1-11-1-9c-2-2-16-6-19-6s-6-1-8-3l-13-8c-7-3-10-4-14-4-6 0-11-2-13-5-1-2-4-3-8-4-3-1-7-3-8-5l-11-7-3 6z"/>
</svg>
