<svg xmlns="http://www.w3.org/2000/svg" viewBox="0 0 1024 1024">
  <path d="M470 7c-9 7-10 8-15 16l-15 30c-7 15-14 29-22 42l-13 20h-7c-6 1-8 1-24-5-18-5-18-5-54-9l-35-5-26 12-26 12 3 13c4 11 5 12 7 11 1 0 2 0 3 2 0 2 1 3 3 3s3 0 3 2c0 3-2 4-5 3-2 0-2 0-2 3l1 3 5-2 4-2 2 4c1 3 1 3-1 6-2 1-3 3-3 5 0 5 3 12 6 17 2 4 2 4 1 6-2 2-2 3 1 3s9 14 7 16-1 4 2 4c2 0 2 1 4 6 1 5 1 7-3 7-2 0-1 1 2 6 2 5 3 5 7 6 3 0 4 1 5 3 1 3 1 3 7 2 6-2 7-5 1-4-4 1-5 0-5-3l14-4 3 3 2 4 14-5 13-5c0-2-1-2-6 0-8 1-8 1-8-1s-2-2 37-13c17-5 21-7 21-8 0-2-1-2-7-1-7 2-7 2-7-1 0-4 0-4 7-6l7-3-8 1-8 2-2-7v-7l8-2c6-2 9-4 8-6l-13 2c-12 3-13 3-13 1v-3l8-1c8-2 8-2 9-5l1-4 11-2c10-1 10-1 12 1a1114 1114 0 0123 78 2494 2494 0 01-121 40l-1 6v7l9 6 10 7 15-5 15-5 2 3c0 2 2 3 2 3 12-5 13-5 14-1l8-1 8-2 3 10 2 9 5-1c3 0 4 0 3 1a541 541 0 00-36 7l-21 5-4-3-4-3c-5 0-12 3-15 5-4 3-4 4-5 9v9c-1 6-1 11 1 11 2 1-1 7-5 7-2 0-2 1-5 12l-3 16c-1 5-1 6 2 6l3 1 1 5c0 3 0 3-2 3-3 0-4 5-2 8 3 2 3 5 0 5l-1 4c1 4 1 4-3 4-3 0-3 0-6 14-3 9-3 10 1 10 3 0 3 0 3 4l-3 14c-2 8-2 9-4 9-4 0-4 1-6 12l-3 10c0 2 1 2 4 2 4 0 4 0 4 3l-1 4-1 1c-2 0-3 2-3 9 0 6 0 6-3 6s-3 0-4 5c-1 6-1 8 2 8 4 1 4 4 1 4-2 0-3 1-4 4-2 3-2 3 1 4 2 0 2 1 2 2 0 3-2 3-8 1h-3l-1 6-2 8 4 1 4 1-2 6-6 6c-2 0-4 1-5 4s-1 3 2 4 4 2 2 9c-1 5-2 6-7 4l-3-1-2 9c-3 10-11 26-13 26s-4 3-8 7a320 320 0 00-46 67c-3 5-3 5-2 7 3 1 2 3-2 2-3-1-3-1-18 18l-19 29-8 14 2 2c2 2 2 4 2 6-1 3-1 3 5 7l7 5-4 7-4 9c-1 2-2 3-4 3-3 0-5 4-2 6 2 1 1 4-2 3-2 0-3 0-4 2-1 4-1 5 1 8 3 2 2 3-6 1l-6-2-1 4c-1 5-1 4 8 7 5 2 6 2 6 6l1 4 10 1 10 2-1 7-1 7-5-2c-9-3-9-3-9-6 0-6-1-8-4-8-6 0-10 1-10 3 0 3-6 4-15 1-6-2-7-2-8-6-1-2-2-3-3-2l-2 9c-3 8-3 10-2 21 2 21 2 24 10 39 7 14 14 24 17 24v1c-1 0 0 7 4 14l9 11c7 5 21 14 28 17l4 1v7l-1 9c-1 2 0 7 3 7s6-2 6-4l-2-4-2-8v-4l5 1a271 271 0 0058 15c16 2 48 2 72-1 25-3 41-9 73-25 18-8 27-15 51-38l15-14 15-4 16-4 16-5c11-3 16-4 30-5l20-3c7-3 25-14 41-27l-6-5-12 9-13 11a787 787 0 01-111 22c-20-4-30-7-41-13-10-4-11-6-12-8-1-5-5-8-8-6-2 1-3 0-9-6-14-13-27-32-34-49l-2-5 3-4 3-5-5-4-5-2v-28c0-9 1-11 7-28l8-17 5-2 6-2-1-5c-1-3-1-4 1-8 1-3 2-4 3-3l80 44v5c-1 4-1 4 1 6l7 4c4 2 4 2 9 1 6-2 6-2 6-5 0-4 1-4 5-3 3 2 3 2 6 0l3-4 3-8c3-4 4-5 11-8l8-3 1 5c2 4 2 5 0 5l-1 1 22 55 22 54a461 461 0 0056-24l2 2c1 1 0 3-11 13-12 12-12 13-10 14 2 2 4 2 6 0l19-17 18-17 29-11 30-12c2 0 4 9 4 14v7c1 1 4 2 6 1 2-2 1-8-3-16l-4-7 31-13 88-36 58-24 35-1c51-3 51-3 51-5-1-3 3-3-52 0l-35 2-18 7-18 7-3-3-2-2-10 3-12 4-2-5c-1-3-2-5-4-6s-3-2-3-4a12339 12339 0 00-21-98c1-2 1-2 3 3 2 6 2 6 5 5 7-1 7-1 9 4 2 4 1 4-1 6-6 5-2 24 7 30 4 3 4 3 8 2 5-2 5-2 5 0l-1 2c-2 1-2 2-1 6 2 5 2 5 6 5s4 0 5 5c1 4 1 4-2 6-2 0-3 2-3 2l4 13 5-2h26l4 1 3-5c2-6 3-6 5-5 6 1 2-2-8-7-9-4-9-4-12-10l-3-7 5-3c3-1 5-3 5-4h-6c-5 2-7 2-7 0l-4-10-3 1c-2 1-2 1-1-3 0-4 0-4-2-4s-3-1-3-2l2-1c1 0 1-1-3-12-2-6-4-8-6-8-2-1-3-4-1-4s1-5-2-5-2-1 4-5l6-3-6-13c-6-11-7-13-7-18l1-9c1-6 0-8-15-17l-12-9 1-3 1-3 5 4 6 3c1 0 10-12 10-14l-5-4-5-4 2-3c16-22 17-24 21-24 2 0 2 0 1 2l-1 3 60 31a1490 1490 0 0031-59l-7 7-2 1c-1 0-3 1-5 5l-4 7-2 3-7-4-7-5c0-2 7-6 11-6 4-1 17-11 17-13l1-1 4-8c4-9 3-9 19-13l17-6c6-3 7-4 9-8l2-4-2-9c-2-7-32-108-36-117l5-2 5-3-3-11c-5-19-6-30-5-57a287 287 0 001-36c4-3 0-39-7-58s-20-35-38-48c-11-8-30-16-51-22a567 567 0 01-80-28A7387 7387 0 01547 6c-11-3-12-3-25-3h-15l-14-2-12-1-11 7zM295 853l-2 10c0 7-1 8-5 12-5 6-7 9-5 12v8c-1 9 0 11 7 13 5 2 5 2 6 6l1 9v8c-3 6-2 16 0 19l2 6c0 4 0 4-4 6-5 2-19 14-19 15l2 3c1 2 1 2-2 2h-3l2 3c2 2 2 2 0 1h-3l2 3c2 1 2 2 1 2l-3-1c-2-2-4-2-4 0l3 3c4 2 4 2-2 2l-4 1 1 4v5l-12 2c-12 3-15 3-26 3-12-1-15-1-29-5-39-12-54-19-64-32-6-7-12-17-12-19s3-1 15 4c8 4 12 6 12 8 1 5 6 7 11 5l4 1c4 2 11 2 18 1 10-2 14-6 18-17 5-12 6-19 5-29l-1-11c1-5 7-9 21-14 8-2 9-3 12-7 4-5 8-16 8-20 0-3 0-3 2-2 3 0 4-2 1-3-2-2-1-6 3-9 3-2 6-3 13-4 9-2 27-6 28-8 1-1 2 1 2 4z"/>
</svg>
