<svg xmlns="http://www.w3.org/2000/svg" viewBox="0 0 1024 1024">
  <path d="M213 2l-5 2-6 2c-3 2-6 2-10 2-7 0-9 1-25 12l-8 4-7 4-13 4c-7 1-7 2-10 6l-5 4-3 5-3 9c-3 5-9 11-11 11l-3 6-5 9c-2 3-3 5-3 8s0 4-2 5c-2 0-3 2-3 3l-8 21c-2 2-2 2-1 5s1 7-1 10c-1 4-1 6 1 9l2 4 4 4 3 2-2 3c-3 3-2 6 4 13 3 3 5 6 6 10 2 7 5 15 7 15l5 6c3 5 3 5 10 8l10 2c1 0 4 4 9 13l8 15 13 9c9 7 12 9 15 14l4 7 4 6c4 4 4 4 6 13l1 9-6 12c-7 14-12 32-12 41l2 10 1 8c0 5 7 21 13 30l13 22a254 254 0 0026 40c0 3 6 11 11 13l5 8c1 7 1 7 5 8l11 4c5 2 6 3 8 7l3 8 2 7 4 5 4 4 3-2c3 0 21 6 28 10l10 4c3 1 6 3 15 14 8 8 13 15 16 20 3 6 5 8 8 10l4 4 4 6 2 3 4-3 3-2 3 2 3 2 6-4c4-3 6-3 12-4 8 0 8 0 12 3l6 4c2 1 2 0 2-4v-5l3 2 2 2 3-3 4-3c2 0 2 1 2 10v11l6-1 7-1-3-2c-2-3-2-3-1-4h6c4 0 5 1 9 5s4 4 10 4l6-1-1-11c-2-8-2-10-1-12 1-3 2-3 4-3h10c7-1 8-2 13-7l6-6 3 1c5 2 6 3 5 6v3c1 1 1 2-1 3l-2 3 6 7c6 6 7 7 5 14 0 2-1 3-3 3l-4 2-6 2h-3l-1 7c0 6 0 6 2 8s6 2 7-1c1-2 3-1 5 3l5 6c3 2 6 8 5 11-2 8-1 13 2 19l4 5-2 3-3 4h6l9-1 16 1c1-1 2 0 3 6 1 8 1 8 5 10 2 0 4 1 4 3l2 3v5c-1 1-2 0-3-2s-2-2-6-2c-5 0-5 1-2 5s2 5-4 6c-4 1-7 3-16 12l-6 5v-5c1-6 0-7-4-4-2 1-3 3-3 7l-3 6c-2 1-6-2-6-4l-2-4c-2-2-3-3-6-3-5 0-9 2-9 5-1 2-4 3-4 1l-3-1c-4 0-4 0-4-3 0-2 0-2-5-2-4 0-6-1-9-3l-6-2c-4 0-7-10-3-12l4-2c2-2 3-3 3-6l-1-7c0-3-3-2-13 2l-8 3-2-7c0-4-1-5-2-6-1 0-2-1-2-3-1-2-1-2-3 2l-2 8c0 4-1 7-3 10-2 2-2 2-6 1-3-2-4-2-7 0-2 2-3 3-4 7 0 3-2 6-4 10l-5 5-8-2c-11-2-11-2-22 7-10 8-10 9-10 12l2 5-5 1-5-1 1 5c0 5 0 5-3 6s-4 3-4 5l-3 6-2 7c0 3-1 5-4 10-3 4-4 6-3 7 2 2 11 5 13 4l10-1 8-1v3c0 5 0 9-2 12-1 2-2 3-6 4-3 0-4 0-3 2l1 5c0 3 1 4 6 7 4 2 6 3 7 2l2-1c4 0 5 3 6 16l1 14-4 2c-4 1-4 1-4 4 0 5 1 6 6 11 5 4 6 4 14 4l9 2 2 5c0 5 2 9 8 14 4 4 7 6 11 7 7 2 8 2 10-1l4-2c3 0 9-6 11-11 2-3 3-9 4-14l1-8 10-5 22-9c10-3 14-3 20-3s7 1 8 2c3 5 10 11 13 12 4 0 4 0 5-2l1-6c0-3 2-6 4-6l2 2c0 2 1 4 3 5 2 2 3 5 3 7l6 8 9 4c3 1 3 0 4-2v-8l-1-9c-1-3-1-3 1-1 7 10 11 12 12 5l1-5 2-6c2-7 7-7 11 1 2 5 2 6 2 11-1 4-1 5 1 8s3 3 5 2c6-1 8-2 8-5 1-3 1-3 7-3 10 0 11 1 11 5 0 3 0 4 3 5l6 2 6 1h4c3-3 20 0 29 4l12 3c5 0 5 0 11-5 5-4 6-5 12-5 4-1 6-1 7-4l2-2 3 2c2 3 3 3 5 2 3-1 3-1 4 2l-1 5-1 5c0 4 7 13 15 19l9 9 2 2 4-2 6-3c3 0 4-1 5-6 1-4 5-9 11-15 7-5 16-16 17-18 1-3 4-3 9 0 3 2 3 2 9 1l7-2 2 9 3 9-3 4c-3 3-4 4-2 6 4 2 2 3-7 2h-9l-1 4v8l1 3h-6l-8-2c-3-2-5-1-8 1l-2 2 4 6c6 9 7 12 3 18l-4 9-6 13c-5 9-5 9-9 9s-4 0-4 3 0 4 4 6l9 6c5 4 5 5 4 7v6l2 6c-1 2 0 3 1 3l4 2 7 2c3 1 5 5 3 8l-1 2 15 9 4-3c5-3 9-4 11-2 2 3 3 2 6-1l5-3c4 0 5-1 4-5 0-5 0-6 7-16l4-8c0-2 5-6 8-6l8 3 4 3 3-3c3-3 4-4 1-4l-5-1c-4-1-5-2-6-6l-5-7c-3-2-3-3-4-8v-5h3c6 1 12 5 12 7 1 2 2 3 5 4 5 2 6 1 8-3 2-3 3-11 2-14-1-2 6-9 10-11s3-2 9-18l5-9 3-3-2-2c-4-2-3-5 4-11 5-5 6-6 9-6 7 0 6-5-1-6h-5l-2-8-1-8h-7c-7 0-9-2-4-8 2-3 5-4 7-2h2l3-1c3 0 4-1 12-10l3-3-5-7-5-9c-1-9-3-14-5-14l-2 1c0 2-2 1-5-3-2-4-2-5-2-11l1-8v-4l-1-7c0-11-9-15-18-7l-7 4c-2 0-2 0-2-3l2-7c2-2 3-4 3-7 1-8 7-11 12-7l3 2 1-8 1-10v-4c-2-2-2-2-7 0-5 3-7 3-10-1l-1-3c2 0 9-3 11-6l2-5c0-4-3-8-10-11-6-3-11-8-11-10l2-5 3-5 2-2c3-2 9-11 9-16l5-8 4-4h-4c-7-1-10 1-20 10l-9 9-4-2-2-1 4-5 5-6h-8c-9 4-12 1-5-4 5-3 7-7 3-6l-9 2h-6l-2-6-1-6 11-1c9-1 10-1 10-4s-3-4-9-4c-8 0-8-5 0-7 3 0 7-2 4-2-2 0-6-5-6-8l-2-5-3-6-1-3-4 3c-4 4-9 6-14 4l-8-1c-7-1-7-1-11-10l-3-5c-1-2-1-3 2-3 2-1 3-2 3-4 0-3-1-5-9-11-7-6-11-12-9-14l5-4 8-5c3-3 3-3 1-3l-7-2c-3-2-4-2-7-1s-6 2-8 1h-4v4c0 4 0 4-3 4-4 0-4 0-5-5l-2-5-4 2c-3 2-5 2-8 1-6-1-9-3-9-8v-5c-1-1 0-2 3-4 7-4 9-6 9-10l-2-4-2-4-9-17-7-2-6-3c-1-2 0-3 3-3s4-2 2-4v-1l4 3c2 2 4 2 10 2l9-2 1-5 1-7c1-2 4-2 4 1 1 3 6 3 7 0l1-6 2-9 2-5h-3c-8 0-15 3-15 7 0 3-4 3-7 0l-5-2c-4 0-5-1-8-4-5-5-9-5-22-1-10 3-14 6-16 12-1 3-3 5-6 7-10 5-10 5-19-3-6-6-7-7-8-11 0-6-3-8-11-12l-6-5 1-6c0-2 1-3 4-4 4-2 5-3 6-7s2-4 6-6c5-2 7-2 8 1 0 3 1 3 7 3 9 0 9-1 2-7-4-2-5-4-5-6s5-6 7-5l6 1c5 0 5 0 5-2s1-2 4-3l9-3c4-1 4-1 4 1 0 6 6 3 10-5 2-5 3-5 6-5 2 0 3-1 5-4l1-8c0-5 0-5-3-5l-6 5-3 3-3-2-7-7-4-4v-11l1-11h-4c-5 0-5 0-6 4-2 5-3 5-12 10l-10 5-3-4c-6-6-5-9 2-13 4-3 5-5 4-6 0-2 0-2 2-3 4-2 4-3 0-5-3-2-7-1-11 5l-6 6-4-5-11-10c-3-1-6-9-6-14v-3l6-1h7c4 2 4 1 5-4l-1-4-7-1-5-1v-6c0-5 0-6 3-7 2-1 4-4 5-7 3-5 3-5 8-6l12-1c5 0 8 1 14 3l14 9c8 5 8 5 9 11 1 7 3 9 6 6l7-2c4 0 5 0 6 3 0 2 1 2 4 2l7-3 8-1c2 0 4 0 3-1l-2-4c0-4-1-5-4-6l-7-1c-5 0-8-2-7-5 1-1 8-5 11-5l4-3 5-4c5-2 10-7 10-12l1-4h-5l-8 2c-4 0-9-5-9-8 1-3 2-3 5-3s3 0 3-3c0-2 1-3 4-5 6-3 7-3 14 3 4 4 5 6 5 8 0 4 3 6 7 5l5 1c3 2 6-1 6-5-1-3-1-4-5-5-5-1-6-2-7-8-1-4 0-5 1-5 2 0 7-5 9-8 1-4 1-4-10-9-6-3-8-3-10-2-3 1-3 1-3-1 0-3-3-5-5-3-2 0-7 5-13 10-8 9-10 10-17 12l-12 3c-7 1-14 5-22 12l-7 7-4-4c-3-4-3-4-10-4-4 0-7 0-9 2-1 1-6 3-10 3-11 3-17 7-25 18l-5 7v22h-6c-13 0-15-2-15-11l-3-9-2-9c0-4-4-11-10-19l-8-12c-3-5-4-6-6-6l-3-1-3-6c-4-5-4-5-1-5s3-4 0-7c-2-3-3-3-8-2-5 0-6 0-6-2l-3-4c-3-3-3-3-2-6 2-7 1-7-3-7-5 1-6 0-11-8-3-6-4-8-14-16-2-2-2-2-1-4l2-3 1-5c4-7 3-10-3-9-2 1-5 0-6-1-2-1-3-1-5 2l-3 2-6-3c-7-4-8-6-9-13-1-5-1-7-5-10-4-5-5-5-11-5-7-1-7-1-6-3 2-2 2-6 1-7l-1-2c1-1 0-3-3-4-3-3-5-3-10-3h-6l-3-5-5-5c-3-1-8 0-11 1l-11 2h-7l-9-6c-6-5-8-7-9-10v-3h-5c-5 1-6 1-11-3-3-3-5-3-8-3-5 0-9-2-9-6l-3-5-3-4-3-1c-4 0-11-4-21-12a490 490 0 00-26-19c-3-3-4-4-12-4s-9 0-20-6c-12-6-12-6-17-5s-5 1-9-2l-5-4h-26c-25 0-27 0-30 2z"/>
  <path d="M763 385c0 2 2 3 6 5 3 1 5 3 5 4l3 3 2 3 2-2c1-1 4-3 8-3h8c2 2 2 2 4 1 2-3 1-7-3-8l-7-2c-3-2-5-2-7-2-9 2-13 2-16 1-5-2-5-2-5 0z"/>
  <path d="M784 517c-2 3-2 4-1 7 1 2 1 2 4 0 5-3 6-5 2-6l-3-2c-1-1-1-1-2 1z"/>
  <path d="M851 561l-8 6-2 2h3c3 1 4 1 6-1l7-1h5l-3-5-3-5-5 4z"/>
  <path d="M910 940l-4 4c0 2 2 5 5 6s3 1 5-1c1-2 1-10-1-11l-5 2z"/>
</svg>
