<svg xmlns="http://www.w3.org/2000/svg" viewBox="0 0 1024 1024">
  <path d="M746 1l-16 106a9193 9193 0 01-245-22h-2l-7 40a11152 11152 0 00-28 174l-14 5c-13 5-14 5-21 4h-7l-19 11c-19 10-21 12-26 18l-6 7 1 16c0 13 0 21-4 60l-4 45a8297 8297 0 01-267-23c-11-4-13-4-22-4H49l-4 7-8 17c-3 8-4 10-4 17 0 8 0 8 2 7 3-1 3 0 6-9l5-13c4-7 4-7 7 5 2 14 5 21 10 29l6 8v-5c0-6 0-6 2-6l3 1c2 0 5 8 5 12 0 7 3 15 7 21 6 8 6 12 3 16l-2 7c-1 5-2 6-6 9-3 3-4 5-4 7s1 3 2 3c2 0 2 0 1 6-1 2-3 6-10 12-6 7-8 9-8 11l1 2 2-2c2-1 3-2 4-1l2 1c2-1 2-1 0 2s-6 4-11 4l-5-1 1 5c2 8 2 8 8 16l7 14c2 6 2 27 2 68 0 28 0 29-3 42-3 14-3 14-12 31l-14 28-11 25a149 149 0 00-14 43l3-1c4-2 7-6 12-15 4-7 5-8 10-9 7-3 13-2 19 3 4 3 4 3 12 3l14-4c7-2 12-3 30-1 10 1 11 1 14-1 5-3 23-3 32 0l16 2c14 0 15 0 18 5 1 3 5 7 8 10 7 8 8 10 8 15 0 4 1 5 8 5 3 0 3 1 5 5l3 5 10 2 11 3 6 4c3 3 6 7 14 25a598 598 0 0015 25l7 5c4 4 4 5 4 10 0 8 4 15 10 19 11 6 20 14 24 21l5 8 12 1 11 2 8-5 9-4-1-8-2-8 9-16c9-16 9-17 14-19l9-7 4-3 4 3c4 2 4 3 4 8v6l16 15 17 14 8-9 9-9h5c5 0 6-1 6-5 0-2 1-2 8-2l14-1 7-1 14 6 14 5 16-1 16-1v-13l5-3 6-3-2 7-2 7 298 23a1451 1451 0 0021-70l-9-8-9-6v-6l-3-705 60 3 66 4h6l-12-10-56-46A31617 31617 0 00746 1z"/>
</svg>
