<svg xmlns="http://www.w3.org/2000/svg" viewBox="0 0 1024 1024">
  <path d="M457 1v3c2 3 1 4-5 4-11 2-15 6-18 19l-4 14-2 8 2 5c3 6 4 11 1 12l-4 6c-4 8-4 15-1 19 2 3 3 10 2 17 0 6 0 6-5 9s-9 9-9 13c0 3 5 8 10 11 4 2 2 12-4 21l-3 9c-2 5-3 7-5 8l-7 7c-5 5-8 6-8 4l-2-1c-3 0-3 0-3 7 0 5 0 7-2 9l-5 9-6 8c-2 1-11 15-14 20l-3 11-2 6-1-1h-1l-1 7-1 6-3 5c-1 3-3 4-6 5-3 0-3 1-4 4l-1 6c-6 7-10 26-10 50 0 10 0 10-3 14l-5 9c-1 2-2 7-4 9-1 4-2 6-2 13 0 5 0 8-2 11l-3 8c-1 8-4 14-8 18l-5 3-1 2-3 4c-3 2-4 5-4 6l-1 4-3 4c0 2-2 4-5 5-3 2-4 3-4 6-2 10-4 13-10 17-5 3-6 5-10 12-5 11-9 15-17 19-6 3-6 2-8 20v9l4 5 6 4 1 4v21c2 21 1 36-2 44l-3 10c0 2-1 7-3 10-2 5-3 7-3 12 0 10-5 21-13 28l-15 12c-9 6-13 9-13 11-1 3 0 4 4 4l5 2c1 2 8 5 14 8l17 8 8 4c4 1 10 5 27 17 10 7 12 8 21 21l11 17c1 9 2 17 4 21l8 16 3 2c3 2 3 4 3 8 0 5 1 6 4 4l10 8c8 8 10 9 16 10 6 2 6 2 9 8l4 11c0 6 5 12 10 16s12 12 19 23c6 9 8 16 8 22 0 4 0 4 5 6 2 2 7 3 10 4 10 4 15 7 20 11l13 8 12 9 8 6c3 1 6 3 7 5 2 3 3 4 8 5 7 3 12 7 14 13 3 7 11 15 18 18l11 7c9 5 16 6 32 6a77 77 0 0032-7c5-2 11-5 14-5 4 0 5 0 12 4 9 6 14 7 21 3 3-2 4-2 8 0 5 2 13 1 17-2 3-2 3-2 8-1l8 3c4 2 8 1 13-2h34l1-5c5-12 13-20 24-24l6-2 9-17 11-21c3-6 12-16 14-17l9-5c6-4 7-4 7-8 1-4 2-7 7-14l9-11 7-8c4-7 5-8 4-16 0-11-2-17-9-26-9-11-14-20-16-24 0-3-2-6-4-7-4-3-5-11-6-29v-13l5-7 9-12 4-4v-24c1-4 1-5-1-8a484 484 0 00-6-14c0-3 0-5 2-7 2-3 2-4 2-10l-2-20-1-17c-2-6-8-17-11-20-5-4-7-9-9-23s-3-23-1-27l7-8 6-5v-15c0-15 0-15-3-21l-3-8c0-4-5-21-7-22l-5-4c-3-3-3-3-4-15-1-10-1-12-4-18l-3-8-2-2-12-11c-10-10-11-10-20-13-11-4-22-10-24-14l-2-6c-2-6-4-8-10-11a104 104 0 01-33-30c-3-5-3-6-2-9v-10l-1-11c0-6 0-6-3-9-4-2-4-3-3-6l1-10c0-5 0-7-4-13-5-9-7-11-15-14-6-2-9-5-9-10l-5-10c-7-9-7-9-8-19l-3-12-1-8-3-10c-3-6-4-8-3-10 1-5 1-5-4-15-4-8-4-9-10-12s-7-4-8-9l-2-6 15 1c1 1 2 0 4-4l2-6-6-1-6-1 13-1h13v-3c0-5-4-8-8-8-12 3-13 3-17 1-4-3-7-7-6-10 0-2 4-5 8-9 5-5 8-6 10-6h3v-9l-2-10-3-8c-3-8-7-15-10-19-2-3-3-4-3-9s0-5-3-7l-7-3c-6-1-10-4-12-10-1-3-1-4-3-4l-3 1c-1 2-2 2-6 2-5 0-8-1-11-4l-8-3c-4-1-9-3-13-6l-15-8c-6-2-8-3-8-5 0-3-7-3-11 0-3 3-3 3-6 2l-5-3c-2 0-3-1-4-3l-4-4-2-2c0-2 0-2-2-2-6 2-7 2-9 1-1-2-2-2-3-1z"/>
</svg>
