<svg xmlns="http://www.w3.org/2000/svg" viewBox="0 0 1024 1024">
  <path d="M104 68l-1 2-2 3H90c0-1-15 0-24 2-8 1-15 5-22 11-5 4-6 4-8 3-5-1-8 0-10 2h-4l-9-1c-9 1-11 2-12 12v11c2 2 2 6 1 6v2c0 2 1 3 2 3l4 1c1 1 3 2 4 1l5 3c3 3 3 4 3 8v7c1 3 1 4-1 7l-5 6c-3 3-3 8 0 10l2 6c0 3 0 3 4 3 4 1 4 1 4 4-1 3-1 3-5 4h-4v8c0 8-2 12-6 17l-3 4 3 5c3 3 4 4 7 4l7 2c3 2 3 2 4 1 1-2 3-2 9-2 5 0 7 0 8-2h8l7 3c5 0 6 1 7 3 1 3 3 4 6 4l4 3c0 2 3 2 7 0 4-3 6-3 3 0l-3 5c-1 1-2 2-5 2s-4 1-1 3l4 6c3 5 3 5 6 5 3-1 4 0 3 5 0 3 1 4 4 3h3c0 2 4 3 5 2l8-2c7-2 9-2 18 2l6 2 3 1c0 1 5 2 11 2l13 2h8c4-1 6-1 9 1 4 1 4 1 5 6 0 4 1 5 3 6l7 2c3 0 4 1 7 4l4 4 4-4c2-3 5-4 7-5l10-4 7-5v-4l-2-6-1-2 3 5c2 4 3 5 7 6l7 2c4 2 6 1 6-2s1-3 8-2l7 1 5-4c5-5 8-6 8-4l-1 1v3l7-4 8-4 2-1c0-1 1-2 3-2 2-2 3-4 2-7 0-2-1-3-2-3-4 2-1-4 3-6h14l29 1 6 2h5c3-1 5-2 5-4 1-3 2-3 8-2 6 0 6 0 9-3 5-5 10-8 12-7h2l3-3c3-1 3-2 3-5-1-5-8-19-10-20l-5-5-9-8-9-9-6-7c-2-5-3-6-6-6l-6 1c-2 2-2 2-6-2l-5-4c-2-1-3-2-3-5v-9c1-3 1-4-3-7-3-3-4-3-8-3l-5 2-3 2-6 2-5 1-3-6-4-4-2-1-5-2c-4-2-5-4-5-9 0-2-6-5-9-4-2 0-4 2-6 6-3 5-3 6-7 6-3 1-5 1-9-2l-4-4c0-2-4-5-9-7-5-1-10-5-10-7l-2-6c-1-3-3-5-5-6l-5-3-4-2-4-2c-3-2-5-1-8 4-4 7-8 5-8-4 0-6-1-7-4-8-3-2-5-2-8-1s-4 0-5-1v-7l1-2c0-3-5-3-8 0l-2 3-2-2c-2-2-6-3-17-5l-8-1h-5c-3 1-4 1-5-1-2-2-6-1-8 1-3 2-11 2-14 0-2-2-4-3-5-1z"/>
  <path d="M402 270c0 7-1 8-5 4l-5-3-2-2-2-1c-2 0-3 1-4 4l-3 4c-2 0-2-1-2-4 0-5-1-5-6-2-2 2-4 2-6 2-3-1-4-1-4 1-1 1 0 4 1 6l2 7c0 2 1 3 3 5l4 5c0 2 1 2 2 3h4c3 2 1 7-5 13l-5 6 6-1 11-1 7-1 10-1 10-1c2-1 11-3 13-2 4 0 7-1 7-3s1-4 3-5c2-2 3-7 1-7-1 0-6-5-6-7s-9-9-12-9-8-3-8-5-7-10-8-10-2 1-1 5z"/>
  <path d="M351 284l-2 1c-3-1-3 4 1 6h4c2-2 2-2 5-1 4 2 4 2 4 0l-2-2-2-3c0-2-6-3-8-1z"/>
  <path d="M366 297l2 1c2-1 2-3 0-3l-2 2z"/>
  <path d="M476 336l-1 3c0 2 0 2-2 1-4-2-6-1-9 2s-3 3-1 6c1 3 2 4 5 4s4 1 4 2c0 2-1 3-2 3h-6c-4 1-5 1-6 4-1 2-2 3-5 3s-3-1-4-3c-1-3-3-4-6-3s-5 6-5 11c0 4-1 4-4 2l-7-1c-3 0-4 0-4 2s0 2-6 1-7-1-10 1l-4 2-3-2c-3-3-11-4-13-2-1 2-7-3-8-7-1-3-3-3-3 0l-1 4c-2 4-1 5 6 7 8 3 10 5 8 9-1 4-1 4-3 3-3-2-6 0-10 7-4 5-6 6-8 6s-3 1-4 3l-2 2-1 2v2l-1 2-1 3c-2 1-2 2-1 3l-1 2-3 4c0 2 6 8 10 10 3 2 9 1 12-1 3-3 3-3 12-2l9 1v2l3 6c3 5 3 11 0 11s-3 2 0 6c2 3 3 3 6 3 4-1 4-1 3 1-5 3-7 5-6 6 3 1 4 2 2 5-1 2 0 6 4 7l2 3c0 2-3 5-5 5s-4 3-4 6l-2 6-2 7 1 4h-5l-8 1c-3 2-6 7-6 10v3l1 4c2 3 3 3 7 4l9 1c5 2 6 3 7 5 2 4 4 5 6 4h5c5 1 6 3 3 9-1 3-1 3 2 6 2 1 2 2 1 4s-3 2-6 1c-3-2-8-1-8 1l2 4c2 2 3 3 6 2h3v4c-1 3 0 5 1 8 3 5 2 6-2 6-3 0-5-1-7-4l-7-3h-4l-4 1c-4 3-4 3-4 13-1 12 0 14 4 15l2 3 4 3 3 4c0 3 3 8 5 10 3 2 3 4 0 4h-16c-8-2-11-2-12-1-3 2-1 6 3 10l3 4-3 5-3 7c-2 4 1 8 6 12s9 11 12 22c2 6 2 9 2 20l2 7 8 10c2 4 6 8 8 9l4 4c0 3 6 6 16 7l9 1-3 4-3 3 3 2 5 2c2 0 5 1 9 5 6 6 8 9 9 13l7 7 12 9 11 8 11 9c4 4 6 5 10 6l6 3 10 5 11 7 6 3c3 1 4 4 2 8-1 2-1 3 1 6 2 2 3 3 6 3s5 1 7 3c3 4 4 4 9 4l16 4c11 4 12 5 11 8l2 4 2 6c1 3 1 3 6 5 4 0 8 2 9 3 2 2 3 2 5 1 3-2 11-1 12 0 1 2 8 3 10 1 3-2 7 0 9 4l3 3 2 2c1 2 4 3 6 1 1-1 2-1 6 1 3 2 7 3 8 2l3 2c2 4 10 8 12 7h5c3 2 6 1 9-4 4-4 5-4 8-1 1 3 2 3 8 3s6 0 9 4c4 5 13 11 16 11 2-1 3 0 5 2 3 2 3 2 10 2l11-2c2 0 3 0 4 2 2 2 3 2 15 1l14 1 10 3 18 9 11 5 2 2c3 3 12 4 35 4 18 0 20 0 22-2l5-1c5 0 12-5 12-9 0-2 1-3 3-1 1 1 7-2 7-4l9-11 9-9c0-2-2-1-11 8-7 6-9 8-9 6l1-2 10-12c0-2-9-12-11-12l-4-1c-5-1-5 2 1 9l6 7-2 2c-2 1-3 0-12-8s-11-10-12-9l-2 3c1 1 0 2-1 2-3 0-4-2-4-4 1-1 0-3-1-5-5-7-5-7-3-9h2c2 2 2 2 6 0 3-3 3-4 3-6-1-4-4-8-6-8l-1-2 1-4c0-2 1-2 4-2h8c5-3 7-2 9 1l6 6c5 2 8 3 9 0l2-4c2-2 2-3 1-5l-2-4-1-9c-2-6-2-7 0-10 1-4 2-4 5-1 2 1 2 1 0 2-1 1-1 1 2 2 5 3 11 9 13 15l4 7 1 6c0 6 0 6 3 6 2 0 3 1 3 4l-1 6c-1 2 0 3 2 5l2 8c1 9 2 9 7 7 4-1 5-2 4-3v-4l-3-4c-2-1-3-4 0-3s5-1 5-6l3-7c1-4 1-4-2-5-2-1-2-2-2-4v-5c0-2 1-3 2-2l1-4c0-4 0-4-3-4-4 0-7-3-7-8 0-4 2-5 7-1 5 5 6 5 6 2-1-3-6-9-7-9l-1-3c0-2 1-3 3-4s4-1 7 1c3 1 6 3 7 5 2 3 5 4 5 2l2-1c3-1 4-4 2-6l-5-4c-5-2-6-5-4-12 2-5 3-6 5-7 6-3 2-5-8-4-6 0-7 0-8-3-4-6-1-12 4-12 3 0 5-1 5-4 0-2 1-3 5-3 4-1 4-1 6-4 1-6 4-8 7-8 4-1 5-3 1-4l-3-2-6-6c-5-3-8-4-12-1-1 1-12 4-13 3l2-3c1-3 2-3 4-2l6-2c1-2 4-3 6-3l16-2-4-5-6-9c-3-6-11-15-15-17l-2-4-2-3-16-8-4-5c-1-4-3-5-5-6-5-1-5-1-5-3 0-4-4-8-8-9l-10-7-11-9-6-4c-2-2-3-2-6-1-2 2-3 1-4 0l-5-3-13-6c-8-4-13-5-13-3l7 11c5 6 5 7 1 7l-2-1c0-2-3-2-6 0l-2 2 5 7 5 7h-3c-8-3-9-4-15-11-3-4-6-5-8-3-1 1 0 2 3 5 4 4 5 6 6 11 2 8 2 12 1 14-1 1-1 0-1-4s-1-6-3-9l-4-6c-1-1-3-3-5-3-5-2-5-2-5 0l2 6c2 2 3 5 3 7l3 6c2 3 3 9 0 11-1 1-1 1-1-4 0-3-1-5-3-8-3-3-4-4-7-4l-8 2c-3 2-4 2-5 1-3-1-4 0-4 3 0 2-1 3-3 4-3 2-3 2-3 7l-1 5-4 2c-2 2-3 2-3 1l1-2v-2c-3-3-6-2-9 0-2 2-3 1-1-2 1-2 6-3 9-1 2 1 2 1 4-1 1-1 1-2-2-4l-2-3-3-3c-2-1-3-4 0-3 4 2 10 0 15-4 4-4 12-15 13-19l3-3 6-5c2-4 3-5 7-7 5-2 5-2 6-6l3-8c3-5 3-8 0-9s-7 0-8 3c0 2-4 3-7 2s-2-1-7 2l-6 3-6 3-4 4-1 1-12 12-4 3-3 2v-10l-5 1-9 2c-2 1-2 1-2-1 1-3 9-6 15-6 6 1 10 0 10-4 1-4-1-6-8-9-5-2-6-3-5-5s2-1 6 0l8 3c4 3 8 4 10 3l4-5c2-4 2-4 0-7-1-2-2-2-9-2l-12 1c-4 2-5 1-2-3 2-3 4-5 14-8l6-2 6 5c7 6 12 8 16 6l2-4c0-2-1-3-3-4-2 0-4-2-6-5-3-5-4-6-8-7-3 0-3 0-3-3 2-7 2-7-2-9l-4-2-5-1-7-4c-3-3-3-4-5-2l-2 5c-1 4-1 5-3 5l-4 1c-2 1-2 1-2-3s0-5-3-8l-5-3h1l4 1c4 0 6-2 6-8 1-5 1-6-2-8l-3-2 4-3c3-3 3-3 2-4h-3l-6 1-8 1c-4 2-2 0 3-3s7-7 4-10l-5-2c-2 0-3-1-3-2l-3-1-7-5c-5-3-6-5-6-7 0-3-1-3-5-4-13-4-16-4-22-2-5 2-8 2-14 2l-13-3c-4-1-5-2-5-4 0-3-3-8-5-8l-2 1-2 2c-2 1-2 0-2-6 0-9-1-14-3-16-2-1-3-1-4 1l-2 5c0 4 0 5-3 6-2 1-2 1-2-2l-1-4-1-2-4-4c-3-2-4-3-2-5 2-1 1-4-1-4l-4-3c-3-3-5-4-7-2l-6-3-9-4-5-2c-3-2-3-2-5-1l-2 5c0 2-11 14-13 14l-5 4-7 8-3 4 3-7 4-9c3-3 4-7 3-12-3-5-2-9 0-12l2-5c0-5 2-6 5-4 3 1 5 0 5-3 0-2 0-2-4-2-8 0-28 12-29 17-1 4-7 10-9 9h-7c-5 0-6 1-7 3-1 5-2 6-4 6l-2 1c-1 1-2 1-6-1l-7-1c-1 1-2 0-2-1h-4l-3 2-9 5c-2 0-10 5-10 6l-3 1-6 2c-3 1-3 1-5-1l-2-4c0-2 6-10 9-10 2 0 5-6 4-7s0-2 2-5c4-4 5-9 2-11-2-2-1-5 1-6s2-1 5 2c4 4 6 4 8 0 2-3 2-3 0-5-1-2-1-2 1-7l2-4-2-5c-2-4-2-4-1-5 4-3-1-6-6-4h-5c-2-2-4-2-7-1-1 1-2 0-4-1l-4-4c-2-1-3-1-5 1l-2 2-2 2c-2 1-3 0-6-3-2-1-3-4-3-5 0-3-3-4-6-1-2 2-6 4-13 5l-13 5-11 2-11 3c-7 2-11 1-14-3-5-5-8-10-9-14 0-4 0-4 3-6l4-4 3-2c3 0 9-3 9-5l3-2c2 0 4-2 5-4l7-6c3-2 4-3 4-6 0-4 2-6 10-6 4-1 8-2 10-4l5-2c2 0 5-5 6-9 1-2 1-2-2-3l-4-3c-2-2-9-15-9-18l-2-2-5-3c-2-1-3-2-4-1zm349 391v-2l1-1-1 3z"/>
</svg>
