<svg xmlns="http://www.w3.org/2000/svg" viewBox="0 0 1024 1024">
  <path d="M577 4c-5 4-5 4-10 3-5 0-5 0-10 4-5 5-7 6-12 4l-3-1 3 2c2 2 2 3 1 5-1 4-4 6-10 6-4 0-4 0-3 3 1 1 0 3-4 10-4 5-6 10-6 11l6 4c6 3 6 3 3 7-1 2-1 2-12 1l-12-1-1-4c-1-2 0-3 3-7 7-7 5-9-8-8-8 1-9 0-13-2-7-3-9-3-11 3l-1 5 3 3c4 4 7 9 7 14 0 4-5 12-10 18-4 4-6 8-8 15-5 12-6 14-12 19-4 4-9 6-17 8l-6 4c-3 3-3 4-4 11 0 7 0 8-2 8-2 1-3 4-3 7 1 7-2 14-11 24-3 5-2 14 3 18 2 2 3 2 7 1h6c2 0-4 3-7 3-1 0-3 1-3 3l-7 5c-5 2-6 5-4 10 1 3 2 5 5 6 4 2 5 3 4 4 0 1 3 5 5 5l2 3c1 3 2 4 7 5h7c1 0 5 3 5 5l-2-1-4-1c-2 1-5 0-10-2l-7-3-8 4c-18 10-22 15-23 34 0 13 1 19 4 19l2 1h5c1-2 3 2 3 4 0 1 1 2 3 2 5 1 2 2-4 2-4 0-7 0-8-2-2-2-2-2-6 4l-4 4-3 2c-2 2-2 2-1 5 3 6 11 8 19 3h3c1 1 0 2-1 2-4 1-9 6-9 8 0 4-1 4-6 6-7 3-8 3-7-2 0-4 0-5-4-6-5-3-6-2-10 7-3 6-4 7-6 7-3 0-3 0-3 4l2 6-4 7-5 7v-12l-3-3c-6-4-10-5-17-1a420 420 0 01-49 22c-3 0-4 0-5 4l-6 7-3 5-2 2-4 2-9 7-8 7-8 8-7 5 2 7 1 7-1 9c0 10-1 10-10 10l-7-1-5 9c-5 8-5 10-6 16s-1 9-5 16c-5 10-6 12-1 18l2 5-3 8-6 15-6 13-6 10-8 15c-3 7-3 8-3 18 0 8 0 12 2 18l3 14c2 12 3 14 12 19l10 4 3 2c2 4 4 4 10 0 5-3 7-2 5 1l-2 4c0 2-1 3-5 3-4-1-4 0-5 2l-2 4v-5l-4 1c-8 4-20 13-23 17l-2 15-2 17c0 3 0 4 3 6 2 1 4 3 4 5l4 2c3 0 5 2 5 5 0 7 4 9 8 3 3-5 4-1 1 5-2 4-2 4-9 4-5 0-9 1-12 3-3 1-3 1-4 9-1 9 0 12 3 12l4 1 5 2c2 0 3 0 3 2s2 3 4 0c1-1 1-1 3 1l5 1c4 0 5 0 5 2l3 3c1 1 0 2-5 5l-9 4-4 3v7l1 5v3c1 4 1 9-1 13l-2 6c0 3-2 6-4 6l-1 3c0 3-10 22-13 24l-16 21-5 6-5 1-6-1-5-1-6-2h-7l-7 1c-2 0-2-7 0-9s2-5 1-5l-4-1c-2 0-2 2-10 20a309 309 0 00-14 39c-1 4-1 4 3 6 2 2 4 2 8 1s5-2 7-5l4-7c1-3 1-3 10-3l13-1c3 1 4 1 5-1 2-2 2-2 2 0l1 3c3 2 2 3 0 3l3 4 12 14 10 12c4 1 4 2 4 5 0 4 1 5 3 8 3 2 4 2 12 3 10 0 10 0 13-3l4-7 3-6v4l-1 9c0 5 0 5 3 7l7 3 8 4 5 3 4 2 8 3c6 0 7 1 11 4 4 4 6 5 11 6h9c2 0 3 0 4 3l8 6c5 3 6 3 16 2l14-2 8-2c6-1 16-12 16-16-1-3 0-4 5-1 4 2 4 2 8 1 6-3 6-2 6 2l1 5 13 4 7 4c13 12 32 16 50 10 10-3 15-3 24 2 9 4 15 4 17 0v-7l-2-4 4 6c2 6 4 8 8 10 5 3 7 4 18 2 4 0 6-1 6-2 1-2 12-5 19-5 6 0 8-1 9-4s2-4 5-4l12-1c8 0 11-1 15-4 3-2 4-2 13-3h11l8-7c18-17 18-17 27-18l13-4c8-5 8-5 11-5l6-3c3-3 8-4 10-3 3 2 5 1 12-2 4-1 9-4 13-4 6-2 16-8 24-13 5-4 19-10 20-9l3-3c3-3 11-7 14-7 2 0 3-4 1-5l-2 1c-2 1-1-1 1-5l5-4c9-4 10-5 13-13 2-7 3-8 9-11l8-3c2 0 2-1 2-3 0-3 4-7 10-11l3-2-3-3-6-2c-3 0-7-2-7-5 0-2 0-2 5-2 4 1 6 0 3-1l-1-2 4 2c4 4 7 5 12 3 2-1 3-1 5 2l5 2c1 0 10-9 13-14 2-5 4-15 3-20 0-3-1-4-5-5-6-3-10-6-11-11-1-4-1-4-2-2 0 1-1 2-2 1l-3-1c-2 0-2 0-1 2 3 3 2 3-1 2-2-2-3-3-3-7v-7c0-2 0-4-2-6l-4-8c-1-5-2-6-4-5h-7c-1 2-4 0-5-3-1-4-3-5-8-4l-5-1 1-1 4-3c1-2 2-2 5-1 4 0 4 0 3-1-1-2-1-3 2-8 2-5 2-7 2-16 0-8 0-11 2-12 1-2 1-2-2-4l-2-4c1-2 1-3 5-2 4 0 5 0 5-2l1-1 1 2 3 4c3 2 5 6 5 9s0 3 4 3l7-2 10-2h5l8-8 10-12 7-10c3-5 4-6 4-10v-5h11c11 0 12 0 18-3l6-3v-9l-2-9-1 1c-2 1-3 1-3-1 0-4 1-4 7-3h11c10-2 12-4 8-9-1-2-2-2-8-2-7 0-9-1-6-5l1-11v-10l7-3c8-4 10-7 8-18-1-7-1-9-3-10-11-8-12-11-2-19l2-4c0-2 0-2 4 0l3 3 1 1c1-1 3 0 4 1 2 3 7 2 9-2 1-1 2-3 4-3v-2l-1-5-2-5-3-5c-1-4-1-5 1-6 2-2 4-7 4-9l-2-2c-3 0-3-3 0-3l3-2 3-3c3-1 3-1 3-8 0-6-1-7-2-7-3 0-8-5-6-5 3 0 6-7 6-11-1-4-7-7-12-6-4 1-4 1-3-1 0-2 1-2 4-2 4 0 4 0 3-2l-2-3h-7v-7c0-3 0-3 4-3l5-1 7-1c9-2 15-7 15-15 0-6-2-10-6-14l-7-7c-2-4-4-5-5-5-4 0-5-2-7-11-2-8-3-9-9-11-2 0-3-1-4-3-3-5-7-9-12-12-4-1-5-3-6-5l-1-5-2-11c0-8-1-9-4-14l-3-8 2-4c0-4-2-6-7-7-4-1-4-1-6-5-1-3-2-5-7-7-6-3-6-3-8-2-2 2-2 6 0 6s5 7 5 11c0 6-2 5-7-3-5-6-9-10-10-9v4c1 3 1 4-2 4l-2-2c0-2 0-2-2-2-2 1-2 1-1-1 0-3-2-6-4-6l-4-7 3 1 3-1 4-1c4 1 4 0 3-4l-2-7c0-4-1-4-4-1l-6 2-5 1h-9c-2 0-3-3-2-3l4-2c3-1 4-1 7 1 5 1 9 1 9-1 1-2 0-4-1-4l-4-2-2-2 4-2 8-2 8-2c3-3 3-3 1-12 0-2 0-4 3-7 3-5 3-10-2-18l-5-10-3-6-4-5c-2-4-2-4-7-4-6 0-11-1-18-4-4-2-7-2-17-2l-11-1c0-3-3-7-4-6-4 3-10 1-10-5l-1-4c-1-2-8-3-11-2-4 1-4-1 0-2l5-2c2-1 3-2 2-3l2-1c2 1 3 0 4-1 1-3 1-4-3-4l-4 2c-2 3-4 2-4-2l-3-4c-2 0-3-2-3-3l-2-3-2-3c0-2-9-7-12-7-2 0-2-1-2-3 1-2 0-3-1-4v-4c2-3 1-5-2-4-2 0-3 0-3-2v-2l-2-1c-2-1-2-1-1-4l1-3c2-1-2-5-5-5-5 0-7-2-5-3l1-3 4-3c4-2 3-3-2-3-3 0-4 0-5-3-2-4-1-5 1-2 3 2 3 2 3 0 1-1 0-2-1-3v-4c0-2 1-2 2-1 3 1 5 0 3-2s-3-5-2-6l-1-5c-1-3-2-5-4-6-2 0-5-2-6-4l-3-2h4c5 1 6 0 4-10v-8l-4 1-4-1-2-3c-3-1-2-2 1-2h6c2 0 2-1 2-7l1-7c5-2-7-6-17-6-7 0-18-3-18-4v-5c0-2-1-3-4-2-5 0-6 0-9 3-2 2-2 2-3 1l1-5c3-3 2-5 0-5-3 0-6 3-6 6 0 4-4 5-13 2l-8-2v-1c2-2 1-3-1-5l-5-5c-1-3-2-4-4-3-4 0-5-1-3-4 2-4 1-5-1-7s-4-2-13-2c-11 0-12 0-18-3l-8-3-6 4z"/>
</svg>
