<svg xmlns="http://www.w3.org/2000/svg" viewBox="0 0 1024 1024">
  <path d="M466 2c-5 4-3 8 5 13 3 2 7 4 8 7 3 4 6 5 8 3l2-6c2-5 2-5 0-8l-2-4-5-4c-3-3-4-3-9-3l-7 2z"/>
  <path d="M509 21l-6 4-3 5c-3 4-11 5-14 2-2-1-2-1-3 1l-2 7-5 14c-3 5-4 9-4 11v9l2 11c0 12 1 14 7 16s7 4 7 14c1 8 1 9 3 11l3 7c1 4 2 6 5 9 5 4 10 16 10 22 0 3 1 6 4 10l4 6 2 3c3 5 9 11 11 12 3 0 13-3 16-5l2-7c0-5 1-7 4-11l4-6-3-6-5-6-6-4c-7-1-8-1-11-6-2-5-3-9-1-17 1-5 1-6-2-11l-4-8c0-4-6-9-11-10-11-3-14-7-14-19 0-11 2-21 6-23l6-7c4-6 9-13 11-13 2-1 1-1-2-14l-3-4-8 3z"/>
  <path d="M446 92l-4 3-4 6-5 8-1 4-1 4c1 2 3 3 5 3 2-1 3-2 3-5 1-6 7-17 10-19l3-4h-6z"/>
  <path d="M480 162l-5 8c-4 3-6 8-6 17 0 7 0 8-3 14-5 7-5 8-2 8l3 3 3 5c2 2 2 3 2 9v7l22-11c5-4 4-24-2-48-4-17-4-17-7-17-2 0-3 1-5 5z"/>
  <path d="M551 204l-3 3-5 5-6 8-3 7c-1 2 0 3 5 2l7 1c4 2 10 9 11 13 0 4 3 4 8 1l6-2 4-1c2-1 4-8 3-12-1-7-2-8-9-12-3-2-7-4-7-6l-7-8-4 1z"/>
  <path d="M486 230c-9 4-10 4-9 6s2 2 12 2c9-1 10-1 12-3l2-2-2-3-4-4-11 4z"/>
  <path d="M500 238l-15 1-13 1c-1 0-2 3-2 7l-2 9c-3 3-4 14-1 14l1 2 2 4c2 1 3 2 8 1 9-1 14-4 27-17 12-12 12-13 12-16-1-5-10-8-17-6z"/>
  <path d="M549 281v2c1 2 5 0 5-2h-5z"/>
  <path d="M473 287c-4 4-2 7 6 7s17-5 13-8l-9-1c-7 0-8 0-10 2z"/>
  <path d="M542 307c-3 2-3 3-2 5 0 3 3 4 11 2 6-2 7-4 3-6-5-3-9-3-12-1z"/>
  <path d="M550 316c-3 1-10 10-11 13l-2 13-2 15c-3 16 6 30 19 30 6 0 10-5 10-12 0-3 1-4 6-9l7-6c2 0 9-9 9-12 0-1-9-11-11-11-1 0-9-10-11-15-3-5-10-8-14-6z"/>
  <path d="M487 352c-2 2-2 4 0 6 4 4 9 1 9-4 0-2 0-3-2-3-4-1-6-1-7 1z"/>
  <path d="M463 355c-4 0-7 5-7 12l-1 5c-2 2-4 21-2 29 1 2-1 31-2 34v8l3 10c1 7 2 9 5 9l4 1c4 3 8 2 14-2 7-4 8-6 11-18 2-7 2-9 1-24l-1-26c-1-11-2-18-5-22-7-9-14-17-16-17l-4 1z"/>
  <path d="M543 392c-5 2-7 11-7 24 0 12 2 16 7 16s9-4 9-7l5-12c4-8 4-10 4-15l-1-7c-3-2-14-1-17 1z"/>
  <path d="M537 455c-6 7-11 17-11 20s2 5 6 5c3 0 11 7 13 12 2 6 4 7 8 8 3 0 4 0 5-2 1-3 6-5 12-5l20-3 2-6v-6l-2-3c-1-3-1-2-12 2l-11 3-4-4c0-2-2-4-4-6s-2-3-2-8v-8c-1-3-5-5-11-5-5 0-5 0-9 6z"/>
  <path d="M474 491c-7 1-9 3-7 7l1 5 3 7c2 4 2 4 1 7v7c2 2 3 2 6 2 6-1 13-4 16-6l4-7c1-4 1-4-1-10-2-7-4-10-9-12s-8-2-14 0z"/>
  <path d="M543 504c-1 1 0 5 2 7 2 1 2 1 5-1 4-4 3-5-2-7-5-1-5-1-5 1z"/>
  <path d="M542 516l-2 2v22l-1 25c-1 3-1 4 1 6 2 3 7 2 8-2s9-10 14-10c4 0 7-3 7-6l3-8 3-9 2-7 1-4-6-1-11-4c-5-4-14-6-19-4z"/>
  <path d="M482 533l-7 3c-3 2-6 11-5 14v23l5 4c2 1 4 1 7-1 5-1 11-5 13-8 1-2 2-28 1-32-2-4-3-5-14-3z"/>
  <path d="M495 597c-6 1-12 5-15 9-2 2-2 3-2 9l2 10 3 9c2 7 6 11 12 12 4 1 5 1 11-3l12-7 11-8 8-6c3-3 3-3 2-7l-3-7-3-4c-1-2-3-3-7-3l-11-3c-6-3-12-4-20-1z"/>
  <path d="M565 652l-3 2-6 2-14 7-13 8c-5 3-5 3-5 8-1 6 3 13 7 15 4 3 11 3 14 0l7-2c4 0 4 0 8-5l4-6-1-8c-2-10-1-15 3-18 3-3 3-4-1-3z"/>
  <path d="M522 813l-7 4c-1 1 3 7 6 10 4 3 5 4 3 7-1 1-13 9-16 9l-3 3-6 5c-6 3-9 10-6 20l2 9 1 6c0 2 1 3 3 5l4 2 4 3 8 6c5 3 4 3 17-4l10-5c7-1 8-1 12-4l6-5c4-3 7-9 7-14 0-2-1-5-3-7l-4-8-6-8-3-5c0-2-2-17-4-20-4-8-6-11-10-11-9-2-9-2-15 2z"/>
  <path d="M547 971c-1 1 2 4 3 3l-2-4-1 1z"/>
  <path d="M514 1009c-4 2-5 2-7 1l-3-2-1-1c-2 0-2 2-1 5l3 4c0 3 5 8 7 8s7-6 8-10l2-5c1-3-4-3-8 0z"/>
</svg>
