<svg xmlns="http://www.w3.org/2000/svg" viewBox="0 0 1024 1024">
  <path d="M373 2c-3 2-3 3-3 6 0 5 0 5 4 6 3 2 4 2 2 7v8c1 3 2 4 7 6l5 3 1-3c1-3 2-3 4-3l4-1 4 4c2 3 2 5 1 8 0 4 0 4 8 13l9 10-2 11-2 14c-1 1 1 3 6 7 10 8 18 16 19 18v17c1 7 2 8 9 17l7 11-6 7c-4 3-11 10-14 15l-7 8h-9c-8 0-9 0-11 2l-4 3c-3 0-6 2-6 4l4 2 3 2v6l-1 6 6 10 7 10-8 15-8 17c0 2-1 3-3 1-1-2-2-2-3-1-2 1-3 1-2 6 1 4 1 6-1 10-3 6-2 7 3 7 4-1 4 0 6 3v9c-1 5 0 7 1 12l2 5-2 3c-3 4-3 4-1 8 1 4 1 5-1 13l-5 12c-3 5-3 8 1 10 2 2 2 3 2 5-1 3 0 5 3 12l6 8 9 1 9 2-3 4-3 6c0 2-1 3-4 3-2 1-4 2-4 5-2 5-4 6-10 5l-6-1-7 5c-6 6-6 6-9 4l-8-2-5-1-8 11c-6 8-7 10-7 14 0 6 1 9 4 9 3 1 4 8 1 22-3 11-3 12-1 17l1 5-4 5-6 15c-3 11-3 10-7 12-2 1-3 2-4 5-2 3-3 4-8 7l-8 3c-3 0-3 1-3 4 0 4 1 5 7 5l7 5 3 5-5 2c-3 3-4 3-3 5l7 3 6 2 4 8 6 10c2 1 3 3 4 6 1 6 5 8 9 4l8-4 5-1 3 5 7 5c5 1 7 5 6 12-1 5 1 10 6 13 2 1 4 3 7 12 4 9 4 10 13 19 8 8 9 9 10 13 0 5 1 5 4 7h5c3-2 3-3 3-7 0-5 0-6 2-6 2-1 3 0 5 3l4 4 2-2 7-6 5-3 9 1c9 2 9 2 10 0s2-3 9-3l16-3c8-2 8-2 9 0l11 12 9 10v8c0 8 1 15 3 17l1 8c-1 8-1 9 2 15l3 7-3 4c-2 3-2 5-2 11l2 14 1 6-5 6-6 6-3 4c-7 5-8 9-7 18v9l-4 7c-4 6-7 9-13 14l-7 5v8c0 7 0 7 3 7l9 9 7 9-2 5-3 4 3 10 2 10 7 2c8 3 10 5 12 13 0 4 4 9 7 9l2 2 11 12c9 9 11 11 11 14 1 3 2 5 7 9l9 10c2 4 3 5 6 6l5-1c2-1 3-1 7 2 2 2 2 3 2 7s0 6-3 8l-7 4c-5 3-6 5-4 8l2 6c1 3 1 4 5 4l13 1h9v-10l-1-11c-2-1-1-6 2-13 2-5 2-7 1-9l-2-8c0-5-1-6-5-10l-7-9-2-4 3-3 6-3c4-1 5-4 5-10l2-7c1-2 2-4 1-5l1-9c2-6 3-8 6-11 8-7 11-8 15-8l4 3c1 2 6 3 9 1l11-3 11-5c1-2 4-4 7-5 5-4 6-4 3-8a860 860 0 016-59l4-20-2-9-3-16-1-7 7-15 7-16c0-2-7-4-10-4l-3 1 2-4 4-7c1-2 2-5 2-11l-1-8-19-25c-16-21-20-27-22-32a1326 1326 0 00-75-98l-3 15c1 3 0 5-1 6v3l1 3c0 3 4 6 8 5 12-2 16-1 18 5l1 4 2 4c2 3 3 8 4 15 0 3 1 7 3 10 2 4 2 7 2 10l1 5 1 3 2 4 1 6c0 3 1 4 2 5l2 4 2 4c3 2 3 5-1 9-3 2-3 2-4 1l-1-2-2-2-4-4-5-5c-3-2-4-4-5-6 0-5-5-11-8-12l-4-1-4-1c-2-1-4-9-4-15l-3-4-5-5c-1-3-3-4-5-3l1 3c3 4 3 6 0 4-2-1-4 1-2 2l6 9-3 3c-2 1-3 3-4 9v7l-6 2-8 2c-2 0-2 0-1-2 2-3 1-4-4-7l-6-6-4-5c-2-3-3-5-4-13l-1-10 3-3c3-3 6-8 6-11l2-5 1-4 1-5c2-3 2-3 0-5l-2-3-1-2c-2 0-5-3-6-7 0-3-2-5-2-3h-2c-1-2-2-2-5-1h-4l-4-5-4-7c0-2-1-5-3-6-3-3-5-11-4-14l3-6c3-3 3-8 0-15-1-4-1-5 1-12v-21l-2-2-2-5c-2-3-3-11-1-12 2-2 1-4-1-5-2 0-4-3-6-5-3-5-5-16-2-20l1-6-2-8c0-4-3-7-6-7s-5 0-4-1l-3-4-4-7-2-4c-1-1 1-12 4-18 2-5 3-8 2-11 0-3 0-4 3-7l4-3 3-2 4-2c1 0 2-1 1-5l1-4 1-3c0-2 1-3 2-3s4-2 6-5l6-5c4-2 5-5 5-13-1-6-1-9-4-13-2-4-2-5-1-7 2-3 2-4 1-6l-1-6-3-9c-2-4-2-5-1-8l-1-6v-9c2-1 2-3 2-8v-26l-1-22v-14c-3-2-2-4 1-7s3-3 3-6c-1-4 1-8 3-8l3 2v-1l-1-7c0-3-1-6-5-10l-5-7-4-4-5-5-5-6c-5-5-6-7-6-11s-4-11-7-14c-3-2-3-3-2-7l-1-8-2-5v-6c-1-5-1-5 1-8l3-3-4-3-8-6-6-6c-3-2-4-2-9 0-5 1-5 1-10-1s-5-2-9 0c-6 2-14 1-16-3l-7-9c-5-5-6-6-7-5l-12 1-9-1-8-8-9-8-3 2z"/>
</svg>
