<svg xmlns="http://www.w3.org/2000/svg" viewBox="0 0 1024 1024">
  <path d="M0 157l9 23c3 3 3 6 0 6v2l1 6 1 6c3 3 6 11 6 15 0 3 1 5 4 9l4 7-2 7c0 5 0 5 2 5 3-1 4 1 4 13 1 11 3 15 7 18 2 0 5 3 7 5l7 4c2 1 3 2 9 13l6 7 3 4 5 7c4 6 4 6 4 10l-1 10-1 6-1-2-2-1-1 2-2 3c-1 1 0 5 3 5l2 2c1 3 0 4-2 1-1-2-1-2 0 0l2 4 1 3c-1 1-5-3-5-5l-2-3-2-2c0-2-2-3-5-1h-4l-15-4c-1 1 3 8 5 9l4 3 5 4c2 1 3 3 3 7 1 4 2 5 4 6l4 1c2 0 3 1 3 3l6 4c4 1 5 3 8 7l3 6 3-2c2-2 3-2 5-1l4 2c3 1 4 3 4 5l2 4c2 0 7 4 7 5 0 2 8 8 10 8 5 2 11 17 11 27a52 52 0 01-4 22v8l5 3c3 0 4 1 5 4l4 4c2 0 3 1 3 2l3 3 3 3c0 2 5 6 6 6 2 0 12 10 15 14l4 6c1 0 3 1 3 3l6 4c5 2 5 3 8 17l5 9c3 3 3 3 7 1l4-4 3-2c3 0 6-2 6-3l2-5 2-4-3-4-5-5-2-4-3-6-2-7c0-2 0-3-2-3l-5-4c-4-5-7-7-9-5l-1 2c1 1 0 3-1 4h-1l-3-1c-2 1-3 0-6-8-2-5-3-9-1-11l2-4c0-2-4-11-7-14l-2-7c0-5-1-7-4-10-5-5-6-9-7-16a99 99 0 00-4-26l-3-4-4-6c-1-3-1-3-2-2v4c3 7 3 8 1 8l-3-5c-1-3-2-7-4-8-2-3-2-3 0-6 1-2 1-2-1-2s-5-4-8-13c-1-4-3-7-5-8-10-8-9-8-9-16l-1-9v-3c0-3-1-6-4-6l-4-3c-1-5-5-12-6-12l-2-2c-1-2-2-3-3-2-2 0-2 0-4-10l-4-8-4-6-3-3-6-6c-1-3-3-5-4-5-2 0-3-1-3-3l-2-4c-3-2-4-10-3-14 2-5 1-20 0-22l-2-10-1-12 1-3c4 0 2-7-3-13-4-6-2-6 3-1l12 10c9 8 16 11 19 6 1-4 2-4 5-1l4 6 1 5c11 3 14 6 13 12-1 7 2 19 5 23 2 4 2 6 3 15 1 8 1 11 5 19l4 10 3 5c2 2 4 5 4 8 1 4 3 6 9 10 1 1 1 1-1 1-3 0-3 2 0 4l4 5c1 3 6 6 9 6 1 0 2 1 3 6l3 7 2 4 4 4 5 2c1 2 2 2 3 1 2-2 7 0 6 2-1 4-1 9 1 12s2 4 1 4c-3 0-2 3 0 4l7 5c3 3 6 4 8 4l5 2v3c-3 0-2 2 2 7l4 5h11l3 6 5 8c3 0 3 4 0 4l-2-2c-1-2-3-1-5 4l-2 11c0 6 0 7 9 15 4 3 8 4 8 2l2 1 16 10 3 3 5 5c6 3 9 11 3 10-4-1-4 0 0 5 3 4 4 4 5 3h3l4 2 3 2h-4l-3-1c-2 1 9 9 11 9 3 0 10 7 14 15l5 7 2 2 5 8 5 9 3 3c3 0 8 5 10 9 2 3 3 4 6 5 6 0 6 1 7 5v13l1 8 3 9 3 8c0 2 4 7 5 7 3 0 5 3 4 5l-1 6c0 5-1 7-6 13-4 5-5 6-3 6l9 6c0 1-6 4-9 4l-6 3-3 3 3 3 3 4 4 8 3 7 2 2 4 3c5 10 6 13 9 14l4 3c2 2 14 6 15 5l1 2c0 3 1 4 10 6 7 2 11 6 13 11l3 3 4 5 4 5c2 2 11 5 15 5l4 2c2 2 4 3 9 3l11 3c4 2 5 2 8 1h5l4 2c1 0 4 2 6 5s5 5 6 5l2 3c1 1 3 3 7 4l7 6 3 2 4 1 16 7 13 4 8 3 3 2c2 3 5 4 10 4l10 1 5 1 4 2 7 2c2 0 4 1 7 4 3 4 5 5 10 7l7 1 5 2c7 5 15 8 22 8l9 2 4 1 8 3c5 2 6 2 14 2 7 0 9 0 14-3l8-3c4 0 19-6 21-9 2-2 7-4 13-5l6-1c1-1-1-3-4-3s-3-2 0-3h5l4 1c1-1 5 0 5 1h-2c-2 0-3 0-4 2s-1 2 3 2l13 3 10 3c0-1-3-3-8-4l-7-5c0-2 0-2 8 2l10 4c2 0 2 0 1 2 0 2 1 3 5 5l6 2-1-3-1-1 25 22 7 5c2 1 5 2 6 5l16 16c2 0 4-7 4-11l2-7c1-3 1-3-1-6l-3-2 8-17 8-16 23-1 24-2 1-6 1-5-4-1c-4-1-7-4-7-8 0-1-1-3-6-5l-7-4-5-5c-3-4-5-5-7-6-7-1-4-2 4-2h8v-22l3-1 50-3c11 0 14-1 14-4 0-2 3-3 5-2l4 2 6-12 7-12c3 0 7-2 7-5l3-3 2-4 1-3c1 0 2 3 2 7 0 6 0 6 2 7s3 2 3 4l2 4c2 2 2 2 3-1l3-12a141 141 0 014-21l2-4 2-2c0-2-3-1-6 0-1 2-2 2-2 1-1-2 1-5 2-5l4-3c3-2 3-3 2-6 0-2 0-2-2-1 0 2-1 2-1 1s-1-1-3 1l-3 1v-3l4-6 2-8 2-11c2-3 3-7 2-8l1-2c3 0 8-5 8-7l3-7c2-3 3-6 3-10l-1-7-4-4c-2-3-7-4-7-3 0 3-2 4-11 3l-12-2c-5-1-15-2-15 0l-5 1c-4 0-15 4-15 6l-2 1-5 2-11 2c-10 1-17 3-27 7-14 7-14 8-15 31 0 16-1 18-3 21-2 4-3 6-3 13l-1 8-6 6c-3 3-8 8-12 10l-6 6c0 2 1 2 4 1 3 0 3 0 3 2l2 3c2 2 1 3-2 2-3 0-4 0-7 3l-6 3-5 1h-1c0-1-1-3-3-3-3-2-3-2-1-2s2 0 1-1c-3-2-21-4-23-2l-1 2-3 1-7 3c-4 4-9 5-16 5h-7l-6 2-4 3c0 2-3 4-5 3l-8 2c-10 3-19 3-20-1l-2-3-2-3c0-2-4-5-6-5s-4-1-5-3c-2-2-2-3-10-3l-10-1c-4-2-4-1-1 2s3 3 0 2l-6-1-4-2-2-2-1-1 4 1c4 2 3 0-3-6l-6-7-4-5-6-12-5-12-4-5-3-4c-1 0-2-1-1-2 0-2-6-7-8-7l-2-1-3-4-5-8c-1-3-3-5-4-5v-1l-1-5-4-8c-1-3-2-7-4-9l-3-7-2-6-1-5c0-3-4-8-5-6-1 1-1 1-2-1-3-2-2-2 0-2 2 1 2 0 2-7l1-10v-2c-2-1-2-2-1-5l1-1c0 2 2 4 3 2v-7l-1-5c-1-5 0-7 1-16 1-2 1-2-1-2s-2 0-2-2l1-4v-14l-1-11-2 1c-1 1-1 0-1-3s0-4 1-3c2 2 3 1 3-5l1-7v-4c-1-1-2-3-1-4l-1-5v-2c2-1 2-1 1-3-2-2-1-2 2-1 3 2 5 1 4-2l-1-2h4c1 1 1 1-1 5l-3 7 1 4 3-3 2-8c2-2 4-8 5-12 3-6 3-7 2-10-1-4-4-5-6-2-1 1-1 1-7-2l-15-4c-7 0-10-1-17-5l-13-5-6-3a159 159 0 01-15-31v-6c1-2 1-3-2-6l-3-3c-2 0-10-8-10-10l-5-7c-8-8-8-8-10-14 0-4-2-6-3-7l-6-10-7-12-4-6c-1-2-3-4-5-4l-5-4-2-2-3-2c-1-2-9-4-17-4l-9-1c-4-2-6-2-7 0l-5 3c-5 0-9 5-10 13l-4 8-4 4-4 3-4-1-5-3-4-3-6-2-8-4-8-6-5-4-5-6c-3-5-4-8-5-14l-3-10-1-5c0-3-3-7-9-10-5-3-13-12-13-14l-3-2-9-7-7-6-4-5c-1-3-3-5-5-6l-3-2-22-2-27-1-7-1v9l-1 9-83-7-14-2-36-18a2069 2069 0 00-76-38l2-4 2-2-76-1z"/>
</svg>
