<svg xmlns="http://www.w3.org/2000/svg" viewBox="0 0 1024 1024">
  <path d="M196 1c-3 7-4 16-4 20 1 5 1 6-1 8s-2 2-1 6c1 6 0 12-4 14-2 2-2 3-2 10s0 8 5 16l7 10 4 8c1 4 4 9 7 13a97 97 0 0115 49v19c-2 11-2 14 0 17 1 1 1 1-2 1l-3-1v9l4 14c2 6 4 16 3 23-1 5-2 6-7 5-3 0-3-1-4-4-2-8-5-9-23-11l-5-1 1 8 1 12 1 8c0 5 2 8 7 12l7 2c3-1 4-2 8-10s4-8 7-8l9 3 5 3v15c0 17-1 21-6 31-2 4-3 6-2 8 1 4 3 7 5 7 1 0 2 1 2 4 2 9 6 14 9 10 2-3 5-1 11 4l5 5-2 6-2 6 2 3c2 3 3 3 9 3h7l-2 2c-1 2-2 2-4 1-3-2-5-1-6 6-2 5-2 6-1 9l4 5c2 2 2 2 2 0 0-3 0-3 4-1 3 1 5 4 5 7v2l-2-2-4-2c-5 0-6 2-6 7 1 4 4 7 8 8l3 1-3 3-4 8c-1 9-1 10-4 11-2 0-2 0-2 14 0 12 0 13-2 16l-3 3-1 6c0 5 0 6 2 6l3 1 2-5c1-6 4-9 5-6 1 2 4 1 6-1h3c1 1 0 1-3 3l-5 3v10c1 2 1 2 2 1 3-3 12 1 19 7 4 4 5 6 3 14-2 7-4 9-7 9-2 0-3 1-4 3-1 5 1 13 4 18s4 6 10 7c4 0 5 1 6 3v4c-1 1 0 3 3 5l15 11 3 5 4 4c2 0 12 9 16 14l6 13 9 17 5 11 3 3c5 1 11 7 17 16l4 4c3 1 5 6 5 13 0 9 1 12 5 16l5 8c1 4 1 4-1 6-3 3-10 5-11 2-2-4-2-4-7-2l-5 1 2 3c3 4 4 5 1 8-3 5-3 13 0 15l5 7c3 4 9 8 13 8l7 2c4 2 5 3 5 5 2 8 4 11 15 18 8 5 13 7 21 10l11 4c1 2 9 5 12 5l6 3c3 3 3 4 3 7-1 3-1 4 1 5 4 2 9 7 9 10l2 6 2 5h6c7 0 7 0 11 4 3 3 5 4 8 4s4 0 8 6c7 12 18 21 22 21l3 1c2 1 11 5 14 5l6 3 6 3 6 3c5 3 5 3 12 3 7-1 8-1 10 1l4 4c2 1 3 2 4 5 2 7 4 11 11 19l11 13 5 6h8c11 1 15 2 20 6l6 4 2 3c0 2 9 9 14 11l7 5 6 3 4 2 12 6c6 2 11 5 13 8 4 4 9 6 12 5l5 3c1 2 5 4 8 5 4 2 5 4 7 7l2 6c0 2 1 4 3 5 5 4 9 15 8 21 0 4 0 5 3 8l5 6c3 2 3 2 5 0l9-1h8l4-6 9-14 6-9 8 1c7 0 9 0 15-2l6-3 4 5 5 5h13c15 0 18 1 19 5 0 2 1 3 3 4 1 0 4 1 5 3 2 2 4 2 9 2s6 0 8-3l5-6 3-3c2 0 3-1 3-2l1-2c3-1 2-7-1-14l-4-17c-2-10-7-25-12-37l-3-7c0-1-1-3-3-3-5-2-6-5-6-12s-3-15-14-35l-11-16c-5-4-5-6-2-9 2-2 2-2 0-4l-2-8c0-5-1-6-3-6s-9-9-12-16l-4-6c-2-2-3-7-2-8s0-3-1-7c-4-9-6-12-15-17l-13-6c-6-2-19-12-23-17l-7-8-4-5-3-8-3-7 1-12c1-14 1-43-1-63l-2-12 4-12 4-14c1-2-2-8-8-12-3-3-6-6-10-13-7-13-9-18-8-22l6-15c5-15 8-22 12-23l3-1-2-4-4-10-3-6 3-8 4-10 2-8c0-4 0-4 2-4 4 1 6-1 9-10l2-8-2-6-3-8-2-6c-1-4-1-9 2-12 3-4 3-10 0-16-3-4-3-5-3-15v-12l-2-8c-1-8-2-9-8-20a608 608 0 01-37-70l-8-16c-2-8-6-13-16-21l-12-11-15-9a227 227 0 01-47-40l-11-11-12-9c-6-5-7-7-9-13l-4-14c-2-8-3-12-9-20-7-10-14-15-25-16-6 0-18-3-21-5l-1-4-2-3c-1 0-9 8-9 10l2 7 1 7-5 6-9 10-5 4-6 9c-7 9-7 12-3 16l2 3-2 3-4 3c-3 0-17 14-17 18-1 5-4 4-8-3-3-4-4-5-6-5l-7 2-3 2v-3l-3-8c-2-3-5-7-5-10l-4-4-3-3-4-7c-4-4-4-4-5-2l-9 6c-7 5-8 5-16 6h-8l-2 5c-3 4-8 7-14 7-3 0-4 2-6 5-3 4-3 4-2 8 2 5 0 9-5 12l-9 6c-7 6-10 6-10 2s-5-14-9-18l-8-4c-5-3-7-6-5-10 2-1 2-3 2-5v-7c1-4 2-5 4-6l6-1 4-2 3-5c2-3 2-3 0-9l-1-6 2-5 3-7c0-2-3-3-7-3-5 0-7-2-5-6l4-4c3-1 5-5 4-9-1-5-3-6-11-5-7 0-8 0-12-2l-3-3-4 3c-3 4-3 4-6 3l-5-1h-4c-3 1-4 0-3-4 2-5 1-8-3-13-3-3-3-3-3-9 1-8 0-11-3-11s-5-3-5-7c0-5-2-5-9 0s-10 6-14 3c-5-4-12-6-18-6-5 0-5 0-6-3 0-3-2-4-9-4-5 0-8-1-13-5l-7-5c-2-2-3-2-2-4 2-5 1-10-2-16-4-6-6-7-9-5h-8l-5-1z"/>
  <path d="M125 44l-2 5c-1 3-1 3-6 3l-10-1-10-2-4-1v5c0 5 0 5 4 7l6 2c2 0 2 1 2 3l1 8 1 18v3l2-3 2-7c0-3 0-4 4-6l6-6c2-3 5-3 8 1 3 2 3 2 9 1l6-1-2-4c-2-4-2-9-1-12l1-5c-1-2-2-3-5-3-4 0-5-1-5-4s-1-3-3-3l-4 2z"/>
  <path d="M124 79c-4 2-6 7-6 14 0 2 0 3 3 3 2 0 3-1 5-6 3-5 4-13 2-13l-4 2z"/>
</svg>
