<svg xmlns="http://www.w3.org/2000/svg" viewBox="0 0 1024 1024">
  <path d="M823 4c-2 3-4 4-6 4-3 0-8 2-11 5-2 3-11 9-16 11l-21 7-5 2-7 6c-5 2-6 2-17 2s-12 1-16 3l-6 3c-4 0-8 2-11 6-4 5-9 4-13-1-5-4-8-5-20-6-10 0-11 1-15 9-2 5-3 7-9 10-5 3-6 3-15 3l-11-2-6-1h-8c-2 1-5 1-9-1-2-1-3 0-6 3-5 5-13 8-16 4l-11-1-9 1v-2c0-4-2-8-3-8l-3-2-5-2-2-1c0-2-2-4-6-4-3-1-4-1-5 1l-3 2-4 3c-1 4-6 5-12 4l-19-1h-14l-1 7c0 8-2 15-3 17l-2 5c0 3-1 5-3 5l-4 3-4 3v8l-1 5-1 4c-1 1-1 2 1 4l3 5 1 4c1 2 1 4-1 11s-2 8-1 11 2 6 1 12c0 7 0 8 2 11l2 5 16 23a367 367 0 0131 43l9 11v7l1 8c1 1 0 3-2 9l-4 6 2 7c1 8 1 19-2 25l-2 14v10l-6 3c-4 3-6 3-13 3l-9 2-5 14-2 8-3 2c-2 2-1 5 2 8 3 2 5 8 3 12v8l-1 5c0 3-1 4-8 2-2 0-3-1-3-3-1-3-1-4 2-7l4-5-6-4c-1 1-4 0-4-2l-2-2c-3-1-6-5-6-7l-7-9-7-8c0-2-3-5-7-6-2-1-3-2-4-6v-7c2-3 2-5-4-9-3-3-4-4-4-6 0-3 1-4 4-6 5-3 9-10 8-14-1-3 0-7 3-9l2-2 2-4c2-1 2-2 2-6v-16l-1-17c0-4-1-5-6-12-7-6-7-6-9-5l-7 1-6 1c-1 1-2 2-3 1-2-1-8 1-11 3-2 2-2 2-2 0-1-2-5-1-6 2-1 4-3 5-4 2 0-2-2-5-5-7l-6-10-4-8-3-5-2-5a947 947 0 01-51 12 208 208 0 00-58 20c-3 2-7 4-23 7-19 3-20 3-38 12-19 8-19 8-20 12 0 4 1 7 6 15 2 4 3 5 2 8v5l1 16v13l14 1c12 0 14 0 15 2 2 2 2 2 6-1l8-2c4 0 5 0 10 5s7 6 13 7c5 2 8 3 12 7l6 6c1 3 9 6 18 6 8 1 11 2 20 6l10 4v4c0 4 0 4 5 4l8 1h3l-7 13c-2 0-2 0 0 3 1 2 3 7 3 12l3 10v4c-3 3-4 7-3 11 2 4 1 15-2 17-1 1-2 2-1 5l-1 7c-1 2 0 4 1 7l2 7 1 5c2 3 2 3 0 5l-1 4-1 1-7 3c-1 1 0 4 2 7 2 4 2 5 0 7-1 2-2 3-5 3-5 0-8 2-8 4l-1 4c-2 2 0 5 4 4 3 0 3 0 3 2l1 3v3l-2 8-2 6-3 5c0 3 0 4 2 6 3 2 3 3 2 6 0 3 0 4 5 7 6 4 6 4 5 8l-2 8c0 3-1 5-2 5-4 2-8 7-9 10l-1 4-6 8c-4 6-7 8-9 8l-5 4-3 3 1 8 1 8-5 6-5 8 2 6c3 5 3 5 1 5l-20 17-37 35c-22 20-20 15-18 40 2 17 2 31 1 36-1 4-1 5 2 11s4 10 4 16c1 7 1 8 6 11l4 5v8c0 6 0 9 2 11 2 4 2 11-1 31a1537 1537 0 00-6 73l3 2-1 9 1 31c1 16 0 15 23 16h16l3-7 3-11c0-6 4-27 6-32 2-6 2-6 0-6-3 0-5 5-5 9s-1 4-3 0l-5-4c-2 0-3-1-3-4l-3-6c-1-3-1-3 2-6s4-4 3-6l1-4c1-1 1-1 2 2l2 3v-3c3-12 5-14 15-20 13-8 44-20 65-26 35-11 59-19 66-23 6-3 8-5 13-11l8-9c4-3 9-10 9-13 0-2 1-5 3-7l2-8c-1-4-4-5-4-2-1 4-3 4-3 1-1-3-2-3-3 2s-2 6-3 6l1-6 2-9c0-2 1-3 1-1 0 4 2 1 2-4l3-13c3-5 4-10 4-12 0-3 1-6 4-11 6-7 6-9 4-8-2 0-3-3-3-14l1-12 3-11c0-6 0-8-2-11l-1-3-3 3c-5 5-6 4-6-7a254 254 0 000-22c1-3 1-5-2-9-2-4-2-5-2-13l1-9-2 4c0 3-2 5-2 5v-4l-1-7 2-4c4-3 4-5 1-5l-7 2h-4l5-2 5-2c1-2-2-17-4-19s-2-2-2 0l-2 2c-2 1-2 0-2-2l-3-6c-2-1-3-3-3-5l-1-2c-1 1-2-2-1-3l3-7c2-4 2-5 0-6-1-2-1-2 2-1l3-1-1-3-1-4 1-6 2-4c2-2 2-2-1-5-3-4-3-5 2 0 4 3 5 3 8 3 5-1 15-7 21-12l5-4 1-2 2-2 12-10a137 137 0 0120-18l6-2 7-4c1-2 2-2 2-1l3 1c4-1 5 0 2 2-1 2-1 2 1 2s3-1 3-3 2-3 2 0c0 2 1 1 3-2l2-6c0-2 2-8 4-8a347 347 0 0029-29c-3 0-3 0 0-2 1-1 3-2 4-1l3-3c8-13 11-16 13-18 3-1 3-2 3-5h5l6-4 8-4 3-2 15-7 5-3 8-1c4-2 5-2 5-5 0-4 2-6 2-3 1 2 3 3 10 1l8-2 3-2 5-2 7-1c0-2 1-2 1-1 1 2 8 1 11 0l6-2c5 0 8-1 6-3-1-1-1-2 1-3l2-2 4-2c2-2 3-3 2-4-1-2-1-7 1-7v3l1 3c1 1 14-5 17-7 1-2 6-4 9-6 9-5 10-5 8-7l-1-6c-1-4-1-4 2-4l3-1c0-2 1-2 3 0s4 1 7-5l5-8c2-3 1-3-2 0h-2l4-4c6-4 17-14 18-17l7-6 5-6 2-4c5-3 7-12 4-15h-2c0 1-3 2-4 1-1 0-2-1-1-2 0-1 8-5 10-4 1 0 1-4-1-7v-2l1 1c1 2 7 3 7 2l-4-5c-4 0-3-2 1-2 5-1 8-4 8-8l-1-7v-3c2-1 3-5 1-5l-2 2h-2l2-2c3-1 3-2 3-4-1-5-4-5-7-1l-3 4c-2 3-2 3-1-1v-6c0-2 1-2 3-3 3-1 3-3 3-8 0-4-2-4-5-2l-2 1-2-2c-2 0-1-3 1-4l2-2 1-3v-4c-1-1 0-2 1-4v-5l-2-10c0-6 0-7 2-8 2-2 2-2-2-3l-3-2 3-5c3-4 3-5 3-13l1-12c3-6 2-7-1-7s-3 1-3 2l-1 3c-2 2-4 0-4-4s0-4 5-4c2 0 3-1 3-2 0-3 2-5 4-4 1 0 3-2 2-4l-2-2c-1 1-1 0-1-1l2-2v-2l-1-4c-1-4-1-4-3-4-2 1-3 1-3-1-1-2 0-3 3-4 3-2 4-4 1-4l-1-3-2-4-1-2 2 1c1 2 2 0 2-3l3-20-1-5-1-4V70l3-8c-1-1-1-2-2-1l-3-2c-2-2-3-3-1-3l3-2 5-3 1-2c-1-2 0-4 2-6 2-3 3-6 0-6l-1-3c0-3 1-4 4-5l3-4-6-2-1-2c0-2 4-4 8-4h3l-2-2-3-4c1-1 1-2-1-2l-3-1 1-1 1-2-1-3-2-1-4 3z"/>
</svg>
