<svg xmlns="http://www.w3.org/2000/svg" viewBox="0 0 1024 1024">
  <path d="M91 48l-13 6c-4 3-17 8-20 8l-8 1c-5 1-6 1-13-3l-11-4-13 4C1 65 1 64 0 84c0 13 0 14 3 31 4 17 4 18 7 20s5 5 7 10c3 11 6 16 12 25 4 7 6 8 10 9a1556 1556 0 0159 93c9 18 13 26 21 48 10 25 10 27 21 43 15 23 30 52 30 56-1 2 0 3 8 10 7 7 10 10 13 17 3 6 7 11 10 14 6 5 5 4 8 22l1 13c0 8 0 8-2 7h-4c-3 1-3 5 0 23 2 13 2 14 1 18-2 3-1 4 0 8l4 15 2 11-2 7c-2 6-2 6 0 18l5 18 5 14c0 4 3 9 5 12 7 11 9 15 10 26l-1 14c-2 3-2 4-1 10l1 20v13l4 8c4 9 5 14 2 14v4c1 11 1 11 6 14s6 4 10 13l5 10-3 1c-2 1-2 1-3 6 0 5 0 7 2 9 2 3 3 6 4 13 2 14 6 25 16 41 7 10 9 15 9 17 0 3 1 5 6 10l7 10a554 554 0 0153 57l1 3 3-4c4-4 4-4 12-5 11 0 12-1 14-14l3-7 2-3 2-6c1-3 3-4 6-5 5-2 8-1 9 4 2 6 2 6 9 9 8 2 9 4 5 10-4 5-4 8 0 11l3 8c2 6 3 6 10 4 4-1 4-1 7 2s5 3 11 4c7 1 8 1 13 6 3 2 7 3 23 3 10 0 11 0 13-2l6-2 9-1c7-2 14-1 16 2 6 8 5 8 12 6l9-1c4 0 5-2 4-7 0-6 1-7 8-7 5 0 5 0 7-3 3-7 8-13 11-13 6 0 25-6 27-9l9-254 5-170 2-71v-6h37l37-1 11-276v-3h17a4463 4463 0 01162-28c1-1 2 3 3 8s4 11 6 14c3 4 3 6 3 11 0 4 0 6 2 7 3 3 8 2 10-2 1-3 3-4 7-6 6-3 7-4 9-7 4-10 6-12 19-20l11-8 14-1 18-3c4-2 9-2 17-3 11-1 12-1 15-4l4-3-4-6c-4-4-5-5-13-8-9-3-11-3-18-2-8 0-9 0-22-4l-13-4-25 5a1940 1940 0 01-83 18l-103 20-8-2-23-1-26 1c-6 1-6 1-15-3-12-5-17-6-28-6a931 931 0 01-77-7c-15-1-18-3-38-23l-17-17H191l-3 3c-6 4-18 2-27-5l-8-4c-4 0-5-1-8-5l-8-10-6-6h-8c-6 0-9-1-11-2-4-2-10-1-21 3z"/>
</svg>
