<svg xmlns="http://www.w3.org/2000/svg" viewBox="0 0 1024 1024">
  <path d="M48 197v4l-1 3 1 3c4 5 10 12 12 12l4 2c4 2 5 1 2-3l-3-6-4-5c-3-1-8-7-8-8l-1-3c-2-1-2-1-2 1z"/>
  <path d="M0 200c0 3 1 3 3 5 3 1 4 1 4 4s3 5 4 3c1-1 1 0 1 2v3c-2 2-1 6 1 6l1-2 1-2c3 0 8 4 9 7s1 3-2 6c-3 4-3 4-1 6l3 2 1 3v3h-6c-6 0-10 1-10 3l4 6c2 3 4 5 3 6 0 2 2 3 6 2 4 0 4-1 4-6l2-4c2 0 4 4 2 8v3c3 1 2 2-1 4-4 1-4 3 0 3l4 1c2 1 2 1 2-3v-5h5c4 0 5 0 8 5l4 7 3 4 2 2-3 3c-3 5-5 5-11 2-5-3-5-3-4 0l3 4c8 6 10 8 11 13l2 7c0 2 1 4 5 7l6 8c3 3 9 8 12 8l2 2 1 3h3c2-2 4-2 4 1l3 5 3 6 4 7 6 7c3 6 6 8 9 9 5 2 7 4 5 8 0 2-1 2-6 2l-5 1c0 2 4 4 6 4 3 0 6 3 6 5l5 6c3 2 5 5 5 7 0 1 1 2 8 4s7 2 8 6c1 3 2 4 5 4l5 1c1 1 1 1 2-1 2-1 2-1 3 1s2 3 1 4 0 2 5 4c4 2 5 2 5-1s2-2 3 1c0 2 1 2 3 2 4-1 11 4 9 6l-3 1-1 3c0 3 0 3 4 3 3-1 4 0 4 1 0 2 2 2 4 1h1l-4 2c-4 0-4 3-1 5l3 4 1 1 4 3c1 3 2 3 7 2 1 0 2 0 2 2 0 3 2 4 4 4s3-1 4-4l3-5c2 0 3 3 0 5v3l3 1v3c0 3 1 4 3 2 1-2 4 0 4 2l2 3v2l-1 7c0 7 0 7 3 11l4 4 5 5c3 3 7 7 8 10 2 4 3 4 5 4 5 0 7 2 5 5v6l1 4c0 4 1 5 5 4 4-3 4-3 3-6-1-2 0-8 1-8l2 3c0 5 0 5 2 5l2-2c1-3 2-4 4-1 1 1 0 2-1 3l-2 3h3l3-2 6 6-4 3-3 2 2 2 3 1 2-2c1-2 1-2 3 0l2 2 5-4c4-3 4-3 4-1l1 5 1 2 1 1 3 4 2 4c0 3 5 11 7 11 3 0 9 3 10 5l4 1 3 2c0 2 3 3 5 1s4 1 3 5c0 4 2 9 6 10l10 4 10 4 15 4 5-1 4-2c2 0 2 0 1 2l-1 3c1 2 5 3 6 1h2l-2 1c-3 1-2 4 5 10s10 7 20 9c5 0 7 1 11 5 6 4 8 5 8 2s2-4 4-4c2 1 3 5 1 5s-1 2 1 4c2 1 9 1 9-1s3-8 5-8l1 4c0 2 1 4 5 6s4 3 2 4c-1 1-1 1 1 5 3 5 5 6 5 2 0-3 3-6 4-4v3c-1 2-1 2 1 4l4 3 2 3v-7l1 2 2 4c2 3 1 4-3 4-3 0-4 0-4 2 0 3 4 4 8 3 5-2 7-2 13 0 7 3 12 9 11 11s0 2 5 3l6 2c0 2 6 8 7 8l1-4c0-4 1-6 3-3l3 1 1-4c-1-4-1-5 2-7s5-3 5 0l2 3 2 3c0 3 4 5 9 5s7 3 7 10c0 6 1 8 3 8l4 3 2 3h-4l-8-2h-3l2 2 6 3c4 0 4 0 4 4 0 2-1 3-2 3l-5-1-3-2c-2 0-2 1-2 2l1 5c0 4 3 5 6 2s5-2 7 1c1 2 3 4 7 5s5 2 6 5c0 2 2 4 5 5 6 3 14 5 14 3l7-4-1 3c-1 2-1 3 1 4l2 3h5l-1 5c-3 3-2 4 0 4s3-1 4-3c0-2 1-4 3-4l3-3c1-4 4-4 10-1l5 5c0 2 1 3 2 3l1 2c0 2-1 2-7 2l-7 2c0 2 3 4 6 4l3 1c0 1-4 2-7 1-3 0-5 1-5 3l9 3c2 0 2 1 2 4 1 3 1 4 4 4 2 0 3 0 4-3 0-2 0-3 1-2 1 3 2 1 2-3l2-9c2-3 3-4 6-4 2-1 4 0 5 1l6 1c4-1 4-1 4 1-2 6-2 7-1 7 1-1 3 0 5 2 3 3 3 3 7 3l4-3c1-2 1-2 4 1l7 5 4 3 1 2 5 3c2 2 4 2 7 2l4 1-1 1c-3 0-4 4-3 7 2 3 17 4 17 1 0-2 3-1 7 1l3 1c1-2-3-7-5-7s-3-3 0-5l1-2 1-5 3-4c2 0 2 0 1 2s-1 3 1 7 4 5 3 0c-1-2 0-3 1-3 2-1 3 0 3 1l3 5 1 4-1 2h7l-2 3c-3 1-2 3 2 3 3 0 13-9 11-10l-1-3h1c2 2 5 1 5-1l3-1c3 0 3 0 4-3l3-10c1-6 2-7 0-8s-1-3 1-3c4-1 3-3-2-7-4-2-6-3-6-5s-2-4-4-6l-5-5c-1-3-2-3-4-3-4 1-5 0-1-2 2-1 2-2 2-6 0-6 0-6-6-13s-16-13-20-13l-7-2-10-2c-5 0-5 0-5-3s0-4-3-4l-14-1-4-1 2-1 3-1c0-1 1-2 3-2 5 0 4-2-3-7-6-4-9-4-7-1 0 3-3 3-7 0l-4-3c-2 0-2-1-2-3 0-1-1-2-7-5s-7-4-9-8c-1-3-4-5-8-8-3-3-6-5-5-6l-4-5c-3-3-5-5-4-6l-4-6-6-4-5-4-3-3h9l-1-3c-2-3-3-3-6-1l-3 3c0 2-6 1-9-1l-9-8h3c2 0 2 0 2-2l-2-2-7-1c-4 0-6 0-10-3l-8-5c-2 0-4-1-5-3l-5-5c-7-4-14-9-17-13-3-3-6-5-11-5-2 0-2 0-2 2s-1 3-4 3-3 0-2-2l-1-6c-1-3-1-4-3-4-3 0-4-1-1-3 2-2 1-3-1-3h-3l-3-3-4-3-2-2-2-2-1-1-4-3c-3-3-4-3-4 2 1 7 3 10 5 11s3 3 1 3v2l2 5c0 3 0 3-4 3-2 0-3 0-2-1l2-1 1-1-10-5-3-2c-1-1-1-2 4-2 2-1 3-5 0-7l-5-5-3-4c0-3-5-11-7-12s-2-1-1 2l1 6c0 4-3 4-4-1-2-4-5-4-7 0-1 2-1 3 2 6l2 3h-2c-2 0-3-1-4-3l-2-2c-2 1-1-7 1-8 2-2 1-3-3-3s-5 0-7-4l-2-4-3-4c-4-3-8-4-12-2-3 1-3 1-5-1-1-2-3-2-6-3-3 0-7-2-10-4-7-4-8-5-10-9l-5-5c-5-3-9-6-9-8h2l3 2 2 1c3 3 8 3 9 2 1-3-3-8-6-9l-6-3c-2-3-3-3-5-2s-2 1-2-2c0-2-8-4-11-2-2 1-4 0-4-3 0-2-2-4-9-7-7-4-11-8-13-15l-2-6c-1-1-1-1 1-1s2 0 2-3c-1-3-1-5 1-8 4-8 3-9-12-10l-10-1-5-6c-3-4-7-8-10-9l-3-3v-7l1-7c2-2 2-2-2-6-3-3-4-4-5-3l-6-1c-5-3-8-4-8-2h-2c-1-2-2-2-7-2l-11-2-10-3c-5-1-8-3-16-8-6-4-11-8-12-7l-1 3-1 2-2-2-2-4c0-4-10-10-16-10-3 0-4 0-4-2 0-3-10-17-12-18l-3-3-3-4-3-2c-3-5-8-10-11-10-4 0-9-2-9-4l-3-1c-1 0-4-2-6-5-4-4-6-5-8-5l-5-2-3-1c-2 0-3-1-4-7-1-4-2-6-5-7l-9-7c-8-7-29-15-38-17-4 0-5-1-6-3-1-3-4-4-7-3l-5-1c-3-1-7-1-5 1l1 5 2 8c2 2 3 5 3 7l1 3-2-2-3-2-2-3c-2-2-9-3-9-1s-2 1-4-3c-1-3-2-4-4-3-3 0-14-5-17-8l-2-5c-2-6-10-13-17-15-3 0-4-2-6-7l-4-6c-1 1-2 0-2-2-1-3-3-4-9-5l-6-5c-5-4-6-4-6 0z"/>
  <path d="M676 254l-8 1c-6 0-7 0-7 2s3 3 6 2l3 1 4 4c5 4 6 8 2 16-4 7-5 12-7 25-2 12-4 17-13 25-5 4-7 7-7 9l2 2 16-4c5-2 6-3 6-5l6-11c6-8 7-14 3-13l-5 2c-3 1-4-2-3-14 1-8 2-10 4-12l3-6c0-3 0-3 3-4l7 1h4c3-2 2-4-3-9l-8-9c-2-5-5-7-8-4z"/>
  <path d="M843 272c-2 1-3 2-4 6-1 3-2 5-5 6-3 2-4 2-6 1-5-4-10-5-17-5-6 1-7 1-11 5-5 3-7 6-9 15-2 7-2 7 14 7l13-1 2 2c2 3 3 3 7 3s5 0 5 2l4 1c1-1 4 0 5 1 2 1 3 2 3 7v7c-2 1-5 5-5 7s-1 4-4 7l-5 6c-1 2-2 5-4 6l-7 5c-3 2-12 5-16 5l-5-2c-2-2-4-2-8-2-5 1-5 1-6 4 0 4 2 7 10 11 6 3 9 7 7 10-1 1-1 2 1 5l5 6 4 6 10 12 9 10 3 3 11 1 14 1 11 1h7v5c0 6 3 9 10 10 5 1 8 3 11 10 1 4 8 11 11 11l5-2 6-1c2 1 10-3 12-6l1-10c-1-13 0-16 7-23 9-8 10-11 4-14l-3-3-4-1c-6 0-11-3-13-6-1-2-2-5-2-11 0-13-4-19-15-20-6 0-10-2-14-6l-8-3c-7 0-8-2-4-8 3-4 3-4 3-12l-1-22v-13l5-5c6-7 6-13-1-13-6 0-8-1-9-5-2-5-8-9-17-11-8-2-12-2-17 0z"/>
  <path d="M637 343l-7 1c-5-1-8 1-4 2l3 2c2 2 9 0 13-4l3-2h-3l-5 1z"/>
  <path d="M982 516c-1 3-10 9-14 9l-4 2c0 2-4 1-10-1l-9-2c-5 0-5 0-5 3l4 9 4 6v8c-1 9 1 14 6 17 4 3 6 5 5 7l-2 2-6 9c-1 2-1 2 4 2h20l2 4 3 6c2 3 3 3 9 4l8 2 4-2c2-2 11-6 15-6 5 0 5-2 5-13v-15c2-12 3-24 2-26-2-2-5-1-8 1s-5 3-13 4c-9 0-10 0-13-2l-6-10c-4-7-4-7-3-10l3-3 2-3c0-3-3-5-4-2z"/>
  <path d="M531 700v4c-1 4-1 4 2 3s4-2 2-5c0-2-4-3-4-2z"/>
  <path d="M523 702c-1 1-1 1 1 1l3 1v-1c-1-2-2-2-4-1z"/>
  <path d="M541 708c1 6 1 6 6 3 3-2 4-4 3-4h-4l-3-2c-2 0-3 0-2 3z"/>
  <path d="M546 719c-2 1-2 2-1 4s1 2 2-1c1-4 1-6-1-3z"/>
  <path d="M739 810l-3 1h-4v4c3 2 3 5 0 5-2 0-2 1-1 4l3 3 3 1c1 2 5 1 7-1 3-4 2-4-2-4-4 1-4 1-4-2 0-2 0-2 5-2 4 0 5 0 6-4 1-3 1-3-2-5-4-3-5-3-8 0z"/>
</svg>
