<svg xmlns="http://www.w3.org/2000/svg" viewBox="0 0 1024 1024">
  <path d="M636 206l-140 83-59 48-61 50-51 11-47 8a18140 18140 0 00-9 195v9l-8 4-8 3-6 10c-5 9-5 10-16 17-7 5-10 8-11 10l-1 3h-40l-55 4-55 4c-2 0-4 1-7 6l-4 5H48c-8 0-13 1-21 3l-11 3-4-3-4-3-3 3-4 2v10c-1 28-1 28 5 30 4 2 4 2 4 9l5 14c4 6 5 7 16 15l16 9c3 1 6 3 9 8l6 8-2 3c-1 2-1 2-5-1l-5-2v23l10 5 16 12 8 7 9 1 9 2 7-3 7-3 7 8 6 7-7 6c-5 5-6 7-5 8l11 14 10 13 2-3c2-3 2-4 1-10l-1-7 10-6 9-5 9 8 13 12c4 2 6 4 9 10l5 7 9 7 8 5 3-2 4-3-2-8c-2-7-2-8 0-10l1-8c-1-2 0-9 1-14l1-10 9-7c8-6 9-8 17-20l8-14v-21l7-6 9-7 16-5 14-4 4 2c3 2 4 2 14 1 9-1 11-1 15-4 10-7 24-5 43 6 9 5 9 5 17 5h8l9 8c7 7 11 11 17 21 8 11 9 13 12 13 5 1 5 1 12-4 5-4 6-4 12-4s8-1 20-6l14-6 11 2 12 2 5 6c5 6 8 8 21 15l15 8 24 2 24 2 8-9 17-15 11-8 7 1c7 1 9 1 18-2 15-4 28-6 39-5 17 2 34 6 46 11l11 5h29l18-13c12-10 18-14 20-14 7 0 9-1 11-6l3-7c-1-3-5-10-11-17l-4-5 1-6 1-6h5c3 0 5-1 9-4 5-3 6-3 7 0l4 1 4 1-1-7v-6l4-1c5-1 5-2 6-6l6-9c4-4 4-5 5-12v-8l56-64 55-64v-23a1294 1294 0 0122-189l7-10 1-4c0-3-2-4-11-8-8-3-13-7-16-12l-5-5c-3-1-4-2-4-5-1-3-1-5 2-9 6-7 6-7-4-21l-10-14-2-22c-1-23-2-30-5-47l-4-22-1-10-25 11-24 11-23-16-25-17-90-23-141 84z"/>
</svg>
