<svg xmlns="http://www.w3.org/2000/svg" viewBox="0 0 1024 1024">
  <path d="M120 41c-3 2-4 2-6 1h-8l-7 3h-5c-2 0-4 0-6 2h-5l-18-4h-8l-3 1 7 7 9 7v4c-2 2-2 2 1 6l2 5-2 7-4 10c-3 4-6 12-6 17 0 2-2 4-6 9-7 6-9 10-5 11 3 1 4 6 2 14-1 6-2 11-1 18 0 10 0 11-2 18l-3 10c0 5-3 18-5 21l-5 4c-4 2-4 2-6 1-2-3-8-2-11 0l-7 3c-3 0-5 1-8 4-5 5-5 9-1 9l4-3c3-3 5-3 7 2 4 7 4 7 12 6 7-1 8-1 10 1 2 1 3 2 3 5l1 5c2 1 12 0 17-3l8-3c2 0 2 0-1 2-2 1-3 3-3 5 0 3 2 3 7-2l6-3c1 0 3-1 3-3 1-2 6-4 9-4 2 0 2 0 2 2-1 3-1 3 4 2 5-2 6 0 7 27 2 26 2 25-4 34-4 5-7 14-9 22-1 5-2 6-5 8-4 3-4 6 0 8 2 1 3 3 4 6 1 5 1 6-1 16l-3 14c0 2-1 4-3 5l-3 3 2 2c2 2 2 2-2 3-5 2-8 4-8 6 0 3 1 3 4 1 2-1 2-1 3 1 1 1 2 2 3 1l3-1 1 8c1 6 2 7 3 8 3 0 2 4-1 12l-5 11c-2 5-3 7-8 7-4 0-11 4-11 6 0 1 2 3 5 4l7 8c2 4 3 5 1 5v3l3 5c0 3 2 8 5 12 4 8 5 9 6 16l2 12 2 9c0 5-1 6-5 12l-5 10c0 6-2 10-8 17-5 5-7 7-9 7s-3 1-5 7c-3 7-3 8-2 12 1 5 4 10 9 16 2 3 4 6 4 10 1 3 2 8 4 10l4 13c1 6 2 7 3 7 4 0 2 2-7 11-7 7-8 8-8 11 0 2 1 2 7 3 6 0 7 1 8 3 1 3 1 8-1 8l-7 1c-5 2-5 2-5 5 0 2 0 3 2 3l5 1h5c3-2 4-1 2 2-2 2-2 4-1 7 2 2 2 2 0 6l-2 4 2 4c2 2 3 5 3 7 0 4 1 5 6 2l4-1v5l1 10 1 6 4-1 5-1c1-1 3 3 5 10l3 10 3 6-3 6c-2 5-3 8-8 12-5 5-6 8-4 10 3 2 2 4-6 9-4 3-10 7-12 10-4 4-5 5-5 7 1 2 0 3-3 6l-4 4 3 1c4 1 4 2 3 5v4c0 2 4 3 4 1l3-1 5-2c2-1 2-1 5 2 4 4 7 4 7 0 1-3 3-4 10-4 8 0 15-2 16-4s2-2 11-2c8 1 10 1 16 4 11 6 21 9 29 9l10 1 6 1 4 7 5 10c2 3 13 7 15 5l9-2c7-1 7-1 10 1 2 2 2 3 1 5s1 7 3 7c3 0 9 4 11 6 1 2 1 4-1 7-1 3-1 4 1 5 3 2 6 6 6 8l2 5c2 3 2 5 1 14 0 13 1 17 6 20l4 4c0 2-3 4-5 4-2-1-4 1-5 4-1 2 0 3 2 8 3 4 4 5 5 4l3-1c1-2 2 1 2 5 0 5 2 9 5 9l2 2c0 4 2 6 5 5l4-2 3-1c2 0 3-4 0-6-1-1-2-6 0-9 1-2 2-2 4-1l7-4c5-4 8-5 8-1 0 3 2 4 5 4l1-2c0-2 0-2 5-2l11 1c5 0 5 0 8-4 5-7 8-8 15-8 8 0 10-1 9-4-1-2-1-2 2-3l2-2-4-2c-3-1-5-3-5-4v-17c0-4 0-4 4-4l5 3c4 6 3 5 9 3l10-2 12-2 10-5 5-4c2-1 2-2 2-8 0-8 1-8 9-5 7 3 9 3 13 0l2-2 1 5 1 6c2 2 3 0 3-3l1-3h1c0 3 1 2 4 0 4-3 6-3 5 0s-2 3 4 5c4 2 6 3 21 3l18 1c1 2 1 5-1 6s-1 4 4 4a592 592 0 0035 5l9 2a74 74 0 0135 19c2 1 7 0 7-2 0-1 4-3 6-2l9 5c7 4 8 5 10 10s2 5 0 7c-1 3-2 3-7 3-6 0-6 0-9 4-5 6-5 7-1 8l7 1 14 2 12 1 4 2c2 0 14-13 14-14l3-3 5-2 6-3c4 0 4-1 4-3 0-3 3-10 5-12v-6c-1-4 0-8 2-8l1-4c0-3 1-6 4-11l6-8c3-1 9-7 9-8s2-2 8-1h8l8-5 8-6h10c12 0 21 2 35 9 8 4 10 4 16 4s8 0 10-2l6-2 4-1c2-3 4-2 7 0l2 3 2-3c3-4 8-5 25-6 11 0 17 1 18 5 1 2 3 3 4 1 0-1 1-2 2-1 3 0 3-4 0-5-2-1-2-1-1-3l2-3c0-2 4-5 8-6 2 0 5-1 6-3l4-2c3 0 8 8 8 11s0 4 3 2c2-1 11-14 11-15l-4-3c-3-2-4-4-1-6 1-1 2-2 3-1 2 2 3 1 3-1s1-3 3-4c4-2 4-5 0-6-3 0-5-3-6-9-1-7-3-8-8-10-2 0-5-3-8-5l-7-5c-2 0-12-10-14-14l-4-4-5-2c-2-2-3-2-2-10 0-10 2-18 7-26 9-13 19-18 36-18 11 0 18 2 29 8l6 3h26c1 1 2 0 4-2l5-3c4 0 10-3 15-8l8-5 5-3c2-2 4-4 6-4 3 0 3-2 1-4-3-2-7-3-8-2l-2 1-3-10c1-2 8-3 11-1 3 1 3 1 3-1l3-3c2-1 2-2 1-5 0-5-3-6-7-6-3 1-4 0-5-1-2-3-1-9 1-11s3-7 1-10c-1-3 0-4 3-3l3 1c2-1 2-1 0-7-1-6-1-6 1-11 3-5 6-21 4-22h-3c-3 0-4-2-1-3s3-5 0-5c-2 0-3-1-3-8 0-5 0-7 2-8 1-2 2-2 4-1l2 1c2 0 1-3-1-4-2-2-1-5 2-6 4-2 6-4 6-7s-1-3-3-4-3-2-3-4l-2-2c-2-1-2-2-2-5l-1-7-1-3 1-3c1-2 0-3-2-4-3-1-4-4-4-8v-5c-2-1-2-4 0-14 0-3 0-4-2-4l-3-2c-2-1-2-3-1-13l1-12 5-5 11-8 7-4v-9c0-7-1-8-2-10-2-1-2-1-3 1 0 2-1 2-8 2l-8-1-2-2v-6l1-6c-1-2-1-2-7-2l-5 1-1 4c0 4-1 5-4 3-1 0-2-1-2-3l-2-4c-2-1-2-1-1-3 2-3 1-5-2-4l-10 3c-8 2-9 2-12 1l-6-6c-1-4-3-5-5-5l-11-4-16-7c-8-3-13-7-18-15-2-3-9-6-14-6l-5-2c-1-1-1-2-3-1h-19c-2-2-3-2-6 0-6 2-12 1-20-2l-13-4-6-3-7-2c-5 0-7 0-17-3-15-4-26-5-29-3-4 2-10 4-19 5l-20-2-16-5c-6-3-13-9-18-16l-5-7-9-2-11-2-4-1-6-4c-7-4-13-9-16-14-3-7-9-16-12-19-2-1-3-4-4-6-1-3-2-6-5-8l-7-9-6-10-4-10c0-4 0-5 2-7l2-4c0-2 0-3-2-3-3 0-3-2 1-6l2-4c0-2-6-5-8-4l-10-4-7-6 1-4 1-5c-1-2-2-2-9-2-12 1-13-1-6-7 3-3 5-5 4-7 0-3-2-3-10 1l-6 4v6l1 6h-4c-5 1-7 0-5-2 3-2 2-6 0-7l-4 1c-4 3-5 3-9-2l-4-4 4-2c4-4 5-4 3-6s-2-2-6-1h-6l-4-4v-3c1-1 1-2-1-7-1-4-2-5-5-7-3-1-5-3-7-7-2-5-4-6-4-3v2c-2 0-6-4-7-7-2-3-4-4-5-1s-8 6-12 6l-5-2-4-2v-3c0-2 0-3-2-3l-5 3c-4 2-4 2-6 0-3-2-7-4-8-2-1 1-2 0-5-2-4-3-4-4-6-1-2 2-2 2-7-2-4-4-6-5-12-3-4 1-4 1-7-4-4-5-17-14-21-14-4-1-12-11-17-20-4-8-8-9-14-7-4 2-4 2-4 0s-3-4-4-2c-1 1-1 6 1 11l-3 3c-4 3-23 3-29 1-3-2-9-2-22-2-15 0-17 0-21-2-5-2-8-6-8-8s-3-1-6 1-8 4-12 4l-7 2c-6 2-22 2-27 0l-12-3h-8l-4-5-8-7c-4-3-5-3-16-3-12-1-13-1-18-4l-6-3-1-5 2-15c3-12 3-13-2-16-3-2-5-3-5-5l-3-5-5-9c-4-7-7-8-12-5z"/>
</svg>
