<svg xmlns="http://www.w3.org/2000/svg" viewBox="0 0 1024 1024">
  <path d="M244 98c-5 1-7 2-10 5l-4 3-15 1-16-1c-2-3-2-3-21 2l-17 3-9 9c-7 8-9 9-12 9-6 0-6 1-6 13 1 10 1 12-2 21-3 15-10 26-21 33l-11 9-7 6v10l-2 16c-1 7-1 13 1 17 2 2 2 3 0 5-3 3-4 8-1 15l2 6-7 6c-5 5-7 8-8 12-4 9-3 9 8 24 8 11 10 14 10 17l2 9 1 7v6c0 3 1 4 3 6 3 1 3 1 3 9 0 10-2 19-5 19l-4-2c-4-3-8 0-13 10-1 2 2 9 4 9 5 2 5 6 0 10-2 3-2 4-2 8 0 5 0 6-3 9-3 2-5 3-9 3l-8 4c-4 2-4 3-4 7 1 5 0 6-4 7l-3 3c1 1-1 3-4 6-6 7-7 10-5 13 3 4 2 11-3 15l-2 6c0 6-2 7-11 7H12l-1 8a627 627 0 00-6 82l-2 13 2 4c2 4 2 6 2 14 0 9 0 10 3 13 4 3 4 8 0 8l-2 1v15l1 18v2c-3 0-4 4-3 8v7l1 6c2 3 2 5 1 10l-1 8-7 18 21-1a488 488 0 0154-1c15-3 40-3 54 1l11 2 10 1a231 231 0 0153 50l4 7 4 9 7 9c2 5 9 8 17 8 5 1 6 0 8-2l2-2v2c1 2 0 3-2 5-2 3-2 3-7 1l-6-1v9c1 8 2 12 7 25 7 18 14 32 18 36l24 19 7 4c5 2 7 2 13 2l23-2a138 138 0 0045-6c5 0 6 0 8-3s3-3 6-3c5 0 5 0 4 3 0 2 0 2 2 3l6-1c2-2 3-3 3-5 0-4 0-4 5 0l7 2c4 0 12-3 14-5s4-2 17-3c13 0 16 0 21-3l7-2 4 2c5 3 8 3 12 0l6-4 2-3c0-2-6-12-10-16l-2-5c0-2 7 2 9 5 0 2 1 3 2 3l3 3c3 2 3 2 5 1 1-1 1-1 1 1-1 3 0 6 2 6 1 0 7-6 7-8 0-3 1-5 3-5l2-1v-4l3-6 6-10c1-4 4-7 5-8 2-3 4-10 3-15 0-3 0-4 2-7l2-5 2-8c2-5 2-6-3-11l-2-2 2-2c2-2 2-4 2-6-1-5 1-8 6-8 4 0 5-1 7-5 4-8 11-16 17-19l9-8c3-4 4-5 6-5 2 1 2 0 3-3 1-4 2-5 6-6 3-1 5-3 6-5 1-3 2-4 6-4 5-1 8-4 8-8l2-9 2-7 4 1c4 0 4 0 13-8 13-13 14-14 15-12l2 5c2 6 5 7 17 7h11l2-5 2-7c0-4 2-10 4-10l1 3c1 3 9 9 13 9l5 2c3 2 3 3 3 6s1 5 3 7c2 3 3 3 7 3 6 0 6 0 7 4l1 8c-1 4-1 7 1 10 3 8 5 8 14 8 12-1 14-2 16-9l3-6c6-1 7-2 8-6 2-5 2-10 1-13-2-4 0-5 11-13l10-8 4-1 2-2c0-2-8-14-10-14-1 0-2-2 0-2l4-4 11-12 8-9-1-5c-2-6-1-8 8-22 6-9 7-11 6-14 0-3 0-5 2-9s3-6 2-8v-7l-1-5c-1-1-1-2 1-3 1-2 2-2 4-1l3 1 4-5c3-3 3-4 2-8 0-3 0-4 2-4l7-1c7 0 15-4 17-9 1-3 3-4 5-5 3-1 5-6 6-19 1-9 1-13 3-16l3-10c0-4 0-5-2-5h-3l3-2 7-7c3-3 5-4 11-6 4-1 7-2 9-4 3-2 3-3 4-11l2-10-2-4c-2-2-3-6-1-9v-4c-1-2 0-3 1-5 3-2 6-4 9-4s7-4 7-6l1-9a1195 1195 0 008-31l6-10 8-12c3-4 4-6 4-9 0-4 0-5 3-6 2-1 3-2 3-5 2-6 12-16 16-14 5 3 8 3 15-1l11-7c2-3 6-5 7-5l8-3c5-3 6-3 7-7l2-8c0-3 0-3-3-5-4-2-5-4-2-6 3-3 4-11 4-26 1-11 1-12-1-13l-6-4-9-6c-7-4-8-4-13-3-5 0-6 0-8-2s-2-3-2-7l1-4-4-2c-3-1-4-1-7 1-4 2-4 2-7 0l-4-4-4-5-4-3v-8c0-6 0-8-2-9-1-1-1-1 1-2s3-8 0-8l-1-1v-11l-3 2c-2 3-5 3-7-1-3-5-6-8-10-9-2-1-4-2-6-7-2-3-4-6-7-7-5-2-5-3-6-8l-2-9v-8c1-4 1-4-1-4l-7 7c-5 8-8 10-14 8-3-1-4-1-11 1-7 3-8 4-14 10l-7 7-2 2c-1 2-2 2-2 1-2-1-4 0-7 3-2 2-3 3-3 5 1 2 1 3-1 3l-3 5-1 3h-7l-11-2-9-1c-5 1-5 1-17-6-13-7-16-9-32-13-11-3-13-3-35-3l-26-1c-3-1-14 1-24 4l-19 4c-8 0-14 1-14 2-8 4-22 14-22 15l-2 2c-2 0-5 3-13 13l-9 12-5-1a440 440 0 01-19-1h-17c-12-1-17-3-28-6s-13-4-15-7c-7-8-9-10-14-10-4 0-5 0-9-4-6-5-23-15-26-16l-12-2-10-1-17 11c-19 11-21 12-29 9-3-1-3-1-9 4l-5 5h-17l-4-4c-4-5-6-8-11-20l-5-8-10-10c-8-9-13-13-19-15-4-2-5-2-7 0-4 1-4 1-30-9l-28-10-8 2z"/>
</svg>
