<svg xmlns="http://www.w3.org/2000/svg" viewBox="0 0 1024 1024">
  <path d="M969 9c-3 3-12 8-13 7l-6-4-4-3-1 6v6l-7 6c-4 4-7 7-11 7-3 1-4 2-5 5l-1 3-5-2c-5-2-6-2-11 0l-6 2 1 4-1 4c-4 0-22 6-23 8l-8 6-5 2-6-3-6-3-1 5c-3 9-4 10-9 8l-7-1c-1 1-3 0-5-1l-7-2c-5 0-6 0-8-4l-2-3-2 2c-2 2-2 6-1 10 1 2-2 4-10 7l-4 1-7-7-8-6-2 4-2 7-2 7-2 4h-16v-4l-1-6-9 7a68 68 0 01-20 16l-5-2c-3 0-5-1-6-4l-5-4-14-3c-9-2-12-2-13-1h-5c-3 0-11-8-11-10l-6-13-5-12h-4l-15 3-10 3-2 5c-1 5-2 5-6 6-4 2-13 9-15 14-1 2-3 4-5 4l-2 4c0 2 1 3 4 3 5 1 5 1 4 5l-2 7c0 3 0 4-4 6-6 4-8 4-13 2-2-2-4-3-7-2l-3 1 2 8 1 7-3 3c-5 4-12 18-11 21l4 3c3 1 4 2 5 5l1 4-5 5c-6 6-9 7-16 7l-11 2c-6 1-7 2-9 5l-6 5c-3 0-4 1-4 3l-6 14-5 11-8 4-10 4c-2 1-4 6-4 10l-5 2c-6 0-14 4-17 8-2 3-4 4-7 4l-7 4c-2 3-5 4-7 4l-5 2-1 8c0 6 0 6 4 8 3 2 3 4-1 7-2 2-2 2-4 0s-2-2-5-1c-4 2-4 2-10-2-5-3-6-4-7-8-1-3-2-4-5-5h-7c-4 1-4 0-6-2-1-2-6-7-11-10l-10-10c-2-3-2-3 0-6l2-5c0-2 0-2-6-1l-9 2-6 4c-3 1-5 3-7 6-1 3-4 6-5 6-4 3-6 4-12 14-6 9-11 14-16 18-3 2-4 3-4 6 0 2-1 5-4 9l-5 6h-9c-7 1-9 1-13-2l-6-1c-2 2-4 1-9-2-7-5-9-6-14-3-4 3-6 3-17 4-18 0-21 1-25 5-3 2-4 4-4 6l-1 6c-3 6-2 8 2 12l3 4-1 7c-2 6-2 7 0 10l2 11c0 6 0 8 3 12 2 4 2 5 1 10a551 551 0 010 11c3 1 4 5 3 13 0 7-3 10-9 10-3 0-5-1-7-3-4-3-4-3-8-2l-10 2c-7 3-12 10-14 19-1 7-1 8 1 7v16c1 1 0 2-4 6-4 3-5 5-5 8-1 3-1 4-3 4s-6 2-9 5l-7 4-4-1c-2-2-7-2-23-2h-21l-11 5c-15 6-18 8-18 11 0 2 1 2 4 2l6 1 2 2h-2c-6 2-14 1-21-3-7-3-8-4-8-6 0-3-3-8-7-15l-4-6c-1-2-3-2-8-3-7 0-7 0-8-3l-1-3-1 4c-2 7-4 10-11 13-5 3-6 4-8 9l-4 10c0 4 0 5 4 8a359 359 0 0029 20c10 10 14 11 11 2-1-2 0-2 3 1 6 3 6 5 3 6l-2 1a308 308 0 0035 36l19 17c7 7 15 15 19 17 7 5 7 7 0 3-5-3-5-3-4-1 1 3 36 27 63 44l26 16 7 15 8 19 6 10c10 12 15 19 15 22 0 2 2 4 7 9 4 5 9 10 12 17 7 11 12 17 20 22 14 9 15 10 17 17l2 7 9 3c6 2 12 5 19 10a996 996 0 0013 11c0 2 9 12 13 14 4 1 6 3 22 18 7 7 9 8 12 9 4 0 5 1 9 6l16 18c11 12 12 13 12 17 0 5 2 10 6 11 3 2 18 6 20 6 3 0 11-12 14-19 2-7 4-10 7-12 2-1 7 1 16 8 7 6 15 9 30 13a1092 1092 0 01113 42l10-5c7-6 39-26 40-26l4 2c3 3 14 6 19 5 4-1 4-1 7 2l8 5c4 0 7 2 13 6 4 3 9 6 12 6l5 2 4-4c4-5 5-5 5-1l3 8c3 7 5 8 17 13 6 2 8 4 9 6 2 4 2 5 0 7s-1 4 3 6 26 8 30 8c6 0 11-2 11-4 1-2 1-2 4-1s11 9 14 14c1 2 3 3 6 4 4 2 5 2 9 0l6-2 4-2c2-3 4-4 6-4s4-1 5-3c2-2 4-3 7-3l6-2 8-2 8-1c3-1 3-1 3-13l-1-16c0-3-1-3-9-2-1 0-2 0-2-2l-4-4c-6-5-11-13-17-29l-10-27c-3-12-3-13-4-27v-15l3-7c4-7 4-7 8-7s4 0 7-7l4-12c2-11 2-11 5-11s4-1 7-4c4-4 5-5 8-5 6 0 8-3 7-13-1-6-2-10-6-18l-4-14c0-10-4-16-10-16-3 0-4 3-3 9 0 4 0 4-3 4-4 0-9-5-13-11-3-6-3-8 0-8 2 0 3-1 3-4 2-5 3-6 6-6l3-1v-26l-3-1c-3-1-3-2-3-3 0-2 1-2 6-2 7 0 7 0 8-8 0-4 0-5-2-9s-2-4-6-3c-3 0-4 0-4-3-1-3-1-3 3-3s10 3 10 6l3 4c2 2 2 2 1 5l-2 8c-1 4-1 5 2 9l4 8 2 5v-56l3-8 7-13 4-7c0-3 0-3-3-3-4 0-4 0-6 8l-4 8c-2 0-2 0-2-2l1-5v-4h-4l-6-1c-2-3-3-8-2-11v-15l-1-6h-8v-6c0-8 2-11 10-11 5 0 6 0 12-5 4-2 7-5 7-6l2-2c6-2 9-7 6-13l-2-10c-1-8-2-8-5-10s-4-2-1-5v-4l-1-2 4-3c3-3 3-3 8-2 6 2 11 5 11 9l-2 5c-2 2-3 3-2 5l-1 19c-1 19-2 20-10 20h-5v11c0 11 0 12 3 16 3 5 3 9 0 9-1 0-2 3-2 7 0 3 4 3 8 0l14-2 11-1v-9c0-7 0-8-2-11l-6-10c-4-7-4-9-5-19l1-21 3-20c0-8 1-14 3-17v-10a736 736 0 01-14-108c3-24 4-28 7-34 4-5 4-6 4-19 1-11 1-17 3-24l3-18 3-18 4-15c0-6 2-9 9-17a186 186 0 0033-47l7-13 6-11 3-4v-12c0-12 0-13-4-20l-4-13-6-18c-6-14-11-33-11-42 0-5 0-6-2-6l-5 5-5 5-5-4c-4-3-4-4-4-9s0-5-3-5-3 0 1-7l3-7c0-2 14-9 16-9l1 4 2 6c1 3 2 4 1 5l-4 2c-2 0-3 2-2 5l1 3c0 2 0 2 3 2 4 0 4 0 12-19l12-19 6-8-12 1h-13l-1-2c-1-3-1-3-7-3s-7 0-8-2c-2-3-7-3-10 0z"/>
</svg>
