<svg xmlns="http://www.w3.org/2000/svg" viewBox="0 0 1024 1024">
  <path d="M739 3l-9 2c-7 0-21 4-25 7-3 2-4 6-2 6l2 2c0 3 2 3 5 0 2-2 5-3 12-4l12-4 7-4c5-2 9-5 9-7s-6-1-11 1z"/>
  <path d="M857 16c-1 2-3 2-14 2l-12-1-15 7c-11 5-16 6-22 7a348 348 0 00-33 6c-8 5-10 5-20 4l-14-2h-4l3 3c2 3 2 3 0 3l-4-2c-2-2-3-1-3 2 0 5 3 7 8 7h4l-1 4c0 4-1 4 8 6 5 1 6 2 10 6 2 3 5 5 6 5 2 1 2 1 1 2-2 1-7-2-9-6-1-2-3-3-7-4-7-2-9-2-9 1l-3-3-2-5-2 2-1 1c0-2-3-3-4 0l2 4 2 2h-2l-4-1-2-4-1-8v-8c3-6 2-6-14-6-15 1-21 2-39 8-9 3-43 20-54 27-3 2-6 3-11 3-8 1-11 3-16 11l-13 11-12 9c-3 2-5 10-6 22s-2 15-6 20-4 11-1 15 1 4-3 0l-5-3 9 18c2 2 2 3 1 9l1 10 2 8c1 4 1 5-1 5-2 1-2 1-1 6v6l-5 5c-3 2-5 5-5 6 0 3 2 6 7 9 5 4 10 5 12 2 2-2 9-1 12 1 8 5 18 6 21 3l4-2 5-1c4-2 5-2 5-1 0 3 3 4 10 4 6 0 6 0 5 2-1 1-2 2-6 2-5 1-6 1-9 4l-3 5-5 8-4 6v20l-1 19 4 6 9 10 6 4h12c11 0 12 0 23-3l20-5c9-1 9-1 14-8 2-2 2-2 6 0l4 4-4 5c-3 3-4 3-13 3l-25 5c-2 1-2 2-2 4l-1 4v2c2 0 5 10 7 17 1 6 1 7-2 15-5 16-20 35-30 38l-8 5-7 4-4 4-6 5c-5 3-7 9-9 17-1 5-2 7-5 9-4 3-6 4-18 7l-13 2-6-5c-4-4-6-5-10-5-5-1-6-1-8-6-4-6-7-8-17-7h-13c-5-1-6-1-10-6-4-4-5-5-8-5l-6 2h-4l-2-3c0-1 0-2-3-2-4 0-9-4-8-6 0-1 2-3 5-4 4-2 6-4 8-7l6-6 2-3c0-2 9-11 12-11s3-3-1-6l-4-6-2-2 1 2c0 3-2 13-4 15s-2 2-3 1l-4-5c-2-5-2-6 2-6 2 0 2-1 2-4l2-8 2-3-2-2-5-11-2-9c-2-2-6-14-6-17l2-6c1-3 1-3 6-3h6c1-2 8 1 9 4 0 2 1 2 5 2s5-1 11-5c7-5 9-8 9-13 0-3 4-7 9-7 3 0 4 0 5-3 2-2 2-3-1-5l-2-6c0-6-2-8-7-8l-7-3-4-1c-2 0-3 1-4 3-2 2-3 3-5 3-5 0-7-2-9-7-1-5-1-14 1-23 1-5-4-17-9-24l-6-12c-2-5-2-6-6-6-9-2-15 0-18 5l-8 7c-4 2-6 3-8 2l-7-1c-6-1-12-7-12-12l1-5v-5c-1-3-4-4-11-2-6 2-8 5-8 15 0 8-5 33-7 41l-5 10c-3 5-4 7-4 14l-2 12c-2 4-2 6-1 14s1 9-1 11-2 4-2 11l-1 12-3 11-4 16-3 16c-2 10-5 21-11 37-7 15-29 59-36 70a193 193 0 01-27 33l-16 16-12 14-3 4c-3 0-7 2-7 4l9 8 14 8c6 6 16 12 18 13 2 0 4 1 5 3l2 2-6-1-9-4-4-2v6l-4-5-7-8c-3-5-7-7-9-4h-2c0-2-4-7-5-7-2 0-3 2-2 7 1 4 1 5-1 5-3 0-6-5-5-10l1-6c1-1-2-5-5-5-7 0-9 13-4 24 2 5 2 6 1 9-1 4-1 4 1 7 4 5 5 10 3 15-1 2-1 2 2 2l4 1c1 2 7 4 11 4s20 11 22 15c3 5 6 8 14 10l15 7a121 121 0 0024 9c16 5 20 5 29-2a366 366 0 0116-10l3-3v3l1 4c1 0 11-6 12-8 3-3 4-2 2 2-2 5 0 5 4 0 5-5 7-6 6-3 0 2 0 2 4 1l6-1v2c0 2 0 2 2 2l4-2c4 0 4 2 1 4l-2 1 2 1 2 2-2 2-2 3c1 2 0 2-4 2l-11-2-15-1c-10 0-10 0-21 5s-20 8-26 8l-7-1c-4-2-10-2-15-1-2 0-4 2-6 6-4 5-5 6-12 10-8 3-9 4-18 4-10 0-11 0-17-3-10-4-13-5-17-2-2 3-3 5 0 7l3 5c0 2 0 2 7 2h8c2 2 5 9 5 12l4 4c4 2 4 4 1 13-2 6-2 6 0 8l3 3 2 2 2 4 4 8c3 6 2 8-3 8l-6 1-15 1-13 1-4-5c-3-2-6-7-8-11-6-11-12-16-23-19l-8-2-2-3c-2-2-4-2-21-2-20 1-20 1-27 6-5 4-8 4-9-1l-3-5c-4-3-9-11-9-13 0-4 3-3 10 4 6 6 7 7 6 10 0 4 1 4 6 0l6-4h30l4-3c1-1-1-4-3-8l-4-7h-12l-22 1h-22c-14 1-12 0-34 14l-6 4c-6 1-8 7-4 11l9 7c6 3 7 5 11 12 6 9 7 11 17 11 6 0 7-1 11-4 6-3 9-4 8-1 0 2 1 3 4 5l3 4c0 4 3 6 9 7l6 2 4 3 4 3c2 2 4 2 6 0l8-2c7 0 7 0 10-9 2-8 5-12 10-13s3-2 16 9c10 8 17 12 23 13s7 1 10-1l8-2 6-1 2 4v5c-2 2 9 4 15 2 4-1 6 0 6 3 0 1 7 5 11 6 1 1 4 0 6-1 4-1 4-1 4-5l-2-7c-5-4-6-10-4-16 1-2 1-3-1-5l-1-3 17-6 16-6 3 3 3 2-2 6c-4 7-4 9 0 12h4c3-3 7-3 10-1 4 2 8 3 12 1 3-1 3-2 3-4 0-4 1-6 7-9l6-7c3-4 7-6 14-7 6 0 11 1 12 5 2 7 2 9 1 11l-3 6c-1 4-2 5-3 4l-10-1c-3 1 0 6 3 6 7 2 15 2 19 1s4-1 7 2l5 4c2 0 16-13 18-17l3-8c1-2 2-5 4-6l2-2 3 2c1 2 4 3 5 3 2 1 3 2 4 7v16c-3 3-2 7 0 11 5 5 11 16 12 20l1 3 9 2 11 3c2 3 2 3 1 9v6c1 2 23-1 26-3h6l7 2c4 1 4 1 6-2l6-4c3-1 5-3 5-4 1-2 1-2 4-1 5 1 4 0 10 7 4 5 4 7 5 12 0 8 1 8 11 11l8 2 3 3c2 6 6 7 18 7h10l1 4 2 4 6-1 5-3 1 2c2 6 2 8-1 11-5 4-5 7-3 10 3 2 3 3-1 5-2 1-3 2-2 3 0 4-2 10-5 10l-4 4-2 3 3 3c4 3 4 4-4 14-6 9-6 12 0 13 3 1 2 3-2 10-3 6-4 8-7 9s-4 2-5 4l-2 5-4 4c-3 3-3 3-3 9s1 10 7 13c4 2 5 6 2 17 0 3 0 3 2 3l4-1c1-2 2-2 4 0 3 3 4 2 4-3 1-6 3-6 9 0l5 4 4-2c3-2 5-2 6-1h9c1-1 2-1 2 1s1 2 3 2l9-1c6 0 8 0 10 2 1 2 2 2 5 1l3-3c1-3-3-10-7-12l-3-3c0-2 1-2 5-2 7 0 8-1 5-7l-2-4 4-4c3-3 3-3 6-2l3 1 2-4c2-4 2-4 1-6-2-2-2-4-1-7l-1-6c-1-3-7-7-11-8-1 0-2-2-2-6-1-5-1-6 2-8 3-3 3-3 1-4-2-2-3-2-6-1l-10 1-11 1-6 2c-2 0-2 0 0-3l3-3-3-6-7-11-3-5h3c6 0 8-1 9-4 1-2 1-2 4 3 2 4 3 5 5 5 3 0 6-4 9-10s8-10 17-15c5-2 6-3 7-7l3-4 9-4c8-3 9-4 5-8l-2-2 2-2 2-3c0-1-3-1-10 2-4 2-8 2-10 1-3 0-3-12 0-14 1-2 1-3-1-7-1-3-1-3 3-7 9-10 13-15 16-21 2-5 3-7 5-7 3 0 10-14 10-18l-1-6c0-4 0-4-3-4-4 0-5-2-3-5 3-3 4-15 1-27l-3-12-10-14-10-12v-5l2-10v-6l-4-2-9-4c-6-2-7-3-7-10 0-3 1-4 2-5s1-1-1-4-9-7-14-7l-4-1c-1-2 1-8 3-8 2-1 3-3 4-7 1-2-2-9-5-12-4-3-2-8 3-8 4 0 11-3 15-6 3-4 5-4 11 0 5 3 6 3 11 3l6-1c0-1-3-11-5-13l-5-3c-3-1-4-3-1-3 12-3 14-3 15 1 0 1 1 4 3 5 3 4 11 5 16 3 3-1 3-1 6 2 4 4 8 6 11 5l6 4 7 4c2 0 2 0 2-6l-1-8v-2l3 2 4 1 7 2c5 2 7 1 7-2s1-3 6-5l13-6 16-6c8-3 10-3 12-2l7 2c3 0 5-1 8-4 4-4 5-6 6-11 1-4 1-5 5-6s4-1 4-5c0-3-1-4-4-7-2-2-5-5-7-5l-5-5c-2-3-3-4-7-5l-7-1c-2 0-2-1-2-5s0-5 3-7l6-3c2 0 2 0 2-6 0-9 0-9 11-9 8 0 10 0 13-2 5-3 6-5 6-10 0-3 1-4 4-7s5-4 7-4c4 0 9-5 13-14 2-5 3-6 5-5l10 2c1-2 0-7-2-11-7-9-6-20 2-28 3-3 3-4 3-12l1-9-5-3c-4-2-5-4-10-12l-6-10-6 4-5 4-9-3-17-4c-8-1-11-2-19-6l-6-2-3-4-1-8-2-8c-1-6-1-7 2-5 3 1 4 1 4-3 0-3 0-3 5-4l5-1-4-3c-6-5-7-9-4-19 1-4 3-8 5-9 2-2 2-2 9 0h21l3 1 3 1 6 3c3 0 4 0 7-2 3-3 3-3 7-1l5 2c2 0 7-5 7-9l2-29 1-26 3-5 3-12c1-7 4-13 13-25 2-4 4-7 5-14l2-11 2-3c2-2 2-8 0-20l-5-22-2-9 3-6 3-14v-15c-1-3-2-3-5-3-7 0-14-2-19-6l-5-4v-7l-1-6-8-1c-7 0-9 0-15-4l-11-7c-7-5-11-17-13-30 0-6-1-7-7-13-5-5-6-6-7-5z"/>
  <path d="M594 19c-3 3-4 9-1 12 1 1 3 3 5 3 4 2 12 0 14-4 2-2 4-2 15-1 7 1 8 1 17-1l16-5c6-1 8-2 8-3 0-2-1-2-11-2l-14 2c-3 1-35 3-36 2l-10-5-3 2z"/>
  <path d="M574 24a529 529 0 01-76 24l-5 6c-3 3-4 5-2 8 1 3 2 3 6 3 3 0 4 0 6-3 4-5 5-6 12-6h7l9-6c8-7 9-7 16-7 9-1 11-2 16-7l6-3c5 1 13-6 10-9h-5z"/>
  <path d="M469 80c-5 2-24 12-25 14l-2 4c0 1-2 3-6 5l-8 4-3 1c-2 0-2 0-2 3 1 2 1 3 6 3h6l7-6c8-8 8-8 8-12 0-2 0-3 5-4l9-4 7-4c3 0 6-2 6-4h-8z"/>
  <path d="M418 128l-11 15-12 19c-4 7-4 8-5 15l-1 11c-1 5 2 8 8 9 5 0 5 0 5-2l-1-3-1-2c0-2 0-2 4 0 4 1 4 1 5-2 1-2 3-4 6-5l9-7c3-4 4-6 7-17 4-14 4-17-1-23l-2-7c0-2 0-3-3-4-4-1-4-1-7 3z"/>
  <path d="M588 341c-5 2-10 5-13 9-6 5-7 6-11 6-7 1-9 3-9 9 0 8-2 10-17 17-10 5-14 8-20 13l-19 15-11 8-5 3-6 4c-1 3 4 12 8 15 3 2 3 2 9 0 7-1 7-1 12 1l13 7 10 5 8 7c6 6 7 7 11 7 5 0 17-3 21-6 7-4 10-14 9-23-2-5 0-7 8-8 6-1 7-2 7-3l4-6 14-9 13-4 5-5 6-8 6-12c3-8 3-9 3-17l-2-11c-3-3-16-9-22-10l-18-6c-3-3-6-2-14 2z"/>
  <path d="M209 622l-9 3c-9 2-12 9-6 15 2 2 4 3 5 1l4-1c4 0 4 0 3 2-1 3-1 3 3 3 3 0 4-1 2-5-2-2-2-3 0-4 2-3 7-2 11 0 3 3 3 3 4 10 0 8 2 13 8 19 3 4 4 4 11 5 8 1 8 1 11 4s5 4 7 4l13 5c9 5 10 5 16 4 7 0 8 0 14-5 5-4 6-6 6-8 0-3 1-3-13-5-4 0-6-1-10-5l-13-9-8-8c-1-3-1-3-6-4-4-1-7-2-11-5l-9-5-4-4c-2-2-3-3-6-3-3-1-4-2-5-4-2-3-2-3-7-3l-11 3z"/>
  <path d="M193 656l-17 1c-16 0-21 2-25 8-3 6-3 14 2 16 4 3 6 2 12-1 7-4 15-4 17-1l5 1c3-1 3-1 5 2l2 6c0 4 6 11 9 11l2-1c2-2 3-1 7 2s5 4 10 3c10-2 20-6 20-9l2-4c3-2 3-4 0-6-2-2-12-6-16-6-2 0-4-3-7-11-2-9-3-9-11-8l-7 1-2-2-4-3-4 1z"/>
  <path d="M234 708l-5 2c-4 0-10 3-10 5l6 7 7 9 4 4 21 3c4 0 4 0 6 3 3 5 5 4 9-5 2-8 2-10-2-14l-5-8-3-6h-7l-10-1c-4-3-9-3-11 0z"/>
  <path d="M102 781l-11 3c-5 0-10 2-13 5-4 3-4 4-1 10l2 5-2 4c-3 3-3 3-2 8l2 8c0 4 2 5 8 11 7 5 9 6 11 5l7-1c6 0 6-1 7-10l1-6h6c5-1 6-2 8-4l3-3 16 8c13 7 15 8 20 8h6l1 6 1 7 2 4c3 2 19 4 28 4 7 0 8 0 12-4l8-7c4-3 6-3 9-3 6 1 12-2 27-17 17-17 20-20 18-24l-1-4-1-2-1 4 1 3-5-3-4-2-5 1c-3 0-4 0-4 2l2 3c2 1 2 1 0 1l-3-2-5-1c-2 0-2 0-1 3 2 4 1 4-3-1l-7-4c-4 0-9-3-11-7-3-5-7-8-11-8-2 0-3 0-3 2l-1 3-1 5c-1 4-1 4-6 4s-5 0-9 4c-5 5-14 8-17 4l-4-1-4-1h-6c-3 2-3 2-6 0-2 0-6-3-10-6-5-4-7-5-12-5-5-1-7-2-10-5-4-3-15-7-19-7l-8 3z"/>
</svg>
