<svg xmlns="http://www.w3.org/2000/svg" viewBox="0 0 1024 1024">
  <path d="M815 3c-2 1-4 2-5 1h-5c-2-1-2 0-2 3 0 4 0 4-2 4-4-2-4-2-4 1l-2 3v3c1 2 2 3 5 3 4 0 5 2 2 3l-2 3-1 3-2 5-1 8 1 6c2 3 2 4-3 3-3 0-3 0-3 2l-1 4c-1 0-2 1-1 2l-2 2c-1 1-1 0-1-3V49c1-4 1-5-1-6-2-2-2-2-4-1l-2 1 2-2 2-3c2-2 3-6 3-11 0-7-2-9-4-9-2 1-7 9-7 11l-2 3c-2 1-2 3-3 9l-3 10-3 6-3 7c-2 3-3 8-1 9 1 1 0 5-2 10l-2 6c0 2 0 2-1-1-1-4-3-4-5 1l-1 3v-5l2-7c2-3 2-4 2-7-1-2 0-4 1-6 1-3 1-3-1-7l-2-5 3-5 5-8 2-4 2-4 1-4c0-3 0-3-3-3l-4 1c0 1-1 1-3-1s-6-3-6-1 0 3 3 8c1 1 1 2-1 2h-1l-3-6c-1 0-3 0-4 2-1 1-1 1-1-2 1-3-1-5-2-3-1 3-3 2-3-1l-3-2c-3 0-4 3-3 7 1 6 0 8-2 6-3-2-4 0-4 4s0 4 3 4 4 1 6 3l3 5c0 2 0 2-3-1-3-4-6-4-7 1l-4 11v-4c1-5 1-6-4-10-6-4-8-4-8 1 0 4 0 5-3 7l-2 2 3 1 7 2c4 1 4 1 3 3l-4 6-3 4 1-3c0-3 0-4-3-6s-8-3-10-1c-2 1-6 8-7 10s2 5 5 6v1c0 1-2 0-3-2l-6-2c-2 0-7 4-7 6 1 2 7 5 12 5s5 0 5-3l1-2 3 2c1 0 2 1 2 3l1 3v1c-5 3 0 11 6 11 2 0 2 0 1 1h-3l-3 2-2 3v-3l-2-3c-1 0-2-1-2-3l-2-4-1-3c0-3 0-3-6-3l-8-1c-2-2-10-5-13-5-2 0-4 4-4 7 0 2-4-1-5-3 0-2-1-1-4 1l-5 5c-1 2 1 6 4 6l2 2c1 2 10 7 13 7v1l-1 3c0 3-1 4-2 2h-3c-1 1-2 1-2-1-1-3-6-5-8-4-2 0-2 1-1 4 0 3 0 4-3 7-2 2-3 3-3 1l1-3c2-1 1-2-1-2l-3 2c-1 2-2 2-3 0h-3c-2 1-2 4-3 15 0 8-1 15-2 15v-21c1-5 0-9-3-12-2-1-4 1-5 5l-4 6-4 7-1 3v-4l-2-4c-3 0-15 6-15 8l-1 1c-2 0-2-1-1-3 2-2 0-6-5-8-5-3-7-2-5 3l1 3c-1-2-2-2-3-1s-3 2-5 1c-2 0-3 0-4 2-2 3-2 3 0 4 2 0 2 0-1 1-3 0-4 1-4 5v5l3 2c2 2 7 2 11-1l4-1c2 0 3-2 5-5 2-6 5-6 3 0v5l1 4 2 6 2 3-2-3c-2-1-3-4-3-6l-2-4-6 1-6 2v3c0 1 1 4 4 6 4 5 4 7 0 4-2 0-4-3-5-5l-3-4c-2 0-5 3-5 5h-1l-1-3c1-4-4-11-7-9h-6c-2-1-2-1-2 2 1 4 1 4-1 3-3-1-4-1-4 1l-2 1v4c2 2 2 2 0 3l-5 1-3 1c-1 1 0 3 2 3l1 1-2 1c-2 0-1 3 1 4 2 0 3 2 1 2-4 0-3 5 1 5 2 0 2 0 0 1l-3 2-1 1c-3 0-3 3-1 5h6l1 3c2 2 5 0 5-4l3-5c2-3 3-3 8-2 7 1 7 0-3 4-4 1-5 2-5 5-1 4 0 5 1 3 2-3 3-2 2 0v5c0 1-1 2-5 1h-5l1 4c0 3 0 3-2 2s-2-1-3 1c-2 3-3 9-1 9 1 1-2 3-6 3-1 0-2 0-2-5l-1-7 2-4c2-4 3-5 1-5l-3-3c0-2-2-3-2-3-2 0-3 3-2 5v1l-2-1c-1-2-3 0-3 2v1c-1 0-2 0-1 2 0 2 0 3-2 4s-2 2-2 5c1 4-1 5-2 1 0-2-1-2-2-1s-1 1-1-1l2-6c0-4 0-4-3-5-4-1-5-2-2-4 2 0 3-2 3-4l2-4c2-1 5-11 5-13-2-4-8 0-10 6-1 3-2 4-4 5-6 3-8 17-4 21 2 2 2 2 1 3l-2 2-1 3c-2 2-2 0-1-3v-6l-2-5-1-2-2-3-1-2-2 2-3 4-2 1c-2-1-4 3-2 4l1 4v1c-1-3-2-2-8 0-4 2-4 3-4 6l-1 2c-2 1-1 6 1 8 1 2 2 2 4 1s7-1 7 1l-3 1c-4 0-5 1-3 4 1 1 2 2 5 2s4 0 5-3c1-2 5-5 11-8h2l-4 3c-3 2-3 3-3 5 1 2 0 3-3 5l-5 2-12 3-3 3c0 2-4 4-5 3l-5-1-6 2c-1 2-1 2-3 1-3-2-7 1-7 5 1 3 0 6-2 6-1-1-2 0-3 1-1 2-3 2-5 2-2 1-3 1-5 7l-4 8v7c2 0 7-5 9-9 1-1 2-3 4-3l4-2 3-2 2-1 4-2c4-1 4-1 4-3 1-3 0-3 5-5 3-1 3-1 4 1h6l16-12 2-2-1 3v5h3l4-7 4-5v2c-2 3-2 3 1 3l4 3c1 2 3 1 5-3 1-4 2-5 3-4 2 1 2 1 5-1l2-2 1 3c2 0 8-2 8-4l6-1c4 0 5 0 7-2s5-3 4-1c-1 3 7 2 10-1l3-2v2c0 2-1 3-2 3l-2 2-4 3-4 2c-3 2-5 3-5 1l-2-3h-7l-6 4-4 1c-4 0-4 1-1 4l5 6c2 2 2 3 0 4l-1 3-3 5-1-7-1-8c-2-1-5-1-5 1l-1 3-3 4c0 4-2 5-2 1v-4c-2-1-9 5-11 8v6l6 2 4 1-4 2c-4 2-6 2-6 1 1-1 0-3-1-5l-2-4-3 2-7 8c-2 5-3 7-2 9v9c-2 1-1 2 0 2 3 0 12-5 12-7s6-5 8-5c1 1 1 3-1 3l-1 2-1 1c-1-1-4 0-4 2l-2 4v3l1 3 4 3c4 0 4 1 5 4v3l-2-3-4-3c-2 0-4-1-5-3 0-2-2-3-3-3-3 0-11 8-11 10l-1 1-1 3c0 1-2 4-5 6l-5 5 3 1c3 0 3 3 0 3l-4 2c-1 2-3 3-4 2-1 0-3 4-2 8 0 3-1 7-2 5h-2l-6 3c-7 2-7 3-5 6l3 4-5 3-6 3-2 1c-2 1-1 3 2 4l3 1h-3c-3 0-3 0-2 4v7l1 4-2-3c-1-3-1-3-4-2-2 1-2 1-1 3 2 3 2 6 1 6s-2 1-2 3c-1 3-1 4 1 6l2 2h-2l-4 1c-1 2 1 6 4 6s1 2-3 2c-4 1-10 5-10 7l-2 3c-3 1-9 12-9 15 0 2 3 1 6-4l5-4c0 1-5 9-7 10l-2 4-2 4-1 5v3c-2 0-3 3-3 7l-1 6c-3 4-5 12-5 17l-1 5c-1 1-1 0-1-1l-1-3c-2 0-5 2-5 4s-2 4-3 4v-2l1-4h-4c-6 3-7 5-5 6l4 2c2 0 2 0 0 2l-2 3h-3l-5 1c-3 1-3 1-5-2-1-1-3-2-7-2h-6l-1 5c-1 4-1 5 1 5 2 1 3 0 4-1 2-2 2-2 3-1l1 2 3 4c3 3 3 4 2 4l-1 1v2l11-5c3-2 4-2 6 0l2 2h-3c-5 1-10 5-9 6l-2 1h-4l-3 2-3 1-3 2-5 1v2l1 1h-4c-3 0-3 0-2 2 2 2 2 3 0 3l-1 1-4 1-4 4c0 2-1 3-2 3v3c1 1 1 1-1 1-2-1-4 2-3 5l-1 2-2 2c0 1-3 4-10 8-3 2-4 4-2 5 3 1 2 5 0 5l-2 2c0 2 0 2-2 1-1-1-2 0-5 4s-3 5-2 5v3c-2 2-3 6-1 6l2-1c2-2 7-4 10-4l-1 2-4 2-10 5c-2 3-10 6-12 6l-2 1 1 2 2 2 1 3c2 1 1 3-2 4-2 1-2 1-2-2v-6c-1-2-4-3-4-1h-3c-2-1-3-1-6 1l-9 3-3 3h3l3-1c1 1-3 4-6 4-5 0-16 4-16 6l4 2 4 1-1 1-1 5v3l-1-3c0-2 0-3-2-2l-2 2c-2 2-3 1-2-2 0-3 0-3-2-3l-4 2c-1 1-2 1-3-1-2-1-2-1-4 1l-2 2c-1-1-2 0-3 1-1 2-2 2-6 2-5 0-7 0-9 3l-4 3 1 1 2 4c0 2 0 3-3 5-2 1-5 2-6 1l-6 2-2 3h7c12-2 14-2 19 0 7 2 8 3 4 6-2 1-3 2-5 1h-4c-3 1-4 0-4-2 0-4-4-4-5 0-1 2-1 2-3 0-2-3-4-4-6-2-1 2-5 3-5 1 0-1-8-1-10 1l-2 5-3 4-3 1c0 3 3 4 10 4h5l-4 2c-8 3-11 2-13-3-1-2-2-2-4-2-3 0-4 2-5 6 0 3 0 3-2 2h-5c-3 0-3 1-3 3 0 3 1 4 3 4l4-1c5-2 5-2 9 4l2 7h-7l1-2c1-2 2-4 1-5 0-2-1-2-7-1-5 0-6 0-8-2h-4l-1 3c0 1 2 4 4 4 1 1 1 1-1 2s-2 1-4-2l-1-5c0-2-4-5-7-5-2 1-2 6 0 7 3 1 5 3 5 6 1 2 1 3-2 3-2 1-3 1-4-1l-2-2h-2c-1-2-3 0-2 2s-1 5-3 5c-3 0-4 3-3 6 2 3 2 3 9 1 7-3 9-2 5 1l-3 4c1 2-4 4-5 2h-3c-3 3-2 7 1 9 3 1 4 3 1 3s-3 2 1 5 4 4 1 4l-6 1c-2 1-2 1-1 2l1 1-12 3c-3-1-5 2-2 4h2c0-2 5-3 6-2l4-1c2-1 2-1 2 1l-2 4c-3 0-3 3 1 5 1 0 2 1 1 2 0 1-2 1-5-1l-6-2h-3l2 2 1 2-2 4-1 2-1-2c0-1-1-1-3 2l-3 3 2 2c2 2 2 2 4 1 1-2 4-3 6-3s5-3 6-6c1-2 1-2 4 0 2 0 3 1 3 2l2 1 2 2c0 2 3 2 6 1l9-3 9-2c2 0 2 0 1 1 0 2 4 3 5 2s2 0 3 2c2 2 7 3 10 1l4-1c2 0 2 1-1 4s-4 3-7 3l-5-1-7-4h-8c-2 2-2 2-2 0l-1-1-4-1-2 1-5 3c-5 1-5 1-8-1-4-2-9-3-10-1l-5 4c-5 2-5 3-3 3 2 1 2 1 1 2-2 0-2 1-2 3h4l2 1 2 1c0 2 6 4 9 3l2 1-2 1c-2 0-1 4 1 6l1 3-6-6c-6-5-7-6-9-6-4 2-4 2-1 4 5 3 6 5 6 6 0 3-2 2-2 0-1-2-8-7-8-5s5 9 7 9l2 3c0 2 0 2-3 0h-4c-2 2-3 1-3-3-2-7-3-4-3 3 1 6 3 8 5 4 1-2 2-2 5 3 2 3 3 6 0 7-1 1-1 0-1-1 0-2-1-3-2-3-2-1-2-1-2 2l-1 4v3c3 2 2 4 0 3-2 0-3 2-1 4l2 3 1 3c2 1 3 0 3-5l1-5c0-4 2-2 2 2 0 5 1 7 3 7v2c0 2 1 4 3 4l5-4c3-4 5-4 3 0s-1 5 2 4h3l-1 3c-2 3-2 3-7 4l-5-1-2-2-1 4c0 3 0 4-1 3v-4c0-4-1-7-4-6l-1 4c1 3 1 3-3 2-5 0-5 1-1 4h5c1 2-3 8-4 6l-3-1c-2 0-2 0-2 2 2 5 3 15 2 18 0 5 1 5 4 0 2-3 4-4 5-2l-1 4a312 312 0 00-6 11l-3 6-3 7-1 8c0 4 0 4 2 4s3-1 4-3l4-4c2-1 3 0 1 1s-3 6-1 6l3-4 3-3 3-1h1c0 2 0 2 3 0 5-4 15-2 16 4 1 3-1 3-2 1-1-3-2-3-4-3-5 0-8 1-7 2l2 1 2 2 2 3 3 3c1 2 1 2-4 3-4 1-5 4-3 5 3 2 5 6 5 9s-1 3-5-1l-4-3c-1 0-2 0-2-2s-1-3-2-3c-2 0-1-1 1-4 3-3 3-4-1-6s-5-1-5 3v3l-1 7c-1 6-4 15-6 15s4 16 8 20a177 177 0 0033 29c1 0 2 0 1 1-2 0-6 5-6 7l12 5 5 2 2-1c3-1 4-1 2 2s-1 4 2 2c2-2 5-3 6-1l4 2 5 1c1 2 4 1 7-1l8-2c5 0 6 0 6-2 0-3 3-4 5 0 3 3 5 2 5-2l1-2 5-4 5-3c2 0 8-5 11-8 1-2 3-4 5-4l6-6c2-4 6-9 8-9l1-2v-2c0-1 1-2 2-1 2 0 3-1 6-4l5-4 2-3c0-2 1-3 2-3 3-1 7-7 7-10l3 1c2 1 3 1 2 2-2 3-1 4 2 4l7-2c3 0 4-1 4-3l3-3 1-1c0-2 3-1 3 2 0 2 1 3 3 3s3-1 1-3l1-14c2-1 1-12-1-14s-1-5 2-6l5-3c2-1 2-1 2 1v4l-2 5c-1 2-1 3 1 3l1 4c0 2 0 3 2 4l2 2c-1 5 0 7 2 8 2 0 6 4 6 5h-4c-4-1-4 1 2 5l4 4 4-4c4-4 7-5 10-3l1 9c0 10 0 11 6 9 3-1 4-1 4-4l3-7 2-6 2-9c1-5 1-6-1-15-3-10-3-14 1-16 2-1 4-3 4-6 2-3 2-5 1-8-2-4-1-5 5-5 4 0 5-1 10-5 10-11 10-12 9-18 0-6 0-6 3-9 4-4 5-14 3-16-2-1-9-22-9-25l-3-6c-2-4-2-4-1-6l8-1c8 0 8 0 9-5l3-6c2-1 3-4 4-7l1-4-6-9c-4-6-7-9-9-10l-6-6-3-4 2-23 2-22-4-10c-3-10-3-10-1-20 2-4 2-6 1-10s-1-5 2-11l3-6-4-8-3-10 4-7 4-5-2-6-1-6 4-5c3-3 7-8 9-13 5-10 12-16 19-19l6-2 10 5c10 4 11 4 14 3 5-2 7-10 6-23l-1-10-7-5-7-7 12-21c10-16 12-21 12-24l2-6 2-10a854 854 0 013-41l-1-9v-5c-1-2 0-2 7-3 6 0 9-1 14-4 7-4 9-7 7-11s0-11 5-18l8-15c3-7 4-10 9-14l5-6v-10c0-8 0-10-3-14-3-6-3-11 2-14 3-3 4-5 7-16 4-13 4-13 11-21l7-7 8 3 9 3c1 0 8-13 8-16l-2-7-2-11c0-5 0-5 4-6 3-2 6-2 16-1 12 1 15 1 30 8l4-4 3-5-4-3-3-3 4-4c7-8 8-13 4-22l-3-8c-1-2-1-2 3-3 2 0 5-1 7-3l4-3 1 3c1 3 2 4 4 4 2 1 3 0 4-2l2-3c2-2 2-2-1-6l-3-5 3-4c4-3 5-4 8-4 4 0 5 1 13 8 7 8 8 9 12 20 6 12 5 12 18 14l7 2c3 1 3 1 10-2l8-4 1-3c0-3 2-6 4-6l4 2 12 5c6 1 8 2 9 4 2 4 6 4 7 0l2-3c2-1 2-2 2-8l-1-6 4-5c5-4 8-10 8-14l-2-6c-2-5-2-6-2-18l1-25 1-5 5-11c4-9 6-10 12-10 3 0 5-1 10-5l6-6c1-3 10-6 12-5l2 3c0 2 5 7 8 8 1 0 3 1 3 3 2 3 10 6 16 6 5 0 9 3 13 11l4 6-4 10-5 14c0 4 0 5 3 7l4 3 3-6c2-4 2-6 1-11 0-6 0-7 2-8l3-3 5-6c6-5 7-9 5-14s-2-5 0-5c1-1 2 0 4 2 3 3 6 3 11 3 4-1 5-2 6-4 2-3 2-5-1-8l-3-5c-1-3-1-4-5-4-5 0-8 1-8 3s-2 1-3-2l-2-3-1 1c-2 0-2 1-1 3 0 3-1 5-6 7-5 3-5 3-2-2 4-3 4-6 2-8s-6-1-7 1h-1c0-2 0-2-2-1-3 1-3 1-2-2 0-3 0-4-3-5h-9l-7-2c-5 0-6-1-6-3s0-2 2-1 27 1 31-1c3-1 4-2 8-10 2-3 3-5 9-10l5-5-1-4c0-2-1-3-3-4s-3 0-4 1-2 1-3-2l-4-4c-2-2-3-2-7 1l-5 2 2-2c2-4 1-6-2-6-2 0-3 0-2-2 0-2 0-2-3-2s-4 1-4 3c0 4-2 4-2 1l-2-4c-1-1-2-1-5 2l-4 2c0-3 0-6-1-5l-3-3c-2-2-3-3-5-3-4 0-8 2-9 4l-2 4c-1 4-2 22 0 22l1 1-4 1c-3 0-5 1-7 3-4 3-4 2 0-6 3-6 4-7 3-10l-1-3-2 2c0 2-2 3-3 4-4 1-4 1-1-3 3-3 3-3 1-4l-4-1h-2c0-1 3-2 7-2 1 0 3-1 4-5 3-6 4-9 1-12-2-2-2-2-3-1-2 2-3 1-3-2 0-4-1-4-5-1zM709 81c-2 4-3 5-3 2s1-4 2-4l1 2zm-90 63l-1 1-1-2c0-2 0-2 1-1l1 2zm-11 22h-3c-1-1-1-1 1-1l2 1zm-45 26l-1 2v-2c1-2 2-1 1 0zm3 10l-3 2-3 2 3-2 3-2zm-83 130h-3c-1-1 0-1 2-1 1 0 2 0 1 1z"/>
  <path d="M701 44h-5c-4 0-4 0-3 2l3 2c3 1 3 2-1 5l-4 3-2-3-2-3c-2 0-1 4 1 7v2l-3-2c-1-1-2-2-5-1-4 0-4 0-3 3 0 2 0 2-2 2h-4l-3-1c-2 0-2 0-1 2s1 2 4 2c4 0 4 1 3 5v4c1 2 2 2 4 0l4-2c3 2 7 0 11-5l6-9 5-8c2-4 2-4 0-6-2-1-3-1-3 1z"/>
  <path d="M609 95c-2 2-1 4 1 7 2 1 3 3 3 5 1 5 7 5 10 1 1-2 1-3-1-4l-6-5-5-5-2 1z"/>
  <path d="M633 100c-4 5-4 8 0 11h5c3-1 3-1 3-7 0-9-4-11-8-4z"/>
  <path d="M598 99l1 2-1 2c-4 2-4 4 0 5 3 0 5-2 5-6 0-3-1-4-3-4l-2 1z"/>
  <path d="M605 104c0 2 2 4 4 4 3 0 3-2 0-3-3-2-4-2-4-1z"/>
  <path d="M589 109c-2 2-2 9-1 9l1-1c0-1 1-2 3-2 3-2 4-5 1-4-2 1-2 1-2-1s-1-3-2-1z"/>
  <path d="M597 113v2l-2 1c-4 0-5 2-2 4 2 2 2 2-1 2h-3l1 3 2 1 5 3c3 5 6 5 9 2l5-3c5 0 6-1 6-4l2-6-1-3-4 3c-3 2-3 2-2 0 3-3 3-3-1-5h-5c-1 2-1 2-2 0-2-3-7-3-7 0zm13 10l-1 2v-2l1-2v2z"/>
  <path d="M642 112c-2 2 0 6 2 6 3 0 5-3 3-5-1-2-3-2-5-1z"/>
</svg>
