<svg xmlns="http://www.w3.org/2000/svg" viewBox="0 0 1024 1024">
  <path d="M176 270l-9 1c-5 0-5 0-7 4-3 3-3 5-3 10 0 7 0 8-3 11-2 3-4 4-6 4l-4 2c-2 1-2 2-1 6s1 5-1 6c-2 2-2 2-5 1l-8-8-23-18-1 3c0 3-1 5-5 7l-7 7-8 8c-4 2-5 3-5 6 0 2-1 5-3 6l-4 6c0 2-3 4-5 5-2 2-5 5-8 11-5 9-10 12-16 12-2 0-3 1-5 5l-3 6 3 3 3 4-3 5-6 6c-2 2-3 3-3 7-1 5-1 5-4 6-2 0-3 1-3 3l-2 4c-3 1-4 4-1 7l1 4 2 6 2 8 1 7c1 4 0 4-4 2l-3-1 4 6 3 5-4 4c-3 3-5 5-5 7-2 9-3 11-5 12-2 0-5 3-8 7-5 6-5 10-2 14 2 1 3 2 6 1 4 0 5 0 7 3l6 3c3 0 4 1 5 3 2 3 13 11 15 11 1 0 11 6 15 10l5 2v-12l4-3c4-1 5-1 10 2l8 6 7 4 9 5c4 3 6 3 10 3 5 0 6 0 8 2 2 3 2 3 7 2 6-1 10 1 10 4l1 3 9 4c6 3 8 4 9 7l8 14c6 10 8 12 12 9 1-1 2-1 6 1 4 1 6 2 7 4 1 3 3 5 12 9l16 7c4 2 6 3 7 5 1 3 3 4 6 5l4 2 4 2c2 0 3-1 6-5l3-4h8c7 0 8 0 10 2s3 3 7 3 5 0 8 3c2 2 4 4 6 4l13 7 11 8 15-5c15-4 17-4 17 0l3 6c1 3 3 7 3 11 2 10 3 11 14 8l8-1 3 2c2 2 4 3 10 3h13c4-1 4-1 6 1l5 2 4 4c2 4 7 7 12 7 3 0 4-1 6-4l6-5c3-1 3-2 1-4-1-3-1-4 1-6l9-3c8 0 16 1 26 7l16 6 5-7c3-4 5-6 7-6 1 0 5-2 9-7l8-6s2 1 2 3c1 2 4 3 8 5s7 3 7 5l2 3 15 1c19 1 21 2 28 8 6 5 6 5 8 22v9l6 3c4 2 7 3 11 3 5 0 6 0 8 3 3 2 4 3 8 3s4 0 6 3c1 3 2 4 5 4l3 3 3 3c2 2 2 2 3 1 2-2 12-3 16-2 2 0 2 1 2 4l-2 5c-1 2-1 2 2 3 4 2 15 1 18-1l12-6 11-7 7-5c4-1 4-1 6 1s3 3 6 3 4 1 5 3l2 4 2 11c2 8 2 9 4 9l5 2 5 1c2-1 2 0 2 2 0 3 3 3 4-1 1-2 3-4 5-4l3-4 4-4h7l6 3 5 2h7c11-1 24 0 27 3l5 1 6 2 5 1 8 5c7 5 11 7 20 6 8-1 19-7 23-12l5-5 5-4 3-3 3 6c3 9 6 12 13 14 4 2 5 2 6 0h6l7 3c2 2 3 2 4 0l3-5c1-2 2-3 9-4s8-1 14 1l7 2 3-2 3-4c0-2 3-3 5-1l5 2c2 0 3 0 3-4 1-3 1-3 5-2l7-1c1-1 1-1 2 2 1 2 3 4 8 6l6 4 5-7c3-4 4-8 4-10 0-7 2-15 5-21s3-7 3-16c-1-10-1-11-6-18s-5-8-5-12c0-3-3-6-11-10-4-2-4-3-5-11-2-10 0-23 3-26 1-2 1-2-1-5s-2-5-2-12c0-8 0-9 4-15l6-13c2-6 2-9 1-14l1-8c3-4 2-11-1-15l-4-6v-2l-3 2-2 4c0 3-3 3-8 0-4-2-4-2-7-1l-5 6c-4 7-4 7-7 6-1 0-2-1-2-3s0-3-4-3h-7c-4 1-5 2-7 6-3 7-9 9-16 4-4-3-7-2-12 1-4 3-5 3-9 3-3-1-5 0-8 2s-5 2-12 2c-8 0-8 0-14-4-14-10-17-11-22-11-4 0-7 0-11-2l-12-4c-7-2-8-3-9-7-3-5-5-7-7-7l-2 2c0 5-4 6-9 4-5-3-8 2-7 12s-1 12-14 13l-9 1-6-4c-6-5-6-6-7-14l-2-7c-2-3-7-2-11 3-3 4-3 4-3 14 0 9 0 10-2 13-2 2-3 2-7 1-5-1-11-4-13-6l-1-3c-1-5-9-20-11-22l-4-4c-3-2-8-7-8-9l-2-7c-2-5-2-6-5-5-2 0-3 2-3 4l-2 4c-1 2-10-1-13-3-4-3-10-3-18 1l-6 3h-13c-12-1-14-1-17-3-8-5-8-8-4-19s2-20-6-22-11 0-13 6c-2 5-4 6-12 6s-11-1-21-11c-10-8-12-10-20-10-5-1-6-2-11-6-6-5-10-7-14-7-3 0-7-4-8-8-1-9-3-15-6-17l-4-5c0-3-1-4-3-5s-2-1 0-11c0-3 0-3-3-4l-8-6-4-4-3 3c-3 3-4 3-10-1-5-2-7-2-12 1l-5 4-3 2c0 2-6 6-10 8-5 1-6 2-6 5l-3 3-10-6-10-7-4-7c-1-6-2-7-9-14l-10-8c-4 0-5-1-5-4 0-2-1-4-4-6-4-2-5-2-6-1h-9c-4 3-7 2-8-1l-10-6c-6-3-9-3-14-3-6 0-8 0-11-2-6-4-7-5-4-6l2-3c0-2-2-3-9-6l-9-6c-2-6-8-10-15-10l-5-1c0-2-7-5-13-5-6-1-17-4-19-6v-6l1-4-9-9-10-10h-9c-7 0-10 0-17-2-10-4-28-5-34-2z"/>
</svg>
