<svg xmlns="http://www.w3.org/2000/svg" viewBox="0 0 1024 1024">
  <path d="M512 27l-25 7-19 16c-14 13-19 19-25 27s-13 16-34 36a13079 13079 0 00-107 103c-7 5-10 8-14 14-6 8-11 13-40 36l-27 23-35 29c-36 26-103 81-115 93-13 13-28 35-43 67-11 26-16 40-23 69l-4 14-1 43v44l4 17 7 44 4 27 5 4c4 4 5 4 11 4s7 0 9 3l3 3-3 6-3 6 5 16 4 17 27 27c22 23 26 28 26 31l2 5 44 32 44 32 18 5 19 4 11 9 12 9a570 570 0 00105 33l53 15 43 3 44 4 10-4c11-5 25-8 51-13l20-3 20-9c17-8 25-13 47-27l72-44 45-27 6 1h8c2 1 5-1 12-6 8-5 13-8 23-12l13-5 17-19 16-20v-12c0-10 0-15-2-21s-2-13-3-29a1396 1396 0 00-4-78c1-12 1-12 9-33a372 372 0 0015-47l7-28a365 365 0 0134-82c8-14 10-17 18-25 9-8 9-9 18-12 8-3 8-3 14-10a494 494 0 0142-49c9-11 11-14 11-16l3-8c2-3 2-5 2-11 0-7 0-9 3-14l3-6-1-14v-15l-7-19c-6-17-7-20-9-32l-1-14-4-4c-4-4-5-6-11-23l-5-19-8-5c-7-4-9-6-25-25-26-30-36-39-57-53l-18-12-2-7-3-8-20-7c-19-7-19-7-28-14l-12-10c-2-2-11-6-30-13l-27-9-59-1c-56-2-60-2-71-4a1256 1256 0 00-86-6c-1-1-14 2-28 6z"/>
</svg>
