<svg xmlns="http://www.w3.org/2000/svg" viewBox="0 0 1024 1024">
  <path d="M564 1c-4 0-15 4-16 5a103 103 0 01-30 12c-2 1-11 2-23 2a198 198 0 00-52 8l-7 3c0 2-4 4-7 5l-9 4c-1 2-4 3-6 4l-3 4-6 5-6 6-5 6-11 9-14 11c-6 4-9 7-16 15l-11 16-7 12-7 12c-1 6-6 17-11 24a300 300 0 01-49 62c-4 6-11 14-28 31-18 19-25 28-24 34l-2 8c-3 6-3 11-1 21l3 19c0 8 2 14 5 17 3 4 6 14 7 22l2 8 1 5 7 27c2 7 2 9 2 29-1 24-2 33-7 40l-9 18c0 3-24 21-34 25l-9 5-8 5a223 223 0 00-23 15c-3 2-7 5-11 6l-9 5-5 3c-2 0-5 2-7 5l-8 6c-6 4-11 9-16 18-6 9-6 13-3 24l3 8c0 2 9 15 16 23l8 12c2 4 5 9 14 18l15 14a248 248 0 0151 39 158 158 0 0137 41l5 6 6 8c6 5 14 19 14 24l2 7c3 6 3 21 0 24l-2 6-2 9c-2 4-3 6-6 7-5 3-9 6-11 10l-5 6-5 4-8 8c-6 6-7 8-6 17s3 11 20 18l8 3 22 1c18 0 22-1 26-2 4-2 4-2 10 0l9 2 4 1c0 2 6 8 10 9l10 6 21 16 6 7c2 4 4 5 9 8s7 5 11 11l9 10 10 8 9 5c1 0 4 1 5 3l5 2 5 2c3 1 15 1 19-2l5-1c2 0 12-4 22-10 11-6 21-10 23-10 4 0 10-2 13-4 2-2 5-3 7-3l8-3 13-2 13-2 14-2 11-2 16-2c12-1 13-1 17-3 4-3 6-4 7-8l11-18 8-14c6-13 8-17 11-20l4-6 4-8a251 251 0 0151-47l11-8c4-2 9-7 12-10s7-7 10-8l6-6c4-5 11-13 13-13 3 0 6-4 6-9l4-8 10-12 12-15c5-6 19-16 21-16l6-4 8-6 4-5 8-12 9-13 7-7 5-8c1-2 4-7 7-9l7-10 8-10 4-6 4-6c3-3 5-7 6-10s2-6 6-9l8-11 8-11 4-9 5-11 6-12c6-13 9-41 5-51l-4-10-6-9-3-6-3-3-3-4-4-6-8-12a426 426 0 00-18-35l-2-5c0-2-1-4-4-5l-3-4-4-5-3-5-2-5-4-10c0-4-2-8-3-9l-2-8c0-3-1-6-3-8-1-2-3-5-3-8l-3-11-2-11-3-9c-3-6-3-9 0-16l5-10c1-5 1-5-1-18l-5-19c-2-3-4-7-4-10-2-8-4-14-7-18l-7-12-5-9-1-4-3-9-2-11-1-4-2-9c0-6-1-9-2-11-2-2-2-4-2-8l-2-11c-3-6-3-17 0-23 2-6 2-38 0-43l-3-9c-2-7-7-15-12-19l-5-5c-2-5-5-8-8-8l-6-4c-2-3-4-4-12-7l-13-6c-6-4-15-6-26-7s-11-1-15-4c-4-4-5-4-10-4-10 0-17-2-19-4-1-2-4-3-6-4l-9-3-13-2c-18-2-30-4-32-7l-8-1-12-2c-5-2-9-2-15 0h-9l-4-2-3 1z"/>
</svg>
