<svg xmlns="http://www.w3.org/2000/svg" viewBox="0 0 1024 1024">
  <path d="M545 1l-5 1c-2-1-4-1-5 1h-5c-5-1-7-1-7 1-1 2 0 3 3 6 12 10 17 17 22 25l5 7c1 2 4 11 4 15 0 3-2 6-4 5-3-1-3 2 0 5l5 8c1 4 4 7 8 10l5 6 1 3 2 3 11 14c13 16 26 35 28 42 1 4 2 5 5 5l5-1c2-2 2-2 0-5l-2-3-5-6-2-4 3 1 5 3c6 6 11 5 5 0-2-3-3-5-1-5l3 3 4 4 2 2 3 2 1 1c-1 2-3 2-4-1-2-3-4-3-4 0v2l-1 3c0 3 0 4 3 5l4-1 3-1v10c0 9 0 10-2 10-3 0-4-2-1-4 1-1 1-1-2-2l-4-4-2-5h-5l-2 4 5 6c6 8 12 19 13 26 2 11 5 14 8 10l3-1 1-1c0-1 4-4 9-4h2l-2 1c0 2 2 5 4 5l5 1c4 2 3 2-2 3-4 1-9 6-8 8l-1 2-2-4-1-3-1-2c0-2 0-3-3-3l-4 1 4 12a265 265 0 0114 44c0 2 0 3 3 2l3-2c0-2 3-1 2 1 0 1-1 2-5 2-6 1-7 2-6 8 1 7 2 9 4 6 2-2 2-2 3-1 0 3-1 4-4 4-2 0-2 1-2 3v3l3-2h4c2 2-1 4-5 4-8-1-9 0-8 8l-1 10c-1 1-2 5-2 13l-3 19c-1 6-2 7-7 13l-6 6h-7c-6 0-7 0-11 3l-6 3-3 1-7 4c-5 3-6 4-8 7l-2 6c0 3 3 10 7 15s8 8 15 8c11 2 16 4 19 8l5 5 6 5c1 2 4 3 5 3l5 2 5 1c5-1 12 3 18 9 12 13 15 25 10 47-2 7-7 18-11 22l-3 4c0 3-2 6-5 9l-3 4c0 1-3 5-8 8-8 8-9 11-4 14h7l4-3c0-1 0-2-1-1l-1-1c-1-1 2-4 4-4s3 4 0 7v5c1 4 4 4 8 2 5-3 9-3 11-1l3 1 1 4c-1 5 1 11 3 12 3 0 11-3 16-7l4-2 5-3 6-4 7-6 7-6 3-3 3-6 5-9 5-8 4-7c2-5 6-13 8-13l5-6c3-4 5-7 7-7 5-2 6-3 9-16 0-2 2-4 5-6 6-5 8-7 9-14l4-12 3-8c0-2 1-5 6-11l2-3h-4c-5 0-7-2-7-8 0-3 0-4-2-4-4 0-2-8 3-14 3-2 5-6 5-7 1-3 7-7 18-10 6-2 10-3 18-3l11 1 3 1c3-1 5 1 3 4-1 1-1 4 1 9 0 3 2 2 4-2l3-6c2-2 2-4 0-4-3 0-4-2-3-12l2-12v-3c0-3 3-7 4-5 2 2 5 1 6-1 0-2 2-3 3-3l2-1 4-5c3-2 4-4 4-6s1-4 3-5l2-2-2-1c-2-1-2-1-1-2v-2l1-2v-2c-1-1-1-5 1-6v-3c-3-2-2-3 0-5s2-2 1-4v-6l2-5c0-3 7-14 9-15l1-3c0-2-4-5-10-6-4 0-5-1-6-3l-2-2-2-1h-9c-7-1-7 0-9 2l-4 4c-2 0-3 1-3 2l-3 1-2 1-3 1-2 1c1 1 0 3-2 3l-2 4-2 2-4 5-6 7c-4 2-5 2-12 2-6 0-8 0-9 2h-4c-2-1-2-1-1-2 2-1-4-4-8-4l-6-1-3-2c-2 0-15-6-21-10l-8-3-9-5c-5-4-8-4-4-1l1 3c-1 2-3 1-3-1l-1-1-7-2c-4-2-7-6-6-10v-2l-1-1 1-2c1 0 0-7-2-12l-2-12-3-18-1-4c0-4-2-5-5-4l-3 2-1 1c-3 0 4-8 7-8l1-2c-1-3-3-3-8-1-4 1-9-3-8-7 1-3-4-11-6-10l-3-1-4-2c-3 0-3 0-3 3 0 2 1 4 3 5 3 3 4 4 4 7 0 9 0 10 1 9s2-1 2 1c1 2 1 2-1 2-4 0-4 4-1 11 2 3 4 7 4 10l1 5c1 1 0 2-2 3-7 4-7 4-10 2-2-2-2-3-2-8s-1-7-3-9c-2-4-8-6-11-4h-2v-4h-6c2 2-2 1-3-1-2-2-2-2-3-1 0 2-2 3-2 1s-10-4-11-2c-1 1-1 1-2-1s-1-4 1-2h9l-3-6-2-6 3-2c5-2 5-4 1-3-5 2-6 1-6-3v-5c-1-1-1-1 1-2 3-1 4-3 1-4-2 0 0-3 4-4 3 0 3 0 1-1l-2-2 2-3-2-2c-3-1-8-7-13-16l-2-2-4-3c-2-2-2-3-2-8 1-6 0-7-5-7-2 0-3-1-3-2-1-4-1-4 2-2l5 2 3 3 4 2c2-1 2-3 1-3v-8c-3 0-4-3-3-8l-1-5-2-2c0-2-1-3-2-3l-1-3c0-2-1-3-2-3-2 0-3-1-2-2s0-3-2-5c-2-3-3-4-2-6l1-5c1-1 1-1-1-1l-2 2-3 1c-2-1-2-1-3 2 0 2-1 2-3 2-3 0-4-1-4-2-1-2-1-2-3-2s-3 0-3-3c0-1 0-2 1-1h6c1-1-3-4-7-4-2 0-3 0-3-2s-3-5-5-5l-2-1c-1-2-2-2-4-1-2 0-3 0-5-2l-4-2-3-1-3-1-3 2c0 3-3 4-5 3-4-2-5-8-1-9 2-1 2-1 0-3-2-3-3-4-3-1l-3 2c-3 0-4 2-1 6 2 4 1 6-3 7-3 0-4-3-2-6l2-3-3-2-4-4-4-8-6-8c-1-3-3-4-5-5l-3-3 1-2 2 1c3 2 4 2 4-3 0-2 0-3 2-3s1-2-1-3l-3 1zm50 52l-1 1v-1l2-2-1 2zm-20 30l-3 3c-1 1-1 0-1-1 0-2 3-5 5-5 1 0 1 1-1 3z"/>
  <path d="M701 131l-1 4-1 2-1 2 2 2 1 2c0 2 9 11 11 11 2-1 2-5 0-6-2-2-3-5-1-6s1-2-1-3l-4-5c-1-3-3-4-5-3z"/>
  <path d="M682 142l-1 2c0 3 2 2 3-1 0-2-1-3-2-1z"/>
  <path d="M672 186l-2 2c-3 1-4 3-1 3l6-5-1-1-2 1z"/>
  <path d="M687 187l-2 1-2 1-6 1 11 4c1-1 1 0 1 1l2 3c1 1 1 1 1-2l-1-3-1-3c1-3 0-4-3-3z"/>
  <path d="M744 246l2 3 1 4c0 3 4 5 6 3 1-1 0-2-4-6-3-4-5-5-5-4z"/>
  <path d="M519 487c-3 2-4 5-1 4 2-1 1 1-1 2h-2l-1-1-9 7-13 10-4 4-1 15a95 95 0 01-3 24l-2 5-7 10-8 9c-3 3-8 6-14 6-9 2-10 2-9 7 0 4 0 5-2 7l-2 5-1 4-1 2-2 4c-1 2-2 4-2 9 0 6-1 7-4 11l-4 7c-1 5-8 16-15 23l-9 9-2 3-6 4c-3 3-7 5-11 6l-11 5-5 3c-2 0-7 5-7 6l2 1v1l-4 2-13 10-5 2c-4 1-8 5-9 9-1 2-10 8-12 7l-3 1-4 2c-3 0-14 6-20 11l-7 5-7 4-7 6c-3 2-5 3-9 3-3 0-5 0-5-2-1-1-1-1-5 1l-6 2c-4 0-6 1-9 5-3 5-6 7-13 11-5 3-6 4-4 6 3 2 1 4-2 4-2 0-3 1-3 2l-3 3c-3 1-9 8-8 10s-2 6-4 6c-3 0-9 3-9 5l-2 2c-2 0-3 1-3 3l-2 2-2 1-3 2-4 2c-2 2-2 2 0 7l1 6-2-3c-2-8-6-8-12 0l-3 5 2 1c2 2 2 2 0 1-3-1-3-1-5 1l-3 2-2 2c-1 1-1 1 1 3l3 3-2-1-3-2c-2 1-2 7-1 11 2 4-1 1-3-3l-1-3-2 2c-2 2-2 3 0 4 2 2 1 3-1 2-3 0-7 2-7 4l-1 3-3 5-2 4-2 4c0 4 2 5 6 2l6-1-4 2-5 4c0 2 0 2-1 1 0-1-1-2-3-2-5 0-8 2-11 7l-3 5 4-3 4-4 1 2c1 2 0 3-2 3-5 2-6 3-2 3l6-2 5-1 9-1c7 0 7 0 6 1-2 1-4 2-9 2l-9 1-6 2c-4 0-8 4-8 7l1 6c2 4 2 4 5 3l5-2 5-2h3l-3 2c-4 2-6 4-6 7 0 2 0 2 1 1h3c1 1 1 1 2-1h3c0 2-1 5-3 5l-2-1h-2c-3 4 10 11 14 8l5 1 11 1a859 859 0 0119 0c0-7 9-8 16-3 6 4 8 7 7 7-1 1-1 3 1 3l1 2c0 1 1 2 5 2l6-1h10c1-2 1-2 5 0 5 2 7 4 9 8 1 4 1 4-1 4s-2 1 1 4c4 4 4 4 11 4l10-2 10-1c5 0 6 0 6 2 0 4 2 5 11 5l10-1 1-1c1 2 5 2 6 1l3-1c5 0 10-2 12-4 1-2 2-2 5-2 2 1 3 0 4-1l4-2 4-2 4-3 3-3-2-4c0-2 0-3 3-3 3-1 22-13 23-16l1-5c0-6 12-12 24-13 6 0 7 0 10-2 2-3 3-8 1-8l-3-2s-1-2-3-2c-2-1-2-1-1-3l3-5 3-3c2-2 7-10 7-12l2-3v-3l-1-4c0-3 4-10 7-13l5-6 8-10-3-2-3-1h3c4 0 4 0 5-3v-20l3-9 3-9c1-3 2-4 8-10 6-5 8-7 7-9 0-1 0-2 1-1l1 2 18-10 1-1c1 1 5-1 9-3 15-7 26-11 37-12l10-1h5l13 6c2 0 3-1 1-3-2-1-3-9-1-9l1 2 1 3v4c0 2 4 1 7-1 2-1 5-9 5-11l-16-8h-14l3-1c4 0 4-1 2-3-2-3-3-18-1-25s6-10 18-14l6-4 6-4c2 0 4-2 5-4l2-2 1-2 2-5 11-22c-1-1 0-3 3-5 4-4 6-5 8-3 1 2 2 0 1-2 0-3 1-5 10-14 5-4 6-6 6-9l4-8 19-23-3-1c-4 0-5-3-5-10 0-3 0-4-2-4-6-2-8-7-3-13l2-4 1-1 1 1 2 2 1-1 1-1c2 0 4-3 4-5l3-4c3-2 4-3 4-6 1-3 1-3-2-2-1 1-2 2-1 3s1 1-1 1l-4 1-3 2-5 3-5 1-5 2c-5 0 1-4 7-5 7-1 8-3 5-6-1-1-1-1 1-1 3 1 3 1 4-1l1-2v-4l-2 1c-2 1-2 1-2-1l1-2-2-1c-2-1-3-1-4 1-2 1-2 1-2-2s-2-4-3-1c0 2-1 2-3 1l-2 1c-2 1-2 2-1 3h3c0-2 2-1 2 0l-1 2v1l-1 2-2-1c-1-1-2-1-3 1-3 2-4 8-2 9l-2 2c-4 2-6 2-3 0 2-1 3-5 1-6-3-1-2-2 0-2l3-2 3-3c2-2 1-2-2-2l-5 3c-2 1-2 1-2-2s1-3 3-3c3 0 9-5 9-7l2-1h2c0-3-4-2-7 1l-4 3c-2 0-1-5 1-7 6-7 7-8 6-11 0-5-1-6-3-2-1 2-1 3-3 3-4-2-10 12-6 15 1 0-3 5-6 5l-1 2-2 4h-2c-1-3-3-2-6 1l-6 4c-4 0-7 2-8 5 0 2-1 3-4 4l-3 3-1 1-1-1-2-2-5-4c0-2-2-4-3-5l-1-2v-10c-2-1-1-2 1-2 1 0 2-1 2-5 0-3-1-4-2-5l-1-2c0-2-1-4-3-4l-1 1-1 1h-2c-3 2-7 2-7 1l-3-4-5-4-1-3v-2l1-3 2-5c2-3 10-4 15-2s5 2 1-1l-12-1c-8 0-10 0-12 2zM208 811l1 2-2-1c-2-2-2-3 1-1zm-58 56c0 2-4 1-5-1h3l2 1zm241 40l-3 1-1 2-2 1c-1 0-1-1 2-3l5-3-1 2zm-153 51c1 1 1 2-1 2-1 1-2 0-1-1 0-4 0-4 2-1zm1 9c0 3-1 2-3-1-1-2-1-2 1-2l2 3z"/>
  <path d="M198 977l-2 4-1 3c-1 0 0 2 2 3 3 3 3 4 2 6l-3 3-1 4c0 4 0 4-4 4-4 1-5 3-4 7 0 3 0 3-3 5-4 1-4 2-4 5 1 2 1 3 3 3l4-1c1-1 2-2 3-1l5-3c3-4 3-4 6-3 3 0 5 0 7-2 3-2 10-4 14-4 2 0 3 0 3-2l2-1h1c-1-1 0-2 1-3 2-2 1-4-1-5h-6v-1l-4-2-5-2c0-2 3-2 5-1 1 2 8 0 8-1l-4-3c-4-2-7-6-7-8 0-3-4-5-9-5-4-1-6 0-8 1z"/>
</svg>
