<svg xmlns="http://www.w3.org/2000/svg" viewBox="0 0 1024 1024">
  <path d="M513 1c-3 1-6 2-7 4-3 3-4 12-1 22l1 9-2 4c-4 5-5 12-4 14l3 9c1 6 1 7-1 10-3 6-5 15-4 16 2 1 11 1 15-1 3-1 4-1 5 1l3 5 2 7c2 8 2 8-7 11-6 3-10 3-20 4a105 105 0 00-24 4l-5 2-2 3 4 2 5 5v10c-1 8-2 9-11 27-7 15-11 24-16 40l-9 26c-2 5-2 8-3 23v19l28 46 26 43-21 67-40 124-18 56-32 12A11106 11106 0 0161 732a7238 7238 0 0088 211l5 2 16 39 17 39c1 1 13-1 22-5 10-4 24-6 29-4 6 2 9 0 15-6 5-7 10-10 17-10l10-1c6 0 6 0 10-5 5-9 6-9 54-11h26v2l6 6c5 2 6 2 11 1 7-1 23-6 26-8 5-3 18-16 19-20 1-2 2-3 5-4s3-1 2-5c0-3 0-5 2-8 4-10 3-12-2-19-5-5-5-7-1-14 3-5 13-14 15-14l2-4 4-8c2-5 5-6 19-10 11-3 14-4 30-5l19-2 23-1 20-1v-3c0-2 2-4 4-5l5-6c2-4 3-5 5-5 4 0 8-5 8-11 0-4 1-7 4-11l3-11 2-11 2-12c0-5 0-6 5-10l9-10c8-10 17-14 44-23l16-5c7-3 8-3 29-4 20 0 22 0 24-2 1-2 3-2 4-2 2 1 3 0 5-2 3-3 3-6 0-10-2-3-2-4-2-7 1-4 1-5-2-6-2-1-3-2-4-6-1-5-1-7 1-14l3-10-5-10-6-8v-11c0-11 0-12 2-16 4-5 7-12 8-21a407 407 0 014-26c0-8 3-12 10-17 5-3 5-4 5-8 0-5 0-5 6-10 5-4 5-5 5-9 0-6 2-9 8-11 5-1 13-2 15 0v4l-2 7-3 7-1 4c1 3 4 4 12 4l7 2 7 2c4 1 4 1 5-2l4-5c2-2 3-4 5-14 2-12 4-18 9-22l3-4 4-3c4-2 4-2 4-6v-5l-3 4c-4 5-4 2 0-3l3-6 3-5c3-2 4-4 5-8 1-5 7-13 16-22l7-8c4-5 13-13 26-22 10-7 11-8 12-12l6-9c4-7 8-15 8-20 0-3 3-7 8-13l2-4 5-7c5-4 5-5 5-8-1-2 0-4 1-6l1-5 7-11 7-9 1-9 2-14v-9c-1-4-2-4-5-5h-6c-2 0-3 0-8-3s-6-3-10-2c-5 0-5 0-9-4l-8-6-12-12c-9-9-10-10-12-17-2-9-6-13-14-17-4-2-6-4-6-5l-4-7-5-7-3-6-4-8c0-2-1-4-3-5-6-4-15-14-15-17s-4-7-7-7-10-5-14-10l-6-3c-5-1-5-1-8 1s-5 2-12 3h-9l-7-3c-9-6-18-8-31-8-11 0-11 0-14-3s-8-4-17-4c-5 0-7-1-13-4l-15-5c-22-5-34-11-51-23l-10-7-8-14c-8-13-8-14-15-18-6-4-8-6-12-13l-8-12c-4-5-9-17-12-27-3-9-3-9-6-8l-4 1-6 1c-6 0-9 3-11 8l-3 4-4 1c-2 3-4 2-9-3-4-4-4-4-4-10l1-6c2-1 1-4-1-5-3-2-3-2-10-1z"/>
  <path d="M853 532c-4 4-6 7-6 12 0 3-4 9-8 9-3 1-4 2-6 7-3 5-3 6-2 14 0 10 2 12 5 9l3-2c1 0 3-1 3-3l4-4c3-2 3-3 3-9 0-8 3-14 8-15 9-1 12-11 6-18-4-4-5-4-10 0z"/>
</svg>
