<svg xmlns="http://www.w3.org/2000/svg" viewBox="0 0 1024 1024">
  <path d="M588 302c-12 3-13 4-12 8 0 4 0 4-5 9l-6 8c-1 1-3 4-6 5l-7 4c-2 2-3 6-1 8v2h-3c-5-3-8-3-12-1-3 2-3 3-3 6 1 2 0 3-1 4-2 3-4 2-6-3 0-2-2-3-3-3l-13 13-15 13c-3 2-22 7-37 10l-12 4-9 4-16 7-14 5-7 4a242 242 0 01-30 24c-3 0-8 2-10 4l-4 2-10 5c-7 4-16 6-34 7l-16 2c-2 1-6 0-11-1l-17-1c-8 0-9 0-14-3-5-4-27-27-29-32l-3-2-3-2c-1-3-4-4-9-4l-4-2c-2-3-2-3 0-6l2-4h-2c-2 0-4-1-5-3l-5-3c-3 0-3 0-2 1l1 4c1 2 1 2-4 1-5 0-5 0-5 2l5 5c4 2 6 5 7 8 2 3 3 4 6 4l7 4c3 2 4 3 4 5 0 3-1 4-3 5h-6l-6-1c-2 0-3 0-4-2-1-4-3-4-7 2l-5 4-3-4c-2-3-2-4-5-4l-3 2c0 2-6 4-11 4-3 0-6-2-9-6-3-2-4-3-7-3-4 0-12-2-13-4v-13c-3-6-3-9 1-10h5l4 2c2 0 2-1 2-4 0-4-1-5-3-8l-4-3-3 3c-1 2-3 3-5 3l-6 1c-3 1-6 0-12-5-4-4-5-6-5-8 0-3 0-3 3-3 4 0 4-3 1-6-2-2-2-4 0-12 1-5 1-6-8-12l-14-11-9-8-1 3c-1 2-1 2-4 2s-3 0-3 4l-2 4-12-8-9-6c-5-3-7-3-12-3-15 0-18 2-14 11l2 5-6 4-6 2v17l1 34v17h3c3 1 12 7 16 11 1 2 4 3 7 4 4 0 4 0 6 6l2 5-2 5c-2 4-3 5-12 9-9 5-9 5-12 11-3 7-2 10 3 19 4 6 5 7 6 18 1 17 1 20-5 24l-11 6c-7 2-15 7-15 10s7 9 11 9c3 1 4 2 9 12l6 10-1 8v10l4-2c3-1 3-2 1-9l-2-11c0-8 0-9 2-14 3-4 3-5 11-7 6-3 9-3 20-3l13-1 8 4 9 4c4 0 5-3 4-9l1-5c1 0 2 1 2 3 3 10 3 10 9 7l9-2c3 0 4 0 4-2 0-1 1-2 3-2 5-1 6-1 6 3 0 2 0 2 2 2 3 0 6-3 6-6 0-2 0-3 3-3 6-1 7 1 4 5-4 4-4 6-1 9 1 1 2 2 1 3-2 3-1 5 2 5 4 0 4 0 6 4 1 4 2 5 4 5l2-2-1-4c-2-1 2-2 10-3h11l4 3c2 0 3 0 5-4 1-2 2-4 4-4s2 0 1 4c-2 5-1 5 7 7l13 4c9 2 13 2 11-1l-1-6v-4l2 3c3 4 5 7 5 10l4 5 4 4-3 1c-3 0-3 1-3 3 0 3 0 4 2 4l3 2 2 3 2 3 2 4c1 2 2 2 2 1 1-3 3-2 4 0v5c-1 2 1 9 4 10 2 0 2 1 2 12v11l3-1c4-2 10-3 11-2l-3 4-3 3 3 1 6 2 10 2c4 2 11 3 16 3l9 3 4 2 5 3c3 3 4 2 6-6 2-10 2-10-3-9-3 0-4 0-5-2-2-2-2-2 1-2l7-4c5-3 5-7 2-15-3-5-3-5-1-5 1-1 4 0 7 2 4 2 5 2 7 1l3-1-2-4c-1-4-1-6 1-4h3c4-2 4-1 4 5l-2 9c-3 3-3 6-1 8l5 2c2 1 2 1 1 2v4l-1 4c-2 3 0 6 3 6l3 3c1 3 3 4 5 5 2 0 3 2 3 3l2 4c2 3 3 5 1 6-1 1 0 6 2 8l3 10c1 4 2 8 4 10 3 3 2 7-2 8-2 0-2 1-2 3 1 2 0 4-1 6s0 5 3 5c2 0 2 0 2 2 0 4 5 5 10 3l14-1c10 1 11 1 17-1 4-2 7-3 12-3l7-1 4-1h5c0-2 9-1 11 0 3 2 5 1 5-3 0-3 6-10 8-10l4-2c1-2 1-2-1-6l-3-6 5-4c5-3 5-3 15-3l13 2c3 0 5 0 7-2l7-2c11-2 18-6 20-13 0-2 0-3-4-6-4-4-5-5-6-9 0-4-1-6-20-25-16-16-21-20-25-22-5-3-6-4-9-9-5-8-8-11-14-12-5 0-5 0-9-7-3-7-3-8-3-17s0-10 3-13c5-7 10-12 13-12l12-2c9-1 12-2 23-7l22-13 13-7c2 0 3-1 4-3 0-2 2-4 5-7l10-7 11-7c10-4 19-11 19-15l-4 3c-5 4-9 5-16 2-7-2-8-4-2-5l6-2c3 0 4-1 5-6l1-5-3-3c-5-6-5-7 0-13 3-5 5-6 7-6 5 0 8-1 8-3 0-1 3-2 9-2 5 0 5 0 13-8 9-9 15-13 23-13l10-2 21-1c15 0 16 0 19 3l13 4c8 2 12 3 17 6 6 4 7 5 10 11 4 7 4 7 8 7l4-1 1-2c1-2 2-2 6 4 6 8 8 10 13 11 2 1 4 2 4 4 1 2 1 2 3 0l2-3c0-2 4-3 4-2v3c-3 1-3 6-1 8s2 2 5 0h4l1 3 5 2c3 0 4 1 6 4 3 5 3 8 0 8l-3 1c-1 2-1 2 1 4l3 7c1 6 2 9 7 13l5 6c1 5 5 10 8 10l3-4v-11c-2-7-4-17-3-18 1-2 3 0 4 4l1 8c0 4 1 5 3 2v-4c-3-7 3-9 7-3l4 6 1 2 2-4 2-6c1-1 1-1 1 1l-1 4c-1 2 3 2 5 1 1-1 1-6-1-12 0-2 0-2 2-2 3 0 3 1 3 7 0 7-1 10-4 10s-4 6-3 8c4 3 13-4 13-10 0-3 0-3 3-3l6 3 5 2-3-7-2-9c1-2 4 0 4 2l2 4 3 6 3 5c1 1 1 1-1 1-3 1-3 4 1 6 3 1 5 6 5 9 0 1 1 4 3 5 2 4 7 6 13 6 5 0 19 10 23 16 2 5-2 3-9-4l-11-8c-6-1-6 0-1 4 4 3 4 3 2 4l-6-2-8-3c-4-1-8-5-8-6l-2-8-4-8-2-2c0-7-3-10-5-4 0 4-2 4-2 1s-2-6-4-5l-3 8-5 12-2 4-4-2-3-2-3 4c-3 4-3 4-2 8l3 6c3 2 3 8-1 14l-5 5c-7 2-9 2-11 0h-10c-1 1-2 2-1 5l2 5 2 7c1 6 3 12 7 16 12 11 19 23 18 29-1 4 1 8 5 8 4 2 11 9 12 14l2 8 18 16c5 2 7 4 10 9 3 7 19 24 22 25l5 3c6 5 7 4 8-1l1-9 3-11c1-7 7-16 12-19 6-3 6-7 3-22-2-9-2-10 0-13 1-4 1-4 4-3 3 0 4 1 5 7 2 4 4 8 9 13 6 7 8 8 11 8s4-1 5-3l10-7c7-3 8-4 12-11 3-6 5-8 7-9 4-1 5-3 3-9-1-3-2-6-1-8 1-3 0-4-1-5-2-2-1-5 4-10 3-5 6-7 12-10l11-4 4-2c1-2 1-3-1-6-4-4-9-18-9-23s-8-20-12-23c-6-3-9-7-10-13l-5-13c-4-7-5-8-9-11l-5-3-1-6c0-6 0-7 2-9l4-2 2-1c0-2-3-7-7-10-3-3-5-4-10-5-4 0-6-1-9-4l-6-7c0-1-2-4-4-4l-5-6c-4-8-6-9-11-9-4 0-5 0-8-4l-5-7-3-7c0-4-1-6-8-10-3-2-5-4-6-7-2-4-12-13-14-13-1 0-1 2 1 5l1 2-2-2-6-4-7-4c-5-6-14-11-21-12l-9-2-11-3c-5-1-14-3-22-7l-15-5-3-3c-1-1-2-2-5-2l-10-2h-15c-9 0-9 0-13-2-3-3-5-3-9-3l-8 1-6 2-10 2c-5 1-5 1-7-1s-3-2-14-2h-11l-1-4c0-6 1-8 5-8 5 0 11-4 11-7h-14c-10 0-14 1-16 2-6 3-10 3-18 1-5-2-8-3-17-3l-14-1-10-1c-6 0-7 0-6-2 0-3-2-3-13-1z"/>
  <path d="M123 347c-3 1-4 3-4 6 0 2 5 7 8 7l3 1c1 2 2 2 2 1 2-4 0-13-3-15h-6z"/>
  <path d="M144 363l2 2 2 5 1 7 1 3 1-3 5-5c4-2 4-4 0-5l-6-3c-3-2-5-3-6-1z"/>
  <path d="M123 372c-1 2 1 12 3 12 3 0 8-4 8-7 0-4-8-8-11-5z"/>
  <path d="M151 383c-2 1 0 15 3 15l2 1 3-3c1-4 1-5-1-8-1-3-3-5-4-5h-3z"/>
  <path d="M166 393c-1 1 1 4 3 5s6 0 6-2-8-5-9-3z"/>
  <path d="M698 491c-3 1-2 3 1 6l3 2v-3l1-4c0-2-1-2-5-1z"/>
  <path d="M708 495c-2 1-3 5-3 17 0 9 0 9 3 13 2 1 3 4 4 6 0 4 1 4 5 3h2l-2-3-2-5c0-2 1-3 4-4 3 0 5-1 6-4 2-3 2-3-1-13l-4-11h-5l-7 1z"/>
  <path d="M675 505c0 1 5 5 7 5 3 0 3-4 0-5h-7z"/>
  <path d="M679 522c-2 1-3 4-4 12 0 4 0 5 2 6l3 2 2-4 3-6c3-1 3-3 0-7s-2-4-6-3z"/>
  <path d="M219 657l-7 6-2 2-6 7-4 4 3 5c3 4 5 6 8 7 4 2 5 3 6 7 2 4 3 5 7 7s18 5 23 5c3 0 3 0 3-4l-1-7c-1-3-1-3-7-3-5 0-6 0-7-3-3-3-2-11 2-15 3-3 3-6 0-7-4-1-6-3-6-6s-3-10-5-10c-1-1-4 2-7 5z"/>
  <path d="M335 662l-8 4-8 4c-6 2-7 5-1 5l10-4 9-4c3 1 11-2 11-5h-13z"/>
  <path d="M214 712c-2 1-2 2 0 5l3 4c0 1 5-4 5-6 1-1 0-2-3-3-3-2-4-2-5 0z"/>
</svg>
