<svg xmlns="http://www.w3.org/2000/svg" viewBox="0 0 1024 1024">
  <path d="M509 1c-1 1-2 3-4 3-3 2-4 2-7 1-10-3-18 1-10 4 4 2 7 5 10 11l6 7c3 2 3 3 2 6-2 3-1 4 0 9 3 9 2 10-3 10-5-1-6 0-11 18l-3 14-19 21-29 28-10 8-36 12-36 12-6 7-8 11c-4 4-4 5-3 7s1 3-1 4c-2 2-2 2-4-1-3-4-6-4-7-1l-1 10c-1 8-1 9-5 12-3 3-4 4-4 10 0 4-2 9-3 11l-3 12c0 7-1 8-4 10-8 5-9 6-8 10 0 3 0 4-2 4-3 1-4 3-6 9l-8-2c-10-2-14-5-17-16-2-6-4-8-7-11-3-2-4-3-7-2s-4 1-7-1l-6-2-6-3-4-4-5 5c-5 4-6 5-10 5-6 0-7-2-3-8 4-4 3-7 0-8-1 0-2-1-2-4-2-6 1-8 7-5l2-1 3-3 4-1-1-9-2-10-1-4-2-5-2-2-3 3-8 6c-12 4-20 11-21 17-1 3-1 4-4 4-3 1-4 2-4 4 0 1-2 4-7 8-8 6-8 6-8 11l-1 10-2 8c0 2 4 8 11 15l4 4-3 4c-4 9-4 10 4 17l9 8c5 3 5 16 0 19h-11c-2-2-5 8-3 13 1 2 3 4 15 12l9 3 9 2c1 2 8 5 14 9 13 6 18 10 21 16l5 8c5 4 15 18 16 23l5 8 5 8c0 4 10 18 12 18s14 19 17 25l6 8c4 3 6 8 4 11-1 2-1 3 2 7 4 6 6 11 6 15l3 3 3 2 2 4c2 1 3 5 5 12 2 8 3 9 5 12 4 2 4 3 4 9l4 13 5 10c1 5 7 13 14 21 6 6 11 18 12 27l1 8 5 3c9 5 11 7 17 20l7 18 2 7 9 6c8 5 8 6 8 9s1 6 6 12l7 9 3 6 3 9 3 5 5 6 6 9v10l-2 9c0 2 0 2-2 2-4-1-5 3-2 6l3 6c0 5 1 6 4 8s4 3 4 5 1 4 4 7c4 4 8 10 8 14l1 2 7 4 9 6c5 2 9 6 12 11 1 3 3 6 5 7s3 2 2 3l1 2 6 6 11 8 11 6 9 5 6 4c5 4 10 6 14 6 2-1 4 0 12 8l10 9 7 1c12 2 15 3 21 7l7 4 4 3 4 2 10 4 10 3 15 4c2 1 3 3 3 5 1 2 2 3 4 3l7 5 7 4 5 4c2 2 4 4 6 4l10 4c5 3 6 4 9 9l3 10c0 2 1 3 4 6l6 6c2 3 4 4 8 4 4 1 5 2 11 8l14 12c7 4 8 4 14 5 5 0 8 0 13-2 8-3 11-5 14-10l2-5-2-8c-2-7-2-8 0-10 1-2 2-2 5-2s5 0 7-2c3-3 4-4 4-9 1-4 1-5-1-6-5-4-5-4-4-7s2-4 6-6c2-2 6-4 6-6l7-8 5-7c0-1 2-3 5-4 4-2 4-2 3-6 0-4 1-6 9-12l2-1-4-4-9-3-7-2c-2-2-8-21-9-28-1-6 3-16 8-19 5-4 5-8 1-10l-6-6c-3-3-3-4-2-7l1-6 3-3c2 0 3-1 3-4l2-6c2 0 3-2 3-3l5-6c3-3 4-4 4-7s0-3 4-5l4-2s-3-8-6-11l-3-10c-1-9-1-8 1-12 2-2 2-3 2-16l-1-13-18 8-17 7-13-6c-14-7-30-13-36-13h-4l2 2 2 3-2 1c-6 1-26-2-30-5-2-2-6-3-9-4l-9-3c-2-2-6-3-10-3-11-1-16-6-15-15 0-6-2-11-8-15l-5-5-6-9c-2 0-7-4-8-7v-10c1-6 2-8 6-14 3-5 4-7 4-10s0-5 3-8c3-5 3-5 2-10-2-5-2-5 5-2 7 2 15 1 25-6 5-4 9-6 11-6 7 0 17-8 25-19 3-6 4-8 4-12s0-5 5-9 6-6 8-12c1-5 2-9 1-11 0-3 0-4 2-5 2-2 2-4-1-4s-19 11-23 16l-5 4-7 4-10 5-25 2h-20v-6c0-4 0-6-2-7l-3-7c-1-5-4-8-7-8l-6-2c-2-2-6-2-19-3l-17-2 2-5c6-8 7-10 7-14s-1-6-5-12l-7-7c-3 0-7-5-7-8s-1-5-6-9c-5-5-6-7-8-12-1-5-2-7-5-9-5-4-6-8-3-10 1-2 2-3 1-5l-3-2c-2 0-5-2-8-5-3-4-4-5-3-6l1-4c0-4 2-6 7-7 5-2 6-7 2-11-1-1-1-3 2-9 2-7 3-8 7-12 7-6 14-10 17-10s7-3 9-6l1-9c0-5 0-6-3-8l-3-3 2-4 2-5c0-1 2-4 5-6 7-6 9-11 7-18-2-4-2-4 1-7l2-8c0-7 0-7 8-10 4-1 7-3 8-5l6-3c5-2 6-3 6-6l3-3c3 0 13-4 14-6l7-5c6-4 7-4 14-4l12-2 8-1 4-2h6c4 1 6 0 8-1l5-1c2 0 3-1 4-4 5-8 5-8 14-8h9c5 0 9 1 9 3s7 5 10 4l4 2 3 1 3-4 2-4-5-3c-7-4-8-4-8-9l-4-6-5-6-2-2-4 2c-4 3-10 3-14 0l-2-2 18-29c18-28 19-29 17-30l-7-5-10-5c-7-3-12-5-15-9-9-7-9-8-13-5l-14 4c-10 2-11 2-12 1l-3-2-4-2-8-4c-6-3-6-3-18 7-8 6-10 7-14 7h-33l-5 2-8-6c-6-6-6-6-5-8 2-5 1-12-1-19-2-5-3-5-5-5-4 1-9 0-13-2-2-3-2-3-3-10l-1-9c-3-4-10-9-14-10l-4-2-3-2-5-4-7-3c-3 0-4-1-7-4l-2-6c1-1 0-3-2-5l-2-5c0-2-4-9-6-10l-3-3c-1-2-3-3-6-4s-4-2-6-6-3-4-6-4-4-1-6-3l-8-5c-8-3-9-3-9-2z"/>
</svg>
