<svg xmlns="http://www.w3.org/2000/svg" viewBox="0 0 1024 1024">
  <path d="M471 3l-8 5c-2 3-2 3 0 4 3 3 6 2 6-2 0-3 2-3 7 1l7 3h4l10 1c8-1 9-1 11 1s3 2 7 2c5-1 8 0 15 6 6 5 11 8 13 8 1-1 3 0 3 1 2 1 2 1 4-1l3-1-3-3-5-4c-2 0-6-3-9-6-11-10-18-14-26-14l-4-1-29-3-6 3z"/>
  <path d="M457 15c-4 3-4 6 1 5 1 0 2-1 2-4v-3l-3 2z"/>
  <path d="M444 32c-1 1 0 2 2 2 4 2 7 1 4-2h-6z"/>
  <path d="M575 38c-2 1-1 4 1 6s3 2 3 1h1c0 3 2 3 3 1h7c6 2 12 2 10 0-1-1-25-9-26-8z"/>
  <path d="M620 54c-2 3-1 6 1 6 3 0 11 4 12 6l1 7c-1 5 0 8 3 8 4 0 6-13 2-20-5-7-16-12-19-7z"/>
  <path d="M645 96c-4 1-4 3 0 3 3 0 3 0 2 3l-2 4v1l4-1 2-2-3-9-3 1z"/>
  <path d="M647 111c-1 0-1 1 1 2l3 2v1c-2 0-1 2 1 2 3 0 3-2 2-5s-4-4-7-2z"/>
  <path d="M654 134l3 1 3-1-3-1-3 1z"/>
  <path d="M658 144l-2 2 2 1c4 1 5 1 5-3 0-3-2-3-5 0z"/>
  <path d="M658 151v3c3 1 5 0 5-3 1-2-3-3-5 0z"/>
  <path d="M661 166c-3 3-3 4 0 5s5-1 5-5c0-3-2-3-5 0z"/>
  <path d="M664 180c-3 0-2 2 1 2l2-2h-3z"/>
  <path d="M664 187l-3 1 2 1c4 0 4 3 0 6l-3 3h4c4 0 4 0 3 2-1 1 0 3 2 3s2 0 2-7c-1-8-2-11-3-11l-4 1z"/>
  <path d="M665 207v3c2 1 2 2 1 3v1l3 1c1 2 1 2-1 3-3 1-3 1 1 3l4 2c1 0 1-6-1-12-1-5-2-5-4-5l-4 1z"/>
  <path d="M669 225a127 127 0 0013 38c3 5 4 7 6 7l3 2 5 7 7 9c0 2 2 4 4 6l5 6 2 3c2 0 11 10 14 14 1 2 2 5 4 5l4 4 7 7c3 2 4 4 4 6 0 3 1 5 3 5 1-1 2 0 4 3l5 5c2 0 3 1 3 2l7 9a150 150 0 0112 15c2 0 13 9 23 17 9 8 11 11 12 15l4 5c3 2 3 2 3 0l1-5-3-6-4-6-4-3a221 221 0 01-43-45l-10-11-6-6a779 779 0 01-67-81c-2-1-3-4-3-5l-4-8-2-8-1-4c-2-2-8-4-8-2z"/>
  <path d="M563 300c-1 3-6 8-13 14-5 3-6 4-20 1-4 0-4 0-3 2 1 5 1 7-2 10l-4 7c-1 6-8 11-13 11s-6 2-6 9c-1 6-1 8-5 13l-5 6-2 1-2 3c-2 2-2 2-1 3 2 1-2 8-6 10s-13 2-18 1c-3-2-3-2-3-6l-2-4-7-3c-6-2-6-3-6-6s-1-4-2-5l-6-2c-4-2-4-2-5-1v16l-2 5-2 3v4c2 3 2 7 0 11v6c1 2 1 3-1 5-4 6-13 8-24 4-5-2-6-2-5-4 2-6-1-12-7-15l-7-2-6-3-4-3c-1 2 2 10 6 13l4 7c0 2 1 4 4 5 3 2 4 3 5 13 2 8 4 12 7 12 2 0 3 2 4 6 3 9 3 11 2 12v3c2 3 2 11 1 15-2 5-9 12-11 12l-7 2c-4 2-12 3-14 1l-2-3c-1-2-4-3-6-4s-5-2-6-4c-1-3-3-3-3 0-1 2-9 5-14 5l-10-2c-5-2-7-4-12-9l-6-6v-6c-1-6-1-7-3-8-3 0-4-2-4-4l-1-5-2-3-1 2-2 3-1 2-1 1v3c1 1 1 2-2 4l-5 2c-3 0-8-3-8-5s-3-4-5-3l-2-1c-2-2-5-1-6 2l-4 4c-2 1-2 2-1 5 0 4 2 7 6 10 2 2 2 3 1 5v4l3 4c1 3 2 3 4 3l5 1h2l3 3c2 2 2 3 6 3 3 0 4 1 5 2l6 4c5 2 16 12 16 14l1 2 2 3 4 14 6 3 6 4 5 2 4 3 7 3 8 3 6 2c3 2 5 2 9 2l7-1h4l5-1 16-1c21 0 22 0 23-2l3-2 3-1 4-2c10-2 16-8 16-17 0-5 0-5-4-9l-7-4-4-2-2-3-2-5-2-4c-2-1-4-5-5-9-2-6-2-7-1-10 1-2 1-2-1-3-2 0-2 0 0-5l2-7 2-6c2-1 4-5 5-7 2-4 3-4 5-4 1 0 3-1 5-4l5-5 4-2 7-9c6-8 11-11 14-10 2 1 3 0 5-4l5-5 3-3 4-4a2568 2568 0 0037-32l8-4 6-2 6 1c3 0 5 1 11 5 7 4 8 5 9 4 1-2 1-2-1-4-2-3-3-8-1-16 2-6 7-16 10-18l2-4h-9l-6-2c-4 0-6-2-8-7s-3-10-1-12c1-1 0-17-1-17l-2 3z"/>
  <path d="M827 420c-2 3-2 3-1 5 2 2 3 3 11 3 8 1 9 1 13 4 6 4 10 8 10 9l1 1 4 3c2 2 30 19 34 20l7 1h5c2-2 1-4-2-4l-18-6c-12-7-16-9-17-11l-4-4-7-7c-10-8-24-16-30-16l-6 2z"/>
  <path d="M918 464l-4 2-1 2 4 2c3 2 4 2 4 0l4-1c5 1 6 2 8 6l3 3 2 1c3 4 5-3 3-8-1-2-3-3-9-5l-9-3-5 1z"/>
  <path d="M724 493l-1 5c-1 6-5 14-8 16l-4 5-6 6c-17 10-17 10-26 11l-11 2-18 11-15 12c-4 1-5 4-2 4l4 2c2 1 5 2 13 2l17 2c7 2 8 1 11-6l8-10 13-12c5-4 10-8 14-9 6-3 6-3 14-2a51 51 0 0111 3v-8c0-6 0-8-3-14l-6-8c-1-1-2-3-2-7 0-5-2-7-3-5z"/>
  <path d="M190 537l1 4 1 3 3 2 3 4 1 3c0 3-1 5-5 9l-5 6-8 5c-7 2-8 1-12-4l-5-5-3-2c-1-2-3-2-4-2-4 1-4 5-1 10l1 5c0 2-4 2-7 0-4-2-8-2-8 1 0 2 4 6 9 7 4 0 8 4 8 7 0 4-2 10-5 12-1 1-3 4-6 5l-4 3-8-1c-10-1-12-2-12-5s-1-3-3-3l-4-1c-2-3-4-2-5 1l-5 5c-3 2-4 3-3 4l2 1 4 3c2 2 3 4 2 6 0 2-4 5-8 5-5 0-16 8-14 10l-1 2v5c1 5 0 8-4 9-3 2-4 5-2 7 2 1 4 1 4-1l2-1c1 1 3 0 4-1h3l4-2 4-2 4-2c2-3 7-5 8-3s7 1 14-1c2-1 7 0 7 3 1 3 3 3 4 0l2-2 1-2c0-3 0-3 3-2h5c3-1 8-1 19 1l5-1c1-2 7-1 12 2 8 3 9 3 12-3 3-5 6-8 9-8l2-2c1-1 2-3 4-3 2-1 3-3 0-4l-1-3-3-5c-3-3-3-3-2-14l1-13c2-4 6-8 9-8l3-1c1-2 0-5-2-5s-4-3-4-6l2-6 4-6 2-4c2-2 1-4-2-6-2 0-4-2-4-3l-13-9-2 1-4 2c-1 1-2 1-2-1l-4-2c-2 0-3 0-3 2z"/>
  <path d="M884 602c-1 2-1 3 1 5 1 2 2 4 1 6 0 3 0 3 1 2l1-9 1-5c2-1 1-2-2-2l-3 3z"/>
  <path d="M184 658l-1 2c0 2-4 7-6 7l-4 3-3 4c-2 1-2 1-2 9s0 8-2 9c-4 1-5 4-2 6 2 2 4 3 7 1 2-2 2-2 5 2l4 6 1 5c2 2 2 2 3 0s2-4 1-6c0-3 0-3 3-4 3 0 3-1 3-3v-3l4-4a462 462 0 011-22l-4-12h-9z"/>
  <path d="M880 670l-2 6c0 5 0 6 2 9l2 4h3c2 1 2 1 2-5 0-9-5-18-7-14z"/>
  <path d="M621 714c-2 1-2 2-2 8s0 6 2 6 3-2 4-5c3-10 2-13-4-9z"/>
  <path d="M628 741c-1 5-2 6-5 6-4 1-6 9-5 18 0 8 3 12 11 13 4 1 5 2 7 6 7 11 8 17 4 25-2 3-3 5-8 7l-5 3 5 1c4 0 5 0 6-2l3-3 2-2c0-1 4-4 7-4 4 0 10-2 10-4v-3c-2-2-2-2-1-5l4-6c2-2 3-3 3-5l4-11c3-6 4-7 6-7 3 0 4-2 2-5-4-3 0-11 8-15l8-3c4 0 6-1 6-2l-1-1-5-1c-3-2-7-1-21 4-8 2-11 2-14-1-5-4-6-4-19-4-10-1-11-1-12 1z"/>
  <path d="M604 823c-2 1-2 3 0 3l4 2 3 1 8-6h-15z"/>
  <path d="M866 859l-10 4-5 3-8 6c-3 2-4 3-3 4 1 2 1 2 6-1l6-4 3-2 4-2c4 0 15-8 15-11 0-2-1-1-9 3z"/>
  <path d="M409 872c0 1 3 3 5 3s2 0-1-2-4-2-4-1z"/>
  <path d="M418 891v4l-1 3-1 3c-1 2-1 2 3 2s6 1 8 3l5 3c1 0 9 8 9 11 2 4 5 9 6 8l-2-6-2-9c1-3 1-3-3-3-5 0-8-2-11-8l-5-8-4-5-1-1-1 3z"/>
  <path d="M527 953l-2 3-1 2c-2 1-3 5-2 7 2 3 5 2 7-2l3-5c2-2 1-2-1-5-3-2-3-2-4 0z"/>
  <path d="M480 992c-8 4-9 4-13 3-6-1-7-1-5 3l3 2c4 0 7 5 6 9l-1 7c0 5 0 6 2 7h6l4-2 3-2c1-2 3-3 3-2l3-1c2-2 1-24-1-27-1-2-2-2-10 3z"/>
</svg>
