<svg xmlns="http://www.w3.org/2000/svg" viewBox="0 0 1024 1024">
  <path d="M392 215c-3 1-6 4-6 7l-2 4c-2 2-2 2-1 4 2 3 4 3 9 2l4-3c0-3 2-3 11 0 7 2 8 2 11 1l8-2c3 0 6-1 7-3l6-2c3 0 3 0 3-3v-4l-8 1-17-1c-9-2-22-2-25-1z"/>
  <path d="M468 233l-2 4c-1 2-1 2 1 3s3 1 5-1c4-1 4-3 3-5s-5-3-7-1z"/>
  <path d="M625 244c-5 3-6 5-3 7l3 4c1 4 7 8 13 8 7 0 10-2 10-5 2-8 2-8-7-12l-10-4-6 2z"/>
  <path d="M671 261l-6 5 5 2c3 2 5 2 10 2l6-1 10 8 13 9 11 6 8 4 7 7 9 10c5 3 5 4 14 4l10 1 13 18c21 26 20 25 22 41l5 19 6 8 4 3 3-3c4-3 7-8 7-13l2-9c2-2 3-6 3-8 1-3 1-3-4-6l-9-8c-5-6-12-13-19-17l-22-21-4-4c-4-1-6-3-9-7-4-6-9-9-19-12l-13-7c-19-14-23-17-28-18-5 0-21-10-24-14l-4-4-7 5z"/>
  <path d="M11 385a617 617 0 01-4 132l-4 10c-3 6-3 6-2 11 1 4 3 6 6 9l4 4v38l1 79 1 41 5 1c5 1 5 1 8-1 5-5 8-5 16-1 6 4 6 4 13 3l11-1 14-2c11-3 19-2 32 5l9 5 14-8c11-7 15-8 22-10 4 0 9-2 10-3 4-2 4-2 4-11v-9l-6-6c-9-10-17-15-24-16l-10-3c-4-3-6-3-11-3l-7-1 17-3 9 3 4 2 8-2 16-4c10 0 20-2 21-3 1-2-5-9-8-11l-6-6-2-3h2l6 4c2 2 4 2 9 2l8 1h4c2 0 3-1 3-2-1-2 0-2 3-1 2 0 3 0 4-2l-9-16-11-16c-1-3 4 1 8 7 3 4 4 5 13 9 12 5 15 5 17 0 1-5 3-5 7-1 2 2 3 3 6 3h4l-2-4c-4-6-4-8 0-5l3 3 1-4v-3l2 3c3 3 4 4 6 1h4l5 3c2 0 3 0 4-2 0-1 1-2 2-1v9c1 2 20 6 24 6l7 3c5 4 6 4 13 4s9 1 16 3l12 4 7 1 3 4 6 8 7 11c2 5 4 9 9 13 15 17 15 16 13 18-1 2-1 3 6 9 4 5 8 7 11 8 5 2 5 2 4 5 0 4 1 7 3 9 2 0 4 3 5 5 3 6 3 6 4 4s2-1 11 4c10 8 17 16 19 23 1 5 1 5 8 11 4 4 6 5 9 5l9 3c3 3 5 3 10 3 6 0 7 0 8-2 2-2 2-2 6-1 2 1 5 3 5 5 2 3 3 3 5 3a400 400 0 0118-4c2-1 4 0 10 4l8 5 7-3 6-2 5 3c4 2 6 3 10 3l7 1 13 3c8 0 12 1 15 3l9 2c6 1 6 2 5 4l-4 1h-5c-1 1 1 3 8 7 9 5 10 5 17 5 6 0 9-1 14-3 15-6 15-8 0-14-6-2-10-5-10-6 0-2 6-2 15 0 3 0 5 0 10-3 5-2 5-2 3-3l-12-2-4-1c-8 1-13-1-17-5s-5-4-14-5h-9l-7-8c-6-5-7-7-6-9 0-2 1-2 6-2s6 0 9-3l3-3-5-4c-5-3-6-3-20-3l-14-1-8-5-8-5-1-5c-1-3-1-4 5-11l6-7-2-3c-1-2-2-3-5-4l-7-1c-4-1-5-1-7 2-3 2-4 3-8 3l-6 1c0 3-7 2-14-1l-6-2-3-12-3-12-5-4c-7-5-11-11-11-17l-3-12-3-9-6-1c-5-1-6-2-7-4 0-2-1-2-11-4h-5l-3-7c-4-8-6-11-23-21l-13-8v-8c-1-9-1-10-4-14l-6-6c-3-1-3-2-2-7 1-10 1-11 3-12l21 1c18 1 19 1 22-1l6-2 7-2 4-1-1-6-3-11c-1-5-2-6-4-8-2-1-5-4-7-8-2-3-5-6-10-9-9-6-13-7-20-6-8 1-9 1-20-6l-8-3c-3 0-6-2-15-7-10-6-12-7-16-7-3 0-6-1-11-4-6-3-10-4-20-6l-12-2-1-3c0-4 0-5 3-8l3-3-1-13-1-13-8-9-14-14c-5-6-6-6-13-7-6-1-8-2-14-6l-12-12c-4-4-7-6-9-6-5 0-9-3-13-9-4-8-6-9-22-7l-11 1-9-8-11-8c-1 0-4-1-5-3-2-3-31-13-39-13-5 0-12-2-36-10-27-9-30-10-33-13-4-4-5-4-9-4s-6-1-8-3l-14-6-18-8c-8-4-11-5-16-5l-7-1v125z"/>
  <path d="M675 281c-3 1-4 4-1 3h11c3 1 3-3 0-4-4-1-6-1-10 1z"/>
  <path d="M764 367l-5 1c-2 0-3 1-3 3-1 3-1 3-5 3-3 0-4-1-7-3l-3-4h-9c-14 0-14 0-8 9l5 10 1 4c2 2 5 25 4 26l-12 1-16 3c-4 2-5 3-10 10s-6 9-6 12c0 6-2 8-11 9-7 0-7 0-10 4l-2 4-8-4-9-4-5 3c-7 5-9 4-15-4-5-6-5-7-5-11l3-9c3-5 3-5 1-5-4-1-10 3-14 11l-4 6 3 5 3 4-6 5c-5 4-6 4-9 3-6-3-9-3-14-1-4 3-6 3-13 3-9 0-9 0-16-4l-8-4-7 2c-4 2-6 3-7 2h-14c-2 1-3 1-6-2-6-5-10-3-12 6-1 4 0 5 2 9 4 5 8 7 19 9 7 2 9 3 13 6l10 7 6 5 2 3 4-3c3-2 4-2 10-2 8 0 11 2 17 10l4 5h15a126 126 0 0025-1l6 1c5 2 5 2 11-1l10-5 9-3c3 0 4 0 6-3 3-6 3-6 11-7 7-2 9-3 17-8 6-3 12-9 15-12 5-5 5-5 4-7l-2-4c0-2 0-2 10-1 8 0 11 0 12 2 2 2 6 1 16-5l9-6v-4c0-5 0-5-6-9-6-5-8-8-6-13l1-3h9l9 1 5-7c7-8 8-13 6-20-1-3-2-6-1-10 1-8 1-9-1-10h-5c-2 1-3 0-3-4l-7-6-3 1z"/>
  <path d="M342 395c-2 3-2 4-1 6 1 3 2 3 8 2 2-1 2-1 2-6s-1-6-3-6c-3 0-4 1-6 3z"/>
  <path d="M930 426l-3 6c-1 3 0 4 3 11l4 8 3-1c3-1 3-2 3-6 0-6-2-14-4-17-3-4-3-4-6-1z"/>
  <path d="M419 436c-3 2-5 7-2 10 2 3 9 6 11 5 3-2 3-8-1-13s-4-5-8-2z"/>
  <path d="M469 454c-2 1-2 2-2 5 1 4 2 6 8 12l7 7 3-3c3-2 3-3 3-7 0-5 0-5-4-7-10-7-12-8-15-7z"/>
  <path d="M944 456l-1 5c-2 3-3 14-2 21 1 3 2 5 5 7l11 8 11 8c2 2 4 3 5 6 2 4 2 4-1 5-1 1-2 2-2 5s1 4 8 10c4 4 10 9 13 10 5 3 6 3 17 3 13-1 15-2 16-9 1-6-1-11-9-21-6-6-10-10-17-14-6-4-10-7-12-11-3-3-5-5-7-5-3-1-5-4-6-10-1-5-6-12-8-13l-6-1-9-3c-6-3-6-3-6-1z"/>
  <path d="M692 655l-4 4c-2 3-2 3 1 4 2 2 3 3 3 5 0 3-1 4-2 5-1 0-1 1 1 3s3 2 4 1l1-12c1-12 1-12-4-10z"/>
  <path d="M793 694l5 3c3 1 5 4 6 6 2 3 3 4 7 5s5 1 9-1l4-3c0-2-8-8-13-9l-18-1z"/>
  <path d="M636 707c-7 4-10 9-7 15 2 2 9 8 11 8 1 0 2-2 2-6 1-4 1-7-1-11-2-7-3-7-5-6z"/>
  <path d="M649 722c0 2 1 4 4 6l3 3-3 4c-5 5-3 5 10 4 10-1 11-1 14 1 2 2 2 2 3 0v-8c1-3-4-8-9-8l-7-2c-2-2-6-3-9-3l-6-1v4z"/>
  <path d="M673 749l1 4c0 1 1 2 3 2 2 1 3 2 3 4l3 7c2 5 2 6 5 6l8 2 6 2 5-16c0-5-6-4-7 1-2 6-6 7-9 1l-7-8-6-6-3-2c-2 0-2 0-2 3z"/>
</svg>
