<svg xmlns="http://www.w3.org/2000/svg" viewBox="0 0 1024 1024">
  <path d="M474 2c-3 2-1 5 4 6 4 1 4 1 6-1 3-2 3-3 0-5-2-2-7-3-10 0z"/>
  <path d="M461 20c-1 2 1 6 2 6 2 0 3-3 2-6 0-3-4-3-4 0z"/>
  <path d="M505 32c-2 3-2 6 0 7 2 2 5-1 7-5l1-4c-3-2-6-1-8 2z"/>
  <path d="M469 34v3c3 2 6 1 6-2v-3c-1-1-4 0-6 2z"/>
  <path d="M431 56c-3 4-5 5-7 5-3 0-4 1-5 11 0 12-2 17-6 26-2 5-5 11-5 14l-3 9c-3 4-2 8 0 14 4 6 5 14 5 27v11l-3 4-4 4 1 19c0 18 0 19 3 23 3 5 3 7-1 7l-5 3c-5 5-13 4-13-1 0-3-2-6-9-10-4-3-5-4-5-6l-1-4c-1-2-2-2-4 0-2 1-2 2-2 12l-2 13c0 2 0 3 3 5 4 3 5 5 5 25 1 14 1 15 7 23 4 5 5 6 5 13 2 12 2 16 4 17 2 2 5 3 8 0 3-2 5 0 3 3-2 4 0 8 3 9 2 0 4 1 6 5 3 6 8 10 10 8 3-2 4-12 2-17-2-4-2-4 0-7l2-2 4 3 12 5c7 2 8 3 10 6s2 4 1 6-5 3-7 1c-1-2-3-1-4 2 0 3-2 6-8 11l-7 7 1 14 2 14c1 1 6-4 6-6s5-1 8 1l4 8c1 3 1 4 2 3 2-2 5-1 9 2 4 4 12 7 17 5l9-1c4 0 5 0 5-2l-2-5c-4-3-3-5 4-6 3-1 7-2 8-4 3-2 4-2 9-2 7 1 17 7 24 15 5 5 6 6 13 8 9 3 12 6 13 16 1 8 3 11 8 11 4 0 5-3 4-10 0-7-2-10-7-16-3-4-3-4-3-10 0-4 0-7-2-11l-2-6c0-4 4-2 11 5l10 8 4 7c3 4 3 5 6 5l6 3 21 20c2 2 2 3 0 5l-1 6c0 3 1 4 6 5l8 3c2 2 5 3 7 3l7 3 2 2 5-4c7-6 7-6 11-5 6 1 5 6-1 6-5 0-6 1-6 6 0 6 1 7 5 7 3 1 4 1 4 3 0 3 3 7 4 7l5-6c4-6 5-13 3-18-1-2-1-3 1-6l1-7c0-3-1-4-3-4-1 0-2 0-2 2l-2 3c-1 2-1 2-4-1s-4-3-8-3c-10 0-11 0-7-8l2-4-3-2c-2-1-3-3-3-5 0-3-5-10-9-10l-4-3c-3-7 0-8 14-8h10l2-4 2-3-13-6-15-7-3 2h-5c-4-1-5-3-5-6 0-4-2-4-8-1-4 1-6 4-2 4 2 0 3 1 2 10s-3 11-10 7c-3-2-3-2-3-6 2-7-1-15-6-21-4-3-5-6-5-9-1-4-1-4-3-3h-29l-4 4c-4 3-5 4-5 6 0 4-2 8-7 11-4 4-13 4-21 0s-12-8-12-10l-2-8c-2-2-3-6-3-8l-4-7c-3-4-2-8 2-10 3-2 4-3 1-5l-2-4-3-5-4-8-3-5-1-5-4-6c-5-4-8-10-5-10l4-4 5-5c6-6 7-7 7-11v-7c-3-3-2-6 1-13 4-8 6-10 13-12l10-5c5-4 6-3 3 3-5 9-1 9 6 1 5-5 6-7 6-11 1-10 5-22 9-27 5-6 10-18 11-25 0-5 0-6-2-10l-3-5c0-3-5-9-8-9-4 0-9-9-10-18l-2-9 1-7 2-11c1-6 2-8 4-10 6-7 7-10 3-16l-4-6c-2-6-6-5-6 1 0 4-7 10-12 11-6 2-10 1-16-2l-13-5-16-8-10-6h-8l-12-1c-3-1-4-1-8 3z"/>
  <path d="M512 304h-2l-2 1c-1 2 1 7 4 10l2 6c0 3 1 5 4 5v-23h-6z"/>
  <path d="M669 364c-2 1-2 3-1 11l1 9-3 7c-2 4-4 7-3 8h18c4 0 4-1 6-5l2-8c0-4-1-5-5-10l-5-7c0-2-4-6-7-6l-3 1z"/>
  <path d="M511 405l-1 3-3 4-3 4 6 5 8 7c0 2 1 3 2 3l4-3c7-7 7-16 1-18-2 0-3-1-3-3s-1-3-4-1c-2 1-2 1-2-1s-5-3-5 0z"/>
  <path d="M441 410c-3 3-10 3-22 1-13-3-13-3-15 5-1 3 0 4 7 4 2 0 3 1 3 3s2 4 9 9c5 4 9 7 9 9l2 10 1 9 6 6c5 4 6 6 6 9 0 4 8 14 12 16 2 0 3 2 4 3 0 2 2 3 4 4 3 1 3 1 5-1l6-3c3-1 4-1 5-5l1-7 3-6 4-6c1-3 0-8-2-10-3-3-3-13 0-18s3-8-1-9c-6-3-9-4-10-8-2-4-11-9-16-9-4 0-10-2-15-6-3-2-3-2-6 0z"/>
  <path d="M586 435c0 2 1 3 4 3l6 6c4 5 9 9 13 8s4-2 0-5l-9-8c-5-5-6-6-9-6l-5 1z"/>
  <path d="M633 462l-3 1 3 4 6 8c2 4 4 7 6 7l1-4c0-3 0-4-2-5-1 0-3-3-4-7l-3-6-4 2z"/>
  <path d="M720 468l-1 2a219 219 0 01-38 0c-2 1-2 1 0 3 3 3 5 8 5 13 1 7 9 13 19 16 3 1 4 2 5 5a29 29 0 0021 16c1 0 2 1 1 6 0 6-1 7-4 10l-3 4 3 1 4 4 6 7c10 13 12 13 27 13l11-1 6 4 8 4c2 0 1-1-4-6l-7-8-2-1c-2 0-2-1-2-3 1-9 2-8-3-12l-4-3-2-13c-1-12-2-16-1-22l-1-9c0-6-1-6-4-10l-5-3-1-3c0-3-1-5-4-8-3-4-4-4-10-5l-9-2c-5-2-10-1-11 1z"/>
  <path d="M525 471c-2 2-3 3-3 7l-2 7v7l1 8 2 5 3 2 1-9 2-16c3-13 2-14-4-11z"/>
  <path d="M611 471c-2 1-2 22 1 24l1 2-7 11c-2 3-2 3 0 6 0 2 1 3 2 3l11-14c2-4 3-5 6-5 2 0 4 1 6 4l33 22 6 3-1-3-3-7-2-6c0-2-1-4-3-5l-4-6c-1-3-2-5-7-7l-8-6-11-7-8-5-4 3c-4 2-4 2-5 0v-5c0-3 0-4-3-2z"/>
  <path d="M554 479c-2 2-2 2 0 4l3 3 5 3c4 2 6 3 8 0 1-2 0-5-2-8-3-4-12-5-14-2z"/>
  <path d="M373 496l-2 3 3 2 2 4 4 7c4 4 4 4 6 3 3-2 7-3 7-1 2 3 14 1 14-2l-4-5c-3-4-5-4-9-5-3 0-6-2-10-4l-7-4-4 2z"/>
  <path d="M371 517l8 14v9l3-2c4-2 5-3 6-9 0-5 0-5-3-5l-7-4c-4-4-8-5-7-3z"/>
  <path d="M518 518l-1 6c-1 5-1 5 4 10l5 4v39l1 8-3 3c-5 4-5 7-4 17v14l-1 6h4c2-1 3-2 3-4-1-2 1-3 5-7 7-5 13-8 27-11 12-3 19-6 20-12 2-6 10-14 18-17 4-2 6-4 6-5 0-7 2-24 4-26l1-3c-2-1-10 2-15 5l-4 3-1-2c0-2-1-4-4-5-4-3-6-4-8-1l-8 2c-6 0-7-1-10-3-3-3-15-10-25-15-4-1-7-4-8-5-3-2-4-3-6-1z"/>
  <path d="M692 533c-2 5 4 12 9 11 2-1 2-1 2-5 0-3-1-4-4-6-4-2-7-3-7 0z"/>
  <path d="M684 544l2 7 3 9 2 8c-1 4 1 16 3 17l4 1c3 1 3 1 6-4l2-5 5 3c6 4 5 4 8 14l3 9-3 2c-2 4-2 5 0 11l1 11c0 9 2 12 6 12 3-1 4 0 6 2l4 3c2-1 1-8-1-11-2-4-2-5 0-8l2-3 3 3c3 5 6 5 11 2l3-2-2-5-4-12c-1-5-3-8-7-12-5-6-5-6-6-20-1-12-4-21-6-24-3-3-3-3-4-2l-8 4c-12 3-16 2-16-3 0-3-2-4-4-3s-3 1-5-2-4-4-6-4-2 0-2 2z"/>
  <path d="M365 553c-5 3-3 4 4 3 5 0 6-1 6-3s0-2-4-2l-6 2z"/>
  <path d="M343 560c0 1 0 2-2 2s-4 6-2 9c1 2-1 7-3 8-2 2-1 6 4 12l4 10-1 2-2-2-4-3-3-5c-1-4-3-5-4-4s2 10 4 17l2 4-5 5-7 8c-2 3-2 3-3 2-3-2-9 3-12 10l-6 7c-3 1-4 3-4 4l1 2v3h-2c-2-2-4-1-8 5-2 4-10 12-18 20a91 91 0 00-21 27c0 2 0 2-6 2s-7 0-9 3c-1 1-3 3-5 3l-4 5a210 210 0 00-34 36c-2 2-3 5-3 7l-2 7c-2 3-3 6-1 6l5-4c4-4 5-5 9-5 6 0 9-3 11-9 2-4 3-5 14-11 15-8 17-11 22-18 5-8 6-9 13-9 5 0 5 0 11-6l8-7c2-1 4-5 6-9s5-7 7-8c3-2 3-2 2-8 0-6 0-6 1-5 2 1 2 0 3-5 0-5 0-5 6-9 4-3 9-5 13-6l7-2 4-8c7-13 9-15 17-15 8-1 10-2 13-7 1-4 1-4-2-9l-3-9-2-7c-3-4-4-8-2-13v-7c-1-4-1-5 1-7 1-3 1-3-1-7-4-6-7-7-7-3z"/>
  <path d="M663 559l-3 7-3 13c0 5-1 8-5 16l-10 22-13 26c-10 16-12 25-10 40v5l4-4c3-3 4-4 4-7s1-5 4-9 5-10 8-18c4-15 9-22 18-25 4-2 6-3 8-6l3-4-2-9c-1-7-1-9 1-15l1-15 1-13 1-5h-3c-2-1-3-1-4 1z"/>
  <path d="M608 584l-9 2c-3 0-5 1-7 3s-2 3-2 8c1 5 1 5-4 10l-4 7 2 8 3 13c0 5 0 6-2 9l-4 3c-2 0-3 1-5 3-1 2-2 3-9 4l-10 1-3 4-1 9c0 5 0 5 9 15 7 8 10 11 12 11 5 1 10 6 16 16 3 4 4 7 6 7 6 1 17-6 17-11l2-5c4-6 2-11-6-19l-5-4 2-5 2-13c0-8 1-11 7-21 3-5 4-7 4-11s2-9 4-11l6-11c7-20 6-22-8-23l-13 1z"/>
  <path d="M565 606c-6 8-7 10-5 14 1 2 2 3 5 2 4 0 7-3 7-6l2-6c2-3 2-5 1-7-1-5-4-4-10 3z"/>
  <path d="M778 616c-3 2-6 8-6 16l1 8 3 7c0 5 2 9 5 9 2 0 3-2 3-11 0-7 0-9-2-11s-3-6 0-8c1-2 2-7 0-9 0-2-1-2-4-1z"/>
  <path d="M680 637l-6 3c-3 1-4 2-4 5-1 5-4 8-12 12l-7 4 2 5c1 4 1 5-3 9l-2 2h2l5-1 18-1 16-1 5-4c3-3 6-5 8-5 4-1 4-1 3-3l-1-9c0-8-1-9-6-9-3 1-4 1-5-2-2-5-9-8-13-5z"/>
  <path d="M747 640c0 3 3 7 6 9 4 2 5 1 3-4-1-4-3-6-7-7-2-1-2-1-2 2z"/>
  <path d="M808 646c-3 3-6 7-6 9 0 1 11 8 13 8 2 1 3 0 3-3l-1-3c-2 0-2 0 0-4v-6c-3-5-4-5-9-1z"/>
  <path d="M764 659c-2 1-2 2-1 8 0 4 2 9 4 14 4 9 7 20 7 26 0 4 0 5-2 7-5 4-14 2-17-3-1-2-3-3-5-3l-4-1v5c0 7-1 13-3 13-3 0-6-2-8-6s-3-4-6-4c-5 0-11 2-11 4l1 4v16c2 7 1 10-3 10-7 2-11 1-13-2-3-3-7-3-10 0l-5 10c-3 6-3 7-2 10l2 3-9 1c-13 2-14 2-15 4 0 2-2 3-6 5l-8 6-4 3c-2 0-1-3 3-6 3-3 4-4 5-13l3-9-2-7c-2-6-5-8-10-8-4 0-11-1-16-4-5-2-6-2-6 2 0 2-1 3-5 6-4 4-6 4-11 4-6 0-12 3-12 6l-1 5c-1 3-2 5-1 6 2 3-2 6-11 8l-20 7-17 6c-2 0-4 2-7 6l-4 5 2 8c3 9 3 8-3 12l-2 7-2 8-1 3-3 3c-4 2-5 5-4 11 2 8 4 10 13 11l8 1 2-5 2-7 2-7 2-5 3-7c1-4 2-6 6-8 3-3 4-4 4-6l-2-4c-2 0-2 0 0-3l4-2 3-2c2-3 9-4 12-3 2 1 2 2 2 7s0 6 3 8c3 3 3 3 6 2h3c1 1 2 0 4-2l4-2 1-3c0-2 3-7 5-6l1 4c0 2 0 3-2 4-2 0-2 0 0 2 1 2 2 2 6 1h6l1 4 5 6c3 2 3 2 5 1 3-3 3-3-2-9l-4-4 4-4 3-5-1-4c-3-6-3-6 6-6 7 1 9 2 12 4l20 10c6 1 7 2 11 8 4 5 5 6 7 6 3 0 3 0 2 3l-7 12a117 117 0 00-11 17l-3 4-1 4 4 3 4 3-1 7-1 8 4 7 10 13c6 6 7 6 28 14 26 11 30 11 36 6l3-7c0-3 4-6 6-4 3 3 4 5 2 8l-1 3-2 3c-3 2-2 5 2 11l4 8c1 6 3 5 11-2l7-10 5-9c2-2 4-5 5-9 1-5 1-7-2-22l-2-10-7-4c-6-4-10-9-11-13-2-5 8-21 12-21 3 0 6-5 6-9 0-3 1-4 5-9l6-5v4c0 3 0 4 4 7l5 6 2 9c2 5 3 7 5 8 3 2 3 2 3 10 0 9 2 16 7 21 3 4 3 4 3 2a127 127 0 00-1-29c-1-1-3-8-2-9l5 4c5 6 7 5 6-1l-1-3c-2-2-1-3 1-3 4 0 7-3 9-9l6-10c5-7 5-12 1-17-2-2-2-4-2-11v-8l-4-1-7-5-3-4 2-6 3-13v-6h-3c-5 0-6-2-4-6s2-5 0-9-8-7-13-8-7-3-3-5c1 0 5-2 7-5l6-5c1 0 0-4-5-12-5-9-7-11-7-16 0-6 0-6-3-6l-5-1c-4-2-8-8-8-11 0-2-1-4-6-6l-8-4-11-7c-5-5-10-8-11-8l-3 2z"/>
  <path d="M714 699l-1 5c-1 3-1 4 1 5 5 4 9 2 9-4l-1-4c-2-3-6-3-8-2z"/>
  <path d="M635 704c-3 3-3 3-1 6 1 1 2 2 5 2l6-2 2-1-4-5-5-4-3 4z"/>
  <path d="M194 777v3c1 2 3 0 3-3 0-2-2-2-3 0z"/>
  <path d="M172 793c-4 2-3 10 3 12 3 0 2 1 4-4 2-7-1-10-7-8z"/>
  <path d="M525 880l-8 3-4 2c-2 1-2 2 3 5l4 4-5 5c-4 5-4 5-3 7 2 1 3 0 14-5 8-4 12-6 13-8 2-2 3-3 7-4 6-2 5-4-2-5-5-1-7-1-9-4-3-4-4-4-10 0z"/>
  <path d="M455 929c-4 2-4 3-4 6 1 4 1 4 6 5 3 1 5 1 9-1l10-1h8c3-1 4-1 3-4 0-3-1-3-10-5-4 0-6-1-7-2l-6-1c-4 0-6 1-9 3z"/>
  <path d="M389 983c-6 3-16 11-16 14 0 2 14-3 17-5 2-2 4-3 7-3 5 0 6-1 4-6-1-5-3-5-12 0z"/>
  <path d="M349 1016l1 7c3 2 4 1 4-4 1-3 1-5-1-7-2-5-4-4-4 4z"/>
</svg>
