<svg xmlns="http://www.w3.org/2000/svg" viewBox="0 0 1024 1024">
  <path d="M863 32c-3 3-4 4-6 4-1-1-4 0-8 2l-9 3-4 2c-3 4-6 4-17 1-9-3-10-3-20-3a365 365 0 01-35 3l-16 1-13 2-10 4-10 3-11 9-7 3-6 4-2 2c-2 2-2 2 0 3l1 2c-1 1-5 0-7-3-3-2-5-3-6 0-2 4-5 8-8 10l-4 5-2 2-13 10c-1 2-1 2 2 5l6 3 2 2 2 4c2 1 3 3 4 6l4 5v4l-1 4 4 2c2 2 3 2 3 7 1 4 0 6-1 9-3 4-2 6 1 9l3 3-4 4c-3 4-4 5-4 9s0 4-4 6c-6 3-11 7-13 12-1 2-2 4-4 4-3 0-6 3-6 6s-1 4-3 4-3 1-3 3c-1 4 2 9 7 13 2 2 2 2 1 5-2 1-2 3-1 6 0 3 0 5-2 7-4 6-17 11-28 11l-8 1c-2 2-3 2-5 0l-11-2c-4 0-9-2-11-3-4-2-5-2-8-1-4 2-6 6-4 11 1 4 9 11 13 13 1 0 3 1 3 3l1 2 1 4c0 3 0 5 3 7 5 5 6 13 2 13l-6 3-5 3-3 3c-4 4-6 4-17 5-9 0-11 0-14 3-4 2-4 2-4 6l2 7c0 1 0 2-2 2l-4 4c-2 2-2 2 0 5v7c0 4-1 5-4 6-2 0-4 2-6 5s-2 4-1 6l2 15 2 16c0 3 0 4-5 7l-6 8c-2 4-3 5-9 8l-9 3c-4 0-8-3-8-7-1-3-1-4-3-4l-5-2-3-2-3 2c-3 3-4 3-10 2-4 0-7-1-8-3l-2-2-8 8c-6 6-7 7-10 7-2-1-3 0-7 4-6 5-6 5-9 4l-5-1 1 6 1 5 4-2c4-1 8 0 8 3l-2 2-4 2c-5 4-15 6-26 6-15 0-16-1-16-4 1-2 1-2-4-1-4 0-6 1-9 3l-5 4-4 6c-4 8-5 10-12 11-6 2-6 1-10 18l-3 13 2 2c2 3 2 3 1 9 0 4-1 10-3 13-3 10-3 11 2 15l3 3-2 3c-3 2-9 5-43 15-31 9-40 12-41 11h-36l-10 4-6 2-2 4c0 3-1 4-4 2l-15-5-14-3-37 4-37 4-48-16-50-17 21 27c10 10 10 10 10 14l1 5c1 1 2 2 1 3l3 3c2 2 3 3 3 6 1 5 16 27 21 31 6 5 16 9 25 11 8 2 9 2 15 8l7 7 6-1 7-1-1 9v11l3 19c2 15 2 18 0 23l-1 8-1 3c-2 3-1 5 1 5l6 1h7c8-3 13-2 16 1 3 2 3 3 1 4-2 3-3 14-1 15 1 2 1 3-1 3-2 1-3 2-4 9l-2 8c0 2-5 1-10-1-5-1-13-1-17 2l-11 3-9 3-4 1-3 2-1 3v4c0 4 0 3-7 1-1 0-2 0-3 3 0 2-1 3-3 3l-9 3-6 2-2 9-2 15c0 6-1 8-4 8-2 0-2 1-2 3l1 4v2l-2 14c-1 10-2 13-4 16l-2 4h3l6 2c4 0 5 1 2 5-2 3-1 5 3 5 3 0 4 0 4-2 1-2 5-3 12-3 4 0 5-1 3-3s0-3 7-4h6v4c-1 4 0 4 2 4 3 0 5-1 3-2-2-2-1-3 3-5l3-2c-1-2 18-3 28-1h10l8-1 9 1 7 2 4 1c1-1 1-1-1-4l-2-4c0-3 20-6 23-4l10 2 23 4 5 3 3-1 2-2c2 0 6 3 6 5 0 3 2 3 5 3 2-1 2-1 1-3-2-2-2-3 0-5 1-2 3-2 15-2 14 0 14 0 17-2 3-4 10-4 22-2 6 1 7 1 12-1 6-3 11-4 31-6 7-1 8-1 11 2l4 2v-5c0-2 0-2-2-2l-5-2c-3-2-5-2-7 0-1 2-10 4-9 2 3-5 4-6 7-7 6-2 12 0 16 4l3 4 2 2c1 2 2 3 1 5s-1 3 4 8c6 5 6 5 3 16l-1 9-1 5c-3 1 0 2 7 2l9 1h2l3 1 5 2c3-2 6 0 7 4l-1 4c-3 2-2 3 0 3 3 0 4 2 2 4v1l1 2c-1 1 1 6 3 8 2 1 2 2 1 6 0 5 2 15 7 21l3 6c0 4 1 4 6 6 3 1 4 2 5 4 1 3 3 4 6 2 2-2 3-2 5-1 3 1 3 1 3-2v-3l5 3c6 6 8 5 7-3 0-4 1-3 3 2v7c-2 2-2 2 0 3l4 1c2 0 5-6 5-10 0-3 2-6 5-6l1-2c1-2 1-2 4-2l24 1 1-12c0-11 1-14 3-11l2 4c2 2 2 1 3-1 1-3 2-4 3-1h5l17-1 16-1c1-1 3 0 6 4l5 4h9l11-1 3-4c3-3 5-4 16-8l14-4 1 5 1 6 10 2c8 0 8 0 8-2-1-2 0-3 3-4 2-2 5-3 7-3 5-2 7-6 2-6-4 0-5-4-4-10l2-5c3-1 2-4-4-15-3-5-6-11-6-15l-5-11-4-7-3-4c-2-2-2-3-2-14s0-11-2-12l-5 1-10 1c-7 0-7 0-8-2 0-2-3-5-5-8-5-7-7-16-5-20 5-12 5-14 5-23-1-9-2-10-4-12-2-1-4-2-9-1-6 1-7 1-17-4l-11-6c-1-1-2-4-2-9 0-7 0-8 3-15 4-8 8-13 24-29 6-6 8-9 10-16l4-9 3-4 6-5c2-4 6-6 13-5 3 0 5 1 7 4l4 7c1 6 5 10 9 11 3 1 5 0 8-2 16-7 20-9 33-9l19-4 7-3 2-7c2-7 2-8 10-15l8-8 4-12c3-10 4-11 7-14l6-4 6-3 14-9c9-4 10-5 11-8l4-8 10-15c5-10 6-13 9-26l3-14 13-5c11-4 12-4 18-10s6-7 5-9l-3-6-3-3 5-5c3-3 6-5 8-5l2-3c0-2 2-4 5-6s6-6 7-9l15-17c3-2 4-3 5-2 3 2 6-1 4-4-1-2-1-3-4-2-5 1-5-3-1-14l3-13-4-11-4-8 7-7 8-6c1 0 4-2 6-5 4-4 5-4 7-3h7l6-2 3-1 5-4c6-3 6-7 1-14-3-4-4-5-7-5-2 0-3-1-5-3-2-3-6-4-7-1h-3l-9-2h-7l-1-5c-1-3-2-5-1-6v-8l2-4c0-2-3-1-4 2-1 1-2 2-5 2s-3-1-6-5c-2-5-4-6-6-6l-3-1 2-2 2-3-2-2-6-2c-4-1-5-2-6-5l-5-5c-5-2-5-3 0-6 9-5 9-17-1-21-2-2-3-2-4-6 0-6 2-11 10-16 6-3 6-6 3-10-2-3-3-3-9-2l-9-1-2-1 3-6 3-7-3-4c-3-5-3-5-7-4-3 0-3 0-3-2s1-4 4-6 4-3 4-6l3-7c3-4 4-4 7-4 4 0 5 0 11-4 5-4 6-4 12-4 5 0 7 0 12 4 6 4 7 5 15 5l15 1c6 1 7 1 11 4s12 5 25 5c8 0 14-2 19-7 2-3 3-3 8-3l11-2 6-3 4-2 3-2 3 2 7 2c3 0 4-1 6-7 2-5 3-6 4-6l4-2h6c4 0 4 0 4-2l1-3h4c2-1 3-2 2-3l-5-10-2-5-8-12-8-13c0-4-1-6-5-9l-7-8c-1-4-1-4-5-3l-6 2-8 1c-5 0-6-1-6-4-1-4-7-10-10-10-4 0-4-6-1-9 2-1 2-2 1-8-1-12-3-20-6-23l-4-7c-1-4-1-4-9-5l-8-1-4 3-4 3-1-7c-1-5-1-7-4-10l-6-3-4-1c-2-2-9-2-12-1l-5 3c-3 0-4 0-6-3-2-4-3-5-5-3-1 1-2 0-5-2l-3-2-4 4z"/>
</svg>
