<svg xmlns="http://www.w3.org/2000/svg" viewBox="0 0 1024 1024">
  <path d="M395 119l-21 5-27 4c-15 1-34 7-46 15-6 4-19 10-25 11l-14 2c-7 0-11 1-14 3-7 3-16 12-21 19-3 6-5 8-11 12-11 6-16 8-24 8l-12 2-18 4-14 3-17 4c-16 2-17 2-24 5l-30 10a286 286 0 00-42 16l-5 3-8-1c-7-1-8-1-10 1-2 3-3 6 0 8l6 4c4 2 5 2 6 1l3-2 6-2c3-3 15-3 14 0-1 2 1 5 3 5 3 0 2 4-1 5l-3 2c-2 2-2 3-1 7 0 4 1 6 3 6 3 0 3 3 2 5l-2 3-2-1c-3-6-7-10-11-10-5 0-9-1-11-5s-4-5-7-1-3 10 1 14c3 2 3 3 2 8 0 6 0 7 2 10s6 14 8 24l2 6c3 3 3 3-2 9-3 4-3 4-3 11 0 9-1 12-6 14l-10 6-8 5 1 5c0 3 0 5-2 7l-1 4 6 2c4 0 5 1 9 4l4 4 8 7c5 5 8 7 11 8 6 2 12 6 14 9 1 3 1 3-1 6-2 2-2 2-1 3 4 3 3 6-2 10s-5 6-2 17c3 8 4 10 10 11 4 0 4 1 2 6-1 1 0 2 1 3v3l-1 5c0 3 0 3 3 5 3 1 4 2 3 3l-1 7c-3 15-3 16-5 16-1 0-10 8-10 10l3 3 4 8 5 7c4 3 5 4 6 8 0 4 0 4-3 8l-3 4 13 7c11 5 13 6 13 8 0 5 3 13 5 14l1 2 1 6c2 4 1 5-6 23l-7 20-4 4c-3 3-4 3-3 6 1 2 1 3 6 3 7 0 10-1 10-5l2-6v-4c-2-2-2-2 0-4l2-1h3c2 0 4 0 5 2h7l4 1 5 2c3 2 3 2 1 6-1 3-1 4 1 6l4 4c2 0 4 2 5 5 2 3 3 4 6 4 8 0 21 3 24 5s5 2 10 2l5-1 3 6c3 6 4 6 7 4l5-1c3 0 3 1 6 7 0 1 1 1 3-1l5-4c3-2 3-2 5-1 3 3 7 2 9 0 1-3 1-3 6-1 6 1 14 7 14 9l-2 4-3 5-4 2c-2 0-5 2-8 5l-5 5 4 4c3 3 4 4 7 4s3 1 4 3 2 3 5 4c2 0 4 1 5 3l5 6 4 8c1 5 2 6 5 9 5 4 12 4 13 1l2-3 7-4 10-6 6-2h2c2 1 2 1 2-3 1-5 0-5-3-6-3 0-3-1-4-5l-4-7c-3-4-3-4-1-5 2-2 2-2 8 1 5 2 8 3 10 2 4 0 12 3 12 5s10 6 14 5c2-1 2-1 2 2v5l16 1c13 0 16 0 17-2l2-3c0-1 2-1 5 1 2 1 2 2 1 4v4l2 3c0 1-7 5-11 6l-5 1c-1 2 5 7 9 8l7 8c3 5 4 6 8 8l5 2 5-2 6-6c3-3 3-3 6-2l5 5c2 4 4 5 7 3 2-1 5-1 5 1l3 3 6 3 6 2c1-1 4 0 8 1l9 2c2 0 3 1 4 3v5l2 8 2 8 8 3 10 3c2 0 2 1 3 6l1 9 1 5c1 2 2 3 7 2h5v3l1 8c2 5 4 6 9 5l7-1c5-1 11-6 12-12 0-4 0-4 5-4 8-2 9-2 9-4 0-3 3-5 7-5 2 0 4 1 6 4l3 6 2 6c2 4 3 5 5 5s3 1 4 3 2 2 9 2c6 1 7 2 7 11l1 6v2l-4 2-3 3 3 2c2 2 3 2 6 2l7-3c3-2 6-2 9 1 1 1 3 3 5 3 5 2 5 2 8-8 4-11 6-13 15-13h6l1-3c0-4 0-4 4-4l6-1c3-2 4-2 9 1l7 3 2-3c0-3 1-3 5-3h6c2-1 2-1 3 2l2 3 4 3c2 2 4 3 5 2l3 1 2 4c4 3 9 2 12-3l5-5c2-1 3-2 3-5 0-2 1-3 3-4 1 0 3 0 4 3 2 2 3 2 5 1l2-3c0-3 6-4 15-1 7 2 7 2 16 0h9l6 2c5 0 5 1 7 4l2 3 4-3c3-1 3-1 8 2l6 4c2 0 8 9 8 12s1 3 7 7l11 3 4 1c0 3 6 5 10 5 2 0 4 0 5 2 2 2 3 2 11 3 6 0 10 1 11 2 3 2 9 4 14 4 5 1 6 0 10-2l5-3-4-3-4-4-3-1-4-2c-2-2-2-3-1-4l1-4 2-4c2-2 4-8 4-12 0-1-2-5-6-8-4-6-5-7-5-10v-5c-3-3-2-8 0-10l3-2 4-5 20-24 23-26c7-9 16-18 30-29a259 259 0 0018-15l5-5c0-5 5-7 15-7 9 0 18-1 19-3l4-13 2-12-2-4-2-6-2-4-2-4c0-2 0-3-2-3-3 0-4-2-2-5 1-2 2-2 7-2s6 0 8-3c2-1 2-2 1-3-14-9-17-11-19-15 0-2-2-5-3-5l-1-4-3-5-2-4 1-2c1-1 0-2-2-3l-3-4-4-3c-3-1-5-3-6-5l-5-6c-3-3-4-6-1-9 3-4 3-10 1-12l-2-4c1-1-1-3-4-4-3-3-4-4-3-6l-2-7c-3-5-3-5-2-10 2-6 2-6 0-8-3-2-2-4 5-7 4-2 4-2 3-6-2-11 0-19 4-21 2-1 2-1 1-4l-2-7c-1-3-2-4-7-8-4-2-8-4-8-6l-4-2-10-3-12-4c-3-1-4-2-3-3l-2-3-2-2 4-11c5-9 6-11 12-17 11-11 18-14 39-19l19-5 2-21 3-22-3-5c-3-5-3-6-3-11s0-7-2-10l-2-4-5-5c-4-2-5-4-5-6l-10-27c-5-11-5-12-4-17 0-5 0-7-3-15l-5-17-2-10-2-4-2-4v-5c1-2 2-4 1-9 0-6-1-8-3-9l-7-6c-3-4-6-5-10-6l-6-4-5-3-4-3-6-1c-5 0-6 0-5-2l-3-3-2-3-1-1-8-3c-7-4-11-4-11 0 1 3 0 3-43 7-32 3-38 3-58 2l-32 1a2437 2437 0 01-124-10l-48-6h-6l-1 3c-3 6-7 9-15 10l-11 5c-5 3-7 4-17 4-6 1-6 1-6-1l-1-4c-2-1 3-4 11-5 12-2 14-3 15-4 1-3 6-5 9-5l4-2c3-4 0-4-10 1s-21 9-32 10a257 257 0 01-47-3c-4 0-7-1-9-3l-5-2c-5 0-7-5-7-13l-2-10-2-5c0-2-1-3-2-3-2 0-3 0-3-3l-4-6-3-5 1-3c0-1 1-1 5 1 17 7 25 12 32 21 2 3 3 3 4 2 3-2 1-5-8-12-4-4-8-6-11-7-3 0-8-3-13-6l-10-4-6-3c-3-2-4-2-18-2l-20 1z"/>
</svg>
