<svg xmlns="http://www.w3.org/2000/svg" viewBox="0 0 1024 1024">
  <path d="M370 1l-6 3-5 3c0 3-6 8-8 8-5 0-9 3-9 5 0 3 0 3-4 3-2 0-3 0-4 2 0 1-2 3-6 4-6 2-8 2-12 1-3-2-4-2-5 0h-3l-2 1-4 3-2 3c0 1-1 2-5 3-3 1-4 2-4 4l-1 2-1 3-2 7-2 6v2c-1 0-2 1-2 3l-5 8c-5 6-7 9-5 14v8c-1 4-1 6 3 8 2 2 3 2 4 1 5-5 13 10 15 25l2 12c3 7 5 20 6 39v18l-3 9c-5 12-6 18-5 30 0 7 2 15 3 19 2 6 2 10 2 24 0 15 0 17 2 23s2 8 1 12c0 5 0 7 5 12l4 6c1 2 2 3 4 3l4 3 3 5c3 3 3 3 5 2 1-1 2-1 6 2s5 3 7 2h4l-1 1a792 792 0 0152 174l3 18a272 272 0 013 58v12c-2 8-2 18-1 19 2 1 5-3 5-7v-4l2 3c1 2 2 3 4 3 1 0 3 1 3 3l2 2h-4l-5 1-7 4-2-3c-1-2-1-2-2 2-2 8-8 14-12 14-1-1-2 0-3 2-1 3-1 3 1 3 3 0 3 0 2 2l-2 4-1-1c0-2-1-2-3 0-2 1-2 2-2 17v17l-4 4-4 7c0 1-1 5-3 7-2 4-3 5-6 6s-5 3-6 5c-3 6-4 6-8 6-3-1-8 1-11 4l-14 5c-3 0-12 5-14 7s-4 8-5 12l-3 3-4 4-4 4-1 2-4 3-3 4-4 7-3 4-2 2-5 4-3 2c-4 0-2 12 3 16 3 3 3 12 0 17-2 4-2 5-1 7 2 2 2 3 2 0 0-4 4-10 7-12l6-1 5-2c4-3 4-3 14-2 9 1 11 1 15 4l5 3c3 0 6 16 3 20v13a361 361 0 00-7 23c-2 5-1 5 2 10 2 4 3 6 3 10l1 6c1 2 1 2 2-1l8-12c2-2 7-1 7 0l2 2 1 1 3 7 3-2h4l6 2c3 1 4 2 4 4l-1 2-4 8 4-1c3 0 3 0 3 2-3 6-3 10-2 11l1 4-1 2 3-2 4-3c2 0 8-6 15-14 4-4 4-4 5-2 2 1 2 1 6-1l4-4c0-4 15-25 17-25l9-6 11-8 7-4 4-3a76 76 0 0017-18c1-2 2-3 4-3l9-3 9-4 8-6 9-8 5-5 3-3 5-4 4-3c2 0 18-15 18-17 0 0 2-3 5-4 4-4 5-5 7-11l3-6v-3c-1-2-1-3 2-6 5-4 6-8 2-11l-1-3c2 0 2-1 0-4v-5c4-8 5-16 2-17l-2-1v-2l1-3c3-3 2-5-1-7l-2-3c0-4-3-8-6-8s-4-2-4-7-1-15-3-17l1-1c1 0 2-1 2-3s0-2-3-2l-5 1-4 3-2 3-7-5c-5-4-7-6-7-8s-1-3-3-3l-4-3-5-7-3-3-2 2c-3 2-4 2-8 1-6-1-10 0-13 3-2 3-11 5-13 4-3 0-8-5-8-7l-4-4-3-5c0-3-1-3-5-5l-7-2-8-1h-7l-1-4-4-7c-6-8-9-17-12-34-2-15-2-16-1-35a165 165 0 017-48 252 252 0 0114-45l7-13 7-10c3-3 4-4 4-7-1-2-1-3-5-3l-5 1c0 2-2 2-5 0-1-1-2-2-2-5-1-6-4-5-9 1l-9 10c-15 17-15 16-18 13-2-3-3-2-3 2v4c-1 0-3-5-2-7l-3-4c-4-3-14-21-14-25 0-5-3-16-5-18-3-4-17-37-16-39l3 1a125 125 0 0032 9l4 1 10 3 15 4c12 1 14 1 14-3l2-3 2-2 2-1c1 1 9 0 18-2 3 0 3 0 2 2-3 4-3 10-2 12l3 2c1 1 6 12 6 16 1 4-1 7-4 6-2 0-4 2-11 8-9 9-9 10-2 11 4 1 5 0 16-9 13-12 20-15 25-16l6-1v-4c-1 0 0-2 3-5a46 46 0 0012-21l5-12 5-16 6-21a165 165 0 0111-30l2-6 3-7c2-3 2-6 0-8s-2-3-2-13l-1-12v-13c-1-9-1-10-5-13l-7-6-5-4c-5-4-16-9-26-11-18-4-50-18-66-29-6-4-14-13-24-24-4-5-7-7-11-9s-7-4-10-8c-2-3-6-6-9-7-4-2-16-3-16-1l-5 3c-3 0-6 2-7 3l-5 2-4 1 1 1c2 0 1 2-1 3-2 0-2 1-2 5s-1 7-4 12c-4 8-9 17-12 18l-3 4-1 3v9l-1 3c1 1 0 2-1 3l-2 4c-2 7-3 3-3-15-1-14-1-19-3-24l-3-15v-9h14c13 1 14 1 16-1l2-2-6-6-6-7-5-7c-6-5-6-5-7-14-2-11-2-20 0-21 1-2 13-6 15-5 1 0 4-1 7-4l8-5c2-1 3-2 4-5l2-4 5-6c2-4 4-5 5-5l8-3 10-6 3-2V16c-1-10-2-16-4-16l-1 1z"/>
  <path d="M681 834c-6 5-6 5-4 7l12 1c9 0 9 0 11-3 0-2 2-3 3-3h3l-3-3c-3-3-3-3-9-2l-6-1c-1-1-3 0-7 4z"/>
  <path d="M687 856c-2 3-4 3-16 5-5 0-7 1-8 3-2 2-2 3-9 2-6 0-8 1-8 2l-5 3-5 4v7c1 3 1 3-1 3-2-1-3 0-4 1-1 2-2 3-4 3-5 2-7 3-10 9-2 5-4 7-7 8-3 2-4 2-3 5 0 2 0 3-2 3l-5 6a1341 1341 0 00-31 56c-1 0-2 1-2 3v4h-11v4c1 4 1 5 4 6h9c4-1 5-1 8 1 2 1 3 2 3 4l1 2 1-3c0-5 2-11 4-11 5-2 13-1 15 1 2 1 2 2 1 2-2 0-6 5-6 8s-3 4-8 4l-4 1-2 4c-3 3-2 5 2 9 3 2 4 4 4 6 0 4 3 4 4 0l4-5c3-2 3-2 2-6 0-5 0-8 4-12 2-2 4-3 7-3 4 0 5 0 7 2l2 1h5c2 0 3 0 4-2 0-2 3-5 5-8 4-6 5-6 9-6h4v4c0 3 0 5-2 6v4l2 7c0 3 1 5 3 6 3 1 3 1 6-1s8-4 12-4c3 0 6-3 8-7 1-4 5-4 8-1 3 1 3 3-1 3-2 0-2 0-1 2 3 3 7 3 9 0 0-2 2-3 4-3s5-1 7-3l7-2c4 1 9-4 10-10 0-6 1-5-10-7l-7-3 3-11c1-1 0-2-1-2-8-2-10-7-6-13v-3c-3 0-4 3-4 9v6l-4 1c-3 0-4-1-2-6v-4c-1-1-1 0-3 5-1 6-2 7-3 5h-5l-4-1c0-2 6-7 8-7l4-3c1-2 3-4 5-4 2-1 2-3-1-3s-2-1 1-4c2-2 2-2 1-3s-1-1 1-1c4 0 3-2-1-2l-4-3c0-1 4-6 10-11 15-14 15-14 16-21 0-7 0-11-3-12l-1-1c2 0 3-3 1-10-1-4-5-10-8-10l-2-2-5-5-4-3-2 2z"/>
  <path d="M751 902l-2 3c0 3 1 3 3 0 2-2 2-4-1-3z"/>
  <path d="M755 914v3c0 2-3 7-5 7l-1 1c0 2 3 2 5 1l3-1c2 0 3-7 1-10-1-2-3-3-4-1z"/>
  <path d="M728 919c0 2-1 3-4 1s-4 0-4 5c0 2-1 4-4 7l-6 4c-2 0-2 2-1 6 1 2 1 2 4 2 1-1 3-1 4 1 2 2 4 1 4-2l2-6c2-4 3-6 0-6-2-1 8-10 11-10 2 0 3-1 3-3s0-2-5-2-5 0-4 3z"/>
</svg>
