<svg xmlns="http://www.w3.org/2000/svg" viewBox="0 0 1024 1024">
  <path d="M304 225c-4 2-11 4-14 7-9 5-8 4-25 6l-13 1-6 5-12 8-12 7-6 4v6c1 6 1 7-3 10-3 3-4 5-5 9-1 8-7 15-14 20-6 3-8 8-8 15v4l-7 3-12 7c-2 3-5 4-7 4-4 0-13 3-15 6l-5 3c-2 0-4 1-4 3l-8 1-7-1c-3-2-15-3-22-2-5 2-8 2-11 1-5-1-8 0-11 5-2 3-4 4-8 5-4 0-4 1-5 4-1 5-2 6-15 14-6 4-9 7-9 9-1 4-5 7-12 8-4 1-7 2-8 4l-4 2c-4 0-5 1-3 5v8c-2 4-2 8-1 14 0 8 0 9-2 12l-5 6-3 2 5 4c5 4 5 5 5 9s-1 6-5 13l-7 11c0 3 0 4 4 7l4 5 5-3c6-3 15-3 15 0l3 9 2 7h6l9-2c3-2 4-2 5-9 1-6 2-8 5-12 4-5 4-5 7-4 1 1 4 3 5 6 2 3 3 4 9 5l21 2 19 2 26 6c3 0 4 0 8 5 3 3 4 6 6 13l3 9 23 13 22 14h16l16 1 10 6c9 7 11 8 14 13 3 7 4 12 2 15l-9 5-8 4v7c0 7 2 12 4 16 2 3 2 3 7 1 5-1 6-1 10 2 5 2 6 3 7 8l2 5-5 6c-5 6-6 7-6 12l-1 7a464 464 0 0051 15l3 2 4-3c3-2 5-6 8-10l4-7 6 1 8 2c2 1 3 2 5 8v10c-3 4-2 6 1 12s4 6 11 10c7 3 8 3 28 4s21 1 34 6l15 5 4 8 3 7 12 7 12 8v9c-1 9-1 9 3 16 1 4 4 7 5 7l4 5c1 4 7 8 10 8l2-8 2-9 7-2 6-2 6 4 6 4 14-1c18 0 25-2 37-9l8-5 11 2c9 1 11 1 12 3l10 13c8 11 8 11 19 12l6 1 5-5 6-5-3-8c-2-8-2-10 0-10l10 4 14 3 15 3 9 2 4-5c5-4 5-5 16-7 6-2 15-3 20-3 8-1 8-1 15-6 6-5 7-6 8-4 2 1 3 1 7-2 4-2 5-3 4-4l-1-6c0-4 0-5 4-9l10-7 6-5 3-13 2-11 8-6 8-6-2-4c-5-6-5-10-1-19 2-4 5-8 8-10l5-4h17a68 68 0 0027-5c3 0 27 9 33 13l7 4 8-2c7-2 7-2 12 0 4 2 5 2 11 1l7-1 9 6c8 5 11 6 15 7l9 2c2 2 5 2 14 2l15-1c5 0 5-1 7-6 3-5 10-29 10-30l-8-6-7-6v-20l-5-6-10-6-4-2-7-6c-8-6-20-19-20-21 0-1-2-5-5-7-6-7-13-19-13-22s0-3-9-3c-15-1-20-3-22-6-3-3-3-3-1-15v-5l-9-6-13-7c-5-2-6-2-11-1-4 0-8 2-9 3l-11 3-9 1-9-6-22-11c-10-4-13-6-17-9l-7-6c-3-1-3-1-6 2-4 3-5 4-10 2-4-2-5-5-6-21-1-20-2-21-34-53l-31-29-9-4c-3-1-5-2-7-5l-4-5c-2-1-24-9-34-11-6-1-11-2-17-6l-13-5c-9 0-27-3-34-5-3 0-9-3-14-5l-10-4-6-2c-6-3-15-5-22-5-8 0-9-1-9-4 0-4-6-12-9-13l-4-3c-2-3-13-9-16-9l-9-5c-6-5-13-9-19-10l-5-3c-4-5-22-15-27-15-3 0-7-4-9-10-3-7-5-9-9-9-2 0-5-1-9-4-2-1-5-2-11-2l-14-3c-7-3-11-4-13-2l-7 3-7 2-3-2c-2-2-4-2-9-1l-13 3-7 3-4-6c-4-5-5-5-10-5l-12 2z"/>
</svg>
