<svg xmlns="http://www.w3.org/2000/svg" viewBox="0 0 1024 1024">
  <path d="M93 334c-8 1-10 2-15 5l-6 6-5 3c-5 2-6 7-4 13l3 9c2 4 4 12 3 17 0 4-3 7-12 11l-8 6c-3 4-15 10-21 11l-10 3-11 4c-7 1-8 2-5 8l4 7 8 14c6 13 9 15 18 15s17 6 19 16l4 9 4 11c1 7 3 10 4 10 2 0 5 3 4 4l2 3 2 4c0 3-1 5-6 10-9 8-13 14-12 15l2 2c2 0 1 7-1 11-2 2-2 4-1 5v9c0 7-1 9-7 13-2 2-3 3-2 4l-1 3c-2 2-1 4 4 6 6 2 6 4 1 6-4 1-6 4-6 8 1 3 0 4-2 7l-3 3 3 1 7 2 6 2c2 0 7 4 7 6s-6 6-12 8c-7 2-11 5-13 9-1 6 2 15 7 20 2 3 3 4 3 7 0 5 0 5 4 7 5 2 5 1 2-4s-2-8 1-11 4-3 7-3l8 3c2 2 5 3 7 3l8 1 14 3c9 0 10 0 12-2l3-3c0-1 1-2 3-2 3 0 4-1 4-3 0-3 3-5 10-5 22 0 28 1 30 3 4 3 6 3 6 0 1-3 1-3 3-2 6 1 7 2 7 6 0 3 1 4 10 9 6 3 8 4 8 6 0 1 0 2 5 2l9 2c3 1 7 1 7-1s-2-4-4-4c-4 0-2-3 3-4 8-3 8-4 2-10l-5-6c0-2 2-1 5 1 1 2 4 3 5 3 2 0 3 1 3 4 0 5 1 6 9 4 13-2 16-1 13 4-1 2-1 2 1 1l4-4c1-3 4-4 9-1 5 2 9 1 20-5l11-6c4-1 7-4 7-8 0-2 0-2-4 0-4 3-9 4-9 2l2-2c2 0 3-1 3-2v-4l4-1 5-2 6-4c4-3 4-3 6-1 1 1 2 2 4 1 3 0 3 1 0 3-3 1-3 2-1 3 1 2 1 4-1 6v3c1 2 2 1 4-2 2-5 6-6 15-6 6 1 7 1 9 3 1 2 13 8 16 8l6 2c5 2 9 1 12-1 5-5 18-8 23-5l2 6c0 3 0 4 2 4l4-1c2-2 9-2 12 0l5 1 16-5 7-1 15-5c15-5 20-6 22-5l5 1c4-2 9-1 12 2l12 12c3 4 4 4 8 4l5 1 3 3 8 4 6 3 6-5 6-5 1-3c0-3 1-3 5-3l5-3c4-3 5-3 11-3 5 0 6 0 8 3l8 7 7 6c1 2 2 2 5 2 3-1 6 0 12 2 10 4 15 4 21-2l5-4 4-2 3-3 8 3 9 3c3 0 4 3 0 5-2 2-3 3-6 2l-8-2-4 1 1 6 1 4 5-3c5-3 10-4 19-1 8 2 11 1 14-2 5-4 9-6 16-8 4 0 9-3 13-6 7-4 8-4 13-4l8 2c7 5 11 6 13 2l2-1 4-4 7-6c4-2 5-2 10-1 10 2 10 2 11 5s4 3 7 0c1-2 2-2 7-1l16-1c15-3 14-3 19-6 4-3 6-4 9-4 4 0 4 0 7-3 3-6 5-7 10-7l8-2 6-2c4 1 6-2 5-6v-6c-2-3 0-9 3-13 4-5 6-5 9-4 6 3 9 0 10-10 0-5 2-8 4-8v-3c0-2 1-4 4-7 2-4 3-6 2-7-1-4 1-8 9-18 4-5 6-7 9-8s5-2 6-5c5-11 12-14 19-10l4 1 3 2c2 1 4 0 3-3s2-7 9-9c3 0 6-2 6-3 2-2 5-1 9 1 5 3 5 3 9-1 4-3 4-4 3-6l-3-2c-1 0-1-1 1-7 1-3 6-3 9-1l2 4 2 1 1 2c0 4 2 5 4 3l1-4c-1-5 0-5 4-3h4v-3c-4 0-11-11-10-15 1-2 1-2-4-2-4 1-6 0-10-3l1-2 2-6c0-3 0-3-3-4l-3-1 4-7c3-2 2-21 0-22l-2-3-1-3c-1-1 0-2 3-5l4-5 2-3 2-5 1-5c1-1 0-2-2-3-4-1-6 0-6 4s-6 7-7 3c-1-3-4-2-7 1-4 5-13 8-15 5 0-1-2-2-6-2-7 0-17-4-18-7 0-2-1-3-2-3l-1-2c0-3-4-2-5 0l-4 3c-3 2-7 0-12-5l-6-4c-3-1-3-2-4-6 0-4 0-4-3-4l-6 3c-3 2-6 3-6 1l3-4c3-4 1-6-2-3l-6 3c-3 2-3 2-6 1l-4-3-1-2-5-4c-4-4-5-4-24-7-4 0-8-2-12-5-7-4-11-5-11-3 0 4-21 3-32-1-10-4-19-4-21-1s-7 5-11 5h-6c0 1-7-1-9-4l-9-1c-5-1-8-1-11-3-6-4-17-6-28-7l-8-1 2 2c3 4 5 5 7 4l3-1c2 0 3 1 2 3l3 5 6 2c2-1 5 2 5 4l-2 1-6 3c-6 3-7 3-9-1-1-4-1-4-5-4-6 1-10-2-9-5l-1-4c-1-2-6-3-9 0l-8 2c-8 2-11 0-13-6-1-3-1-4-2-3h-17c-16-1-17-1-25-5-5-2-10-2-13 1-3 2-6 2-9 1l-9-2-11-2-9-2h-4c-4-2-27-4-40-3-16 2-16 2-19 7l-6 5c-3 1-13 0-17-2l-11-2-13-3-8-2-10-2c-5-2-6-2-8-1-5 3-13 4-15 2l-10-4c-10-3-22-2-25 1l-10 1c-8-1-8-1-11 2s-3 3-8 2c-6 0-6 0-6 2v3l-13-1c-10 0-13-1-15-2l-4-2-9-3c-6-3-7-3-20-3l-34 1-16 1c-8 3-14 3-31-2h-9c-7 1-17-1-20-3l-6-3c-3 0-7-1-9-3l-8-2-7-1c-7-3-40-3-52-1z"/>
</svg>
