<svg xmlns="http://www.w3.org/2000/svg" viewBox="0 0 1024 1024">
  <path d="M459 4l-10 7c-3 3-15 5-21 3-3-1-4-1-9 2-3 2-7 4-10 4-3 1-4 2-6 5-1 4-3 5-5 5-7 2-7 2-7 6l-1 4c-2 0-8 6-8 7s-1 2-3 2l-7 6c-4 5-4 6-4 10v7c-1 2 0 3 1 4l1 4 3 6 2 3v2l2 13 3 11v2c-3-1-3 1 0 8 2 6 3 9 3 14s1 9 3 13l3 15 4 18c4 13 6 22 6 29a236 236 0 01-13 69c-2 6-2 7-1 10 2 3 4 2 3-2l1-5 3-8 2-9c1-1 2-4 1-5l1-2 1 1h3l3 1-2 1c-2 0-5 3-6 7 0 5 2 6 7 6 4 0 5 1 4 2l-2 1h-4c-2 1-10 5-11 7s1 2 5 0c2-2 4-2 6-2 3 1 4 3 1 3l-1 1c0 2-5 6-7 6s-5 4-5 7l-6 17c-2 2 0-4 3-14l1-9c-1-1-1 0-2 3a749 749 0 00-16 64l-6 13-3 5c-2 2 0 6 3 9s3 4 3 5l-7 23c-6 20-13 38-18 45-3 4-6 13-6 18l-4 11-3 8v5l-6 7-6 8c-2 0-4 2-6 4l-3 4 2 5 3 5v2c0 2-1 2-1 1-1-1-2-1-3 1v-2c0-3 0-5-2-6l-2-2-6 7c-5 6-7 7-7 6-2-3-3-2-3 0-1 2-1 2-2 0h-4c-4 3-4 6 1 5 3 0 3 0 3 3l1 5c4 4 1 25-5 30-2 1-3 3-4 7l-2 6c-1 0-2 7-2 15-1 17-2 19-4 29-2 7-2 9-5 11-4 3-4 6 0 9l3 2-2 2-2 3 3 3c3 3 4 3 8 2 3 0 5 0 7 2 4 2 8 2 11 0l11-1c10 0 13-1 19-9 3-3 3-5 4-10 0-4 1-5 3-6l5-9 11-20c8-12 8-12 12-13l7 1-4 1c-4 0-5 1-6 2l-3 5c-5 8-7 15-7 20v11l2 2v5c2 4 2 4-1 5l-5 2c-4 0-10 5-10 7 0 3 3 4 7 2h3c2 1 1 3-1 3s-3 1-2 3c0 2-1 2-7 2l-8 1c-1 2-1 2 3 5 3 2 4 3 4 5 0 4-1 4-2 1s-5-5-7-4c-3 0-3-2-1-3v-2l-2-3c0-3-3-4-6-2s-5 2-7 2c-4-1-11 0-11 1l4 3c5 2 8 7 7 10l2 5c2 2 2 4 2 12s0 10-2 14l-4 6v1l4 1c1 1 2 0 3-1l6-2 8-1 7-2 6-1 8-4 5-5 3-4c4-1 7 0 12 4 3 3 7 4 11 3 1 0 3-6 2-8v-7l1-1c1 0 2 1 1 4l1 4 1 7v8l3 1 4 3 3 3h-4c-2 0-4-1-7-4l-5-2h-2c0-2-1-2-2-2-1 1-2 0-2-1-1-2-3-1-3 1l1 3c-2 0-8-7-9-9 0-2-4-4-6-4s2 6 7 10c7 7 9 11 11 28 2 21 2 23 0 27l-3 8-5 16c-3 9-4 11-6 12-4 2-5 5-2 6l11 9-1 6v6c2 5 1 10-1 14-1 3-1 7 1 9 2 1 1 14-1 25v9c3 7 3 11 1 16l-3 12-4 11c-3 4-5 12-3 16 1 4-3 13-7 14-2 1-2 2-2 3 3 7 2 9-2 13l-4 6-2 2-1 4-1 3c-3 1-3 4 0 3l4 2 4 3 4-4c3-3 5-3 7-3 3 0 4 0 5-2s2-2 7-2l5-1c1-1 9-2 11-1 1 2 3 0 3-3l1-3h15l8 1c0 1 6 2 17 2 8 0 9 0 13 3 4 2 4 2 6 1l5-1h5c3-2 7-1 9 0l4 2 29 17c9 6 11 7 16 4l7-5 8-6c2-1 4-2 2-2l-5 2-5 4-6 5c-4 2-4 2-7 1l-3-1 4-2c4-1 13-6 13-7l3-2 5-2 5-1h5c4-1 16-13 16-16l4-5c4-3 5-3 11-3 10 0 12 0 14 2 2 3 2 0 1-4-4-8-4-12-3-16 1-3 1-4-1-7l-2-16v-13l-4-6c-4-6-6-13-6-16 0-5 2-10 7-18s6-9 5-13v-5l10-9 11-10 5-14 4-14 8-2 11-4h7c6 1 13-1 11-4-1-1 1-6 3-14l6-19-10 3-9 4-3-2-4-8c-1-5-2-7-11-16l-13-16-6-10-3-3 2-5 2-12c1-6 1-8 3-10 2-3 2-6 3-13l1-12c0-2 1-3 7-6 8-4 9-5 11-11 1-3 2-4 6-4 2-1 6-2 7-4l5-3c3 0 3-2 0-3s-2-4 2-11c7-10 9-13 9-16 0-7-7-19-11-19h-7c-5 1-6 1-7-1l-2-6c0-3-1-4-2-5-3-2-5-4-10-11-3-5-4-6-3-8s1-3-1-4l-7-6c-5-5-5-5-2-20 1-8 0-10-5-13-2 0-4-2-5-4l-8-8-7-10-5-9c-3-5-3-5-1-5l11 2 12 1h10l9-1h6l9 1 8 1 5-3 6-6c3-2 8-24 7-27 0-2 0-3 3-5 4-4 6-7 3-10v-8l2-9c1-6 1-7-2-11l-5-8c-1-2-4-4-7-5-4-2-4-2-4-7l2-9c2-6 9-14 12-14 6 0 8-1 10-6l5-8 4-4-4-5c-4-3-7-10-7-16 0-2 1-4 4-7s4-6 4-7c0-3-4-8-6-8-3 0-3-4 1-7 3-3 3-4 3-9a246 246 0 00-2-36c-1-6-3-12-5-14l-2-4c0-4-1-7-5-11-3-3-7-9-7-11h3l9-2c9-3 12-6 15-17 2-6 4-10 9-16 7-9 9-10 14-12l6-2c1-2 4-3 5-3 10-3 13-4 13-7l4-5 5-7c0-1 2-3 5-4 4-2 6-3 7-5l6-13 7-13 1-4-5-6c-8-9-18-13-29-13-5 0-7 0-7 2-1 2-7-3-11-11l-4-7 2-6 2-9 1-5c2-1 0-4-3-4s-4-3-2-8c2-4 2-4-1-7s-3-2-8 0c-4 2-7 2-12 2-6-1-6-1-8-4-4-8-10-7-10 0 0 4 1 4-12 4-6 1-6 0-8-3-2-4-4-4-8-1l-6 2c-4 0-5 0-6-3s-1-3-4-3c-5 0-12 2-13 4l2 5c2 7 2 9-8 15-8 5-9 5-13 5-5-1-7 0-7 2-1 5-9 2-9-2 0-6-8-8-9-3 0 3-2 4-10 5-3 1-4 1-4-1-1-2-1-3 1-4 3-3 2-4-3-4l-7-2c-3-2-3-2-12-1l-13 5-4 3-2-7c-1-9-2-10-5-9-2 0-2 1-2 4s0 4-4 5-4 2-5 5c0 3-1 4-4 5-5 3-13 4-16 3-2-1-3-2-4-7-1-6-3-9-5-9l-2-3c-1-2-1-3 3-7l4-8 5-4c4-1 4-2 4-6s0-5-2-7-3-2-5-1h-5c-2 0-2 0-2-7V0l-8 4zm-60 251l-1 4-2 2v-3l1-3h2z"/>
</svg>
