<svg xmlns="http://www.w3.org/2000/svg" viewBox="0 0 1024 1024">
  <path d="M300 10l-32 10-64 12-69 13-5 1-8 23-10 27-21 34-19 30 1 32v31l-6 25-19 71c-15 55-14 54-5 62l7 5 9 5c5 4 8 6 11 6l8 4c3 3 3 4 3 9s0 5 3 5c3 1 3 2 3 4 0 3 1 4 3 6l4 7 6 9c5 6 8 10 10 17 1 5 8 12 11 12l7 4 8 5c2 2 3 3 3 6 1 3 2 4 5 6l7 3c3 0 6 3 8 7l3 3c2 0 4 1 5 3l13 8 13 7c1 2 6 4 10 6 9 5 10 6 10 11l5 10 5 7c0 3 3 5 8 5l9 2 9 2 12 2c8 2 9 3 11 5l6 7c4 3 5 3 13 3 6 0 8 0 10 2s4 2 13 2l15-2 5-1 12 8 30 19a264 264 0 0143 33l7 4 6 4 8 4 5 3 9 5 15 10c6 4 9 5 12 5l5 2 24 5c4 0 5 0 11 9l8 8 6-4 4-3 5 5 9 6 3 3c0 2 1 2 4 2l4 1 8 1c7 1 7 1 14 7 5 5 7 7 7 9s2 6 5 9l7 10c1 3 3 5 5 6 4 3 5 5 3 14-2 6-7 12-10 12l-3 2-3 2-5 2c-2 1-2 2-2 5 1 3 1 4-3 6-4 3-4 3-3 5 2 4 0 7-4 9l-3 2 1 5c-3 0-5 4-3 5l3 1c2 0 1 4-3 7l-5 3-4 3-6 5c-6 1-8 2-8 5l-2 4 1 2c2 4 0 6-4 6-3 0-3 0-3 2 2 4 1 9-2 13s-3 6 0 8c2 2 2 2 0 3l-3 5c-1 4-1 4 2 6 3 3 3 3 2 7-1 3-2 4-4 4-3 0-3 0-3 7 0 6 0 6-3 9l-5 4c-3 1-4 3-1 6 1 2 1 2-1 2l-4 2-5 3c-4 1-7 5-6 8s-2 8-6 8c-3 1-3 1-4 5 0 3-1 4-3 4-6 0-8 9-3 13l2 6 1 5 6-1c5-2 9-2 15-2s10 0 13-2l8-1 15 2c30 2 39 4 46 9l17 6 8 2 10 2c5 0 7 1 13 3 5 3 9 4 12 4 5 0 13-3 15-6l7-2c4 0 5 0 10 5l7 6 5-3c4-3 4-3 13-3 8 0 9 0 9 2 0 3 8 13 12 13 4 1 8-2 8-6l3-3c3 0 4-3 4-9 0-5 0-5 2-5s4-2 7-5c4-5 5-5 10-5l9 1 8 2c5 0 5 0 8 5 2 4 10 10 13 10l5-5 8-6c4-2 5-3 5-7l3-7c1-2 1-2-1-5-2-2-2-3-1-3l4-4c2-4 2-5 4-4h5c3-1 3-2 3-5l2-8c2-4 3-4 9-5l9-2c2-1 3-1 4 1 3 2 3 2 8 1 4-1 4-1 4-6 0-4 0-5 4-9 3-3 7-5 10-6 4-2 5-2 6-6 2-8 5-9 10-9 5 1 5 1 7-3s2-5 2-10l-1-6 5-5 6-8 3-8 3-18v-24c-1-3-1-3 1-3 3 0 4-2 4-7l1-6c3-3 2-6 0-10-2-1-2-4-3-9 0-7 0-7 2-6 2 0 2 0 2-4l1-7c1-2 0-7-2-13-1-4 1-10 7-17l6-9 5-9c3-5 3-5 2-9s-1-10 2-16l2-11c0-5 1-8 3-10 4-4 10-22 10-26l-2-8-2-4 4-4c7-8 9-20 3-24-2-1-2-3-3-9v-12c2-3 3-4 5-4 5 0 4-4-1-7-3-1-7-5-10-8-4-5-8-7-17-11-11-5-12-6-14-4l-8 2c-4 0-7 1-10 4-13 9-16 10-28 12l-11 2c-3 1-5 0-8-1l-9-1c-4 0-6 0-8-2l-4-3-1-14c0-17-1-20-6-24l-3-4v-15l-1-28c0-14 0-14-3-16-3-3-3-4-3-7l-2-10-2-7-2-9c-2-7-1-8 1-12 2-2 2-4 2-10 0-9 0-10-6-13-5-2-7-7-6-16v-8l-6-4c-4-3-6-5-7-8l-1-3h-30l-3-1c-8 0-24-13-26-21l-1-4h-17l-1 6c0 5-1 6-6 9l-6 6c0 2-1 1-4-2-3-2-3-2-4-1l-6 2c-4 0-4 0-6 4l-2 3-3-3c-4-3-13-5-22-4-3 1-4 0-5-2s-2-2-5-2l-6-1c-1-1-3-2-4-1l-7 1c-4 1-7 1-11-1l-11-2-6-1h-6c-1 1-3-1-5-4-3-4-4-5-6-5-6 0-10 0-13 2l-7 1c-6-1-13-6-12-9l3-14c2-3 2-5 1-7s-1-13 1-19l3-4 4-2-4-1-3-1v-6c1-5 0-6-1-8-2-2-2-2-1-7l5-11c6-7 6-11 3-11-4-1-4-5-1-8 5-4 6-7 5-15l-1-8c-1-2-1-3 1-5 2-1 3-4 3-5 1-3 1-3-3-5l-6-4-2-2 2-2 2-5c0-2-1-3-4-4l-4-2 5-3 5-3-4-5c-4-5-4-5-6-4-2 2-2 2-4-2l-1-7-1-8v-6c1-2 1-2-3-7-6-7-7-10-7-16s0-6-6-3c-2 0-2 0-2-2l-1-2-1-1 2-1 3-1c1-1 0-2-1-4-2-2-2-2-1-6l1-8 1-6c1-3 1-4-1-7l-2-10v-6l-54-30-55-30-104-5-37 10z"/>
</svg>
