<svg xmlns="http://www.w3.org/2000/svg" viewBox="0 0 1024 1024">
  <path d="M541 1c-2 0-4 2-7 5l-4 4-4-1c-4-2-5-2-6 0h-10c-1-2-3 0-3 4-1 5-5 9-11 12-4 2-6 4-4 7 1 1 0 2-1 3l-1 5c0 2-1 3-7 7l-11 5c0-3-3-4-5-4l-5 4c-2 2-3 3-4 2-2-2-4-1-8 2l-11 7-7 4-4 2c-4 1-4 1-2 3 3 2 3 14 0 17-2 2-2 4-2 9 0 7 0 7-2 7-3-1-3 0-2 2 0 3-1 4-5 9-5 5-6 6-7 4l-2-6c0-5-1-6-3-6-3 0-3 0-3 6l1 6 1 7 1 9c3 8-1 21-6 24l-2 3-2 4c-3 2-3 5 1 6v-1c-1-1-1-1 1-1 4 1 4 3 0 6-4 2-6 1-6-2 0-2-2-1-3 2l-2 4-1 10c0 7 0 8 2 10s4 2 6 2h5c2 2 2 3 2 7l2 6c1 2 1 3-2 5-2 2-2 4-2 6 0 3-1 4-4 7-3 4-9 7-12 7l2-5 2-7c0-3-6-13-7-13l-3-2c-3-2-6 0-9 6l-6 7c-3 1-4 2-5 8s-1 6 3 11l3 7c0 2-2 6-4 6s-5 4-7 9c-2 3-2 5-1 13l1 12 1 7a365 365 0 016 17l3 3 3 2c2 0 4 1 5 3l2 2 4-1c2-2 4-2 4-1l3 1v-3l2 2c1 2 7 1 9-2l2-3-1 4-2 5-1 4c1 4-2 9-6 10-2 0-3 0-5-3l-6-4-2-3h-1l-4 5-2 6c1 2 0 5-3 8v5l-3 10-3 9c0 1 1 2 3 2 3 1 4 5 2 5l-3 2c-3 2-3 2-1 4h3c0-3 3-1 4 2s1 3-3 8c-4 4-4 4-3 9 0 6 0 6-3 2-4-4-8-2-11 5h-1c-1-1-2-3-2-9l2-8 2-2c0-2 2-3 4-1s2 2 3 1v-5c-2-3-2-5-1-5 2 0 1-2-1-3l-3-1v3l-1 5c-1 1-1 1-4-2-6-7-6-9-6-19 0-8 0-9-2-10-4-1-4-8 0-14l5-8 1-4v-13l-2 1-3-2c-2-4-2-4-4-4-4 1-6 0-7-4-2-4-4-3-3 2l-1 6c-2 1 0 3 7 7 5 4 7 6 2 5l-2 1-1-1-2-4c0-1-5-2-6-1l5 5 5 6-12-11h-4l-4 2-1 2h-2c-2-2-7 0-9 3-3 5-2 6 0 9 3 2 5 2 8 1 2-1 4-2 5-1 2 0 3 1 4 4l2 6 1 10c0 7 0 8-3 11l-4 7c-2 5-2 5 0 6l4 3c0 2 2 3 2 3l1 4c-1 3 0 4 2 7s3 4 1 4l-3 2c-1 2 0 2 3 5 5 4 5 7 1 9-5 3-10-1-10-7s-2-11-4-13l-3-7c-2-11-10-16-17-10l-4 3c-1 0-8 8-9 11l1 1c2-1 2 0 4 3 2 4 1 10-3 18l-3 11-1 11c-1 5-1 5 1 7 2 3 2 3 1 6v6c2 2 2 6 3 16l1 15 2 15-1 17-3 15 1 16c1 3 2 5 1 7-1 5 1 27 3 33a426 426 0 010 38c-1 3-1 4 5 7 6 5 8 8 13 18 3 7 3 9 3 17 0 6 0 9-2 10-2 4-5 15-5 22s1 9 10 18l6 10c1 5 2 7 8 11 5 5 6 6 6 9l2 6 2 4 2 8c2 6 2 6 0 8-1 1-2 2-1 3 1 4 0 11-1 15-2 6-1 10 3 17l3 7-2 8-2 10-1 5c-2 3-11 8-17 9l-6 3 10 18 31 59 22 42 17 13 18 13 29 10 29 9 54-10 55-11c2 0 2-1 2-3-1-2 0-4 1-6l1-16 1-14 1-5 3-4c2-2 2-2 1-5-1-2-3-3-3 0l-1 3c-1 1-2 0-4-2l-6-5c-2 0-3-1-3-3l2-2v-2c-1-1-2 0-3 1-2 2-3 2-5 0-1-2-2-2-4-1l-3 1c-1 1-13 0-14-1l-5-2c-4 0-4 0-3-3 0-3 0-3-2-3l1-2 2-4c0-1 4-7 6-7l-1 2-1 4c0 2 0 2 3 0 2 0 3-2 4-3l6-1c3 1 5 0 6-1l5-2 3 3c1 3 1 3 3 1 1-1 2-2 1-6 0-4 1-5 3-3 1 1 1 1 1-2v-4c2 0 2 4 0 11v8l1 3v-3l3-6 1 3c1 3 4 5 5 3 1-1 4-1 6 1 3 3 3 3 3 0-1-2 1-3 4-1 2 2 3 1 3-2 0-2 1-4 3-5l2-2-1 7-1 11v6c1 2 2 0 4-8l3-8c2 0 0 11-2 16l-3 6-4 2c-5 0-6 1-5 6l2 6 1 7 1 6 5-3 10-6 5-4 2-9 4-20c1-2 2-3 7-3 7-1 11-3 14-6 0-2 2-3 3-3 2 0 6-7 8-15a103 103 0 016-19c0-3 2-6 10-20 7-11 9-17 8-23-1-3 0-5 2-9 2-3 3-6 3-10s1-6 4-13l5-11c0-3 8-12 12-13l3-5 8-11c5-4 8-9 11-15l6-10c2-1 7-12 7-13l-3-1c-2 0-2 0-2-4 0-5 3-9 7-9s8-2 8-4l4-6 5-11c1-5 1-5-3-8-4-4-6-10-4-12l-2-5v-11l2-8c1-1 1-1 1 1l-2 4 1 2 3-1-1-19c-1-13 0-18 1-21s1-4-1-6l-4-7c-1-5-1-5 1-10l3-5v5c-1 4-1 4 1 3v-10c0-12-1-13-6-18-4-5-4-6-5-12v-8l2-5 1-3 1-5v-3l-3 2h-4l-1-3-2-1c-2 0-4-1-6-4-4-4-7-5-10-2-2 2-6 3-6 0-1-2-1-3 1-3l2-1-1-2c-2 0-8 4-8 5 0 2-7 0-9-2s-3-10-1-12l3-1c2 0 6-4 6-6s-1-2-3-2l-5 2c-2 0-4-4-3-6l1-12c0-6 0-10 1-8 1 1 1 1 1-2v-12c2-5 1-6 0-9-2-3-2-5-2-9 2-9 1-11-1-15l-4-9c-2-4-6-7-9-9-3 0-4-2-3-5 0-3-1-4-4-8-5-4-5-7-2-16 1-7 3-10 3-6l1 3 1-5c0-3 1-7 3-10l3-6-3-4c-3-3-3-3-2-9 0-4 1-6 3-9l5-3c4 0 5-1 4-5-1-2-1-3 2-6 4-4 7-3 4 1l-1 3c1 1 6 0 9-1 5-3 8-7 8-17 1-8 1-8-2-9s-6 0-6 4l-2 2-1-6c-1-6 0-8 1-8l2-1c1-3 0-5-3-5-2 0-2 1-2 3 0 1 0 2-2 1l-1-1c0-3 0-4-4-4-7-1-10-6-4-6l9-2 12-2h4v3c4 1 5 6 1 7h-3l-2 2 5 1 6 1 3 1c3 0 4 0 4-3l1-7 2-4 1-2 2-4 1-5c0-3-3-10-6-12-2-2-2-2-3 0-2 3-2 8 1 10v4c-2 1-2 1-4-1-3-5-9-10-13-13-3-1-5-3-5-4l-4-3c-3-1-3-1-2-4 1-2 1-2 3-1l3 1c2-1 6 3 6 6l3 2c3 0 4-2 4-8l2-7c3-2 2-4-1-1l-4 3c-2 1-2 1-1-1l2-3c-1-2 0-3 4-3 6 0 10-2 10-6l3-3c1-1 1-1 1 1l-1 8c0 5 0 6-2 8-3 3-4 5-3 5l4-1 4-2v-20c2-5 1-7-4-13-3-3-4-5-5-10-1-8-1-11 1-11l2-2c1-2 1-4-2-10s-3-7-2-16v-10l-5-4c-4-4-15-9-20-9l-5-3-4-3 4 1c8 4 5 0-5-6-4-2-5-2-14-2l-15 3c-8 3-13 1-27-7-7-4-7-6-7-20l-1-10-6-4c-5-2-9-8-9-11l-4-6c-5-6-5-7-4-12l1-13 1-9-5-4-9-7-6-4-4-2c-2-2-7-4-12-5l-13-6-7-4-3-2h-6z"/>
</svg>
