<svg xmlns="http://www.w3.org/2000/svg" viewBox="0 0 1024 1024">
  <path d="M329 61l-10 4-15 4-11 1-13 12-22 17c-7 3-13 8-18 12-3 4-9 8-12 10-8 5-11 8-15 17l-6 8-14 5-12 4-19 1c-19 0-19 0-26-3l-9-4-6-1c-2 0-4 1-7 4l-4 9-1 7c-1 5 0 5 4 1l3-3v4c0 5-3 11-5 11l-2-2-1-4c-3-1-5 2-5 10l-3 13-1 6 2 5c4 8 8 30 7 38 0 6-5 21-9 29-3 9-9 14-21 21l-18 9c-8 4-8 4-17 3h-9l-3 3-7 5c-3 2-5 4-7 8L7 336c-6 6-6 7-6 11 0 5 2 11 4 13l1 4 3 6c2 4 2 4 1 6l-2 10-1 15v14c1 6 2 7 6 11l9 12 5 7 10 8 12 9c7 2 12 7 13 15 1 3 5 9 22 29l6 8v10c1 9 1 12 3 13l2 5 6 7a179 179 0 0115 12c2 0 2 3 0 7-2 3-2 6-2 16l1 15v6l-1 7-2 12-2 12c0 5 1 5 3 6 3 0 4 3 4 9 0 4 1 6 3 8l6 16c4 12 6 15 13 17 3 1 4 2 5 4 0 1 1 2 3 2 4 0 10 2 11 5 2 4 6 8 8 8 4 0 7 3 8 9 0 5 1 5 3 6l8 5c4 4 5 5 8 13l3 14c-1 6 1 9 5 10l4 5c2 3 5 4 6 2h4l17 3a228 228 0 0158 16v-1c0-2-4-6-7-8-1 0-3-2-3-4-2-4-2-4 0-3l4 4 5 4h6c4-2 4-2 1 4l-1 4 4 4 9 7c8 6 14 15 17 23 2 6 2 7 8 11l10 7c4 4 6 5 16 7 24 5 29 6 30 9 1 2 1 2 2 1 2-1 4 1 6 9 2 4 3 5 5 5l4 1c2 2 23 8 27 8 3 0 7 4 10 10l3 4c1 2 2 2 3 1l10-3c7 0 8 0 17 4 6 3 11 4 13 4 4 0 5 1 9 4 6 5 17 9 26 11 4 0 7 1 10 3l10 6 10 6 5 3 3-2 3-3 4 3 14 2c10 1 15 0 23-3l5-1 2 2c3 4 6 7 13 10l17 9c12 7 13 7 30 3l17-3c7 0 15 2 16 4 1 3 3 5 6 5l21-6 17-4 12-2 6-6 7-7 22 1 23 1 14-4a253 253 0 0151-11l4-3c2-2 3-2 7-1l8 1c4 0 37-11 44-14 8-4 17-13 20-19l11-20 4-7-3-5c-2-5-2-7-2-17s-1-14-3-20c-2-8-2-9-1-15 2-12 2-20 0-25-1-5-2-8-2-29a198 198 0 019-62c2-2 2-3 1-5l-1-11c1-9 3-12 7-17l4-5c1-5 5-10 9-14 5-3 6-5 6-19l1-11c0-2 3-4 8-6l8-4v-6l-2-10c-1-3-2-8-2-18l-1-13-7-8c-6-5-8-8-8-9 0-5-7-9-21-12l-4-3c-3-5-11-13-17-17s-8-4-14-4-6 0-10-4l-6-9c-5-12-17-26-24-30-3-1-5-4-7-8l-6-9c-12-10-21-19-22-21a358 358 0 01-18-28c-2-2-2-2-2-12v-11l-6-4c-6-4-7-5-11-17-2-7-3-7-9-10-7-2-12-7-13-13l-3-7c-2-2-3-5-3-7l-3-6c-3-5-3-6-2-15 1-5 1-10-1-27-1-18-2-21-4-24l-6-12-9-22c-6-12-8-14-14-20-3-4-9-8-11-9-4-1-5-3-6-6-2-5-5-8-17-17-11-9-26-17-35-19-3 0-8-2-11-4-4-2-6-2-17-3h-12l-10-5-12-7c-5-4-9-6-20-10-8-2-11-3-13-2-4 2-9 1-16-3l-10-3-8-1c-5-1-6-1-9 1l-15 4-10 2-7-3-10-3-10-4-11-5c-2 0-5-1-6-3l-5-2-6-1-31-1c-32-1-35-1-43-8l-8-7-4-3-23 1-25-1c-4-2-13-2-19 0z"/>
</svg>
