<svg xmlns="http://www.w3.org/2000/svg" viewBox="0 0 1024 1024">
  <path d="M694 176l-3 1-5 2-8 2-7 2-7 2c-5 0-8 2-8 7 0 4-2 9-10 18-3 3-4 4-7 4l-13 2h-11l-4 1c-1 1-2 2-3 1l-8 3-5 3-8-2h-24c-20 2-22 3-29 16l-6 10-7 3-14 2h-7l-2-6c-2-5-2-6-6-7l-6-3c-4 0-8-4-8-7 0-2-3-6-9-9l-9-2c-6 0-7 0-10 2s-4 3-6 2c-3-1-5 0-9 1-4 2-6 3-8 2l-4-1-7-2c-5-4-10-5-18-3-7 2-9 2-10-1l-4-3c-3-1-29-2-33-1s-17-4-17-7c0-1-1-2-3-2s-3-1-4-3c0-2-2-3-7-5-7-2-9-1-11 7-2 6-2 7-7 9l-4 2-4-3-4-2-2 3-1 4-6 5-8 6-2 4c0 4 0 4-3 5-3 0-4 1-5 3s-3 3-8 4c-6 1-7 1-11-1-5-3-9-2-9 2-1 3-1 3-7 3-8 1-12 2-13 4l-3 6-3 8v5h-5c-3 0-4 0-6 3l-5 4c-4 2-6 7-3 14l2 6-3 2-6 3-4 1c-2 1-7 14-8 19l-2 6-4 8c-1 4-2 5-4 5l-6 5c-4 4-4 5-4 7v5c0 3-1 4-4 5-3 2-3 2-2 6 0 5 0 5-5 9-3 3-5 5-6 9-2 4-2 4 0 6l2 2-2 3c-1 1-3 3-6 3-4 1-4 2-3 3 2 1 2 2-1 5s-3 3-5 1h-4c-2 1-4 6-2 8l-3 7-3 6 3 2c2 2 2 2 1 5 0 2-1 3-4 3l-6 3c-2 2-3 2-2 6 1 6-1 9-6 9-2 0-3 0-3 2 0 3-4 6-7 4l-13-2-5-1-5-2c-3-1-8 3-8 7 0 3-3 7-10 12l-3 3-5-3c-8-5-9-5-12-1-2 3-3 4-9 1H5c-5 2-6 4-2 9l4 9 3 6 6 3c3 1 5 2 6 5 1 2 3 3 7 3s5 1 9 5c3 4 4 5 4 10 1 6 4 10 8 9l4-2c2-2 2-2 3-1 1 3-1 17-2 20l-2 3 3 3c4 4 4 8 1 11-3 2-2 5 2 5 4 1 4 1 4 4 0 2 1 3 2 3l8 7c3 4 6 6 8 7l3 1 4 3c3 1 4 1 6-1 3-1 3-1 4 2l2 5c0 3 10 6 19 6l5 1c0 1 2 3 5 4 6 4 8 5 6 8l-2 2c-2 0-5 5-6 10l-4 3c-5 1-5 3-1 7 3 4 8 7 14 8 4 1 4 4 1 7-2 2-3 2-10 2-10-1-12 1-8 7 2 6 5 7 13 7l8 1c3 1 6 6 6 11v4h10c13 0 32 3 32 6l2 4 3 8c0 2 2 5 4 6 6 5 8 4 15-10 7-13 10-17 13-17l5-1c4-4 8-2 15 4 6 4 8 6 11 6 3 1 6 2 9 5 4 3 4 4 2 6 0 1-2 3-4 3-2 1-3 1-5-2-3-2-4-2-7-1-2 1-3 2-3 4 0 3-2 5-7 5-4 0-4 0-3 2l3 11c1 4 6 11 8 11l6 2 5 2v10l4 2 7 4c6 5 18 12 23 13s6 1 6 4c0 2 0 3-5 5l-7 3-4 5c-3 3-3 5-3 11 0 7-1 6 11 11 5 3 7 3 12 2 4 0 10-1 14-3 6-2 8-2 19-2l18 3c5 2 8 3 13 3 7 0 9 1 15 4 6 2 8 3 14 3s11 2 16 5c2 2 4 3 13 3 14 0 22-1 28-5 3-3 5-3 11-3s8 1 12 3c7 3 13 4 20 2 8-2 14-1 20 2 4 2 6 2 13 1h9l7 5 8 5c1 1 22-4 28-7l7-2c3 0 8-4 19-14l14-13 9-8c2-4 4-5 9-6l14-6c7-3 10-4 14-4l10-2 11-2c8 0 16-2 25-6 8-4 9-4 19-5l16 1 9 2c2-1 3-1 3 2 1 3 2 4 5 5l7 5c3 3 4 3 7 3 2-1 6 0 9 1 5 1 6 1 9-1 4-2 8 0 8 3 0 4 3 6 10 6 6 0 7 0 9-3 5-5 7-4 12 9l4 11 7 3 19 7c11 4 15 4 25 5h12v-6c0-6 1-11 6-24 3-8 4-11 2-15l-2-10c-1-5-1-6 1-8s2-4 0-7l-2-9c0-6 0-6 7-13a233 233 0 0031-44c3-6 12-14 19-17 5-2 8-3 17-4a143 143 0 0022-3c5 0 10-3 10-6l1-4 2-8c2-16 3-25 5-27v-3l-3-1-1-2-2-3c0-2 0-2 2-2 2 1 2 0 2-2 0-13-5-21-14-23l-8-4c-5-2-14-3-17-1l-6 2-7 3c-3 2-9 5-13 5l-10 6-6 5-3-3c-4-3-9-4-9-1l-2 3c-2 1-2 3-2 5 0 3 0 4-3 5-2 1-5 0-22-6l-22-9-4-8c-2-9-4-11-7-11-4 0-8-3-8-7s-2-7-4-7l-4-3-2-4 2-1 5-1c3 0 3 0 3-3l1-6c1-2 1-3-1-5-3-5-5-13-5-21 1-5 1-8-1-13l-3-11c0-4 0-5 2-8s3-5 3-10v-6l-1-5c0-4 0-5 4-9 4-3 5-4 6-9l3-7c2-2 2-12 0-14-2-1-2-3-1-7l1-8v-7c0-5-1-7-3-9-2-3-3-5-3-8s0-4-3-5c-2 0-3-2-3-3l-3-18-3-8-1-3c0-2-5-4-9-4l-2-2c0-2-1-2-3-2-3 0-4 0-4-3l-3-3-2-2-3-2c-4-2-4-2-4-7 0-4 0-5-2-7l-3-4c0-3-2-6-4-5l-2-1-2-1-3-1-1-2-4-2-4-4-2-1 2-3c2-2 2-2 1-3v-7l-2-2h-5c-3 0-4 0-4-2v-3l-1-3-2-2c0-2-5-7-10-10-4-2-5-4-6-9-2-3-2-6-1-6s0-5-3-7l-3-7-2-6-2-4-3-3v-1l1-6c0-4-1-5-2-5l-1-1-3-3c-4-2-5-4-7-12-2-5-2-6-4-6-3 0-8-4-8-7l-2-1c-2 0-3 0-3-2l-6-4c-4-2-19-4-20-2z"/>
</svg>
