<svg xmlns="http://www.w3.org/2000/svg" viewBox="0 0 1024 1024">
  <path d="M275 2l-5 4-4 3c-3 1-4 1-4 4l-4 8-6 7c-1 4-8 7-11 6h-7c-7 2-10 5-10 9l-1 4-4-2c-4-2-4-2-8 0l-5 1-4-3c-4-3-5-4-10-3-3 1-7 6-7 10 0 2-1 2-3 2s-4 1-6 4c-4 3-4 3-13 4l-9 1v2l-2 4c-2 2-2 3-1 5s0 3-2 4c-3 1-5 6-3 10 1 3 3 4 6 2 2-2 6 1 5 4 0 2-1 2-4 2-4-1-5 0-5 4 0 2 6 5 9 4l6 2c3 1 3 2 4 5 0 3 0 3-3 3-6-2-7 4-2 9 3 3 4 5 1 6l-2 3-3 3-1 1c2 0 1 2-2 6s-3 5 1 6l4 3c0 3 1 3 5 2h9l6 2c2 0 4 1 5 3 3 2 3 3 2 5s-2 2-8 2l-8 1v14l2 5-3 3c-4 3-4 6 0 10 2 3 4 3 8 4 5 0 5 1 8 4l3 6 8 4c6 3 8 3 11 3 9-2 9-2 10 2s3 5 12 5l10 1c4 1 4 1 6 6 2 7 2 8-4 8l-9-3c-5-5-11-5-12-2 0 2-1 2-8 1l-7-2c-3 0-3 0-3 3 1 2 0 4-2 7l-2 4h-7c-6 0-7 0-8 2s0 3 3 6l2 5v13l-1 11h4c3 0 4 1 6 3l2 3-4 3-7 4c-2 2-4 3-10 3-8 1-8 1-10 7s-1 7 7 6c7 0 8-1 17-7l11-7 3 2c2 2 3 2 5 1 5-2 14 0 19 4 6 4 7 6 4 11-2 2-2 5-2 8 0 4 0 5-2 6l-2 6c0 6-3 13-6 14-1 0-3 2-6 9l-5 9-1 3c0 2-1 3-3 4-3 1-4 1-3 6 0 8 0 9-6 9h-6v3c-1 3 0 5 1 7l2 10 1 6-3 2c-4 2-6 6-4 9l1 4 1 4 2 4c1 5 4 8 8 8 3 0 4 1 6 3 4 3 6 4 10 2 2-2 9-1 11 0l2 10 3 9 4 3c3 1 6 3 7 5 2 3 3 3 7 2 4 0 4 0 3 2 0 2 0 4 2 5l3 5c0 2 2 3 2 3l6 3c4 4 7 5 7 3l1-1 2 1 2 1v3c-1 5-2 7-5 8-1 0-4 3-5 6l-3 4h-13c-11-1-13-1-20-5-9-4-16-6-19-6h-3l2 8a438 438 0 0043 60l4 6c2 4 2 6 2 10l-3 4-1 6c0 7-1 8-8 8l-4 1-1 2c-2 2-2 2-5-5-4-6-4-7-7-7l-5 2-7 2c-6 2-7 2-8 6l-3 6v12c1 4 3 5 15 14 12 8 15 10 18 10 4 0 4 0 6 7 3 8 3 8 9 10 5 2 5 3 7 13 1 5 3 6 6 6 2 0 5 2 11 9 7 7 9 10 11 14 2 7 2 7 11 5 4-1 4-1 10 2 5 2 6 3 7 2s2-1 5 1l4 3 3-3 3-2 6 9c5 8 7 10 11 12s6 3 5 4l4 5c4 4 5 4 9 3 5 0 6 0 17 6l15 7c5 0 6 1 5 5-1 2 0 4 1 8l2 4c0 1-7 4-10 4-8 1-11 3-14 10-3 6-3 6-7 6l-11-3-8-2-8 3-12 3c-4 0-5 2-4 7 0 2 2 4 6 8l5 5c0 2 5 8 8 10 3 1 4 3 5 7v10c0 3 0 4 2 5 5 2 15 11 15 14l5 7c3 4 4 5 3 8l2 8 3 10c0 6 2 8 5 6 2-2 4-2 4 0 1 1 1 1 4-1l2-2 11 7c13 8 16 12 23 23 5 9 7 15 7 22s1 12 3 13c3 2 7 11 8 18v7l-4 4c-5 5-5 8-1 14l4 4 5-2 8-1c3 1 4 0 9-6 4-4 6-8 6-9l-2-10c-1-7-2-8 0-15 1-9 3-11 8-11 3 0 4-1 5-2 2-2 3-3 6-3s4-1 7-4 4-4 11-6 9-3 15-8l7-6 6 2c3 2 8 5 10 8 4 4 5 5 5 9s0 4 3 4l4 1c2 1 3 1 7-1 4-1 5-3 3-9-1-3-1-4 6-13l6-10h5c5-1 5-1 6-4l1-4c3 0 11 3 12 5s2 2 10-1l8-2 3 3c2 3 5 4 6 4 3 0 10-3 11-5l4-1c3 0 4-1 6-3l4-4 3-3c4-6 5-7 8-3l6 3c2 0 3-1 5-5l1-4 6 4c6 5 7 5 12 6l8-1c2-1 3-2 5-1h4c1-2 2-2 3-2l4-2c1-1 2-2 5-2s5-1 8-3c3-3 3-3 6-2l8 7 6 5 4-3c2-3 3-3 7-3h6l1-7c2-6 3-6 7-9s5-3 7-13l3-10-2-4-10-10-8-6 4-19c1-2 2-4 1-6 0-3 0-5 2-7 4-6 4-7-2-15l-5-10 3-3 7-6c4-3 5-3 8-3l6-2 2-3 6 3 7 3 4-2 8-2c4 0 8-5 10-14l2-8c18-11 17-10 21-17l6-9c5-4 6-7 6-17l1-10-4-1c-8-3-13-9-22-25-6-11-11-15-20-18-6-2-8-3-10-6s-4-4-7-5c-3 0-5-1-6-4-2-2-3-3-7-4-3 0-4-1-4-2l-4-12c-3-10-4-13-4-20v-8l-8-8c-8-7-8-8-8-12l-3-12-3-7 2-6 2-13 2-12 2-10v-5l9-2c9-1 9-2 12-5 2-3 4-5 8-6l6-3v-8c0-11 1-13 6-19 5-5 7-12 6-17-1-3-1-4-12-8l-13-7c-3-3-5-11-7-19l-3-11-2-4h5c6-1 10-4 10-8 0-3 2-7 3-8 3-2 8-1 14 2 8 4 14 4 16-1 4-10-5-20-18-21-6-1-6-1-16-10-9-8-10-9-16-10l-6-1-4 3c-2 3-6 4-9 5-7 2-7 1-13 9l-11 20c-5 13-6 14-9 16-5 2-11-1-18-9-5-6-6-8-7-14l-3-9-16-5c-12-3-16-4-27-5-21 0-25-2-27-10-1-9-1-10-4-12-4-2-16-5-22-4-6 0-8-1-14-8-4-6-4-6-2-9 1-3 4-4 13-3 6 0 16-2 18-4s3-8 1-11l-11-5c-8-4-10-5-14-10-5-5-5-5-4-8l3-2c5 0 6-1 9-9s3-9 8-12c6-3 6-3 5-6l-1-4-9-8-7-4c-4-4-4-4-10-4-9 0-17-1-23-4-7-4-9-6-12-13 0-3-1-5-2-5l-5 3-4 2-3-2-4-3-4-2-5-3-13-10c-4-5-9-9-11-9l-4-6c-2-5-2-5-8-7-7-3-8-4-3-9 6-5 5-9-2-17l-4-4 2-4c3-8 3-9 2-14l1-11c4-11 1-15-5-9-3 4-6 5-10 3-3-1-10-13-12-19l-10-17c-2-2-4-2-8-2-6 0-9-2-11-8-1-2-2-3-5-4l-8-2c-4-1-10-8-9-10 0-3-6-13-10-18-3-2-5-5-5-6 0-2-2-3-5-4l-7-3c-2-2-3-2-7-2-4 1-5 1-7-1-3-4-6-4-10 0l-3 3-4-3c-6-6-14-7-19-3s-16 9-19 9c-2 0-6-2-16-10-4-3-5-3-14-3-7 0-10 0-13 2z"/>
</svg>
