<svg xmlns="http://www.w3.org/2000/svg" viewBox="0 0 1024 1024">
  <path d="M918 211c-1 2-3 3-6 3-5 1-8 3-8 7l-2 7-2 3 6 1 5 1c-1 2-8 2-11 1h-5a258 258 0 00-48 35l-2 2c0 3-5 13-9 17l-4 5c0 3 3 6 5 6l7 2c3 2 4 3 4 5l-1 2c-1-1-3 0-6 2s-4 2-5 1c-2-1-2-2-1-2 2-2 1-5-1-5-2-1-6 2-6 4l2 3c2 4 1 8-2 11l-5 5-3 6c-1 2-2 4-1 6 0 4 0 4-3 5l-5 1c-3 1-4 1-4-1-1-3-6-5-11-3-9 3-11 5-15 14l-5 11c-2 2-5 3-5 1s-6-1-9 1c-7 3-11 3-8 0 2-1 0-3-2-3l-8 4-15 9-9 5-4 1-2 2c-1 2-1 2 1 2s1 1-1 5c-2 2-2 3-2 5 1 2 1 2 3 1h3l2 4 3 3-3 2c-10 6-14 9-15 12-2 3-2 4-5 4l-4-1h-4l1 5 2 6 2 4c0 2-1 2-4 2s-5-1-8-4l-7-4v-5c1-1 1-2-1-2l-6-6c-5-6-9-7-14-4-3 2-6 2-8 2-3-1-5 0-6 3v5c5 5-2 10-13 10-4 0-5 0-5-2s-1-2-2-2l-7 1-8 3c-3 2-6 3-7 1s-1-2-3 0-4 3-6 1c-2-3-2-2-4 1-3 4-2 4 0 4 3-1 2 1-1 4l-8 6-5 4c0 3-3 5-3 3l6-13c2 0 5-4 6-9l3-7c5-5 8-13 8-18 0-4-1-6-4-11l-6-6c-2 1-3 0-3-1-2-2-12 2-14 6-1 2-3 3-4 1l1-3c1-3 1-3-1-4h-6l-5 1 3-3 3-3c0-1-7-3-9-2-3 0-7 8-7 13l1 6c1 1 0 1-3 1-5 0-5 0-5 3 1 2 0 2-3 5-5 3-7 3-5-1 2-3 1-4-4-1l-6 3c-2 0-3 1-3 2 1 1 0 2-4 4l-6 2-7 5-7 4-3 2c-2 1-2 2-1 4v4l1 3 2 2-6 3c-5 2-8 3-16 2-5-1-5-1-6 1l-1 5-1 6c0 3 0 4 3 7l5 7 2 3-4-1c-2 0-4-1-6-4l-5-6c-3-2-4-2-7-1-6 2-6 2-3 4l2 2h-2l-2-1-3-1c-2 0-3 1-3 3s3 7 5 7c1 0 5 6 5 8l-3-2c-1-3-3-4-6-4l-4-2c-1-2-1-7 2-11 2-3 1-14-1-17-1-2-2-2-3-1v3c2 1 2 7 1 10l-4 4c-1 0-4 1-5 3-2 2-2 2-1 7 1 7 1 11-1 13l-4 6v14h5c3-1 4-1 7 1 4 3 6 5 6 10 1 4 1 5-1 5-2 1-2 1-2-2l-2-6c-1-4-2-4-6-4-5 0-7 2-8 10 0 5-1 6-2 6-2 1-3 2-4 6s-2 5-6 7l-5 3c0 2-4 1-7 0-3-2-4-4-1-4s5-1 5-3l4-5c6-4 9-7 9-10l2-5 2-2-2-2c-3-2-3-5 0-12l2-8 2-6c2-4 3-10 1-13-1-2 0-3 3-9 5-9 5-12 1-15l-7-4-3-1-4 6c-6 10-8 12-13 15l-5 3c-2 2-1 4 1 4v2l-3 5c0 1-1 4-3 5l-2 2 3 3c3 2 3 3 3 6l2 6 1 3-3 3c-3 3-3 3-5 1l-1-4-3-6-7-12c-2-4-4-6-7-7-5-2-9-5-9-7l-1-3-1-2c1-1 0-3-2-4l-3-3-2 2c-3 3-3 5 1 9 2 3 2 5 2 10l-1 6h-3c-3 0-4 1-5 2 0 2-1 2-1 1v-3c3-4 2-6-1-6l-5 1c-2 1-4 0-8-2-3-1-5-2-8-1l-5-1c-2-1-2-1 0-4l3-3c6-2-1-3-16-2h-20c-3 0-4 1-7 3l-3 3-4-2c-3-1-4-2-3-6 0-7 0-7 7-7l6 1v-5c0-5-2-8-6-13l-4-3v4c0 5-2 8-7 11-3 2-4 2-4 7 0 4 0 5-3 7l-5 3c-1 1-1 0-1-2l-2-6c-2-3-3-4-6-2l-10 1h-8l-2 5-3 7c0 2-4-1-5-3l-2-4-1-5c-1-5-3-7-5-7-3 0-4 4-4 9 1 5 0 7-3 7-5-1-7-16-3-23l3-5 4-3c4-3 5-6 3-8-1-1 0-2 1-5l1-6 1-4v3l5 13 4 10c0 3 6 9 12 11h11c7-2 8-3 8-8l1-6c2-2 2-2 0-8l-2-10-1-7c-1-2-2-5-1-6 0-1 0-3-2-4l-2-4-2-2c-2-1-3-2-3-4-1-5-1-5 1-4 3 2 3 2 3 0 0-4-2-7-4-6l-3-1-5-2-7-1c-4-2-7-1-11 3l-3 6-1 7c-1 4-1 4-5 4-5 0-11 5-12 9 0 3-4 8-5 8l-11 5v2c2 2 1 4-1 5-2 0-2 1-2 3 0 3 0 4-4 4l-5 1-1 6-3 9c-2 1-16 3-30 3-10 0-10 0-9 2 2 2 2 2 1 4-3 2-2 3 0 6 1 2 2 3 1 4l-1-1-2-2-6-2c-4-2-4-2-6-1l-4 2c-2 0-7 3-12 8l-5 3c-2 0-3 1-4 3l-7 12c-3 4-4 5-3 8l2 4c2 0 2 1 1 3-2 3-2 3 1 4s3 2 3 5-1 4-2 5l-2 2-2 2c-3 1-5 5-5 8l-2 6c-1 4-1 4 1 6l1 2-1 3c0 2-1 2-2 2l-4-1-2-1-1-3c-2-2-2-2-3-1l-2 3-3 4-3 6c0 3 0 3 3 3 2-1 3 0 6 3 6 5 6 8 2 12-5 4-6 6-3 10l2 4-2 4c-3 5-3 5-1 7l2 4c0 2 1 4 5 5 3 0 3 1 3 5 0 3 0 4 2 4l2 3 2 5c3 3 5 10 5 12l-4 1c-4 1-6 2-7 6 0 2-2 4-4 5l-4 3-2-3c-3-3-6-4-11-2-4 2-4 4 1 7l4 3c-1 0-14-3-15-5-2-2-6-1-5 2l2 5c0 3 0 3-2 2-1-2-2-2-5 0-3 0-5 2-6 3s-1 1-4-2l-4-4c-1 0-3 5-3 8l7 15 3 16c0 3 0 4 3 6 3 1 6 6 7 12l3 3 6 5c3 3 4 5 4 7l1 5c1 0 1 1-1 2-2 2-1 3 2 3s5 1 9 5c6 5 6 5 4 7s-1 4 1 8c2 2 3 4 4 9l2 9c1 3 2 3 5 2l6-1c2-1 4-8 4-15 0-6 0-8 3-13 4-7 5-11 3-14l-1-4 7-2 9-5c3-2 3-2 4 0 1 1 2 2 4 1l4 1h2c1-1 2-2 4-1 2 0 2 0 2-4-1-3-1-4 1-4 2 1 2 0 2-9 0-6 0-8-2-10-3-2-3-3-2-6v-5c-2-3-1-4 2-5 5-2 7-5 9-9 1-2 2-3 4-3 1 1 2 0 4-2l4-3 1 6c-1 6-1 7 1 7 2 1 3 1 5-2s3-4 5-4l4-1 7-2c12-2 12-2 14 2l2 2c1-2 5 0 7 4l4 4c2 0 6 9 5 13 0 4 1 5 3 3 1-2 3 0 3 2 0 3 4 5 7 4 5-2 10-1 11 2 2 2 5 3 7 1h3c2 0 3 1 2 2-2 1 0 6 2 7l2 3c0 2 4 2 5 0 2-1 2-1 3 1 2 6 11 5 13 0 2-4 2-4-1-8-6-7-6-9 1-9 2 0 3 0 3-3 1-4 4-7 5-5l4 2h5c1-2 1-3-2-4-3-2-4-3-2-5v-1c-2 0-2-3 1-5 2-1 3-1 5 1 4 3 11 4 42 6 7 0 10 0 16-2s7-2 9-1c1 1 3 3 5 3 5 2 6 5 4 12v6h4c3-1 3-1 4 2 1 2 2 3 3 2h3l4 2c2 0 2 0 0 2l-2 3c0 2 1 2 6 3l6-1 3-1 3-1 12-4-1 2c-2 3-1 6 4 11 4 4 5 7 11 22l8 19c1 1 2 1 3-1 2-2 4-2 4 0 0 4 14 9 16 6h8l5 5 4 6 2 3c0 3 5 5 11 5 5 0 7 2 10 6 1 2 2 3 5 3s4 0 4-2 1-3 7-4 8-2 8-5c0-1 13-8 16-8l2-2 6-3 5-1 1 1c0 2 1 2 6 2 4 0 5 0 7 2 4 5 7 6 20 6 10-1 12-1 14-3s3-7 0-9c-2-2-2-8-1-10l2-4 1-2 2-3c2-5 2-5 3-3l7 2 13 3 8 3 2 4c1 3 2 4 6 6 5 3 10 3 14 0 5-3 8-4 16-4 10 0 17 1 19 3 4 4 8 4 18 3 9-2 11-2 13-4l5-3 4-3 4-3 3-3 2-4c2 0 3-2 4-4l3-4h5c3 2 8 2 10 1 1-1 5-2 11-2 9-1 9-1 10-3 0-2 2-4 4-6 3-3 4-6 2-9-2-1-2-3-1-10 2-16 2-19 1-21s-2-2-4-2c-4 1-5-1-2-7 1-3 2-4 4-5l8-5c5-5 8-6 15-6l6-1 5-1c3 0 5 1 8 3l5 4 7 6a223 223 0 0016 16l4 3c3 2 4 2 6 0l7-3h19l4 5c3 3 4 4 8 4 3 0 4-1 5-2l5-4c3 0 3-1 3-3 0-1 1-4 3-5l4-7c1-3 5-6 5-4l3 4c2 2 2 2 2 5-1 2 0 6 2 12 3 8 6 17 5 20l1 3c1 2 1 2-2 4l-5 2c-3 0-4 1-5 3l-2 6c-2 2-2 2 0 3 4 3 15 16 15 19l-2 6c-2 3-2 4-1 5s2 1 4-2c3-2 3-3 3-9 0-5 1-7 2-7l3 2h7c6-1 9-6 11-14l3-8v-14a793 793 0 00-1-44l-2-10c0-9-1-22-3-23l-2-4c-1-5-7-15-12-19-5-5-8-12-10-20v-4l6 3c5 2 8 3 9 5 0 2 4 6 7 9l10 13c3 3 5 7 8 8l4 4 6 6 4 7c0 2 6 7 8 7s2-3 0-6c-2-2-1-5 1-5 4-2 0-7-7-9-4-1-10-7-10-9l-3-5c-6-7-3-13 6-13h5l-4-2c-9-3-20-10-25-14l-6-4c-3 0-9-6-10-9-1-2-3-4-7-6l-9-7c-5-4-7-5-8-3l3 4c5 5 6 7 3 7s-2 3 1 7l7 10c0 2-4 1-4-1l-4-2-2-4c0-2 0-2-6-2l-8-1c-1-2-7-1-11 1-3 3-4 4-1 6 3 3 3 5-1 8l-3 4-1-3c0-3-3-6-6-6-2 0-1 4 1 5l1 2c-1 3-4 2-6-3l-3-4-3 3c-5 5-10 5-10 1l2-10c2-7 2-12 2-26l2-20-1-6v-13c-2-2-1-7 1-12s12-14 16-14c2 0 4-3 2-4l-1-2c4-1 8-4 9-7l2-2c1 0 2-1 2-3l-1-3-1-1c0-2 11-11 13-11l4-2h2l-1 3c-3 2-2 5 1 5 2 0 3-2 3-4l2-4c1 0 2-2 2-5s0-4 2-4l2-2 2-3 1-3c0-2-5-1-6 1-2 2-2 2-3 0-2-2-5-11-5-16l-2-5-1-5-2-3c-2-2-1-7 1-10l2-5c0-2 0-3 2-3s2-1 2-3l1-3 5 5c4 5 5 5 5 3s0-2 2-1l3 2-1-11c-2-6-2-10-1-10v-5c-1 1-3-1-6-3-3-3-4-4-4-6 1-3 8-10 8-8l-2 3c-2 2-1 5 2 7 2 0 4 2 5 4l3 3 2 2 2 2c1 0 2 1 1 8l1 8 3 7 2 7 1 4 2 5 4 10v12l-1 4v2l3 1 4 11c2 7 17 20 33 26l10 6 8 4c3 0 6 1 9 4 5 3 11 6 12 5l-1-7-1-6c1-1-3-9-6-12-3-2-3-3-3-9l1-6c1 0 1-1-1-1-8-5-11-10-11-15 0-3 1-4 2-5 2-1 2-2 1-4-1-4-2-5-5-5l-8-3c-5-4-6-7-2-11 3-2 3-4-1-6l-5-1c-3 2-9-1-10-4l-2-4c-2 0-4 2-4 4s-3 3-5 1c-3-2-9-11-9-13l-2-4c-5-3-6-9-2-12 2-1 2-2 1-3l-3-6c0-4 0-4 2-4l4 2c2 0 3-4 0-6v-10c1-7 4-9 9-9s5-1 2-4l-3-7-3-8c-3-6-4-13-6-31l-1-11c-1-2-1-3 2-6s4-5 1-8c-2-2-6-2-17-1l-7-1c-2 0-2 0-2 2 0 3 0 3-2 3l-4-1c-2 0-1-3 0-4l2-3-2-1-1-5c0-4-1-5-3-7-3-3-4-3-8-3l-5 1v-3c0-3 0-3 3-2h6c3-1 3-1 3-5 1-6 3-8 8-8 4 0 7-2 5-4 0-1 4-5 7-6 4 0 5-4 4-8 0-3-1-4-3-2l-4-2-7-2c-3 0-4-1-2-3 2-1 1-4-1-4-1 1-1 0-1-2s-3-6-4-6l-2 2z"/>
  <path d="M832 235c-2 1-4 5-4 8s5 10 7 10 2-1 3-8l-1-10h-5z"/>
  <path d="M512 335c-2 2-3 4-2 5l-1 4c-2 2-2 2 0 4l2 3h-2c-2 0-3 1-3 3 0 3 4 4 6 1l2-3v9l1 2 3 4 5 2c3 2 4 2 7 1s4-5 2-5v-5c0-4 0-5-2-7l-1-3-2 2-2 2v-2l-2-4v-9c1-1-6-8-7-8l-4 3z"/>
  <path d="M716 332l-5 4-6 4-1 1c-2 0-2 0-1 2s2 2 4 2c10-2 13-4 13-9 0-4-3-7-4-4z"/>
  <path d="M691 345l-7 2c-4 0-4 2-1 5 3 2 2 3-3 2-6-1-8 0-8 3s5 12 7 13c3 2 9 1 10-1 1-5 6-10 8-10s3-1 3-3 0-2-2-1-9-2-9-4c0-3 2-3 2 0 1 2 6 4 8 2 2-1 3-6 1-6l-1-2c-1-3-3-2-9 0z"/>
  <path d="M538 360l-3 10a1504 1504 0 000 14l4-2c0-2 2-3 3-3 3 0 9-4 10-6 1-5-7-12-9-9-1 1-1 1-1-1 0-4-2-5-4-3z"/>
  <path d="M705 373v9l4-2 7-4c2-2 2-2 1-3l-7-2c-4 0-5 0-5 2z"/>
  <path d="M417 391l-6 2-2 1c-1 2-7 1-10-1-2-2-2-2-5-1l-8 2-6 2-6 2c-2 0-3 1-5 3-3 4-13 11-16 11-2 0-2 0-2 2 1 3-1 5-5 5l-2 2-2 1c-2 0-3 1-4 3 0 4-6 8-7 6-1-1-2-1-4 1-2 4-3 6 0 7l2 2-2 1-2 2c0 4 2 5 4 3 1-3 2-2 1 1s-1 4 1 7l4 4 4 2 4 2v-11c0-10 0-10 3-14l6-7 5-3 2-2 14-11 9-4 3-2c2-2 12-5 24-6 9-1 10-1 13-4 4-4 5-7 2-9-2-2-4-1-8 1z"/>
  <path d="M414 447v4c3 1 6 0 6-3s0-3-2-3l-4 2z"/>
</svg>
