<svg xmlns="http://www.w3.org/2000/svg" viewBox="0 0 1024 1024">
  <path d="M220 79l-4 4-47 14-49 14c-2 0-1 2 21 27l24 27c1 2 0 2-7 7-8 4-8 4-12 13l-4 10-19 4-17 4-7 10c-5 7-9 12-16 18l-10 9-27-4-27-5-2 3c-1 3-5 23-6 35-1 9-5 21-9 28-2 3-2 3 0 6l2 3v-2c0-4 2-6 5-4 2 1 10 2 13 1 4-2 20 16 22 27 2 5 3 7 8 12l7 9c1 5 2 8 7 12 3 3 6 6 6 9l5 8c3 3 7 10 10 17 6 12 7 13 15 18v4c-2 6 1 11 7 11 1 1 9 9 11 14l2 6c0 2 2 4 5 7 4 4 4 5 4 11 0 7-1 10-3 10-3 0-2 1 1 5 5 6 11 17 11 19 0 4 6 7 10 6 1-1 2-1 4 1l14 8 6 3 8 7 5 5 2 5 5 10c5 6 6 9 7 14s3 8 5 10c6 8 7 10 6 10l-3-1 3 9 6 9 2 6c1 3 1 4-1 6s-5 13-5 20l2 7 5 8c2 6 2 12 0 18-1 2 0 3 4 12 5 8 6 11 9 12s3 1 2 3c-1 1-1 1 1 2l6 9c2 5 5 8 9 11 4 4 5 4 10 4s6 0 11 4c2 3 7 6 11 8 5 2 6 4 8 7 2 4 2 5 5 5h3l1 5c2 3 2 4 0 5l4 5c4 4 5 6 6 11 2 7 4 10 8 10 2 1 2 1 0 7l2 4 2 6c0 4 2 8 4 8 2 1 7 8 7 12l4 8 3 6 2 3 4 6c1 3 3 5 6 6s6 3 7 5l6 6c5 3 8 9 10 19 1 5 1 6 4 5 3 0 7 4 7 8 0 2 1 3 3 5 4 3 6 8 6 12-1 2 0 3 2 5l2 4c0 3 0 3 6 0 5-3 8-7 8-10s1-3 3-3c3 0 3 0 0-8v-17l1-9 5-3c7-5 12-5 19 0 6 4 11 6 17 4l6-3 8-1c7 0 14 3 87 33l11 4v27l1 26a6080 6080 0 00119-133l77-18 77-18 74-26 74-26 15-52 15-52a1455 1455 0 00-23-34 6091 6091 0 01-123-15c-2 0-8-7-27-30-21-27-24-31-24-35 0-3-1-4-4-5-4-2-5-2-6-1h-3c-2-1 0-6 4-10 3-4 4-5 3-6l-5 2c-2 2-2 2-4 0-1-2-2-2-7-1h-6l-4-4-7-5c-2 0-3 0-4-3l-1-6-3-5c-3-3-4-5-5-14 0-6-1-7-4-8-4-2-14-13-14-14l3 1h3l-3-4c-2-1-3-4-3-5l-3-6c-3-3-4-5-4-7 0-5 1-5 4-3l3 2 1-2 2-8c0-4 0-5-4-8-5-5-7-8-6-12 1-3 1-3 4-1 4 2 3 0-1-4-3-4-5-5-8-5l-4-2-6-6-6-8c-1-1-2-2-3-1-4 1-5 1-7-4l-6-8-3-3h3c4 0 4-1 2-4-1-2-2-2-6-2-5 0-6 0-7-2-1-1-2-2-5-2-2 0-3 0-4-3v-6l1 2c0 2 0 2 1 0 1-4 0-6-6-11s-10-13-10-21c-2-11-1-11-22-11h-19l-2-3c-2-2-3-5-3-7l-3-8-4-7-22-3c-17-2-22-3-24-2l-6 1-81-8-64-53-63-53-16-7c-15-6-19-9-40-23l-25-17a673 673 0 00-59-11c0-1-3 1-5 4z"/>
  <path d="M352 880l2 2v7l3 3c2 0 2-1 2-4 0-5-2-8-5-9l-2 1z"/>
  <path d="M349 888c-1 1 1 5 5 8 3 3 3 3 6 2s5 0 5 1l2 2c4 2 4-4 0-8s-5-4-5-1-5 3-8-1c-2-4-4-5-5-3z"/>
</svg>
