<svg xmlns="http://www.w3.org/2000/svg" viewBox="0 0 1024 1024">
  <path d="M130 116c-3 2-3 3-2 8 1 8 4 14 8 14 2 0 5 3 5 5 0 1 1 3 3 3l4 4 5 2c3 0 13 10 17 16 1 2 3 6 5 7l3 5 4 5c2 1 5 4 6 7 4 7 13 15 19 16 3 0 3 2 2 6v2l2-2c1-2 7-2 9 0l3 7c0 5 2 6 3 2l2-2a544 544 0 0022 5c2-3 3-2 3 1 0 4 1 5 18 7 4 0 5 0 8-3l5-2-1 2-1 2 2 2 5 2 8 1h5l-3-4-2-4-5 1-5-1v-1c4 0 3-5-1-9-2-2-6-3-10-1-3 2-5 2-5-1l-2 1-2 2-4-3-8-5c-3-2-4-3-5-6l-3-3c-3 0-10-4-15-9l-6-6v-7c0-5-1-7-4-14-2-5-4-7-6-8-4-2-7-3-9-7l-6-3c-4 0-14-6-17-10l-7-3c-3 0-5-2-5-2l-4-1c-2 0-3-1-7-7-3-5-5-6-8-7l-4-1-5-3c-5-4-10-4-14 0z"/>
  <path d="M71 142c-2 1-3 6-1 6l4-6h-3z"/>
  <path d="M78 145c-2 4-3 9-1 12l1 2-1 5-2 6 1 3 1-1c0-3 2-3 4-1 1 2 1 2 2-2l3-5c2 0 1-3-1-5l-2-4-2-1c-4 0-4-1-2-5l2-4h-3z"/>
  <path d="M29 172l-1 3-2 4c-4 4-4 7 0 11 3 2 4 3 12 3l9 1 3-3c2-4 2-4 1-8s-1-4-5-5c-3 0-5-1-7-4s-6-5-8-5c-1 0-2 1-2 3z"/>
  <path d="M1 224c-2 5-1 6 6 6 5 0 6 0 7-2 1-3-3-6-8-6-3 0-4 0-5 2z"/>
  <path d="M390 233c-4 3-4 5 0 6h4l2-3c3-2 2-5-1-5l-5 2z"/>
  <path d="M397 241c-4 1-2 4 7 8l8 5 1 2c0 2-1 2-6 2h-6l4 3 5 3c0 2 3 5 5 5l2-2c0-2 7 0 10 3 3 2 7 3 7 0l-4-5c-3-3-5-4-8-4s-3 0-3-3c1-3 0-4-1-7-2-3-2-4-8-5-2 0-6-1-7-3l-4-3-2 1z"/>
  <path d="M424 254c0 3 4 7 11 12s9 7 9 13c0 2-1 3-2 3-1 1-1 2 3 4l5 4c4 0 7 3 7 7 0 3 0 3 4 3 3 0 4 0 5 2 0 1 1 2 3 2s3 1 5 4l3 4 4 2c0 1 2 2 3 1 2 0 2 0 2 3 0 2 1 3 3 4 4 0 7 2 10 5l5 3 6 4 9 3c3 0 3 0 3 3l-1 3h5l8 2 5 1 3 2c1 2 3 3 6 4 4 2 5 2 4 4-1 1-1 1 1 3 1 1 2 1 3-1h4c2 1 3 3 3 5s1 2 3 3l4 1 5 1 9 4c6 4 11 7 17 8 7 2 16 8 16 11 0 2 2 3 5 5l11 9c7 7 10 8 12 6 1-2 1-2-1-5l-3-6c0-3 0-4-2-4-3-1-3-1-2-3s0-3-4-3-8-2-8-4l4-1c3 0 4 0 7-4l3-4-4-2-4-2-5-7c-3-5-5-6-7-6l-5-3-4-2-7-5c-4-4-6-6-6-8 0-3-1-4-6-7l-8-3-6-4c-5-4-11-5-18-5l-7-2c-4-3-11-6-13-6s-2-1-1-3c0-3 0-3-3-3l-4 1c0 2-3 1-7-1-3-1-4-3-4-4 0-3-3-5-6-5-4 0-9-3-9-4 0-3-9-10-12-11-2 0-6-2-9-6-13-12-17-15-20-15s-5-1-8-4c-5-4-9-4-10-1v3l-3-3-6-2-7-3c-6-3-6-3-6 0z"/>
  <path d="M142 262c-4 4-4 10 0 18 2 5 3 6 7 7s5 2 5 6v6l-1 3c0 3 0 3 4 3l4-1v4c0 4 3 8 4 5l3-5 4-8c0-3 1-4 3-5 3-1 6-7 6-12 0-4-1-5-7-5s-7-1-11-8c-2-5-5-7-8-9-6-4-10-4-13 1z"/>
  <path d="M144 294l-1 4c1 2 4 3 6 0 1-1 1-2-1-4-1-4-1-4-4-1z"/>
  <path d="M221 301l-6 3-4 2-3 5c-3 5-2 15 0 18l4 6c2 3 5 4 17 6l9 1c2 1 3 1 5-4s3-6 1-9l-1-8-2-6-2-3-4-6c-4-6-5-7-14-5z"/>
  <path d="M144 313c-1 3-1 4 1 5 2 2 3 15 2 17-1 1-1 3 2 6l5 7c0 4 2 4 3-1 3-5 2-9 0-15l-3-6-2-7c-2-8-6-10-8-6z"/>
  <path d="M281 318h-5l-3 4c-1 2-2 5-4 6l-4 8c-4 12-8 18-10 16l-3-1c-3 0-5 3-5 6s6 14 9 15c2 1 6-1 8-4 2-4 3-4 11-5l10-1c1-1 2 0 3 1l4 1c3-1 5 1 7 7 1 2 2 4 5 6l5 5c0 1-3 3-4 1s-11-4-11-2c0 1 6 8 8 8s3 2 3 3c0 2 1 4 3 5l4 3c4 3 6 3 10-1 3-4 4-4 6-3 1 1 1 2-1 3-2 2-2 2-1 4 4 3 6 4 12 5 4 0 5 0 7-3l3-6c1-3 1-4-1-5l-2-5c0-2-4-8-7-8-1-1-2-2-2-5s-1-4-3-6l-3-4c0-6-6-10-14-9-6 1-9-1-9-4l-1-3c-1-2-2-5-2-11 0-7 0-8-3-10l-4-6c-2-5-8-7-16-5z"/>
  <path d="M228 348l5 5 1 3c2 5 5 8 8 8 2 0 3 0 3-2l-1-3-1-4c0-6-3-8-9-8l-6 1z"/>
  <path d="M218 353l3 4 3 4c0 3 10 12 13 12 2 0 3-1 1-3-3-1-6-6-6-9 0-5-6-10-10-10-3 0-4 0-4 2z"/>
  <path d="M748 374c-4 5-2 10 9 19 5 5 8 8 10 12 4 7 4 7 1 7l-4 3c-4 3-4 8-1 10 2 1 2 2 2 5-1 6 1 13 7 21l6 7v11c0 10 0 10 4 14l3 6 2 2 4 6c2 5 3 6 6 7l7 5 5 6 7 6 7 5 4 1 4 3 6 4 4 3 3 2 3 5 2 4c0 3 3 7 8 13 4 3 7 7 8 10s2 4 4 4l1-7-2-11a223 223 0 00-5-12l-3-6-5-9-2-5c2 0 1-7-1-10s-2-5 0-8l2-2-4-2-5-1 1-5c0-4 0-4-2-4-2-1-3-1-3-7-1-4-2-6-4-7-3-2-4-4-1-4l1-2c-1-3-5-6-10-9l-8-6-7-5-6-1-4-1v-6l2-8 2-5c-1-2 0-2 2-3l4-1 1-4c1-3 0-4-3-8l-8-8c-3-1-4-2-4-4s-1-4-4-6c-5-3-8-8-11-15-1-3-2-4-4-4l-6-3c-1-2-3-3-6-3-2 0-3 0-2 2l3 4c3 3 1 4-3 2l-6-3c-2 0-5-1-6-3l-3-3-2 2z"/>
  <path d="M262 388l-3 4-7 9-8 8 2 3c0 2 3 4 5 5 3 1 5 4 7 7 2 4 4 5 6 6l6 2c1 2 2 2 5 1 4-1 3-3-3-5l-4-2v-15h2c3 0 3-1 4-3l2-7c2-6 1-8-3-13s-7-5-11 0z"/>
  <path d="M595 386c-2 0-3 1-3 2v3c0 4 7 11 10 11l2 2c0 3 10 5 13 3 3-3 2-5-3-7l-4-2v-5l-1-6c-3-1-10-2-14-1z"/>
  <path d="M370 402c-1 2-2 2-7 2-5-1-8 0-6 1l1 5c0 3 0 3-1 1s-2-3-3-1l-4 1c-3 0-4 1-5 9 0 6 0 7 2 10 3 4 13 11 16 11 6 0 16-13 17-20v-4h-4c-6-1-6-2-1-4 4-1 8-6 8-9 0-4-11-6-13-2z"/>
  <path d="M288 430c-4 0-5 0-4 2s3 4 6 4c4 0 13 3 19 6l5 2c2 0 1-5-2-7l-2-4c0-3-10-4-22-3z"/>
  <path d="M395 431l-5 5c-5 4-5 7-1 12 2 2 3 3 5 2l4-2 3-1c2 0 2-4 1-6l-2-5-2-4c-1-2-2-2-3-1z"/>
  <path d="M409 438v3c2 1 3 0 3-2s-1-3-3-1z"/>
  <path d="M528 481l-3 4-1 1c-2 0-1 4 1 5l4 1h4c3-2 6-1 7 1l2 3c3 0 6-4 7-8 0-3 0-4-2-6l-7-3-4-1c-1-2-5-1-8 2z"/>
  <path d="M679 483c-5 3-6 3-5 6 1 2 2 2 6 2s5 1 8 3c3 3 6 4 11 2s7-5 6-8-7-7-9-7l-5-1c-5-2-6-1-12 3z"/>
  <path d="M709 488l-1 2-2 5-3 4c0 2 3 5 8 6h8c2-1 2-2 2-5 0-4-1-5-3-5l-4-4-3-4-2 1z"/>
  <path d="M694 502c-3 0-3 5 0 5l5-1v-3l-2-2-3 1z"/>
  <path d="M612 519c-4 2-5 4-5 6l-2 5c-2 2-2 3-1 4l1 7 2 8 2 3-2 3-2 4 6 6 5 4-1 6v5l5 1c6 1 6 1 6 4-1 2 0 3 6 8 8 7 9 8 13 6 5-3 7-2 10 0l7 3 9 2h20l17 1 13 1 6 5c5 4 7 5 13 5 6 1 8 2 12 5 5 3 9 3 15 0l10-4c10-1 12-3 14-8l2-4-3-2-3-3 1-3 2-4-7-4c-6-4-7-4-12-4h-7l-1-6c-2-5-3-8-8-13-4-4-7-6-9-6-4 0-9-3-10-6 0-3-3-6-7-7-2 0-4-1-5-3-2-2-3-2-7-2l-7-1c-5-2-21-2-26 0s-5 2-9 0l-3-2-3 2c-3 2-5 2-9 2-4-1-5-2-9-6-7-7-15-13-18-14-2 0-4-2-6-4-1-3-2-3-6-3l-9 3z"/>
  <path d="M867 532c-1 1 3 14 5 16s2 2 0 4v6c2 5 2 12 0 16v7c1 3 9 9 9 6 0-1 0-2 2-3s2-1 5 4c4 7 9 11 10 8l1-6c-3-20-5-25-12-32-4-3-6-6-6-8-1-5-6-12-9-14-2 0-3-2-3-3 0-2-1-3-3-1z"/>
  <path d="M954 583c-2 1-2 1-2 7 0 8 5 18 8 14 1 0 1-2-1-6l-2-6 2-4c3-4 3-5 1-5h-6z"/>
  <path d="M866 661l-3 2-3 1v20h10c10 0 13 1 18 5 3 2 3 3 2 6-1 4-1 4 1 6l3 2c2 0 2 0 2 2l-3 10 6 2 6 3c0 1 7 7 9 7 3 0 7 3 9 7 3 3 5 5 17 11 14 7 15 7 24 8a66 66 0 0120 3c5 2 6 2 8 0 1-2 1-1 6 1s7 3 16 3l10-1c0-3-4-4-13-4-6 0-7 0-7-2l2-2c2 0 4-3 4-7 0-7-1-9-6-9-6-1-7-2-6-6 2-3 0-6-3-6-2 0-2-1-2-5 0-3-1-5-4-9l-5-7c0-3 0-3-3-2l-7 2-4 2-7-3-16-3c-8 0-9 0-12-4-3-3-4-3-8-3s-5 0-6-3l-3-2-11-9c-7-5-11-8-13-8l-8-4-11-5c-7-1-7-1-9 1z"/>
  <path d="M926 662c-2 0-3 6-1 8l1 2 2 3c2 1 6-3 6-5 0-3-6-9-8-8z"/>
  <path d="M662 882l-2 3 4 5 4 6h8l15 2c6 0 6 0 10-3 6-4 6-5 10-3 2 1 3 1 3 3-1 2 0 2 3 2 4 0 5 1 10 5 4 4 5 5 9 5l9 2c6 3 8 3 8-1 0-3 0-3 4-4 3 0 6-2 6-5l-5-3-11-2h-6l5 1 7 3c2 2-4 5-12 5-6 0-6 0-9-5-4-4-4-5-2-5l4-1c3 0 3 0 1-1l-13-2c-12-1-34-6-41-9l-10-2c-7 0-7 0-9 3z"/>
</svg>
