<svg xmlns="http://www.w3.org/2000/svg" viewBox="0 0 1024 1024">
  <path d="M620 98c-2 2 1 6 6 8s5 2 9 1c3-1 5-2 5-4s-1-3-7-4c-8-2-13-3-13-1z"/>
  <path d="M711 191h-5c-3-1-11 0-12 1-2 2-1 5 2 9l5 7c1 2 3 3 8 5l6 2 4-2c3-3 4-4 1-7-3-4-1-5 5-6 5 0 14-6 13-7h-9c-7 0-9 0-12-2l-3-2-3 2z"/>
  <path d="M882 201c-2 4 5 14 9 14 2 0 2-1 2-4l-1-5-5-4c-4-4-5-4-6-1z"/>
  <path d="M902 203c-2 2-2 2 2 9 5 8 8 11 10 9v-4a41 41 0 01-3-11l-4-3c-4-2-3-2-6 0z"/>
  <path d="M675 210c-3 6-4 6-13 4-7-3-11-2-15 1-3 2-3 3-2 7 0 3 2 10 5 15 5 10 5 11 3 14s-1 6 3 11l4 4h14c14 1 15 1 21 4l6 3v5c0 7 3 11 8 16 6 4 8 4 11 1 3-4 5-3 9 2l8 6 9 7c2 1 4 2 7 1 6 0 7-1 7-5s1-4 4-2l5 2c3 1 3 0 5-5 3-9 2-13-4-13-3 0-8-5-8-9-1-5 1-10 6-14l3-2 3 3c6 7 10 10 16 10l13-6-5-4c-10-6-11-8-11-12 0-5-3-7-14-8h-9c-3 5-5 6-10 7h-5l-6-5-8-11c-3-6-7-7-11-2-2 2-4 2-10 3-9 0-11-1-13-6-1-7-10-19-16-23l-6-4-4 5z"/>
  <path d="M902 248c-3 2-2 7 1 11l4 8c3 8 6 11 10 13 5 3 8 2 12-2 4-3 4-4 1-7-3-2-5-6-7-13-1-4-2-4-5-5l-6-4c-3-4-8-4-10-1z"/>
  <path d="M627 263c-3 1-6 4-6 6s3 4 5 4c3-1 6-5 5-8s-1-3-4-2z"/>
  <path d="M977 274l-1 8c0 9 1 12 3 12s3-2 6-7l3-6-2-5c-3-6-6-7-9-2z"/>
  <path d="M856 275l-2 2-1 2c-2 1-2 2-1 5 0 3 0 5-2 8l-4 14v14c2 7 8 15 12 17l6 5 5 3c1 0 2-2 2-6l2-2c2 0 2 0 2-4-1-4-1-5 2-7l5-3c2 0 3-1 3-2l3-4c2-2 2-7-2-13l-8-13c-6-10-8-13-15-15l-5-2-2 1z"/>
  <path d="M798 282c0 2 1 3 2 3 2 1 5-2 5-4s-1-2-3-2c-4 0-4 0-4 3z"/>
  <path d="M598 290c-1 3 2 7 6 9l4 2c1-1-1-6-4-9-2-3-5-4-6-2z"/>
  <path d="M21 455c-2 2-6 3-9 3-6 1-7 2-10 7-2 4-2 6-2 13 1 7 2 9 5 15 3 5 5 7 7 8 4 1 12 11 14 16l2 4 10 1c9 1 10 1 14-1 3-2 4-3 5-6 0-3 3-9 9-19 4-8 3-12-6-17-2-2-3-4-4-10l-2-7-6-3-10-4c-7-3-12-3-17 0z"/>
  <path d="M307 588c-5 4-6 8-4 14 2 5 2 10 0 14s-3 11-1 14v12c0 10 0 10-3 13l-9 3c-7 0-21 5-24 7l-6 1-14 5-14 6c-3 1-4 2-5 5-2 3-2 3 0 6 0 2 2 4 3 5 1 2 1 2-1 3h-5c-7-5-11 1-6 8 2 3 4 3 11 4 8 1 8 1 10-1 4-3 6-3 11 2l3 4c-2 0-2 1-2 3 0 3 1 4 3 5l4 4 5 3c3 1 3 1 5-1 2-3 6-2 7 1 0 2 7 11 10 11l10 5c7 3 10 4 21 5s14 2 14 3l4 5c2 3 2 3 1 6s-1 3 4 8c11 12 13 15 13 17 0 5 6 6 11 2 3-2 3-2 6-1 4 2 4 4 0 7l-4 6c0 4 0 4 6 7 10 7 16 15 12 18l-16 6-5-2c-4-1-4-1-7 1l-6 7c-3 5-3 5-3 10 1 4 2 8 5 11 6 9 6 9 9 7 2-1 4-2 4-4 2-3 5-6 6-5l6 2 4 2-2 4c-3 6-3 10 1 13l6 3c2 0 4 1 5 3s1 2-2 5c-4 4-3 7 1 7l7 1c4 1 4 1 3 4-2 10-1 11 2 12l6 1c2 0 3 1 3 3 0 3 1 3 8 4l6 3c2 2 5 2 7-2 3-3 5-3 10 0 6 3 12 4 15 2s3-10 0-14l-2-6c0-2-1-3-5-5l-8-3c-5-1-6-4-5-13l-1-10-2-4-4-14c-3-11-3-12-2-17 1-8 3-9 10-13l6-3-2-3-3-5-2-14-2-16-1-7c0-3 7-17 12-22 3-4 4-9 4-13-1-1-2-2-7-2-8-1-14-4-21-11l-5-5-3 2-2 5c1 2-1 3-3 0l-6-2-5-3-2-1c-3 0-8-7-8-10 0-5-1-6-6-8-2 0-5-3-7-5l-7-5c-2 0-4-1-5-3-2-2-2-2-1-4 2-2 2-2 1-5-2-2-2-2-5-1l-2 2v-4c0-4 0-5-3-7-2-2-3-3-3-5 0-3-2-5-5-6-2-1-2-2-1-6l1-16 1-11 3-3c0-2 2-3 3-3 2-1 3-1 3-6 0-4 0-6-5-15-4-8-5-10-10-12l-8-5h-5c-3 1-4 1-7-1-4-3-7-3-12 1z"/>
  <path d="M766 606c-2 2-2 4-1 6 0 2 1 2 3 0 3-3 4-6 1-7-1-1-2-1-3 1z"/>
  <path d="M1001 608l-7 3c-1 3 1 8 6 13l5 5h6l9-3c4-2 4-3 4-6 0-2-1-3-4-6-4-4-11-8-12-8l-7 2z"/>
  <path d="M953 636c-2 1 0 5 2 5 3 0 7-3 7-5 0-1-6-2-9 0z"/>
  <path d="M400 637c-2 1-2 3-2 12v11h3c3 0 14-6 15-9 3-6 3-8 0-12-2-3-2-3-8-3l-8 1z"/>
  <path d="M392 680c-3 2-3 2-1 6l5 4c3 1 6 2 7 4l5 2c2-1 2-6 0-10-1-3-2-4-5-4l-6-3c-3-2-3-2-5 1z"/>
  <path d="M432 715l-1 5c1 3 1 3 4 3 5 0 6-8 0-9l-3 1z"/>
  <path d="M213 724c-1 1 1 5 4 7 4 2 11 3 11 2 1-2-1-6-2-6l-6-3c-4-2-5-3-7-1z"/>
  <path d="M261 736c-3 2-2 4 2 8l4 5 2 2c3 1 6-1 6-5s-4-10-8-10h-6z"/>
  <path d="M311 761c-2 4-1 6 3 6 3-1 4-5 1-7-2-2-3-1-4 1z"/>
</svg>
