<svg xmlns="http://www.w3.org/2000/svg" viewBox="0 0 1024 1024">
  <path d="M742 8l-9 7h-7l-6-1-5 14-5 13-12 6-13 7-1 9-2 10c0 2-11 4-16 3-5 0-15-5-19-8-3-3-4-3-11-3a14917 14917 0 01-397 14 1741 1741 0 001 102l-24 1-24 2 2 87 2 109 1 22-7-1c-5 0-8 0-14 2l-14 2c-5 0-8 0-10 2-5 3-7 7-6 10v10l-1 5c0 3-1 4-4 7-6 5-7 9-6 13l1 4-6 1c-9 1-11 2-12 4l3 6 3 7 2 5c3 2 3 5 0 7l-6 4-9 7c-6 5-6 7-3 13 4 5 5 12 3 17-2 3-3 5-7 6-8 4-11 7-12 14 0 5 0 5 3 9 2 3 2 3 10 3 6 0 7 0 8-2l1-2 10 5-1 5c-1 5-1 5 1 11l6 11c3 3 3 4 3 7l-2 10v6l6 6c6 6 7 7 10 7l5 1c2 2 1 8-1 14l-2 5 3 8c3 7 4 7 8 9 5 2 6 4 19 22l13 20v25l-4 5c-6 8-6 10-5 12l3 3c2 0 2 1 2 4s0 4 3 6c3 1 7 2 15 2 15 1 17 2 17 5l-2 7c-4 6-4 10 1 14 4 4 4 4 22 1 5 0 5 0 9 4 5 6 12 11 15 11 2 0 7 6 7 9l-2 3c-4 4-3 10 2 12l3 3 3 3 5 3c1 2 2 2 6 3 4 0 6 1 9 3l8 5c3 1 5 2 7 6 2 5 3 5 8 7 3 1 6 2 7 4l3 3-3 4c-2 4-2 4 0 8 1 3 3 4 7 6l5 3-4 4c-4 3-4 4-3 5l4-1c2-2 3-2 3 0l3 2 11 5 9 5c7 3 8 4 10 7l3 5c1 1 2 2 1 4l1 9c1 5 1 6 5 7 3 1 3 2 3 6 0 6 2 8 11 9 10 1 15 4 17 10l4 4c2 1 4 3 5 6l2 4h6c5 0 7 0 9 2 3 3 6 3 12 2 4 0 4-1 6-4 1-3 2-4 4-4l4 1c1 2 15 7 21 8h5l4-6 3-6 6 1c10 0 11 2 13 8 1 5 2 7 12 16 10 10 11 11 15 11 3 0 4 1 6 3s3 5 3 7 1 3 4 5l5 3 4-5c1-3 3-4 5-4l3-2c3-3 10-3 17 1 5 3 6 3 9 1l8-4c4-2 6-2 10 4l4 4 2 2c0 3 1 3 4 3s4 0 4-2c0-4 10-10 15-10 8 0 21-3 24-6l4-2 3 2c3 3 3 3 14 3h11l23-24 24-25 18-7a161 161 0 0125-10c4-3 6-2 4 2-1 3 0 4 4 4 2 0 2 0 2 3v7c2 3 2 3 5 3l4-1c0-2 3-2 5-1 4 4 6 1 3-3s-4-20-1-22l1-7c-1-6-3-7-10-6-5 0-6 0-7-2-1-3-3-3-6 0-2 3-5 1-5-3 0-3-1-4-4-7l-7-9c-3-5-3-7-3-11 1-5 0-6-2-8-3-4-5-9-6-17 0-5-1-7-2-7l-4-2c-1-2-4-3-7-4l-4-4c0-4-1-5-6-7s-8-5-8-9l-5-4c-3-1-4-2-4-4l-4-7-6-8c-2-3-9-6-13-6l-4-2h-5c-2 0-4 0-7-2l-8-3h-5v-6l1-7 5-2c2-2 3-3 3-6 0-5 2-11 3-11l19-1 12-1c3-1 5-2 5-5l4-5 2-1-1-25-2-24 4-6c4-5 4-6 4-12s0-7 2-7c3-1 4-5 3-9l-2-8c-1-4 0-5 5-14 5-8 6-9 9-9 2 0 3 1 6 4l4 4c3 0 5-3 5-6l2-8c3-6 4-7 1-9-2-2-1-7 2-11l3-5 1-5c1-3 0-4-1-6-2-1-2-1 0-4l7-8 6-9c1-7 3-11 9-20l8-10 8-3c7-1 8-1 10 1 3 2 4 0 4-9 0-7 1-11 6-29l7-25 2-7c2-1 3-4 3-6l-5-25c-3-19-4-22-3-23 2-2 4-7 4-12 0-4 5-21 8-24l2-11 2-10 2-6c0-5 0-6-3-7-2-1-2-2-2-7 1-4 1-6 4-8l3-5-2-4-2-7c0-3 0-3 4-3l9 1 5 1 2-5 1-7c0-3 6-9 10-9l2-2 1-4h3c2 3 5 3 5 0l2-4 2-2v2c1 3 3 3 4 0s2-3 4-2c2 0 3 0 4-4 3-5 7-10 10-10 4-2 5-3 5-6 0-2-3-3-3-1-1 2-7-2-7-4 0-3-2-3-4-2-2 2-4 0-2-1l1-2c0-2-3-1-4 0-1 3-6 0-7-3l-2-6-4-4c-2-3-4-4-7-5-3 0-5-1-6-3-2-3-2-3-8-2-5 0-5 0-7-5 0-3 0-3-2-2l-1 1v-13c1-1 1-2-2-4-2-2-3-3-3-5l-2-6c-2-5-4-11-3-20 0-6 0-7-2-7l-1-1c1-1 0-2-1-4-1-3-2-4-1-5v-3l-2-16 1-4c1-2 1-5-1-8l-1-5c0-3-4-14-6-16l-1-3c1-1 0-3-1-5-1-4-1-4 4-1 4 3 5 5 2 4l1 2c1 3 5 4 5 2 0-4-2-7-9-12-8-5-11-8-12-13l-4-7c-2-3-3-5-3-11-1-10-2-11-5-12-5-2-10-5-10-7l-5-2c-4 0-7-3-7-6l-4-4-5-4c-2-2-6-4-11-4l-6-2c0-1-3-3-5-3-5-2-6-3-8-7-1-4-3-4-4-1-1 2-1 1-3-4l-3-7-9 8z"/>
</svg>
