<svg xmlns="http://www.w3.org/2000/svg" viewBox="0 0 1024 1024">
  <path d="M622 1l-2 4-7 2h-5l3 7 3 8-3 7-6 11-2 3 4 3 3 2-3 4-4 4-10-5-10-5h-12l-15 1c-3 1-3 1-3 6l2 12 1 6-4 8-4 8-8-4-9-4-3 2-7 7c-5 4-6 8-12 27l-3 3c-3 2-4 3-5 7l-2 5 3 5c3 4 3 4 2 14v9l-6 5c-5 5-6 7-9 13-1 4-5 10-9 15l-6 8v6c1 8 0 10-7 13-5 3-8 3-15 3h-8l1 4c3 17 3 18 0 33l-3 21-2 8-3 6-13 23-13 19 7 6c7 5 6 4 7 20 1 8-1 15-6 18-3 1-3 1-13-4s-13-6-19-2c-5 2-13 10-18 17l-8 12c-4 4-4 4-2 12 0 2-1 4-5 9l-5 7 3 9 3 9-3 6c-3 4-3 5-2 10s1 6-2 11l-2 5 2 11 3 10-2 20-3 24c0 5 5 12 9 12 2 1 3 2 7 9l5 9-1 6-3 6-4 5c-2 4-2 4-9 4l-8 2c-1 2-1 2 1 5l2 5c0 3 5 22 7 25s0 11-3 15-3 5-3 10l1 6-8 8c-8 8-9 8-12 7-6 0-8 2-7 8 2 5 0 10-3 10s-6 4-6 8l2 8c1 7 2 14 0 17l-1 5-3 8-3 6c0 2-2 3-3 3-5 1-5 1-5-3s-4-14-6-14c-3 0-7 4-7 8l1 19 1 18c2 3 1 4-1 4-3 0-2 3 1 5 2 1 4 2 4 4l1 2c1 0 5 4 5 6l-2 1c-2-1-3 0-4 1-2 2-2 2 0 4s5 3 10 3l2 1-2 1-6 3c-4 2-4 2-2 5 1 2 3 3 4 1 0-1 1-2 3-2l3-2-1 4-2 6c-2 2-2 2-1 4l3 2c1 0 1 1-1 2-4 2-3 4 1 5l2 1c-1 1-1 3 1 5l1 3c-3 4-2 19 1 19l3-5c3-5 4-4 2 2v12c-1 1 0 2 1 4l2 5c-1 1 0 3 2 5l3 6c0 2 0 3 3 4 4 2 7 7 7 14l2 4 1 2c1 2 2 2 4 2 3-1 3 0 4 2 1 3-2 11-4 12l-3-1h-4c-3 2-4 3-1 5l2 4 2 2 1 3c0 3-4 3-7-1-3-3-7-4-7-2 0 3 3 10 5 13l4 9c2 5 2 5 0 7-3 2-2 3 3 6 4 2 4 2 4 5s0 4 2 5c5 2 3 7-4 9-3 0-4 3-1 5 3 3 3 5 0 7-3 1-4 3-1 3l4 1 7 2 7 3 3 2 5-3c3-3 6-3 9-4h7c1-1 3 0 7 1 5 4 10 4 10 1l2-2 3-5c2-4 2-6-1-11-2-4-3-6-2-10 1-5 4-11 7-12l4-3c2-3 3-4 6-1 4 3 8 1 7-2-2-9-2-8 1-8h15c1-2 4-1 4 0 0 3 2 3 5 2 1-1 3-2 4-1l2-1c3-2 12 1 12 4s3 3 5 0c3-2 7-11 9-17a144 144 0 018-21c3-1 5-5 6-18l3-11c2-1 1-7 0-9-2-2-2-5-1-5l1-4 1-2 1-1 2-3 3-5 2-7c2-6 2-6-1-6s-3-4 1-7l2-2-3-5c-5-6-5-7 0-7 3 1 4 1 4-1v-9l1-3 1-3 1-2v-3c1-1 1-2-1-4l-1-3c1-1 1-1-1-3l-1-3c2-1 0-4-3-5l-4-3 4 1h8l4-3c0-2-1-3-3-3-2-1-3-1-2-3 0-1 0-2-3-3h1c10 1 12 0 10-4 0-2 0-2 2-2 2 1 3 1 4-1l5-2c2 0 3 0 4-2 0-2 1-3 2-3l1-3c0-1 0-2 1-1l1-1 1-2 1-2c0-3 1-4 3-2l1-4 2-6c1-2 2-1 1 3 0 4 0 6 3 11l2 6 1-4c1-5 6-12 10-14l4-3 3-3c4-2 5-5 2-7-2-2-1-2 2-1 2 1 3 0 5-2 4-4 4-4 3-7-2-4-4-4-11-4-5 0-7-2-3-3l6-4 6-4 2-1 2-3c2-1 3-2 2-4 0-2 0-2 3-1s4 1 1-2c-2-2-1-3 4-3 2 1 2 0 3-3v-5c1-2-2-6-5-6l-1-2-4-11c-1-1-2-2-6-1-4 0-4 0-4-2l2-5c3-2 4-6 2-6l-3-2-2-4-1-4c0-3-3-6-4-4v5l2 4c0 2-4 1-6-1l-2-2c-2 0-5-4-5-6l-2-1-1-4c0-4 0-4-3-4l-6 3-5 2-1-5v-4h-6c-4 0-5 0-5-2l-2-2 1-1c2-2 2-7 0-7l-1-2-1-5c-1-4-1-4 1-6v-2c-2 0-2 0-3-6 0-4 0-6 2-7v-4l1-3c1 0 1-3-1-4-2 0-2-3-1-6v-5c-2-5-2-7-1-10l2-5c-1-2-1-2 4-1l4 4c2 5 3 4 4-4 1-3 1-3-2-3-3 1-3 0-2-2s0-3-1-3c-1-1-2-2-1-5l1-7 1-4 1-5c2-4 3-6 2-8 0-2 0-2 2-1h3c1-1 0-1-2-2l-5-4-2-2v-4l1-5v-4h2l2 3 5 3v-2c-1-3 1-5 2-4 2 1 4 0 4-3l2-1c3-1 4-4 2-5s-2-7 0-10 3-4 3-1c0 2 1 1 3-2 2-1 3-3 2-4 0-2 2-4 3-2 0 2 2 2 4 1s2-2 1-4c-2-3-2-3 0-3l2-2-4-2c-5 0-6 0-4-1l4-1c5 0 8-3 7-6l4-7 5-4 2 2c2 2 2 2 4 1l3-4 2-4 2-5c0-3 1-3 4-4s3-2 1-6l1-2c1 0 6 6 6 8h2c1 0 2-1 2-3 0-4 3-8 6-8 2 0 2-1 2-3 0-3 0-3 2-3 3 1 5 0 5-2l1-3c1-2 1-2 3 1l1 4 1-4 3-4 1-1 2-2c2 0 3-2 4-5l2-6c2-2 6-12 6-15l6-7 9-12c3-5 4-9 2-7h-3l-1-2v-2c0-2 0-3-2-4h-2l-2-2c-2-3-2-3 0-3v-3l-2-3-2-2c-2-2-3-3-1-5l2-3 1-2c2 1 2 0 1-2 0-3 0-3 2-3l2-1c-1-1 3-6 5-6v-6l-3-7-2-8c0-2 3-5 4-4l1-1h4c6 1 10-4 6-7-3-2-2-3 1-3l4-1 4-1h4l-1-3-2-3-2 1v-5h1l1 1 1-5c0-6 1-7 3-6l1 3c0 1 3 2 5 1l1-5v-4c1-1 4 2 4 4l1 3 1 2c0 3 3 6 3 4v-2l1-1 2 2c0 3 0 3 2 0l2-6c0-3 0-3 2-3l4 2c3 0 16-2 19-4 2-1 3-2 2-3l-2-6-3-7-1-4c0-1-1-3-4-4-4-2-6-7-8-14-1-5 0-6 2-11 3-6 3-7 3-14v-8c1 0 1-3-1-7l-4-7-3-5c-2-1-5-9-5-11s1-3 3-4 2-1 2-7c-1-7-2-8-7-8-4-1-4-1-4-4l2-6v-5c-4-8-4-11 0-18v-6l-4-5-3-4c0-2-1-2-4-2l-3-4c-1-5-3-9-6-10l-3-2c-1-2-9-5-12-5l-2-1-3-1c-3 0-8-3-9-6l-4-3-4-3-4-4-3-3-4-4-5-4-5-2c-3 0-3 0-3-2 2-4 2-5 1-7l-2-5c0-2-2-4-3-4l-1 1z"/>
  <path d="M598 833c-2 2-4 3-7 3s-4 0-4 2l-2 2-1-2c0-3-3-3-5 0l-5 3c-2 2-4 4-6 9l-7 10c-5 4-5 4-3 7 2 6 2 13 1 14-2 1-3 4-1 5 2 0 3 4 3 10l2 3c2 0 3 2 1 2l-3 3-2 4c-2 2 0 3 4 3s6-2 5-8c0-2 0-3 2-5l1-3c0-1 7-7 10-7s4-2 1-4c-2-1-2-2-1-3l7-5 4-3c0-1-1-2-3-2-4-3-6-5-4-6l1-5c-1-7 0-9 2-9s4-2 4-4l4-4 3-5 2-3c3-2 3-5 0-5l-3 3z"/>
  <path d="M511 880l-4 13c-2 8-8 20-11 22l-8 16c-3 7-4 15-2 17l1 8c-1 7 0 7 2 6 2-2 5-8 5-13 0-3 1-8 5-18l2-7 2-5c3-4 5-8 5-13l4-10 3-9 2-5c2-3 2-3 0-4-3-3-3-2-6 2z"/>
</svg>
