<svg xmlns="http://www.w3.org/2000/svg" viewBox="0 0 1024 1024">
  <path d="M531 217c-18 1-53 6-66 9-9 1-11 3-21 11-9 7-10 7-19 4-2 0-4 1-7 4l-7 5-16 16-13 14h-13l-18 2c-4 0-4 0-9-6s-8-8-9-4c-1 3-5 5-9 5l-5 1c-1 1 0 1 5 1h6l5 9 6 11c0 4 1 4 6 0 4-3 7-4 7-2 0 1-1 2-4 2-2 0-3 1-3 2s-2 3-5 4c-5 3-15 12-15 14 0 1-1 2-5 3l-6 2c-1 2-1 2 4 2 4 0 4 0 6 3l2 4c0 2-4 1-7-1l-4-2c-2 0-8 4-11 7-4 4-10 8-12 8-3 0-5 4-5 7 0 5 1 8 5 10 3 1 6 6 6 8l-4-3c-4-3-8-4-10-2l-1 11c-1 11-1 11-10 16-5 3-6 4-7 8l-1 4v-4c0-4 3-8 8-12l3-6c0-3-1-4-3-4l-1-1c3 0 4-3 5-10l2-8c2-2 3-6 1-8-2-3-9-4-11-2s-5 1-9-5l-6-6-7 6c-6 7-8 8-7 3v-5c-2-2-2-2 1-1s3 1 7-2c3-3 3-3 7-3l7 5c4 4 5 4 8 4l9-1c4 0 5-1 10-7l6-8c0-2 2-3 6-4s7-3 11-6c8-8 10-12 10-16 0-3 0-4-3-5l-4-2c-2-2-3-2-7 0l-2-1c1-2 8-2 10-1 4 3 5 2 5-2l-1-4-1-3c0-1-1-2-2-1-4 1-5-3-2-7 5-5 4-8-10-24-8-9-9-10-14-11-7-1-11-1-22 1-14 2-19 5-33 13-16 9-29 19-32 24l-2 4h-11l-15 3-12 4c-9 1-15 5-18 10l-6 21c-4 11-6 16-8 18-2 3-7 5-13 5l-4 1c-2 3-4 14-4 24 0 9 0 12-3 20l-6 11c-5 3-5 5-2 9l3 7 1 2 2-2 6-3c1 0 3-1 4-4 1-2 2-3 3-2l1 3c0 2 0 3 3 3l4 2c1 3 2 2 6-1 2-2 3-3 4-2l4 6c4 3 4 4 6 3 4-1 5-6 5-14 0-4 1-7 2-7v3c0 5 1 9 4 12 1 2 2 3 1 4 0 2-2 1-2-1s-1-3-3-1-3 5-2 9v1c-1-2-3-3-3 0l-1-1-6-3c-11-3-11-3-15 2-3 3-3 3-1 6l4 2c1 0 2 0 1 1l2 5 2 9c0 9-1 9-3 0-1-10-2-11-5-12s-5-1-5 2l-3 3c-4 2-5 1-2-1l2-4 1-2v-4l-4-2-3-3-3 3-4 4-2 1c-2 0-3 1-3 2l-6 1c-10 0-10-2-3-15l4-12c0-1-2 1-8 12-5 10-8 13-10 14-3 1-5 3-4 7 2 4 2 5 4 3l6 1-2 2c-2 2-3 5-1 8h1l2-1-2 2-2 3 2 3 4 3c2 0 2 0 1 2v7l-1 2c-1 0-2-1-2-4 0-4-1-5-2-6l-2-2c-1-2-2-2-5-2l-5-1-2-1h-2c-1-1 1-8 3-11 2-5-1 0-7 10l-7 12-3 1-4 1-3 13-2 11-8 14c-13 20-19 36-31 78l-6 24 2 2 16 10c18 11 32 16 33 11 1-4-1-8-12-20l-12-12 5-6 4-6-6-6-8-6c-1-1 0-2 2-6l2-5 3 3 14 12 11 10 8-7 7-7 2 3 2 3-7 8-7 8 4 5 4 4 8-8c7-7 8-7 10-6l2 3-10 12-10 10 2 4c3 4 4 5 6 3l2-1c1 0 1 1-1 3-3 3-2 4 2 1 3-2 3-2 4-1 1 2 1 3-1 6-1 2-1 2 8 12l8 9 5-5 5-4 2 2c1 3 1 3-1 7-2 3-2 4-1 5s26-20 25-21l-5-9c-6-7-6-8-6-14v-7h10v6c0 5 0 6 6 13l7 8 6-3 5-2v-12c0-11 1-16 3-13l1 11v11h8c6 1 9 0 12-1l5-1v-7c0-8 1-9 8-11 4-1 7-1 7 2l5 6 4 8c0 2 0 2 7 2h7l2-4 2-6c0-2 1-3 6-6l7-4 6 5c4 2 9 6 11 9l16 11c3-4 4-6 4-9v-3h-6c-7 0-8-1-2-6 4-5 5-8 3-11-1-1-1-1 0 0l4-3c2-3 5-4 5-2l-3 4-2 3 2 6c1 5 1 5 5 5 2 0 3 0 3 2l-2 3c-3 1-3 1-2 4l3 4c2 3 11 5 17 5l5 2c2 4 9 2 10-2 1-3 1-3 4-2s3 1 2 4c-3 6 3 11 15 12 6 0 8 0 11-2l4-5c1-3 2-3 9-3 8 1 8 1 6 3v4l10 15 8 6 11 8c5 2 6 3 8 6 2 6 7 11 15 15l7 5c0 7 13 13 26 12 8-1 8-1 8 5 0 4 3 8 7 8l9 8c8 8 8 8 9 6l-3-13-4-11 8 9c6 7 7 8 10 8l6-3c3-3 5-3 10-3 7 0 8 0 9 5 1 4 1 4 12 8 7 4 9 3 16-4l9-7 3-4h2l10 1c6 0 8 1 8 2l-9 1-9 1c1 2 3 2 14 4 5 1 10 3 10 6 0 1 4 6 6 6v-4c-1-5 2-4 7 5 3 5 4 7 5 6l-1-4c-1-2-1-2 2-4 2 0 3-1 3-2l-2-9c-2-10-2-12 5-13 3 0 4 0 6 4 2 5 10 10 14 10 2 0 5-2 13-10a147 147 0 0018-21l4-6c2-3 3-4 5-4l10-4 7-3 9-5 13-6 9-4 10 1c10 2 10 2 17-1l21-5c11-3 14-4 19-7 12-8 29-13 52-14 12-1 14-1 19-4s7-3 16-4c6 0 15-1 24-4 15-3 15-3 20-8l9-8c3-2 10-6 15-11 11-9 15-11 18-10l9-1c8-1 15-6 23-18 6-7 7-9 11-22l8-26c4-9 5-15 6-23l4-19c3-8 3-10 3-17-1-8-1-9-5-14l-4-5 2-4c3-6 4-11 4-14-1-2-2-3-11-6-10-4-15-5-21-3-4 0-5 0-6-7-1-3-2-4-4-4-5-1-16 1-19 4l-4 2v1c1 3 2 8 1 9l-2 3c-1 1 0 2 1 2 4 0 6 5 2 6h-2c0-2-3-3-6-2l-11 4c-9 4-14 6-25 7l-11 2c-6 3-10 3-13-1-2-3-6-4-18-6l-13-4c-5-2-15-12-19-18-1-2-2-3-5-3l-6-3-11-1c-8 1-9 1-12 4l-4 4-3 6c-3 5-9 7-14 5-8-2-13 0-18 8l-3 5 4 3c4 4 3 6-1 7-3 1-4 0-4-4 0-2-3-4-7-4l-3 2c-1 2-2 2-2 1 0-2 2-4 8-8 3-2 6-5 7-8 3-5 5-7 15-8 9-1 12-3 14-10 0-2 1-4 5-6l6-5 2-5 3-8c1-5 1-6-2-11l-10-13c-8-9-8-12-5-20l3-9c0-3 0-3-4-3l-10-1h-6l-3 5-7 8c-4 2-7 8-7 15v6h-10l-9-1-4 3c-2 3-5 4-7 5l-6 2c-2 2-2 3-2 10 0 9-1 10-8 14-2 0-5 3-7 5l-3 4 1-4 2-4 4-3c7-3 8-6 8-14l1-9c3-4 20-13 27-14 6 0 8-2 6-6-3-4-9-9-14-11-8-3-24-4-31-3h-7l-5-8c-6-8-12-13-17-14-4-1-18 1-22 2l-4 7-6 13c-3 5-6 8-13 12l-11 7c-2 0-3 1-4 3 0 2-3 4-5 6-4 2-4 2-10 2l-8-1h-3l-1 7c0 8-2 11-3 6 0-6-1-7-2-6-2 1-2 1-2-2s1-5 5-9c6-7 6-7-4-8l-7-3-2-2h4c7 1 15 4 18 6 3 4 9 6 10 6l4-5 3-4 8-3c10-5 13-10 14-19s10-26 15-30 8-10 7-14c-1-5-12-19-14-19-4 0-21 15-21 19 0 3-1 5-3 5v-4c1-2 0-4-4-4s-5 2-4 10c1 7 1 7-2 9l-6 4c-2 0-2 0 1-5 3-4 4-5 3-12 0-7 0-8 3-9 2-2 2-2 3-1 1 2 2 2 7-1 8-3 11-5 16-12 3-3 3-5 3-8l-4-6-3-3-4 1-10 2h-5l1 4c0 5-2 7-7 5h-9l-7-1c-3-2-3-2-6-1-4 3-7 3-7 0l1-2 2 1c1 1 2 1 4-1s2-2 9-1l11 1c5-1 5-1 5-5 0-6 2-7 11-7l9-1c1-2 1-3-1-6-5-6-11-11-21-14l-11-4c-1-1-2-1-6 1-2 2-3 2-3 1l2-3c1-3-3-5-12-6h-9c-3 1-3 1-8-3-4-3-13-7-15-7l-18 2z"/>
  <path d="M845 328l-3 4c0 2-1 2-6 2s-6 0-6 2l5 9c4 7 5 7 11 10l11 5 11 6 13 6c7 3 9 4 12 9l3 4c1 2 3 1 3-1s3-6 4-4l-1 2c-1 2 5 13 8 15l4 3c1 3 1 3 8 2 22-4 28-6 28-10l2-1 9-7c1-2 2-2 4 0 3 2 5 2 16 1 17 0 20-2 15-9l-2-9c0-5 0-6-3-9-2-3-5-3-13-5-2-1-4 0-6 1-3 1-4 2-4 0h-4l-4 3c0 2-7 6-9 6-1 0 0-2 3-4l3-5-25-1-28-1c-2 0-6-2-11-8l-10-7-7-3c-14-6-25-8-31-6z"/>
  <path d="M807 364l2 8c1 4 2 5 5 5l5 1-1-6c-1-3-2-5-6-8l-4-3-1 3z"/>
  <path d="M880 383l2 5c0 2 2 4 8 9 13 10 14 10 14 3 0-5-2-8-6-8-3 0-9-3-9-4l-3-4c-3-3-6-4-6-1z"/>
  <path d="M189 620l1 4v5l-1 5c0 3 0 4 4 5 5 2 11 3 11 1l-3-2c-4 0-5-2-1-2s4 0 4-3c0-5-2-8-7-11s-7-4-8-2z"/>
  <path d="M235 620c-3 1-4 2-4 4 0 4 4 9 7 9l2 2c0 2 8 6 12 6 2 0 6-4 6-7l-4-2c-5-1-7-4-7-7 0-2-1-3-3-4-3-2-3-2-9-1z"/>
  <path d="M223 653l-11 6c-1 0 0 2 4 6 4 3 6 6 6 8v9l3 9 4 3 4-5c2-6 2-6 7-6l25-5c2-3 1-5-4-10-6-5-8-6-19-5h-10c-3-1-4-1-4-4l1-4v-3c-2-1-5-1-6 1z"/>
  <path d="M167 663c-4 3-5 5-4 6l-1 6c-3 4-2 9 1 11s5 1 6-3c0-5 2-7 6-6 3 0 3 0 3-4s1-7 5-9l2-2-5-2c-5-2-8-1-13 3z"/>
  <path d="M270 662c-3 4-1 8 3 8s5-2 3-6c-2-3-4-4-6-2z"/>
  <path d="M272 673l-1 3 2 2c2 0 2-1 2-3s-2-4-3-2z"/>
  <path d="M200 677c-1 1-3 3-5 3-4 1-5 3-5 9v6h-7c-6 0-6 1-7 3 0 2 0 2 5 2l5 1c0 3-6 7-10 7l-3 1c0 1 6 3 15 3 8 1 10 0 10-4 0-3 2-4 6-3 3 0 10 5 10 7l2 2c2 1 3 1 5-1l2-5 2-5c1-2 1-2-1-5l-7-3c-5-2-6-4-6-10 0-5-2-8-6-10-3-1-3-1-5 2z"/>
  <path d="M270 685c0 3-1 4-5 4-5 0-8 2-8 5l-2 1-3 1c-1 1-1 1 1 4s3 3 7 3c5 0 5 0 4 2 0 2 0 3 2 4s2 1 2-1l2-5 2-3c0-2 2-3 5-3 2 0 2-1 1-3 0-3-6-11-7-12l-1 3z"/>
  <path d="M246 684c-3 2-4 5-2 8s6 3 7-1l2-4c0-2-5-4-7-3z"/>
  <path d="M292 693l-1 3-1 3c-2 1-1 5 2 7 4 3 5 4 8 2 2-2 2-9 0-11-2 0-3-2-5-3-1-1-2-2-3-1z"/>
  <path d="M281 701c-2 3 1 11 4 11l2-1c2-2 2-2 0-6-2-6-4-7-6-4z"/>
  <path d="M229 704l-2 3 2 5c2 4 3 6 2 7-2 3-1 5 5 7l11 7 8 5c3 2 3 2 5-1l3-5 1-2 6-6-5-1c-7 1-15-3-17-8l-5-5c-2-1-3-2-3-4 0-4-1-5-6-5-2 0-3 1-5 3z"/>
  <path d="M200 725l-4 3c-1 0-2 1-2 3-1 2-2 4-5 5l-4 2 4 3c2 2 4 3 5 2l6-1c5-1 5-1 7 1l3 2 1-3 4-7 3-4h-4c-3 0-5-1-7-3l-3-4c0-2-2-1-4 1z"/>
  <path d="M217 740l-2 7c-2 4-2 5 0 7 2 3 5 2 6-3 1-2 1-2 3-1h2c2-3 0-10-3-11-3-2-6-1-6 1z"/>
  <path d="M501 740c-2 1-2 2-1 6 1 8 2 9 6 4 4-3 4-7 1-9s-3-2-6-1z"/>
  <path d="M548 751l-9 4-2 2c-1 1 0 2 6 4 4 3 6 3 7 2h2c0 1 3 3 9 4l8 3 3-2 4-3c3-2 1-5-6-10l-8-5c-5-4-7-4-14 1z"/>
  <path d="M495 758l4 4c3 2 11 9 18 17 14 14 16 15 21 15 3 0 11 7 13 11 1 2 2 3 6 4 4 0 6 0 10-4l2-3h-4c-6 0-7-2-5-6l1-2 1 3c1 2 2 3 4 3l5 1h5c3-1 3-2 3-5l1-4 1-3c0-3-7-8-12-8-2 0-3-1-6-4-5-5-6-6-13-3-5 1-5 1-10-4-1-2-5-2-6-1l-4 1c-3 0-3-1-5-3-3-5-12-9-22-10l-8 1z"/>
</svg>
