<svg xmlns="http://www.w3.org/2000/svg" viewBox="0 0 1024 1024">
  <path d="M587 91c-4 0-13 3-19 5-10 4-11 4-14 3s-4-1-6 2c-2 2-3 4-3 10l-6 24-6 4c-10 6-26 21-26 25l3 5c3 4 3 4 2 10l-1 6-6 3-6 2-3-3c-4-3-9-3-16 1-6 4-7 4-10 3l-4-1 2 12 3 13-7 8c-7 5-8 6-12 6s-5 0-10 6c-5 7-6 7-15 8-5 1-6 2-8 5-2 2-4 4-13 7-11 4-11 5-19 13-4 6-10 11-13 14-5 4-6 5-6 9l-6 9c-4 6-4 6-11 7l-7 1-1 5-3 12-2 7h-6c-7 0-7 0-10 4l-8 7-4 1-3-3c-3-3-4-3-9-3h-6l-2 6-2 7h-6l-7 1-3 7-4 8h-4l-15 3-9 3-5 10-6 10-6 1-13 2-7 1-5 7-6 6v8c0 12-6 25-21 45l-10 13-3 16-3 17 4 7 4 8-4 1c-12 1-11 1-12 6 0 3-1 5-3 7l-2 2 3 4c3 4 3 4 2 7-1 5-6 8-14 9l-6 1-4 10-3 10h-18l-1 5-6 9c-4 4-5 7-3 14 1 4 1 4-3 8-4 3-4 4-4 9l1 9c1 2 1 3-4 8s-6 5-8 4-3 0-9 4l-8 6v13l-16 19-17 20-9 2-8 1v7l1 6-4 4c-4 4-4 5-3 8 1 2 1 2 9 3 9 0 14-2 20-7l3-3v6l4 19h9c11-2 15 0 20 7l4 5h7c6 0 6 0 8 4l5 10 1 7h12c11 0 12 0 21-4l9-4 7 10 7 9 5-3 5-3 5 4c5 5 5 5 11 5h7l3 5c4 5 4 5 10 5s6 0 10 5c6 8 6 10 5 18-1 7-1 7 2 13l7 18c3 8 4 10 7 12 2 1 5 6 9 13 7 10 7 11 14 15l17 8 10 3h25c24 0 25 0 30-2l8-5 12-9 9-6 2-7v-6l8-2c7-2 8-3 11-6l9-9c3-3 6-6 7-9l2-4h8l20-5 17-5 6-1v-4l3-11 3-7h6l10-1h18c5-1 7-2 10-6l4-5-4-7c-4-5-4-5-4-13v-8h4c4-1 5-1 5 3 1 5 5 5 11 0 4-3 6-4 10-4 4-1 5-1 5-4l1-3h15c12 0 15 0 18 2l4 2 6-6 6-6 4 6c5 6 5 6 12 8l13 1h6l1 4c0 4 1 4 7 5 3 1 7 0 12-1l8-2 5 8c5 8 7 11 7 8l3-4c3-3 3-3 6-2l8 2 4 1 3-8c3-7 3-10 3-18 0-9 0-9 2-9l8 4 5 5 4-2c7-4 18-7 23-7s5 0 10-8l6-7 5 1 5 1v18h4c3 0 4-1 7-4 2-3 5-5 10-7 7-2 8-3 8-6 1-3 1-5-2-9l-3-6 3-2 6-10 8-11 3-5h-13v-13l5-3 6-3 7 2 13 2h6v-7c0-9-1-8 9-10 3 0 4-1 5-4s1-3 7-3c5 0 7 0 10 2 4 3 5 3 13 3h10l7-12 6-12h5c3 0 4 0 5-3 2-3 14-11 19-12 4 0 4-1 7-10 1-7 2-8 5-10 4-3 4-6 0-15l-3-12c0-7 0-6 11-8 5 0 6-1 8-3l7-7c5-3 6-3 19-3l24-2 14 1 8-1c4-1 5-1 5-5l-5-24-5-4c-4-2-6-4-11-11l-8-15-2-7 5-2c3-2 4-3 3-4l-1-11c0-8 0-9-2-11-2-1-3-3-4-6s-1-5 1-10l6-11c2-3 3-5 3-12l2-12v-4h7c7 0 7 0 8-3l5-7c6-6 6-8-3-15l-6-6h-15v-4c0-5 0-5-5-7l-5-2-1-5c0-5 0-6-2-7s-3-6-1-6l3-2 2-2-4-2-5-2v-7c0-6 0-7-3-9s-4-2-10 0l-13 3c-7 2-7 2-11 0-3-1-10-7-19-15l-13-14 2-7 3-14c1-4 2-9 4-11l4-9 2-5-3-2c-1-2-2-3-2-7s0-4-5-5l-10-4c-6-3-6-3-6-7s0-5-3-7c-4-2-4-3-5-11-1-4-1-5 2-10s4-6 10-8l10-4 3-2-5-5c-5-4-6-5-7-9-1-5-1-6 1-10l2-4-11-7c-11-6-12-7-18-14l-7-9-19-4c-21-3-23-2-41 4-8 2-11 4-14 6l-12 11-10 7-8 1-14 2h-5l-6-5c-3-4-6-6-7-6l-6 2-4 2-7-3-6-4v-2c0-1-1-2-3-2-3-1-3-1-6 2l-13 7-10 5-7-7c-8-6-8-6-12-5-3 1-5 0-14-2l-10-4-1-6-2-7-10-5-9-3v-5c0-6 0-6-8-14-9-9-9-9-19-7z"/>
  <path d="M98 553c0 3 1 4 6 8 5 5 5 5 10 4l4-2-3-7-1-6H98v3z"/>
  <path d="M59 618c0 2 1 3 6 6l5 3v-3c0-4-3-7-7-8-4 0-4 0-4 2z"/>
  <path d="M222 927l1 7 10-2-10-12-1 7z"/>
</svg>
