<svg xmlns="http://www.w3.org/2000/svg" viewBox="0 0 1024 1024">
  <path d="M889 181c-3 0-7 2-8 3l-8 3c-6 1-6 1-11-1-5-3-5-3-9-1l-9 5c-5 5-10 8-12 6l-6 2-6 2c-3 0-4 4-2 7 2 1 2 3 2 6l-2 17v13l8 8 8 8 1 8c0 8-1 14-3 14s-10-7-12-10c-2-4-4-5-9-7-3-1-8-4-10-7-4-4-9-6-21-8-10-1-15 1-23 8l-6 5-12-1c-9 0-12-1-14-2-4-3-7-2-10 2-3 5-9 8-14 7-5 0-10 1-15 5-2 2-3 3-3 6l-1 8c-1 5-2 5-7 8-3 2-7 4-10 4l-5 1c-2 1-6-4-6-8 0-3-3-5-7-5l-4-2c-2-2-4-2-22-2-19 1-21 1-25 3s-5 2-13 1l-11-3c-3-2-5-2-17-2s-14 0-17 2c-2 2-3 2-5 0-3-2-9-1-14 2-4 3-10 9-11 13l-2 5c-2 2-2 2-4 1l-1-3-2-5c-1-3-2-3-4-2l-5 3-6 3c-1 3-1 3-5 1h-7c-3 2-9 10-13 17-2 5-5 21-5 26 0 2 0 4-2 5-3 2-12 4-15 3l-8-1c-7 0-7 0-11 9-2 5-5 7-9 7l-1 2c0 4-3 6-8 6l-6 1-5 2c-4 0-10 4-11 8l1 5c1 3 0 7-2 13-2 5-9 4-9-1l-3-9c-4-9-8-11-11-8-3 4-5 4-10 2-8-3-12-5-12-10 0-2 0-3-3-2l-24 3c-6 3-9 2-14-1l-4-2-9 1c-8 2-10 2-12 1l-13-1h-10l-3-6c-7-11-7-11-13-13l-10-4c-6-1-6-1-11 1-6 3-9 3-15-3-7-5-15-9-26-11-9-1-10-1-21 2l-11 2-6-3c-5-3-7-3-13-3-7 0-7 0-7 2l-2 5-1 8c0 5-1 8-3 12l-2 7c0 3-5 4-12 2H67l-3 5-3 7c-1 3-2 4-9 7l-11 7c-4 4-10 7-14 7-8 0-8 0-8 8 0 5 0 7-2 8l-6 7-6 4c-5 3-6 5-3 9l4 9c0 4 2 7 3 8v13c0 2 0 3 3 3s4-1 7-3c3-3 4-4 5-3l6 1c3-1 4 0 6 2 2 3 3 3 6 2 2-1 3-1 6 1 5 3 8 7 8 9s2 2 20 2c6 1 10 2 11 5 1 2-4 15-6 18l-3 5-6 4-12 10c-5 4-8 6-10 6s-3 1-5 4-3 4-7 4c-3 0-4 1-4 5l1 5c3 2 2 7-3 13l-4 6c0 2 4 7 10 13l6 5 5-2 5-2 4-2c2-2 4-2 11-2h9v4l1 11c0 7 0 7-4 11l-5 6-5 7c-3 2-4 5-5 7l-2 8c-2 4-1 7 1 10l2 8c0 6 4 11 9 13l10 1h6l8 8c12 11 15 13 20 14l7 2c4 2 14 16 19 28l5 11 8 5c10 6 10 8 4 14l-7 8c-2 4-12 10-17 10s-11-2-17-6c-5-2-6-2-12-2-7 1-10 2-8 3l5 2 5 4c3 1 4 3 3 6 0 1 0 2 2 3 4 1 4 4 0 4-1 1-3 1-4-1-2-1-3-1-5 1h-4l-4-1c-3 0-12 3-14 5s-5 2-12 0c-2-1-3-1-6 2-2 2-3 2-6 2-3-1-3-1-3 1 0 3 3 6 6 6 2 0 2 1 0 6-2 4-3 8-1 10 4 5 20 14 27 14 5 1 6 1 11-1l6-3 4-3 3-3 6 2c6 2 6 2 11 1 7-3 8-3 8 2 0 6 2 8 8 8 3-1 4-1 5 1l3 1 4-3c2-1 5-2 13-2 12-1 15-2 21-7l4-4-2-3c-1-2-2-3-1-4l1-5c0-3 0-4 5-6l5-3 4 3 7 7c2 3 3 3 10 3 11 1 11 1 15-1l4-2 5 6 7 5c3 0 10-4 10-5l-2-2c-5-4 1-12 8-12 3 0 3 0 3 8s1 9 2 9c2 0 3-1 5-3 2-4 4-5 12-3 9 2 14 2 23-3l13-5c6-1 6-2 10-9 2-4 4-6 5-6l6-2 3-2v-13c0-11 0-13 2-14l4-2 5-1c2-1 3-2 4-7l3-11c0-7 2-8 4-7h4l3-1 1 10v11l5 4 7 8c3 5 9 10 13 10l6 3 3 4-2 4-2 11v7h2l6-2c2-2 2-2 5 0l4 5c2 2 3 3 5 3l3 1 6 3c4 1 5 2 7 8l4 8c2 4 6 4 18 1 13-4 14-5 15-18v-9h3l6 3c5 6 11 10 15 10l7 1 7 2c8 0 12 2 14 6s7 10 10 11l7 6c5 6 10 8 15 6l7-1c4 0 4 0 9-6 5-9 9-10 17-8l10 2c3 0 5-1 10-6l9-8 2-4c0-2-4-5-8-6l-6-4c-5-4-12-17-13-25l-2-9c-3-8-4-9 0-11 2 0 3-2 5-5 1-3 2-3 7-3s5 0 5-2 0-3 1-2c2 0 6-5 6-8 0-2-4-10-7-12-1-2-3-2-5-2-4 1-4-1 0-5l2-4-2-7-3-8c-1-2-5 0-8 6-2 4-3 5-1 11 2 9 0 10-6 5l-5-8c-1-3-2-4-4-4-3 0-3 0-3-4 0-5 1-6 4-5s3 0 7-4l8-6c2-2 3-3 3-6 0-5 3-8 12-11 5-1 8-3 9-5 2-2 3-2 13-2l10 1v-7c0-5 0-6 2-8 3-2 6-1 8 2 2 2 3 3 5 2 3 0 7-3 7-6 0-2 1-2 6-2 6 0 6 0 7-3l3-4 10 5 9 6 2-2c1-2 3-3 5-3l6-1c2-1 3-2 5-7l1-8c-2-4-1-10 2-12l4-6c2-5 2-4 0-26l1-8 2-6 3-11 2-6-2-2c-3-5-9-9-14-9-2-1-5-2-7-5l-7-5-4-2c0-1-1-4-3-5-3-4-4-14-1-21l3-6 6-7c4-6 4-7 3-9-2-4 0-5 12-5 8 0 11 0 13-2 3-2 5 0 5 4 0 2 1 2 4 3 4 0 5-1 7-3 2-3 4-11 4-22 0-1 3-3 14-8l23-6c7 0 9-1 13-3l8-3 9-6 8-5c4-2 9-6 10-9v-7l-1-5 5-1c9-1 13-3 17-6l5-4 5 4c5 5 6 5 20 5h7c3 0 5 0 6 2 1 1 2 2 6 2 7 0 7-1 7-8-1-6-1-7-5-13-3-5-4-6-3-10 0-3 0-6-2-9l-2-10c0-6 0-7 3-9l7-7c3-3 5-4 7-4 4 0 6-1 6-3 0-1 3-2 6-1h6l4 1 3 2 3 2c3 2 9 5 10 3 2-2 15 8 18 14 2 4 4 5 6 3l6 1c5 3 10 4 13 2h12c6-3 3-5-6-5-4 0-6 0-11-3-11-6-13-8-13-10l-3-18c0-4-4-7-8-8-3-1-4-1-5-4-1-6-8-15-14-18-3-1-5-3-5-4l-6-4c-5-4-6-5-4-10 1-3 2-4 5-3 3 0 3 0 3-3l1-9-1-5h-4l-7-1c-4-1-4-2-4-4 0-4-1-5-4-5s-3-1-5-6l-5-9c-3-3-3-3-2-6 2-3 2-6-2-7l-2-4c0-2 1-3 4-5 4-2 5-3 6-7v-10c-1-4-2-5-4-6l-2-2-3-2-5-3c-2-3-4-4-8-4-8-1-12-1-18 1z"/>
</svg>
