<svg xmlns="http://www.w3.org/2000/svg" viewBox="0 0 1024 1024">
  <path d="M774 391l-18 4c-8 2-12 3-20 3h-11l2 3c1 2 2 5 4 6l2 3-3 3-3 4-13-2c-8-2-13-4-18-7l-8-5-10 2-31 1h-21l-8-4c-4-3-11-6-17-7-8-3-10-3-27-3l-18 1 6 4 7 4-2 3-3 2-14-2c-16-3-18-3-22-2l-3 2 4 3 4 4-10-2c-18-4-31-6-41-6h-10l-6 5-9 4c-3 0-3 0-3 5v4h12l1 4c1 4 1 4 10 6l15 5c16 7 17 7 55 7 32 0 35 0 71-4 48-5 51-5 63 0l9 3-34 1a907 907 0 00-81 5h-11v7h10l30 4 19 4h29l41-1 32-2h20l5 7 6 7h36a274 274 0 0081-8l27-5a384 384 0 0047-8c-1-4-1-4 9-7 9-3 11-3 25-3h16l13-5 13-6-1-5-1-8v-4h-7l-25-1-35-2a451 451 0 01-97-13l-8-4-3 3-9 5c-4 3-6 3-13 3-8 0-9 0-13 3s-5 3-15 3l-19 1-10 1 9-5 8-5v-15l-10 2z"/>
  <path d="M331 425l-10 7-5 3c0 3 11 16 26 32l18 18-8-2a270 270 0 01-63-33c-6-6-25-12-37-13h-9l-7 5-7 6h-10l-10 1 4 6c4 4 4 5 3 8l-2 2-14-5-18-7c-4-1-4-1-4-6 0-3 0-4 2-4l25-3h4l-1-4-2-3h-65a499 499 0 00-99 7c-6 3-6 3-10 1l-9-4c-3-2-5-3-9-3l-5 1 5 20a89 89 0 0113 10l12 10c6 5 7 5 12 5 4 0 7-1 14-4 9-5 9-5 20-5h11l-6 6-6 5-10 2-17 1c-6 0-6 0-6 3s1 3 11 5c10 1 11 1 11 4 1 2 1 3 7 5l19 5 13 4 9 8 13 11 4 3h33c33 0 34 0 42-2l26-6c22-3 21-3 21-6s0-3-6-4c-8-2-8-1-8-7v-6l8-2 8-3 8 10h8l7-2 9 4c13 6 18 7 27 7l32 3-8 2c-8 0-22 3-45 10-25 7-28 7-70 8h-38l6 10 5 10h9l22 2a230 230 0 0030 2l-4 9-8-1c-7-1-9-1-22 1l-16 3 5 6c4 5 6 7 14 11 10 5 11 5 22 6 10 1 12 1 25 6l27 11c14 7 19 8 30 10 5 1 9 2 14 6l8 4h10c14 0 25-2 35-7l8-5-4-3-4-2 5-5c5-3 7-5 9-9 2-5 4-7 12-13 14-12 21-16 32-17 8-1 10-2 14-4 6-5 10-9 13-16l2-7 13-3 14-3c2-2 4-12 4-19v-6h10c13 0 68-7 83-11l11-2 8 3 8 4-4 1-26 2h-22l15 5c18 5 25 9 31 19l4 7 20 3 21 3 3 1-5 2-16 11-11 8h-11l-11 1 5 4 5 4 36-2c34-3 37-3 46-6l9-3 8 3 9 5-6 4c-8 4-9 5-7 9 2 1 2 1 21-2l34-5h15l16-8 17-9 23-3c21-2 22-3 19-4-11-3-31-5-51-5-22 0-27-1-41-7l-13-5-4-1 7-3 8-3-7-3c-7-2-10-3-31-3l-23-1-3-6-4-9-1-4h-19c-15 0-19-1-23-3l-5-2 3-2c3-1 3-1 4-5v-5l-20-3a5321 5321 0 00-27-8c-1-3-1-3-12-3l-29-2c-16-1-20-1-27-3l-20-4c-21-2-20-1-23-8-2-5-3-5-14-11l-11-5-8 1a79 79 0 00-31 12l-2-4c-2-4 0-8 5-12l3-3-6-3-17-6c-12-5-12-5-23-5l-18 1-8 2-11-5-12-4h-31l-4 5z"/>
  <path d="M10 503l10 11 8 1c8 1 23 6 47 13 14 5 16 5 19 4l4-2c0-1-6-7-12-11-3-2-6-4-16-6a125 125 0 01-29-10l-10-5-6-5H0l10 10z"/>
  <path d="M983 501c7 4 7 4 17 4h10l-12-4-17-4h-5l7 4z"/>
</svg>
