<svg xmlns="http://www.w3.org/2000/svg" viewBox="0 0 1024 1024">
  <path d="M474 264l-9 10-8 8-6-1c-6 0-7 0-10 2l-3 4-2 8-1 6c1 2 0 4-3 4l-4 9c0 2-11 3-14 2s-10-1-11 1c-1 1-12 2-12 0l1-4c1-3 1-4-1-8l-2-10c0-7-2-8-15-9-9-1-10-1-17 2-6 3-7 3-9 1-4-2-8-2-15-1-4 1-5 1-6-1l-6-1c-4 1-6 4-7 9-1 3-2 4-4 5-3 1-5 4-6 7-4 7-5 8-8 8-4-1-6 1-6 7-1 6-3 9-12 13-4 3-25 9-28 9v1l-3 4c-2 2-3 4-3 7l-1 6-1 6-3 8-2 5-2 8c0 9-2 17-6 20-3 3-3 3-15 4h-13l-2 3-2 8-3 9-2 5h-9c-9 0-8-1-17 10-5 6-9 8-14 8s-11 3-11 5c-1 2-8 3-14 2-3 0-4-1-5-2-1-4-7-4-10-2-3 4-7 5-11 4s-7-3-7-5l-2-2c-10-6-13-7-18-8-4 0-5 0-9 3l-7 5-7 9-5 7-4 5-4 7-3 6-3 5-4 8c-2 7-3 10-6 11-2 2-2 3-2 7l1 10c1 4 1 4-2 7l-3 6-3 3c-1 0-2 1-1 2 0 1 0 2-2 2s-3 2-5 5c-3 4-3 5-2 8 2 2 2 3 0 7l-2 4-1 6c0 4 0 5 2 5 3 0 9 7 8 9 0 3 2 11 4 11s4 4 4 8c-1 2 0 5 1 7l2 9c2 7 6 12 11 14 4 1 5 3 7 7 3 6 3 6 2 7-2 2-2 3-2 11v6h3l7 2c3 2 5 2 12 1l8 1c0 3 5 6 10 7 5 0 5 1 9 6l5 5c2 1 9 11 10 15s8 9 13 10c2 1 3 2 4 5 2 5 5 8 9 8 3 0 7 3 7 5 0 1 3 4 8 7 5 5 8 7 11 7l5 2c1 1 10 2 26 2l8-2c4-1 4-1 6 1l2 2 2-2c3-3 7-3 16 0l16 3 16 2c5 1 8 0 18-2l13-4 5 1c4 2 7 2 9 1h16l12-1c5-1 10-6 11-10 2-3 2-4 7-5l7 1c3 2 7 1 7-1l-2-3-2-3c0-2-2-3-5-4-4-3-5-5-6-11-1-3-1-5 1-9s2-4 1-8c-1-3-1-4 1-5l3-1c4 0 5-2 6-6 0-6 1-10 3-11l23-1c3 0 4-1 6-3l2-2 3 2c4 3 4 3 7 1l7-1h4c1-1 7 0 17 4 3 1 4 1 5-1l7-5c6-2 8-3 13-2l8 1c2 0 4 0 6-2l2-2 2 2 2 2 2-3c2-2 3-4 3-7l2-7 2-6 1-4 1-3 4-3c3 0 5-2 9-5 4-4 5-5 8-4 5 0 6 1 6 4 2 5 7 8 9 4 2-1 2-1 6 1l7 4v5l-1 4h6l4-1c0-2 1-2 4 0l4 2c2 0 3 4 2 6l-1 2c2 2 4 1 9-4 6-6 10-8 16-7 5 0 5 0 6-2 0-2 3-5 6-8 5-4 6-6 6-8 0-3 0-3 6-3 5 0 11-3 11-6 0-2 1-1 7 1l5 3 2-2 4-7 4-5 3-3 3-7c3-3 4-5 7-17 1-6 2-7 5-8 2 0 5-3 4-5v-2c5-3 9-12 6-14-2-1 2-3 5-2l2-1c0-3 2-3 5-2 2 2 2 2 5 0 4-3 10-5 12-5l5-1 12-2 12-2 3 3 3 3c11 0 11 1 12 2 3 5 5 6 11 6l17 2 1 3 3 3c3 1 3 1 4-1l6-5 6-3 3-1 3-1h2c2 2 9 4 11 3l2-5c1-4 2-5 14-5 5-1 6-1 6-3 0-3 2-3 4-2l10 8 2 4c1 5 6 8 14 8 4 0 4 0 4 5 1 8 2 10 4 12 3 3 5 8 5 11 0 2 1 3 2 3 2 0 3 1 3 3l2 4 2 3 3 1 5 1 5 1h5c3 0 4-1 4-5 0-2 2-3 4-1s3 2 5 0l5-1h3c0-2 3-4 7-4l6-2c3-1 3-1 6 1s3 2 4 0h3c1 2 11 0 11-2l2-2v-3c-2-2-3-13 0-23l2-16c1-10 3-15 5-15l2-2 5-3 3-4c0-1 3-4 8-7 7-6 8-6 9-12 2-7 2-10 1-11-2-1 0-6 3-9 2-2 2-3 2-7l-1-6v-5c0-4 0-4 4-7l4-2v-7c0-5 0-7 2-9 1-1 4-5 5-9 4-7 4-7 7-6 5 0 8-2 6-4v-4l1-6 1-7c2-5-2-9-7-5h-7c-3-1-6-2-8-1-2 0-3 0-6-5-4-6-7-8-14-7h-10c-6-1-7-2-6-3l1-3c-1-2-1-3-7-3-4-1-7-1-8-3l-10-4-9-5-2-8c0-6 0-7-2-8l-3-3-4-7c-4-6-7-9-11-8-1 1-2 0-4-2-2-3-3-3-5-3l-4-3c-2-3-3-3-8 0-2 1-3 2-2 5l-1 2-3-1v-2c0-2-1-4-3-5l-3-6c-1-2-2-2-4-2-6 0-10-1-13-4s-3-3-6-2l-5 1-7 1-7 2-4 1c-4 2-8 1-11-1l-5-2-4-2c-3-2-13-5-15-3l-5 1c-3 1-3 2-4 5l-2 6c-4 2-6 1-11-4-4-4-4-4-6-3l-6 2c-5 1-5 1-5 4s4 8 6 8l1 1c0 2-1 2-4 2s-4 1-7 3l-3 4-2 4-3 4c0 1-1 2-5 3s-4 1-7-2l-5-2c-2 1-2 0-1-2 1-1 0-2-1-4-2-3-2-3-4-1s-3 2-6 1l-4-3-1-3-2-2c0-2 0-2-2-2-1 1-3-1-3-3l-3-6c-3-4-7-4-11-1-3 2-4 2-7 0l-3-2v2c0 2-2 4-4 6-4 4-4 4-8 3-2-1-5-2-6-4l-11-5c-3-1-3-1-5 1 0 2-2 3-4 4s-3 1-4-1l-6-1h-5l1 3v8l-1 4h-5l-8-1c-4-1-9 3-14 10h-2c-2-1-2-1-3 4l-2 6-2 4-3 8c-3 14-4 15-6 13l-5-3-4-3c-1-3-9-10-12-10s-6 2-7 5l-4 4c-5 2-21 0-21-4l8-15c3-1 3-5 0-6-2-1-2-2-1-3 1-2 0-18-2-23l-3-4-5 3c-3 1-4 2-5 1l-9-4c-2-1-3-1-3-7l-1-7-3 1c-5 0-9-2-9-5l-2-4-1-5-2-4c-2-1-2-2-2-7 1-5 1-6-1-8l-5-3-2-3c0-4-5-5-7-2z"/>
</svg>
