<svg xmlns="http://www.w3.org/2000/svg" viewBox="0 0 1024 1024">
  <path d="M477 1c-3 0-4 1-6 8l-2 10c1 3 1 3-34 13-38 12-33 11-51 5-10-3-15-5-16-9-1-2-2-3-4-3a338 338 0 00-56 13c-5 0-14 4-18 8l-5 3-6 2c-4 1-4 1-4 5 1 5-2 16-7 26-5 9-9 14-14 14-3 1-3 1-3 3l1 5c-1 3-2 4-5 5-4 2-4 2-4 6v9c0 5 0 5-4 6-4 0-5 1-7 6-2 4-3 6-2 8 0 4 0 4-4 6s-5 4-3 9v5c-4 4-9 15-9 20-1 7-1 8-5 8l-3 2c-1 5-3 6-10 6-5 0-6 0-7 2v8l1 6-5 1c-3 1-3 2-3 4l-2 4c-1 1-2 2-1 3 0 2-1 3-5 5s-6 2-14 2l-10-1-4 4c-6 5-6 5-10 3-3-2-5-2-8-1-2 1-2 2-2 6 0 3-1 5-3 7l-2 3 1 9c1 4 2 8 1 9l-3 1c-3 1-6 6-8 13-1 4-2 6-5 8-6 5-16 11-18 11-1 0-4 2-6 5-4 4-4 5-10 5-6 1-11-1-14-7-2-3-6-6-11-7-4 0-5 0-7 2-1 2-7 4-14 6l-13 6c-4 2-5 5-2 11 2 5 2 6 1 9v13c1 3 5 2 8-1 2-2 3-4 3-7l1-6 1 6c-1 8 0 9 4 6l6-1 5 1c2 0 1 2-1 3s-3 0-3-1c-2-2-3-3-4-1-1 3 10 12 16 14s7 2 11-2c3-2 5-3 11-4 9-2 10-2 10-4l1-1c2 0 2 1 0 3-1 2-1 2 1 3 3 2 14 0 17-2l7-5c3-3 3-3 3-1l-7 6-7 5-10-1-11-1c-2 0-17 13-17 15s4 7 6 8a84 84 0 0032 1c9-1 15-1 19 2 5 2 3 2-4 0l-6-2-12 2-16 2a152 152 0 01-35-5c-2 0-15 11-15 13-2 6 0 23 4 30v6l-1-1c-1-1-1-1-2 2v10c0 6 2 13 6 15 3 2 6 7 8 17 1 7 2 9 6 14 6 6 11 8 18 5 3-1 5-3 8-7 7-8 7-8 11-7 5 2 6 3 4 6l-3 6-8 8c-15 10-17 11-17 14l1 5v3l-7-7c-9-9-15-11-28-11-7 0-10 0-13-2l-4-1 2 4c2 4 2 5 1 13l1 13c3 5 10 12 17 17s11 11 12 16l5 7c6 7 9 20 7 31l-1 8c1 0 4-1 7-4l12-7 8-5c1-2 3-4 5-4 5-2 14-2 17-1 2 1 3 0 5-1l2-1v7c-1 3 0 4 8 14a328 328 0 0015 21c2 4 4 6 8 7 5 0 5 1 1 2-3 1-4 2-4 5-2 6 0 17 3 23l2 4v5l1 5 9 4 13 7 4 3-4-1-6-2-9-4c-8-4-11-3-17 1l-8 5c-4 1-5 2-4 4 1 3 9 11 12 13l16 16c3 4 5 5 12 8 10 3 9 3 13-4 2-4 8-5 13-4l7 1c4 0 6 1 6 3-1 1-2 1-4-1-4-2-14-1-16 1s-4 13-3 15l9 7 5 6c2 3 3 4 7 5 4 2 7 2 10 2h6c8 3 21 6 25 6s5 0 13-7l14-11c4-3 7-6 10-11h4c3 0 4 2 1 2-2 0-3 1-4 4s-3 5-4 5c-2 1-4 5-6 10 0 2-1 4-3 5-6 3-9 6-9 9 0 2 4 6 8 9 3 1 3 1 10-4l7-5 4-2-1 2-6 6-5 5 3 5 4 5 2 8c3 8 5 10 14 10l10 2h9c3 0 4 0 3 1-1 2-6 4-10 4l-18 3-5 7-6 10c-4 3-4 5-1 11 3 3 3 4 8 4l9-1c3-1 3-1 5 1 2 1 2 2 0 2-1 1 1 2 15 10 9 5 7 5-3 1-8-4-17-6-27-6-6 0-8 0-12 3l-4 3a678 678 0 01153 54l17 7 7 2 7 3 14 6 17 9c3 3 17 10 30 16a202 202 0 0140 23c1 0 3 2 3 4 1 3 4 6 7 8l4 4 4-3 8-4h4l-3 2-4 7-3 3 5 3 14 5c11 5 16 6 21 3 3-2 4-2 8-1 6 1 6 1 7-2 1-2 1-3-1-4-1-2-1-2 1-4l2-2 11-13c3-3 4-4 4-8v-9l-1-3h5c5 0 5 0 6-2 2-3 0-14-2-18l-1-3 4 1h4l-1-3c-2-2-2-3-1-5l2-6c0-4 2-10 4-11l2 3 1 4 3-5c3-5 3-6 7-7 3 0 5-1 6-3l5-3c10-2 15-5 19-10l3-5 5-6 4-8c0-2 4-5 7-6l4-5 7-7 12-9 10-8 6-4c0-1 5-6 11-10 8-6 11-8 13-7l7-3 14-10c10-7 13-9 15-14 2-3 3-4 4-3l5-2c2-1 3-2 3-4 0-6 2-11 8-17l7-5c2 0 4-3 7-9 5-9 8-12 14-15l5-3c1-1 5-3 8-3 10-2 9 1 10-50l1-43 6-2 6-4 4-7 8-12c4-8 4-8 11-10 6-2 7-2 18-1 12 0 13 0 16-2s3-2 7-1c3 2 4 2 4 1 1-2 8-10 13-13 6-5 7-8 4-13-2-3-3-7-3-11-1-6-1-8 2-12l2-7 2-6 2-8c0-2 1-5 3-7 2-4 2-6 3-17v-13l4-2 4-2c0-1-13-6-19-7h-11l-8 2c-6 0-10 4-15 14-4 10-5 10-17 20l-13 13c-6 8-15 16-21 16-4 1-4 1-6-3l-3-5h-8c-8 0-9 0-11-3l-2-2-4 8c-5 12-11 18-11 12l-1-5c-1-2-1-3 2-8l3-8c0-5 2-7 9-11l7-3v-5c0-6 3-18 5-23l2-7c0-3 1-5 3-8 6-6 12-17 12-19l2-2 6-2c3-2 5-3 8-3 4 0 5-1 11-6 7-6 8-7 8-13s-1-11-5-13c-3-3-5-10-4-13s1-3-2-3c-2 0-3-1-7-9-3-8-4-10-7-10-2-1-3-1-4-14l-5-19-3-21c0-13 0-14 3-19l2-5-9-6c-8-5-10-6-14-6l-6-1c-2-2-4-2-11-1-13 1-14 1-14-1-1-1 0-6 2-12 4-14 4-16 1-17l-2-1c0-3 3-4 8-4 3-1 6-1 9-4 6-4 6-6 2-13l-2-5 2-4c3-6 3-9-2-14l-7-7-8-7-5-5s-2-1-2-3c-2-4-3-4-6-1-2 2-2 2-5 1l-7-2h-4v-11l-6-4c-10-8-13-10-10-10l3-1c3-2 3-2 2-5s-1-4 1-8l3-5-7-4-7-4 1-3c1-3 1-3-2-8l-4-6-4-3c-3-3-4-3-5-9l-2-8-6-1c-6 0-7 0-8-2l-2-7c0-5-4-19-7-24l-8-9-7-7c0-2-12-13-17-16l-10-4c-5 0-9-2-11-4-1-1-2-5-2-11-2-14-7-23-14-23-4 0-4 0-4-4l-1-4H477z"/>
  <path d="M261 762c-2 3-3 6-1 6s6-3 6-6-2-3-5 0z"/>
  <path d="M92 782l-5 3c-4 0 0 4 4 5 3 1 4 0 1-2-1-3-1-4 1-5 3 0 6-3 5-4-1-2-3-1-6 2z"/>
  <path d="M254 780l2 5c2 5 4 6 7 4 2-1 2-4-1-4l-5-3-3-2z"/>
  <path d="M209 785l-5 3c-3 3-6 3-8 2-2-2-22-3-24-1-1 1-1 2 1 3 2 3 1 4-2 2-1-2-2-2-3-1h-2c-1-2-2-2-5-1h-10l-7 1-3 2-4 2c-4 3-5 6-2 6l2 2v2l-7-2-8 1c-2 2 0 5 2 3 1-1 9 1 14 4l8 2 6 2 11 1c8 0 9 0 12 3 3 2 5 3 8 3l5 2h5c5 0 8 0 12 4 4 3 9 5 14 5 2 0 5 1 7 3l5 2 3 2 4 1 8 6c5 6 5 6 4 16-1 3 2 4 7 3s5-2 5-15v-9l5-6c4-6 5-7 5-11s-1-5-3-7c-2-3-3-7-1-6s4-2 4-6c0-3-1-4-6-7l-6-3c-6-3-8-4-13-1-4 1-5 4-3 6 3 2 2 4-1 3-4-2-4-9 0-11 6-3 4-7-5-9-5-2-15-2-16 0s-5 1-6 0c0-2-3-2-8-1z"/>
  <path d="M269 794l9 5c2 0 1-3-3-5s-6-3-6 0z"/>
  <path d="M111 802l1 2 1 1c0 2-2 1-4-1s-3-2-3 0l9 5c1 0 2-1 2-3l1-3-7-1z"/>
  <path d="M273 820l2 3c2 1 3 0 1-3-1-3-3-3-3 0z"/>
  <path d="M280 820c-1 3 2 6 4 4l2-4c0-2 0-2-3-2-2 0-3 1-3 2z"/>
</svg>
