<svg xmlns="http://www.w3.org/2000/svg" viewBox="0 0 1024 1024">
  <path d="M877 3l-3 4h-5c-3-3-5-2-8 3-2 4-3 4-7 4l-7 1c-2 1-4 6-4 8s-1 3-4 4l-6 4v5c3 2 2 3-2 10l-3 6h-6l-15 3-14 4c-8 1-11 4-17 15-3 7-3 8-8 9l-7 5c-2 2-2 2-15 0-4-1-7 0-15 7l-14 10-8 5-18 1c-18 0-18 0-23 2l-6 3-5 2-12 3c-12 1-20 5-26 11-4 4-5 5-11 7-8 2-15 6-24 13l-13 9-58 41-52 36-13 14-12 14-11 3-10 3-5 8a1206 1206 0 01-64 79l-4 8h-28l-57-5c-9 0-10 0-18-3l-14-4-5-1-9 13-16 23-7 10h-6c-12 2-12 2-12 5 0 4-6 8-8 5h-7c-1 2-6 0-10-3l-14-6-17-6-8-3-4 4c-5 4-8 14-10 30l-1 11 4 14 3 14-2 19c-3 29-1 35 12 50l11 8c3 1 10 5 17 11 13 10 16 14 19 24l5 7c3 2 4 3 5 10l4 13c2 5 3 6 6 7 3 0 3 1 3 7l1 8c1 2 1 2-1 2-5 0-5 1-3 9 2 7 2 8 0 15-2 6-3 8-8 14l-13 13c-6 5-9 9-21 31-6 9-6 10-6 19-1 10-1 10 8 51 8 35 10 45 17 63l7 22-2 4c-1 4-2 5-5 6-4 1-4 2-9 12-5 9-6 12-6 16 0 5-1 6-7 15l-6 10 9 2c7 3 10 4 16 9l8 6 8 3c8 5 19 7 33 6 16-2 34-6 35-10l4-3c3 0 4-1 8-9l4-6 9-4c9-4 10-4 11-2l6 1 5-1 4 7 4 7 7 1c7 1 8 0 13-2l12-6 9-4c4 0 5 0 6 3l1 2 3-2c2-3 2-3 5-1 3 1 3 1 5-1s2-2 1-6l-1-5 6-7c7-5 8-5 19-8l12-3 1 3 3 8c2 6 2 6 17 15 13 8 16 11 18 14l3 5-3 6c-2 4-2 6-1 7v4c-4 4-1 10 6 14l5 3-2 4-1 7c0 4 11 14 17 15l5 5 5 4 7 3c3 2 9 5 15 6l10 3 5-3c7-4 9-5 15-6 4-1 5 0 13 3l8 4 3-7c2-7 3-7 7-9 6-2 10-4 17-10l6-5 3 2 2 3 4-2c4-3 7-3 24-2 8 0 12 0 18-2 7-2 10-2 55 0l47 1c1-1 11-39 12-47 1-6 3-8 9-16l9-17 7-13c3-5 3-7 3-11v-5l9-9 9-9v-6c0-6 0-6-3-7l-5-2c-1 0-2-1-2-3l-2-6c-2-2-2-2-1-8a203 203 0 00-3-56c0-8-1-7 9-20l6-7 3-4c0-4 7-14 12-19 5-4 12-6 19-5 4 0 6 0 12-3 12-7 15-10 20-19 4-8 4-9 4-18 0-8 0-10 3-13l2-6c0-7 3-16 7-20 5-6 13-21 14-27 0-6 3-9 12-16 5-4 9-9 12-18 2-8 9-13 19-15l8-2 5-14 5-13v-34l-5-19-8-33-3-13-17-29-25-42-8-13 9-23 9-22-5-9c-4-8-5-9-5-17l-4-23-4-26-3-15c0-2 0-2 10-2 8-1 10-1 12-4l8-4c15-6 16-9 10-25-3-9-4-13-4-18a203 203 0 00-7-46c-1-5-1-6 1-10l4-5c4-4 8-11 8-13 0-4 9-10 18-13 6-2 8-3 7-4l-1-17-1-24-3-19-2-11-3-1c-4-2-6 0-6 6 0 4-1 5-3 6s-3 1-6-1l-4-4c-2-1-5-1-9 1l-4 2-2-2-3-7-3-4c-2 0-3 1-3 3z"/>
</svg>
