<svg xmlns="http://www.w3.org/2000/svg" viewBox="0 0 1024 1024">
  <path d="M471 96c0 1-1 3-3 3-2 2-2 2-7-1-3-2-5-2-7-1s-3 3 0 6c2 3 2 4 0 6-1 2-2 2-7 1-5 0-7 0-11 2-5 2-6 2-12 1-5-1-8 0-15 1-9 3-11 2-15-2-1-2-2-2-7-1h-6l1 5c0 4 0 4-3 5h-8c-6-1-6-1-10 2-5 5-7 5-16 3-5-2-14-4-20-4-10-2-12-2-16 0h-8c-2-1-4-1-7 1l-4 1-4-4-4-6c-1-5-5-5-11-1-3 3-5 3-10 3-7 0-10 1-10 4l-3 6-3 8-2 4-3 6c0 3-1 4-3 5s-4 5-3 8l-3 8c-3 5-4 6-6 5l-6 3c-4 4-4 4-4 10 0 8-2 16-7 20l-4 3-3 17c-3 25-5 29-15 39-4 5-7 9-7 12-1 3-4 8-11 15-5 7-9 13-9 15l-5 5a495 495 0 01-67 81 72 72 0 00-15 18l-1 5-27 10a288 288 0 01-39 13c-6 2-7 4-1 8 2 1 5 4 6 7l4 5 3-6 3-6 5-1c4 0 6 0 10 3l7 3c4 0 10 4 13 9l6 10 4 10c2 2 3 4 3 8l2 6c4 1 12 10 17 16 4 7 5 9 5 13 1 8 3 14 6 16 2 2 2 2 1-1v-3l2 4 1 9v6l3 1 4 3 2 2 1 28c-1 20 0 26 1 25l1-13c1-11 1-12 4-14s6-8 7-14c1-2 2-3 5-4 4-1 4-1 2 1l-4 6c-3 4-3 5-1 5l3 2c3 3 7 2 11-2 3-2 6-6 9-7 6-4 13-13 12-14l-1-3v-2l2 2c3 4 8 4 8 1s4-4 7-2h10c6-1 8-1 10 1 4 2 2 5-2 3h-18c-4-2-5-2-5 1 0 2-3 3-7 3l-5 4-8 6c-3 2-4 4-4 6s0 3 4 1c3-2 7-2 7-1l2 1 2-2 2-3c3-2 3-2 7 0 3 1 3 1 0 1-6 0-7 1-7 5l-1 5-2 4-3 9-2 7c1 1 5-2 6-5 1-4 3-4 3 1 0 4 0 5-2 5-3 0-4 1-5 4s-2 3-6 3c-6 0-7 1-1 3 5 1 5 3 2 8-3 4-3 4-1 4 3 0 3 3 0 11-3 7-4 8-7 9l-5 1-2 2c0 3 2 5 4 4l2 3c1 3 2 3 9 3l173 6 4-12 5-12 10-5 10-4 7 4 7 3 13-5c14-6 18-6 26-3l8 2c2-1 6 1 13 4 13 5 16 8 17 18 0 5 1 5 6 10l6 5 8-5 8-4 11 4 12 3 2 7 3 9 7 7c6 4 9 5 14 6 7 1 8 1 14-2l12-5c8-5 15-7 22-7l12-1c5-1 8-2 11-1 6 2 6 2 17 18l7 10-9 8c-8 8-9 9-14 9l-14 3-12 2c-3 0-5 1-9 4-5 4-7 5-13 6l-7 2-4-3c-3-3-4-3-14-3h-10l-5-5c-4-3-8-6-12-7l-10-5c-4-3-6-3-12-2-5 1-5 1-13-4l-9-7c-3-5-12-9-18-9-8 0-12-2-23-10-10-8-12-10-14-14s-3-5-6-5l-10 5-6 5-4 11-3 12-7 3c-7 4-8 4-16 4-7 0-9 0-16-4l-7-3-8 4-8 3-9-2c-8-1-10-2-12-1s-5 2-9 1h-7a926 926 0 01-3 30 5596 5596 0 01-159-3c2 2 1 3-2 5-3 1-3 2-3 4 1 1 0 4-1 6l-4 6a277 277 0 00-10 39l-2 5-2 7v3l1-3 2-2v3l-2 5-4 9 6-2 6-3 3-1c0-2 9-7 10-6l6-2c6-3 7-3 7 4 0 5 0 5-4 8l-5 5c-1 2-3 0-3-2 0-3 0-3-8-2-9 0-9 0-12 4l-4 5 1 7-1 9c-1 1-2 2-1 3 0 1 5 2 6 0l10-6c7-5 9-6 9-8 0-4 2-5 7-5s6 0 8 3c4 3 7 4 9 2s3-1 3 1l2 5 3 3c0 2 5 6 7 6 3 1 7-2 7-3 0-2 1-2 5-2 6 0 6 1 3 5l-9 3c-5 0-7 0-12-2-5-3-7-3-10-3l-4 1-3-7-4-6-7 5-9 8c-4 1-5 4-5 15 0 6 0 7-1 6l-2-6c-1-4-1-4-4-5-2 0-4-2-5-3-2-1-2-1-4 1-3 3-4 10-2 19 1 9 5 15 9 15a393 393 0 0138 1h13l17-9 18-10 5 2c5 2 6 2 17 1l11-2 6 3c6 3 7 3 13 3 5-1 10 0 22 2l18 2 46-22 43-23 103 7 156 9 52 3 6 3c5 3 6 3 8 1 5-2 12-1 15 1 2 2 4 2 6 2 2-1 5 0 8 1h8c3-1 4-1 6 1 3 2 2 6-2 11-3 4-3 4-3 10v7h4l6 1 6 3c2 2 3 2 6 1l3-1v-8c0-8 0-8 3-9 3-2 3-2 9 5l10 8 6 4c2 3 3 3 11 3h8l7 6 8 6 6-2c5-1 6-1 18 2 4 1 4 2 7 8l3 7a174 174 0 0038-14c4-4 5-5 18-7l13-3 7 4c7 4 8 4 14 3l11 1c3 1 5 1 20-3 14-3 18-4 27-4 8 0 10 1 14 2 4 3 4 3 8 1 3-1 4-2 3-4 0-1 0-2 2-2 2-1 2-1 0-4l-4-7c-1-3-3-5-5-6-3-1-4-3-4-4l1-2 4-2 3-2-2-3-3-6-1-4c-1-2 0-4 2-7 3-5 3-5 7-5s5-1 3-2l-1-8-2-11v-8c1-3 2-4 6-6s5-2 5-5l-3-9-2 2c-1 2-7 3-6 1 2-4 2-9 1-14-1-4-3-6-6-8l-5-6-4-4v-2c2-3 2-7 0-10l-1-3c1-2-1-9-3-12l-2-6c0-5-2-8-7-7l-5-1-4-2-2-3-10-6v4c0 3 0 4-2 5l-2 5c0 2-1 2-3 2-3 0-4 0-5 3 0 2-1 3-3 3s-2-1-3-4l-3-8c-2-4-2-4 0-8 2-6 2-10-3-17-2-3-5-6-7-6-3-2-8-8-9-12l-3-6c-4-4-7-18-5-19l10-7 10-6 1-9c1-13 1-13-3-18l-6-9c-1-4-1-5 4-21 5-15 6-17 5-22-1-8-3-11-9-14-5-2-5-2-5-6 0-5-3-10-9-12-6-3-8-5-9-14-1-13-1-15 2-17l7-9c4-5 4-5 4-10-1-4-1-6-3-7-7-5-8-6-9-10s-2-5-6-7c-3-2-5-3-5-6-1-2-2-3-4-3l-11-6c-6-3-8-5-8-7l-2-9c-2-7-4-11-11-15-7-3-12-8-13-12 0-2-1-3-3-3l-7 2c-5 2-6 1-6-1 0-1-2-5-6-8l-7-9c-1-6-1-6-5-5-3 0-3 0-6-4-4-6-4-6 1-8 4-1 4-1 4-4s-1-4-4-6l-6-2c-4-1-7-8-6-12s-1-13-3-16l-9-1c-8 0-9 0-12-3l-3-3 2-3c4-4 4-7-2-14-4-4-5-5-8-5-7 0-8-1-8-5 0-3 1-5 3-8l2-3-4-5c-4-3-5-5-5-6 0-3 0-3 4-2 4 0 4 0 4-2l-2-3c-9-2-11-5-11-14 0-6 0-6-4-11-4-4-4-5-4-10 0-6-5-14-9-15l-5-3c-2-2-3-2-5-1-4 2-6 1-6-3 0-3 0-3 4-4 4 0 5-1 5-3s0-2-3-1l-6 2h-7c-4-1-5-1-9 2-10 5-23 1-15-6 4-5 1-7-5-3l-6 2c-4 0-9 3-10 5-1 3-3 2-5-2v-6c1-4 1-5-1-5s-6-2-8-5-2-4-5-3c-4 0-5-2-2-5l3-3-3-2-3-2 3-2 2-3-6-3c-2 1-3 0-4-2 0-2-2-4-3-5l-3-4-6-6c-5-3-6-6-4-8 2-1 2-2-1-4-1-2-3-3-5-3-1 0-3-1-4-4-4-5-7-5-8-1 0 2-1 3-2 3s-2-4-2-9c1-4-1-6-4-4-3 3-6-2-2-7l1-2-6-2c-9-3-19-2-24 3-2 1-2 1-5-1l-2-3-5 2h-13v-3l2-2c0-2-5-1-7 1l-5 1-4 2c-1 2-2 2-4 1s-2-1-1-2l-1-4-2-2-2 2c-1 2-2 2-4 1h-5l-4-1c-1-2-5-3-5-1l-3 1c-3 0-4-1-6-3s-3-3-6-3l-4 1z"/>
  <path d="M148 581l-7 3c-2 2-8 3-9 1s-6-1-9 1c-4 2-4 3-4 6 0 4 2 6 6 5 2 0 2 0 1 2l-1 6v3l-1-1-2-4c-1-2-2-2-4-2-2 1-2 1-2 8l3 8 1 4 1 2 10-6 7-4c4-1 5-2 10-9 6-8 6-8 7-6s1 2 3-3l3-10c0-3 0-4-3-5s-4-1-10 1z"/>
  <path d="M141 617c-6 4-9 9-10 14-1 8 0 12 1 14 2 3 2 3 4 2l6-3c3 0 5-1 6-4l4-6c2-2 2-2 0-4-3-2-2-4 1-8 2-3 3-4 1-4l-5-3-2-2-6 4z"/>
</svg>
