<svg xmlns="http://www.w3.org/2000/svg" viewBox="0 0 1024 1024">
  <path d="M852 2l-5 1c-3 0-8 5-9 9l-2 6c-2 3-4 4-16 9l-7 4c-1 2-10 4-15 4l-10 2c-3 2-6 2-14 2-10 0-10 0-11 2-2 3-9 7-14 7l-9 3-10 2-7 1h-9l-10-2-6-2c-2-2-2-2-3-1l-5 2c-6 0-14 2-17 3l-6 3-3 3c0 1-13 4-22 4l-15 2c-4 0-5 0-8-3-6-4-9-4-18-1a80 80 0 00-26 13l-13 8c-5 5-19 11-27 12-11 2-12 2-13-1-2-4-6-5-15-4-6 0-10-1-21-5-3-1-3-1-9 2l-8 3-4 3c-5 4-9 6-14 6-4-1-5-1-10 4s-14 10-17 10l-3 2c-2 2-2 2-11 2l-13 1-11 1-12-2c-3 0-5-1-10-5l-6-5-6-4-8-6a137 137 0 01-32-37l-3-5c-2-7-4-10-6-10l-5-4-4-3-21 30-23 32c-3 4-3 5 1 10l6 12c2 9 4 11 13 18 2 2 4 5 5 9l2 6 7 2 6 2 2 8 2 9 4 4c3 1 4 3 5 6 2 5 7 9 13 10 4 1 6 3 18 15l13 13 41 14 114 37 72 24h71l-7 7-155 160-62 64h-8l-67-3-20 6c-15 4-22 6-31 11-17 8-20 10-22 17-1 3-4 8-8 11-5 7-5 7-9 7-3 0-8 1-11 3-6 2-10 2-24 3l-18 1-4 3c-2 2-5 5-5 7l-4 4-3 4-7 11-19 26c-10 15-16 21-26 32l-14 14v275l21 28 22 31 1 3 5-8 7-11 4-5 4-6c0-2 1-3 2-3s3-3 6-11l3-6 7-10c0-1 1-2 3-2a521 521 0 0173-78 219 219 0 0118-21 207 207 0 0130-27 71 71 0 0116-14l7-5 10-10c16-16 59-45 76-53l29-16 27-17a174 174 0 0031-29l9-8a370 370 0 0125-24l5-6a447 447 0 0147-50l29-32 10-13 5-10 8-12 14-21 16-21a262 262 0 0047-100c0-2 2-6 5-9l11-17a184 184 0 0028-47c1-1 2-2 2-9 1-7 1-8 5-13l8-7c8-5 11-8 12-13l2-5 3-4 5-8c4-5 4-6 4-9-1-2 0-3 2-5l3-9v-7l6-5c7-5 12-11 12-15 0-3 3-8 6-9l1-2 4-7 4-6-2-2c-2-3-2-3 0-13l5-18c2-6 2-8 1-11v-7l1-8c-1-4-1-4 3-6 5-4 20-7 22-5l6 2c3 0 4 0 5-2 1-4 0-6-3-6l-6-2h-6v3c1 1-1 2-7 2h-5l3-2c2-2 3-3 3-5-1-1-1-2 1-2s2-1 2-4l-1-4-1-13c0-9 0-12 2-16 3-6 3-8-2-9l-3-5 2-9c1-2 2-6 1-7 0-3 2-8 7-12 3-3 3-4 3-6-1-2 0-5 1-6 1-3 1-6-1-5l-5-1-7-2-3-1-8-3-9-3c-2-1-4-1-8 1z"/>
</svg>
