<svg xmlns="http://www.w3.org/2000/svg" viewBox="0 0 1024 1024">
  <path d="M744 2l-7 1-8 3c-7 3-7 5 1 13 6 7 6 7 10 7l11 2c4 2 9 2 17 3l14 2 3 1-2 3-3 4-7-4c-8-3-8-3-11-1-3 1-4 1-9-1-8-3-9-3-13 3l-5 5c-2 0-2-3-1-6 2-3 2-3-1-5-6-6-14-8-23-6-4 2-5 2-10-2-6-4-25-11-37-14l-27-1-27-1c-9-1-19 0-32 3l-18 3-10 1-4 5-8 16 3 2c2 1 2 1 2 5s-1 6-3 7l-3 3-10-1c-9-1-10-2-12-4-1-2-2-2-8-2-7 0-8 0-12-3-5-3-6-4-17-5-7-1-11-3-16-5-7-4-19-7-28-7l-7-2c-4-3-8-4-20-7-18-4-21-4-30-2l-8 2-7-3c-11-5-11-5-23-5-8 0-11 0-17-2l-11-3-15-1c-5-1-12-2-15-1-5 0-5 0-8 5l-2 5h-6c-5 0-5 0-7 3-2 2-3 5-3 7l-7 19c-8 18-8 19-9 32-1 18-5 34-9 41-2 4-3 5-9 6-6 2-6 3-8 8-2 3-3 10-4 14-1 10-3 12-12 21l-6 7 1 3h6l5-1v9c0 7 0 10 2 12l2 3 3-6-1-3c0-2 0-3 2-3 3-1 4 0 8 5 9 10 10 15 4 21l-5 4-3-4c-2-5-3-5-7-5-6 0-9 3-9 8l-3 10c-3 8-3 9 1 13l3 4c0 2-1 2-4 2-3-1-5-1-8 1l-7 3-5 1c-4 2-23 2-28 0s-10-1-17 2l-6 3-4-3c-3-3-4-3-9-3-6 0-7 0-13 5-5 4-8 6-9 10-2 3-2 4-6 5H73l-7-1-6 8-10 12-4 4 1 6c1 7 1 7 5 8 3 1 3 1 4 7 0 5 1 6 4 10 3 3 4 4 4 11 1 11-1 17-11 38a307 307 0 00-12 22c-4 2-4 5-2 14l2 11v5l-11 8c-7 5-11 9-14 13-4 5-4 7-4 12l1 11 2 12c0 11 2 18 7 22l7 7 10 10c4 4 7 9 8 14l9 13c5 7 5 7 6 16 1 7 1 8 5 14 3 5 5 6 13 11 11 5 13 7 18 15 2 4 4 6 8 8 5 3 6 3 8 10l2 7-2 10-3 11c0 2 7 6 13 7l8 2h6c4-2 5-1 12 2l8 3c3 0 10-7 12-10 1-3 1-3 4-3l7 2c6 3 8 3 11-1s3-4 7 3c2 5 3 14 2 19v9c2 5 2 5 0 10v11c2 7 3 8 7 6 2-1 3 0 4 1 2 2 2 2-1 2-2 1-2 2-2 5s1 4 4 7c7 7 8 10 6 21v11c1 4 2 5 5 5s3 1 4 3c1 3 1 3-4 5l-4 2 2 4 1 7c0 5 0 5 5 8l9 3c2 0 3 0 3 2 0 5 1 7 5 8l3 4c0 2 1 5 3 6 3 4 6 11 6 15 0 2 1 3 4 4 5 1 6 3 4 8-1 3-1 3 1 6l6 6 3 3c0 3 2 7 7 12 3 3 4 4 4 7 0 2 1 3 3 5l4 4c1 3 1 3-2 6l-4 3 7 4c5 2 7 4 8 6 2 2 2 3-1 7l-2 5 5 3 9 7 5 5v6c-1 7 1 11 11 22l13 16 6 9h16l15 1 4 4c4 4 11 8 15 8l3 4c1 5 1 5 6 6 9 3 13 3 19 2 6-2 7-2 11 0l9 6c6 4 13 5 22 3l7-2 6 4c8 5 25 10 33 10l11-2c5-1 7-2 12-7 6-6 7-10 4-15v-18c1-4 2-9 1-10l-10-12-10-12c0-2-1-3-8-6-4-2-5-2-5-7-1-4-1-6-4-8-3-3-12-6-15-6-5 0-7-4-3-8l4-5 4-8 2-5 3 2c4 3 4 3 13-5 6-6 7-7 6-9v-14c1-9 2-10 4-13 1-2 3-3 5-3 5 0 13 4 19 10 5 5 5 5 15 7 14 3 15 3 15 8 1 3 2 4 5 6 4 2 5 2 9 1l10-3c4 0 8-1 11-3 5-2 5-2 11-2h18l13-2 7 2 7 3 3-4c2-2 4-4 4-9l2-5 6-3 10-2c15 2 13 3 18-3l5-6c0-1 7-3 11-3s4 0 6 4c2 5 5 5 10 1 6-6 16-12 20-12 3 0 5-1 8-3l5-4c2 0 0 5-3 10l-3 7 5 5c4 2 6 4 8 8l5 8c3 4 4 4 12 6l9 1 5-4 5-5 7 1 11 1h4l-1 5v7c0 2 0 3-2 5-4 3-4 5-1 9l3 5c0 2 2 3 4 3 7 2 10 1 16-3l6-4 6 2 7 2 3-2c4-3 5-5 8-16l6-1h6l8-9c8-8 9-10 10-16l6-11 5-12c1-5 2-7 7-12l13-18c8-11 9-13 9-17s1-5 4-8c3-4 3-4 1-5-3-2-3-10 1-16l5-12-3-3c-3-4-3-5-4-11l1-9c1-1 2-3 2-7 0-5 0-5-3-6l-5-2c-1-2-1-2 2-10 2-6 4-8 6-9l11-13c1-3 4-7 7-9 5-5 5-5 5-11s0-6 4-10l8-11c5-8 5-10 5-16 0-7 2-20 4-25 1-2 1-3-3-8-2-4-4-6-5-5-7 2-10 0-13-11l-8-15c-5-7-5-8-13-11l-8-4-1-5c-1-5-2-6-5-9l-6-6-7-8c-4-4-5-6-5-9-1-4-6-11-11-15-8-5-7-4-5-8l4-9 3-9 2-4-4-3-6-4-5-1c-3-1-4-2-5-5l-1-8c0-10-2-25-5-34l-4-24c-2-13-2-14 0-17s2-6 2-24v-20l-6-3-5-4v-13l-2-19-1-5 3-3c4-4 6-10 6-19s3-14 11-21c7-5 8-7 8-12l4-5 7-10 7-14c4-7 5-7 14-12 11-5 16-10 29-32l14-15 12-11v-6c1-5 0-8-1-11-3-8-3-14 2-23l8-19-4-2-6-5-5-7c-3-3-4-4-8-4-7 0-11-1-21-7-8-5-9-5-13-4l-18-2a370 370 0 00-48-7c-14 0-24-2-34-7-6-3-9-4-14-4l-11-2c-6-3-9-3-35-4-21-1-30-1-37-3-11-2-11-2-15 0z"/>
</svg>
