<svg xmlns="http://www.w3.org/2000/svg" viewBox="0 0 1024 1024">
  <path d="M735 134v10l1 11-1 3h-26l-26-1 12 12 12 10v47l3 4 4 3-16 15-22 18c-5 3-6 4-10 13s-7 13-28 38l-23 28h-16c-12 0-17 0-21 2l-5 1-4-4-10-9c-7-6-54-36-58-36l-17 9-17 9v8c0 8-1 17-3 18l-16 2c-14 1-17 2-21 4l-5 2v-38h-48l-49 1a169 169 0 001 40l2 5-35-1-33-1-6 3-24 9-27-6c-4-1-8-10-12-21-2-7-3-9-9-16l-12-13-6-5 1-9c0-10 1-10-11-11-8 0-9 0-12 2s-5 2-13 2c-16 0-34 5-38 12-2 3-2 4-1 7 3 5 0 9-13 22l-12 11-1 13v13l-6 4c-6 5-6 5-6 10l-2 7c-2 3-3 11-1 22 1 7 1 7-1 10s-5 4-22 11l-19 6-1 4c0 3 0 4 2 5 3 2 3 2-5 10-3 3-3 4-2 7 0 5 1 5 8 10l6 4 7-1c6 0 6 0 8 2s5 2 18 4l15 1 4 9c3 8 4 10 8 13s5 4 8 3l3-1c2 0 6 6 8 13l2 7-3 2-4 1v13l4 1 11 11 9 9 18 7 19 8 15 17a83 83 0 0026 22l-3 5-3 3 1 9v9l10 6 10 6-3 6-3 6 3 1 8 4c4 4 4 4 11 4h6l16 11c14 9 16 11 19 17 4 5 4 6 4 18l2 15c0 1 4 5 9 8 9 7 9 7 7 9l-3 1 3 6c3 6 3 6 9 8 4 2 7 3 8 5l5 6 3 7c0 4 1 6 3 8 2 3 3 3 10 3h8l2 5c2 5 3 6 5 6 3-1 3 0 5 4 3 5 3 6 11 4 4-1 4-1 6 2l3 3 11-5c9-5 12-7 16-12l5-6 4 4c5 3 5 3 14 2 6-1 6-1 16 5 9 6 10 6 12 5 14-12 14-12 16-19 1-6 1-6 5-6 3 0 8 2 19 7l6 2 1 8v8l6 4c3 2 5 4 4 5l9 8c9 6 9 7 11 13l2 6 15 4c12 3 15 5 16 6l2 11v9h8c6-1 8-1 9-3l2-2 5 5 4 6c1 1 3-2 5-6l3-7 8-4 14-5c5 0 6 0 18 5l13 6 6-4 11-6 4-2 5 5c4 3 6 6 6 7 0 2 17 12 22 12l1-3c0-4 1-4 9-10l10-7h26l13-6 14-6 7 5 7 6 16-1h16l37-37 37-37 48-1 68-2h19l-2-3c-11-14-11-13-12-25l-2-11 2-1 3-2 1-5v-8c1-3 1-4-2-7-2-2-6-3-14-6l-11-3-7 4-8 4-2-2-2-7c-1-5-1-5-9-10l-9-5-5-12c-6-10-6-11-6-18 0-6 0-7-4-13-6-9-13-26-14-33-2-12-6-16-18-19l-6-1v-5c0-5 0-5-4-9-3-3-5-4-8-4-9 0-10-1-14-9s-5-9-10-12c-6-3-6-3-6-8 0-4 0-4-7-10l-14-14c-7-8-9-9-13-9l-10-3c-6-2-6-2-12 0l-6 1-4-3c-4-2-5-2-13-2s-8 0-9-3l-1-6v-6c1-3 9-12 11-14l2-3 1-5v-4c-3-4-2-9 1-13 3-3 4-3 18-4 17-2 16-2 26 4l5 4 3-3c2-3 3-4 6-4 8 0 11-2 16-8l4-6-1-32-3-37v-4l-10-5c-10-5-14-8-15-16 0-4 0-5 6-13l7-10-4-23-4-2c-3 0-4-1-6-7-2-5-4-8-12-15-5-5-12-12-14-16l-5-6h-7c-6 0-7 0-10-4l-4-4 2-3c1-3 1-3-4-33l-6-33 3-12 5-31 2-8 2-3h-4a907 907 0 00-42-1z"/>
</svg>
