<svg xmlns="http://www.w3.org/2000/svg" viewBox="0 0 1024 1024">
  <path d="M749 4l2 6c1 2 1 2-1 4l-4 3c-2 0-3 1-4 3-2 2-2 3-6 3l-5 1c-2 2-4 2-7 0l-5-1c-1 1-2 0-4-2-2-3-4-4-5-2l-3 2c-2 0-3 1-3 4v4c2 1 1 5-2 8l-2 3 3 4 3 5-2 6c0 3-2 6-3 7v3c4 0 7 2 7 5l2 4c3 3 2 6-1 8-7 2-10 4-11 9v7l2 4 2 4c2 0 2 1 2 5l2 7c3 5 1 13-4 15-2 1-3 2-4 6v8c1 3 0 5-5 5-4 1-7 3-7 5s-2 2-4 0c-2-1-2-1-4 1s-2 2-5 0h-8c-6 2-8 2-8-2 0-2-1-4-4-6-4-3-4-3-9-3-4 1-5 2-7 5-3 4-4 10-1 10s7 3 7 5 0 2 4 1c4 0 5 1 3 3l-2 3-1 5c-2 2-2 3 0 9l3 7 2 4c0 3 1 4 2 4 2 1 2 1 1 4-1 2-1 4 1 7 2 4 2 4-3 13-1 1 0 4 2 8 2 6 2 6 6 6 3-1 4-1 4-4l3-4 4-2 4-2 5 1 4 2 2 2 3 3 2 3 1 1c0 3 5 7 10 9 7 2 9 3 9 1-1-1 0-2 2-3h3l5 6c4 4 5 5 4 7l1 4 1 2c0 1 1 2 3 2 3 1 4 0 7-2 3-4 3-4 9-3h7l2 8 1 4 1 3v6l1 2 3-3c2-1 4-4 5-7v-5l-3-6-2-5-2-3-1-1c-2-1 0-5 4-6 3-1 3-1 2-3s-1-2 1-2l3-2c5-6 8-8 10-8l3-2c1-2 6-3 9 0l1 4c0 5 2 6 6 3l4-2c4 0 3-10-1-11s-5-5-2-7l3-1v-3c0-2 0-2 2-3 1 0 2-1 2-3-1-6 0-8 2-9 2 0 2-1 2-8v-8l-1-3-3-4-1-2-2-3c-2-1-3-7-1-8v-4c-2-4-1-6 3-7 5-1 19-13 19-17 0-2 1-3 4-3l5-3h7l4 3 2 2 4-3 5-6c0-1 2-3 4-3 3-1 7-7 6-9v-3c1-2 1-2-1-3l-4-4c-1-3-4-4-4-1 0 2-1 2-3 2l-4-1c-1 0 0-3 2-5 4-4 4-8 0-8l-4-2c-2-1-2-1-4 2l-2 3-4-2-5-4-2-1c-2 0-4-4-4-6 1-1-1-5-2-5l-2 2-5 2c-6 0-11 3-13 8-2 4-3 5-6 2-2-1-3-4-1-6l1-2 3-3 2-3c0-2 2-4 4-3 2 0 4-3 4-7l2-4c1-1 3-2 3-4l5-3h6c1 1 4 0 7-1l6-2-2-3-3-4c0-2 6-9 9-11s3-2 6-1l4 4 3 2 3 2c2 2 4 2 6 1s1-4-2-7c-2-1-2-2-1-3l2-1c3-2 1-7-2-8l-3-2h-2c-3 1-5 1-7-1l-4-2-3-4c0-3-2-5-4-5l-6-4-6-3v3c0 5-2 7-7 11l-5 3-2-3-1-4c0-1-2-2-3 0l-2 1-3 1c-2 3-4 2-6-1s-3-4-6-4l-4-3c-2-2-4-3-6-1h-4l-5-2c-2 1-6-1-9-3-2-3-2-3-4 1-1 4-4 5-5 2s-5-5-7-5l-1 4z"/>
  <path d="M505 292c-2 2-7 3-10 1h-9l-5 2c-2 3-4 3-8 3s-5 0-6 2c0 2-5 1-10-1-7-4-14-3-18 2-2 2-2 2-7 0-4-2-5-2-8-1-3 2-4 2-5 0s-4 0-3 4l-3 7-3 7-2 2-12 12-4 3c-5 1-11 5-12 8-1 4-7 9-10 9-1 0-4 3-8 10-7 10-7 11-12 13l-11 5c-5 3-6 4-9 2l-13-1h-9l-5 4c-4 4-5 6-6 10 0 5-1 6-6 6-3 0-9 3-14 8-2 1-4 5-5 10l-5 9-8 1c-8-1-8-1-18 10-7 7-9 8-12 8l-4 1-4 2c-4 0-7 2-9 6l-2 6v14l-1 4-1 3-1 7-3 7-3 6-2 5-2 5-2 9-3 6c0 1-4 3-8 3s-15 11-15 16c-1 10-2 18-4 20l-2 5c-2 6-2 7-4 7l-1 1 1 1 1 2c-1 1 0 3 3 5 3 4 4 7 2 7v2c1 2 0 5-2 5s-3 2-1 4v3c-1 1-1 2 2 7 3 4 3 6 2 7-1 3-2 8-1 10 3 6 3 7 3 10l1 7v5l-3 1-3 2c-1 2 0 3 2 1 1-1 2-1 4 1 3 3 3 3 2 7-2 8-1 11 4 16l4 6 2 2 2 2 2 3c3 3 4 7 3 9v8c2 6 2 27 1 31-1 3-1 3 1 3l3 2 2 1 3 4 4 5c4 1 5 5 2 5s-7 4-6 5l2 1 3 3c1 3 2 3 5 3 3-1 3-1 6 3 4 5 5 9 3 11v6c0 5-1 6-5 6-1 0-2 1-2 3-1 4-1 5 4 3 3-2 3-2 6 0l2 3 2 2 1 1c0 2 6 4 8 3h12l4 8c4 8 5 11 3 14l-3 4c-1 3-1 3 1 4 3 0 4 5 3 8v6c3 4 2 6 0 7-1 1-2 2-1 3 1 2-1 6-3 6h-2l2 2c2 2 2 3 2 6v7c1 1 1 2-1 3-2 2-2 5 0 8 1 1 0 6-2 7h-4l-6-1c-1 0-2 1-2 3l-2 4c-1 2-1 2 1 2s4 1 6 5l3 6 2 3c2 2 2 3 1 6l-1 5c-3 3-3 4-1 3 2 0 3 3 1 4-2 0-3 9-1 9l1 2 3 1c2-1 2 0 3 2 0 2 1 3 2 3l2-1 1-4c1-5 1-6 5-4 2 1 3 0 5-1 2-2 2-2 5-1 4 1 4 1 6-2l3-2c3 0 4-3 3-6v-3h1c0 3 3 2 4-1l-2-3c-3-2-3-2-1-6l1-6c-2-2-1-4 1-6s5-2 6 0l2 2c1 0 2 1 1 2l2 2c2 1 3 2 4 5l1 7c-1 1 0 1 2 1s3-1 3-2l2-1h3c3-2 3-2 4 1 0 3 3 4 3 2l2-1c2 1 3-2 2-5v-3c2-1 2-1 0-4v-5l1-5c0-3 5-8 7-6l1-3c0-4 2-5 5-4 1 0 2-2 0-4s-3-7-2-9v-6c-2-7-1-13 4-16 3-3 3-4 2-6-2-5 0-6 6-9 7-2 11-2 12 1l2 4c2 1 2 1 3-1l2-1 2-1c1-2 3 0 3 3l2 4v3c-1 1 0 2 1 3 2 2 3 2 4 1l1-3c0-1 1-1 6 1l6 1h1l2 1v-4c0-4 0-5 2-6l2-3h8l3 1 11 2-3-3c-2-3-2-3-1-5l4-1 3-2 3-3 3-3 4-5c6-6 6-6 7-4l3 1v-6c1-3 1-3 4-2h9c4 0 4 0 4-3-1-5 2-7 16-7 9-1 11-2 14-7v-8c2-1 1-8 0-8l-6-3-5-4c-2 0-2-1-2-3 0-5 4-9 7-8l6 1c3-1 3-1 3-5-1-6 0-7 4-7l4-1c0-2 6-6 9-6l6-3 6-3c2 0 3-2 3-3 0-2-4-1-6 0-3 2-3 1-3-4l2-8c2-2 2-2 5-1l5 2c2-1 1-4-2-5-2-1-3-1-2-3l1-3c1-3 6-2 10 1l5 2v-6c0-6 0-7-2-7-3 0-4-6-2-8h5c4 2 9 2 12 0 2-2 1-4-2-6-2-2-2-3-2-5 1-4 6-7 7-5s6 0 6-4l4-3c4 0 5-1 4-7l3-5c2-2 3-4 3-7s0-4 3-5c1 0 2-1 2-3s4-4 7-3c2 1 7-1 11-4 3-3 4-3 6-2h3c3-4 4-7 4-10 0-4 0-4 3-4 5 0 7-1 7-3l-2-1c-1 1-2 0-2-1-1-2 0-2 1-2 2 1 3 0 6-2l4-3c1 0 2-2 2-5l3-8 2-5c0-1 1-2 3-2l4-2 1-2 1 2c2 2 6 3 7 1 2-1 0-4-3-5l-2-2-1-3c0-2 0-2 1-1l6-2c3-1 3-2 3-6s0-5-2-6c-4-1-4-2-4-6v-7c1-2 1-2-1-4-3-2-2-5 1-6 3 0 5-3 4-7v-3c2-2 7-3 9-2h1c1-1-1-3-5-5l-5-5-2-4c-1-3-1-3 1-7l4-5 4-1c2-1 2-1 0-4v-5h5c4 2 8 1 9-2l1-4 1-4c2-3 1-5-2-4l-5-4-5-4-2-3-2-4c-2 0-4-7-3-10 0-4-4-11-7-11-2 0-4-1-5-3-2-3-2-4-1-9l1-8 1-6c0-1 0-2-2-3-2-2-2-3-3-11 0-8 0-10-2-12-2-3-3-4-3-1l-2 4-3 4c0 3-1 3-7 2-5-1-6-2-10-6-5-5-6-10 0-16 4-4 4-9 1-11-2-2-6-2-9 0-4 2-7 1-10-4-2-5-3-12 0-14 4-4 8-7 10-7 3-1 3-1 3-3l-2-5c-1-3-1-3-5-3-3 0-5 0-7-2s-2-2-5-1l-6-1-6-1-3-1-6-5c-6-4-6-4-7-14-1-6-3-10-6-12s-11-4-22-6c-10-2-17-4-17-6l-2-1-6-2c-5-3-5-3-7-1z"/>
  <path d="M270 994c-2 2-4 3-6 2l-2 1c0 2-1 2-2 1l-5 2c-1 2-3 3-4 2-2 0-5 2-4 3l-2 3v3l-1 1-1 2h4c3 0 4 0 4 2v3l2 3c2 2 2 2 4 0h4c3 1 7-1 6-4l1-2 4-4 2-3-2-3c-3-4-4-5-1-5l1-2 1-4v-3l-3 2z"/>
</svg>
