<svg xmlns="http://www.w3.org/2000/svg" viewBox="0 0 1024 1024">
  <path d="M284 223l-7 1-7 4-4 7c-5 5-9 6-14 3l-5-1c-2 0-2 1-2 7l-3 15-3 10h5c5 0 6 0 12 5l6 5v23l-5 6c-4 7-5 7-12 11-12 5-19 6-36 9l-17 3a97 97 0 00-28 30l-9 14-25 11c-22 9-24 10-30 15l-10 7c-3 1-5 2-7 7-4 6-11 13-15 13l-7 3-10 8c-6 3-7 4-8 9-2 5-2 6-9 9-5 3-8 6-10 9l-7 8c-3 2-5 6-8 10l-3 7 1 8 2 7-4 8-5 9 4 2c26 15 27 15 36 13 3 0 5 3 3 6v2c1 2 33 20 42 24 11 6 31 23 30 27l4 19 4 5 5 3h15l21 1c6 1 7 1 12-1l5-2 18 6c16 5 20 6 29 7 11 0 12 0 16 4 4 3 4 3 11 3h30c19 1 22 0 26-1l4-2 3 3c5 4 9 4 22 4h8l19 10a918 918 0 0058 32 228 228 0 0049 25l-3-4c-2-3-2-3 0-3l4 2 3 3 5 2 3 1-3 1c-2 2-2 2 13 9l18 8c2-1 1-1-5-6-7-6-8-8-1-4l9 3c3 1 4 2 7 7 2 4 3 6 2 7-2 1-3 0 10 8 15 9 32 15 54 19a840 840 0 0196 26l11 5-1-5c-1-6-6-10-13-10-3-1-7-2-9-4l-10-3-9-2-3-2h5l5-2-8-8-7-8-10 1-10 2c-2 2-7 4-11 4l-6-2c-3-2-7-3-10-3l-7-3c-1-2-1-2 2-2l4 1h4c3-2 12-2 15 0l4-1v-5l-2-3 3-1c3 0 4-1 4-3 0-3 2-2 4 1l1 4h9c11 1 12 2 21 14l5 6h8c7 0 9 0 10 2 1 1 0 1-6 1-7 0-8 0-6 5 0 2 1 2 8 2l11 1h8c4-2 5-4 3-7-3-2-4-9-2-9 3 0 4 1 8 11l5 9-3 6-3 8c0 1 4 3 7 3l20-4-3-2c-2-2-2-2 6-3l13-5 4-2v2c1 4 1 4-2 5-4 1-4 1-3 4l3 3 16 3c19 5 29 5 55 4 18-1 22-1 23-3l9-1a1232 1232 0 0064 5l19 2c3 0 3 0 3-3s-1-4-5-7c-8-6-8-6 14-15l19-8 11-12c15-14 15-14 4-25-7-6-8-7-14-9l-7-2-4-9c-2-7-3-9-2-11 1-4 14-24 15-24 2 0 1 2-1 5-3 4-1 8 7 13l7 4c2 0 5-5 6-9 0-5 1-5 5-7l10-4c3 0 5-1 8-5 2-3 3-5 3-9s0-5-4-8c-3-2-5-3-10-3-12-2-12-2-14-8v-14c0-8 1-9 4-13 7-8 11-22 11-35 0-10 2-15 9-24l5-6-3-5c-6-7-5-10 1-15 8-6 9-11 3-18l-7-12c-4-6-4-7-10-10-6-4-7-5-11-12l-7-9c-1-1-4 0-11 5l-10 6-7-2h-16c-7 2-8 2-11 0l-3-2-12 6c-10 5-11 5-15 4-3 0-4-1-7-8-11-19-16-29-16-33s0-4-7-7c-8-3-9-3-22-1h-18c-12-2-19-2-19-1l2 8c2 6 2 7 0 10s-7 6-10 5c-2-1-4 0-7 4-5 5-8 7-15 7-10 1-20 5-24 8-7 7-8 7-19 7-10 0-10 0-14 3l-8 3-5 1-4 2c-3 1-4 1-9-4-5-4-6-6-7-10a174 174 0 00-7-23l2-6c2-5 2-5-1-8-1-2-5-4-9-6l-10-5c-7-7-9-8-14-8l-6-2c-3-3-9-4-18-3-10 2-12 1-17-7-2-4-3-4-8-4l-10-2c-5-1-6-2-7-6s-1-4 1-8c3-4 4-9 2-15 0-2 0-2-6 2l-6 3-5-1-13-3c-9-1-11-3-13-10-3-9-12-22-23-30-6-4-8-5-11-5-9 0-21-6-21-10 0-5-3-9-10-14-9-7-12-11-13-21l-3-11-9-6c-8-4-9-5-18-5-11-1-16-3-23-8l-13-4c-4 0-12-3-21-7-12-5-16-6-23-7h-7l-16-10c-22-14-24-15-33-10-6 3-7 3-13 0-2-2-5-3-5-2z"/>
</svg>
