<svg xmlns="http://www.w3.org/2000/svg" viewBox="0 0 1024 1024">
  <path d="M892 60l-9 7c-5 5-10 5-23 3l-22-1h-12l-8 5-7 4-1 6-4 9-3 3 4 17 4 18-4 2c-4 2-6 2-11 1-7 0-7 0-9-4-1-3-2-4-7-6s-8-3-13-3-7 0-12-4l-17-9c-12-5-12-5-17-4s-6 2-8 5c-2 4-2 6-2 15l-1 15v25l-3 19c-1 13-2 16-5 24-5 10-14 19-28 30l-13 9-5-1-20-1c-14-2-14-2-21-6-5-3-7-5-9-8-3-6-8-8-16-8-5 0-5 0-7 5-1 3-2 5-5 6-4 1-4 1-3 5 0 3 0 5-2 9l-3 5h-11l1 13v14l-6 4-13 10-11 7c-5 2-12 9-16 18l-3 8-11 6-11 5-1 7-2 7 6 14a181 181 0 017 20c1 3 2 4 7 7l7 4 1 6v5l-9 13-19 29-11 16 1 6 1 6-13 13a77 77 0 01-41 24c-18 5-18 5-18 9-1 3-2 4-8 9l-7 5-14 2-13 1-14-5-20-9c-6-4-8-4-13-4h-6l-7-8c-6-7-8-9-15-12-7-4-8-4-15-14-8-11-10-15-10-18 0-2 13-15 18-17 8-4 8-7 1-11l-6-5c-1-1 1-4 5-9l9-19h-16c-3 0-4 1-5 2l-4 9c-4 6-5 8-9 10-16 7-25 14-28 21l-6 9c-3 4-3 5-12 7-12 4-24 4-36 1-8-2-24-11-38-20l-21-12c-12-5-15-6-25-8s-12-2-20 0c-5 0-11 2-13 3l-11 2-6 2-1 13-1 15-6 8c-4 6-6 8-12 11l-8 6-6 6c-3 3-3 4-5 10l-1 8 8 5 14 8c6 4 28 13 40 17l13 5c8 4 11 6 17 12l7 8-2 11-4 12c0 2 1 2 6 4 6 2 7 3 14 12l8 10 7 1c6 1 11 3 26 10 21 10 26 14 32 21 5 6 5 5 2 19 0 3 0 4 10 13 8 9 11 11 17 14 7 3 8 4 11 8s4 6 7 6c16 4 16 4 18 9 2 4 3 5 9 5 3 0 4-1 10-12 7-15 9-17 22-18l26-1c24 0 34 3 56 17 6 4 14 9 18 10 5 3 6 4 13 14 9 13 10 16 10 25v6l-5 3c-2 1-6 5-8 9l-4 6 1 6 2 6 8 3c7 3 8 4 11 8l7 8c6 4 12 4 22 1l9-2c8 0 45 9 49 12l1 4 5 13 3 9h4l12-4c14-6 13-6 25 3l14 12c4 6 10 9 18 7 5 0 5-1 10-9l4-6h6l35 7a364 364 0 0113 43h3c4 0 4 0 6-6 1-7 1-11-3-34l-2-11 9-7 20-12c11-6 12-6 19-6l14 1 12 2c9 1 31 11 35 15 4 5 5 7 3 19l-2 11 3 7 4 12 6 10c2 3 3 4 2 7l-7 11-5 5-1 13-1 14 4 7 6 7 14-4 7-6 8-9c7-10 12-17 12-20s1-4 6-8l11-6c13-4 14-5 15-9 2-3 2-4 6-4 4-1 6-2 9-6l4-8c1-3 2-7 4-9 2-5 3-6 10-8 7-3 7-4 10-8 3-7 3-15-1-29-3-10-3-10-1-11l7-6c2-3 7-7 11-9 3-2 8-6 10-10 4-4 5-6 5-9 0-4 1-5 5-10l5-6-9-6-8-4 1-7c0-4 1-11 3-15l3-15c1-7 2-8 7-14 5-5 9-7 14-10 7-4 8-4 12-11l9-9c4-2 5-3 5-8l-2-13-3-20-1-13c-1-1 1-3 6-7s7-7 9-11l2-5-3-1c-1-2-4-2-10-1h-7l-8-7-7-7 3-5c4-7 7-7 15-2l10 6c3 3 3 3 8 3h6l1 6 2 6h11l4-6 5-7v-7l-3-11-6-13-3-9 2-6c0-4 2-9 4-13 3-7 3-14 1-22-1-5-2-6-5-9l-5-3-5 3-7 2-7 4c-7 7-7 7-23 3-21-5-21-5-26-10-4-4-5-5-10-5l-14-7c-10-5-11-6-22-4-5 1-7 2-10 5-4 3-5 4-10 4-4 0-5 0-7-2-1-1-1-3 1-8 1-5 2-7 6-11l5-6 4-7c3-4 3-4 10-4 6 0 7 0 13-5l12-7c4-3 5-3 6-7l2-6 6-7c5-6 6-6 14-8l8-1c2 1 1 5-1 11l-6 15c-3 12-3 10 6 35 6 14 6 16 15 23 5 4 7 5 10 5 4 0 4 0 5-5 1-3 1-3-3-4-5-2-8-5-17-26-7-17-8-20-2-27l3-7 1-5c0-3 1-3 7-5l6-2 7 2c6 2 6 2 11 0l5-1v-6c0-6 1-7 4-13l10-15 5-9c1-1-7-5-15-7-15-4-32-16-49-35l-14-17-6-14-4-10v-20c0-20 0-21-2-28l-3-11c0-4-1-5-8-14-8-10-9-11-10-17l-1-7 5-7 4-8h7l22 2 7 4 6 3 6-4c5-3 6-5 7-9 3-8 3-14-2-20l-7-10c-3-4-3-4-5-18l-1-30V84l-7-6c-7-6-15-10-25-14l-14-5-7-3-6 4z"/>
  <path d="M988 189c-6 2-7 3-10 8l-3 10v4l8 5 7 4 5-3 15-5 10-2v-7l-1-7-7-5c-7-5-8-5-12-5l-12 3z"/>
  <path d="M1020 327c-3 1-4 2-5 4v14l4-2c3-2 5-8 5-13 0-4 0-4-4-3z"/>
</svg>
