<svg xmlns="http://www.w3.org/2000/svg" viewBox="0 0 1024 1024">
  <path d="M994 46l-14 12c-9 8-10 9-17 11l-12 4c-5 3-17 6-24 6-4 0-9 2-16 6-5 4-18 5-39 5-15 0-19 0-25-2-5-2-10-2-20-2l-23-1c-15-1-21 0-30 7-9 6-20 11-25 11-4 0-21 9-36 19-11 7-13 8-19 9-7 1-9 2-18 9l-16 10c-5 3-17 6-24 6l-9 2-20 5a290 290 0 00-33 5l-13 2c-5 1-6 1-9-1-6-3-17-4-41-3-29 1-29 1-33-5-2-4-6-7-17-14a95 95 0 00-30-17c-18-5-29-3-45 8a76 76 0 01-44 17c-7 0-25 7-39 15-8 5-15 7-18 6-7-2-20-3-30-3s-12 0-14 2c-4 3-5 2-8-1-3-2-3-3-2-7 0-3 0-5-2-8s-2-4-19-9c-20-7-28-9-32-6-3 2-10 16-10 21l-2 6-1 11c0 9-1 10-3 13-3 4-3 5-3 13v9l4 5c4 3 4 4 3 6-1 4 0 6 3 6l6 3c3 2 3 3 3 8 0 7-1 7-13 7-9-1-10-1-17 1l-8 3c-1 0-2-1-2-3l-3-3c-4 0-4 1-2 5 1 4 1 4-1 4l-1 4 2 12c0 9 0 9-3 13-2 4-3 5-6 5-4 0-4 1-5 4l-1 4h-5c-8-2-11 2-13 17-1 8-4 10-6 3-2-3-2-4-6-4-8-1-10-3-10-8l-1-5h-6c-9 1-13 4-14 8 0 2-1 3-3 4l-5 3-4 2c-2 0-2 0-1 2l3 18c0 4-3 8-9 10-4 2-4 2-3 4 2 3 1 10-2 12l-2 5c-1 2-1 3 1 3 3 1 21 18 24 22l1 16c0 14 0 15 3 19 2 5 2 5 1 10l-5 12-3 12c0 6-1 10-3 16-1 3-1 4 1 12l2 12 8 31c3 7 5 8 25 9l21 2c4 1 4 1 6-3l2-3 4 2 7 3 5 2c3 0 5 1 5 3 0 1-1 2-3 2-4 0-6 2-6 5l-2 4-3 5c0 3 0 3 6 5 7 2 12 5 18 12 3 3 3 4 3 8-1 6 2 15 5 15l3 1v3c-2 3-2 7-1 11 3 5 3 7 0 8-2 1-3 2-3 5 0 2-1 4-4 6-4 2-4 3-4 6s0 4-4 6l-9 1h-4v3c0 3-1 4-7 10l-10 9-4 3 2 4c1 3 2 3 6 3s5 0 7 2c2 3 2 3 1 6-3 5-5 5-11 1l-5-4-10 1c-8 0-11 1-13 2l-6 2c-3 0-4 1-9 7l-12 17-2 4c-3 2-2 6 2 6 2-1 2 0 4 2 0 2 2 3 3 3l5 3 3 3-2 2-6 3-6 2c-4 2-4 2-4 6s-1 6-4 10l-6 5c-5 0-7 1-10 7-2 5-3 6-10 9-4 1-7 4-8 5l-4 3-12 6c0 1 4 2 8 1h3v3l-2 8c0 3-1 9-3 12l-2 13-2 8-1 16c0 16 1 22 5 26 3 4 3 9-3 15l-3 4 4 1c3 0 5-1 11-5 9-6 11-6 20-2l8 2c3 0 4 0 5 2 2 2 3 3 6 3h3l-3 1c-3 2-3 1-3 4 1 2 2 2 6 2h5v5l4 10 3 8c0 2 1 2 7 2l10-1c2 0 3 1 8 5l11 9 10 9c5 7 5 7 11 7l8 2 15 3 16 3 5 1 12 2 7 2 2-3c1-2 25-18 76-51 88-56 259-159 448-270l118-69 6-14c6-15 16-35 23-48l5-9-2-37-3-43 3-13c4-7 4-9 5-24 1-18 0-16 11-33l5-8v-18c0-18 0-19-4-26l-10-20-8-13 2-28 1-29 9-16c8-16 9-17 12-18l32-8 29-7 38-43c35-40 40-47 36-47-2 0-2 0-1-6 1-5 1-5-1-8s-2-4-1-9l1-6-5-4c-3-3-6-4-9-4-5-1-5-1-4-4 0-3 0-3-3-3-2 0-4 1-6 4z"/>
</svg>
