<svg xmlns="http://www.w3.org/2000/svg" viewBox="0 0 1024 1024">
  <path d="M492 6l-27 5-18 22-18 21-40 28-40 27-16 44-16 43-14 25-36 61c-19 34-22 38-27 42l-24 21a85 85 0 00-24 25c-5 9-10 14-18 23l-11 11-7 19c-13 35-13 35-20 90l-7 51 1 52c1 43 1 54 3 59l1 6h5c5-1 6-2 10-6 4-5 5-5 9-5s6-1 11-5c7-4 7-5 10-11l2-6a1020 1020 0 016 42c2 5 12 16 18 21l12 9 6 6-1 12c-1 10-2 16-6 29l-5 16 6 14 5 13 21 20 22 19 21 34 22 35 95 43 95 44 136 9 136 10c3 0 3-7 3-64l1-55 5-22c5-18 6-25 6-34 1-10 2-14 6-29l7-30 9-43 6-30 5-4c4-3 4-3 7-2l4 5c2 3 2 3 7 3l8-2c5-2 16-3 21-1 2 0 2 1 2 4 0 5 4 14 8 14l3 1 8-100 9-99-15-37-14-37 2-37 2-37 11-38 10-39-3-42-3-42 4-8c3-6 4-8 3-9a1895 1895 0 00-46-9h-3l-14-29-31 10c-20 8-29 11-30 10A42928 42928 0 00521 0l-29 6z"/>
</svg>
