<svg xmlns="http://www.w3.org/2000/svg" viewBox="0 0 1024 1024">
  <path d="M94 224c-1 2-2 5 0 8 1 2 0 3-3 7-3 3-4 4-5 3h-2c-3 3-5 15-3 16v2l2 5 2 8c1 4 1 5-1 7-2 1-2 3-2 6 1 8 3 11 8 14l5 2-1 6-2 10-2 8c3 11 3 12-2 21l-5 9-1 1c-1 1-2 3-2 7-1 9-4 17-8 22s-5 6-2 9c1 3 2 8 0 8l-1 3-8 15-2 4-1 4-3 6c-3 4-3 5-2 12 0 7 0 8-2 11s-3 6 0 8c1 1 1 5-3 14-2 8-6 14-9 14l-3 2c-2 5-7 10-14 15-13 9-16 14-10 16 5 2 7 3 8 5l1 17c0 14 1 16 2 18 2 2 2 2 1 5l-1 7c0 5 0 5 2 4l2-6 1-6c1-2 0-3-2-5-3-3-3-5 1-10 3-5 4-7 2-8s-5-7-5-10l-2-6c-2-4-2-9 0-9l3-1 4-2 3-1v5c-1 8 0 12 3 12 2 0 2 1 2 4s0 3 2 3h2l-4 10c-5 9-9 24-6 21l2-4 6-16 3-5-1 5-1 7v4c1 2 1 2 3-2l2-11c0-4 0-6 2-6v9l4-1c5-1 8-4 8-7 0-2 0-2 3-2 3 1 3 1 3-2 0-2 0-2 2-2 2 1 2 4 0 10-1 7-1 12 2 15 2 3 1 14-2 20l-2 7c1 1 2 0 5-7 4-8 5-9 5-18s1-10 2-11l1-5 1-4c1 0 2 1 2 3l2 6 4 9 1 5 3-2c4-2 4-3 4-7l1-7c2-3 1-4-2-2-2 3-3 2-3-2s0-5 4-2c2 1 4 1 4-2l1-3c1-1 1-1 4 1 2 2 4 2 4 1 1-1-1-5-4-5l-2-2-3-5c-4-4-5-12-2-16l2-8 1-5h3l3 4 2 6-1 6c-1 1 1 9 3 11l1 6 2 7 1 12-2-4c-1-4-1-4-3-4-2 1-4 0-5-1-5-3-6 2-1 6 3 4 5 8 6 17l2 11c3 8-4 26-19 55-2 5-3 6-2 8l1 12c-1 9-1 9-3 10l-3 3-1 3-1-2c-1-3-5-4-4-1v16l2-1c3-2 3-2 3 0l-3 4-2 4c0 3-7 13-9 14-2 0-4 2-5 4l-7 8c-2 0-1-6 0-7l2-3 2-3c3-2 3-6 0-6l-3 2h-2c0-2-8 0-11 2-2 2-5 8-4 9l3-1-3 3c-4 4-8 6-8 4l3-5 3-3 4-8 1-3c-3 2-2 1 0-6l2-5c-3 0-8 9-8 13 0 3-2 7-8 14-4 6-6 6-8 3l-4-2v-6c1-6 0-5-4 1l-3 6H0v7l7 1c8 1 11 3 9 6-1 2-1 3 7 9 3 3 4 4 4 9 1 4 1 5-2 7l-4 3h3l4-2 5-2c6-1 11-4 19-13l7-3 6-3 5-2 6-3 4-2 4-2 7-1c6 0 7 0 10-3 3-2 6-3 10-3l9-3 8-2 6-1 9-2 10-2c3-1 5-1 9 1l10 3c4 0 10-3 10-7l2-5c0-3 0-3-1-2-1 0-3 0-4-2l-4-2-2-3-1-2-5-3-7-4-3-3-1-1-2-2-4-2c-2 0-3-1-3-3s-1-3-3-3l-8-3c-7-4-16-4-21-1-2 3-11 5-16 5-2 0-1-3 1-6 3-3 4-4 2-9-2-4-1-11 2-13l3-4c1-2 1-2-1-2-3 1-3 1-3-3 0-5 2-9 5-9l2-2c0-2 1-2 4 0 2 1 2 2 1 4l-1 6c0 4 0 5 2 5 3 0 5 1 5 3l1 1c2 0 4 6 4 9 0 2 0 3 2 4h2l1-2 2-4c1-4 2-4-8-15-3-4-4-7-2-9l2-2c0-2-4-4-8-4l-3-2c0-1-1-2-3-2s-3 0 0-6c2-4 2-5 7-5 3 0 4 0 5 3s3 5 5 3 3-5 1-6-1-4 1-7c3-4 3-5 0-4-3 2-4 0-1-2 2-2 2-2 1-4v-6l1-5 2-1c1 0 3 1 4 4s1 3-2 6-2 5 1 3c3-1 3-1 3 1l2 3c2 1 2 2 0 3v2c3 2 4 0 3-9-1-4-1-4 1-4l2 1c1 2 5 1 6 0 2-3 3-2 3 0 0 3 3 4 4 2 2-2 4-2 8-1 1 0 2 1 1 2 0 2 0 2 1 1 2-1 2-1 5 2l4 3c2 0 2 1 2 3 0 6 1 7 5 4 4-4 6-4 9 0l3 3 3 3c2 2 3 2 7 2s5 0 4 2l-3 1c-4 0-8 1-8 3l4 1c4-1 5 0 6 1 0 2 1 2 7 2 13-2 26-1 38 1 9 2 11 3 12 1h13c1 0 2 1 2 3l2 5c3 4 4 9 2 18l-1 6 4 3c3 2 4 3 8 3l6 2 3 1c2 0 3 1 4 3l4 3c2 0 14 9 16 12s3 6 2 10l-1 2-4-5c-11-15-20-21-12-8 1 3 3 5 4 5l1 3 2 3 2 3 2 3 2 2 1 3 7 7c5 5 5 7 4 8l-1 4c0 2-1 3-4 4l-3 3 1 2c3 0 2 2-1 5l-2 5-2 5-2 8-2 7c-1 2-2 11 0 17 1 4 1 4-1 4l-3-2c-1-3-5-6-8-6-4 0-11-6-11-10 0-2-2-3-7-3l-3-1-3-3-2-3c0-2-8-10-10-10l-2-1c0-2-8-10-9-9v3c0 3 0 3-2 2-3-1-11-9-11-11l-4-3-5-2-5-3-6-5-5-4-2-3-3-3-6-4-6-4-2-4c-1-3-2-4-4-4l-3-2-6-7c-5-5-5-5-9-5h-5l-1-4-2-5c-3 0-10-10-10-13l2-5c3-3 3-5 0-5-2 0-5-3-5-5l-1-2-3-5c-1-3-2-3-2-1 0 3-5 6-8 5-3 0-8 4-8 8-1 3 0 5 3 9l4 7 1 3 4 6c4 7 14 15 18 13l5 2 7 2c3 0 4 1 8 5 2 3 4 5 6 5l2 2 6 6 6 6 1 1 3 1 2 2 3 6c2 6 3 7 6 7l3 2 4 2 2 2 1 1 1 2 2 1 2 2 2 3c2 0 3 3 0 3-2 0-5-2-5-4l-5-1-4-1-4-3-6-5-4-4-2-2c0-1-8-5-11-5-4 0-4 2-1 5 2 0 3 2 3 3l3 2 3 2 3 2 1 2c0 2 1 3 3 3s3 1 3 4c1 3 2 4 5 4l5 2 17 2c12 1 13 1 15 3 3 3 4 6 1 6l-2 2c-2 3 3 4 18 5 11 0 13 1 13 2-1 3 1 7 3 7s2 1 1 3c0 2 0 2 2 3 3 1 5 5 5 10 0 1-1 2-3 2-3 1-3 3 0 4l2 2c1 3 3 3 9 0 5-3 7-3 7 1 0 2 5 2 12-2 6-3 9-3 16-4l11 1c3 2 9-1 8-4-5-10-5-13-1-17l4-5 2-7 6-19c2-10 4-15 6-14 1 1 0 2-1 4-2 4-4 17-2 19 2 3 3 0 3-4-1-3-1-5 1-9s3-5 5-2l2 2c1 0 2 1 2 3s3 5 4 3v-8c0-7 0-7-3-7s-3 0-3-2l2-4c3-13 18-34 28-41 14-9 16-9 16-4l1 3c2 0 3-1 3-4s0-3 4-3l7 2h8l-2-3-3-1h3l4 1h3l-3-1c-4-2-4-3 0-4 5-2 4-3-1-5-11-3-12-4-2-3h7l-1-1-1-4c0-2 0-3-2-3l-12-5c-7-3-10-5-10-7 0-3 4-4 11-4 5 0 6 0 8-2s5-3 8-1c3 1 2 2-3 7l-4 5 3 1c3 0 4 1 6 3 2 3 4 4 4 2l1-6c1-4 3-5 4-3l3 1c1 0 2 1 2 3l3 5c2 2 2 3 0 4v6c1 5 2 19 1 22l-3 1c-2 0-3-3-1-6v-3l-1-3c0-4-1-6-3-6l-2-2-2-3-2-4c-1-2-1-2-3-1s-2 2-1 6l-1 6v5c-2 3 0 5 3 5 4 0 7 3 6 6-1 2 1 3 6 3 3 0 10 6 7 7v3c1 1 2 5 2 11 1 13 2 17 4 20l2 3c1 3 8 3 11 0l3-3 11-13 7-4c6-3 9-4 17-5 8 0 10-1 9-2v-2h-2c-3 0-14-6-14-7l-4-6c-4-5-5-7-3-8 2-2-1-4-4-4l-9 4-8 3c-1-1 4-7 7-9 2 0 3-2 3-3h17l4-4 4-2c4 0 5 1 7 4v4l-1 5c0 7-2 9-10 10l-4 1 4 4c3 4 5 5 11 7l8 2 3 2c2 1 2 1 0 3s-2 2-4 1-3-1-6 3l-4 4 4 3c7 3 9 3 13-3l8-8 5-4 2-2 6-3 8-5 6-3c4-3 11-5 21-6l12 1 6 2c6 0 9 2 9 5 0 4 4 6 7 3 3-2 6-3 20-4h12v3l1 3 2 4c0 2 1 3 3 3l3-1 1-2c2-2 2-2 4 0l4 3c3 2 2 9-2 10l-2 2c0 1 9 4 14 4l5 2 2 2 2-2c2-3 3-3 6-2l9 1c5 0 5 0 6-4 2-6 5-8 11-9 9-2 9-4 0-5-6 0-8 0-14 3s-8 4-11 3c-4 0-4-1-7-5-2-5-5-7-11-7l-7-2-5-3-1-3c-1-4-2-5-5-3-1 1-2 0-4-1-1-2-2-2-5-1-4 0-5-3-2-5 2-2 2-4 1-7-1-2-2-2-7-2l-7-1h-5l1 3 1 2v2c1 2-9 5-12 4h-13c-3 2-3 2-7 0-3-2-4-2-3-5l-1-3-5-2c-4-1-9-1-12 2-3 2-12 3-12 1s-7 0-10 2l-7 3c-2 0-5 1-6 3l-4 2c-2 0-6 4-6 7 0 4-3 8-5 8l-6-2-4-3-2-1c-1-1-1-2 3-5 4-4 4-4 10-4l7-1-4-4c-3-1 0-2 5-2s5 0 5-2c0-3 0-3 3-3l3-1h5c3 0 3 0 3-2 0-3 1-4 2-2 2 2 13-2 14-5l2-2 7-7c1-3 1-3 7-2 9 1 13 0 16-4 1-3 4-4 6-5 3-1 4-2 5-5l2-6 1-3 2-2 4-1 5-1h14l7-1c2-1 9-2 27-1 4 0 5 0 9-3l7-4 10-5 10-4 6-2c4-3 11-6 14-6l5-3 5-4c3 0 5-2 5-5 0-2 1-3 4-4l4-1-2 3-3 6c0 1-1 4-3 5l-2 8c-1 7-10 29-14 34l-3 5c0 3-2 5-5 5s-6 7-5 12l2 6-1 6-2 5 4 7c3 4 5 6 4 7-1 3-3 2-4-1-1-2-2-3-5-3-2 0-3 0-3 2 0 3-3 4-6 2s-3-2-3 1c0 5 2 8 6 8l7 1h6l3-2 1 3c1 4 4 4 13 1l8-3c4 0 7-2 7-4s10-18 25-40a605 605 0 0054-101c4-11 7-16 12-19 3-1 7 0 9 3s6 3 11-1l10-13c7-11 12-17 16-17 2 0 3-2 5-5 4-6 8-7 10-2 1 2 3 3 3 1l2-3c2-1 2-3 3-7 0-4 1-5 5-9 5-6 5-7-1-6-4 0-4 0-8-3-3-3-4-3-6-3-4 1-7 4-6 5l3-1c3-1 3-1 5 1l4 3c2 2 2 2 1 3l-4 1-10-2-9-3c-1-2-1-2 2-1h2l-2-3-4-3-3-5-6-6c-4-3-4-3-6-1l-4 2-10-5-2-1-2-1-4-3c-2-1-3-2-3-5l-3-5-4-5-2-5-4-5-2-2-5 4c-4 3-5 4-5 6 0 3 2 4 5 2l3-1-3 2-3 2c0 2 2 5 3 4v5c2 4 2 4 6 0l4-3-3 4-4 5c0 5-2 2-6-10s-4-12-4-21c1-8 1-9 3-9s3 5 0 8c-1 1-2 6 0 6l5-3c3-2 4-4 4-5l-2-11c-1-12-1-12-12-5l-9 9-8 9c-4 3-5 6-5 8-1 4-4 9-8 14l-4 6-6 8c-7 8-7 8-8 16 0 11-1 12-6 18l-4 6-4 5-4 9c0 5-1 6-7 12-11 11-12 12-25 13a649 649 0 00-42 7l-7 3-9 5-11 8-14 10c-7 6-16 12-30 19l-11 7-6 4-5 2c-3 2-4 2-14 2-10-1-13-2-20-5-5-1-11-4-14-6-16-10-25-14-29-14l-5-1-8 8-9 7h-7l-10-3-6-1-4-1-4-2-7-2-8-3-7-2-12-5-12-6-5-3c-2 0-3 4-3 11 0 3 0 4-2 3l-1-5c1-4 1-4-11-5-7-1-11-3-12-6 0-4-19-19-26-22l-7-7c-2-4-6-7-8-9-1-1-4-4-4-6l-8-7-8-7-8-11-1-1-6-6-7-10c-1-3-3-5-4-5l-5-8-5-8-2-2-4-7-4-8-4-5-4-7-2-3-9-9-5-9-9-14c-4-7-7-10-15-13l-7-6-2-3c-2 0-12-11-14-15-3-5-12-16-14-16l-3-2-7-5-9-6c-5-3-13-7-16-7l-8-3-10-5c-2 0-5-1-6-3l-3-2-3-4-4-5c-2-2-6-11-6-14 0-5-3-12-7-15l-5-7c-3-4-15-15-18-15l-3-2-3-2-2-2c-1-2-4-4-8-5-7-3-9-4-9-8 0-3-1-3-2-2zm784 216l-1 1-3 1c-2 0-2 0-1-1 3-2 5-3 5-1z"/>
  <path d="M1007 274c-11 3-23 12-33 21l-9 7c-14 6-29 16-29 19l3 3c2 2 3 2 2 5 0 4 0 4 2 4l4-1c1-1 1-2-1-2-2-1-3-4 0-5l4 2 3 3 4 2c4 3 9 5 12 4 2 0 2-1 2-3 0-3 1-4 4-5l4-3c2-5 6-6 27-9 8-1 11-3 13-7 3-5 5-17 5-24v-8l-4-2c-4-3-8-4-13-1z"/>
  <path d="M907 341l-3 2-9 1c-6 1-6 1-7 5-1 2-2 3-6 3l-4 2-3 1c-2 0-3 1-6 6-5 10-4 19 2 21 3 1 6 0 8-2h2c3 0 4-1 4-6 0-3 1-3 4-5l4-3 2-4c2-3 3-6 1-6l-2 2c-1 2-3 0-3-3s0-3 5-4c4-1 5 0 6 1 3 3 5 3 7 0l2-3c0-2 4-2 5 0l6 2c4 1 6 1 13-1l10-3 3-1c1-1 1-1-2-2h-5l-4 1-5 2c-3 1-12 2-15 0-2-1-2-2-2-3 1-2 0-3-2-3h-6z"/>
  <path d="M968 360v4l2-4h-2z"/>
  <path d="M962 370v2l4-3c0-2-4-1-4 1z"/>
  <path d="M953 374l-10 1c-11 0-12 0-13 6-1 5-1 5 8 12l4 2 5-3 4-4 4-6c6-7 5-11-3-8z"/>
  <path d="M904 391l-6 12c-5 9-5 10-5 14 1 5 7 12 17 21 5 3 8 7 9 8 0 2 0 1 4-1 5-5 6-8 6-16-1-8 0-13 4-18 3-3 4-9 3-12 0-2-1-2-3 1l-3 6-1 2v-2l1-5v-4c0-3-2-4-7-6-9-3-16-3-19 0z"/>
  <path d="M24 588c-1 1-1 3 1 6l2 6c0 5 3 10 5 10v-4l-2-7-3-7-2-4h-1z"/>
  <path d="M163 592c-2 7-1 10 2 13l5 7c2 4 2 4 1 6-2 2-2 3 2 7 2 4 4 5 6 5s2 0 1-2l-2-2c-2 0-3-2-2-5l1-5c0-3 0-4-2-6s-3-3-3-5c0-3 0-3-1-2-2 1-4 0-3-3l-1-4v-4c2-1 1-3-2-3-1 0-2 1-2 3z"/>
  <path d="M36 608l-3 6-3 9c-2 8-1 12 2 13 2 0 2-1 2-6l3-15c2-7 3-11 1-11l-2 4z"/>
  <path d="M141 607c-1 1-1 1 1 2l4 1-1-2c-1-2-2-2-4-1z"/>
  <path d="M67 608c-2 0-2 1-2 4 1 6 2 5 3 0s1-5-1-4z"/>
  <path d="M140 613c-1 1 2 2 3 1v-1h-3z"/>
  <path d="M140 618c0 1 3 5 6 5v2l1 3c2 0 2 1 1 2s2 2 6 2c3 0 4-2 2-3l-1-4-2-3-2-2c0-2-1-2-4-2l-3-1c-1-1-3-1-4 1z"/>
  <path d="M167 629l1 2v3c-1 2 1 5 3 5s3-10 0-11-3-1-4 1z"/>
  <path d="M53 636c-2 1-1 5 1 6l3-1v-4c-2-2-3-2-4-1z"/>
  <path d="M191 643l2 3 1 3 2 3 7 13c0 1 4 4 6 4s1-1-4-9c-9-15-10-17-12-18s-2-1-2 1z"/>
  <path d="M33 650l-4 5c-1 0-8 11-8 13s1 3 2 3c2 0 3-1 3-5 1-4 6-13 8-13l2-3c1-2 2-3 1-4-1-2-2-1-4 4z"/>
  <path d="M65 651l-1 2-2 2c-2 0-6 5-6 8l-2 5c-2 4-5 17-4 18s2 0 3-2l6-11 3-5 2-2 1-2c-2 0-3-2-1-4l2-4 1-5h-2z"/>
  <path d="M658 653l1 2c2 2 1 4-3 4s-10 3-10 5l2 3c1 2 1 2-1 5l-2 4h4c4 1 5 0 7-1l5-2c4 0 8-3 8-5l-2-8c-2-5-3-7-5-8-3-1-3-1-4 1z"/>
  <path d="M235 659l2 3c2 1 3 4 4 6l3 3c3 0 3-2-1-7-5-7-7-8-8-6z"/>
  <path d="M28 668c-1 2 0 5 2 4l1-4c0-3-3-3-3 0z"/>
  <path d="M276 668l7 14c2 0 0-5-3-10-2-4-4-6-4-4z"/>
  <path d="M210 673c0 2 5 3 6 2 1-2 0-3-3-3l-3 1z"/>
  <path d="M738 674v3c0 2 1 2 3 2s3-1 3-2c1-2-6-4-6-3z"/>
  <path d="M22 678v9c2 0 4-4 3-4v-3l-1-4c-1-1-1-1-2 2z"/>
  <path d="M169 685c0 2 9 10 11 10s7 8 7 12l1 3 1 1 4 5 4 3-1-11c0-11-1-14-6-16l-7-3c-12-5-14-6-14-4z"/>
  <path d="M200 702c1 7 1 7 4 6 3 0 4-1 4-3s-1-3-3-3l-4-2c-2-2-2-2-1 2z"/>
  <path d="M278 715l1 2 4 5c3 3 6 5 12 7 2 0 2 0 1-2-1-1-3-3-5-3-3-2-3-2-2-4s1-2-2-2c-2 0-3 0-3-2s-1-3-3-3c-3 0-3 0-3 2z"/>
</svg>
