<svg xmlns="http://www.w3.org/2000/svg" viewBox="0 0 1024 1024">
  <path d="M321 15l-30 14 5 29 5 47v18l12 17c11 16 11 17 10 20l-1 8c0 4 0 4 4 6a672 672 0 0020 21c1 1 0 3-6 14-6 13-6 13-10 32-4 23-5 34-11 114-4 59-4 61-6 64l-31 32a450 450 0 00-74 95c0 6 0 6-4 8s-4 3-4 7c-1 4-1 4-4 5-8 3-7 2-7 13l4 25c3 14 3 15 13 30l9 17 5 4c5 3 5 3 13 3 7-1 8-1 11 1 3 3 5 9 5 14-1 4-1 4 4 8l6 4 3 2 5 3 3 3 2 7v11c0 9 0 10 4 13 4 2 4 2 3 7 0 4 0 5 2 8 3 4 4 8 1 10-1 2-1 2 2 7l3 4-2 3-2 5-2 9c-2 5-2 7-2 18 1 10 1 12 4 18l3 9c0 2 1 3 2 3 2 1 5 6 5 9 0 2 1 4 4 6l5 7c2 3 4 6 8 8l6 4-7 3c-7 2-8 2-11 0-5-2-11-3-15-2h-6c-3-1-4 0-10 2-5 2-6 2-10 1-6-3-23-5-27-4-4 0-6 3-9 9-2 4-3 5-6 7-3 1-6 4-6 7l4 3c2 1 6 5 8 9l8 9 6 7c1 3 5 6 15 14l18 13c3 1 4 2 4 4s3 5 5 5l2 1 4 6c4 4 6 8 10 17l6 15 2 9c0 5 0 5 4 8l5 2c2 0 2-1 0 6l-2 8c0 2 0 2 5 2 4 0 5 1 7 2 2 2 3 2 8 2l9-3 6-3c4 0 10-3 13-5l5-3c2 0 3-1 3-3l2-4 4-3c4-3 5-3 5 2l2 5 1 2c-1 1 1 3 5 6 6 4 7 5 8 3l2-1 5-2 8-3c2 0 5-2 9-6 7-5 8-6 14-7 5-1 9-2 11-4 3-2 4-2 12-2 7 1 9 1 12-1 3-1 7-2 22-2l19-2 2-6c2-4 3-5 8-8s13-12 18-21l4-4c3-1 2-2-1-5-4-2-11-11-11-12l5-3c3-3 5-3 16-4 31-2 43-4 49-8l12-1c8 0 9 0 14-3 3-1 6-3 6-5 1-2 2-3 5-3 4 0 5-1 5-3 0-1 1-2 3-2s3-1 5-3l7-8 6-10c1-4 2-5 3-5l5-5c3-5 9-9 13-9 2 0 3-1 5-4 4-8 7-11 11-12 6-2 7-3 7-15 0-13 1-15 9-15l4-2 4-2 2-3c0-3 2-4 6-4 3 0 6-1 12-5 10-6 12-6 28-4l9 1 5-22-3-9-5 1c-4 2-4 2-4 0s-1-3-4-5c-3-1-6-3-8-6l-4-3 1-9a96 96 0 014-19h-8l-3-13-3-18v-5l-6-3-7-3-4 2-14 5-2-4c-4-5-4-9-1-18 2-6 3-8 5-9 15-8 16-9 17-14v-7l-2-6-2-4c-2-1-3-4-4-8l-2-7 6-6 14-10c7-4 10-7 10-9l-5-2c-4-1-5-2-4-3 1-3-1-12-3-14-2-1-2-1-1-4s2-3 10-6c7-2 9-3 8-4-3-8-3-8 0-10 2-1 3-3 3-5 0-3 5-9 9-11 2 0 3-2 3-3l1-2 2-6 2-5-4-4c-5-5-4-7 2-13l6-5 9 1c7 0 9 0 13-2 5-2 16-3 25-2h7a11041 11041 0 00-9-242L351 1c-1-1-15 6-31 14z"/>
</svg>
