<svg xmlns="http://www.w3.org/2000/svg" viewBox="0 0 1024 1024">
  <path d="M95 52c-3 2-4 3-4 7v6l1 4c0 3 0 3-3 3l-4 2c-1 1 0 6 2 6l6 2c4 1 4 1 7-1l6-7c2-5 2-6 2-11-1-6-1-7-4-10-5-4-5-4-9-1z"/>
  <path d="M25 93l-2 3c0 2-1 2-4 2l-5-2h-4l-4 2-4 2c-2 1-3 6-1 7l2 2c0 2 2 3 4 3l5 2 7 2c5 1 6 1 9-2l4-5 4-7 4-5c0-2-3-3-7-3l-5-1h-3z"/>
  <path d="M216 117l-1 9-1 9-5-1c-13-1-13-1-15-5-1-3-2-4-4-3l-4-2c-1-2-5-2-8 1-1 1-2 3-1 9 1 9 3 11 10 11 3 0 5 1 5 2 0 2 0 2-2 2l-6 2h-8l-6-1c-2 1-1 7 1 8l2 3c0 2 2 3 6 3l3 1-2 1c-2 0-3 0-3 2 0 4-3 6-6 4-2-3-10-5-11-4-1 2 3 9 6 10l5 6c2 4 3 6 6 6 7 2 8 4 3 6s-9 9-5 12l2 3c1 2 1 2-5 2l-8-3c-2-2-3 0-2 6 0 4 0 4-3 7-2 2-3 4-2 6 0 3 0 3-2 3-5 0-5 1-4 8 2 9 2 8-2 8l-10 5c-7 5-7 5-11 4h-4c-2 4-2 4-8 3-4-1-5-1-7 2l-3 1-5 1-3 2v10l1 10 3 3 7 3c3 1 3 1 3 5 0 5 3 12 5 13l1 4c0 2 1 4 5 8l6 7c1 4 5 8 9 9h3l-1 7c0 8 1 11 6 13l3 4c1 4 3 10 5 12v7c0 5 0 5-3 4h-2l-2-4-2-6c0-2-1-4-3-5l-2-3-1-3-1-2-2-4c-3-1-6 0-5 2l-2 1c-2 0-3 1-3 4l-2 4-7-5-4-4-2 3-6 6c-4 4-5 6-3 8v3c-1 2 0 3 1 5 3 2 3 4-1 6l-4 2 2 6 6 11 6 9c2 3 4 4 6 5 3 1 4 2 3 3l-2 6c-1 5-2 5-2 4-2-6-5-9-7-10l-3-3c0-3-2-7-4-7-2-1-3 0-4 2 0 2-1 2-4-1-7-6-10-4-10 5 0 8 0 8-3 8-2 0-2 0-2 4 1 4 0 4-2 5-1 0-2 1-2 3l-1 2-1 4c0 2 0 4 3 6 2 2 3 3 2 4l1 5c1 3 5 5 14 3l5 1c0 1-1 3-3 3-4 2-6 9-4 12h9c10-3 14-4 15-1 1 2 3 2 7 2l10-1 5-2c3 0-3 4-10 6-8 2-12 3-18 2-3-1-3-1-4 2l-2 4c-2 2-1 6 5 10l6 4 1 1c0 2 9 5 11 4s3 0 3 2c0 3 8 4 11 1 3-4 10-8 12-8l6-1c9-4 14-3 8 1l-6 4-7 3-9 5c-6 2-6 5-3 9 2 1 3 2 6 1h4v4c0 5-1 6-6 6-2 0-4-1-4-3-2-4-8-2-8 3 0 3-3 2-3-2-1-3-2-4-8-8-6-3-7-4-15-4l-9 1v2l1 10c0 8 1 9 5 11 3 1 4 5 2 6-3 1-6-2-8-7l-4-8c-2-2-2-2-3-1l1 4 1 2-3 2c-3 1-3 1-3 6l1 5 1 4 2 15 4 1c3 0 3 0 3 3v5h5l1-1c1 0 4 3 6 7 2 5 5 8 6 9 4 1 4 1 5-4 0-4 1-5 3-5 3 0 10 3 10 4l-6 3-7 4 5 3c4 1 4 1 7-1l2-2v2c0 4-1 4-8 5-8 1-11 3-12 7-2 3-2 4 0 5l1 4c-1 3 0 3 4 6s5 3 6 2c3-1 3-1 3 2 2 7 12 11 21 8 6-1 8-3 8-7l2-9c2-4 3-5 5-5l5-2c3 0 3 0 4 3s1 5-3 7c-5 3-7 6-7 9 0 4 2 5 7 5l5 1-3 1-19 4-10-1c-4-2-5-2-7 0l-5 1-2 2-5 4c-6 2-9 8-8 13 0 3 0 4-2 5-3 4-3 8 3 14 4 5 5 6 8 6s3 0 3-2 1-4 5-6l9-7c6-5 8-5 9-1 0 4-3 6-8 6l-7 2c-2 3-3 9-2 12v3c-2 2-1 4 2 4l7 2c3 3 6 5 8 5l4-6 4-7c2 0 1 4-2 9s-3 5-2 10l3 5c2 1 2 4-1 8-2 2-2 3-1 5l3 2c2 0 3 2 2 5 0 2-2 3-7 5-6 2-8 3-11 7l-8 7-3 3-2 2-6 2c-4 1-5 1-4 3v5c-3 6 0 9 10 9 5 0 6 1 4 3l-2 3c0 2-1 3-3 3l-4 2c-1 3-1 3 1 6 0 2 2 3 3 4 2 0 1 3-1 6l-3 4c0 2 0 2-2 1-2 0-5 2-4 4l-1 4v4c2 2 1 2-4 5-4 2-4 3-5 8 0 4-1 7-5 12a153 153 0 01-10 13l5 14 1 5c0 2 1 2 2 2l3 4c2 5 1 7-1 9-2 1-3 4-4 6-2 3-3 4-6 2-2-1-7 2-8 6l-2 5c-2 4-1 5 5 11 4 4 6 5 8 5 3-1 3-1 2 1l-1 3-3 5-2 3 4 2c3 3 4 4 3 5-1 2 0 2 3 4s4 3 1 5-4 3-3 4c0 1 1 2 4 1 6-2 13-2 14-1 1 2 6 1 11-4l5-2 3-2c2-2 3-2 9-2l11 4 5 2 5 2 5 1c2 0 9-6 9-8 1-2 2-3 4-3l3 2 5 1h11c6 0 7 0 10-3 3-2 4-3 5-2 2 2 4 0 4-4l7-2c7 0 8 0 11-3l4-3 4-3 9-5 6-1-1-9 1-10c1-2 1-2-1-4l-2-2 2-1c2-1 3-2 2-3l1-5c1-3 0-8-4-11l-2-5-3-4-2-2-2-5-2-5-2-5c-2-4-2-5-2-16v-15l-1-6c-1-1 0-7 2-9s5-3 6-1l4 1c3 0 5 2 3 4l-1 3-2 3-1 5v13c2 3 2 5 2 7v8l2 7c0 2 1 3 4 5l5 1h3c2 1 2 2 1 3 0 2 0 3 2 4l3 2-3 6c-2 7-2 7 0 9 3 1 4 0 8-3 7-4 8-7 5-11-2-2-2-2 0-4 3-2 3-6 2-8l-2-3 6 1c6 0 6 0 7-3l-1-4c-2-1-1-1 4-3s6-3 6-4l-1-4c-1-2-2-3-5-3l-6 1-6 2c-4 1-5 1-10-1-5-3-5-3-5-6l2-5c1-1 1-1 3 1l1 3c0 2 5 3 9 2l5-2c4 0 6-6 4-10v-5c1-4 1-4-1-8s-4-6-9-9l-9-7c-4-5-4-5-2-6 1-1 2-1 3 1l3 3 2 2 3 4h5c2-2 2-2 2 0s3 5 8 7c3 2 4 4 6 14 1 4 2 7 1 9-1 4 0 7 3 7h5l5 2c2 0 2 0 2-6-1-10-2-14-4-15s-5-4-5-6l-1-2c-2-2-1-4 1-4s2-1 1-7c-2-4-4-5-6-2-2 2-10 1-12-2l-1-4-5-6c-4-4-5-5-2-5s11 9 11 11l3 3c3 0 4-1 4-6l1-3c1-1 2-6 0-7l-1-3c0-2-5-4-12-4-5 0-7-1-13-4-4-2-7-4-8-7-2-3-4-4-7-2-2 1-3 0-1-2 1-1 5-3 6-2l4 4 6 5 5 3c0 2 1 2 10 2 8 0 10 0 12-2 3-3 6-2 12 1s6 4 8 21c1 11 5 23 9 28l2 6c0 4 2 10 3 10l4 4c5 4 10 5 9 1-1-2 0-4 2-6l2-2 2 2 3 5c0 4 2 5 4 5 1-1 2-2 1-7 0-7-1-12-3-12l-3-3c0-2-1-3-2-3-2 0-3-4-1-5 1-1 1-3-1-13-1-4-1-5 1-9l2-6 1-3c2-2 2-16-1-18-2-1-6-11-5-12 3-2 11 5 14 11 1 3 0 13-2 15l-3 6c-5 8-5 30-1 29 1-1 1 0 1 1l1 4 2 3c0 3 3 7 7 8l7 3 8 1c5 1 5 1 8 4l2 4 3 5 3 6c0 4 1 5 4 7l2 3 4 5 4 8 2 6 4 4 6 3 4 1 2 1 2 1 8 1 11 2h8l7-2h3l21 1 6-2c4-3 8-4 8-2 0 1 2 3 7 5l6 4v5l1 6 6 3 6 2 13-6c8-5 10-7 11-9l2-7c2-4 2-7 2-13s1-8 2-10c2-2 2-2 0-4-1-2-2-3-1-4l-1-3c-3-2-2-5 1-7s3-3 0-9c-2-4-3-6-2-9 0-5 0-5-5-10-4-4-5-5-5-8 1-2 0-3-2-4l-3-2-4-2c-3-1-11-6-13-9-2-2-2-3-1-7s1-5-1-5-3-5-2-8l3-3c1 0 5 6 5 8 0 3 4 10 6 11 5 1 10 6 11 9l3 6c3 4 8 4 8 1l2-3c2-3 3-11 1-17-2-4-5-8-8-8l-3-3c-2-2-3-3-3-6 0-4 0-5-3-7-3-3-4-4-3-5 2-2 6 1 9 7 3 5 8 10 10 10 1 0 4 2 6 5 4 4 5 4 5 3 1-2 0-3-3-7-6-6-6-7 0-2l5 4c4 0 7 2 7 5s7 14 9 15l6 3c4 4 4 9 1 12l-4 7c-1 3-1 5 1 10l2 12 2 8 2 8c0 5 4 15 5 15 2 0 5 7 5 9 0 4 3 6 7 6l5 2c2 2 2 2 1 7-1 6-1 6 2 10l4 5c3 0 4 4 3 6-3 3 5 10 12 9h3l2 4c2 1 2 2 1 2-2 0-7 6-7 8h4c3-1 6-2 11-1h7v-3c0-4 1-5 6-6 5-2 19-2 22-1h5c3-1 4-1 4 1l3 1 7 7c0 4 10 7 13 4h6c5 0 6 1 7 3l2 3c3 0 8 3 9 5 1 3 7 6 10 5l2-2 6-2 5-3 2-2 5-4c4-3 5-4 5-10v-7l-1-2c0-2 2-1 6 2l6 5c3 2 3 2 7-2 4-3 5-4 9-4l8-2 6-3c1 0 2 1 1 5l1 4 11-9 3-1c2 0 5-15 3-20l-2-2-2-1-2-4-5-6c-2-3-5-4-7-5l-4-3c-1-2-2-3-7-4-6-2-6-2-11 1-4 2-14 3-15 2s1-4 5-7c3-2 6-3 11-3l11-1c4-1 6-1 8 1l6 1c5-1 16 1 19 4l4 2 9-3 3-2 3-6c1-6 4-12 5-12 2 0 5-4 5-7 0-5 1-9 3-10 2 0 2-1 1-5 0-7-2-11-4-11l-2-3c0-3-10-8-21-10l-4-4c-1-2-2-2-8-2s-8-1-12-3-7-3-11-3c-5 0-6 0-8-3-5-5-12-8-26-11l-5-2-5 5c-6 4-6 5-14 6l-6 2-5 2-9 3-9 4c-6 1-10 6-12 12-1 3-1 3 2 8 3 4 4 6 5 11 0 7 3 10 8 10l11 4 10 4 3 4c2 4 10 12 12 12l2 3c0 1 1 3 4 4 2 0 3 2 4 3 1 2 0 3-2 4s-3 1-5-1c-7-3-13-8-17-14-5-6-10-9-19-11-5-1-6-2-8-4l-3-3c-1 0-3-1-3-3-2-4-3-4-7 0-3 2-4 2-11 2l-10 2h-6c-4-1-5-2-8-8-4-8-11-13-19-15l-11-4c-7-4-9-5-13-4-2 1-4 0-10-3s-7-3-15-3l-9-1 2-1 4-1 4-1c2-1 2-1-1-4l-3-5-2-1c-4 1-5 0-2-2 3-1 4-2 4-5s0-3-4-3l-7-2c-2-2-2-2 2-2 8 0 13-2 10-5v-6c0-4 1-3-8-7l-3-3v-2l2-1h3c2 0 1-5-1-6h-3l-4-2-4-3c-1 1-2 0-3-1l-7-2-5-2 4-2h5c5 5 1-8-4-15-3-3-4-4-7-4l-7-2c-4-2-8-6-8-8l-6-8c-6-6-7-6-10-6-8 3-9 3-14-3-8-8-14-13-16-13-2-1-3-3 0-3s8 3 11 6c10 10 10 10 13 10l5-1h4l3 2c2 0 5 4 8 9l8 8c6 5 9 5 8 2-1-4 2-9 4-8v3c0 4 3 11 6 11s3 1 4 6c0 8 1 10 5 10 3 1 4-1 4-6 0-4 3-2 5 3 1 3 2 4 4 5 1 0 2 1 2 3 0 3 2 4 6 2 3-1 4-2 2-3l-3-5-3-7c-2-2-4-4-4-6l-5-4c-4-2-5-3-4-4l5-2c5 1 4-2-3-9l-7-8-2-1-2-3-1-3c-2-1-2-4-1-4l5 5 9 10 8 9 5-4c4-5 6-9 3-11l-2-1c0-2-3-5-5-5l-4-1c-3-1-3-1-2-2 2-2 4-2 8 0 4 1 7 6 7 10l4 4c6 3 12 9 12 11s6 9 7 9l7 6 8 9c4 2 4 2 4 0l-3-6c-4-3-4-5-4-8 0-2 2-1 5 2s4 5 5 10c1 2 1 2 4-1 3-2 3-3 3-9 0-7 0-7-3-8l-5-2-2-1-3-2-3-3-1-3c-2-3-1-6 2-6l3-1 8-1c9 0 10-2 4-8-5-6-9-7-11-2-2 4-5 4-6 0l3-3c3-1 2-3-2-5-4-1-5-1-7 1-2 1-6 2-6 0l2-3c2-2 2-2 1-4l-3-1-5-3c0-2-7-9-13-13s-8-6-7-9c0-2 1-2 4-1l4 4c0 3 1 5 4 6l7 5c3 4 5 4 6 1l3-2c2 0 5-2 5-4 0 0-2-2-5-2l-6-4c-2-2-2-2 0-3 3-2 7-1 12 3l4 3 5 3c3 3 3 3 8 2s6-1 13 3c9 6 13 8 19 10 5 2 6 2 11 1 9-2 10-2 12 0 3 2 6 1 8-2 0-2 1-2 3-1l11 1 9 1 3 1 1-9c-1-8-1-8 2-9 1 0 5-1 7-3 5-2 7-3 9 0 2 1 3 2 10 1 11-1 26 0 25 2l-1 3c0 2 0 2 2 1h6l8 1c5-1 5-1 5 2 0 2 4 5 9 7 3 1 4 3 4 10l1 5 1 3 3 4 2 3 4 6c4 3 4 5 5 10 0 5 0 6-2 7-3 2-3 2-1 5 2 5 2 5 3 3 2-2 2-2 8-1l13 5 8 3 3 1c2 2 26 1 33-2l11-1c9 0 11 0 9-3l-2-6c0-3-3-6-13-8l-9-4-11-2c-6-1-7-1-10-3l-6-3-3-1c-1-3-3-2-3 1s0 3-2 3c-3 0-7-3-7-5l-2-6c-2-4-3-5-2-7 2-5 3-5 7-4l5 2c2-2 1-7-2-12l-3-6 3-6c2-4 3-5 6-5 5-1 6-1 7 2 1 2 1 2 7 1 7 0 10 1 10 7 1 2 1 3 4 2 4 0 7 1 10 4s3 4 3 8v5h8l4-1c3-1 4-2 4-5s0-4 3-6c4-1 4-2 5-5 0-4 2-6 6-6 2 0 3-1 6-5l4-6 2-7c1-6 2-7 6-8 4 0 6-3 7-8l3-8 4-13c0-5 2-11 3-12l8-26-2-4v-3c3-2 3-9 1-11-2-1-2-3-2-7s0-7-2-11l-6-8c-3-2-6-7-7-13l-3-13c-3-11-3-15 1-18 3-3 3-4 3-11 0-6 0-7-2-9l-4-5c-1-3-3-4-8-6l-9-4-6-4-2-3c-1-3-6-5-10-3-3 2-4 2-8-2l-7-3-8-3c-2-2-6-2-12-3l-11-2-6-1c-4 0-6 0-9-2-4-2-4-2-5 0l-8 5c-7 3-9 4-11 8s-8 8-10 7c-2 0-3 0-3 2l-3 3c-2 0-3 1-4 3l-3 4c-3 3-5 17-4 27 1 7 0 8-1 10l-2 4-4 12-1-1c0-3-2-3-3-2l-3 2c-1-1-2 0-2 2-2 5-5 5-6 0l-2-4c-1-1-1-1 1-2 3-3 3-7 0-7l-4 3-7 6c-4 2-5 4-5 6-1 4-6 10-7 9l1-6 1-12c0-7 0-7-4-11l-7-4-5-3c-5-6-10-10-13-10l-6-2c-4-1-4-1-6 1l-5 2c-2 0-3 1-5 3l-3 2c-2 0-2 1-2 6 1 6 0 7-2 7l-6-1c-6-2-18 0-21 4-3 3-3 7 1 8l2 2c-1 3-4 2-6 0l-2-3-7 3-11 9c-5 7-6 9-3 14l1 5c-1 3-4 4-4 1l-3-2-4-4-3-4-2 5c-1 5-2 7-4 5-3-3-10 1-10 6 0 3 2 4 5 4l2 2-4 1-7 1c-2 1-3 1-5-2l-4-2c-1 0-2 2-2 13v17l1 8v9l-3-2c-4-3-8-2-11 2-2 2-3 3-5 3-3 0-3 0-3 7 0 6 0 7-3 10-5 4-7 1-3-5 1-3 1-3-1-7l-2-8-1-3c-3 0-8 3-9 6-2 8-7 14-17 21l-8 7c-3 3-4 3-8 3l-6 1-7 1c-4 1-5 1-5-1 0-3-3-5-9-6-7-2-13-3-16-1s-13 1-18-1-6-3-2-5h7c2 2 5 2 14 2 12-1 19 0 21 3 2 2 5 3 15 2 6 0 6 0 4-2-3-2-3-5 0-6l4-1 2-1-2-2-1-2c1 0 3-6 2-7l7-4c2 0 2-1 2-5l-1-6c-3-4-16-4-21 0-1 2-3 2-6 2-5-1-5-1-6 1 0 2-1 2-4 2s-4 0-4 2c0 3-3 4-6 2-2-2-2-2-4-1l-4 2-3 1c-1 2-10 4-15 4l-10-3c-7-3-14-4-16-1l-10 3c-8 3-9 3-22 1h-17l-4 1-8-1c-7 0-7 0-7-3v-2h24l-1-3c-1-2 0-2 6-2 5 0 7 0 9-2l4-2 2-1 7-2 12-3 4-2c5-2 4-4 0-6s-5-2-12-1l-8 2h-6l-13-2-7-1 3-1 7-1c6-1 6-3 1-4l-2-1h2c4-1 15-1 19 1h9c2-2 1-3-6-6l-9-4c-2-2-10-3-15-1l-2 1 2 1h9c1 1-1 2-6 2l-9 3c-1 2-4 3-3 1l-1-2-2-3-1-3h-4c-2 3-3 2-3-1 1-1 0-3-1-5-3-3-2-4 1-4s9-2 9-4l-2-1-6-3-6-3-3-2c0-3-1-3-4-3-7 0-7 0-10 3-2 2-3 3-7 3-6 0-5-3 1-6 1-1 3-3 3-5 1-3 3-4 7-2l6 1 19-1c3-2 3-2-5-4l-1-2 10-4c3 0 8-5 8-9s-2-7-7-7c-2 0-4 1-8 5l-6 5c-2 0-1-3 3-7 3-5 3-5 2-8-1-2-2-2-7-2-9 0-14 2-17 6-2 4-4 4-4 1s-3-4-6-2c-2 1-3 4 0 7 3 4 3 7 0 10l-3 4-2 5c-1 3-1 3-8 3l-7-1-3 5-5 5c-2 0-2-4 0-8l4-7 3-3 2-3 2-2c2 0 2-1 1-5 0-6 0-6 3-7 4-2 6-6 6-13l-1-6c-2 0-3-4-1-4l4 3c0 1 2 2 5 2 6 1 7 1 7-1 2-6 32-2 38 5 1 2 2 2 6 2 3 0 5 1 8 3l8 2 8 2 21 1c16 0 16 0 17-2l2-3c2-2 12-3 16-2 3 1 4 0 5-1l3-1c4 0 10-2 10-4l-3-3c-3-2-4-2-7 0l-11 2c-9 0-17 2-20 5-4 2-5 1-5-3s2-6 7-8c6-4 9-4 13-2h9l9-2 9-1 2-2 1-2c0-2-2-3-5-3l-2-1c-1-3-12-2-18 0-4 2-4 2-8 1l-7-2c-5-1-3-3 2-3s10-2 14-5c2-2 4-3 10-3 9-1 12-3 15-7v-6c-2-1-2-3-1-4l-1-3-1-2-2-4c-2-2-2-2-5 0l-3 4-7 3 1-3 2-5c1-2 1-2-5-2-4 0-8 0-13-2l-6-2-2 2c-4 3-6 2-6-2 0-3 0-4 3-5l16-4c3-1 4-5 1-9-4-3-7-3-13 0-5 3-7 3-7 1l5-2 5-4c2-2 2-2 5-1 4 2 8 0 7-2 0-3-6-5-6-4l-4 1c-4 0-11 3-14 5-2 2-3 3-3 1s18-11 22-11l4-2 3-3c5-4 7-12 3-14l-4-1c-3-2-6 1-7 6 0 3-1 3-4 4h-13c-6 0-6 0-4-1l6-3c4-1 6-3 4-3s-1-3 1-4c4-1 5-3 2-5l-2-4v-7c0-2 0-3-3-3-2-1-4-1-9 2l-6 4-3 5-6 9c-3 6-3 7-2 13s1 6-2 7l-2 5-4 16c-1 2-3 1-3 0l-2-2c-1 0-2 1-2 4l-1 21c1 5 0 9-4 11-2 1-6 6-9 12-5 8-7 10-8 9-5-1-5-2 0-7l5-4 1-9v-12c-1-2-2-4-1-6l-1-9-2-7c0-3-6-8-9-7s-4 1-5 5l1 6c2 3 2 6 0 6l-3-3c-2-2-2-2-6-1l-9 7c-6 5-6 5-5 8 2 4 0 7-5 10-3 1-4 2-5 5l-4 8-3 4-4 3c-5 2-5 3-4 6 0 3 0 4-2 5l-4-1c-1-1-3 0-7 1l-9 1c-4 0-18 3-21 5l-5 3-4 2c-2 0-2 0-3 4-1 3-2 6-4 7-2 3-3 3-6 3-3-1-4-1-4-5-1-8-8-12-10-6-1 4-4 5-4 1l-2-4c-1-2-2-2-4 0h-4c-2 0-1-5 1-6l3-4 3-2c1 0 5-7 5-10l-1-2c-2-2-1-5 2-6 2-2 2-3 2-6l-5-8c-4-4-4-4-4-13-1-11-2-13-7-13s-8-1-8-3-4-5-7-5c-1 0-2-1-2-3l-2-3-3-2c-1-3-1-3 1-5v-4c-1-3-2-3-5-3s-4 1-7 5l-4 7c0 1-1 3-4 4l-4 4-2 7c-1 5-1 5-2 2-1-4-3-4-7 1-6 6-7 10-6 17l1 7c1 1 0 8-1 10-5 5-1 15 7 21 3 2 5 4 5 6l1 3c1 1 0 2-2 2s-3 1-3 3 0 2-2 0l-2-5c0-3 0-4-2-5-2 0-4-3-5-5-2-5-8-8-17-9-6 0-8-2-2-2 4 0 5 0 7-4l1-8c-2-10-2-11-6-14l-7-3 2-2c5-2 6-7 6-15l-1-7 5-1 6-1 2-1c3 0 2-4-1-8l-4-5-2-2c-4 0-8-2-8-4h2l5 1c3 0 5 1 7 4 3 4 4 4 7 4 4 0 5-1 12-7l10-8c5-2 11-6 14-11 3-4 3-5 3-10 0-15 0-17-4-18v-9l-2-4c-1-3-4-3-4 2-2 7-2 8-5 12-5 4-10 7-16 8-3 0-4 0-6-2-3-3-2-5 2-6 6-2 10-5 10-7l3-5 2-6 1-4 5-6c9-11 10-12 13-10s6 0 6-3c0-2-1-3-4-5-4-3-4-4 2-4 5 0 5 0 7-3 0-2 2-4 4-6 2-1 2-3 3-11 1-9 1-16-1-22 0-2-3-3-3 0l-2 3-4 5-4 14-1-3c0-2-1-3-3-4s-2-2-2-8c0-8 0-10-4-10-2 0-2 0-2-3 0-5 1-7 3-7 4 0 10-3 13-6 1-3 3-4 6-5 2 0 5-1 7-3l8-2c3 0 4 0 5-2l1-2-3-2c-3-1-3-1-3-5 1-4 1-4-4-6l-6-1-3 1c-1-1-3 0-4 1h-4c-2-2-3-2-6 0-5 5-6 6-9 6s-4 1-13 12c-4 3-5 4-8 4-2 0-4 1-9 5-10 8-14 12-14 15 0 4 1 6 3 6s3 4 1 6v3l-2 4-2 5c0 3-2 6-3 4v-13l-1-5-4-4c-3-2-3-2-6 1l-3 5-4 1-5 2-5 2-3 2-2 1c-5 0-7 3-7 8 0 4 0 4 6 9 4 3 7 6 9 10 2 5 2 5 1 7-3 4-3 10 0 10l2 2c0 2 0 2-2 1-3-1-3-2-3-10-1-9-1-10-10-15l-7-4-3-2c-2 0-3 1-5 4l-2 8c0 7-1 12-3 14l-2 4-3 3c-2 0 0-11 3-18l2-9c1-4 7-14 11-19l6-8c1-4 8-9 11-9s5-7 3-8 1-3 4-3l7-3 6-3 7-6c6-6 19-14 21-14s4-2 4-6c1-3 2-5 7-9l6-6 5-3 10-5 6-2v-5l-1-7c-2-3-5-4-5-1 0 1-1 3-4 4l-5 4-10 5c-7 2-9 3-13 8l-7 6-4 1c-5 4-21 11-25 11-3 0 2-3 6-4 3-1 5-2 10-7l9-8c3-1 6-4 13-10l6-4c1 0 4-3 4-6l-2-3h-4l-6 2-4 1c-1 1-5 3-8 3-8 2-19 7-21 9l-3 2c-3 0-2-4 0-5l9-4 8-4 6-4 9-5 4-4 7-4 4-3 1-2c0-2-2-3-4-1-2 4-9 3-9-1 0-2-5-6-9-7l-3-1 7-1c7 0 10-1 10-4l-2-2-5-4c-1-5-5-7-11-6l-4-1h-3zm56 655l-2 2h-2v-2h4z"/>
  <path d="M462 127c-3 1-3 2-2 6l1 10c0 4 1 5 3 7h7c2 0 3-1 3-3s-1-2-3-3c-3-1-3-2-3-5 0-4 0-5 3-6l2-4-4-3c-4-1-4-1-7 1z"/>
  <path d="M455 165c-3 5-2 6 3 6 5-1 6-2 6-6 0-3 0-3-4-3-3 0-4 0-5 3z"/>
  <path d="M434 250l-8 4-6 3v16c1 3 11 16 15 19l5 5c2 3 3 4 4 3h1c0 3 2 4 6 3 4 0 5-1 5-3l5-5 5-4 3-4 3-5 2-4c2-3 2-3 0-5-2-1-3-2-5-1-3 1-6 0-6-3 0-2 0-2-8-2h-9l2-3c2-1 3-5 1-7-1 0-1-1 1-2 1-1 1-2-2-4-3-4-9-4-14-1z"/>
  <path d="M320 272c-2 1-5 4-7 8l-6 9-6 14c-4 14-8 23-11 25-2 1-3 7-1 7 2 1 3 21 1 28-1 3-2 7-1 9 0 4 4 7 7 6 2-1 13-11 13-13s5-10 8-12c4-2 6-9 6-13-1-4 0-6 4-5 3 0 3 0 3-4-1-8-2-10-6-10-5 0-5-1-1-5 3-2 3-2 4-1l3 2c2 0 2-1 2-4 0-4 1-6 4-9 3-4 4-6 1-10-2-2-3-1-6 4s-6 6-8 3v-7c2-1 1-6-1-7-3-3-2-5 1-10 2-4 2-4 1-6-1-1-2-1-4 1z"/>
  <path d="M426 296l-1 3-2 5c-2 4-2 7 0 7 2 1 2 2 2 5 0 4 3 8 5 6l1-4 3-3c3-1 4-2 5-5s1-3-1-5l-3-5c-2-3-7-5-9-4z"/>
  <path d="M389 300l-6 6-3 4-2 4c0 5-2 6-4 3-1-2-2-1-4 4l-3 4c-5 0-14 8-18 17l-4 7c-2 1-4 3-4 5-2 5-3 6-6 5-2 0-3 0-4 2l-4 7c-3 2-6 7-8 10-3 4-4 6-4 11l2 10v10c-1 7 0 10 5 15 3 4 4 11 4 21l-2 11c-3 7-4 11-3 16 0 5 1 6 3 6l5-3c8-7 17-10 31-10 15 0 22-2 16-6-3-1-1-2 4-2 3 1 6 1 9-1 5-2 6-4 3-6l-6-5c-3-3-4-4-8-4l-9 3c-5 2-8 3-8 1 0-3 10-7 17-7 6-1 7-2 10-5s4-4 4-7c0-4-2-6-6-4l-2 1 4-7 2-6c1-4 1-4-3-5-3 0-4-1-4-2-1-3 1-4 6-4 4 0 5-1 8-3 3-4 3-4 2-8 0-4 0-4 5-9 3-2 8-8 11-14s6-9 7-9c2 0 3-2 4-3l5-18-10-1h-10l-6 4c-5 4-7 4-13 5-5 1-7 1-12 5-4 3-6 5-7 4-1-3 12-12 28-21 9-4 10-5 9-7-1-4-2-5-4-3-4 2-4 0 0-3l3-6c0-3 0-4-5-9-6-6-8-6-15-3z"/>
  <path d="M457 388c-2 3-3 7-2 7l-1 3c-4 3-1 6 3 4 3-2 3-2 4 0h2c2-2 2-3 2-5v-7c3-8 3-9-2-9-3 0-3 0-6 7z"/>
  <path d="M549 396c-4 2-4 4 0 5h5l4-1c3 0 3-4-1-5-3-1-4-1-8 1z"/>
  <path d="M550 410l-7 1-8 1-7 2c-4 0-5 2-2 4 2 3 9 4 12 2l9-3c7-1 9-3 7-6-1-2-1-2-4-1z"/>
  <path d="M561 474c-3 2-4 10-1 11 2 1 7 1 10-1 3-1 3-2 3-4-1-4-6-9-9-9l-4 3z"/>
  <path d="M539 507l-7 3c-2 0-6 5-5 6l7 3 6 2c-1 2-5 2-6 1-4-4-13-3-15 2l-3 2-20 7-4 2c-2 0-8 8-8 9l5 3 4 1c1 2 11 6 16 7 16 3 22 4 23 3l5-1c5 0 7-2 4-4-1-1-1-1 3-1s6-2 5-4c0-2 1-2 4-2 5 0 7-1 3-3l-4-3c-1-2-2-3 0-4l2-2c2 0-3-4-5-4-1 0-1-2 1-4l1-3v-3c1-2 1-2-1-4-3-2-3-3 1-3 3 1 7 0 6-2-1-1 0-1 2-2l4-1-5-2c-6-3-12-3-19 1z"/>
  <path d="M501 579c-5 6 0 9 13 9l8-1-1-3-4-4c0-1-3-2-7-2-6-1-7-1-9 1z"/>
  <path d="M43 648c-3 2-5 8-4 10h4l4 1-2 1-3 1-4 1c-2 0-3 0-4 2v5l1 3c-1 3 5 6 15 6 5 0 9 1 9 2h5l11-1c10 0 13 0 12-2-2-3 3-1 7 3s5 4 8 2c3-1 4-1 4 1 1 2 4 1 4-1l2-3 1-6v-6l-1-2c-1-1-2-2-4-1h-3l3-2c2-3 2-7-1-10-2-1-2-1-4 1l-4 3c-4 0-6 1-6 3l-2 1-3 1-4 4-1-3 1-3-6 1c-10 1-10 1-11-2l-2-3-3-2-5-2-8-3c-4-2-4-2-7 0z"/>
  <path d="M672 677c-3 1-5 5-4 6l3 1 2 1c1 2 4 3 4 1 0-3 2-1 11 7l4 3 1 2c1 3 4 2 6-1l6-4 5-1c1-2-1-5-3-5l-6-4c-3-4-4-4-8-4l-9-1c-8-2-10-2-12-1z"/>
  <path d="M640 718l-1 3c0 2 0 2-3 2s-4 1-4 7c0 4 1 5 4 8l5 8c1 2 3 6 6 8 4 4 5 5 10 6 4 0 6 1 8 3l3 6c0 3 1 5 3 5l5 2c3 1 3 1 5-1v-5c-1-1 0-3 2-3s1-2-2-6c-1-2-3-3-5-3l-2-1c1-2-3-3-10-3-6 0-8-1-10-6l-3-5c-1-2-1-4 1-4l2 2c0 2 8 7 9 6l-1-6c-1-4-2-6-5-8l-6-7-4-5-3-2-4-1z"/>
  <path d="M643 784c-2 2-3 4 0 6l2 5c0 3 0 3 3 3 2 0 2 0 2 4 0 3 0 4 3 5h5l5 4 5 3c4 0 7 1 13 6l9 5 5 1 3 1 4 1 5 5 6 6 5 7c4 4 5 5 10 5 4 1 5 1 6-1s-2-9-4-11c-7-5-10-9-12-12-1-4-4-6-11-8-5-1-7-2-10-6l-4-6-5-7c-4-4-12-6-20-6l-5-1-2-1c-3 0-9-4-11-7s-3-4-7-1z"/>
  <path d="M585 811c0 5 4 17 6 19l2 3c0 2 3 5 4 5s1-4-1-13c-1-7-2-8-6-13l-5-4v3z"/>
  <path d="M361 855c-3 1 0 8 4 8 2 0 2-1 1-6-1-3-2-3-5-2z"/>
  <path d="M334 858l3 4c3 2 3 4-1 7-4 2-5 5-2 7l2 4c0 1 3 3 5 3 0 0 2-1 2-3 2-3 2-4 1-9l-2-8c0-2-1-4-3-5-4-2-5-2-5 0z"/>
  <path d="M591 864c-1 3 0 4 4 9 6 6 6 7 3 12l-2 10c0 6 0 6 2 6 3 0 5-2 5-5s1-4 3-5 3-2 3-4c0-3-3-9-5-10l-5-7c-5-10-6-11-8-6z"/>
  <path d="M608 897l-1 4-1 3-3 4v6l2 4 3 1c4 0 13 3 13 4l3 1c3 0 3 0 3-6 1-6 1-7-2-9l-4-6-3-3-3-3c-1-2-6-3-7 0z"/>
</svg>
