<svg xmlns="http://www.w3.org/2000/svg" viewBox="0 0 1024 1024">
  <path d="M316 3l-1 2 7 4c5 2 9 3 16 3l9 1 3 9 3 9-5 4c-5 3-5 4-5 7 1 2 0 8-2 14-2 11-2 12-8 17-5 5-5 6-6 11 0 5 0 8 2 13 3 6 3 6 13 11l12 9 10 5 8 3 4 11 5 13 6 1c11 0 12 1 20 10l6 9 5-1h4v5c0 5 0 5-3 6s-3 1-5 7-2 7 0 11l1 11v6l6 4c6 4 6 4 6 8v4l-6-1c-6-2-7-2-7 3 0 2 1 5 4 8l4 5-3 4c-3 3-3 4-3 10s0 7-4 12c-3 5-4 7-4 12s0 6 3 8 3 3 3 6c-1 2 0 5 3 12l3 9-14 2c-8 0-15 1-15 2l-1 5v5h15l-3 5-2 5-6-3-7-3 2 6c3 7 2 7 15 4 8-2 9-2 10-5l1-4 14 2 13 1 1 4c0 5 0 5 7 10l7 4-2 9-7 14-4 5 3 6c1 3 2 5 1 6l-4 6-7 14-2 9 6 12c7 15 8 19 4 24-2 3-3 4-2 8l1 5-6-1c-4 0-5 0-8 2-2 2-2 2-6 0-4-1-4-1-6 1l-3 2 2 3c2 2 3 3 2 4l6 16 9 15 8 4c5 2 8 5 12 8 4 5 5 5 10 5 6 0 6 0 7 4 2 3 2 4 1 7-3 5-2 6 3 8 5 1 6 2 8 8 2 3 4 8 4 11v5l-7 3c-5 1-8 3-10 5-1 2-4 5-8 7l-5 4 3 3 4 3-2 3c-3 4-3 4-3 20s0 17 3 24c4 10 5 19 3 23-2 3-2 3-1 6 2 3 2 4-1 7l-2 3 2 4 2 3h-3c-3 0-3 0-3 4-3 12-3 13-8 15l-8 3-2 1 2 9 2 13c-1 3 0 5 4 13l5 8 3-2 8-1c6 1 6 1 7 17 0 14-1 20-8 34l-5 10 1 9v9l-8 5-8 6 5 5 4 5-4 7-5 6 5 2c3 3 4 4 4 7s1 3 7 8l8 4-2 9-1 8 4 6c3 4 4 6 9 7 9 4 11 6 7 11l-2 3 3 7c4 8 5 8 17 15l11 7 2 6c1 4 2 5 12 5l8 1c3 0 3 1 8 14l5 6c3 1 5 4 7 7l3 5 10 1h11v6l1 6 16-4c26-9 52-16 62-18 8-1 49-12 50-13l-13-40-4-3c-3-2-4-3-4-6 0-4 0-4-10-11l-10-6v-6c0-4 0-6-2-8-2-1-3-4-3-6-1-4-1-4 3-5s4-1 4-5c0-3-1-6-3-8l-3-4 2-8 1-8-2-4c-4-4-9-16-8-17l3-1 8-1 5-2V715l1-125-3-10c-4-15-4-19 2-30l4-9-2-5a558 558 0 00-2-63v-32l1-7-6-13-7-13-8-4c-6-4-8-6-14-14l-7-10-3-19-3-20c-1-2-3-3-7-4-4-2-4-2-5-6 0-3 1-5 4-9l3-5-1-39-3-40-58-42-58-41 1-15 1-15 4-2c5-4 5-3 2-21l-2-13 9-10 8-9 3-17 3-18-25-1-24-1-14 4-16 5-1-2-1-3-2-4c-1-3-4-3-63-17L319 0l-3 2z"/>
</svg>
