<svg xmlns="http://www.w3.org/2000/svg" viewBox="0 0 1024 1024">
  <path d="M401 1l-3 4c-1 2-2 3-4 3h-5c-2 2-3 2-7 0-5-2-11-2-11-1l2 2 4 7 1 4-3 3c-3 3-4 4-8 4l-10-1c-4-1-5-1-9 1l-5 2v7c-2 11-2 12-6 13-5 1-5 1-5-3l-1-4-3 4-6 4c-3 0-6 2-8 3l-4 1h-18c-4 2-4 2-5-1 0-2-2-4-5-5-6-3-8-3-8 4 0 3 0 4-6 7-6 2-6 3-6 6s-1 4-2 5c-2 1-2 2-2 7l-1 6v3c3 3 2 6-1 10l-3 5-2 3-2 2 2 3c2 2 3 4 3 7l1 7c3 4 2 7-2 7l-7 3c-5 3-13 2-15-2l-4-2c-2 0-2 0 2 6 3 4 3 6 3 12 1 6 1 6 3 7l4-3c2-2 2-2 4-1l3 3 2 5 1 5 2 5c2 2 1 6-1 7l-2 2c0 3 13 20 17 24 5 4 21 22 24 27 1 4 9 10 11 10l3 2 2 4 2 3v6c-2 1-2 5-1 9l3 3c2 1 3 1 3 4l1 4c2 2 5 11 5 14s1 2 5-2c5-4 9-5 11-3 1 2 0 9-3 10l-1 4c0 5-1 6-6 5s-6-1-7 1-2 3-3 2h-3v36c0 12 0 13-2 12l-4-1c-2 0-6 4-6 6s0 2-2 1c-4-1-6-1-7 1 0 2-2 3-3 3-3 0-4 9-1 14l2 8 3 11c2 5 3 6 6 8 4 2 5 3 5 5s0 2 2 2c1-1 2 0 3 4l3 6 3 4c1 2 3 4 10 8 11 6 15 10 17 16 1 3 2 4 4 5 3 1 4 3 4 6l2 4c2 1 2 2 2 7l2 9v7l-1 10c0 4-1 6-2 6-3 1-3 10-1 13l2 4c0 4 5 14 8 16l3 4 3 3c3 3 3 3 4 8l1 11 2 7v5c0 2 1 3 3 2 3 0 3 0 1 6l1 2c2 0 2 2 2 10 0 10 0 11-2 13l-5 7-4 8-2 4-2 3c-3 0-3 1-3 3 1 6-15 25-19 24-2 0-3 1-3 5 0 3-1 3-3 3l-6 6c-5 5-5 6-5 12l-2 10-1 7c0 2-2 6-7 12-8 12-8 12-9 10h-2l-1 4-4 12-3 6c0 1 2 1 3-1 3-3 5 1 3 7l-3 11-5 16-3-1c-1-1-1-1-3 3l-1 73v23l3 3c4 4 8 4 11 0l1-7v-10l1-8c0-2 0-3 2-2 2 0 2 1 2 6 0 10 4 14 5 4l1-6c1-1 11 5 12 6 0 2 1 2 5 2 5-1 5-1 6 3 1 3 0 4-1 5s-1 1 1 3c2 3 4 9 4 14 0 3 1 5 3 7l3 4 2-3 1-9 1-5 3 4 5 5 2 4 2 6 2 6c1 4 5 6 8 5s3-1 5 6l4 2c4 0 5 2 5 9l-1 10c0 2 0 3 1 2l3 2 2 1c2 0 6 4 6 6l2 2 3 2 3 6c3 4 3 4 7 4 10-2 9-2 9-8v-5l4 1c5 1 5 1 5 3 0 4 2 7 6 8l4 2 3 1 7 2h7c2-2 3-2 3 0l2 1c2 0 3 2 4 9 0 5 1 6 3 6l5-1c1-1 1-1 3 1h4c3-2 3-2 3 1l-1 4v3l2 6c0 5 0 5-4 7l-3 4-1 3c-2 1 3 7 7 10l3 3c1 1 1 1 4-2 2-1 4-4 4-6 2-2 2-3 4-3l5-2 3-2 6-3c5-3 5-2 9 5l4 4 5 1 4 2 1-3 4-4 4-2-1-3c-2-2-2-3-1-6l3-3 9-9 3-4-6-4c-11-6-19-13-28-28l-10-14a299 299 0 01-17-5l-2 3c-2 3-3 3-11 3-8-1-9-1-12-3-1-2-4-3-6-4-2 0-4-2-9-9l-10-13c-5-6-9-17-12-35-5-29-10-46-15-49-4-2-5-1-2 1l3 6v3l-3-2-4-6-5-6c-2-2-2-2-4-18 0-10-2-17-3-19l-1-7c0-6-8-9-17-5l-6 1-2 1c-3 2-8 3-15 2-3-1-4-2-5-4-2-3-2-3 1-6 3-2 3-3 2-6l-2-6c0-3-1-4-4-7s-3-3-3-12l1-12c1-2 2-4 1-8 0-5 0-6 2-7 3-3 3-4-1-4-2 0-2 0-2-2l1-2 2-1c4 2 11-8 6-9-3-2 0-11 5-16 3-2 5-6 5-9 0-2 1-3 3-1 3 3 5-13 2-17-2-3-2-7 2-7 2 0 2-1 2-3 0-5 3-13 5-16 2-1 3-4 4-6l4-7c4-4 5-6 6-13 1-11 2-12 6-14 4-3 7-9 6-12l-1-11-1-11c-2-4-1-14 1-20l4-9 1-5c2-2 1-3-2-9l-4-7c-2-3 1-8 7-10l7-2 4-3c3-2 3-2 3 0 0 3 1 3 7 1l9-2 5-1c1-1 2 0 4 1l11 2c5 1 8 1 9 3v26c2 3 1 4-2 7-3 4-3 4-2 6 2 4 1 7-1 7s-4 6-3 8l4 1c2 0 2 1 4 4 1 4 3 4 3-2 0-2 0-3 3-4s18 1 21 2c4 2 21 0 23-3 4-4 10-2 16 8l3 3c0-2 0-2 2-2l3 1v2c0 3 0 3 2 3 4 0 7 2 13 11l7 7c3-1 5 0 10 4l7 4 1-4c-1-2 0-4 1-4s3 3 11 20l9 16 3 4-1-6c0-4-1-6-3-8l-2-5-2-4-2-5-2-6c-2-2-3-4-3-10s1-7 3-9l2-3-2-1c-2 0-4-3-5-6l-6-7c-5-3-7-6-5-8v-4l-1-12-4-7-4-7-2-5c-1-2-2-4-1-5v-16h6c5 1 6 1 9-1 2-1 3-2 2-3-2-1-2-5-1-5l5-2c4-2 5-3 8-9 2-5 4-8 6-9 3-2 4-3 5-7 2-7 3-9 5-9l6-4c3-2 5-3 11-4l10-2 4-1 4-2 6-1c2 1 3 0 4-1 0-1 1-1 5 1 3 2 6 3 13 4 13 1 21 0 23-2l2-3 4 3c4 2 15 3 18 0l3-1h6c2 1 3 1 4-1h6l6 3c2 0 3 2 3 7 0 3 1 3 4 4s3 1 5-1l2-4c0-2 4-5 10-6 4-1 5-2 10-7l5-5v-9c-1-9-1-10 2-12 2-2 2-3 1-5s-1-3 1-4v-2l-5-5-3-5 2-3c1-3 3-4 5-4s2-1 2-3c0-1 0-2-3-2l-5-1c-1-1-1-2 2-3 4-2 6-4 6-6l2-5c2-3 2-7 0-10-1-2-4-3-7-4-7-3-12-9-11-13l2-2 1-2c0-3-1-3-9-4-10-2-16-4-16-7 0-4-5-11-8-13l-5-5c-1-2-3-4-5-4-2-1-2-1-2-10l-1-19c-1-9-1-9 1-14 3-4 3-6 3-13 0-10-2-13-8-16-11-5-16-10-19-16-2-5-3-6-7-7-3-1-4-1-5-4l-5-11a215 215 0 01-14-19l-4 3c-3 2-3 2-3 0 0-1-1-2-6-3l-11-3-6-2c-1 1-4 0-5-1-3-1-9-1-12 1l-2 5c0 3 0 4-3 4-4 1-4 2-4 4l-2 5-2 5c0 5-5 9-8 6-1-1-3-1-8 2-8 3-9 4-11 8l-2 2c-3 0-5-5-5-7 1-2-1-4-5-4l-9-2-6-2c-1 1-7-5-8-8 0-2-1-2-7-4-2 0-3 1-8 5l-5 6-5-2c-4-1-4-1-5 2l-2 5c-1 3-2 4-6 6s-5 4-5 5c1 1 0 2-5 4-5 1-7 3-15 11l-9 9-4-3-6-2c-1 0-2-7 0-10v-4c-1-3 3-11 6-12l2-4 2-3c2-1 2-4 1-16 0-7-1-8-3-9-5-2-6-3-4-5l7-8 1-1c1 0 3-2 4-5 2-4 2-4 1-5-2-1-2-2 0-5l1-7c0-2 1-4 4-6 3-4 3-4 1-5-3 0-6-7-6-12l-1-6-2-4c-1-3-1-3 2-5s4-5 1-8c-1-2-2-2-5 0-4 1-5 1-6-1-2-2-6-3-11-2l-8 4c-4 3-4 3-7 1-2-1-7-1-9 1 0 1-6-2-6-4l-2-3-2-3-1-4c-2-3 0-7 4-8 3 0 4-2 5-13l2-6c0-3 0-3-2-3-3 1-6-2-11-9s-9-9-11-5c0 3-7 8-10 8l-1-4c1-5-1-8-4-8l-3-2c0-1-5-2-7 0z"/>
  <path d="M565 575l3 6c2 4 3 5 7 7 5 3 6 2 3-2l-4-6-4-5h-5z"/>
  <path d="M584 603c-1 2 0 9 1 10 2 1 3 1 3-3 1-6-1-10-4-7z"/>
  <path d="M285 719l-2 3-2 3c-2 1-3 5-1 8 1 3 11-10 11-12 0-3-2-3-6-2z"/>
  <path d="M408 739c-1 4-1 4 3 5l3 1v-4c0-3 0-4-2-5-3-1-3-1-4 3z"/>
  <path d="M407 752c-3 0-4 1-3 2l1 6 1 5c2 0 8-6 9-9v-4h-8z"/>
  <path d="M261 759v6c1 0 4-4 3-6h-3z"/>
  <path d="M383 949l-1 4c-2 2-2 4 2 7 3 3 5 2 5-5 0-5 0-6-3-7s-3-1-3 1z"/>
  <path d="M358 957l-8 3 6 2c1-1 3 0 4 1 2 1 2 1 3-2l2-4c1-2 2-2-7 0z"/>
  <path d="M396 967l-8 2-4 1 3 2c3 2 4 4 4 9 0 2 0 3 2 3l3-2 3-3c6 0 7-5 3-11-3-3-2-3-6-1z"/>
</svg>
