<svg xmlns="http://www.w3.org/2000/svg" viewBox="0 0 1024 1024">
  <path d="M416 165h-5c-4 1-4 1-4 5l-1 6c-1 3-15 14-26 19l-18 10c-6 5-9 6-14 7-10 2-26 7-30 10l-4 3-8-7c-8-6-20-13-23-13l-8 4-7 4-1 12c-3 16-2 15-6 17l-3 2v7l4 13 3 7-5 5-6 4 2 6 1 5-3 4c-4 3-6 4-15 1-12-3-40-1-60 5-9 2-11 4-10 8 1 2 2 2 6 2l10-2c9-5 14-6 23-6 6 0 9 1 9 2l-7 6c-11 8-12 10-12 19l-2 13c-2 4-8 10-10 10l-2-5c-2-5-3-7-5-7l-5 9c0 1-1 3-4 4l-6 4c-2 2-11 24-13 32-1 4-2 5-6 6-6 2-12 3-18 0l-13-1-11-2-20-2c-15-1-18-1-24-4-6-2-8-2-14-1-6 0-8 1-16 6-6 4-12 8-13 11-3 3-4 5-6 14-1 11-1 11-5 14s-6 6-5 9c1 4 4 6 14 12l16 10c6 5 7 6 9 12 3 8 9 13 18 18 6 2 8 3 14 3l11-1 4-2 6 6 6 7-4 5-3 4 2 3v8a484 484 0 019 43c1 6 2 8 6 13 5 6 18 15 29 20 8 4 9 5 7 10l-4 11c-1 5-2 8-6 12-5 6-9 19-7 24l1 3h-8c-11 1-15 4-23 16l-8 13-25 26c-11 10-13 15-14 34-1 17 0 19 5 23 2 1 2 2 2 6 0 7 2 12 6 13 7 3 11 6 18 12l11 8 4 2 4-2c7-5 15-9 19-10l8-4c5-5 11-8 23-10l15-4 8-3c3 0 4-1 4-3 0-3 1-4 3-4 3-1 4-1 5 1l3 3 3-4 5-6c0-2 1-2 2-2 7 2 8 2 9 1l1-4h1c2 2 6 1 6-1s3-4 5-3c1 0 4 1 5 3l26 17c4 2 13 0 17-3 2-1 4-4 4-6 2-4 2-5-1-7-4-5-7-13-7-16s2-6 6-13c6-10 8-13 13-15l6-5c1-2 2-3 3-2 6 1 33-1 38-4l6-1c3 0 4 1 5 3l9 7c5 2 9 4 10 6 2 3 7 3 8-1 2-4 4-6 8-9 3-3 4-4 6-9 1-3 2-7 4-9 3-5 2-13-3-18-3-3-5-9-5-18v-7h3l5-2 7-3c4-2 6-5 8-13 1-4 2-5 4-6 6-3 9-6 12-11l2-9 2-6 5-11c4-14 9-19 24-22l12-1 5-2c1-1 2 0 4 1l5 2 3 2c0 2 6 7 8 7l2 2 2 3 2 3c0 2 5 4 12 5s14 6 14 9l3 4c2 2 2 3 1 7l-3 6c-2 1-2 2-2 6l-1 6c-1 1-3 10-2 12v5l-2 8c0 3 0 4 3 5l4 2 3 2c0 2 1 2 5-1 3-2 6-3 10-3 4-1 5-2 7-4 2-3 2-3 5-2s3 2 2 7c-2 3-3 16-4 25 0 8-1 20-3 22l1 8v12l-2 14-2 19c-3 11-4 17-2 27l2 10c0 2 1 5 3 7 2 3 3 4 2 7-1 2 0 4 2 7l3 8c0 3 1 4 3 4 1 0 3 1 3 3l4 5 5 10 4 9 6 1 7 1c3 1 14-3 15-6l4-2c1-1 4-3 5-6 3-3 5-5 10-7l10-7 7-5 4-2 5-3c2 0 4-2 7-6l6-6 15-8 4-3 9 1h11l8-3c6 0 12-5 13-9l2-6c0-2 3-5 7-9l6-7 3-3c3-1 4-2 4-4l1-3 2-3c2-4 2-4 8-4l10-1 7-2c3-2 3-3 3-7 0-3 1-5 3-7l3-2 4-2c2-2 3-2 9-1l8-1 3-2 12-4h5l5 1 7 3c5 4 7 4 12 2 3-1 4-2 6-1 3 1 4 3 6 8l2 7-4 1c-2 1-4 2-5 1l-2 2c-1 4-1 5 1 6l3 3c1 3 1 3 7 2 6 0 6 0 16-8l7-6 2 2 2 2 3-3c2-3 4-4 8-5 12-3 13-3 15-7s2-5 10-7c7-3 8-3 12-2s7 2 12 1c6-1 7 0 9 2 1 1 3 3 5 3 3 2 3 2 6 0 1-2 3-2 4-2l6-1c3-1 4-1 11 2 7 2 7 3 10 9l4 6 7-4 12-7c7-2 8-5 6-9-2-3-2-3 0-5l2-5c0-6-4-9-14-14-10-3-10-3-13-8-4-9-5-12-5-16 1-4 2-5 7-9 7-5 8-8 2-10l-7-5-2-3 3-4c6-8 5-15-4-26-5-5-6-8-8-16-6-20-6-23-3-35 3-13 3-15-1-21-7-10-15-15-39-20-10-2-10-2-14 0-4 1-4 1-10-1l-9-3c-1 1-3 0-4-1-2-1-11-1-18 1-4 1-4 1-4 5l-1 6c-2 2-2 3 0 6l2 4-6 1c-8 2-15 1-20-3l-6-3c-3 1-4 0-6-2l-2-7c0-2-1-4-5-8-5-4-6-6-6-9l-2-6-3-10c-1-6-1-7 1-11 1-5 2-5 7-6 6-2 8-4 6-9l-7-6c-5-2-6-3-9-8l-5-14c-2-7-2-7-5-8-2 0-3-1-3-9-1-11-1-13 4-15l3-2-2-3c-3-4-6-5-14-5-5 0-11 2-25 12l-7 4-21 2-49 5c-26 2-28 2-39 6-15 4-18 7-25 17-8 13-11 13-29 0l-14-9-7 3c-5 2-6 2-11 1h-8c-4 3-7 2-7-3l-2-11c-1-7-2-8-5-9l-9-2c-8 0-14-3-18-11-7-12-13-13-33-4l-17 9-18 10-17 8c-6 5-14 1-17-7v-9l3-7c0-4 0-4-3-8-3-3-4-3-10-3l-11 2h-11c-7-1-8-1-13 2l-6 3-6-4-6-3-4 2c-5 3-5 3-36 3l-41 2h-10l-2-4c-2-3-2-6-2-13 0-10 0-10-5-20l-4-11 3-8 3-12c0-3 0-4 2-5 3-1 3-1 6 6l4 6 7-2 5-3v-7c0-6 0-7 2-8l2-4c0-2 0-3 2-2l5-2c3-2 4-2 6-1 3 1 4 0 10-4l7-4h10c9 1 30 7 46 13l8 2 11-3 11-3 10 1c8 1 10 2 10 3v6c-1 5-1 5 2 6s3 1 7-3c3-3 5-5 5-8 1-5 7-13 11-13l8-6 5-4 14-2 13-1 1-5c0-5 0-5-2-5l-7 2-11 3c-4 0-7 1-15 6-6 4-9 6-10 5l-8-5c-5-5-6-5-7-10 0-5-2-7-4-7l-3-2-6-3-5-1-7-8c-6-7-7-8-5-9l5-3 5-2 6-3 8-6c3-1 5-3 5-4 0-2 2-5 17-16 8-6 8-6-1-11l-6-3 2-3c2-5 2-7-3-9l-4-7c-3-6-3-6-8-7s-6-2-8-5c-2-4-3-6-5-5z"/>
</svg>
