<svg xmlns="http://www.w3.org/2000/svg" viewBox="0 0 1024 1024">
  <path d="M221 1c-1 2-1 2 1 3l4 1 6-4c0-2-10-1-11 0z"/>
  <path d="M235 2c-3 2 2 7 7 7 2 0 3-1 1-5-2-2-3-3-5-3l-3 1z"/>
  <path d="M225 12v2c1 2 4 0 4-2-1-2-2-2-4-1z"/>
  <path d="M243 16c0 3 0 4-2 6s-3 3-2 4c1 4 10-1 10-6 0-2-3-7-5-7l-1 3z"/>
  <path d="M224 18c0 1 3 3 5 3 2-1 1-4-2-4l-3 1z"/>
  <path d="M227 25c-1 2 3 4 6 3 4-1 4-3-1-4-3-1-4-1-5 1z"/>
  <path d="M472 232c-2 0-5 5-4 7l5 1c4 1 5 1 7-2l2-2-2-3c-3-2-3-2-8-1z"/>
  <path d="M452 242c-2 2-2 3-1 5 2 1 2 0 4-2l2-4c0-2-4-1-5 1z"/>
  <path d="M480 244v1l2-1-1-1-1 1z"/>
  <path d="M481 250l2 7 2 10c0 2 1 3 3 1s1-6-1-12l-3-6h-3z"/>
  <path d="M452 252l-2 5c-2 3-2 3 0 5 1 2 2 2 3 0v-12l-1 2z"/>
  <path d="M458 269c-2 1-1 3 1 3s4-2 2-3h-3z"/>
  <path d="M476 271l2 1 2-1-3-1-1 1z"/>
  <path d="M471 272l2 1 1-1-2-1-2 1z"/>
  <path d="M466 274h2c1-1 0-1-1-1s-2 0-1 1z"/>
  <path d="M728 324c-3 2-2 4 2 5 3 0 4 1 6 5 3 5 5 6 6 2 0-4-3-7-9-11-3-2-4-2-5-1z"/>
  <path d="M734 346l2 6 1 7c0 4 0 5 2 5s2-1 2-5l-1-8-2-6-2-2c-2 0-2 0-2 3z"/>
  <path d="M721 346c-1 1 0 2 1 3 1 2 2 2 3 0v-2c-1-2-2-2-4-1z"/>
  <path d="M729 358h2c1 0 0-2-2-2v2z"/>
  <path d="M733 362l1 1 1-1-1-1-1 1z"/>
  <path d="M791 1014c-5 2 0 10 6 10 3 0 7-3 7-6 0-4-7-6-13-4z"/>
</svg>
