<svg xmlns="http://www.w3.org/2000/svg" viewBox="0 0 1024 1024">
  <path d="M860 268l-14 13c-10 7-11 8-20 10l-15 5-12 6c-9 7-9 7-23 5l-8-1-9 4-21 10-23 11c-10 6-10 6-18 6h-8l-3-5c-4-5-5-5-14-8l-19-7c-7-3-8-3-20-3l-22 1-10 1-9 7-24 15-15 8h-12c-19 0-44 3-54 7l-9 3-8-3c-11-5-21-8-41-13l-16-5-10 4c-10 3-11 3-23 3h-13l-13 7c-11 6-15 8-22 9-11 2-14 2-25 0-9-2-9-2-11 0l-10 4c-6 3-8 3-13 2-6-1-8-1-17 1s-11 3-18 7l-7 5-7-1c-13-2-45 5-69 15l-9 3-10-1c-10-1-11-1-18 2l-32 11-6 1-5 22a376 376 0 00-9 42l-2 6-12 7c-11 7-12 8-16 15-3 3-7 11-10 17l-12 18c-5 5-9 11-10 14-2 4-4 20-4 27l6 7 6 5h18l4-6 5-6 9-2c6 0 13-2 15-3 4-2 5-2 7-9l4-8 11 6 17 12 6 4v11c0 9 0 12-3 18-2 6-2 9-2 18v11H87l-10 8-10 7-4-5c-4-5-4-6-12-7-9-3-9-3-18-1l-10 3c-2 2-5 12-7 22l-1 10 6 9 6 10 12 5 12 5v8c0 8 0 8 4 12 5 4 8 14 8 23 0 8 2 18 3 18 2 0 11-5 16-9 4-3 5-3 12-3 6 0 10-1 17-3 11-4 16-8 23-18 6-10 14-17 18-18 3-1 7-3 11-7l12-9 13-8 15-8c7-2 10-3 17-3h9l7-5c7-5 8-6 17-7 12-3 11-2 24-12l11-8 6 4 7 3 9-1c9-1 10-2 16-5 3-2 9-6 13-7l13-7 5-4 10 1 10 1 6-5 6-5h17c25-1 24-1 34-10 7-6 11-8 22-13s17-9 33-20l19-14 14-2 18-4c16-5 14-5 24-1l9 5 10-3 27-8c15-5 17-6 24-6l17-1 9-1 7-6c5-5 6-8 11-19 13-28 15-32 21-35 5-4 7-4 13-4h8l4-5c7-6 9-7 24-7 11 0 11 0 17-3 7-5 16-6 24-5l16 1h10l11-8c24-18 33-22 51-24l11-3c4-5 8-10 18-17a566 566 0 0071-65l2-5h6c5 0 5 0 12-7l14-12 7-7-10-7c-7-5-10-6-13-6-4 0-7-1-14-5l-10-5v-6l-2-7-22 9-11 5-11-2-15-2c-4 0-5 0-11-6l-6-6-14-3-17-3c-2-1-3 0-8 4z"/>
</svg>
