<svg xmlns="http://www.w3.org/2000/svg" viewBox="0 0 1024 1024">
  <path d="M428 162l-3 5h-15c-4-1-5-1-8 3-5 4-4 7 2 7 4 1 5 2 6 5l2 4-5-2c-6-2-9-1-17 1l-8 2 1 4c1 3 1 5-1 10a33 33 0 00-3 10 622 622 0 00-33 6c-3 0-10 6-14 11-2 4-3 5-8 6-5 0-6 1-8 4-2 4-2 6-2 13 0 9 0 10 4 15l3 8 1 8c1 3 2 4 4 5h2l-3 3-4 5-2 2-6-1c-5-2-12-2-24-3-10 0-21-2-27-3-13-2-22-3-32 0-14 4-14 4-19-1a71 71 0 01-19-27c-2-8-3-10-7-12l-5-5-4-10-1-8-10-9a134 134 0 00-52-31c-2-1-7 0-14 2-9 2-12 3-21 3s-10 0-18 4l-15 5c-6 1-7 2-25 17L0 235l3 3c3 2 4 3 4 7l-1 9-1 4 5 5c7 9 11 14 11 18l4 15c4 14 4 17 0 23-3 3-3 6-4 13s-2 9-5 13-5 8-6 14c-2 7-2 8-1 14l1 15 1 9 5 6 4 7v-6c-1-5-1-5 1-4l12 1c13 1 28 5 28 8l-2 6c-3 7-3 12 0 16 2 3 2 3 0 5-1 3-2 3-7 3-6 0-6 0-6-3l1-4c2-5 0-4-7 2-5 5-7 8-9 13l-3 6 4 10 4 10v-14l3 1 8 2c12 2 12 3 15 9l3 8 7 12c0 1 3 2 7 2 5 1 5 1 6 3l4 6 4 4-3 8-7 14c-3 4-4 5-5 12v12c1 10 1 19-2 31-3 15-3 28 0 45l2 17c0 4 0 5 2 5 8 2 14 3 22 3 10 0 10 0 18-4l13-5c9-1 13-8 13-21 0-4 0-4 4-6 3-1 5-3 7-6s4-5 9-7l12-7 6-5 14-2h18l14 2c23 2 30 1 32-6 1-4 3-5 6-8 4-2 6-3 8-2h11l15 3c2 2 6 3 8 3 4 1 5 1 8-2 2-2 5-3 7-3s3 1 7 8l4 11c0 7 7 11 27 16l24 7 9 4 2 4c1 6 1 6 6 8 6 2 12 1 16-2l4-2 6 1c4 2 6 2 10 1s5-1 10 2l11 5 9 4c2 2 5 3 8 3h5v6c0 6 1 8 4 15 4 7 5 9 9 11l6 4c2 2 3 2 10 2h8l2 3c2 3 4 4 7 4 6 1 8 3 11 11 5 10 9 16 13 17l4 5 3 3 29 1h27l1 5 2 14 3 16c1 7 1 8-1 19s-2 11 0 13c5 3 5 3 6 12l1 12c0 3 1 3 4 3 4 0 5 0 10 6 7 8 10 11 18 13 6 1 7 1 13-1 10-2 16-1 19 4l5 5c6 2 8 5 9 11l3 5 9-8 8-8 5 2 9 3c4 0 5-1 14-8l13-11c5-2 5-3 5-7l1-8c0-5 0-5 5-6l4-1-5-5-6-9v-3l4 1c4 0 6 0 14-4l15-6c2-2 6-3 8-3l8-2 13-3c8-1 8 0 7-7-1-2 0-3 5-5l9-3c2 0 3-1 3-2l4-3c4-1 6-4 9-8 10-14 10-14 10-27v-11l5-11c4-9 5-12 5-17l1-9c0-5 0-5 9-10 8-4 9-4 15-4l12-1 12-3 7-1 2-7 2-10c0-3 5-9 8-11s3-2 4 0 4 3 8 4l11 5c6 3 17 6 24 6s10-3 11-9v-26c-1-5 1-12 3-15 5-6 5-6 3-10s-5-6-11-6c-3 0-7-1-13-5l-13-6c-1 0-4-1-5-3-3-3-8-4-15-4-5 0-6 0-8 3l-4 3c-5 0-24-10-46-24l-24-14c-11-5-19-10-32-22l-7-6-5 2-6 1-18-11c-17-10-18-11-25-19-6-7-7-9-15-13a402 402 0 00-58-39c-8-4-9-5-11-10-2-3-3-7-3-10 0-4-1-6-3-10-2-2-3-6-4-9l-2-8c-2-4-3-5-7-7-5-2-6-2-6-5 0-2-1-5-3-7-6-9-10-19-10-24l-2-10c-4-11-20-26-28-26l-8-2-5-1v4c-1 6-5 9-10 7l-8-4c-5-3-5-3-8 0-1 2-1 2-4 0-6-3-14-3-20-1-10 4-19 1-36-13-4-3-4-4-3-6l2-8 2-4-3-7c-3-8-4-9-2-11 2-1 3-1 6 1l5 2-1-4c0-3-1-5-8-9l-11-7-4-1 2-2 3-2v-11c2-3 2-4 1-7-3-5-9-9-19-11-5-1-6-1-11 1l-5 2-9-3-9-3v-4c0-3-1-5-4-8-4-4-5-4-7-3l-6 1c-4 0-5 0-17-12l-12-12-1 4z"/>
</svg>
