<svg xmlns="http://www.w3.org/2000/svg" viewBox="0 0 1024 1024">
  <path d="M68 38c-3 0-13 10-20 19-14 17-27 32-37 41-9 10-10 11-10 16-1 4-1 5 4 13l9 19c4 10 4 11 5 27 1 24 2 29 5 35l4 15 7 19 3 10 12 10c11 10 12 11 26 16l14 7 8 8c11 11 31 28 51 40 12 8 18 12 26 20l10 10h19c34 0 51 4 100 22 20 7 24 9 31 15l19 11c7 3 9 5 10 8l1 3v3c-1 2 0 4 4 10 2 4 5 8 5 11 1 4 2 5 7 9l5 6-1 6-1 5 6 4 5 4-2 4-1 3 6 7c6 5 7 6 15 9 7 2 15 6 31 16 30 18 43 23 72 25h9l10-7c16-13 32-34 40-53l5-11v-13l-3-23c-2-9-2-11-7-17l-5-6v-8l4-12a684 684 0 0144-65c0-2 5-13 9-19 3-5 5-6 11-8l9-3c2 0 2-1 4-4 1-4 2-5 10-6l12-2 15-4 11-4 10-5c6-2 11-5 20-13l5-4v-8c0-9-1-11-9-16-4-3-5-5-7-10-2-6-3-6-10-11-6-4-8-6-11-12s-4-6-8-7a668 668 0 01-64-17l-16-6h-26l-7 4a620 620 0 01-46 11c-8 1-9 2-16 6-4 2-9 7-12 11-6 7-9 8-17 8-2 0-3 0-3-2s-1-2-2-2l-22 8-20 6h-34l-18-6c-25-9-24-9-27-14s-3-5-17-11c-13-5-15-6-21-6-9 0-15-3-23-11-9-8-27-17-36-19l-14-2h-7l-2 6-3 6-2-3c-1-3-2-4-4-1-3 3-14 7-21 8-6 0-7 1-12 5-4 4-5 5-10 6-3 0-7 1-9 3-3 2-5 2-10 2-6 0-7 0-11-3-3-3-5-5-5-7l-1-3h-8l-25-1c-15-2-16-2-24-6-6-3-9-5-14-10l-13-12c-8-7-14-16-14-24l-2-15c-1-10-1-11 2-19l3-8 9-8c7-5 11-9 15-15l5-7-3-4c-3-3-5-4-9-3z"/>
  <path d="M984 566c-4 1-7 3-14 9-14 12-16 16-22 36l-6 25c-1 6-2 7-7 15-9 12-10 13-10 18-1 4-2 5-9 11l-20 19-13 14-5 13-10 29-6 21-3 13c-3 8-3 8-2 18 1 11 3 21 9 44 6 19 6 20 18 26l11 7c4 5 14 21 15 25l2 5h11l7 6 13 11 19 20c13 17 14 17 23 22 5 2 11 6 14 9l5 5 3-4 8-9c5-5 5-5 6-13l2-14c2-10 1-18-1-24-4-14-5-20-4-48l2-29c0-2-2-13-6-25l-5-22 2-8 4-23 1-13-3-9c-2-8-3-11-3-17 0-8 0-9-3-14l-3-5 3-7 3-7-1-11-2-15c0-4-1-7-3-11-7-13-11-25-11-30s0-6-3-9c-2-3-3-4-2-7l4-10c3-5 4-6 3-15 0-7 0-11-2-16l-3-7-6 1z"/>
</svg>
