<svg xmlns="http://www.w3.org/2000/svg" viewBox="0 0 1024 1024">
  <path d="M58 288c-2 3-5 4-12 5-6 1-7 1-10 5-3 3-5 5-7 5-3 0-8 6-6 8l7 5 7 4v7l-1 8c-2 3-10 9-14 10h-3v9c1 10 1 11-8 20-5 5-7 7-7 9s1 3 4 4l12 2c7 0 8 0 11-2 6-3 13-3 13 1l-7 4-12 6-8 5c-4 2-4 2-5 7l-2 9-1 5 6-5 11-10c4-2 7-5 8-7 2-3 16-9 20-9 2 0 4-1 6-4 1-2 4-3 6-4 4-1 12-9 15-16 2-3 3-4 5-4l6-1c2-1 4-1 8 1l5 2 4-3c4-3 5-3 11-3s8 0 14 4c8 4 10 4 22 2h6l4 4 6 5 5 5 5 4 11 1c14 1 16 2 3 2h-13l-14 3c-7 1-11 2-14 4-5 4-5 5-1 8 2 2 4 2 7 1 3 0 4 0 5 2s1 2-1 2l-1 2h-6l-38-2c-16 0-20 0-14-3 4-2 3-5-4-6l-8-2c-2 0-2 0 0 4l3 6c2 3-2 4-13 4-9-1-9-1-13-4l-3-5-5-1-7 2H43c-4-1-6 0-14 8l-7 4-4 7c-1 6-1 6-6 6-3 1-4 2-5 4-2 5-3 11-3 16l-2 12c-2 7-2 9 3 7 6-2 25-5 32-5 6 0 7 0 8 2 1 1 0 2-4 6s-7 5-9 5c-3 0-3 0-3 2l2 5c2 0 3 2 3 3l3 5c4 5 4 7 2 9-4 4-1 7 5 7 5 0 6 3 3 6l-6 6h-8c-1-2-2-1-2 3s0 5 2 7c2 1 3 3 3 5 0 4 1 4 8 8l7 3-5 1c-5 1-12 0-15-2s-3-2-3 2l-1 3-2-4c-2-3-2-4-1-7s1-4-2-8c-3-5-4-6-7-6h-3v7l2 10c1 4 0 5-4 5-3 0-4 0-5 2v5l5 2c1 0 4 1 7 4l4 4 2-2c4-4 9-4 11 0l2 6c0 3 0 3 3 3 2 0 4 0 7 2l6 4c3 0 4 1 6 5 1 5-1 8-8 11l-6 3 2 1c4 1 6 8 6 17 0 5 0 7 2 7 1 1 2 0 4-2 3-4 8-4 6-1s-1 5 1 5c1 0 2 0 1 1 0 2 1 2 3 3 3 0 3 0 3 5-1 4-1 4-4 5h-6c-3-1-4-1-7 1s-3 2-2 5 1 4 3 3h6l13 1c27-2 36-2 36-1l-3 2-4 2-4 1c-3 0-3 1-4 4l-1 4H77l-12 3c-6 3-7 3-5 5h15l3-3c3-2 4-2 6-1h11l4-1c1 1-2 4-4 5-2 0-2 1-1 1 2 1 3 4 0 4l-3 4c0 2 5 0 9-3l7-6 3-3c-1-2 0-2 5-2 9-1 12 0 13 4l5 5c2 0 4 2 5 3 2 2 2 2 3 1l2-2 2-4 1-2 4 3c3 3 4 3 3 4-3 1-2 5 0 6 1 1 2 3 2 7v6l6 5c4 4 6 6 7 5l4 2 6 2c4 0 5 1 7 2 2 4 4 4 8 0l6-2c3 0 11-3 13-5 1-2 2-2 5-1l7 4c4 2 4 1 6-7l3-8 3-10c0-11 1-14 4-16s3-2 7-1l14 2c8 0 11 0 14 2l5 3 3 1 7 4 16 9c14 7 14 7 23 19 6 11 11 16 14 16l5 2c4 3 10 4 15 1 4-2 6-2 8-1s4 0 4-2l13-1c10 0 13 0 14-2 1-1 4-2 6 0l6-4c5-6 6-6 8-3l1 2 2-2 3-3c2 0 2-1 1-3 0-2 1-4 8-11a104 104 0 0119-16l10-3c8 0 8 0 11 2l4 3 6 4 7 4 5 2c2 2 3 2 5 1l6-1 6-1 3-10c0-2 1-2 3-2l8-6 7-5c2 0 9 5 10 8l1 8c-1 5-1 7-4 9l-6 5-7 6-4 5 4 9c4 11 5 13 3 18-2 4 1 7 8 7 5 0 5 0 6-3l3-4 4-2c3-2 3-3 3-9v-7h4l7 1c3 1 3 0 6-2l3-3-3-2c-5-2-7-7-7-11l2-11c1-5 2-9 5-13 1-1 2-1 5 1l6 2c6 0 7 1 7 4-1 4 3 7 7 5l11-1c6 0 8 0 9-2 2-2 10-5 14-5 1 0 5-1 7-3 11-6 15-8 21-8s14 4 19 9l4 4h22c27 0 34-1 46-6l15-7c4-1 8-4 10-6l7-4 5-4 6-2 8-1h14c12 2 18 2 22 1l9-3c8-1 20-5 22-8 1-2 4-4 6-4 3-2 3-2 6 0 3 1 4 2 4 6 0 2 1 3 2 3h5c4 0 9-5 11-11 1-2 2-5 4-6h7c4 2 4 2 9 0h8l7 1 7 2c2 2 5 3 5 2l3 1 10 1c7-1 7-1 9-3 3-3 3-3 9-3l7 3c2 2 3 6 1 7-2 2-1 7 1 9s3 2 5 1l2-3 4-4 8-4 6-3 4-2 2-3c1-2 1-2-1-3l-6-5-4-7c-2-1-2-4-3-11-1-8-1-9-3-9l-4-2c0-3-5-5-9-5-3 0-4 0-4-3-1-2 0-5 1-6l1-4 2-3c2-1 3-4 3-5l2-7c3-5 2-7-2-8l-4-2-4-24c0-7 0-8-2-9-4-1-5-5-4-11 0-6 0-8-4-10l-2-4-1-6v-4h9c1 1 3 0 6-2 4-2 4-3 4-8 0-9 1-13 5-17l4-4-6-8-7-7h-12c-17 0-29-3-26-7v-2l-6-13-2-4c-1-2-1-2 2-6l5-9v-10l-2-7c0-3-3-7-9-10-3-1-4-3-4-4l-2-5c-1-2-2-2-7-2-4 0-5 0-6-3-1-1-2-3-1-4l-4-2-7-7c-3-3-4-4-6-4-1 1-2 0-3-2-1-3-2-4-7-4-4 0-5 0-7 3l-2 4c0 3-2 4-4 3l-15-2-13-1-3 3c-2 3-2 3-4 1l-4-1-6-1c-2-1-3-1-9 6-5 5-7 7-10 7l-9 5c-3 3-6 4-8 4-5 0-9 2-13 5-4 4-8 6-11 6l-4 2-7 4c-6 3-7 3-9 2l-8-2-16-4c-9-4-10-5-14-4l-8 1-20 5-20 5c-5 1-17 0-27-3-6-1-6-1-7-5 0-4 0-4-4-4s-5 0-5 2c-1 2-2 2-5 1l-6-2-11-2c-7-1-7-2-9-6-4-6-8-8-16-9h-7l-4 3c-4 4-4 4-7 3s-5-2-6-5c-1-2-2-3-5-4l-3-1-1-7-3-9c-2-4-8-5-17-3-9 3-17 2-23-2-5-3-10-10-11-16-1-4-5-10-7-11l-4 2c-5 6-7 7-24 7-12 0-17 0-20-2l-8-1-16-2-15-1c-8 1-17 4-20 7-3 2-6 3-13 4-8 1-11 3-15 5l-7 3-8 5-9 5c-2 0-7 3-10 6-6 5-9 6-19 11-4 2-5 2-6 7-2 4-3 5-6 7-4 2-6 2-18 2-15-1-15-1-22-4-9-5-13-6-17-3l-7 2c-4 1-17 0-24-3-10-2-23-4-25-3-3 1-3 1-3-2 0-2 0-3-3-1-2 1-4 0-19-7-13-7-17-9-23-15l-8-10-2-6c-2-5-3-9-1-10 3-1 2-3-1-5-5-3-9-3-10 0l-3 2c-1-1-4 0-6 1l-4 2-3-5c-5-8-14-13-16-10l-3 1-4-1c-1-2-3-1-5 1z"/>
</svg>
