<svg xmlns="http://www.w3.org/2000/svg" viewBox="0 0 1024 1024">
  <path d="M999 38c-4 2-4 2-3 9 1 3 1 4-1 5-5 3-8 3-17 0-7-3-8-3-15-3l-12 4c-7 4-12 9-12 12 0 2 0 2-6 2-5 0-7 1-16 5l-18 6c-8 2-8 2-11 8-7 10-14 16-22 20-13 4-15 5-21 15l-9 11-9 9c-4 6-6 7-11 9l-6 2v5c0 4 0 5-3 6l-4 3c-2 3-2 3-6 2-7-2-7-2-7 5 2 12 1 11 11 11 9 1 10 1 15 4 4 3 6 4 10 4 3 0 4 0 4-2s1-2 4-2 4-1 4-3l3-6c2-2 4-4 4-6l6-4 7-4c3-2 3-2 9-1 11 3 13 3 14 0 0-2 2-3 3-3 2 0 3-2 3-4l2-4 17-1c23-1 28-2 32-9 1-2 4-5 7-6l9-7c2-3 5-5 7-5 4-1 4-2 5-4 0-2 1-5 3-6l2-4h15c3 1 4 0 7-2 2-2 3-3 3-6s1-4 2-5c2-2 3-2 4 1 3 3 7 3 10-1 2-3 2-4 2-14V70c-1-4-1-4 2-7l5-9 2-7c1-1 0-2-2-3-3-1-4-3-4-4-1-2-1-2-8-3l-10 1z"/>
  <path d="M721 408c-8 3-14 4-27 2-31-3-45-3-52 2-2 2-4 2-7 1l-36 5-16 2c-10 0-11 0-15 3l-19 11-16 7h-19l-22 2c-1 1-3 0-8-1-8-3-17-4-36-5-14-1-16-1-21-3-3-2-7-3-10-3h-5l-4 6-4 7h-7c-6 0-7 0-10 3s-5 4-8 4c-5 0-10 4-10 9 0 2 0 3-5 4-8 2-10 1-10-2l-2-4c-2-2-2-2-4 0-1 2-4 3-5 3-3 0-3 0-3-2 0-3-1-3-7-5h-4v11l-9 1c-10 2-10 2-13 0l-4-2-5 3c-4 4-4 4-16 4l-18 2c-3 1-9 2-20 2-14 0-15 0-19 3-7 4-19 13-20 16-1 2-1 2-9 1h-7v2l1 4 2 5c3 3 3 3 2 9v7l3 1c3 1 4 0 6-1l6-2c2 0 3 1 5 7l4 6 10-4-3-3-3-2 5-3c7-3 8-4 10-1l6 2 7 2 13 2c11 0 18 3 22 9l8 6 10 7c6 4 6 4 6 10 0 5 0 6 5 13 6 9 18 40 21 53l2 9-4 5-5 15a806 806 0 01-14 54l-3 2 3 2 4 2 1 2-2 7-1 6 4 6 5 8c0 4 4 16 7 21 2 3 3 7 4 14l2 16c1 6 1 7-2 14l-5 12c-2 8-7 14-13 16l-10 7c-8 6-9 6-20 9-8 3-10 3-18 2-13-1-19-3-27-7-6-4-6-4-15-4h-9l-4 4c-3 3-3 4-3 8 0 5-1 6-5 11-5 7-20 18-26 19l-7 2-3 4c0 3-1 5-5 8-10 8-25 12-49 12l-14 1c-2 2-10 7-20 10-11 4-12 4-12 7-1 4-8 16-11 19-3 2-5 3-13 3l-16 3-10 2c-8 0-12 3-17 15l-4 13v4h10c10-1 11-1 27-10l12-6 7-3c5-4 15-9 22-10 8-2 11-2 22 5l8 4 5-3 11-4c9-1 33 0 44 2l14 2c5 0 5 0 8 5l6 8c3 3 3 3 8 2l9-1 14-2 14-3 8-2 21-1c53 2 49 2 57 0 7-2 10-2 18-1h32c10-1 15-1 26 1 14 1 14 1 27-1 9-1 14-3 16-4 4-2 13-5 20-5l21 5 25 6c8 0 8 0 12-3s7-4 21-1h15l9-1c2 0 7-1 12-4l14-7c4-2 7-3 8-5 1-3 2-3 11-5 11-1 19-7 22-14 1-3 3-5 6-7l8-8c5-5 6-5 17-1l7 4 2 6 1 3 3-2 3-2-5-9c-6-12-9-25-7-33v-27l2-23c1-19 2-26 7-32l5-9 3-5 3 2 3 3 1-5 1-6c1-2 1-2-2-2l-5-1c-2-2-3-2-5 1l-2 2-4-3-5-3-10-32c-12-36-19-61-19-70l1-14 1-8 8-4 10-6c2 0 2-1 0-9l-1-13-2-14-5-24-6-29c-3-15-3-23 0-28 1-2 3-5 3-8l2-4h9l9-1 6-7c4-3 7-8 7-9l3-3c2 0 3-2 5-5l6-8c7-6 13-15 13-19l1-6 2-8v-5l8-5c9-5 13-9 13-13l2-5c5-5 4-6-7-3-2 0-3-1-5-4l-3-4-3 2z"/>
  <path d="M128 507l-1 2-2 4c-2 1-3 4-3 8l-1 7c0 1 0 2 3 2s4 0 5-4l2-4c0-3 3-4 7-3 6 1 5-2-1-8-5-5-8-6-9-4z"/>
  <path d="M173 508c-3 1-4 2-6 5l-3 5c0 1 4 1 11-1s8-2 9-6l1-4h-4l-8 1z"/>
</svg>
