<svg xmlns="http://www.w3.org/2000/svg" viewBox="0 0 1024 1024">
  <path d="M130 1l-9 5c-3 3-5 4-10 5-10 1-11 2-11 4l2 9 1 7 11 9c9 9 10 10 14 19 5 10 5 10 5 20s0 12 2 14c6 7 6 9 5 16-1 4-2 9-1 11 0 4 0 5-3 7-2 2-5 3-7 3l-7 3c-2 2-6 3-9 3-5 1-6 1-13 13-6 9-6 9 1 11 6 1 6 4-1 9l-5 8c0 4 0 5 4 6 3 2 4 2 7 1s4-1 10 2c5 3 7 3 9 2l4-1c2 0 4 7 4 16 1 10 1 10-3 13-1 2-5 4-9 5-6 2-6 3-7 6 0 4-3 8-13 16l-7 5v13l-4 2c-3 2-5 5-10 13s-8 12-13 16-6 5-8 10c-1 6-1 6-8 9-5 2-7 3-9 2s-3 0-8 4l-5 5-4-1-4-2v5l-1 13-2 15-1 13c0 5 0 6 4 11 2 3 5 6 7 6 3 1 4 3 6 7 3 6 3 6 2 13-3 16-1 25 5 32 3 3 6 10 10 17l5 11-2 4c-2 1-3 4-4 6s-2 3-4 3l-7 1c-4 1-5 2-6 6l-2 12-1 8 3 1c3 1 4 2 7 8l9 12 5 5 5-3c8-4 11-3 20 7l15 20 12 17c4 4 4 4 3 7l-2 5-2 2-3 2 8 19 4 14c1 6 2 9 5 13 9 12 11 16 11 20 0 3 0 3 3 3 1 0 3 1 4 5l5 6c2 2 2 3 1 7l1 6 1 4c0 3 3 12 5 12 3 0 6 3 6 6 0 2 1 4 3 5l2 5 1 5c0 2 1 2 3 2 9-2 10-2 16 1l9 5c3 3 3 3 2 9v6l7 5 8 6 2-2c2-2 4-2 6-1l7 2c4 0 4 0 3 3 0 2 0 4 2 7 3 4 4 5 9 3s11 0 16 4c4 4 4 4 10 4h11c5 1 5 1 7 5 1 4 1 4 8 7l12 2c5 1 6 2 8 5 3 2 4 3 7 3 2 0 4 1 7 4s6 4 7 4l4 1c2 4 10 9 18 11l9 2 5 4c6 5 8 6 20 6 11 0 12 0 17 4l9 5c2 2 2 2 4 1l2-8c0-5 1-6 3-8 5-3 6-3 10 4l6 7 4 4c0 2 3 5 6 8l7 10 7 11 5 7 1 16v26c-1 4-1 6 3 13 4 9 5 13 3 18-1 3-1 4 1 6 1 2 1 2-2 5s-3 4-3 9c0 6 0 6 4 10l8 12c3 6 4 7 8 9 5 2 7 5 6 10-1 3 0 3 3 4l32 1c33 1 35 0 38-6l3-4 4-3c2-2 3-2 7-2 6 0 10 3 10 5l-2 2c0 2 1 2 4 3 13 3 16 6 17 12 1 4 2 5 5 6h7l6-1 5-1c2-1 3 0 5 3 3 3 4 3 8 3s6-1 9-3c6-4 11-9 11-11s1-2 4 0c2 1 6 2 20 2 14 1 17 1 21 3 3 2 6 2 14 2 11 0 9 1 27-10 5-3 5-3 8-11l2-9h15c21-1 26 0 30 7l3 5 5-1 8-3c3-3 11-5 18-5 5 0 6 0 12-5l6-6h16l16-1 5-3c3-2 7-5 10-5l11-5 7-4a141 141 0 0057-29c5-5 6-5 10-5 5 0 7-1 10-7 2-4 3-11 2-15-1-3-1-4 1-6 4-4 4-5 0-6h-14v-12l-4-1-4 1-1 3c-1 1-2 1-6-3l-10-7-3-4v3c0 2 0 3-2 3s-2-1-2-3l-1-7c-3-8-13-10-20-3l-3 3v-3c0-2 1-4 4-6l5-4 1-1 2-4c2-1 2-1-2-11l-5-16c-1-5-2-7-5-9-2-1-4-3-4-5l-4-3c-2-1-2-1-1-2l3-2c1 0 3-1 3-3 2-2 2-3 0-5l-1-5c0-4-1-5-5-7l-3-2v3c0 3 0 3-2 3s-3-1-3-4c0-4 0-4 3-4s4-3 4-9c0-5-3-7-8-7-4 0-4 0-3-2 1-3 0-3 8-2h7c2-3 1-6-2-8-2-1-5-3-5-5l-4-4c-3-1-4-4-2-9v-4c-4-3-7-12-8-19s-1-8 1-10l2-8v-6l4 1h4v-4c0-4 0-4 2-5 2 0 3-1 3-4 0-4-1-4-9 0l-6 3v-3c1-3 1-4-1-4-1 0-2-1-2-3-1-5 0-8 4-10l3-2-1-16v-17h2c2-1 3-2 5-9l4-8c2-2 2-2 1-4-2-3-1-3 2-2 4 2 8 1 9-3 2-4 1-15-1-21-2-7-2-7-6-8s-5-2-6-4a101 101 0 00-29-30l-9-7c-3-3-4-4-6-4-2 1-2 1-1-2l1-10c0-7 0-7-4-12-5-7-6-10-3-19l3-9 3-9 4-11c0-4 1-7 3-9 4-6 6-12 6-16l4-10c4-7 5-8 2-8-2 1-1-2 1-9l3-12c0-5 2-10 3-10l2 2c1 2 1 2 3 0 2-3 2-3 0-7-2-2-2-4-2-7 1-4 1-5-2-8l-6-3a1314 1314 0 01-128-110l-7-6 4-7 4-6v-12l-2-13-57-33A8753 8753 0 01522 52L443 6l-2 2-8 7c-3 4-7 6-8 7-2 0-3 2-4 4-2 3-2 4 0 5l4 1c2 0 3 1 4 3l2 3-9-1-9-2 1 3c2 4 1 4-2 3-2-2-2-2-2 0l2 4c0 2 1 3 3 4l4 1h5c0 5-4 6-9 3l-6-1c-2 1-4 0-4-1h-6l1 3c1 2 1 2-2 2-5 0-4 1 1 6 6 5 5 7-4 7-8 0-9 1-3 4l4 3c2 2 0 2-3 1-4-2-4-2-4 1s-1 4-2 4c-5 2-8 1-10-1-2-3-2-3-4-1l-5 3-2 2-2 4-2 3 2 1c2 1 3 1 4-1 2-2 11-4 12-3l1 4c0 2 1 3 6 4l4 2c0 1-4 1-9-1s-10-2-9 1c1 2 0 2-4 2l-4 1h-7c-1-1-2-1-1 5 0 5 0 6 2 5 4-1 6-1 8 1 2 1 4 2 10 2l13 1h6c0-2 10-8 13-8s7 4 7 8-3 7-11 10c-5 1-9 3-10 5l-3 2c-2 0-6 5-6 7 0 1-1 2-3 2l-7 1-11 3c-7 0-7 0-13-8-2-3-4-4-6-4-5-1-10 0-14 3-3 2-3 3-4 12l1 12c2 4 2 5-1 4-2-1-3-2-3-4l-3-8v-7c2-3 1-3-5-3h-5l-3-6c-3-5-3-5-3-2 0 4-4 8-8 8-2 1-3 1-3-1 0-1-1-2-3-2l-4-2c-2-2-2-2 1-3 4-2 8-7 8-9l-1-3c-2-2-2-2-4 0-3 2-4 3-4 0l-2-1-1 2v5l1 4h-5c-4 0-5 0-6-2-1-3-1-3 3-3 3 0 3 0 2-1l-5-4c-1-2-3-3-4-2l-2-1c-2-1-2-2-4 4-1 4-5 7-10 7l-4 1c-2 2 2 8 6 10 2 0 3 2 3 3h-6l-5-3-3-2-1 3v6l-1 4c-3 0-2 1 0 6l4 6v3l-3-2c-2-2-3-3-3-5 0-4-3-5-6-1l-3 3c-2 0-4 2-4 5l-1 3c-2 1-2 0-2-5 0-7 1-10 4-10l-4-2-7-6c-2-3-2-3 0-5l3-1 4-1c2-2 2-2-1-4l-2-4c1-2-1-5-4-6-2-1-3 0-4 1-1 2-6 3-6 1l3-8c3-10 4-13 2-13s-2 0-1-2c2-2 3-9 1-9l-3 1c-3 1-3 1-3-1l6-12c2-1 2-4 3-10l2-13c2-3 2-6 2-9v-5h2c0 3 3-3 3-6l2-8c2-4 2-6 3-15V7c-1-2-4-3-7-1-1 1-2 0-2-1 0-2-1-3-9-3l-19-1a491 491 0 01-64 0z"/>
  <path d="M336 82c0 3 1 4 2 5 2 2 3 2 5-1 3-3 1-8-4-8-3 0-3 0-3 4z"/>
  <path d="M325 91c-4 3-5 4-2 6l2 2-2 1c-2 1-2 2-1 4s2 3 10 3l7 3 4 2 6 1c4 2 5 1 4-5 0-4-1-5-2-6-2 0-3-1-4-3-1-3-1-3-7-3-7 0-10-1-10-5 0-3-1-3-5 0z"/>
  <path d="M224 119l1 6c2 0 5 6 5 9-1 4 0 4 4 3s4-2 3-3v-6c-1-2-1-3-4-4-2-1-3-2-3-4 0-3-3-7-5-7l-1 6z"/>
  <path d="M242 120c-3 2-4 4-1 4l1 2c-1 1 0 2 2 3 4 3 6 1 6-5 0-7-2-9-8-4z"/>
  <path d="M950 382c0 5 1 8 3 12 2 6 2 6 1 8-2 1-2 1 0 4 1 3 1 3-2 7-4 6-5 6-2 10 1 3 2 3 5 2 3 0 4-2 4-5l4-8c3-6 4-10 2-17v-9l2-8c0-2 0-2-2-1-2 2-2 2-7 1l-7-3-1 7z"/>
  <path d="M915 458l-1 4-3 6c-2 1-3 4-3 5l-1 2-2-2-2-1-1 9c0 12 3 21 7 23l4 1 4 2c3 2 5 3 6 2 2 0 3 1 5 6 2 4 3 6 5 7 4 1 8 0 7-2l-3-10-2-9-5-1c-4-1-4-2-4-5 0-4-2-10-5-14-2-3-3-10-2-15 1-4 1-5-1-7l-3-1z"/>
</svg>
