<svg xmlns="http://www.w3.org/2000/svg" viewBox="0 0 1024 1024">
  <path d="M779 42l-43 41-31-1h-30l-15-12-16-11-11 7c-10 8-11 8-27 12l-15 5-30 1h-29l-19 12-19 12v8l-1 9-9-1-8-1-3-6-3-5-9 1c-11 0-11 1-13-11l-3-9-6-7-10-11-6-6-5 4c-6 6-9 10-11 14-1 3-2 3-22 6-4 0-6 1-9 3l-3 3-8-4-22-12-14-7-12-1h-11l-6 4c-3 3-7 6-10 6l-8 5-8 3c-3 0-7 4-7 7 0 1-1 3-4 4-5 3-10 11-12 18l-2 6c0 1 6-1 8-3 1-1 1-1 2 1l3 9c1 6 1 7-3 13-3 7-7 13-12 18a472 472 0 01-12 33c-5 12-5 12 0 16 14 13 14 13 15 18 2 11 0 22-5 26-3 2-4 3-5 9l-5 15c-3 6-4 10-4 14s-1 6-3 9-3 5-3 8l1 4 9 1 9 1v4l3 8c1 3 2 4 5 5l5 1c1 0 4-4 6-9 3-5 7-4 18 4 5 5 6 6 6 8-1 2 0 2 4 5 4 2 4 2 11 1 9-2 9-2 11 6l4 9c2 2 9 4 12 4l6-6c4-6 4-6 5-4a1452 1452 0 015 20c1 4 1 7 3 9 2 3 2 3 1 9-2 5-2 7-1 13l1 8-7 11c-4 6-7 12-7 15-1 5-5 10-11 15l-9 9c-7 7-10 8-22 8h-11l-1 4c-2 3-3 5-8 7l-9 7-9 11-9 12c-1 3-7 10-12 15-8 8-10 10-10 12 0 4-4 12-8 15l-10 8-7 7-6-1-8-1 1-5v-7l-2-6-1-5 1-5 2-3h-4c-3-1-5-1-8 1l-8 2-8 2c-3 1-4 2-4 4 0 3 0 3-3 2-4-3-4-2-9 2-6 5-10 12-11 21-3 13-4 16-10 21l-9 5-15 7c-11 5-11 5-12 10v12c0 7 0 8-2 11s-2 4-1 12l3 9 1 8v6l-8 9c-8 10-9 10-12 21l-3 19v8h-5l-6-1v3c0 2-1 3-3 4l-5 6c-2 5-2 6-1 11 2 4 2 5 1 10-3 8-2 9 2 10l6 5 8 8c4 3 4 3 7 2l7-2h2l-2 2c-1 2-2 4-2 10-1 15-8 30-14 30l-8 4-8 4c-3 0-10 9-10 11l2 10c0 6 0 7-2 8-2 0-2 2-3 4l-1 9-3 19-1 14 3 4 3 4-6 1h-6l-1 4-1 7-2 9c-2 5-2 6 0 10 2 3 2 7 2 14 1 7 1 9 3 12 2 4 2 5 1 8v7l2 9 2 8 6 2c4 0 5 0 7-2 6-5 8-6 14-5 7 1 7 1 8-1s2-3 4-3c4 0 9 6 10 11s6 13 8 14l10-4c6-3 9-4 10-3 2 0 3 0 5-3 2-4 7-8 10-8 4 0 8-3 9-6 3-8 5-11 8-12l6-5 5-3 7-9c4-6 5-10 6-14v-6h12c10 0 13 1 16 2l4 2 2-2c3-2 7-3 15 0l6 1 3-5c4-4 5-5 10-7 3 0 6-2 6-3a713 713 0 00101 2c96 0 90 0 87-5l-1-11c0-10-1-12-7-12-5 0-6-1-6-5s5-13 9-17l5-7 4-4c4-1 4-2 0-4-2-2-2-2-1-10l2-7 5-6c5-10 8-13 11-13s7-3 7-5l13-17c2-1 2-1 3 1l2 1c2 0 1-2-1-8-2-4-3-5-5-6s-3-1-3-4c0-5-2-7-5-7h-4l1-6c0-4 1-6 3-8 2-3 3-3 12-3h10l-1-2c-1-2-3-3-5-3s-5-2-4-4l6-2c6-1 6-1 8 1 3 3 10 6 14 6 3 1 4 1 5-2l2-4c1-2 1-2-1-4-4-4 0-4 6 1 4 3 4 3 7 2 3-2 3-7 0-10-2 0-3-2-3-3l7 2c8 3 9 4 9 7s2 3 4 0l1-9c0-6 0-6 4-8l4-3c0-1 1-2 3-2l3 1-3 6c-3 4-3 5-2 6 1 2 6 0 6-2 1-2 7-3 8-2h13l-2-4c-2-1-3-3-2-4l2-2 3 2v-2l1-4c2 0 2 0-1-2-3-3-3-8 2-9l4-3 7-2c4 0 4 0 4 2l-2 3-1 4c1 4 4 4 9 0l5-3 1 2c2 2 2 2 0 4l-7 3c-7 1-7 1-7 5v3h6l8-3h6l3 1c1-2 4-5 9-7l7-5c2-1 2 0 3 3 1 4 1 5-1 6v4l2 4c0 2 2 2 12-2 7-2 12-6 19-12 6-5 6-7 3-10-4-2-2-4 3-4 2 0 3 0 3 2l1 2 4-2 2-3c2-1 2-2 1-5s0-8 2-8l18-11-3-3-4-3 2-4 2-5c0-1 1-1 6 2 4 2 5 2 7 1s5-2 6-4c3-3 3-3 5-2 1 1 1 2-1 4s-3 5-3 7c0 3 0 3-2 3-7-2-7-2-7 1-1 6-1 6 5 6 5-1 5-1 4 1-4 4 5 7 10 3 3-2 6-2 7 0l4 2c3 0 3 0 3 3l1 3c1 0 2 1 1 2 0 1-4 2-6 0h-5c-3 1-4 2-3 3v4l-1 3c1 2 13 6 16 6l5 2c3 1 4 1 6-1l4-3c2 0 4-3 5-9l1-8c1-3 2-3 5-2 2 0 4 0 7-2l7-1 2 1-3 4c-4 5-4 7 0 7h3l-2 4-2 7c0 2 0 2 7 2 6 0 6 0 6-3 0-2 0-2 2-1l1 7c0 3 0 4 2 4l3-3c1-5 1-5 4-3 4 3 7 3 8 0l2-2 1-3c0-1 1-2 3-2l5-4 4-3v6c-1 8-1 9 2 4l8-9c3-2 6-7 8-10 3-6 4-8 4-13l2-10 9-25c1-4 1-4 10-7l8-3 4-7 4-12 2-5 4-1c7-1 12-5 12-9 0-3 1-4 4-7l7-9c3-4 3-6 3-12 0-7 2-13 6-19 1-3 3-4 4-4 7 3 7 3 9-4l2-7h5c3 0 5-1 8-3s6-4 11-5l13-2 5-1v-6l-2-9-2-7-1-7c-1-2 0-2 5-5 7-3 10-7 10-13 0-7 1-8 8-9 5-1 6-2 7-5l4-12c3-8 3-9 3-25s0-18 2-20c3-5 3-6-1-10-3-3-4-4-4-11v-12l2-4-3-6c-5-9-10-24-15-38-4-14-4-14 4-18 3-2 3-2 3-7l-4-9c-2-2-3-6-3-7l-1-6v-3l-4 2c-5 3-4 4-10-8-3-6-4-8-4-13 0-6-4-20-6-20l-4-1c-2-1-3-2-5-6l-2-4-3 3-3 3-5-6-7-8c-2-5-4-13-4-18 0-2-1-7-4-12l-3-8-6-1c-4-1-5-2-7-5l-2-6-2-8-2-9-3-10-4-7 2-5v-8l-2-4h3c3 0 4-1 4-6l2-11c2-6 2-14 0-14l-4-1c-3-1-3-1-3-6v-5h-7c-6 0-8 1-11 2l-3 2-1-3-2-7-1-6-8 2c-11 2-11 1-8-1l2-3-4-2-3-2 5-1 6-3-1-3c-2-3-2-4-6-4l-10 1-5 2 1-8c0-8 0-8-3-12l-3-4 2-2 3-7c0-4 0-5-4-8-3-3-4-4-4-6l2-4c0-2-1-3-5-7l-7-4c-1-1-21 18-45 41z"/>
  <path d="M685 708l-8 10 6 2c4 2 5 3 5 5 0 3 0 3-3 3-4 0-6 2-2 3l6 5c4 4 5 5 6 3 0-1 1-1 2 3 1 3 1 4 4 3 4 0 4 0 1-4l-1-6c1-3 1-3-1-3-3 0-3-4 0-7 2-1 3-2 5-1 3 0 6-2 7-7 0-3 0-4-2-5-3-2-3-2-4 1-3 4-5 4-8 1-3-2-3-3-2-5s1-2-4-2l-7 1z"/>
  <path d="M744 736l-3 1 2 3c4 4 8 4 7 1l-1-4c0-2-1-2-5-1z"/>
  <path d="M782 743v3c0 3 0 3 8 3 7 0 8 0 9-2 2-2 2-3 0-3-4-2-15-2-17-1z"/>
  <path d="M601 757c-2 1-3 2-4 5-1 4-5 11-11 17l-4 4 4-1c4 0 6 0 8 2 2 1 2 1 7-1l5-5c2-3 2-3-3-2-3 1-3 1-3-1s3-7 7-11c2-3 2-3 1-6-2-2-2-2-7-1z"/>
  <path d="M471 805c-3 2-2 3 2 5l5 5c1 3 3 4 8 6l10 2c3 0 5 4 5 9 0 3 0 4-2 4s-11 8-14 13c-2 3-2 3 0 6l2 4 5-5 4-6c0-2 0-2 4-2l4 2 3 1c2 0 3-1 3-3 1-5 1-10-1-13l-1-5 5-4c5-3 5-3 3-5-1-2-2-2-5-2-7 2-20 1-21 0l-2-5c0-3 0-4 3-6l3-2h-7c-11-1-15-1-16 1z"/>
</svg>
