<svg xmlns="http://www.w3.org/2000/svg" viewBox="0 0 1024 1024">
  <path d="M977 187l-6 5-2-2c-3-2-3-2-4 0-2 5-4 20-3 31l-1 14c-1 2-2 4-1 6 1 5-1 8-4 10-4 1-6 3-6 5-1 3-10 7-36 16l-21 9c-3 2-7 9-9 16l-5 10-3 4 4 2c4 0 5 2 3 6-1 2-1 2 1 4l2 3-3 3-13 8c-7 3-10 4-15 4-4 1-7 1-12 4l-5 4 3 5 3 6c-2 3-21 23-27 27-3 2-9 6-12 10-7 7-19 14-24 16l-5-1-5-2-6-2v-5c2-1 3-6 3-11 1-11 2-12 5-13 5-1 5-5 0-17-8-15-10-16-17-7-5 8-8 9-9 3-1-2 0-3 1-5 3-4 5-12 5-17l-2-6-2-6c0-3 0-3-9-5l-12-4c-4-1-6 0-8 3-1 2-1 2 1 3 1 1 1 1-1 3-1 1-2 3-2 7l-1 7c-1 1-4-1-6-4-1-2-1-2-4 3l-4 5v14c0 12 0 14 2 17 6 8 7 16 5 28-3 11-6 18-11 20-4 2-4 2-7 1-5-3-8-10-9-19l-3-15c-2-6-2-8-1-11l1-14 3-17 3-8c0-2-3 1-6 7s-7 10-8 9c-1-2 3-18 8-27l5-10 1 1h7l2-1 9-7c7-6 7-6 18-2 2 0 2 0 2-2 0-3 0-3 2-2 7 2 9 0 4-4-3-2-4-2-8-1h-7c-2-2-3-3-3-5v-3l-8 3-13 7c-4 4-4 4-8 4l-13-5c-7-4-8-4-10-3-3 2-4 1-4-2s1-4 5-8c2-2 4-4 3-5-3-1-9 3-18 12a68 68 0 01-16 12c-3 3-4 4-10 4h-6v-3c0-4 0-4-7-1-5 2-13 3-13 1l5-6 9-11c4-6 7-9 16-13l7-4-5-1h-21c-3 2-4 2-11-1l-7-2c-2 2-3 1-4-3-2-2-2-3-4-3l-9 2c-5 1-7 1-8-1-1-1-4-2-9-2h-6l-3-5c-5-9-5-9-6-5-1 3-3 4-4 5a1171 1171 0 01-447-55l2 4c2 4 3 5 0 7v7c3 6 2 8 0 11-2 1-3 3-3 5l-1 5-9 6c-2 1-6-3-6-6 0-2 1-2 4-2 6-1 8-3 4-6l-2-2 2-3c2-2 2-2 0-4l-11-7-12-6-3-3-1 3v11l1 14 1 6v2c-2 2-2 2-1 5 2 3 2 3 0 6-3 4-2 4 1 6 3 3 3 4-2 4-3 0-3 1-5 8l-6 13-6 15-8 16a73 73 0 00-14 42v11c1 6-3 16-7 22-6 6-6 9-2 18l3 7-1 11c-3 13-2 16 2 25 3 5 3 6 2 9-1 5 0 9 4 10h4c2-2 2-2 2 0l1 6-1 3c-1-1-2 0-3 3-1 8 1 11 6 16l4 5-2 4-3 4 3 6 4 10c0 2 1 6 3 8l6 10c2 6 2 8 1 14v7l3 2 9 4c5 1 7 2 12 8l11 10c3 1 5 3 5 4l4 5c7 4 9 6 12 13l3 11c0 3 1 5 2 5l1 3c0 3-2 3 27 7 14 3 21 4 21 6 1 2 8 6 31 19a450 450 0 0137 23 388 388 0 0069 10v-6l1-5h15l18 2c5 1 15 11 17 15 0 2 2 5 6 7l9 7c3 5 7 15 7 19 0 3 4 9 9 14 5 4 17 11 21 12 3 0 4 0 10-7 4-4 8-8 11-9 5-2 6-2 12-1s7 2 12 7l16 21c5 9 12 18 15 21 5 5 7 9 12 24 4 11 4 12 14 14l10 3 6 2 6 2c3 2 7 3 9 1v-1l-2-4-3-10c-2-7-2-8-1-12s1-4-1-6l-2-2 3-3c3-3 4-4 2-7-2-2-2-2 0-3l4-5c0-2 2-4 2-3 2 1 5-3 7-7 1-2 1-3 3-3 3 2 5 0 4-3v-2l7-1 11-1c7-4 16-17 14-21-1-2-1-4 3-5 3-2 3-2 4 2l2 4 8-3c4-2 11-5 15-5 6-2 7-2 13 0l11 2c3 0 4 0 6-3 4-4 5-5 12-2l5 2-3-5c-3-5-2-6 1-5 4 1 6 6 6 13 0 4 1 6 2 7 3 3 4 3 8 0 2-1 3-2 7-1 3 0 4 0 5-2 3-3 2-5-1-8-2-2-3-3-2-5 1-3 3-2 7 2l9 6 6 5h3c4-4 2-7-5-9-4-1-5-2-5-4 0-4 2-6 5-6s3-2-1-3h-4c-3 2-6 1-6-1 0-3-1-4-3-1-2 2-8 1-11-2l-3-4 4-2c5-2 5-2 11 0l7 3 6-4c4-3 6-4 11-4 6 0 11-2 13-5 3-3 3-3 5 1 1 2 2 2 7 2h6v-3c0-3 0-3 4-3l9-1h13c8 2 8 2 14 8l5 5 7-4c6-2 7-4 8-6 1-3 1-3 8-3s8 1 12 7l7 6c7 3 12 7 13 9l2 11c2 17 2 18 3 16 1-3 5-2 6 0l-1 5c-1 3-1 4 1 8 3 7 6 8 10 7l3 1 3 5c3 1 4 3 3 4l2 4c2 1 3 3 3 5l3 4c1 0 5 2 7 5l8 6c2 1 2 2 2 3-1 2-1 2 1 1l6-2c4 0 6-15 5-36 0-7-1-9-3-11l-2-6-10-17-8-15h2c2 0 1-1-4-8-8-10-14-20-16-28-1-4-2-5-3-3v7l-1 5-3-12 2-4v-12c-1-5 1-20 3-25l2-7 1-3 1-4 1-2 3-2 2-2c2 0 11-8 11-11l2-2c1 0 6-7 6-9l2-4 6-10c3-6 4-8 9-11 7-4 10-7 10-11 0-3 4-10 8-15l8-5c5-1 9-5 7-6l-4 1c-4 4-7 4-7 1 0-2 0-3 2-3 3 0 3-1 3-3s-1-3-3-4c-3-1-3-1-1-2l3-3c1-2 3-2 6-1 2 1 2 1 5-1 3-4 4-10 3-13-1-2-1-2-2 1-2 3-2 3-7 2h-7l-3 2-3-11 4 1c3 2 3 2 7-1l5-4-2-3c-1-1-2-3-1-5 0-4-3-6-9-6l-8-1c-2-1-2-1-1-2l5-1c2 1 2 1-1-2l-3-3 2-2 2-1-5-4c-4-3-5-3-4-4h4c5 2 5-1 1-5s-5-5-3-5c3 0 3-2 1-3s-4-3-6-9l-3-10c0-3 4-10 7-11s4 1 2 4c-2 4-1 11 2 13l2 4 3 5c2 2 4 4 4 6 1 2 2 2 4 2 4 0 4 1 1 6-1 4-1 8 1 6l3-13c3-16 2-19-5-24-4-3-5-5-5-7l-1-4h6c5 2 8 3 8 6s9-30 9-35l-3-1h-4v-5c0-4 1-6 5-12 7-10 10-13 21-19s15-9 16-14c2-4 2-5 4-2 2 1 2 1 5-3 2-3 4-4 4-3 2 2 3 1 7-4s4-7 1-8c-2-1-2 0-1 1 2 3 0 6-3 7-4 2-7 1-9-3l-6-5c-3-1-3-1-3-5l1-6-1-2c-4-1-4-3-1-15 2-9 4-13 7-15l6-6c3-5 4-7 4-11 1-7 3-11 5-8 2 4 2 4 16-12l6-8c0-4-3-7-8-9l-6-5-4-4c-4 0-5-3-10-16-3-9-7-15-11-15-2 0-5 2-8 5z"/>
  <path d="M962 366l-11 5c-2 2-5 6-5 8s3 1 9-4l16-13-9 4z"/>
</svg>
