<svg xmlns="http://www.w3.org/2000/svg" viewBox="0 0 1024 1024">
  <path d="M286 2c-2 2-4 2-8 2l-5 1-3 3-4 2-3 9c-3 5-3 7-3 10 1 5 1 6-2 7l-7 4-3 3-1-2-1-3h-4l-2 4c-2 2-5 2-6-1 0-2 0-2-3 0l-7 1c-4-1-4-1-5 1 0 4-1 4-3 0-2-2-3-2-8-2l-8 2h-3l-3-4c-2-2-2-3-1-6 0-2 0-4-3-6-2-2-3-3-8-3l-7-1 1 4 2 12c0 8 0 9-3 13-2 3-10 12-19 20l-16 16-1 6c-2 10 0 19 7 26 4 5 6 14 5 26 0 10 1 20 4 23v4l-1 3 8 5 8 5 2-3 5-2 3-1c2-2 3-1 3 1s-1 3-9 6l-9 3-1-3c0-2-2-3-9-4-7-2-8-2-13-1l-4 1 2 3c2 2 3 4 4 11l2 11c0 2 0 2-3 3l-4 5c-2 4-2 5 0 8 0 3 2 6 3 7 2 4 5 13 4 14l-5-3-3-3-2 2c-1 2-3 4-3 7-1 3-2 4-6 6-5 3-8 8-8 14s-3 12-7 15c-6 4-7 8-4 14 2 4 3 5 6 7 6 2 6 7 4 26-3 14-3 15-8 25l-6 11-5 2c-8 2-11 5-12 11 0 4 0 5 3 9l4 9v27l3 9c1 3 2 7 4 9 2 3 2 4 3 13 0 14-1 21-7 29l-6 12-3 6 5 13c3 12 4 14 5 28 2 29 2 28 11 39 8 8 8 10 3 26-5 15-9 22-15 24-5 2-15 4-23 4-4 1-5 1-7 4-1 3-2 5-2 20 0 17 0 19-5 25l-2 2 3 3 2 2h-3c-5 0-5 1-2 5 4 4 4 7 0 15-2 6-2 7-2 28a403 403 0 002 53c0 10 2 15 10 21 5 5 7 7 7 10l7 10 5 6 1 8c0 9 2 11 8 11l10 1c4 0 5 1 8 5l20 25 7 7 1 8v8l5 3c6 3 13 4 18 2l9-3 9-2c6-2 13-3 15-1 3 3 6 2 9 0s4-2 8-1h8l8-1 17 1c20 0 28 3 32 12 2 4 14 15 25 24l9 7 8 7 28 10 11 4c6 3 7 3 17 3s11 0 18 4l8 3-3 2c-3 0-5 2-7 4l-2 3 2 1 5 3c1 2 4 3 6 4s5 2 6 4c2 2 4 2 8 2s5 0 6-3l1-3 3 2c2 1 3 2 3 4s1 3 3 5c4 2 7 2 10-2 2-2 4-3 7-3s5-1 8-3a199 199 0 0155-26l4-2 4 4c3 3 4 3 6 2h4c9 3 20 5 29 4 10-1 12-1 12 2 0 2 1 2 5 2 5 0 9 3 9 6s3 8 5 11c3 2 5 3 10 1l14-2c13 0 14 0 13 3-1 2 0 2 4 3 9 2 12 4 14 7l2 4 5-4c7-6 5-5 38-19 19-8 33-14 45-21 20-11 30-15 42-16h8l2-6c3-9 16-23 28-30a856 856 0 0038-25c3-1 2-2-1-7-2-2-2-4-2-7 1-7 4-11 19-27l14-14c11-10 12-11 12-15 1-6 2-12 4-15l1-8v-7l7-7c7-7 16-19 16-21l-3-1c-4 0-5-1-5-7 0-3-1-3-4-4-13-1-13-1-13-14l-1-13-2-4-1 2-2 2-1-2c0-2 0-3 3-5l3-4-2-1c-3-1-3-2-5-11-1-10-1-15 2-18 3-2 2-3-1-4l-3-1v-6c1-5 2-7 4-9l2-3-2 1h-4l-5-6c-4-6-5-7-3-12 0-1 1-2 3-2 3 0 3 0 1-4s-1-8 2-10l4-2-2-4c-3-5-3-6 0-6l2 2c0 2 3 1 6-2l5-8c4-8 9-12 14-12l11-1c8 0 8 0 8-3s2-6 6-10c4-3 4-4 4-9l1-7c0-2 0-2-6-4l-6-3c0-2 3-3 6-1l7 1c4 0 5-1 7-3 1-3 4-5 9-6 4 0 4-1 2-10-2-6-10-14-16-14l-24-12-2-5c-1-3-2-5-4-6l-7-5-9-5c-4-1-7-2-8-4l-5-6c-3-4-3-4-2-10 0-6 0-8-3-15l-5-15c-1-5-2-7-5-10s-7-11-7-13l2-1c6 0 6-1 3-6-2-4-3-4-8-5l-8-2c-3-2-4-3-4-6s-1-3-7-6l-12-8-16-13-5 4-4 5-2-4c-1-3-3-5-8-8-5-2-9-6-12-10l-11-11c-4-2-12-10-20-17-12-13-13-14-14-19-1-8-7-20-11-23l-5-6-2-4h-7l-11-2c-4-2-7-2-17-3h-12l-5-6c-4-4-5-5-8-5s-4 0-4-2c0-1-1-3-3-3-2-2-2-3-2-6l-2-8-3-3-3-2-4-1-3 5c-2 4-2 5-6 5l-4-2-6-6c-4-3-6-4-10-4s-5 0-6-4c-5-10-11-19-14-21l-4-3c0-5-5-14-10-19-3-3-6-7-6-9-2-5-10-13-18-20l-10-9c-4-5-7-5-12-2-2 3-3 4-4 9l-2 9c-1 4-2 4-6 4-3 0-4 0-5 3-1 2-4 3-8 5-5 2-5 2-6 1l-3-2-13-7c-12-9-11-8-9-10 1-1 1-2-3-5l-4-5-3-8c-3-6-7-10-21-23-3-2-3-3-2-5s0-2-3-4l-9-10c-4-6-6-8-10-10-4-1-5-3-5-4 0-4-8-10-17-11l-3-3c0-4-3-7-12-14-4-3-10-9-13-14-6-7-7-8-12-10l-5-1v-4c0-6-3-12-6-13l-2-1c0-3-3-5-4-3-2 2-3 1-4-2 0-3-2-4-7-4s-6-1-6-6c0-3 0-4-4-7s-6-4-9-4l-7 1c-6 3-9 3-15 0-6-4-6-4-9-1z"/>
</svg>
