<svg xmlns="http://www.w3.org/2000/svg" viewBox="0 0 1024 1024">
  <path d="M701 150l-67 27 1 11 1 11-21 7-21 7-2-2c-2-2-4-2-26-2h-24l-25 11c-22 10-24 11-24 13l-1 4c-1 2-43 16-43 15l-4-10c-3-10-3-10-6-9a3789 3789 0 01-66 8 777 777 0 00-16 56l8 7c7 5 7 5 5 7l-40 43-38 40-6-6-5-5-14 6c-12 6-15 8-15 9a573 573 0 01-3 35l6 2 6 3-30 100-11-2c-10-2-10-2-12 0-13 16-15 18-28 28l-14 9-6 12-7 12 6 5 8 6c1 2-5 8-33 40l-38 41-4 3-9-6-9-7-73 45 67 32 9-6 7-7 46 39 47 39c1 1 0 3-2 7s-3 5-2 6l9 10c4 6 8 9 9 9l58-10c2-1 2-2 3-10l2-10 3 1 79 6 76 6v10l1 11 43 15 43 14 37 2 38 2 2-8c0-4 1-7 2-7a6897 6897 0 01134 26l6-9 5-8 74 1h73v-3l-7-49c-1-7-2-11-5-18l-4-10-1-18c0-18 1-38 3-41 0-2 3 1 11 13 15 24 22 30 48 40l20 5 20-1c9-1 11-1 22-7 15-7 21-12 29-24 15-21 16-27 17-62v-38c1-17-1-35-5-46-5-12-13-26-20-32a128 128 0 00-26-17 16467 16467 0 01-6-289l-83-22-82-22-16-59-17-62-67 27z"/>
</svg>
