<svg xmlns="http://www.w3.org/2000/svg" viewBox="0 0 1024 1024">
  <path d="M656 1l-6 2-9 1-7 5c-1 4-2 4-7 4l-6 1-3 4-4 4c0 3-6 20-9 22l-2 5c1 1 0 3-4 6-5 5-7 8-8 15s-4 13-10 17l-4 3v11l1 11-4 3c-3 3-4 3-6 1s-6-1-6 1l-3 3c-2 0-3 1-3 2h-8c-2 1-5 7-3 10 1 1 0 3-2 6-3 7-3 9 1 9 3 0 3 2-1 5l-6 5c-1 2-2 3-4 3s-4 3-2 7c1 4 0 6-3 6-1 0-2 1-2 5v9c2 6 2 11 0 15l-2 6-1 13v8h2c3-1 5 2 6 8 1 3 2 5 4 6l3 2-2 5c-3 6-3 7 0 7 4 0 6 1 6 3l3 1c3 0 3 1 4 4 0 4 3 6 7 5 6 0 7 2 7 10 1 6 0 7-1 8v2c1 1 3 1 15-1 3 0 5 0 9 3 6 4 6 4 2 13l-2 5 2 3 2 2 3-2c5-3 11-3 16 0l7 3c2 0 4 1 5 4l4 3 5 2 4 2-2 3v4c2 1 2 1 4-1 3-2 8-3 16-1l7-1c3-2 9-12 9-15l1-1 5-6c3-5 4-6 7-6 2 0 3-1 5-5l3-6c4-4 5-7 5-21 1-14 1-15 3-19l4-8c0-3 2-7 4-10l3-6 2-5 2-6 3-12c2-8 4-11 7-15s6-8 6-10c1-3 1-4-2-10-3-7-4-10-2-13a266 266 0 00-3-94l-3-6-2-6-3-5-2-6c-2-3-3-5-2-6l1-2-3-2c-3-2-4-5-1-5 2 0 2-1 2-3 0-5-3-7-7-7-3 1-4 1-5-1-2-2-2-2 0-3 4-2 3-3-1-5-3-2-3-2-6 0-4 3-6 3-9-1-2-2-8-4-17-5l-7 1z"/>
  <path d="M615 430l-2 4-4 6c-2 4-2 4-5 4-1-1-3 0-5 1l-9 6c-9 5-14 9-15 11-1 1-2 2-5 2s-4 0-6 4l-2 5 2 2c2 2 4 2 8 2 5 0 5 0 5 3 0 4-9 14-13 14l-4 1c-2 1-8 2-17 2-12 0-14 0-16 2l-5 2-7 3 17 1c17 0 18 0 22 2 7 4 17 4 17-1 0-1 4-3 9-3 2 0 3 0 3 2l1 2 5-6 5-7c4-3 6-6 6-8l1-2c3 0 4-3 3-6v-5c1-3 0-4-5-4-2 0-3 0-2-2 0-2 1-3 3-3l4-3c6-5 7-6 9-6 5 0 7-3 5-7v-5c2-5 2-11 1-13h-4z"/>
  <path d="M567 522c-2 0-3 2-3 3l-1 3c-2 1 1 2 5 2 5-1 7-4 4-8-2-2-3-2-5 0z"/>
  <path d="M557 540l-5 6-3 1c-3 0-9 5-9 8s3 3 8 2h5l5 1c3-1 3-2 4-6l2-8c2-4 2-9-1-9-1 0-4 2-6 5z"/>
  <path d="M708 538l-1 2-2 1c-1 0-1 1 1 4 1 3 2 4 3 3l2-1c1 1 2 0 3-1l2-4c2-2 2-2-1-3l-5-3c-2-1-2-1-2 2z"/>
  <path d="M689 547l-2 6c0 3 0 4 3 5 2 0 2 1 2 3-2 6-2 6 1 6l10-2-5-8c-1-1-2-3-1-5 0-2 0-3-3-5-3-3-4-3-5 0z"/>
  <path d="M655 628c-5 3-8 4-12 2-1-1-2 0-3 3l-3 4-1 3c2 4 1 8-2 13-2 4-2 5-1 7l1 5 3 4c2 0 4 3 5 4l2 3 1-3 2-4 2-6 3-14c3-8 3-9 6-9s4-1 4-3l-1-2v-1c1-2 1-10-1-10l-5 4z"/>
  <path d="M628 696c-3 3-2 5 2 5 3 1 4 0 5-2 2-2 2-2-2-3-4-2-3-2-6 0z"/>
  <path d="M611 739c0 3 1 3 2 3 2-2 1-5-1-5s-2 0-1 2z"/>
  <path d="M456 831l-2 7c0 5 0 5 3 6 3 2 3 3 5 10l1 7c1 8-3 14-10 12-3 0-4 0-4 2-1 3-7 3-12-1l-6-3c-3 0-4 0-4 2s0 2 3 2l9 4 2 5 1 4 4-3c4-4 9-5 11-2l4 2c1 1 2 0 4-5 3-7 4-13 4-18 0-4 0-5 2-5l9-3c7-3 7-3 5-9-1-2-2-5-1-9 0-4 0-5-2-6s-2-1-5 1c-3 3-9 4-10 2l-9-4-2 2z"/>
  <path d="M382 945c0 2 0 2-2 1-2-2-3-2-3 1l-3 6c-2 3-2 4-1 6v4c-1 3 0 6 2 6 3 0 4-1 6-6 1-3 2-4 7-6l6-3-4-4-4-5-2-2c-2-1-2 0-2 2z"/>
  <path d="M316 988c0 2-1 2-3 2-3-1-9 1-9 3l3 4 3 5c0 3-5 7-10 8-4 2-5 2-5 6 0 5-1 5 10 6l7 2c1 0 2 0 3-2s2-3 4-3 3-1 4-3c3-4 3-4 7 0 3 2 4 3 5 1l5-1c5 0 7-1 8-4 1-2 2-4 4-4 2-1 3-2 3-4s-1-3-3-4h-6l-3-1c0-2-2-3-3-1l-6 1c-6 0-10-3-11-9 0-4 0-4-3-4l-4 2z"/>
</svg>
