<svg xmlns="http://www.w3.org/2000/svg" viewBox="0 0 1024 1024">
  <path d="M238 113c-2 0-5 2-7 5l-7 4-2 1-3 8-3 6 2 4 4 6c2 2 2 2 1 5-2 5 0 6 9 3l10-4 6-2c4-3 5-2 9 6 2 6 2 6-2 8-5 3-7 3-7 2l-2-2-4-1c0-2-4-1-4 0 1 2-2 4-5 3-2 0-3 0-3 3-1 5-12 12-17 12-4 0-8 1-9 4l-8 1-7 1-4 1-5 3c-5 6-6 7-8 7l-3 1-2 2-18 9-4 1c-5 0-7 1-7 4l1 3v6c0 2 0 2-6 2l-6 1 1 3c3 3 5 8 3 9-2 2-1 5 3 7 4 3 5 5 7 10 1 4 7 13 10 15s4 5 5 7c1 3 2 4 5 5s4 3 6 6c3 5 3 6 3 14l1 16 1 9-5 5c-4 2-5 4-6 6 0 3-1 4-4 6-4 3-14 5-22 5-7 0-11-3-11-7 0-3-1-5-3-5h-2c-2 0 1-4 3-4 1 0 2-1 2-4s0-3-2-2c-3 1-5 1-5-2h-3l-3 2c-2 0-1-2 1-3 2-2 2-2-1-3l-5 1-3 1 1-2c2-1 2-1 0-5l-1-3 3 1 2 1-12-10-6-4c-2-3-2-3-1-4l6-9 8-11 4-5 3-6 4-7 9-8c3 0 4-3 3-5l-1-6-3-10-5-9c-2-6-4-7-11-7l-7-1c0-1 5-3 7-2 3 1 15 2 16 1s-1-3-7-6c-6-2-10-5-13-8-4-5-5-7-6-20l1-7c1 1 4 0 6-1l10-5c3-1 6-2 7-4l4-2 11-5 2-3c0-3-5-2-11 2l-12 5c-8 2-18 7-23 13l-12 18-8 13-5 1-6 1-12 17c-6 10-14 19-17 22-4 4-5 6-5 9l-5 13-5 10 2 8 3 12c2 5 2 5 0 21l-1 16-5 5c-3 2-6 6-7 9l-5 5c-5 2-3 5 4 5l9-3c3-2 4-3 7-2 2 0 5 1 6 3 2 2 5 3 8 1 2-1 4 0 6 5 2 7 16 31 21 37 4 4 5 5 9 6 4 0 4 1 5 5l2 14 1 9-3 1c-3 2-3 2-2 5v12l2 11 3 9c2 8 2 8 8 9 4 1 5 2 7 6s3 5 6 6c3 0 9 4 14 7 7 5 11 7 13 7l23-4h3c5 1 23-1 26-3s3-2 8-1l7 2 12-9c2-2 8-4 11-3l5-1c1-2 2-2 5 1 7 5 19 8 24 5 3-2 3-2 5-1l31 28 30 27h7c6 0 7 0 11-4l4-5h9c9 0 20 2 24 3 1 1 2 0 3-1 1-3 10-5 20-6l14-2c3-2 4-2 7-1 4 2 4 2 9-2 7-5 12-6 18-5l12 2h7l3 6 5 7c2 1 2 2-1 5l-6 9-5 9c-3 4-3 6-3 11 0 8-2 12-9 15-5 3-5 4-5 6l1 4 3 2c2 1 3 3 4 6 1 4 1 4-3 10-1 2-3 7-3 13l-3 16c-1 5-2 7-1 8 3 3 4 7 5 15 0 9 2 13 5 16l8 8c7 10 10 13 13 13 5 0 8 2 9 5l4 9c3 4 3 6 3 12v6l-4 3c-3 2-8 6-15 15a89 89 0 00-15 21l5-2c4-2 5-2 6-1l6 1c2 1 3 1 3 4l2 6c1 3 1 3 3 1 3-1 3-1 6 2l8 7c7 4 12 10 12 13-1 2 3 8 6 11 2 1 2 2 2 8-1 7-1 7 2 9l6 10 6 12 10 25 2 6 17 9 21 13c5 4 5 4 13 4 10 0 10 0 16-10 5-8 12-11 23-11 5 0 6 0 7 2v4l-5 8 4 2c3 1 3 1 7-4l6-6 8-7 9-7c2-4 7-8 12-9l7-4c4-3 11-6 15-6s15-7 19-13c5-7 5-7 4-3 0 5 0 5 10-3l11-13c4-7 4-8 3-13 0-4 0-5 2-9l2-4h8c7 0 8-1 13-5 3-3 7-5 9-5l6-1c5-1 8-6 8-13-1-4-1-4-6-4-3-1-7 0-13 1-11 4-16 4-23 1l-8-2c-4 0-14-4-16-6l-1-4-3-9-4-11-5-16-4-10 3-3 4-8 2-4-4-13-4-13-12-5-11-3-8-10-7-11c0-2 2-2 15 0l16 1c5 0 7 0 9-3 3-2 3-2 6-1l5 5c4 5 9 7 17 6l25 4 22 4c2 0 7 1 11 4 12 5 15 4 17-7l1-6 13-5 17-8 7-4h21c4 1 5 1 6-2 2-4 2-4 7-3 6 1 12-1 15-5 2-3 3-3 6-3 4 1 4 1 9-5l6-8c1-2 3-3 5-3l6-5c2-4 2-4 5-3l12 1c9 0 9 0 9-3 2-5 6-10 11-13 6-3 9-7 13-16 4-10 7-6-30-41l-32-32 6-6 7-8c2-5 1-16-3-26-2-4-2-5-1-8 2-3 5-4 12-4 4 0 8-2 10-5l1-3 2 2c2 3 8 3 11 0l6-3c19-10 20-12 22-17 2-6 0-9-5-11-5-1-11-1-13 1h-5c-2 0-3-1-3-7s0-7-5-11c-5-6-6-10-4-11s6-5 11-13c4-5 6-7 10-9l6-2c3 0 13-7 15-10l6-5c4-1 6-4 6-8l4-5c4-3 5-6 2-12-2-6-6-10-10-10l-13-2-14-3c-3 0-3 0-3 3 1 2 0 3-1 4-2 0-3 1-3 2-1 1-3 1-11-1-14-2-25-1-29 3-1 2-4 3-8 4l-8 3-14 1-8-2-7-2c-4 0-6-2-5-5l14-1h12l3-4 3-5 3-4 2-6c-1-9 0-10 5-14 4-4 5-5 5-7l-2-4-7 6c-4 5-5 5-3 2l2-5 2-1 7-5 6-4c2 0 7-5 7-7s-2-4-6-7-4-3-6-2l-2 2-3-6-2-5h-6c-5 1-7 0-10-1l-9-4-8-5c-5-6-15-9-15-5l2 1 2 3 4 5c2 2 3 7 0 13l-2 5 1-7v-9c-4-4-18-7-16-4l-2 2c-1 1-3 0-6-5l-4-4-6-3-8-4c-5-1-6-1-7 1l-3 4c0 2-1 3-2 2l-1 4-2 9-2 6-5 7c-1-1 2-10 3-10v-7l-4-5-3-8c0-3-2-6-4-9-6-7-9-8-9-2l-1 6c-1 2-1 2-5 2-4-1-5 0-7 1-1 2-2 2-2 1 0-2 2-4 6-4l5-2c2-2 2-3 0-6-1-2-1-3 1-6 1-3 1-3-1-6l-7-5c-7-3-6-7 1-9 2-1 2-1 1 1h8l13 1c7 0 7 0 11-3 3-3 5-4 13-5l10-3 4-3 2-3 2-3c1-2 1-2-1-1l-10 5-14 2h-24c-18 0-21 0-24 2l-7 1-11 3-18 2c-9 0-9 0-11 3-3 3-3 3-11 3-6 0-8-1-11-3-5-2-6-3-6 0l-2 3c-4 3-12 4-13 2-2-1-3-1-5 1l-8 1c-5-1-6 0-6 5 0 3 2 3 6 0 3-2 4-2 17-1l17 2 3 1-3 2c-4 3-13 4-26 4-12 0-18 1-18 4h-1c-1-2-1-2-3 1l-3 3-1 2 3 1h3c0 2-6 4-12 5-7 1-14 5-15 8s-3 4-18 5c-15 0-25-1-53-6l-12-2c-2 0 0 1 3 3l3 1h-3l-6-1-3-2c-2 0-3-2-1-2l2-2-7-5c-8-3-10-4-8-6s1-4-2-5h-16c-3 1-5 2-9 1h-12l-13 1-7 2c-3 1-8 2-10 0l-8 2-10 2-16 5-16 4-8 2c-4 2-23 3-29 1-7-2-11-8-11-17l-2-4c-2-1-1-2 2-4 2 0 3-2 3-2 0-2 0-2-2-1h-6c-1-1 0-2 1-2 3-1 3-1 2-4l-6-7-4-6-3-1-5-2-5-2-5-3c-1-2-3-3-6-3l-6-1c-1-2-3-2-11-1-9 0-10 0-11-2-4-4-19-6-21-2l-6 1c-5 0-7 1-10 3l-4 2-2-2c-6-5-11-17-13-30-1-6-5-12-10-16l-5-3-2 1z"/>
  <path d="M699 149c-6 5-6 6-11 6l-7-2h-7c-5 1-10 6-9 8l8 1c5 0 7 0 8-2s2-1 10 4c4 3 7 3 8-1 1-3 6-3 5 0s1 2 3-1l3-4 2-3c0-2-4-11-6-11l-7 5z"/>
  <path d="M592 168l-2 3 5 1c7 0 9-1 9-3s-1-2-5-2l-7 1z"/>
  <path d="M683 171c-2 0-3 1-2 2h6c1-2 0-3-1-3l-3 1z"/>
  <path d="M697 172c0 2 2 3 5 3 4 0 3-2-1-4-3-1-3-1-4 1z"/>
  <path d="M946 267c-2 1-3 5-3 6l7-6c0-2-3-2-4 0z"/>
  <path d="M937 271v3h3l1-3c0-3-2-3-4 0z"/>
  <path d="M935 280c-3 2-2 3 1 1 2-1 3-4 2-4l-4 3z"/>
  <path d="M938 283l-4 6-3 4-1 3 8-7c6-6 7-7 6-8-3-2-4-1-7 2z"/>
  <path d="M928 285v3l2-1c2-2 1-4-2-2z"/>
  <path d="M942 288c-4 4-5 5-2 5 2 0 9-6 9-8 0-1-3 0-7 3z"/>
  <path d="M930 289c-3 3-2 5 1 2l2-5-3 3z"/>
  <path d="M942 295l-2 2 3-1 2-2-3 1z"/>
  <path d="M933 297l-4 2c-2 0-5 3-7 6-1 3 0 4 5 4 7-2 9-4 10-11 1-4-1-4-4-1z"/>
  <path d="M943 299l-3 2 3-1 4-1c2-3 0-2-4 0z"/>
  <path d="M948 302l-3 2 3 1h16l-4-1c-4 0-4 0-3-2s1-2-2-2l-7 2z"/>
  <path d="M940 304c-4 2-3 2 1 1l2-2-3 1z"/>
  <path d="M939 308h2v-1l-3 1z"/>
  <path d="M920 312c-1 1-1 1 1 1l4-1c1-2 1-2-1-2l-4 2z"/>
  <path d="M922 314l-4 1-10 1c-8 0-12 1-11 3 2 3 20 4 19 1l7-1c6-1 10-3 10-5h-11z"/>
</svg>
