<svg xmlns="http://www.w3.org/2000/svg" viewBox="0 0 1024 1024">
  <path d="M944 273c-3 3-3 4-2 7 2 3 6 2 8-2l5-4h3l-3-2c-5-3-8-3-11 1z"/>
  <path d="M880 297c-3 0-4 1-5 3-1 3-4 5-9 5-4 0-4 3 0 6s7 3 10 1l3-2 2-4 2-5c2-3 3-5 1-5l-4 1z"/>
  <path d="M915 303c-1 2-1 2 2 3 4 2 9 11 9 15v3l6-1c7 0 13-2 13-4 0-1-4-4-8-5-6-2-7-4-9-8-1-3-2-4-4-4l-6-1c-1 0-2 0-3 2z"/>
  <path d="M944 307c-2 2-3 3 0 4 2 1 3 0 5-2l3-3c0-2-5-1-8 1z"/>
  <path d="M864 321h-7c-3-1-5-1-8 1l-5 1h-11c-2 0-1 3 1 4l4 3c3 0 4 1 3 4 0 5-1 8-4 12s-4 5-1 9v4l-1 8v8c2 2 2 5 1 9-2 3-2 4 0 6 1 3 1 3-2 7-4 5-9 8-15 9-4 0-5 0-7-2l-2-2-2 3-3 3-1 3-2 3c-3 1-8 0-8-2 1-1-2-4-3-2h-3c-3 0-3 0-3 2l-4 3c-5 3-5 4 0 7 6 3 8 6 8 10l1 3c1 0 2 0 1 1l-1 1-3 4-3 5-4 3c-2 2-3 3-3 7l-1 8v7c1 2 1 3-1 5-5 8-1 15 6 12l3-3 4-5c3-3 5-4 7-4 14 3 16 3 18 2l3-2c2 0 3-2 2-3l-1-3-4-4c-5-5-6-8-6-15l3-9 2-13 1-12 4-1 7-4 6-2c3 0 4-1 6-3l5-6c3-3 3-3 10-3l9 1c1 1 1 1 3-1h12l8-1h5l2-4c2-5 1-6-1-6l-2 1h-1c-2-3-2-7-1-9 1-1 2-2 1-5 0-3 0-5 2-8 3-3 4-4 9-4 5-1 6-1 9 2 2 1 5 3 5 5 2 3 5 3 9-2 3-5 7-6 10-5 3 2 8 1 10-1l6-1 7-2c2-2 2-2 1-3-3-2-2-4 3-8l11-4c7-1 13-1 16 1 1 1 3 0 7-2l8-3c4 0 9-3 11-7 2-3 4-4 5-4l3-2 3-3c2 0 3-1 3-2 0-2-15 0-16 3-1 2-7 3-9 1l-6-1c-9 2-12 3-18 8l-9 5c-3 0-3 0-2-3l4-4c2-3 2-3 1-6-1-2-2-2-3-2l-8 2c-8 0-9 2-10 10 0 6 1 7 3 8l2 2h-3a448 448 0 00-22 4c-2 2-2 2-7 1h-10c-11 4-13 2-9-6 2-5 2-6 0-7l-3-1-3-2c-2-1-2-1-6 1s-4 2-6 1l-3-2-2-2-1-2-1-4-2-2c-3 0-5-1-5-3 0-1-1-1-6 1z"/>
  <path d="M600 339l-5 3-5 1c-3-1-4-1-4 2-1 1-1 3 1 4l1 2 1 4c2 4 2 6 0 6s-4 8-3 10l4 4 4 3 1 2-3 3c-5 3-4 5 1 5s5 1 1 8c-2 6-3 6-6 5l-4 1c-1 1 2 15 3 17h8c2-1 3-3 3-5 1-4 1-4 4-4 5 0 8-4 9-10 0-4 0-5-2-6l-5-2c-2 0-2 0-2-7s1-8 4-12l3-6 2-7c1-4 2-4-2-4l-3-2-3-3c-2-1-3-6 0-7l1-4c0-3 0-3-4-1z"/>
  <path d="M742 341c-2 1 0 5 3 5l2 2 5-2c4-2 4-4 0-4l-6-2-4 1z"/>
  <path d="M499 353c-4 4-3 5 2 5 4 0 4 0 5 3v7c1 4 0 5-2 5s-6 4-5 7c1 2 4 3 7 2 4-2 8 0 9 3 0 6 2 11 5 13l3 6c0 2 0 2 2 2 5-1 6-1 6-4 1-4 5-10 7-10l2-1 3-2c3 0 6-4 4-5l-1-6c-1-5-3-7-6-5-2 2-2 2-4-1l-3-4c-1-3-4-2-7 1-5 5-8 4-13-5-2-5-4-9-3-10 0-1-4-5-6-5l-5 4z"/>
  <path d="M743 363l-1 2-2 4c-3 4-2 5 3 2 4-2 4-2 8-1 4 2 9 2 11 1v-5c0-3 0-3-3-1-2 1-3 1-8-1s-7-2-8-1z"/>
  <path d="M717 364v5l5-1c3-1 3-2 2-3-1-2-5-3-7-1z"/>
  <path d="M637 391c-3 5-12 6-16 2l-4-2c-1 0-2 6-1 9 1 2 2 2 9 0l8 1c11 4 23 0 28-7 2-3 0-5-3-3s-3 2-6 1l-8-2c-5-1-6 0-7 1z"/>
  <path d="M216 412l-4 2c-2 1-3 4-1 5v3l2 3h15l7-1 5-1-4-2c-5-1-14-7-13-8 2-2 1-3-2-3l-5 2z"/>
  <path d="M149 413c-3 1-4 2-4 4 0 4-2 7-3 7l-2 1c0 3-12 6-16 4-2-1-2-1-3 1l-1 4c0 2 0 2-8 2-8-1-14 0-14 2 0 5 9 10 16 10h7l6-2 7-2c4 0 10 3 10 5s3 5 6 6c3 0 5-2 5-7 0-4 2-7 5-8l4 4c3 6 12 13 18 15 7 3 12 2 16 0 5-3 5-3 2-7l-2-3h3l8 4c8 5 10 5 11-2l1-8c0-3 0-3-5-3l-7-4c-1-2-2-3 0-4 1 0 1-1-1-4l-3-4v-1c2-1 1-2-6-5-5-2-7-2-13-2-7 1-9 0-14-2-6-2-18-3-23-1z"/>
  <path d="M576 412c-4 3 0 13 5 13 2 0 2-6 0-8l-1-4c0-2-2-3-4-1z"/>
  <path d="M534 415l-6 1-6 1-5 3c-3 1-3 2-3 4s-1 3-3 3l-4 2c-2 3-9 6-12 6l-5-3c-2-2-2-2-3 1l-1 4c0 2-3 4-7 3l-8-1c-4 0-6-2-6-5 1-2 0-2-2-3-3-1-4-1-4-4-1-4-3-5-4-2l-3 6c-1 2-1 3-3 2-1-1-3 0-4 1h-10l-4-1c-3 2-9 1-11-1s-3-2-6-1c-4 1-15 1-16-1l-5-1-3-1c1-2-7-4-12-4-3 0-3 0-3 3 0 5-1 5-10 5-8 0-10 1-7 3l4 1c4 0 7 8 3 13-1 3-4 3-8 0l-8-4-6-3-1 3c-1 7-2 10-5 12-4 2-5 9-2 14 1 3 2 4 7 4l6 1-1 3c0 5-2 9-4 9l-6 4-7 4c-11 2-12 4-11 10 1 5 1 6-3 12-4 7-14 18-19 20-3 2-13 4-19 4l-9-2c-7-3-10-1-11 5v4h-4c-3 0-5 0-7 2-3 2-14 7-18 7l-2 1c0 1 2 2 7 2l11 2c5 2 7 1 12-2 2-1 2-1 4 1l4 3c1 1 1 1-1 1l-3 1-2 1-4 1-4 2c-6 1-5 3 1 5 7 3 21 2 21-1l1-3c2-1 2-3 1-3l-5-2-3-2 6-2c9-3 20-5 25-5 6 0 7 1 15 11 4 4 4 4 10 5 9 0 13-1 15-4 1-3 3-4 9-5 4-1 5-3 6-8 1-4 3-4 9-3h11c6-1 10-3 12-8l7-11v5c0 3 0 4 2 4s6-3 4-4c-1-1-2-5-1-9 1-3 1-4-1-6s-2-2-1-5c2-4 2-4 4-3 1 1 2 2 1 4 0 3 4 6 8 5h9c6 1 6 1 11-1l6-6 4-5c1 0 2-1 2-3l-2-3-6-2c-4-2-4-3-4-6l2-4c4-2 3-8-1-8-3 0-3-1-2-5 2-3 6-4 6-1l2 2c3 0 4-2 4-5 0-2 1-1 2 2 2 3 3 5 5 5 4 0 9 5 9 8l2 5c3 2 4 3 6 1 1-2 4 0 4 1-1 3 6 11 8 11l3 1c2 2 10 0 10-2 0-3 3-5 6-5 2 0 2 1 2 3l1 4c3 1 10-2 14-6 3-2 3-3 2-4l-4 1c-1 1-4 1-4-1l1-1c1 2 4-1 4-5l2-4 8 3h4c2-1 2-1 3-6l1-6 1 1c0 2 3 3 3 2 0-2 5-7 6-7s-1-6-3-7h-4c-2 1-2 1-3-1-3-5 0-13 5-14 8-2 14-2 15-1l4 2c2 0 4-3 4-7l1-3c2-1 8 1 10 3l3 2 4 3c4 3 8 4 8 1l2-3c1-2 1-2 4 0l7 1c5 0 12 4 17 10 3 3 4 5 5 10l1 6 6-4 7-6c3-3 4-3 2-7l-2-9c-2-5-3-6-9-10l-6-6c-1-1-7-6-9-6v3c0 3-3 6-7 8-3 0-7-2-6-3v-3c-1-2-1-2-4 0h-13c-2 3-12 2-11 0v-4c1-3 0-3-4-3-5 0-5 0-6 3v5c2 1 2 2 1 5l-2 3-1-4-3-6-2-10c-1-9-3-11-9-11l-4-1c0-2-2-2-2-1z"/>
  <path d="M244 420v5c3 2 5-1 3-4-1-2-1-2-3-1z"/>
  <path d="M4 424l-2 2c-2 1-2 1 0 5 2 2 2 4 2 8-1 7 0 9 6 9 5 1 10-2 10-5s-7-14-10-18c-4-3-6-4-6-2z"/>
  <path d="M241 458c0 1 1 2 3 2 4 0 4-2 0-3l-3 1z"/>
  <path d="M540 480l1 4 3 6c0 2 1 3 3 3 6 1 6-1 2-6l-4-6-2-1h-3z"/>
  <path d="M761 500c-3 2-3 2-2 3 2 1 2 2 1 3-2 2-1 6 0 6l4-6c3-4 3-5 2-7-1-3-2-3-5 1z"/>
  <path d="M752 533v1h1c0-2-1-2-1-1z"/>
  <path d="M749 543v4l4-4h-4z"/>
  <path d="M207 556l-5 1-7 2h-10c-1-2-6 0-14 3l-9 4c-1 0-5 5-4 6 1 2 6 2 8 1 1-2 16-1 18 1 3 2 6 0 5-4 0-2 0-3 2-4l4-2 4-1 6-1 7-2 3-1-2-2c-2-3-4-4-6-1z"/>
  <path d="M720 556l-9 1c-4 0-5 0-7 3l-10 5c-6 3-9 5-8 6l15-3c1-1 4 2 6 6l4 3 5 1c3 1 3 1 5-1s1-4-3-6l-4-4c0-2 1-2 5-2l5-1 2-2c3-1 3-3 0-5-2-2-2-2-6-1z"/>
  <path d="M637 569l-1 10c-1 3-1 3 2 7l5 3 1 7c1 7 3 10 6 8 1-1 3 0 7 2 5 3 7 4 9 2s1-10-2-13c-2-2-2-2-6-1h-7c-2-1-3-1-3-7 1-5 1-5 3-6l4-2c1-2 0-3-3-4-8-4-9-6-9-9s0-3-3-3h-3v6z"/>
  <path d="M225 574c-5 2-4 3 5 4 8 1 9 0 8-3 0-3-1-3-5-3l-8 2z"/>
  <path d="M606 594c-2 2-4 3-7 3h-5l1 4c1 5 1 5 6 4 4-1 4-1 7 1 2 1 3 3 3 6 1 3 2 4 4 4s4-3 4-6c0-2-1-2-3-2-3 0-3 0-3-3 0-5 2-8 6-9 3 0 5-3 3-4l-7-1c-6 0-7 1-9 3z"/>
  <path d="M157 595v4c1 3 1 3 10 5l6 2c2 2 1 7-1 10v4c2 1 0 4-4 7-2 1-2 1-4-1-3-3-3-3-12 5-4 3-6 4-9 4-4 0-7-2-7-3 0-2-3-3-6-3l-5 4c-3 4-7 5-11 3-9-4-9-4-9 4 1 5 1 6-1 7-3 2-9 0-12-3-2-2-2-2-1-3l1-4c0-2-1-3-2-3-3 0-4 3-4 7 1 3 1 4-1 5-3 3-3 4 0 6s2 5-2 6l-6 3-5 3-9 5c0 3 2 6 4 6 3 0 7 3 6 4l-2-1c-1-1-1-1-2 1l-1 4h-2c-2-3-3-2-3 1-2 7-2 7 2 6 1 0 2 1 4 9l2 5c1 2 1 2 5-2l6-3c3 1 3 1 4 4 0 3 0 3-4 5-5 2-6 4-3 6 2 3 5 2 9-1s6-3 4 1c-2 3-1 5 1 6 1 0 2 1 2 3s2 3 6 0l2-1-2-3c-4-5 0-8 7-6 3 0 3 0 3-3l1-5c1-2 6-3 6 0l3 1c1-1 2 0 4 2 2 3 3 6 1 10-2 2-2 3 0 5 3 3 5 3 5-1v-6c1-2 0-3-1-5-2-3-2-6-1-8 3-4 8-2 8 3 0 3 1 4 4 5 5 4 10 1 17-7 7-9 8-9 19 1l10 8 3 2 5 2c2 0 3 0 4-3 0-4 3-5 4-2l2 1 1-3v-3c2-2 4 1 4 5l1 4 1-4c1-2 2-3 4-3 3 0 4 0 3 2l-1 5-1 5 1 3v4c-2 1-2 2-1 3 2 2 5 1 5-2l4-5 4-5c2-3 2-3 4-2l2 1-2 1c-2 1-2 2-2 3 1 3-1 5-2 3-1-3-2-2-2 1 0 4 4 6 6 4 2-1 2-1 2 2l1 3 4-3c3-3 6-4 9-2 2 0 2 1 0 2-3 3-3 6 1 8 3 2 3 3 2 7l1 6c1 1 1 1 2-1 1-1 2-2 1-3l2-4c3-3 3-5 0-10-3-6-2-12 1-12s3-1 1-4l-3-6c-1-3-1-3 3-4 6-3 7-9 2-9-2 0-2 0-2-7l1-8h-4c-6 0-10-2-11-7-1-3-1-4-3-4-4 0-7-3-7-6l-1-5-2-5-2-2c-3-1-2-5 1-6h5c4 3 6 6 6 9 0 2 1 3 3 4 3 1 9-3 9-6s-3-7-5-7l1-5 1-6 3-6c4-3 5-3 5 2l2 4 2-1c0-2 11-8 13-8 2 1 1 3-2 6-2 2-2 2-1 3l3 1c3 0 2 2-1 4l-2 2h5c4-2 4-2 4 0l-2 1c-2 0-3 1-4 3l-2 2v9c-1 3 0 4 1 4 2 1 3 1 3-1l3-5 5-6c2-3 6-4 7-1h3c2 0 3 0 3 2s1 3 5 4l6 2 1 6c0 6 0 7-4 10-4 4-4 5 0 5 2-1 3 0 4 2s2 2 6 2c7-1 7-1 7-6 0-8 7-10 8-4l3 3c2 0 2 0 1-5-2-5-2-8 1-8 2 0 2 0 2-2v-5c-2-4-10-6-13-4h-4l-1-1 1-3c0-2-1-3-5-5-6-3-7-3-7 1 0 2 0 2-5 2-4 0-4 0-6-5-1-5-1-5-5-5l-7-3c-2-2-2-2-1-4 1-3 1-3-2-6-4-6-9-7-22-7l-11 2c-3 2-5 0-5-4 0-3-4-7-10-9-3-1-10 0-11 1l-3-1-4-2-1 2c-1 2 0 3 1 5v3c-2 2-4 1-8-1-2-1-4-2-10-1l-8-1-3-1c-3 0-9-2-8-3l5-1 6-2c2-2 2-2 1-4l-5-4-7-2h-26z"/>
  <path d="M534 609l-2 7c0 2 1 3 3 1l3-2 3-1c2-1 2-1-1-4-4-2-5-3-6-1z"/>
  <path d="M494 618c0 2 4 8 6 10 3 3 3 5 0 5l-6 1c-4 2-5 2-9 0l-5-4c-1-2-2-2-3-2l-9 2-7 2 2 2c2 2 2 2-1 3-4 2-6 2-13 0l-6 1c-3 2-4 2-3 4l4 2c1 0 4 1 6 4 4 4 5 4 6-1 0-3 1-3 3-2l5 2 4 3c3 4 4 4 5 0l5-4 2-1 4-1 6-2h4c1 2 3 2 7 1 5 0 6 0 8 2l6 10 4 10v8l-3 4c-1 2-1 3 1 6 3 4 5 5 10 6 6 1 8 0 6-3-2-1-2-4-2-13l-1-15c-2-6-2-16-1-21v-7l-1-3-3 3-3 4c-2 0-6-3-6-5s-3-5-5-5-3 1-1 2 1 4-1 4l-3-4-5-5-3-2c-1-2-4-3-4-1z"/>
  <path d="M411 680c-2 1-1 4 1 4 4 1 5-1 3-3s-3-2-4-1z"/>
  <path d="M360 691c-2 1 0 6 2 6l2-5c1-2 1-3-1-3l-3 2z"/>
  <path d="M420 700c-1 1 0 2 2 3s2 1 1 2c-2 3 1 4 12 7 3 1 3 2 0 4-2 1-4 2-4 4-3 3-5 3-10-2l-5-4v5c0 6-1 10-3 10s-2 0-1 4l4 2 5 1c1 0 2 0 2-2s3-3 5-1h4c0-3 2-3 6-2h6c4 0 4-1 1-5-2-3-3-7-1-7l4-1 4-1 3-3 2-2 3-1c2-3 9-1 8 1 0 2 2 3 5 2s3-1 5 1c4 4 6 2 5-5l-1-7c-1-1-7-2-8-1h-12l-7-2c-2 0-2 0-1 2 3 3 1 5-4 4l-6-1c-1-3-4-3-6 0-3 2-3 2-6 1l-4-4-1-2-4-1-3 1z"/>
</svg>
