<svg xmlns="http://www.w3.org/2000/svg" viewBox="0 0 1024 1024">
  <path d="M332 295c-1 2 2 11 5 16 3 4 3 5-1 6l-4 3 3 4c3 3 3 3 9 3h8c8 4 8 4 8-2l1-8v-7c-2-4-4-6-13-9-3-1-6-2-7-4-3-3-7-4-9-2z"/>
  <path d="M352 336l-7 3c-4 1-4 2-4 3l1 5c0 2 1 3 3 4l5 5c2 5 7 8 17 9 10 0 12 1 12 5 1 5 3 6 9 8 5 1 8 0 6-1l-2-7c-1-6-1-6 1-11 2-4 2-5 1-8l-4-5c-3-1-12-2-18-1h-4c0-3-8-11-10-11l-6 2z"/>
  <path d="M492 342c0 2 1 3 3 4 7 4 10 7 13 12l7 9 3 5 4 3c2 0 6 3 9 6 6 6 9 8 11 8s6 3 15 9l7 5 7 6 5 4 3 3 2 3c2 0 1 9-1 13l-4 9c-5 9-14 17-19 17l-4-3-5-3-6-1c-7 0-10-1-13-4-2-2-4-3-8-3l-8-4c-1-2-3-3-5-3l-5-2c-1-2-4-3-6-4s-4-3-4-5l-4-5c-2-2-2-3-2-5 1-4-1-11-3-12l-3-2h-3c-2 1-4 1-8-3l-3-2-1-2c0-2-1-2-5-2-6-1-6 0-11-11-1-3-8-7-10-7l-3-2c-3-4-5-4-5-1 0 4 4 11 6 11s3 1 0 3c-1 2-1 6 1 11 4 6 3 7-1 10-5 2-12 2-15 0h-4c-4 2-4 2-8 0l-9-7c-4-4-6-3-7 1-2 5-5 5-8 0s-7-4-12 2l-9 5c-4 0-12-2-14-5l-3-1-5-2-5-2-5-4-3-3-2 2c-3 3-4 3-9 3l-7-1-14-3-4-1c-1-2-6 1-7 4 0 5-10 6-15 4l-5-2-1-1c-1-3-3-2-6 0l-2 2-4-2c-4-2-5-3-5-1l-3 4c-3 2-3 3-3 6 1 2 1 3-1 4v8c1 2 1 3-1 6-2 2-3 3-5 3-4 0-7 2-5 3 1 1 3 11 2 13-1 4-18 2-18-2l-4-3c-3-1-3-2-4-6l-2-6c-2-3-3-3-9-3s-13-3-16-6c-2-3-7-5-8-4h-2c-2 0-1 3 1 6l5 9-3 4c-2 1-3 3-3 5 0 3-2 3-7 2h-5l-4 1c-3-1-4-1-8 2-3 3-5 3-7 2h-18l-6 3c-1 3-4 4-7 3l-4-3c-1-2-3-2-8-2-4 0-6 0-7-2h-4c-2 2-4 2-6 1l-6-2c-3 0-4 0-5 3l-1 5v3l-5-1-6-2h-2l-7 1c-7 0-8 1-6 5l4 5c3 2 2 2-2 9-2 3-4 5-6 5-3 0-4 2-3 4v5c-2 3-5 4-7 2h-2c-1 1-2 2-4 1l-8-1c-8 0-10-1-7-5 1-3 1-3-1-3l-3-1c-1-2-3 2-3 5l3 6a724 724 0 0120 20l4 1 7 5c4 4 6 5 9 5l3 1 4 1c2-1 3-1 5 1 1 1 2 3 1 4l3 4 3 6 2 2 6 3 7 2 18-1 2-6c1-7 1-7 9-7l9 1c2 2 8 0 10-3 4-5 4-5 7-3 4 2 5 3 8 9s7 6 13 0c3-3 6-5 8-5l4-2c3-2 11-3 12-2 0 2 3 1 3 0 0-2 4-4 9-4 4 0 5-1 9-4 2-3 5-5 6-5 3 0 11-6 18-14 5-4 5-4 7-3l8 2h6l3 1 7 2 5 1 2 2 2 1 9 6 1 5-1 6c0 1 0 2 6 2 15 0 20 1 24 3 6 2 13 7 16 11 3 3 4 6 2 6-1 0-2 1-2 3l-3 4-2 3c0 2 2 3 3 1 0-1 6-1 7 1l-4 1c-3 0-4 0-5 2 0 2-5 2-29 4-3 1-3 1-3 6 0 8 1 8 17 7l21-2h8l1 3 5 10 4 9 2 5c2 1 2 1 4-1l2-5c0-2 1-3 3-4 5-2 6-4 5-11v-6l3-1c5-2 16-4 19-3s7 6 7 9l-2 4c-2 1-2 3-2 7 1 6 0 7-3 14l-4 8c0 3 5 12 6 12l2 1c1 1 9 0 11-2v-8l1-13 1-5 1-5c0-3 0-4 2-4l4-2c2-1 1 0 0 2-4 4-5 9-3 13l3 4 2 3 3 2 4 2c2 3 3 3 8 0 6-3 7-5 7-11-1-4 0-5 1-5h4c2 2 3 2 3 0 1-2 1-3-2-3l-3-1c-1-1 5-6 8-6 2 0 3-2 0-3-1-1-1-2 1-5 3-4 4-5 5-2l2 1c1 0 2 1 2 3l1 4 5-6c5-6 6-6 9-6 9 2 10 2 13 5 3 4 17 7 17 4l2-1c4 1 7-7 4-12-1-2-1-2 1-3l2-2a2601 2601 0 0023-7c14-4 21-5 21-3 0 3 4 3 7 1l7-2c4 0 4 0 7 5l2 5h9c8 0 10 0 13 3 4 2 5 4 6 9 1 2 0 3-11 11-13 10-13 10-7 18 2 4 2 5 1 7-2 5 0 8 5 9 4 1 5 2 5 3l-1 3v3c2 4 1 8-1 11-3 3-6 11-6 12 1 1 2 0 4-1l12-1h8l1 2c0 2 1 3 2 3l6 3 9 2c5 0 6 0 6 2s1 3 4 3c2 1 4 2 4 4l6 5 5 2c0 2 4 1 6 0 3-2 5-2 5 0l1 1 2 4 2 8c1 3 1 3 6 3 4 0 5-1 5-3 2-2 5-4 8-2l1 4c0 3 2 5 4 3s5-1 9 2c3 2 5 3 6 2h3c2 0 3-4 1-6-1-1 1-6 4-8 3-3 6-2 7 1 0 5 2 6 7 2l6-2 3-1 3-2c3-1 4 0 6 2l4 3c2 0 2 1 2 2-1 3 1 4 6 6l4 4c1 2 2 4 4 4l2 2c1 2 1 2 4 1 2-1 2-1 4 1s2 2 4 1c3-3 9-2 10 0l3 3c3 0 3 1 3 3s1 3 3 5c3 2 3 3 3 8-1 5 0 6 2 6l3-1 4-3 3-2 4-1 5-1c3-1 2-5-1-6l-3-3-3-4c-3-1-2-6 1-7l3-4c2-4 2-4-1-4-2-1-4 0-6 1-3 2-4 2-5 1s-1-2 1-4c3-3 3-6 0-8v-3c2-2 0-3-3-2-2 1-9 0-10-1l-4-1c-3 0-4 0-5-4-3-5-3-9 0-11 2-2 5-2 11-1 5 2 19 2 24 0 3 0 6-2 8-5 3-3 3-3 10-4 6 0 7 0 10-3l5-4 2-3 1-2 3 3c4 4 5 8 3 7-2-2-5 0-5 3l1 3 1 3c0 3 1 5 3 6 3 4 5 3 5-1 0-3 3-5 9-5 5 0 6 0 8-2 2-3 8-4 8-1l2 1 4-1s2-1 2-3c2-5 3-5 6-3h7l4 1v1c-2 2-1 3 5 2 4 0 5 0 6 2l-3 4c-3 3-3 3-2 6l2 5h2l3-2 3-2c1-2 1-2 3 0l1 3c0 3 3 4 4 2h2l4 1c4-1 6 1 6 6l1 4 2 2c0 2 2 2 5 2l3-3 3-3c2 0 3-1 3-2 0-2-3-6-5-6s-4-5-2-7l1-3c0-2 4-5 6-5l1 2c0 3 3 3 8 0 4-2 4-2 5-1l3 4 1 3 3 2 5 1c3 1 11-1 12-3 0-2-1-2-3-2l-4-1-3-2c-2 0-1-2 1-5 1-2 1-2-1-3l-3-2-1-2-11-1c-4 0-4 0-4-3s0-3-2-3c-3-1-3-1-3-5-1-2-1-3 2-5l5-3 8-3c7-3 8-3 12-3l8 3c4 2 16 2 18-1 1-1 1-1-1-3l-4-5c-1-2-2-3-9-3-19-1-26 0-36 10-4 4-9 6-12 4l-6-1c-2 0-4-1-5-3-4-3-5-4-8-1-1 2-10 5-15 5l-6 2-5 1 3-4 7-5c7-5 10-7 13-7s4-1 4-6c0-3 1-3 3-2 5 1 7 0 8-1l3-2 2-4c0-8-6-14-13-14l-4-2c-1-1-1-1 2-1 4 1 5-2 1-3l-4-2 3-1 2-4h-5c-1 2-7 1-10-2-3-2-3-3-3-7 0-5 1-7 6-7l3-1c0-2-6-5-9-5-4 0-10 3-12 5l-5 3c-4 0-10-1-10-3s-6-9-7-9c-2 0-10-7-11-9l-2-4-2-4c-1-2-17-8-24-9-4 0-7-1-7-2-1-1 3-6 5-6l5-2c3-2 6-2 11-2 6 0 7-1 4-5-3-3-11-3-19 1l-3 2-4-5c-3-3-4-4-7-4l-6-2c-4-4-20-6-24-3l-2 3c0 2-4 3-6 2v-6c2-3-1-4-11-3-6 1-6 1-6-1l2-2 4-2 2-3h-4l-6-2-5-1c-4 1-5 0-5-1-1-2-2-2-6-2l-6-1-3 2-8 4c-5 1-5 1-8-1-2-3-3-5 0-7 2-2 1-14-1-15-1-1-2-2-2-5 0-4-1-6-7-10-5-2-8-3-6-1l-1 1c-1-1-3 0-4 1l-6 2c-2 0-2 0 2 3l5 3 6 6c-4 4-8 4-12 1-2-2-2-3-1-4l1-3c0-1-1-2-5-1-6 0-9-1-9-4 0-2-2-3-4-3l-3-2c0-2-2-3-5-3l-2-2-4-2-4-1c-1-3-7-5-14-5l-14-2c-14-2-22-2-24-1-2 2-5 0-7-4l-3-5c-1-2-8-6-11-6l-4-1c-1-2-8-6-9-6-6 1-15-4-15-10l-3-4-3-2-2-2-4-2c-2-2-3-3-6-3l-4-1c0-2-5-6-8-6l-4-2-3-2-20-7c-4-2-6-4-8-7-3-5-7-8-13-10l-5-2c-2-3-4-2-4 0z"/>
  <path d="M509 567l-3 1c-5-1-7 1-7 8 0 5 0 6 3 7h3l3 1c2 1 2 2 2 7v6l1 2 1 4 2 6 1 4c2 0 4 3 4 6 0 2 1 3 4 5l4 6c1 5 2 5 5 0l5-5 1-1 4-3c3-3 4-5 2-9 0-2-2-3-3-3l-3-7-4-6-2-2c-2-2-6-1-6 1l-3 3c-2 0-3-2-2-4l2-10c1-7 1-7-2-9l-4-4-2-2-2-1c-1-2-3-2-4-1z"/>
  <path d="M470 599l-5 1c-3 0-3 0-4 2 0 2-4 6-9 9-3 1-4 3-4 5-1 5-1 6-5 7l-4 2-3 5c-2 3-4 4-6 4l-3 1-3 1-5 4c-4 3-4 3-5 1h-2l-2 1c-2 0-3 2-3 5l-1 3c-3 2-1 3 2 2 4 0 9 2 9 5s-2 6-4 6c-3 0-3 0-7 3-3 3-4 3-4 2l-1-2c-2 0-5 3-5 4l-1 3c-4 3 0 6 7 6s8 0 8 2 4 5 6 5v-2c-1-1-1-2 2-4l3-2c2 0 2 3 1 5-2 4-7 5-15 4l-7 1 2 2c2 0 0 2-2 2s-2 1-3 6v6h3c3 0 5 1 7 3s4 3 8 3l6-2 4-2c3 0 8-7 8-13l1-3 2-4c0-8 2-18 3-19l2-5c1-3 1-4-1-7-2-4-2-4 0-6l4-1c2 0 3-1 4-3l3-2 3-2 4-1c2 0 3 1 3 5s0 4 4 4l3-1v-6c0-5 0-5 2-5l4 2 4 4c3 2 4 3 4 7l1 4 5 2c7 2 7 2 7-1v-4l-1-2c1-1 0-2-2-4-3-1-3-2-2-6 0-4 0-5-3-6-4-2-5-5-2-7l1-6v-5c3-2-1-9-6-9-2 0-3-1-4-4-2-4-4-5-6-3z"/>
</svg>
