<svg xmlns="http://www.w3.org/2000/svg" viewBox="0 0 1024 1024">
  <path d="M466 3l-13 6c-7 2-9 4-11 7-3 3-3 4-3 7 1 4 1 4-3 7-2 1-3 3-3 5s0 2-5 2-6 1-13 4c-7 5-8 6-13 4-3-1-4-3-1-5 1-2 1-4-2-4s-9 4-11 8l-2 8c0 7-1 7-9 4-4-1-8-3-10-6-5-5-8-6-12-3l-5 2c-2 0-6-4-6-6l-1-1c-2 0-4 1-6 5l-4 5c-2 0-2 1-2 3 1 3 0 3-3 4-2 0-4 1-5 3-3 5-5 5-7 2l-8-6-6-5-2-1-9-3c-3-2-7-3-7-2-1 4-4 7-7 8s-3 2-4 5c0 4-2 7-6 8l-3 2 4 5 18 21 14 15v11l3-2c3-2 4-3 4-7l1-7c1-1 5 3 5 6 1 2 2 2 3 1 5-1 6-1 5 2v7c-1 4-1 5-5 9l-4 5c1 2 2 2 3 1 4-1 2 3-2 5-3 1-3 1-2 3 0 3 11 18 16 23 5 6 15 10 21 9 3 0 4 0 8 4l8 5c5 3 10 2 6-2-2-2-2-2 2-4 2-1 2-1 1-3h4c4 0 5 0 8-3l5-6h5l6 3c3 1 4 2 6 5l11 14 3 1c2 1 0 5-6 8l-6 4c0 3 4 6 7 5l4 1c2 1 2 1 4-1l3-2 1 3c2 4 2 4 0 4l-4 4v5c2 3 3 2 6-1s8-3 8 0c0 2 1 2 3 2 4 0 7 3 8 8 0 2 0 3-2 4-3 2-5 7-7 12 0 4-2 6-4 6l-6 3c-2 3-3 3-6 2-2 0-3-1-4-3s-1-2-4-1c-5 2-17 3-23 3h-5l2 3 2 5c0 2-4 6-11 10l-6 5c0 2 13 8 16 8s4 1 7 4 4 4 5 3l5 2 4 2 5 4c3 4 6 5 14 8l11 6c1 1 2 2 6 2s6 0 10 4l5 4-1 6c0 4 0 5 5 14 4 8 5 9 8 10 7 2 11 5 11 8l4 5c2 1 3 3 3 5l4 8c4 7 14 19 16 19l2 4c0 3 3 6 10 10l8 6c2 2 3 3 4 2 2 0 3 1 6 7l8 12c4 5 4 4 3 12-1 6-1 6 2 9l3 7c1 3 2 5 5 7 5 4 5 3 7-3 1-4 3-5 4-1l4 7c3 5 4 5 9 6 7 0 9 2 9 5l2 6c3 2 5 2 8 1 4-2 8 1 8 5s-2 7-7 10l-4 2-1 1-3 2c-4 3-4 7 0 8l3 4c0 2 1 3 2 3l2 4 4 3 2 1 3 1c3-1 4-1 4 1s2 3 3 3c3 1 4 3 2 7-2 2-2 3 0 7l2 5-3 3-4 6c0 2-1 4-3 4l-2 1 3 4 2 3c-3 0-3 5-1 9 2 3 3 5 3 9l1 8c1 2 1 3-1 4-5 7-10 17-10 20 1 2 0 3-1 4s-1 2 1 3l4 2c3 1 4 2 3 5 0 2 1 6 5 14l7 16-3 15-4 12 1 15c1 16 1 16 4 20l2 4-4 10-5 9-4-2-7-2c-4 0-5 1-9 5-9 9-9 9-14 8s-9 0-14 6c-4 4-5 5-8 5l-8-2c-5-2-6 0-2 4l2 3-2 3c-3 4-3 4-2 7l3 3 1 2-6 1h-7c-2 1-2 1-3-2 0-3-3-4-9-2-3 1-3 0-4-2s-1-2-3-1l-2 5c0 3 0 3-5 2l-6 1v13l2 7 1 6c2 3 12 10 17 11 4 2 5 3 5 5v4c-1 1-1 2 1 8l2 4h-5l-7-4c-3-4-6-2-7 3l-3 2c-3 0-3-1-4-4l-2-4c-2-1-2-2-2-5 0-5-2-6-5-4l-9 4-10 5c-4 2-4 2-8 1-2-1-6-3-10-3-6-1-7-1-8 1-2 3-2 5 2 8l3 3-8 8c-7 8-8 8-12 8-6 0-16 2-19 4-2 1-3 4-4 7l-2 5 5 5c4 4 4 5 7 4 4-2 10 0 11 3l5 3c4 0 10 5 10 7l-7 7-6 6-1 10-2 11-1 7-1 9c-2 8-3 16-1 18v15l7-3c2 0 2 0 2 2l1 3 1 4c0 2-2 3-6 2-3-1-4-1-5 1s-2 2-5 2l-4 1 4 3 8 2h12c9-1 11-3 12-8 1-3 2-4 6-5 5-2 10-9 10-13l1-6c2-8 29-21 42-21l6-2c3-3 3-4 3-12v-9l3 4c4 3 5 4 16 3l8-2 2-3-2-5c-3-5-6-8-9-10l-2-3c0-4 3-3 6 2 4 5 9 7 10 5 2-4 0-8-6-12-7-4-7-5 2-5l7-1h7v-4c0-4 0-4-3-5l-6-3-3-2h4c4 0 8-3 8-5l-3-4c-3-3-2-5 1-3l4 1c1-1 1-1-1-3-2-3-1-5 3-4 3 1 3 1 2 4-1 2-1 2 1 4l2 2 2-3c2-4 4-4 8-3 3 2 4 2 4 5 0 4 0 4 13-2l12-4 4-1 3-4c3-3 5-4 7-4l6-2c4-4 6-5 9-5 4 0 12-9 13-14 1-3 1-4 4-4l5 1c3 2 5 1 7-3l4-4c3 0 4-1 5-3 1-3 3-4 7-5h7c1 1 2 1 5-3 6-5 10-7 13-7l4-1 1-6c1-2 2-6 1-9 0-5 1-7 2-3 1 5 6-1 8-11 1-4 1-4-1-8l-1-4 2-2 1-3 2 3c4 3 6 3 6-1 0-2-1-3-4-4-4-2-6-6-4-11 1-5 0-14-2-16s-3-5-1-5c3 0 5 3 6 7l2 4c1 0 5-7 5-11 0-3 0-3-3-3-4 0-4 0-4-2s-1-4-3-5c-3-3-3-4 1-4 2 0 3-1 6-4l4-6 2-1c3 0 6-2 6-3l-5-5c-8-5-8-7-7-12v-8l-1-4c1-2 0-4-2-4s-5-6-4-7l3 2c2 2 3 3 4 2 2 0 2-1 0-5l-4-7-2-6-1-6v-5c1-1 1-1 2 2 2 6 2 6 3 3v-6l-2-7c0-4-2-7-4-7l-3-2-2-3-1-2 2 1c5 4 5 4 5-1-1-4-6-14-9-17-2-2-4-11-2-13s-2-12-5-13c-2-1-2-2-2-4l-1-8-2-6-2-3-2-1 2-2c2-2 2-3 2-6l-2-6c0-2-1-3-2-3l-3-2c-1-2-4-3-4 0-1 2-3 1-4-2 0-3-1-4-3-1-3 2-4 1-5-5l-5-10-5-8c-1-4-5-8-7-8l-2-3-3-4c-3-1-3-5 0-7 2 0 3-2 3-3 0-2-6-1-8 1l-4 1h-3l3-3 2-4c0-1-1-2-4-2-5 1-7-1-5-4 1-2 1-2-1-4-1-1-2-1-3 1l-3 1-4 1-5-1-1-4c0-2-1-3-6-5l-22-14c1 0 10 3 12 6 1 2 2 2 3 1 2-1 2-2-1-4l-11-7-5-4c-4-4-5-5-9-5s-4 0-5-4l-1-6c0-3-3-8-5-11l-10-5-8-6c0-1-2-4-5-6-5-3-7-7-8-14-1-4-2-5-4-6l-2-2-2-5-2-3 2-3c3-4 4-4 1-6l-2-5c0-3-1-5-3-5l-5-3-6-4-2-2-4-1c-2 0-3 0-7-4l-4-6-1-1c-3 0-5-3-5-7l-2-6-2-6c0-2 0-3-2-3s-3-1-3-4l-4-5c-3-2-5-5-5-9l4-3c5-1 7-5 5-8-2-4-2-4 0-4l2-3 1-6c2-4 3-14 3-19 0-4 0-5 3-5 2-1 2-2 2-4-1-2 0-3 1-5l2-4c0-3 1-4 9-6 6-2 8-3 10-6l5-5c1-1 3-3 3-5 1-2 1-2 2-1 2 2 5 3 7 1 2-4 5-15 5-22s1-8 2-6l3 2c2 0 2-1 0-4-2-2-1-3 2-2 4 0 5-2 5-11 0-3 0-6 1-5l1 1c0 2 3 6 4 6l1-3c-1-3 4-8 7-8l2-2c0-3 2-2 5 1l3 2 3-2 5-2c2 0 4-1 5-3s1-2 2-1c1 2 3 3 3 1 0-1 2-4 5-6 6-5 8-8 5-7h-3c-2-1-3-1-4 1-3 3-6 4-6 1-1-3 0-4 6-4 3 0 4 0 5-2l3-2 4-2 9-7c2-1 7-2 8-1 2 2 6 0 6-4 1-2 1-3-1-3l-5-5c-10-10-14-11-25-5-9 4-10 4-10 1-1-2-2-2-5-2s-4 0-5-2c0-1-1-2-4-2-4 0-13-6-13-10 0-5-1-6-3-5-3 2-7 0-8-4l-2-3-2 3c-1 2-3 3-5 3s-2 0-1-10V77l-4-2c-6-3-6-4-6-11v-6l4-1c3-1 4-2 7-8l4-7c2-2 1-3-2-5-2-1-4-3-4-5-2-4-2-4-8-4-8-1-9-1-14 2-5 2-6 2-7 1-1-2-7-5-10-5l-8 2c-7 2-11 2-14-3l-6-4-6-3c-1-1-2-2-3-1s-1 0-2-3c0-3-1-5-4-7-5-4-10-7-12-7l-4 3z"/>
</svg>
