<svg xmlns="http://www.w3.org/2000/svg" viewBox="0 0 1024 1024">
  <path d="M258 1v10c-1 3-1 3 1 5l4 1c1 0 2-1 2-4l2-3c2 0 1-3-1-4l-4-2c-1-4-3-5-4-3z"/>
  <path d="M265 22v5l7-3c0-3-4-4-7-2z"/>
  <path d="M270 34c-2 1-2 2 0 6l1 3 2-3c2-5 1-7-3-6z"/>
  <path d="M275 47c0 3 0 4 2 4s2-1 2-4l-2-4c-2 0-2 1-2 4z"/>
  <path d="M364 55c-1 2-1 2 1 5 4 3 10 3 10 0l-1-3-2-2c0-3-5-3-8 0z"/>
  <path d="M414 77l-4 2-3 3c0 2 3 2 6 0l5-1c2 0 6-4 4-5l-4-1c-2-1-3-1-4 2z"/>
  <path d="M379 85c-3 1-3 2-3 7l-1 5c-1 1 1 6 5 9l3 5 1 5 3 4c2-1 2-1 2-4v-4l3 1 4-1 2-1c1 1 3 0 4-1l3-2c2 0 3-1 2-3 0-2-1-2-2-1l-5 1c-2 0-2 0-2-3l3-4c1-1 1-1-1-5s-5-7-9-9c-5-1-8-1-12 1z"/>
  <path d="M395 152h-7c-3 0-4 0-4 2l-2 5c-2 3-3 5-3 9 0 8 1 10 6 9h8c6 1 9-1 11-8l2-6-1-4-2-6c-1-3-4-4-8-1z"/>
  <path d="M463 185c-2 2-2 2-1 5s4 4 6 2c1-1 0-3-1-5-1-5-2-5-4-2z"/>
  <path d="M265 226l-2 7-2 9c-1 5-1 5 2 9 2 3 2 4 2 11s1 8 3 11 3 5 4 13 1 11 3 14c3 4 4 10 1 18-2 8-1 10 5 20l7 12c2 2 3 6 4 9 1 5 1 6 3 6 2 1 3 1 6-1l5-2 5-2c1-2 3-3 4-2l4-2c2-2 2-2 4-1 2 2 5 2 5 0s2-1 2 1l3 2c3 1 6-1 8-5 3-5 6-7 13-6l4-1-5-12c-6-12-6-13-2-12 2 0 2 0 2-4-1-4-4-7-8-7-2 0-2 0-1-2l1-9c0-6-1-8-2-10l-2-1c0 2-2 2-4 1l-1-4v-5c-3-1-4-5-3-10 2-7 2-8-3-8-4 0-5 0-6 2l-2 5-2 4-1 4v8c0 5-1 6-2 6-1-1-2 0-4 1-2 2-4 2-8 2-8-1-9-4-9-11v-9c-2-2-3-9-5-19 0-3-1-4-5-7-3-2-4-3-5-6l-2-4-3-4-3-3-3-3c-2-4-3-5-5-3z"/>
  <path d="M473 258c-1 1-1 1 1 4s2 5 3 15l2 15 1 5 2 6v8c-3 3-2 6 1 9l3 4c0 2 3 4 5 3v-7c-2-1-2-2 0-3s2-2 1-9l-3-11-3-11-2-13-1-8c0-2-2-4-4-5-4-3-4-3-6-2z"/>
  <path d="M445 315c-2 2-5 3-7 3-3 1-4 2-5 4-3 4-9 9-12 9l-4 1c-2 3 9 9 13 7h10c4-1 5-2 7-4l4-4c4-3 8-7 8-11l3-5c3-2 1-3-7-3-6 0-7 1-10 3z"/>
  <path d="M484 338l-1 7-2 9-2 12c0 8 1 10 3 13 2 2 2 4 1 7l1 8 2 8c0 4 0 5 4 8l6 3 4-8v-13l-2-12-3-7-1-4-1-5-2-12c0-7-1-10-3-12-2-3-4-4-5-2z"/>
  <path d="M347 351c-3 2-4 2-4 4 1 2 1 2 6 3 5 0 7-2 5-4-1-1-2-2-1-3 0-2 0-2-6 0z"/>
  <path d="M358 353c-2 4-1 5 3 2 2-1 2-2 2-3-1-3-4-2-5 1z"/>
  <path d="M337 361l-1 6c0 4 1 4 3 5l6 3c6 6 13 5 12-2-1-2-1-4 1-5 2-4 1-6-6-6l-10-2-5 1z"/>
  <path d="M353 398c-4 2-6 5-4 10 1 5 1 7-1 10s-2 5 0 10c1 3 3 5 6 6 4 2 9 1 10-1 0 0 1-2 3-2 2-1 2 0 5 3 6 6 6 7 5 15 0 9 0 10 2 16l2 5 3 5c3 4 3 7 0 7-2 0-2 2-1 6l1 5c-2 1-1 2 4 2 2 0 4 1 5 3l3 1 2-2c2 0 3 0 3-2 1-1 2-2 3-1l3-5c2-5 3-6 4-3h2l5-2c3-1 4-1 4 1 1 1 2 2 3 1l2 1c1 2 4 2 4 1l3-4 3-3-3-1c-2-1-3-2-3-4l1-5v-5l-2-3-4-3-6-4c-3-1-3-2-3-3 1-2-1-4-5-4l-5-4c-2-3-4-5-8-6l-5-2v-5c1-4 1-5-1-5-1-1-2 0-3 1s-1 1-6-1c-5-3-7-5-5-8 1-3 0-6-3-7-3 0-4-1-4-3s-2-4-7-7c-8-5-8-5-12-4z"/>
  <path d="M482 427l-2 5c0 5-3 7-12 7-6 0-16 4-16 7 0 4 11 15 17 15l7 2c5 3 10 4 11 2l6-1c11-2 14-4 13-10-1-3-2-4-4-5-5-2-10-10-11-15 0-5-4-9-6-9l-3 2z"/>
  <path d="M494 479c-3 5-2 7 1 8 3 0 3 0 4-3 1-4 0-10-2-10l-3 5z"/>
  <path d="M506 481c-1 1 1 6 4 7 3 2 8 2 8 0 0-1-9-8-11-8l-1 1z"/>
  <path d="M486 493l-1 4-2 6c-3 4-3 4-1 9 1 3 2 7 4 8l3 6c0 2 1 3 5 4 5 2 4 2 13-2 4-3 8-2 10 1l3 2 4 1 5 2c3 1 4 0 5-2 1-3 1-3-1-5-2-1-3-3-3-5l-2-2-2 1h-4l-4-1c-3-1-4-2-7-6-3-5-4-6-9-8s-5-2-6-6c0-3-1-4-4-7-4-2-5-2-6 0z"/>
  <path d="M541 541c-1 2 0 4 1 6l1 2 3-3c3-3 4-7 1-7-5-1-6-1-6 2z"/>
  <path d="M514 561c-2 1-4 4-3 6l7 1c1-1 2-2 5-2l4-3c0-2-1-2-5-3l-8 1z"/>
  <path d="M511 614c-2 1-1 6 1 7 1 2 6 3 6 1 1-1-5-9-6-9l-1 1z"/>
  <path d="M528 618c-2 2-1 6 1 6 3 0 5-2 5-5-1-2-4-3-6-1z"/>
  <path d="M498 629c-2 4-2 4 0 4s3-1 4-5c1-3-3-3-5 1z"/>
  <path d="M504 633l-3 2c-1 0-2 1-2 3s-1 4-3 5-3 3-3 5l-3 7c-2 2-2 3-1 4 2 2 4 2 6 1 1-2 8-3 10-2s1 4-2 4c-2 0-3 1-3 3 0 3 3 4 5 1l4-2 6 6 4 3h9l11-2h5v-5c0-4 0-5 2-6 3-2 3-6-1-7-5-1-6-1-7-3l-2-5-2-5c-1-2-3-3-7-5-5-3-6-3-10-2h-8c-4-2-4-2-5 0z"/>
  <path d="M492 639c0 3 1 4 3 3 2-2 1-5-1-5l-2 2z"/>
  <path d="M484 648c-1 1 1 4 2 4 3 0 4-3 3-4h-5z"/>
  <path d="M605 784c-4 1-6 2-8 5-4 7-4 11-1 15s3 8 0 9l-2 4c0 3 5 10 7 10l9 4 10 4 3 2c2 1 3 2 5 0 4-2 9-6 9-8s-5-15-8-17l-7-4-6-3c1-1 2-2 8-1 8 0 9-1 4-5-3-2-4-2-6-1s-2 1-3-1v-5c0-4-1-7-4-8h-10z"/>
  <path d="M679 878v4c1 5 3 4 4-1 0-3 0-4-2-4l-3 1z"/>
  <path d="M640 889l-5 1c-4 1-4 1-4 5l-1 8-2 4 4 7 5 8c0 2 1 4 4 5l3 4c0 2 1 3 4 3 5 0 9-2 8-4v-4l2-4 3-3c3-3 4-6 0-6l-3-4-4-4c-8-2-7-2-7-8 1-5 1-6-1-7-2-2-4-2-6-1z"/>
  <path d="M759 918c-1 3 1 4 5 3 2 0 3-1 3-2 0-2-1-2-4-2l-4 1z"/>
  <path d="M703 1006c0 1 0 2-3 2s-3 1-4 3c0 2 0 4 2 5l2 4c0 3 1 3 3 3l9-1 6-1v-5c0-6-2-9-6-9l-6-2c-4-1-4-1-3 1z"/>
</svg>
