<svg xmlns="http://www.w3.org/2000/svg" viewBox="0 0 1024 1024">
  <path d="M770 170v8c1 0 3-6 2-7 0-2-1-2-2-1z"/>
  <path d="M782 181c-3 3-5 5-7 5l-4 2c0 1 1 1 7-1 3-1 6-2 8-1 4 0 12 6 20 15 4 4 5 5 6 4s2-2 1-4c0-3-3-6-11-13-7-6-12-10-14-10-3-1-3-1-7 3z"/>
  <path d="M847 235l-2 2 4 2c2 2 6 4 9 4l5 2-5-6c-6-5-7-6-11-4z"/>
  <path d="M880 283l2 4 1 3c0 3 3 2 5 0s2-2-1-5-7-4-7-2z"/>
  <path d="M774 289c-4 1-11 4-15 7s-8 4-10 4c-5 0-7 1-7 4 0 5-9 19-13 19-1 0-4 3-6 7-5 6-5 7-4 12 0 4 0 7-2 10l-2 10-3 9c-1 2-2 4-1 7 1 6-1 12-6 17-4 3-4 4-4 10l1 9c1 2 0 3-1 5-3 4-2 7 2 13 4 5 5 6 5 11 0 4 0 7-2 10-2 4-2 5-1 10v17c0 2-1 3-3 3l-2 3c0 4-2 6-10 11-8 4-10 5-17 6-9 1-11 2-21 8-3 1-5 2-6 1-2-1-1-1-11 3l-10 4c-3 0-2 9 3 25 3 8 3 9 2 13-1 3-2 6-4 7-3 5-4 9 0 16l3 8 3 7c3 6 7 7 16 6 6 0 7 0 9 2l1 2 7-3 7-1 1 4c0 8 4 13 12 13l3 2c2 2 6 3 9 2 2-2 6-3 7-2l1 11-1 10 3 3 5 3 3 1 3 1c2 0 3 2 6 13 0 3 2 8 4 11 4 6 4 10 1 11-3 0-4 6-4 18 0 8 0 10 2 10l1-2c0-4 1-4 4-1l4 4 1 3c0 2 0 2 4 1 3-2 4-2 8 0 2 1 6 3 7 5l5 2 3 2c1 4 9-2 10-8 0-3 1-5 4-8l5-6c0-3 7-8 9-8l6 3c3 3 4 3 9 2h6l7 6c7 7 12 10 19 9 3-1 4-2 5-5s3-4 6-6l7-2c3 0 5-3 5-8 1-3 1-4-2-7l-8-6c-5-3-5-3-10-2-10 3-12 2-15-1s-4-5-4-8c0-4 1-5 4-9 6-8 5-9-2-5-5 3-8 4-10 2-1-1 0-2 2-4 4-3 4-3 2-6-2-4-2-6 4-13 5-6 6-8 3-8l-3-5c-3-5-2-12 2-17l3-7 4-5 2-1-4-4c-4-3-4-4-4-9s0-5 4-8l3-2 4 4 4 3 4-2 4-2v-7c1-9 0-12-6-16-3-2-3-3-3-7 1-9 4-16 10-23l9-12c3-5 4-6 7-4 2 1 3 0 10-9l24-40 6-12-3-4-6-9c-2-3-3-5-3-9 0-7-2-15-5-19s-11-7-16-6c-3 1-4 1-8-4l-6-9-5-8c-2-3-4-12-6-27-1-4-2-5-4-7l-7-7c-4-4-4-5-4-12 0-8 0-8-3-9l-4-5c-3-4-4-5-10-3-4 1-4 1-10-5-6-7-15-12-20-13-3-1-7 0-12 2z"/>
  <path d="M949 458l-6 3c-2 0-3 3-3 4 1 1 12 2 15 1l4-3c1-2 1-3-1-5-3-2-3-2-9 0z"/>
  <path d="M11 459l-3 8c-2 4-2 6-1 11 0 5 0 6-2 10l-4 7c-1 4-1 4 1 7 3 3 8 19 11 32 1 4 3 8 8 14 6 9 10 19 10 25l4 10 7 16c2 9 2 11 1 13l-1 3 9 6c7 5 9 6 13 6s6 1 8 3l2 2-2 3-2 3 2 2 3 2v3c0 5 2 9 8 14 3 4 6 5 10 6 5 1 6 2 6 3 0 3 2 4 8 5l8 3c1 2 2 2 5 1 4-2 7 0 9 4 3 4 3 5 10 6l15 1c8 0 8 0 11-4l2-3h8l38 5c9 2 14 2 23 2 14-1 21-3 29-8 7-4 13-4 19 1 14 10 19 11 59 11 32-1 38-1 45-6 2-2 5-3 8-3 5 0 14-4 15-7 2-4 1-5-2-6l-6 1c-1 2-2 2-6 1h-21l-9-7c-10-9-20-14-26-15l-7-3c-2-1-3-1-4 1-2 2-3 2-8-2-6-3-7-3-14-3-8 0-8 0-11-4l-19-14-15-9c-6-4-8-6-10-12-3-5-5-7-9-10l-10-8-16-11-11-9-12-15c-10-11-12-14-10-15 2-2 1-3-7-4-7-2-8-2-8-4l-3-3-5-5-8-5c-4-2-6-2-10 0h-6c-2-4-8-8-13-10-3 0-7-2-8-4l-3-2-4 2c-4 2-5 2-9 1-9-2-9-2-12-11l-3-11c0-3-2-5-3-3l-7 1-7 1c-3 2-7 1-15-4l-12-6-6-4c-9-7-23-10-25-6z"/>
  <path d="M953 483l-3 1-1 5c0 3 0 4 5 6 6 3 8 2 8-3 0-4-2-10-4-10l-5 1z"/>
  <path d="M1017 514h-6l3 2 6 2c4 0 4 0 4-2v-3l-7 1z"/>
  <path d="M439 727l-7 2-12 3-13 3c-5 1-7 2-13 7l-16 11c-6 3-9 5-13 11-5 7-7 11-7 17l-3 8-6 9c-1 5-1 5 1 7l6 5 8 7 3 3 6-1 12-4 5-2 8 2c19 6 30 14 30 23 0 10 0 11 10 14l10 3 5-4 6-5 4-4c1-3 3-4 6-5l12-9c22-19 40-31 72-44 11-4 21-10 24-12 5-3 6-3 5-5s-2-2-3 0c-2 2-6 0-12-5l-4-5h-11l-14 2h-7l-12-1c-8 1-8 1-16-3-6-3-8-4-10-9-2-2-3-7-4-9l-2-7c-2-1-9-2-13-1s-5 1-7-1l-7-1-11-1c-5-1-7-1-10 1z"/>
  <path d="M719 775v9c-1 3-1 3 3 4 3 2 4 2 5 6v9c0 3-1 4-3 5-3 2-6 5-5 7l6-1c7-3 10-2 18 1l7 3v-4l1-6c1-1 1-2-1-2l-6-5c-3-3-4-4-4-8s0-4-4-5l-5-1-3-7c-2-6-4-8-6-9-4-2-4-1-3 4z"/>
  <path d="M871 778l-4 1 4 9c4 9 5 14 3 19l-2 6c0 3 0 3 3 3 6 0 7 1 7 6s-5 17-7 17l-2 1 5 7c3 0 10-17 10-25l-4-17c-2-11-3-15-2-20 0-5 0-5-3-6-3-2-3-2-8-1z"/>
</svg>
