<svg xmlns="http://www.w3.org/2000/svg" viewBox="0 0 1024 1024">
  <path d="M327 277c-3 4-4 4-14 4-11 1-24 4-29 7l-3 6c-1 3-1 4-3 4l-3-1c-2 0-3 0-2-3l-1-2-7 1c-4 1-7 1-11-1-9-3-14-3-28 4l-13 5-5-2c-8-3-11-3-23 3l-17 9c-7 4-7 4-16 4s-10 0-20 4c-9 4-11 5-12 8l-1 3-5-2-4-4 2-4v-2l-11 3-19 5c-7 2-8 2-14 1l-13-3-9-2-3-1-3-4c-2-3-3-3-5-2-1 1-3 0-8-1-6-2-6-2-10-1l-11 8-6 5 3 7 4 10c0 3 1 6 5 9 8 9 20 18 31 23 10 5 11 6 15 11 7 12 19 23 27 25 3 1 5 2 6 5l14 15 16 19c6 11 15 19 24 22l7 4 1 10c1 10 3 14 7 19 2 1 4 6 5 9l3 6 6 2c6 2 7 3 8 5l7 11 6 8h7c16-2 20-3 29-7 12-6 14-6 19-2l8 3c3 1 4 1 7-3 4-4 5-4 11-4l10-2 4-2 2 2 3 3 7-4 6-3h40l2-3c2-1 4-5 5-7 1-5 2-5 6-5l10 1h6v7c1 6 1 6 9 13l7 8 11 2c13 3 15 3 21-1 9-7 11-13 7-28l-1-11c0-4 0-4 7-9 9-6 9-7 7-15-2-5 1-10 10-19s9-12 3-20c-7-11-11-18-12-25 0-6-3-14-9-22l-2-8c0-3 0-5-3-8l-10-14-12-15c-4-4-6-7-8-12-3-7-4-8-8-9-2 0-3-1-4-3l-9-13c-6-7-10-13-11-17-3-5-4-7-7-9-9-6-13-7-19-7l-9-2-4-2-4 3z"/>
  <path d="M713 541l-13 1c-37 3-35 2-49 7l-19 6c-3 0-5 1-6 3-4 4-14 6-29 6-12 0-13 0-23 3l-10 4-12 12c-13 13-14 15-12 26 1 5 2 6 9 11 7 7 8 7 20 10l15 3c3 0 3 0 1 2-1 3-1 8 1 8s11 8 13 12c3 3 3 4 5 3 3-2 4-3 4-7 0-3 0-3 2-3 4 0 8 6 11 13l6 12 7 9 9 7 13 7 4 3 6-1c8-2 24-9 27-13 2-2 3-2 3-1 1 2 3 2 9 2 8 0 9 0 11 2 1 2 1 2-2 3h-4l5 6 7 5 32 8c3 2 10 11 11 16l2 4 9 1h10l8-4c10-6 15-8 23-7 7 1 7 1 12 6l4 5h8c6 0 8-1 14-3l11-3 8-1c3-1 5-1 9 1a397 397 0 0045 4h37l27-1 9 4 9 4c1 0 2-3 3-10 0-4 2-10 4-15 3-5 4-10 4-13 0-4 0-4-6-8l-11-9c-4-4-5-5-10-7l-9-1c-2 0-3-1-5-3l-4-6c-1-2-2-3-5-4l-15-5c-3-1-3-2-3-5 0-4 0-4-5-7l-5-4-3 3c-5 4-13 7-20 9l-6 1v-4l2-5 10-4 10-4c2-1-8-7-11-7s-3 0-3-3c0-2-1-3-5-4l-5-4c0-2-1-3-7-5l-5-1 3-4 3-5-17-3-10 3c-7 3-9 4-10 1-1-1-3-2-9-2-7-1-8-1-12-5-7-7-11-8-25-5l-12 1-4-3-8-8c-3-3-5-4-9-5l-11-5c-2-2-5-4-6-3-3 1-8-1-13-6l-5-6-1 5-1 5-9-5c-7-5-9-6-11-10s-3-5-10-8c-8-3-9-4-10-2z"/>
  <path d="M479 562c0 2 1 2 3 2 3 0 3 0 3-2 0-3 0-3-3-3-2 0-3 0-3 3z"/>
  <path d="M505 577c-3 2-4 2-1 8 2 4 2 4 6 4 5 0 5 0 5-3v-7c-1-3-1-3-4-4l-6 2z"/>
  <path d="M1014 744l1 5h9v-3c0-4 0-4-7-6h-3v4z"/>
</svg>
