<svg xmlns="http://www.w3.org/2000/svg" viewBox="0 0 1024 1024">
  <path d="M712 210l-170 64-9 12-85 126c-66 97-77 114-78 111l-5-43-5-39-97-38-98-38-15 3c-12 2-17 4-21 7l-6 3-5-2h-16l-5-7c-5-5-5-6-9-6l-8-1-4-2-13 10-13 11 2 4c1 4 1 4-3 14l-3 12 1 11c0 8 0 8 4 10l3 2v17l-4 1c-2 0-4 3-13 14l-9 13-8 2c-5 2-8 3-8 5l3 11c2 7 3 13 3 21l2 13 1 7c-1 5-1 6-4 7-3 0-3 0-2 4 0 4 0 4-2 5-4 0-4 2 0 6 2 3 2 5 2 10 0 6 0 7 2 8l3 4a116 116 0 003 16c0 1-4-1-7-4l-2-2v4c0 4-1 6-3 9l-3 4 3 2 8 1c8 0 10 1 13 9l6 11c2 1 3 3 3 5s0 2-3 1l-3 1 5 10c2 1 4 6 6 10l6 12c2 1 4 5 5 9l2 6h-3c-3 0-3 0-1 7l5 8 4 4v12c1 14 1 14 12 24 8 6 8 7 8 10l3 9c5 8 6 12 5 17-1 2-3 10-3 17-2 12-2 13 0 18 2 8 4 11 9 17 4 4 5 6 8 14 2 9 3 10 6 11 3 2 3 2 3 9l1 7 3 1c3 1 4 0 9-3l6-3 7 4c4 2 7 3 11 3l9 3c6 3 15 3 21 0 5-2 5-2 5 1s1 3 6 0l6-2 6-3c1-2 3-3 5-3s4-2 9-7c7-8 7-8 12-8l5 1 2 3 2 2 3-2 3-2 2 4c2 5 2 5 13 0 8-4 8-4 10-2 1 2 2 2 5 2h3l1-11 1-11 5-6c5-4 6-5 11-6 9-1 13-4 19-14 7-12 12-17 20-20l13-2c6 0 7 0 12-4l5-4 6 1c7 1 7 1 11-1 3-3 4-3 6-2 4 2 16 1 20 0 3-1 6-2 16-1 12 1 13 1 16-1l5-2 34-15 18-7c5-1 6-2 13-13 10-14 15-20 18-21l10-7 7-7 10-1c11 0 11 0 14 3 5 4 9 4 14 0 3-3 4-3 11-4l10-1 10-2c6-1 8-2 10-4 4-3 11-14 16-21l5-6c1-1 2-3 2-8l4-10c3-4 4-4 8-3 4 0 4 0 5-3 3-5 14-13 23-16l14-6c3-3 8-5 14-7 9-3 11-4 13-7 4-3 8-4 12-1 2 1 3 1 5-1s3-3 6-3c2 0 3-1 5-3l5-4 6-2c5-7 7-8 14-9 3-1 9-2 11-4 4-2 5-2 7-1s2 1 4-2l6-3 6-2c1-2 2-3 7-3 8-1 9-2 10-4 1-4 9-6 13-5 3 1 4 1 11-2l9-6c3-3 23-12 28-12 4-1 4-2 5-4 1-4 12-11 17-11 3 1 4 0 4-2s6-5 13-6c3-1 5-2 7-5l10-7 5-2v-7c0-6 0-8-2-9-1-2-2-3-1-5 0-3 0-4-2-6-2-1-3-3-2-5 0-1 0-3-2-4-1-2-1-2 1-7l2-12c0-6 0-7 6-15l5-10c0-1 13-9 23-13l41-20a58399 58399 0 00-141-246l-171 64z"/>
  <path d="M5 585c-6 6-7 14-2 18l3 2 2-3c2-3 3-11 1-12v-2c1-1 2-6 0-6l-4 3z"/>
  <path d="M28 734l2 4 2 4c0 2 1 2 3 2s2 0 2-6c0-7 0-7-3-7-6-1-6-1-6 3z"/>
  <path d="M33 762l-3 3c-1 5-1 5 2 5 2 0 4-1 6-4l4-5h-3l-6 1z"/>
</svg>
