<svg xmlns="http://www.w3.org/2000/svg" viewBox="0 0 1024 1024">
  <path d="M150 1l-3 4c-1 5-7 14-9 14l-5 1-3 1v13h15c5 0 15 6 16 9s-3 10-6 10c-2 0-6 5-6 9 0 2 0 3 2 3s5-3 5-6c1-2 5-3 9-1s7 0 8-5c3-8 8-13 15-15 4 0 7-3 9-6 1-2 1-3-5-3-5 0-10-2-10-6-2-4-4-7-6-7s-3-1-4-3c-2-5-2-5-7-7l-8-4c-3-2-4-2-7-1z"/>
  <path d="M360 45l-5 9-4 3-5 2c-2 3-6 4-10 1-4-2-6-1-6 2l2 4v4l-4 7c-2 3-3 4-7 4-7 1-10 3-11 8l-3 6c-6 1-6 2-6 15 0 11 0 12-2 15-3 2-3 2-14 3-10 0-11 0-13-2-3-2-10-2-13 0l-2 3 9 5c4 0 8 3 9 7 3 6 2 6-2 13-4 6-5 7-6 6-2-2-3 0-3 6 0 7-1 10-5 10-1-1-4 0-7 2-5 2-7 2-13 2s-8-1-11-3c-3-3-4-3-7-2s-3 2-3 4c1 3 0 3-3 5l-3 2 2 6c2 7 2 11 0 13l-1 5c0 2-1 3-3 4s-2 2-2 5-1 4-3 5l-5 5c-4 5-6 6-10 8-3 1-4 1-3 3l1 4h9c4-3 14-3 19-2 2 1 5 2 8 1 3 0 4 0 6 2 3 2 3 3 3 10 0 9-1 11-6 19-4 5-12 10-19 11-4 0-4 0-4 3 0 2-1 3-3 4-4 2-7 7-7 14 0 4 0 5 3 8 4 4 10 7 13 7l4 3 3 5 2 2c0 4 1 4 5 1l4-4c0-3 3-6 6-6l3 1 1 2 2-2c3-3 8 0 14 9 3 5 4 6 6 6 4 0 10 4 10 8l4 5c3 2 4 4 4 6 0 3 2 5 10 6 3 0 4 0 8-3l5-3 6 1c7 3 18 10 20 14l3 3 5-2c4-2 5-3 8-7 2-4 3-5 6-5s3 0 2 3l1 5 3 5c2 3 2 3-1 4-2 1-2 2-2 8l-1 9c0 4-11 13-16 14-5 0-5 2 0 8 4 4 5 7 5 10l2 6 8 1h14c8 1 9 3 4 7-2 3-4 3-8 3-5 0-6 0-8 3-2 2-3 3-3 15 0 13 0 14 2 15l2 5c0 2 1 3 4 5 5 2 9 7 9 12 0 4-1 6-5 8-4 3-4 1-4 21l-3 9-3 9v5l5 1a360 360 0 0022 5c5-1 6-1 11 2 4 3 5 4 4 6 0 6-3 7-12 8l-13 2c-4 1-5 1-8-1s-6-1-6 2l-3 8c-2 4-4 6-7 7-3 2-5 2-7 1-3-1-3-1-6 2-4 5-3 8 5 12 5 3 7 5 9 9 3 6 6 9 9 9l4 3c3 3 3 3 9 3l9 1 3 1 5 3c3 3 4 4 4 7s1 6 4 11l6 11c1 3 2 5 4 6l4 3c0 2 2 3 3 3l3 4c2 3 2 3 6 3 5 0 5 0 9 4l6 7c1 3 5 5 11 6l4 2 3 9c3 7 3 10 2 15 0 5 0 6 2 8l5 2c2 0 2 0 2 4s1 6 6 13c6 7 7 8 8 13 0 5 1 6 3 8s2 3 2 9c0 7 0 9-2 11-2 3-2 3-1 4 2 1 2 3 3 8 0 7 0 7-3 11-5 4-17 8-30 9-9 0-10 0-18-3-9-3-11-6-11-11 0-3-1-3-4-5l-7-1-5-2-5-1-4-2-4-1-2-1c0-2-4-4-7-3-6 1-9-1-15-7s-8-11-9-22c0-7 0-8 2-12 2-3 2-4 2-9l-5-10c-3-3-4-6-4-9-1-3-1-4-4-4l-21-1a2357 2357 0 01-51 3c-4 3-5 4-5 8s0 4 7 5l7 4c3 2 4 3 5 10a283 283 0 009 29c2 0 2 1 2 3 0 3 1 4 3 6l4 3 5 3 4 3c2 0 1 5-1 6-2 2-4 6-3 7 2 3 13 0 20-5 5-3 8-4 16-1 6 1 6 1 7 6 3 8 2 14-1 18-2 3-2 4-2 11 0 12-1 16-7 20-3 3-5 5-6 9-2 5-8 10-12 10l-8 3-8 3-4 3c-1 3-4 4-9 5-6 2-11 10-6 11 1 1 4 0 6-1l6-2c3 0 11 5 17 11 4 4 5 4 7 4l8-4c3-2 5-3 10-3s7-1 9-8l4-6c3-1 4-1 8 1 6 3 6 4 6 10v13l-2 5-4 7c-3 4-3 4-1 10l2 10 2 4-3 7c-5 10-6 12-3 15l6 7c3 5 7 7 7 3l1-8 4-11 5-6 1-4c1-2 1-2 6-2l9 3 9 3h4v15c-1 1 0 3 2 7l2 9c0 2 3 3 4 0l3-1c3 0 9-3 9-5l3-4c5-4 14 0 16 7 0 2 1 5 3 7l2 4 1 5c2 3 6 4 6 1s2-3 5-1l4 2c7 0 10-2 16-7 4-5 5-6 5-9l2-5 3-5 4-5c2 0 2-1 1-2l-1-12v-11l8-4 10-7 3-2 5 2c6 2 9 6 11 12l4 6 1 4 2 12 3 14c1 4 1 4 5 4 6 0 8-1 8-4l-1-4c-3-1-3-5-1-9l2-5 2-5c4-4 9-5 14-1l8 3 6 2 5 2c3 0 4 0 5-4 2-3 3-5 5-5s3-1 4-3c1-3 2-4 5-4 2 0 3-1 3-3 0-4 4-11 8-12 3-2 5-6 3-7-3-2-19-1-21 0-3 3-9 2-11 0l-4-6-1-5h-5c-7 0-19-6-22-10l-5-5c-5-2-8-7-7-13 1-7-1-12-10-17-7-5-7-5-7-10l-1-5c-1 0-1-6 1-10l7-3c5-1 7-1 19 3 2 0 2 0 1-2l-1-7c-1-7-4-13-7-17-4-3-4-8 0-14 8-13 7-12 14-13 8 0 8-1 8-4-2-7-2-10-1-13 2-5 5-6 14-5 10 1 10 1 19 5 8 4 20 7 27 7 8 0 3-5-6-7l-8-7c-3-4-5-6-7-6-3 0-4-2-2-9 2-5 2-8-2-13-2-3-3-15-1-17l2-7 1-6h6c4 0 5-1 6-2 1-2 4-3 6-4 10-3 16-6 17-9l3-6c2-3 3-3 8-3h5l1-5 1-5-3-1-2-4 5-13c1-2 2-3 6-3h4v-5c0-9 0-9-7-9l-11 1c-3 2-4 2-7 0l-4-1v-7c0-5 0-7 2-9 4-6 1-9-9-9-7-1-7-1-11-5l-7-10-5-7c-2-2-3-2-5 0l-3 2v-5l-3-6c-4-5-4-7-2-11 4-5 4-6 0-7-4-2-6-4-7-11 0-6 1-9 6-14l5-6 4-4c3-3 1-4-4-4-4 0-6-2-6-5 0-6 10-16 19-19 7-2 8-3 8-7-1-3-1-5 1-7l2-6 4-8c3-5 5-7 7-7s3-2 4-6c2-4 3-5 9-9l7-5v-10c1-12 3-15 8-16 4 0 11-4 11-6 0-3 7-7 11-8 3 0 6-1 7-3l5-3c1-1 2-1 4 2s4 4 6 4c4 0 6-2 7-8 0-4 0-5-4-9l-8-7c-2 0-4-2-4-4l-3-4c-2-2-1-4 3-4 3 0 5-2 5-7l2-7 3-6c0-4 2-7 5-7 2 0 3-1 3-4 1-3 1-5-2-9l-4-11c-1-6-3-9-9-12l-14-11-10-10h-5c-4 0-6-1-7-2l-6-4c-4-2-6-3-9-2l-4-1-2-3c-2-2-1-4 1-7 3-2 4-6 2-11-2-3-3-3-6 0-1 2-3 2-7 2l-7-1-3-4-5-5c-3-2-3-2-8 0l-6 1-8-1c-6 0-9-1-12-4-2-2-3-2-9-2-5 0-7 0-8-2-2-2-7-1-11 1l-8 3c-6 0-6 0-13-6l-9-9c-3-5-7-10-9-10l-3-3v-3l-3 3-4 3c-2 0-1 4 1 6 3 2 3 3 3 8s-1 5-3 5c-4 0-6 2-9 8-6 12-15 17-21 12-3-3-4-7-5-13l-5-3-7-3c-2-2-2-2-1 0 0 2 0 2-10 2l-12-1h-4c-1 1-2 1-3-1v-3c2-2 2-2-3-4-6-4-9-9-9-17v-5l-8-8-8-9v-6c0-5 0-6 2-8 3-2 6-3 7-1l5 1h4l-1-6c-1-7-2-9-5-7s-5 1-11-3l-8-3c-2 0-4 0-5-2l-6-2c-9-2-15-8-15-16 0-4 0-5 2-6l2-1c0-2-5-6-8-7-2 0-4-2-5-4-2-4-5-5-11-5l-5-1c-1-1 0-6 3-10 4-5 4-6-1-6-4 0-5 0-6-2l-6-2c-4 0-4 0-5-3s-2-4-6-4c-12-2-14-2-15-5-3-4-2-6 9-10 14-7 21-9 28-10 6 0 7-1 9-3 1-2 1-2-1-2-2 1-4 0-6-1l-4-2 1-6c0-6 2-10 5-10 2 0 6-3 6-4l-3-5-4-4-4 6z"/>
  <path d="M809 312l-1 4c-1 2 0 2 4 1 2 0 3-4 0-5h-3z"/>
  <path d="M754 337c-1 1-1 2 2 3 4 2 6 1 6-1l-2-2-4-1-2 1z"/>
  <path d="M846 342l-5 9-3 5-4 4-6 6c-5 3-6 4-6 7 0 2-2 5-9 12-8 8-9 8-13 8-3 0-4-1-4-3s-2-4-3-4-5 7-6 11c0 4-3 5-11 3-7-1-10 1-10 6 0 2 0 3 2 3l8 3c5 2 6 2 7 6 0 3 1 3 5 4 11 1 27 15 31 27 1 2 3 7 6 9 6 7 7 10 7 18 0 9 3 13 6 13 5 0 9 3 10 7 0 3 1 4 5 6 3 2 4 2 6 1 2-2 2-2 0-4s-5-8-6-19c-2-12 0-17 5-19l7-4 7-2c4 0 5 0 8-4l4-8c1-4 1-5-1-9l-3-8c0-4 0-5 3-10 4-5 4-5 6-3h4c2 0 2-1-1-5l-2-7c0-6-2-10-8-13l-4-2v-7c0-8-2-12-11-22l-8-10c-1-4-5-7-8-8-1-1-2 0-5 3z"/>
  <path d="M762 369c-2 0-4 4-5 9-1 3-1 3 1 3l3-1 3-3v-9l-2 1z"/>
  <path d="M710 469l-5 3 1 7c1 6 1 6-2 9l-3 3 4 3c2 2 3 3 2 4-1 2 0 6 2 6l7-3 10-4 5-4c2-4 3-10 1-10s-10-8-11-11c0-3-1-4-3-5-4-1-4-1-8 2z"/>
  <path d="M762 529l3 3c2 2 3 3 4 2 2-1 2-1 0-4-2-2-7-3-7-1z"/>
  <path d="M710 555c-2 2-2 2 0 4 2 3 8 6 11 6l2-2c1-2 1-2-2-3l-4-4c-2-3-4-4-7-1z"/>
  <path d="M736 561l5 4c6 2 14 2 15-1 0-4-3-5-12-5-7 0-8 0-8 2z"/>
  <path d="M703 715l-1 5-1 6c-1 1-1 2 3 6 2 4 4 5 6 5s3 0 4-3v-10c-1-5-1-7-3-7-2-2-8-3-9-2z"/>
  <path d="M462 778l-1 3-3 4c-2 1-3 2-2 4v3l14-5c2-2-1-10-5-10l-3 1z"/>
  <path d="M616 819l-3 2 13 7c3 1 3 1 3-3s0-4-4-6c-5-2-6-2-9 0z"/>
  <path d="M452 1009l-3 3c-2 2-1 8 1 10s2 2 5 0c2-1 2-2 2-8 0-5-1-6-2-7l-3 2z"/>
</svg>
