<svg xmlns="http://www.w3.org/2000/svg" viewBox="0 0 1024 1024">
  <path d="M814 68l-18 2-3 4c-3 6-10 11-15 14-4 3-7 3-17 5-15 1-19 3-25 10l-6 8-2 3-3 5-2 6-4 3c-3 1-5 2-6 4-2 3-4 4-8 6-7 2-7 2-8 6l-1 5h-7c-7 0-8 0-12 4l-10 7c-5 4-9 12-13 28l-6 19c-2 5-3 6-6 7-4 1-8 5-14 14-4 6-11 11-17 11-3 0-18 4-24 7-2 0-3 2-1 4v3l-3 12c0 7-1 9-2 11-2 2-3 5-4 9-1 6-4 12-11 19-4 5-14 9-22 9l-19 2-12 2-11-2c-10-3-17-6-17-8l-4-3h-20l-2-3c-2-3-8-7-18-13l-14-8h-10c-9 1-10 1-15 5-4 4-6 6-10 14-4 10-4 11-4 19v8l-9 11c-7 10-10 12-16 16-7 4-11 9-15 18l-3 6h-5c-4 0-7 1-10 3-5 2-5 2-5 7l-1 6h-22c-16 0-23 0-27-2-4-1-5-1-8 2l-4 2-3-2c-2-2-2-3-1-7 0-5 0-6-2-10-2-5-2-5 5-14l5-10c2-6 2-7 1-14l-6-20-5-15c0-4-1-7-6-11-2-3-5-7-6-11-6-15-11-20-22-22l-9-5-5-5v7a3995 3995 0 018 241v10l-7 3-9 4-6 2c-4 2-5 3-5 6-1 5-3 6-11 8l-6 1v13l-4 2c-4 1-5 1-10-2-8-4-20-4-28-1l-15 2c-8 1-8 1-17-3-10-5-12-5-18-4-4 1-4 1-4-1 0-3-7-5-12-3l-5 1v-4l-3-7v-7c1-4 1-8-1-13l-2-4-3 2c-2 3-3 3-4 2l-2-5-1-5c-1-2-7-3-12-2-4 1-6 2-11 9-3 4-3 4-1 7 1 2 1 2-1 7s-8 12-13 14l-4 4-2 3 3 4 6 7 5 6c3 1 4 3 4 5l4 7c4 4 12 19 13 25 0 2 2 7 5 10l5 13c0 6 4 17 9 27l4 10c0 3 3 7 5 10 5 8 9 15 12 23a322 322 0 0026 37l7 12 8 11c4 3 10 17 12 29l2 22c0 14-1 19-7 23-4 2-4 3-8 2-9-2-9-3-10 1v6a354 354 0 012 15l7-3c2 1 7 8 7 10 0 3-4 1-6-2l-3-3h-2l2 2 5 7c3 6 11 15 13 16 3 2 4 4 4 7s1 4 3 6c3 3 6 10 6 14 0 3 0 4-3 5-3 0-4 1-4 4v6c2 1 2 2 1 3l-2 3c0 2 5 10 8 13l3 2v-6c0-9 2-14 4-14l7-1c5 0 5 0 7 4l2 11v7l3-2c4-2 10-1 12 1l6 2c2 0 11 4 11 6l-2 3c-3 5-3 6 2 5 4 0 5 0 9 3 6 6 8 6 16 7l11 1c4 1 5 1 5-1s4-6 8-6c2 0 3-1 4-3l5-5c2-1 4-3 4-5 1-1 2-3 6-4 4-2 8-2 18 0 3 0 3 0 2-2-3-5 2-6 17-3 8 1 9 1 12-1l15-1c13-1 17-2 18-8 0-2 2-4 6-8l5-6 9-1 14-3c5-3 10-2 20 1l16 2c11 0 12 0 14-2 2-3 8-6 11-6a332 332 0 0162 14l11 2c4 0 4 0 4-2l2-4 2-5 3-5c3-1 11 0 19 2l8 2 5 1c2 2 2 2 6 0l4-1-2-4c-3-5-2-9 4-14 6-4 11-5 26-2 16 3 18 3 25-1 4-2 9-5 12-5 4-1 9-4 13-7l12-7 10-7 10-7 9-6 12-9c5-3 9-7 11-10 3-4 6-6 10-8 13-6 29-20 41-35l8-9 5-5a179 179 0 0146-42c4-2 7-5 14-13a655 655 0 0122-29l13-20c6-7 12-17 14-21l6-9c4-2 7-7 10-14l6-12 8-13c5-7 29-33 34-36l6-1c6 0 8-2 22-15 10-11 12-13 14-19l6-13c3-5 5-10 7-22l4-17 4-12c7-13 13-32 13-39v-6h-17l-24-2c-13-2-16 1-16 16v9l-4 1c-6 3-23 2-33-1-6-2-8-3-14-10-8-7-8-8-9-14 0-8 0-8-5-8l-4-1v-9l-1-14-1-5 8-7 9-10 3-6 2-5 1-5 6-4c4-4 7-5 11-6 5-1 6-1 11 1l7 6c3 4 7 6 14 9l6 2v-10c0-10 0-10 3-12 4-3 4-3 0-8l-1-4 1-5 2-9c2-6 2-11 3-37l1-31-4-7c-3-7-3-7-2-13 1-8 1-8-3-12-5-3-8-9-8-17 0-5-3-10-7-14-3-2-3-10 0-15 1-4 1-4-1-10l-2-9-8-33-2-8c0-10-7-12-44-13-21 0-23 0-27-2-15-8-33-14-40-14l-21 3z"/>
</svg>
