<svg xmlns="http://www.w3.org/2000/svg" viewBox="0 0 1024 1024">
  <path d="M681 84l-81 10 2 5c3 4 3 5 2 12l-1 7-10 13c-10 12-12 14-24 23-13 9-15 11-15 12l5 5 6 4 4 14c4 11 5 14 4 16-1 4-1 4 2 5l4 1-3 7-2 13-2 14c-2 7-2 8-1 11l1 6 2 4c1 3 2 4 1 7s-1 5 1 7l1 5 2 4v4l-4 4c-3 0-9 10-9 15l-2 5-2 7c0 6-5 28-8 33l-3 10c0 4 0 5 2 7 3 1 3 3 3 6l2 6c1 1 1 2-1 3-2 2-2 4 2 6l4 4c0 2 1 2 5 2 3 0 4 0 6 3s3 4 5 4c4 0 5 1 11 10 3 6 5 8 6 8 2 0 4 3 9 10l5 9 10-1c10 0 10 0 11 2 2 2 3 3 5 3l7 2 3 2 4-3 3-4h-2c-3-1-3-2-3-6s0-4 3-5l7-2c7 0 11-1 13-4l4-2c2 0 2 1 2 23l-2 55v33l-3 1c-3 2-9 0-11-3l-2-3 3-6 3-5-4-1-6-2-6 4-16 8c-12 5-12 5-16 3-3-1-4-1-8 1l-5 2-3-5c-3-4-4-5-4-9 0-5 0-6-3-8-3-3-3-3-4-10v-8l-8-7-7-7-3 2c-3 3-3 3-5 1l-2-2-3-6c-2-4-3-5-2-9 1-3 0-4-2-8-3-3-3-5-3-11v-6h-26c-2 1-3 1-4-1l-5-2c-5 0-8-2-8-4s-1-3-5-5c-6-2-6-2-8-1-1 2-2 2-8 1-5-1-6-2-6-3l-5-5-5-5-3-5-4-9c0-6 0-6-8-12l-8-6-1-9-1-9-8 1h-8v4c0 3 0 5-2 7-2 3-2 4-2 8l1 5-5 4c-9 8-8 7-12 6-2-2-3-2-6 0l-4 2-11-4-12-4-4 1c-3 2-4 2-10 0h-10c-6 2-9 1-10-5-1-3-2-4-4-5-3 0-4-1-4-3 0-3-3-4-6-2-2 1-3 1-9-3-7-3-7-3-12-2-6 1-8 0-8-4 0-2-1-3-6-6s-7-5-8-8c-2-3-2-4-1-5 2 0 2-2 1-9v-18c-2-1-4-1-9 1-3 2-8 3-16 4l-15 3-8 2c-4 1-6 2-10 7l-10 7c-3 1-4 1-7-1l-6-2c-3 1-10-2-9-4l4-2c3 0 4-1 5-4l2-12v-8l-4-3c-2-2-5-3-7-3-7 0-8-1-9-6s-3-8-7-8c-3 0-3 0-2 1v15l2 16 1 12-6 11-5 11 2 5 2 8-1 18v15l4 9 5 10-5 5-8 13-3 9 1 7c2 10 2 10 6 13 3 1 3 2 3 5v4l-24-1-90-1H1v2L0 634v145l4 5c4 3 5 6 7 12l2 8 8 4c8 4 9 5 9 13l20 23c19 20 20 20 44 37l23 17 15-3a408 408 0 0044-10l14 4c12 4 22 6 36 8l13 2c7 3 16 9 20 15l13 10 9 6 13 1c16 0 27 3 32 9l4 3h7l12-3 13-1c15 2 20 3 23 6s3 3 12 4c9 0 10 0 13-2l5-2c3 0 11-5 15-8l7-11c3-6 4-8 13-15l16-14c8-6 10-9 12-16 1-3 4-8 10-15l9-11 12-5c12-6 13-6 20-14l7-9 23-8 23-8 1-4 2-14 2-12 2-8c0-5 5-11 9-11s12-5 18-10c4-5 11-7 27-11l11-3 11-3c8-2 8-2 13 0s7 2 13 1h10l11 1h9v-24l-4-7c-6-7-6-9-6-16l1-6 24-11c25-10 25-10 54-16 29-7 29-7 34-11 4-4 6-5 13-6a317 317 0 0179-24l58-15-3-3c-2-3-3-4-6-3l-5 2c-3 2-6 1-6-1l-3-8-4-7-5-3-6-2v-2l3-2 2-2-2-3-6-3-3-3 2-2c2 0 9-4 11-7l4-5 3-6c0-5 5-13 6-13v-15l2-11c0-4 0-5-2-5-2-1-2-2-2-5s1-6 4-11c4-6 5-6 8-6l7 1c2 1 2 1 6-2 2-3 5-4 8-5 5 0 6-1 6-3s1-3 4-4l3-1 2-4 2-2-3-1-7-3c-4-1-5-2-6-5l-2-5-1-5c-2-4-2-5 0-7l1-4 2-5v-8c-1-3 0-4 1-5v-14c1-4 1-4-2-6l-4-4c-2 0-2-1-1-5v-8c0-2 0-2 2-1 3 2 4 2 4-1l6-10 5-10-4-8c-3-4-4-7-4-9l-2-5-2-3c-1-2-1-2 1-2 1 1 2 0 3-1l9-2c6 0 7-1 9-3l8-11 7-7-6-8-5-8v-8l1-7-10-8-9-8 2-9c1-4 2-8 1-9l-5-7c-4-5-5-6-4-9 1-5-1-7-6-7-3 0-4 0-4 2s-1 2-5 1c-3-2-4-2-4-5l1-5c1-2 0-2-2-4-3-1-4-3-4-4 0-3-2-5-10-10-5-2-8-5-10-7-2-4-3-4-16-8-7-1-8-1-10-6l-2-4h-10c-8 0-9 0-12-2-6-4-11-6-16-6-4 1-5 1-7-3l-3-6c0-2-2-3-12-6-1-1-3 0-5 1l-4 2-5-5c-5-5-5-5-5-11v-6h-4l-9-4c-5-4-5-4-9-3-3 0-4 0-7-2s-5-2-11-2h-8l-12-16c-10-14-12-16-15-16l-82 10z"/>
</svg>
