<svg xmlns="http://www.w3.org/2000/svg" viewBox="0 0 1024 1024">
  <path d="M616 39l-17 1-12 3-12 3a707 707 0 01-31 11c-10 3-22 11-26 16-3 4-4 5-6 5l-11 5-7 5v5l-2 9c-2 4-3 6-3 11l-1 13-2 12c0 7-2 12-6 17-5 6-33 17-74 30-2 0-4 3-6 8l-4 7-12 4c-12 5-24 11-33 17-7 4-20 21-29 38l-15 22c-7 9-9 11-16 15-18 11-32 25-33 35-1 4-2 6-4 7l-6 8c-3 5-4 6-13 11l-14 6-9 4c-6 4-7 4-8 1l-1-3-5 3c-6 2-11 3-15 0l-4-5c-2-3-4-5-7-6-4-2-6-2-24-2-17 0-20 0-26 2s-9 2-20 2l-14-1-2-5c-1-3-1-4-9-8l-9-4H50c-26 0-36-1-43-5l-7-3 1 11c0 9 1 12 4 21 4 11 5 11 10 14s5 3 10 16c9 21 12 28 19 34 5 3 7 6 9 10s3 5 8 7l6 2-1 8c0 8 1 11 3 17l2 8 8 5 8 4 1 10v12c-1 3-1 4 3 12s6 14 11 32l5 22 6 2 10 2c3-1 4 0 4 2v6c-2 3-2 3 0 4l6 2c3 1 4 2 6 5 2 4 3 4 11 6l8 2 2 7c5 11 5 12 10 12 3 0 5 1 9 5 6 4 7 4 21 8l20 3c4 0 5 1 11 6 7 5 7 5 11 18l4 12-1 15v15h2c11-3 18-3 33-2l16 1 1 4c2 4 2 5 0 10v13c1 7 1 8-1 12-3 7-5 20-4 25l-1 10c-2 6-2 6 0 11s4 6 9 6c3 0 13 16 17 27l4 13c0 2 1 7 3 10 4 9 5 9 27 10 16 1 17 1 27 4 9 3 11 4 16 4 5-1 6 0 17 5 7 3 17 7 26 9 12 4 19 6 19 8l-4 7-4 7 3 7c1 5 4 9 6 12l5 4 9 1h10l5 6 5 6h8l13-2h10l7-1c2-1 4 0 11 4 7 5 8 5 13 5h5l2 7c3 9 4 10 15 7 10-2 11-2 20 3 9 6 12 6 22 3h11c6 2 9 2 14 0l17-3c18-1 21 0 29 6 6 4 7 5 12 5 3 0 7-1 10-3l7-2c3 0 11 6 17 12l5 5 20-19 48-46 61-58c34-35 32-33 39-31 2 1 2 1 2-4s-1-6-5-14l-4-9 10-15 10-13-1-17c-1-21-2-20 4-26 4-5 4-5 10-6l8-1 11-14c6-10 9-15 12-16l6-7v-6l2-7c3-5 4-7 7-8l3-3 3-2 6-1h3l1-11a161 161 0 015-27l-11-10-12-9 1-7v-7l-4-6c-5-6-5-7-5-13v-6l5-3 5-4 1-9 3-16c2-6 2-6 1-9-2-2-2-4-1-7v-3h-7c-6 1-7 1-10-2l-3-4 3-5c4-3 4-3 2-6l-1-4 6-4 6-3 6 2c7 2 6 2 11-6l3-6-2-7-4-10-2-6c0-3 0-4 5-6s6-2 8 0c1 1 1 1 4-2 2-3 3-5 3-8s1-4 2-5c3-1 4-3 4-4l-4-4-4-2v-8c0-7 0-8-5-19l-5-11 3-7 3-12c0-7 2-13 4-14s4-6 4-12l2-6 1-5c0-5-3-14-5-16-2-3-2-8 1-11l2-6 4-4 3-2-2-3-3-9-3-20c-3-14-4-15-8-21-5-7-5-7 0-9a2490 2490 0 0119-29h-40v-14l-23-12c-23-13-24-13-32-14l-22-1c-11 0-12 0-18-3l-7-6c0-2-1-4-5-6l-9-10-6-8-14-3-21-6c-6-2-8-3-8-6l-4-4-4-5c-3-4-14-8-20-8-8 0-15 2-20 5-5 4-7 4-10 0l-3-2-32-2-32-1V69l1-26h-6l-8-2c-3-1-3-1-7 2l-4 3-3-3-4-4h-14l-17-1h-16z"/>
</svg>
